<?xml version="1.0" standalone="no"?>
<!DOCTYPE svg PUBLIC "-//W3C//DTD SVG 1.1//EN" "http://www.w3.org/Graphics/SVG/1.1/DTD/svg11.dtd" >
<svg xmlns="http://www.w3.org/2000/svg">
<metadata>
Created by FontPrep 20130207 at Tue Apr  8 14:50:40 2014
 By Nitin Tyagi
Copyright (c) 2008 by Australian Type Foundry. All rights reserved.
</metadata>
<defs>
<font id="a1d48ba2e0e365e38e2f0b8448f26bab" horiz-adv-x='1024' >
  <font-face 
    font-family="ArumSansExtrabold"
    font-weight="800"
    font-stretch="normal"
    units-per-em="2048"
    panose-1="2 11 9 4 1 0 0 2 12 0"
    ascent="1536"
    descent="-512"
    x-height="860"
    cap-height="1341"
    bbox="-92 -752 2599 1866"
    underline-thickness="102"
    underline-position="-102"
    unicode-range="U+0020-FB04"
  />
<missing-glyph horiz-adv-x="430" 
d="M35 0v1331h377v-1331h-377z" />
    <glyph glyph-name="ffj" unicode="ffj" horiz-adv-x="1792" 
d="M797 897q0 117 43 209q-201 25 -267 24q-102 0 -102 -141q0 -61 2 -131h324v39zM1395 86v592h-305l2 -678l-295 -12v690h-324l2 -678l-295 -12v690l-188 31v151l188 -2v39q0 215 127 321t311 99q52 -2 192 -27t173 -28q111 61 258 55t369 -43l92 -12l-31 -168
q-281 36 -399 36t-151 -30q-32 -30 -31 -111v-131l598 -2v-780q0 -244 -213 -535l-187 107q57 113 82 203t25 235z" />
    <glyph glyph-name="fj" unicode="fj" horiz-adv-x="1179" 
d="M782 86v592h-309l2 -678l-295 -12v690l-188 31v151h188v37q0 215 126 321t312 101q103 -4 279 -43l59 -12l-30 -170q-357 70 -423 6q-32 -31 -32 -111v-131h604v-782q0 -244 -213 -535l-186 107q58 113 82 203t24 235z" />
    <glyph glyph-name="ff" unicode="ff" horiz-adv-x="1329" 
d="M471 989v-131h322v39q0 123 43 209q-129 24 -205 24q-160 -2 -160 -141zM1339 858v-180h-254l2 -678l-294 -12v690h-320l2 -678l-295 -12v690l-188 31v151h188v37q0 217 127 325t311 97q93 -5 212 -29q120 -24 149 -28q137 82 353 47q50 -8 77 -17l25 -8l-31 -170
q-127 25 -199 25t-96 -33t-25 -117l2 -131h254z" />
    <glyph glyph-name="fi" unicode="fi" horiz-adv-x="1187" 
d="M788 678h-313l2 -678l-295 -12v690l-188 31v151h188v37q0 215 128 323t313 99q114 -5 290 -41l64 -14l-31 -170q-375 68 -439 6q-32 -31 -32 -111v-131h604l2 -858l-293 -12v690z" />
    <glyph glyph-name="fl" unicode="fl" horiz-adv-x="1202" 
d="M471 989v-131h254v-180h-254l2 -678l-295 -12v690l-188 31v151h188v37q0 215 128 323t312 99q129 -5 386 -45l94 -14v-1260l-293 -12v1130q-57 18 -96 19q-238 0 -238 -148z" />
    <glyph glyph-name="ffi" unicode="ffi" horiz-adv-x="1804" 
d="M797 858v39q0 123 43 209q-86 24 -188 24t-142 -34q-39 -34 -39 -107v-131h326zM1407 678h-317l2 -678l-295 -12v690h-326l2 -678l-293 -12v690l-190 31v151h190v37q0 217 127 325t311 97q50 -2 188 -27t177 -30q111 63 237 58t312 -42l63 -14l-30 -170q-203 36 -298 36
t-138 -34q-42 -35 -42 -107l3 -131h612l-2 -858l-293 -12v690z" />
    <glyph glyph-name="ffl" unicode="ffl" horiz-adv-x="1789" 
d="M786 858v39q0 123 43 209q-87 24 -189 24t-134 -30t-31 -111v-131h311zM1079 989v-131h226v-180h-226l2 -678l-295 -12v690h-311l2 -678l-295 -12v690l-188 31v151h188v37q0 217 127 325t312 97q53 -2 190 -28t164 -29q109 63 247 57t373 -45l91 -14v-1260l-293 -12v1138
q-35 10 -68 11q-246 0 -246 -148z" />
    <glyph glyph-name=".notdef" horiz-adv-x="430" 
d="M35 0v1331h377v-1331h-377z" />
    <glyph glyph-name=".null" horiz-adv-x="0" 
 />
    <glyph glyph-name="nonmarkingreturn" horiz-adv-x="681" 
 />
    <glyph glyph-name="space" unicode=" " horiz-adv-x="471" 
 />
    <glyph glyph-name="exclam" unicode="!" horiz-adv-x="602" 
d="M489 144q0 -68 -53 -114t-128 -46t-127 46t-52 114q0 67 52 114t127 47t128 -47t53 -114zM406 389l-193 -8l-74 950l312 15z" />
    <glyph glyph-name="quotedbl" unicode="&#x22;" horiz-adv-x="866" 
d="M741 793l-166 -17q0 190 -19 354t-38 234l-18 68l272 8q-31 -219 -31 -647zM317 793l-165 -17q0 190 -19 354q-18 164 -39 234l-18 68l272 8q-31 -219 -31 -647z" />
    <glyph glyph-name="numbersign" unicode="#" horiz-adv-x="1167" 
d="M496 752l-43 -232h235l41 232h-233zM1126 913v-161h-190l-43 -232h190v-162h-221l-65 -360h-201l63 360h-237l-66 -360h-200l63 360h-184v162h213l41 232h-205v161h233l64 344h209l-66 -344h234l63 344h209l-65 -344h161z" />
    <glyph glyph-name="dollar" unicode="$" horiz-adv-x="1173" 
d="M705 242q71 20 97 61t15 107q-4 28 -41 54t-71 36v-258zM545 1069q-158 -25 -142 -125q10 -57 142 -102v227zM705 791q181 -66 275 -146t110 -217t-97 -255t-288 -132v-182l-181 -6v190q-102 14 -213 49t-168 64l-59 28l76 162q184 -90 364 -106v327q-235 77 -318 158
t-90 204q-7 124 118 219q126 95 311 107v193l160 6v-197q182 -6 342 -57l-62 -180q-147 51 -280 57v-286z" />
    <glyph glyph-name="percent" unicode="%" horiz-adv-x="1832" 
d="M1392 602q-50 0 -88 -60t-38 -181q0 -123 32 -187t86 -64q53 0 89 67q35 67 35 186t-33 179t-83 60zM301 978q0 -122 33 -188t86 -65q53 0 89 68q36 67 36 185t-34 179t-84 61t-88 -58q-38 -60 -38 -182zM1384 731q172 0 272 -92t99 -267q0 -175 -106 -286
q-107 -111 -269 -111q-162 1 -262 105t-95 279t119 273t242 99zM420 1348h16q260 0 387 2l510 16l68 -106l-879 -1328l-174 66l801 1223q-225 -6 -420 -9q63 -88 63 -244t-107 -267q-109 -109 -269 -109t-261 105t-97 279t119 274q114 98 243 98z" />
    <glyph glyph-name="ampersand" unicode="&#x26;" horiz-adv-x="1564" 
d="M760 1151q-47 41 -116 37q-70 -4 -110 -42t-38 -95t61 -117t127 -98q104 96 115 204q8 70 -39 111zM367 391q0 -129 88 -180q87 -51 227 -46t262 75q-43 43 -172 157t-231 189l-29 18q-91 -30 -130 -128q-15 -40 -15 -85zM1253 854h275q-23 -198 -75 -318t-144 -225
q107 -102 174 -147l24 -19l-235 -219q-133 113 -205 189q-219 -129 -508 -127q-141 2 -247 38t-160 94q-112 118 -95 257q31 240 310 346q-101 73 -133 147t-31 158q0 137 115 225q116 87 304 99t306 -76q119 -88 114 -234q-6 -186 -217 -307q182 -135 340 -284
q77 118 85 251q3 50 3 152z" />
    <glyph glyph-name="quotesingle" unicode="'" horiz-adv-x="452" 
d="M391 793l-166 -17q0 190 -18 354t-39 234l-18 68l272 8q-31 -219 -31 -647z" />
    <glyph glyph-name="parenleft" unicode="(" horiz-adv-x="790" 
d="M164 583q0 278 94 460t204 277q109 95 163 124l26 14l82 -94q-36 -30 -90 -109q-55 -81 -92 -161t-68 -212q-62 -264 -2 -554q44 -206 153 -382q42 -69 71 -102l28 -30l-98 -95q-57 32 -152 124q-94 92 -155 185t-113 250q-51 157 -51 305z" />
    <glyph glyph-name="parenright" unicode=")" horiz-adv-x="790" 
d="M336 606q0 142 -29 274t-69 216q-83 170 -152 239l-29 29l80 94q20 -10 53 -30t117 -93q84 -74 149 -163q64 -90 116 -242t52 -324t-47 -326q-48 -154 -118 -253q-70 -98 -140 -171t-118 -106l-47 -31l-97 95q38 38 92 123t91 169q36 84 66 220t30 280z" />
    <glyph glyph-name="asterisk" unicode="*" horiz-adv-x="845" 
d="M350 940l-229 -149l-86 129l254 137l-254 127l86 135l229 -141l-14 266h151l-6 -273l242 156l80 -129l-252 -137l246 -129l-82 -139l-232 151l11 -270h-154z" />
    <glyph glyph-name="plus" unicode="+" horiz-adv-x="1150" 
d="M487 561h-385l7 193h378v350l201 4v-354h375l-8 -193h-367v-373l-201 -6v379z" />
    <glyph glyph-name="comma" unicode="," horiz-adv-x="569" 
d="M92 162q0 60 52 110t144 50q93 0 148 -74q56 -74 56 -168t-34 -165t-115 -149t-146 -122l-66 -45l-86 98q6 6 18 15q94 70 151 165q39 64 36 77q-4 13 -4 16t-6 10t-12 10q-6 2 -15 6q-8 4 -10 4q-49 20 -80 61t-31 101z" />
    <glyph glyph-name="hyphen" unicode="-" horiz-adv-x="747" 
d="M696 410h-641v186h641v-186z" />
    <glyph glyph-name="period" unicode="." horiz-adv-x="569" 
d="M100 147q0 72 54 122t129 50q76 0 128 -50t52 -122q0 -71 -52 -121t-128 -50q-75 0 -129 49q-54 50 -54 122z" />
    <glyph glyph-name="slash" unicode="/" horiz-adv-x="858" 
d="M178 -160l-194 68l700 1530l195 -68z" />
    <glyph glyph-name="zero" unicode="0" horiz-adv-x="1112" 
d="M762 662q0 510 -205 509q-90 0 -148 -147t-59 -362q0 -498 207 -498q96 0 151 139q54 140 54 359zM1065 666q0 -299 -133 -495t-375 -196q-508 0 -508 691q0 290 142 490t366 200q508 0 508 -690z" />
    <glyph glyph-name="one" unicode="1" horiz-adv-x="1112" 
d="M455 0v1049l-330 -84l-64 174l705 209v-1348h-311z" />
    <glyph glyph-name="two" unicode="2" horiz-adv-x="1112" 
d="M473 1149q-131 0 -297 -43l-57 -14l-45 176q221 68 422 84q67 11 177 -6q109 -17 167 -48q58 -30 100 -72q43 -42 67 -115q23 -73 15 -177t-78 -224t-161 -209q-190 -186 -332 -272l-64 -39l604 3l-10 -193h-903l-47 156q67 40 206 147q138 107 227 196t165 210t82 224
q5 103 -51 159t-187 57z" />
    <glyph glyph-name="three" unicode="3" horiz-adv-x="1112" 
d="M997 1030q0 -117 -105 -211t-257 -108q203 -1 304 -97t97 -245q-12 -393 -526 -394q-186 0 -463 99l66 170q207 -68 384 -68t220 160q31 108 -57 192t-244 84l-129 -2v178q27 -2 111 10t140 29t101 63t44 120t-46 107q-45 32 -152 32t-301 -43l-65 -14l-45 176
q250 74 422 84q270 14 418 -126q82 -78 83 -196z" />
    <glyph glyph-name="four" unicode="4" horiz-adv-x="1112" 
d="M563 977l-262 -424h258zM872 553h222l-11 -205h-211v-348l-313 -16l-2 364h-504l-59 146l579 852l299 -15v-778z" />
    <glyph glyph-name="five" unicode="5" horiz-adv-x="1112" 
d="M520 864q138 0 240 -41t153 -109q99 -131 99 -274q0 -200 -140 -330t-403 -130q-97 0 -203 28t-166 53l-59 29l63 176q172 -76 304 -76t188 37t82 97q25 60 22 120q-2 186 -206 211q-58 6 -114 -4t-85 -24l-29 -13l-139 134l78 585h774v-184h-524l-47 -295q57 10 112 10z
" />
    <glyph glyph-name="six" unicode="6" horiz-adv-x="1112" 
d="M348 409q0 -103 56 -165t142 -66t149 61t63 172t-60 167t-143 55t-145 -63t-62 -161zM647 831q193 -1 313 -117t114 -306q-5 -190 -151 -309q-145 -119 -371 -119t-371 131q-144 131 -136 346q4 268 151 515q74 126 206 234t309 178q80 -133 94 -161q-285 -135 -395 -447
q113 55 237 55z" />
    <glyph glyph-name="seven" unicode="7" horiz-adv-x="1112" 
d="M76 1147v186h897l67 -182q-14 -16 -41 -48t-97 -144q-70 -113 -126 -235t-116 -320t-85 -404l-311 -12q6 81 47 241t92 294t153 308q101 174 228 316h-708z" />
    <glyph glyph-name="eight" unicode="8" horiz-adv-x="1112" 
d="M362 363q0 -89 56 -141t142 -52t138 49t53 117t-41 116t-80 68t-89 42t-60 26q-39 -12 -79 -74t-40 -151zM717 1020q0 74 -46 113t-119 35t-112 -54q-38 -50 -34 -113q4 -98 221 -192q27 13 59 75t31 136zM549 -12q-314 0 -438 165q-68 89 -61 212t79 203t166 110
q-115 72 -153 144t-33 184q2 141 131 239q129 97 315 103t315 -80q128 -86 134 -231t-142 -265l-55 -43q283 -113 260 -393q-11 -162 -159 -255t-359 -93z" />
    <glyph glyph-name="nine" unicode="9" horiz-adv-x="1112" 
d="M768 919q0 103 -56 164t-142 67t-148 -60q-62 -64 -62 -172t60 -167q60 -60 158 -57q66 4 128 63t62 162zM564 1348q224 0 366 -127t141 -336q0 -267 -146 -523q-75 -128 -208 -238t-311 -181q-80 133 -95 163q287 135 394 445q-113 -55 -236 -55q-193 0 -313 116
t-114 306t152 310t370 120z" />
    <glyph glyph-name="colon" unicode=":" horiz-adv-x="569" 
d="M104 762q0 72 52 122t129 50q76 0 129 -50t53 -122t-53 -122t-129 -50q-77 0 -129 50t-52 122zM104 147q0 72 52 122t129 50q76 0 129 -50t53 -122q0 -71 -53 -121t-129 -50q-77 0 -129 49q-52 50 -52 122z" />
    <glyph glyph-name="semicolon" unicode=";" horiz-adv-x="569" 
d="M90 162q0 60 52 110t144 50q93 0 148 -75t55 -169q1 -94 -33 -164t-115 -148t-146 -122l-66 -45l-86 98q65 51 133 134t68 119t-28 45q-3 1 -8 3t-7 2q-49 20 -80 61t-31 101zM117 756q0 72 53 122t129 50t129 -50t53 -122t-53 -122t-129 -50t-129 50t-53 122z" />
    <glyph glyph-name="less" unicode="&#x3c;" horiz-adv-x="1085" 
d="M817 1010l94 -136l-516 -358l516 -379l-106 -135l-637 430v158z" />
    <glyph glyph-name="equal" unicode="=" horiz-adv-x="1163" 
d="M1069 526l-8 -192h-955l7 192h956zM1069 918l-8 -193h-955l7 193h956z" />
    <glyph glyph-name="greater" unicode="&#x3e;" horiz-adv-x="1085" 
d="M283 999l647 -419v-158l-635 -430l-109 135l516 379l-516 358z" />
    <glyph glyph-name="question" unicode="?" horiz-adv-x="976" 
d="M254 141q0 66 50 113t120 47t120 -47t50 -113q0 -67 -50 -113t-120 -46t-120 46t-50 113zM940 1018q0 -94 -71 -182t-155 -142t-154 -95q-71 -42 -71 -52l7 -117l-174 -39q-2 4 -8 12q-5 8 -17 31q-65 125 -65 183q0 19 14 31t118 74q256 153 257 277q1 68 -55 113
t-150 44t-269 -40l-59 -12l-47 172q97 37 248 67t250 21q161 -12 281 -101t120 -245z" />
    <glyph glyph-name="at" unicode="@" horiz-adv-x="1472" 
d="M763 639q-48 0 -84 -41t-52 -84q-53 -145 -6 -168q31 -14 99 44t77 83l41 129q-27 37 -75 37zM1014 301q131 0 184 217q12 43 12 98q0 112 -78 199q-92 103 -335 103q-127 0 -229 -41t-164 -105q-146 -150 -146 -331t106 -291t312 -109q76 0 154 20t118 41l41 19l88 -96
q-20 -9 -57 -27t-146 -46t-197 -28q-89 0 -163 12t-161 50q-87 37 -153 93t-106 153q-41 97 -35 221q10 178 123 312t280 200q167 65 368 65t382 -97q90 -48 144 -136t49 -203q-9 -193 -149 -296t-363 -103q-45 0 -68 2q-23 1 -49 23t-20 36l16 80q-2 -4 -7 -9l-23 -23
q-67 -67 -112 -82q-95 -32 -141 -17q-106 23 -106 170q0 117 66 227q117 206 345 138q42 -12 54 -23l12 -12l66 69l190 -18q-74 -246 -93 -314t-26 -84q-18 -57 17 -57z" />
    <glyph glyph-name="A" unicode="A" horiz-adv-x="1318" 
d="M862 1348l465 -1348l-328 -12l-114 336h-445l-108 -336l-336 12l491 1333zM504 516h319l-155 551z" />
    <glyph glyph-name="B" unicode="B" horiz-adv-x="1177" 
d="M553 184q104 0 188 48q85 48 93 157t-71 170t-212 62l-98 -9v-399q-4 -29 100 -29zM540 813q115 0 189 72q47 45 51 123t-47 128t-162 42l-116 -13l-2 -346q49 -6 87 -6zM626 1354q180 0 308 -76q127 -76 129 -248q0 -250 -297 -280q168 -2 276 -100t97 -288
q-7 -96 -63 -171q-96 -128 -331 -180q-174 -39 -390 -5q-101 16 -158 35l-56 16l2 1248q303 49 483 49z" />
    <glyph glyph-name="C" unicode="C" horiz-adv-x="1220" 
d="M803 1352q160 0 311 -37l47 -10l-45 -199q-181 36 -325 29q-401 -31 -412 -476q-4 -209 82 -310t256 -130q178 -21 360 23l68 18l41 -201q-98 -36 -243 -61q-501 -86 -732 196q-164 200 -147 508q16 308 224 479t515 171z" />
    <glyph glyph-name="D" unicode="D" horiz-adv-x="1380" 
d="M993 672q0 268 -110 382q-111 114 -322 113q-53 0 -108 -6l2 -956q166 -29 323 46q63 30 106 76q42 46 75 136q34 90 34 209zM522 -12q-207 0 -377 57l-6 1266q266 35 461 35q319 8 535 -167q78 -65 131 -181t53 -265q1 -321 -227 -533t-570 -212z" />
    <glyph glyph-name="E" unicode="E" horiz-adv-x="1048" 
d="M977 188v-188h-834v1333h822v-182h-510v-358h460v-189h-460v-416h522z" />
    <glyph glyph-name="F" unicode="F" horiz-adv-x="1064" 
d="M1004 1149h-549v-389h493v-189h-493v-571l-312 -12v1345h861v-184z" />
    <glyph glyph-name="G" unicode="G" horiz-adv-x="1390" 
d="M1247 649v-512q-315 -158 -530 -157q-305 0 -494 201q-189 203 -161 523t234 483q272 215 696 141q91 -15 134 -30l45 -14l-49 -178q-16 4 -46 12t-112 20t-159 9q-186 -4 -300 -124t-120 -348t89 -350t269 -128q119 -6 193 39v442z" />
    <glyph glyph-name="H" unicode="H" horiz-adv-x="1429" 
d="M975 629h-520v-631l-312 -12v1339l312 21v-529h520v508l311 14v-1341l-311 -12v643z" />
    <glyph glyph-name="I" unicode="I" horiz-adv-x="595" 
d="M453 0l-310 -16v1341l310 16v-1341z" />
    <glyph glyph-name="J" unicode="J" horiz-adv-x="600" 
d="M143 217v1110l312 19l2 -1080q0 -180 -75 -315t-162 -212t-138 -104l-21 -12l-118 152q22 17 63 70t68 100t48 121t21 151z" />
    <glyph glyph-name="K" unicode="K" horiz-adv-x="1333" 
d="M1325 68l-344 -103l-528 756l2 -723l-312 -12v1341l310 19v-596l589 606l271 -139l-551 -515z" />
    <glyph glyph-name="L" unicode="L" horiz-adv-x="997" 
d="M455 186h536v-188h-848v1329l312 19v-1160z" />
    <glyph glyph-name="M" unicode="M" horiz-adv-x="1767" 
d="M438 985l-24 -985l-314 -18l84 1347l414 19l289 -1072h22l242 1057l412 15l102 -1348l-301 -18l-35 995h-24l-236 -977l-336 -18l-270 1003h-25z" />
    <glyph glyph-name="N" unicode="N" horiz-adv-x="1425" 
d="M422 907l31 -907l-310 -12v1339l365 21l461 -936h35l-33 921l311 15l-4 -1348l-360 -12l-465 919h-31z" />
    <glyph glyph-name="O" unicode="O" horiz-adv-x="1542" 
d="M1481 688q0 -303 -208 -509t-523 -206q-212 0 -393 103t-254 316q-40 118 -40 263q-1 297 219 498t497 201t478 -146q102 -74 163 -208t61 -312zM389 668q0 -136 37 -238q63 -176 217 -240q63 -27 127 -26q152 0 272 132t116 367q-2 235 -106 371t-278 127
q-129 -4 -250 -105q-61 -52 -98 -152t-37 -236z" />
    <glyph glyph-name="P" unicode="P" horiz-adv-x="1155" 
d="M602 1348q240 0 373 -96t139 -263q8 -223 -146 -367t-438 -145q-49 0 -75 2v-479l-312 -12v1319q303 41 459 41zM457 674h61q123 2 195 72t82 186q12 117 -54 168t-153 51l-131 -8v-469z" />
    <glyph glyph-name="Q" unicode="Q" horiz-adv-x="1538" 
d="M1479 694q0 -313 -252 -542l123 -207l-162 -125l-193 207q-92 -41 -234 -41q-275 0 -477 148q-101 75 -162 211q-60 136 -61 317q-1 296 219 492t499 196t476 -141q102 -73 163 -205t61 -310zM508 281q125 -105 265 -105t267 120q62 58 100 156t38 216q-2 231 -116 365
q-146 172 -384 109q-119 -31 -209 -134q-105 -120 -105 -348q0 -122 40 -224t104 -155z" />
    <glyph glyph-name="R" unicode="R" horiz-adv-x="1247" 
d="M567 715q143 0 213 57t80 171t-61 168q-72 54 -162 54l-182 -10v-436q37 -4 112 -4zM653 1352q246 0 382 -98t145 -273q8 -207 -117 -321t-303 -113l491 -422l-284 -162q-473 528 -514 572v-535l-310 -12l-2 1319l408 41q74 4 104 4z" />
    <glyph glyph-name="S" unicode="S" horiz-adv-x="1103" 
d="M102 979q0 180 146 275q146 96 324 96q177 0 348 -50l57 -16l-53 -192q-333 100 -461 4q-55 -41 -45 -125q6 -55 74 -94t156 -70t176 -76t146 -135t54 -223q-6 -166 -150 -283t-356 -102q-175 11 -381 78l-65 22l55 193q259 -63 363 -63t162 44q58 45 62 121t-58 127
t-152 83t-181 71q-91 40 -156 118t-65 197z" />
    <glyph glyph-name="T" unicode="T" horiz-adv-x="1077" 
d="M-6 1327h1087v-184h-372v-1143l-312 -20v1165h-403v182z" />
    <glyph glyph-name="U" unicode="U" horiz-adv-x="1386" 
d="M1255 616q0 -272 -135 -442q-134 -170 -412 -186t-426 129t-149 409v799l311 25v-770q0 -224 40 -288t119 -80q46 -9 110 -9q143 0 187 89t44 296v739l311 21v-732z" />
    <glyph glyph-name="V" unicode="V" horiz-adv-x="1298" 
d="M4 1325l332 23l285 -1065h24l379 1058l272 -14l-487 -1327l-377 -12z" />
    <glyph glyph-name="W" unicode="W" horiz-adv-x="1886" 
d="M926 940l-197 -940l-412 -12l-315 1333l322 27l192 -1047h29l229 1028l354 19l205 -1043h29l264 1043l262 -15l-356 -1333l-402 -12l-178 952h-26z" />
    <glyph glyph-name="X" unicode="X" horiz-adv-x="1396" 
d="M1356 1333l-465 -647l459 -645l-371 -53l-270 479h-23l-336 -479l-319 12l489 647l-477 674l393 27l266 -476h21l315 476z" />
    <glyph glyph-name="Y" unicode="Y" horiz-adv-x="1187" 
d="M418 500l-408 821l359 27l243 -580h19l297 584l262 -31l-461 -834v-487l-311 -12v512z" />
    <glyph glyph-name="Z" unicode="Z" horiz-adv-x="1169" 
d="M123 1327h944l49 -188l-715 -951h672v-188h-987l-55 209l712 934h-620v184z" />
    <glyph glyph-name="bracketleft" unicode="[" horiz-adv-x="821" 
d="M537 1288v-1407h219v-157l-527 -25v1765l527 -24v-152h-219z" />
    <glyph glyph-name="backslash" unicode="\" horiz-adv-x="849" 
d="M-2 1346l209 77l653 -1486l-188 -87z" />
    <glyph glyph-name="bracketright" unicode="]" horiz-adv-x="821" 
d="M285 1288h-219l-3 152l529 24v-1765l-529 25l3 157h219v1407z" />
    <glyph glyph-name="asciicircum" unicode="^" horiz-adv-x="1206" 
d="M231 575l-149 93l461 649l127 2l463 -647l-144 -101l-379 529z" />
    <glyph glyph-name="underscore" unicode="_" horiz-adv-x="1036" 
d="M1057 -156v-112h-1077v112h1077z" />
    <glyph glyph-name="grave" unicode="`" horiz-adv-x="880" 
d="M193 1165l143 146l319 -310l-94 -108z" />
    <glyph glyph-name="a" unicode="a" horiz-adv-x="972" 
d="M283 -12q-244 0 -240 329q0 113 20 160l525 60v38q0 59 -41 93q-67 56 -250 25q-80 -13 -129 -29l-49 -15l-27 150q219 74 379 73q410 4 410 -348v-522l-222 -14l-71 114q-186 -102 -244 -110q-20 -4 -61 -4zM326 266q0 -62 28 -80t94 -9t140 48v189l-256 -45
q-6 -41 -6 -103z" />
    <glyph glyph-name="b" unicode="b" horiz-adv-x="1095" 
d="M756 444q0 246 -146 248q-47 2 -101 -9t-83 -24l-31 -10v-452q102 -31 205 -23q156 24 156 270zM1055 461q0 -221 -135 -357t-310 -114q-84 12 -231 102l-37 -92l-240 -12v1413l293 22v-637q193 80 287 91q147 13 260 -91t113 -325z" />
    <glyph glyph-name="c" unicode="c" horiz-adv-x="886" 
d="M43 401q0 219 151 351q194 169 518 106q73 -14 105 -27l33 -14l-45 -160q-106 39 -227 39q-213 0 -228 -250q-12 -264 180 -260q95 0 250 35l54 12l26 -153q-486 -201 -712 15q-44 44 -74 123q-31 79 -31 183z" />
    <glyph glyph-name="d" unicode="d" horiz-adv-x="1099" 
d="M396 -10q-112 0 -224 81q-61 44 -98 135t-33 218q8 217 158 343t344 107q84 -6 166 -28l-2 555l290 22v-1423l-223 -12l-69 108q-159 -78 -211 -92t-98 -14zM707 227v463q-92 18 -166 18t-139 -64q-64 -65 -64 -204q0 -138 55 -206t133 -62q49 4 181 55z" />
    <glyph glyph-name="e" unicode="e" horiz-adv-x="956" 
d="M625 549q4 68 -22 116q-27 48 -103 44q-76 -5 -117 -55t-45 -97l-4 -49q254 33 291 41zM522 877q156 0 264 -76t119 -244q4 -54 -8 -111l-2 -20l-555 -55q4 -87 58 -149t145 -62q55 0 134 14t130 31l49 14l39 -117q-257 -112 -367 -116t-186 13t-148 60t-112 133
q-41 90 -41 220q0 209 142 337t339 128z" />
    <glyph glyph-name="f" unicode="f" horiz-adv-x="718" 
d="M594 1139q-72 0 -96 -33t-25 -117v-131h254v-180h-254l2 -678l-295 -12v690l-188 31v151h188v37q0 215 127 321q160 134 414 90q51 -9 78 -18l24 -6l-30 -170q-127 25 -199 25z" />
    <glyph glyph-name="g" unicode="g" horiz-adv-x="1058" 
d="M662 -61v153q-74 -58 -142 -70t-117 -12q-344 0 -362 365q-10 207 118 357t337 142q67 -4 131 -43q63 -39 65 -38l27 67l237 14v-921q0 -160 -104 -278q-104 -117 -266 -117t-375 45l-72 16l21 158l297 -10q205 0 205 172zM488 186q74 0 151 31l23 10v449q-74 16 -136 16
q-182 -4 -196 -254q-6 -120 39 -186t119 -66z" />
    <glyph glyph-name="h" unicode="h" horiz-adv-x="1085" 
d="M700 565q0 125 -151 125q-63 0 -154 -22v-668l-293 -12v1413l293 22v-643q160 58 217 76t111 18q109 0 189 -55t81 -155v-664l-293 -12v577z" />
    <glyph glyph-name="i" unicode="i" horiz-adv-x="497" 
d="M78 1266q0 59 47 100t113 41t112 -41t47 -100q0 -60 -47 -102q-46 -42 -112 -42t-113 42t-47 102zM393 874v-874l-291 -12v872z" />
    <glyph glyph-name="j" unicode="j" horiz-adv-x="501" 
d="M104 86v774l293 14v-798q0 -244 -213 -535l-186 107q58 113 82 203t24 235zM90 1266q0 59 47 100t113 41t112 -41t48 -100q0 -60 -48 -102t-112 -42q-66 0 -113 42t-47 102z" />
    <glyph glyph-name="k" unicode="k" horiz-adv-x="1054" 
d="M1053 92l-303 -123l-355 454v-423l-291 -12v1413l291 22v-924l385 404l252 -133l-391 -313z" />
    <glyph glyph-name="l" unicode="l" horiz-adv-x="497" 
d="M102 -12v1413l293 22v-1423z" />
    <glyph glyph-name="m" unicode="m" horiz-adv-x="1634" 
d="M678 578q0 104 -119 104q-66 0 -166 -31v-651l-293 -12v872l293 14v-100q15 4 244 86q41 14 101 14t120 -28q61 -28 90 -76q156 64 218 84t140 20q80 0 157 -48t77 -138v-688l-293 -12v590q0 98 -119 98q-51 0 -157 -27v-649l-293 -12v590z" />
    <glyph glyph-name="n" unicode="n" horiz-adv-x="1089" 
d="M997 688v-688l-290 -12v590q0 104 -132 104q-76 0 -180 -31v-651l-293 -12v872l293 14v-100q149 60 213 80t146 20t163 -48q80 -48 80 -138z" />
    <glyph glyph-name="o" unicode="o" horiz-adv-x="1038" 
d="M702 422q0 114 -43 192t-138 78t-144 -78t-49 -188q0 -270 187 -270t187 266zM573 877q185 0 305 -113t120 -319q0 -205 -136 -331q-135 -126 -339 -126t-342 114t-138 315q1 200 151 330t379 130z" />
    <glyph glyph-name="p" unicode="p" horiz-adv-x="1038" 
d="M997 467q0 -225 -123 -355t-301 -122q-37 2 -97 22t-81 33v-477l-293 -12v1255q316 60 476 65t280 -83q61 -45 100 -130t39 -196zM713 432q0 116 -41 186q-40 72 -98 73t-154 -15l-25 -6v-471q100 -33 168 -24t109 75t41 182z" />
    <glyph glyph-name="q" unicode="q" horiz-adv-x="1052" 
d="M399 -14q-170 0 -260 105t-98 295t110 344t320 144q65 -4 106 -23q39 -19 71 -37t42 -23l17 69l243 14v-1294l-293 -20v508q-80 -57 -149 -72q-66 -10 -109 -10zM488 162q76 0 147 31l22 10v473q-76 16 -137 16q-182 -4 -196 -248q-6 -122 41 -202t123 -80z" />
    <glyph glyph-name="r" unicode="r" horiz-adv-x="823" 
d="M397 602v-602l-293 -12v868l293 18v-157q193 157 445 157q-33 -126 -47 -227l-9 -45h-389z" />
    <glyph glyph-name="s" unicode="s" horiz-adv-x="894" 
d="M502 727q-166 0 -162 -70q2 -37 55 -59t129 -41q76 -18 152 -46t131 -88t57 -153q4 -141 -96 -216q-100 -74 -263 -74t-407 57l-49 12l31 158q476 -100 469 18q-3 62 -181 111q-73 20 -147 49t-123 90t-45 155t73 156q69 60 154 80t216 21t249 -25l46 -8l-19 -149
q-203 23 -270 22z" />
    <glyph glyph-name="t" unicode="t" horiz-adv-x="737" 
d="M131 139v566h-149v137l149 18v305l293 15v-322h270v-153h-270v-539h303l14 -131q-336 -37 -405 -49q-86 -6 -146 39q-59 45 -59 114z" />
    <glyph glyph-name="u" unicode="u" horiz-adv-x="1034" 
d="M365 -18q-127 0 -200 87t-73 220v571l293 14v-536q0 -78 43 -125t119 -18q27 10 90 36l2 629l293 14l-2 -874l-217 -12l-66 110q-127 -90 -182 -103t-100 -13z" />
    <glyph glyph-name="v" unicode="v" horiz-adv-x="1007" 
d="M2 848l307 26l187 -655l247 655l265 -14l-357 -860l-350 -12z" />
    <glyph glyph-name="w" unicode="w" horiz-adv-x="1531" 
d="M739 557l-139 -557l-369 -12l-229 864l299 22l113 -671h16l166 657l313 14l164 -661h17l184 664l260 -17l-283 -860l-348 -12l-145 569h-19z" />
    <glyph glyph-name="x" unicode="x" horiz-adv-x="970" 
d="M961 795l-314 -359l324 -364l-295 -109l-203 311l-229 -311l-254 109l332 364l-291 359l293 79l159 -276l222 276z" />
    <glyph glyph-name="y" unicode="y" horiz-adv-x="937" 
d="M678 874l262 -61l-547 -1257l-256 55l197 467l-94 2l-254 735l293 59l161 -591z" />
    <glyph glyph-name="z" unicode="z" horiz-adv-x="964" 
d="M877 166v-166h-785l-49 168l541 539h-502v153h776l39 -170l-506 -524h486z" />
    <glyph glyph-name="braceleft" unicode="{" horiz-adv-x="821" 
d="M510 34q0 -64 27 -115q27 -50 64 -70q83 -42 142 -37h27l-2 -152h-30q-145 0 -286 68q-60 29 -104 68q-43 40 -73 106q-59 130 -1 302q29 84 29 146q0 143 -89 166q-38 10 -99 10q-6 58 0 109q136 0 171 65q17 34 17 98t-24 144q-25 80 -25 167t52 162t127 107
q150 65 276 68l53 2v-139q-2 -4 -38 2t-120 -39q-34 -18 -60 -66t-26 -114l27 -330q0 -78 -52 -119t-98 -53q7 -2 17 -5q81 -23 116 -101q16 -34 16 -78t-16 -176q-18 -132 -18 -196z" />
    <glyph glyph-name="bar" unicode="|" horiz-adv-x="1112" 
d="M653 -532h-198v2074h198v-2074z" />
    <glyph glyph-name="braceright" unicode="}" horiz-adv-x="821" 
d="M721 526q-140 0 -170 -68q-16 -36 -16 -104q-1 -68 27 -150q28 -84 28 -176t-53 -172t-130 -117q-153 -72 -284 -79h-53l-2 152q2 4 26 -1t65 7q40 12 77 31q38 19 64 69t26 116q0 64 -18 195q-17 131 -17 177q0 87 50 128q50 42 99 56q-6 2 -16 5q-79 24 -117 96
q-16 32 -16 71l26 330q1 68 -25 114t-61 66q-70 37 -133 39l-24 -2l2 139q78 0 171 -18t160 -52t121 -108t54 -161t-24 -167t-24 -144t18 -98q33 -65 169 -65v-109z" />
    <glyph glyph-name="asciitilde" unicode="~" horiz-adv-x="1171" 
d="M392 647q81 0 156 -33q75 -34 134 -66q58 -32 110 -32t84 34t37 68l9 33h153q-31 -217 -152 -305q-52 -37 -130 -37t-206 67q-129 66 -191 66t-94 -32t-36 -66l-6 -35l-160 -2q2 14 5 37t22 81q18 58 46 103t83 82t136 37z" />
    <glyph glyph-name="uni00A0" unicode="&#xa0;" horiz-adv-x="460" 
 />
    <glyph glyph-name="exclamdown" unicode="&#xa1;" horiz-adv-x="602" 
d="M465 763q0 -67 -53 -114t-128 -47t-127 47q-53 47 -53 114t52 114t128 47q75 0 128 -47t53 -114zM188 518l193 8l74 -950l-312 -14z" />
    <glyph glyph-name="cent" unicode="&#xa2;" horiz-adv-x="1112" 
d="M610 956q-78 -26 -138 -90t-68 -182t56 -192q64 -76 150 -82v546zM98 651q0 197 151 323t361 146v191l150 16v-209q136 -15 252 -71l32 -19l-77 -131q-121 63 -207 66v-539l225 41l39 -113q-141 -57 -264 -92v-256l-150 -18v247q-125 -5 -222 24q-97 28 -154 71
q-56 43 -96 126t-40 197z" />
    <glyph glyph-name="sterling" unicode="&#xa3;" horiz-adv-x="1112" 
d="M866 735v-162h-350q4 -69 4 -123q0 -161 -79 -230q-29 -25 -50 -32h594v-188h-967v188h99q12 0 32 20q70 66 70 257q0 76 -2 108h-160v162h144q-20 145 -23 234q-2 175 155 289t374 94l243 -35l-41 -174q-131 20 -217 28t-147 -41t-62 -180q0 -39 19 -215h364z" />
    <glyph glyph-name="yen" unicode="&#xa5;" horiz-adv-x="1269" 
d="M178 532v136h246l-330 653l305 27l301 -635l316 639l262 -31l-363 -653h224v-136h-297l-25 -45v-61h322v-137h-322v-289l-311 -12v301h-328v137h328v74l-17 32h-311z" />
    <glyph glyph-name="brokenbar" unicode="&#xa6;" horiz-adv-x="1112" 
d="M651 -358h-196v723h196v-723zM651 676h-196v725h196v-725z" />
    <glyph glyph-name="section" unicode="&#xa7;" horiz-adv-x="993" 
d="M655 260q80 148 45 236q-51 128 -281 214q-83 31 -85 31q-27 -49 -43 -123q-12 -28 -6 -58t10 -55t34 -59q31 -34 77 -64t103 -56q57 -25 91 -40t55 -26zM578 1192q-86 0 -135 -32q-50 -32 -51 -95t116 -120q52 -25 114 -55q139 -66 234 -173q96 -107 68 -301
q-25 -160 -148 -262q72 -86 72 -193q0 -143 -106 -247t-304 -103q-149 0 -325 49l-62 14l27 140q205 -18 309 -19q61 0 114 46q52 46 50 122q0 43 -42 78t-103 57q-153 54 -253 142q-54 47 -83 136t-11 208q23 152 152 250q-92 94 -94 218t122 218q124 92 301 92t300 -29
l47 -10l-37 -156q-186 25 -272 25z" />
    <glyph glyph-name="dieresis" unicode="&#xa8;" horiz-adv-x="919" 
d="M545 1041q0 52 37 89t90 37t90 -37t37 -89t-37 -89t-90 -37t-90 37t-37 89zM115 1041q0 52 37 89t90 37q53 1 90 -35t37 -90t-37 -90q-37 -37 -90 -37t-90 37t-37 89z" />
    <glyph glyph-name="copyright" unicode="&#xa9;" horiz-adv-x="1554" 
d="M774 926q-78 0 -129 -54t-58 -175t42 -189t117 -68q122 0 229 29l35 10l32 -141q-166 -66 -301 -66q-184 0 -264 129t-65 322q10 137 101 236t239 114q74 8 150 -6t116 -33l39 -18l-43 -135q-111 45 -240 45zM781 -25q-296 0 -505 204t-208 491q0 288 208 490t505 202
q296 0 506 -203t210 -489t-210 -491q-210 -204 -506 -204zM223 670q0 -229 164 -392t395 -163t395 163q163 163 162 392q0 229 -162 391q-163 162 -395 162t-395 -162q-164 -162 -164 -391z" />
    <glyph glyph-name="ordfeminine" unicode="&#xaa;" horiz-adv-x="806" 
d="M481 1104q0 47 -21 63q-48 35 -368 -2l-8 150q184 23 276 22q150 0 248 -53t99 -162v-469l-179 -16l-47 86q-133 -80 -235 -87q-102 -6 -159 60q-56 66 -52 183l8 131l438 53v41zM352 786q56 0 129 50v116l-213 -30q-2 -34 -3 -64t15 -51t72 -21z" />
    <glyph glyph-name="guillemotleft" unicode="&#xab;" horiz-adv-x="1028" 
d="M860 858l107 -88l-248 -321l244 -330l-107 -84l-362 354v113zM455 858l106 -88l-248 -321l244 -330l-106 -84l-363 354v113z" />
    <glyph glyph-name="logicalnot" unicode="&#xac;" horiz-adv-x="1153" 
d="M1057 588v-543l-201 -12v385h-756l2 170h955z" />
    <glyph glyph-name="registered" unicode="&#xae;" horiz-adv-x="1005" 
d="M66 932q0 178 130 304t312 126t311 -126t129 -304t-129 -304t-311 -126t-312 126t-130 304zM154 932q0 -144 103 -248t249 -104t251 103q103 103 103 249t-103 248q-103 104 -249 104t-251 -103q-103 -104 -103 -249zM461 958q0 -2 22 -2q92 0 97 82q0 55 -76 56l-43 -7
v-129zM461 883v-156l-121 -2v432q112 14 188 15q76 0 124 -32t54 -85t-22 -95q-29 -42 -70 -53l117 -137l-96 -57l-127 174q-33 -4 -47 -4z" />
    <glyph glyph-name="macron" unicode="&#xaf;" horiz-adv-x="880" 
d="M700 1081v-139h-518v139h518z" />
    <glyph glyph-name="degree" unicode="&#xb0;" horiz-adv-x="747" 
d="M375 791q-121 1 -207 79t-86 193t86 195t207 81q121 0 207 -81q86 -82 86 -196t-86 -192t-207 -79zM258 1065q0 -63 30 -102t86 -39t87 39t31 102t-31 102t-87 39t-86 -39t-30 -102z" />
    <glyph glyph-name="plusminus" unicode="&#xb1;" horiz-adv-x="1191" 
d="M1075 326l-6 -174h-952l4 174h954zM502 688h-385l6 193h379v313l203 4v-317h374l-8 -193h-366v-254l-203 -8v262z" />
    <glyph glyph-name="twosuperior" unicode="&#xb2;" 
d="M246 1057l286 2l-12 -144h-497l-25 132q34 17 99 62q65 44 107 79t76 80t33 80q0 70 -80 69q-53 0 -135 -78l-108 84q4 5 10 13q44 62 153 101q44 15 93 17q133 8 206 -46q72 -54 72 -148t-68 -160t-210 -143z" />
    <glyph glyph-name="threesuperior" unicode="&#xb3;" 
d="M279 1102q0 36 -28 60t-114 24h-31l3 112q15 2 69 3t86 29t25 69q-6 53 -86 53l-168 -22l-12 108q145 23 243 23t173 -36t69 -111q-6 -74 -45 -106t-133 -53q102 -6 147 -49t41 -114q-8 -199 -307 -185q-117 4 -186 27l-25 6l23 119q109 -20 194 -21q62 1 62 64z" />
    <glyph glyph-name="acute" unicode="&#xb4;" horiz-adv-x="880" 
d="M238 991l350 334l131 -139l-389 -297z" />
    <glyph glyph-name="mu" unicode="&#xb5;" horiz-adv-x="1142" 
d="M440 336q0 -78 44 -125t118 -18q23 8 90 36l2 631l293 12l-2 -872l-201 -14q-29 53 -71 120q-86 -119 -191 -118q-41 0 -100 18l14 -461l-299 -57q6 643 6 879l4 493l293 12v-536z" />
    <glyph glyph-name="paragraph" unicode="&#xb6;" horiz-adv-x="1282" 
d="M1092 1167v-1437l-179 -11v1448h-147v-1441l-180 -11v707q-147 0 -258 42t-184 150q-72 108 -72 252q1 268 230 378q204 99 452 97l497 -8l-22 -166h-137z" />
    <glyph glyph-name="periodcentered" unicode="&#xb7;" horiz-adv-x="579" 
d="M109 524q0 72 53 122t129 50t129 -50t53 -122t-53 -122t-129 -50t-129 50t-53 122z" />
    <glyph glyph-name="cedilla" unicode="&#xb8;" horiz-adv-x="880" 
d="M647 -352q0 -86 -95 -140t-192 -67l-94 -12l-18 104q119 0 182 60q23 22 23 61q0 40 -38 68t-75 32l-37 4l-20 68l198 180h166l-176 -168q20 0 56 -14t59 -32t42 -57q19 -38 19 -87z" />
    <glyph glyph-name="onesuperior" unicode="&#xb9;" horiz-adv-x="432" 
d="M174 918v452l-133 -22l-29 125l334 98v-653h-172z" />
    <glyph glyph-name="ordmasculine" unicode="&#xba;" horiz-adv-x="813" 
d="M401 1350q169 0 267 -88t98 -256t-106 -272t-262 -105q-157 0 -256 100t-93 266q7 167 117 261t235 94zM274 994q0 -118 36 -181t94 -63t97 64q38 64 38 182q0 116 -36 174t-90 58q-55 0 -97 -58t-42 -176z" />
    <glyph glyph-name="guillemotright" unicode="&#xbb;" horiz-adv-x="1021" 
d="M154 858l366 -356v-113l-362 -354l-107 84l242 330l-246 321zM559 858l367 -356v-113l-363 -354l-106 84l241 330l-245 321z" />
    <glyph glyph-name="onequarter" unicode="&#xbc;" horiz-adv-x="1589" 
d="M328 639v453l-191 -37l-28 125l391 112v-653h-172zM1190 305v262l-207 -262h207zM1405 172v-168l-215 -12v180h-334l-76 115l385 452l240 -10v-424h143l-14 -133h-129zM1102 1366l137 -76l-860 -1331l-131 68z" />
    <glyph glyph-name="onehalf" unicode="&#xbd;" horiz-adv-x="1624" 
d="M307 639v453l-190 -37l-29 125l391 112v-653h-172zM1118 1366l139 -76l-860 -1331l-133 68zM1327 433q0 36 -28 55t-72 14q-70 -6 -154 -88l-108 84q12 14 32 37q21 23 93 61t149 43q135 8 217 -47t82 -151t-84 -162q-84 -67 -215 -138l307 2l-12 -143h-545l-24 131
q31 13 109 60q79 47 127 81t87 80q39 45 39 81z" />
    <glyph glyph-name="threequarters" unicode="&#xbe;" horiz-adv-x="1783" 
d="M467 842q0 35 -28 52t-113 17h-31l2 113q17 2 69 3t85 35t26 77q-6 53 -86 53q-55 0 -174 -25l-45 -8l-12 109q211 32 302 32t166 -36q74 -36 68 -111q-6 -76 -47 -114t-131 -58q104 -6 148 -43t41 -107q-10 -238 -429 -172q-65 10 -102 21l-37 10l23 119
q162 -31 244 -31q61 1 61 64zM1352 305v262l-207 -262h207zM1567 172v-168l-215 -12v180h-334l-74 115l385 452l238 -10v-424h145l-14 -133h-131zM1262 1366l137 -76l-860 -1331l-131 68z" />
    <glyph glyph-name="questiondown" unicode="&#xbf;" horiz-adv-x="983" 
d="M717 760q0 -66 -50 -113t-120 -47t-120 47t-50 113t50 112t120 48q70 0 120 -47t50 -113zM31 -117q0 94 70 183q71 88 155 141t155 95t70 52l-6 117l174 39q2 -4 20 -32q39 -63 58 -133q20 -71 2 -87q-19 -16 -123 -78q-256 -153 -256 -278q0 -68 56 -113t150 -44
q96 1 267 40l60 12l47 -172q-92 -35 -245 -66q-154 -30 -253 -22q-162 11 -282 101t-119 245z" />
    <glyph glyph-name="Agrave" unicode="&#xc0;" horiz-adv-x="1318" 
d="M428 1638l143 146l320 -309l-94 -109zM883 1348l465 -1348l-328 -12l-115 336h-444l-109 -336l-336 12l492 1333zM524 516h320l-156 551z" />
    <glyph glyph-name="Aacute" unicode="&#xc1;" horiz-adv-x="1318" 
d="M418 1464l350 334l131 -139l-389 -297zM883 1348l465 -1348l-328 -12l-115 336h-444l-109 -336l-336 12l492 1333zM524 516h320l-156 551z" />
    <glyph glyph-name="Acircumflex" unicode="&#xc2;" horiz-adv-x="1318" 
d="M328 1456l264 281h135l262 -279l-112 -80l-222 203l-215 -199zM883 1348l465 -1348l-328 -12l-115 336h-444l-109 -336l-336 12l492 1333zM524 516h320l-156 551z" />
    <glyph glyph-name="Atilde" unicode="&#xc3;" horiz-adv-x="1318" 
d="M791 1563q29 0 39 3q10 2 22 26t18 73l134 -6q0 -270 -177 -270q-69 0 -165 63q-96 64 -132 64t-55 -31q-20 -31 -24 -62l-2 -30l-136 8q5 133 59 202t136 69t168 -55q86 -54 115 -54zM883 1348l465 -1348l-328 -12l-115 336h-444l-109 -336l-336 12l492 1333zM524 516
h320l-156 551z" />
    <glyph glyph-name="Adieresis" unicode="&#xc4;" horiz-adv-x="1318" 
d="M748 1515q0 52 36 89q37 36 90 36t91 -36q37 -37 37 -89t-37 -90q-37 -37 -91 -37t-90 37q-36 38 -36 90zM317 1515q0 52 37 89q37 36 90 36t91 -35q37 -36 37 -89t-37 -91q-37 -37 -91 -37t-90 38q-37 37 -37 89zM883 1348l465 -1348l-328 -12l-115 336h-444l-109 -336
l-336 12l492 1333zM524 516h320l-156 551z" />
    <glyph glyph-name="Aring" unicode="&#xc5;" horiz-adv-x="1318" 
d="M659 1403q-111 0 -189 55t-77 134q0 79 78 134q79 56 189 56t188 -56t78 -134q0 -79 -78 -134t-189 -55zM659 1690q-51 0 -79 -27t-27 -71q0 -44 28 -70q29 -26 79 -27q50 0 78 27q28 26 28 70t-28 71t-79 27zM883 1348l465 -1348l-328 -12l-115 336h-444l-109 -336
l-336 12l492 1333zM524 516h320l-156 551z" />
    <glyph glyph-name="AE" unicode="&#xc6;" horiz-adv-x="2408" 
d="M1171 516h336l2 551zM2337 188v-188h-834l6 324h-462l-213 -336l-332 12l911 1333h911v-182h-509v-358h460v-189h-460v-416h522z" />
    <glyph glyph-name="Ccedilla" unicode="&#xc7;" horiz-adv-x="1220" 
d="M809 -352q0 -86 -95 -140t-190 -67l-96 -12l-18 104q119 0 182 60q22 22 22 61q0 40 -36 68t-74 32l-39 4l-21 68l177 160q-247 33 -390 208q-165 200 -147 508t225 479t514 171q158 0 312 -37l47 -10l-45 -199q-181 36 -326 29q-401 -31 -412 -476q-4 -209 82 -310
t256 -130q178 -21 361 23l67 18l41 -201q-99 -37 -221 -57q-121 -21 -205 -23l-147 -141q20 0 56 -14t59 -32t42 -57q19 -38 19 -87z" />
    <glyph glyph-name="Egrave" unicode="&#xc8;" horiz-adv-x="1048" 
d="M293 1638l143 146l320 -309l-94 -109zM997 188v-188h-833v1333h821v-182h-510v-358h461v-189h-461v-416h522z" />
    <glyph glyph-name="Eacute" unicode="&#xc9;" horiz-adv-x="1048" 
d="M283 1464l350 334l131 -139l-389 -297zM997 188v-188h-833v1333h821v-182h-510v-358h461v-189h-461v-416h522z" />
    <glyph glyph-name="Ecircumflex" unicode="&#xca;" horiz-adv-x="1048" 
d="M193 1456l264 281h135l262 -279l-113 -80l-221 203l-215 -199zM997 188v-188h-833v1333h821v-182h-510v-358h461v-189h-461v-416h522z" />
    <glyph glyph-name="Edieresis" unicode="&#xcb;" horiz-adv-x="1048" 
d="M866 1515q0 -51 -37 -89t-90 -38t-90 38q-37 37 -37 89t37 89q37 36 90 36t90 -36t37 -89zM436 1516q0 -52 -37 -90t-90 -38t-90 38q-37 37 -37 89t37 89q37 36 90 36t90 -36t37 -88zM997 188v-188h-833v1333h821v-182h-510v-358h461v-189h-461v-416h522z" />
    <glyph glyph-name="Igrave" unicode="&#xcc;" horiz-adv-x="595" 
d="M68 1638l143 146l319 -309l-94 -109zM473 0l-309 -16v1341l309 16v-1341z" />
    <glyph glyph-name="Iacute" unicode="&#xcd;" horiz-adv-x="595" 
d="M57 1464l351 334l131 -139l-389 -297zM473 0l-309 -16v1341l309 16v-1341z" />
    <glyph glyph-name="Icircumflex" unicode="&#xce;" horiz-adv-x="595" 
d="M-33 1456l264 281h136l262 -279l-113 -80l-221 203l-215 -199zM473 0l-309 -16v1341l309 16v-1341z" />
    <glyph glyph-name="Idieresis" unicode="&#xcf;" horiz-adv-x="595" 
d="M641 1515q0 -51 -37 -89t-90 -38t-90 38q-37 37 -37 89t37 89q37 36 90 36t90 -36t37 -89zM211 1516q0 -52 -37 -90t-90 -38t-90 38q-37 37 -37 89t37 89q37 36 90 36t90 -36t37 -88zM473 0l-309 -16v1341l309 16v-1341z" />
    <glyph glyph-name="Eth" unicode="&#xd0;" horiz-adv-x="1384" 
d="M455 764h317v-158h-317l2 -403q11 -3 65 -5q54 -3 84 1q127 17 193 57q31 18 71 54q126 114 125 371t-111 370t-321 112q-51 0 -108 -6v-393zM-4 606v158h145v545l459 34q320 8 535 -166q78 -65 131 -180t53 -264q0 -220 -85 -364t-197 -223q-227 -160 -513 -160
q-105 0 -208 18t-136 29l-35 10l-2 563h-147z" />
    <glyph glyph-name="Ntilde" unicode="&#xd1;" horiz-adv-x="1425" 
d="M844 1563q29 0 39 3q28 8 41 99l133 -6q0 -270 -176 -270q-70 0 -166 63q-96 64 -131 64q-36 0 -56 -31t-24 -62l-2 -30l-135 8q6 133 59 202t135 69t168 -55q86 -54 115 -54zM442 907l31 -907l-309 -12v1339l364 21l461 -936h35l-33 921l312 15l-5 -1348l-360 -12
l-465 919h-31z" />
    <glyph glyph-name="Ograve" unicode="&#xd2;" horiz-adv-x="1542" 
d="M539 1638l143 146l319 -309l-94 -109zM1501 688q0 -303 -208 -509t-523 -206q-212 0 -383 97q-303 172 -303 585q0 297 219 498t496 201t479 -146q102 -74 162 -208t61 -312zM795 1161q-129 -4 -250 -105q-61 -52 -99 -152t-36 -236q0 -136 36 -238q62 -175 218 -240
q63 -27 127 -26q151 0 271 132t117 367t-107 371t-277 127z" />
    <glyph glyph-name="Oacute" unicode="&#xd3;" horiz-adv-x="1542" 
d="M530 1464l351 334l131 -139l-389 -297zM1501 688q0 -303 -208 -509t-523 -206q-212 0 -383 97q-303 172 -303 585q0 297 219 498t496 201t479 -146q102 -74 162 -208t61 -312zM795 1161q-129 -4 -250 -105q-61 -52 -99 -152t-36 -236q0 -136 36 -238q62 -175 218 -240
q63 -27 127 -26q151 0 271 132t117 367t-107 371t-277 127z" />
    <glyph glyph-name="Ocircumflex" unicode="&#xd4;" horiz-adv-x="1542" 
d="M440 1456l265 281h135l262 -279l-113 -80l-221 203l-215 -199zM1501 688q0 -303 -208 -509t-523 -206q-212 0 -383 97q-303 172 -303 585q0 297 219 498t496 201t479 -146q102 -74 162 -208t61 -312zM795 1161q-129 -4 -250 -105q-61 -52 -99 -152t-36 -236
q0 -136 36 -238q62 -175 218 -240q63 -27 127 -26q151 0 271 132t117 367t-107 371t-277 127z" />
    <glyph glyph-name="Otilde" unicode="&#xd5;" horiz-adv-x="1542" 
d="M903 1563q29 0 39 3q10 2 22 26t19 73l133 -6q0 -270 -176 -270q-70 0 -167 63q-97 64 -131 64t-54 -31t-23 -62l-4 -30l-135 8q6 133 59 202t135 69t168 -55q86 -54 115 -54zM1501 688q0 -303 -208 -509t-523 -206q-212 0 -383 97q-303 172 -303 585q0 297 219 498
t496 201t479 -146q102 -74 162 -208t61 -312zM795 1161q-129 -4 -250 -105q-61 -52 -99 -152t-36 -236q0 -136 36 -238q62 -175 218 -240q63 -27 127 -26q151 0 271 132t117 367t-107 371t-277 127z" />
    <glyph glyph-name="Odieresis" unicode="&#xd6;" horiz-adv-x="1542" 
d="M1112 1515q0 -51 -37 -89t-90 -38t-90 38q-37 37 -37 89t37 89q37 36 90 36t90 -36t37 -89zM682 1516q0 -52 -37 -90t-90 -38t-90 38q-37 37 -37 89t37 89q37 36 90 36t90 -36t37 -88zM1501 688q0 -303 -208 -509t-523 -206q-212 0 -383 97q-303 172 -303 585
q0 297 219 498t496 201t479 -146q102 -74 162 -208t61 -312zM795 1161q-129 -4 -250 -105q-61 -52 -99 -152t-36 -236q0 -136 36 -238q62 -175 218 -240q63 -27 127 -26q151 0 271 132t117 367t-107 371t-277 127z" />
    <glyph glyph-name="multiply" unicode="&#xd7;" horiz-adv-x="1112" 
d="M190 199l-120 112l346 338l-312 297l136 137l309 -305l309 303l137 -125l-321 -301l344 -338l-127 -122l-350 333z" />
    <glyph glyph-name="Oslash" unicode="&#xd8;" horiz-adv-x="1544" 
d="M371 662q0 -123 43 -230l612 645q-146 124 -350 68q-51 -14 -108 -49q-197 -123 -197 -434zM916 211q163 71 230 243q38 98 36 232t-45 236l-615 -643q109 -98 254 -99q70 0 140 31zM68 675q0 285 219 481t512 196q227 0 397 -99l150 158l145 -121l-150 -155
q143 -170 143 -456t-206 -489q-207 -203 -524 -202q-238 0 -408 106l-192 -200l-136 122l191 199q-141 174 -141 460z" />
    <glyph glyph-name="Ugrave" unicode="&#xd9;" horiz-adv-x="1386" 
d="M461 1638l143 146l320 -309l-95 -109zM1276 616q0 -272 -135 -442t-413 -186t-426 129t-148 409v799l311 25v-770q0 -227 40 -290q40 -62 119 -78q46 -9 109 -9q143 0 188 89q44 89 44 296v739l311 21v-732z" />
    <glyph glyph-name="Uacute" unicode="&#xda;" horiz-adv-x="1386" 
d="M453 1464l350 334l131 -139l-389 -297zM1276 616q0 -272 -135 -442t-413 -186t-426 129t-148 409v799l311 25v-770q0 -227 40 -290q40 -62 119 -78q46 -9 109 -9q143 0 188 89q44 89 44 296v739l311 21v-732z" />
    <glyph glyph-name="Ucircumflex" unicode="&#xdb;" horiz-adv-x="1386" 
d="M362 1456l265 281h135l262 -279l-113 -80l-221 203l-215 -199zM1276 616q0 -272 -135 -442t-413 -186t-426 129t-148 409v799l311 25v-770q0 -227 40 -290q40 -62 119 -78q46 -9 109 -9q143 0 188 89q44 89 44 296v739l311 21v-732z" />
    <glyph glyph-name="Udieresis" unicode="&#xdc;" horiz-adv-x="1386" 
d="M1034 1515q0 -51 -37 -89t-90 -38t-90 38q-37 37 -37 89t37 89q37 36 90 36t90 -36t37 -89zM604 1516q0 -52 -37 -90t-90 -38t-90 38q-37 37 -37 89t37 89q37 36 90 36t90 -36t37 -88zM1276 616q0 -272 -135 -442t-413 -186t-426 129t-148 409v799l311 25v-770
q0 -227 40 -290q40 -62 119 -78q46 -9 109 -9q143 0 188 89q44 89 44 296v739l311 21v-732z" />
    <glyph glyph-name="Yacute" unicode="&#xdd;" horiz-adv-x="1187" 
d="M352 1464l350 334l132 -139l-390 -297zM438 500l-407 821l358 27l244 -580h18l297 584l262 -31l-460 -834v-487l-312 -12v512z" />
    <glyph glyph-name="Thorn" unicode="&#xde;" horiz-adv-x="1155" 
d="M403 414h62q123 2 195 72t81 186q12 117 -53 168q-66 51 -153 51l-132 -8v-469zM477 217q-49 0 -76 2v-219l-311 -12v1345l313 15v-267q74 6 146 6q240 0 373 -96t139 -264q8 -223 -147 -367t-437 -143z" />
    <glyph glyph-name="germandbls" unicode="&#xdf;" horiz-adv-x="1398" 
d="M455 858v-858h-312v877q0 189 101 327q55 76 166 117t268 35q229 -10 350 -135t121 -285q-143 -8 -218 -55t-57 -131q18 -80 130 -126q44 -18 108 -42q167 -64 203 -112q58 -74 65 -144q12 -156 -132 -248t-345 -92q-102 0 -185 26t-116 54l-33 26l107 162
q45 -37 109 -66q132 -59 236 -1q48 28 42 96q-8 50 -112 102q-11 6 -35 19t-75 35q-87 37 -167 96t-79 165q1 107 78 185t163 92q0 131 -48 186t-159 55q-110 0 -143 -85q-31 -87 -31 -275z" />
    <glyph glyph-name="agrave" unicode="&#xe0;" horiz-adv-x="972" 
d="M254 1165l143 146l320 -310l-94 -108zM283 -12q-244 0 -240 329q0 113 20 160l525 60v38q0 59 -41 93q-67 56 -250 25q-80 -13 -129 -29l-49 -15l-27 150q219 74 379 73q410 4 410 -348v-522l-222 -14l-71 114q-186 -102 -244 -110q-20 -4 -61 -4zM326 266q0 -62 28 -80
t94 -9t140 48v189l-256 -45q-6 -41 -6 -103z" />
    <glyph glyph-name="aacute" unicode="&#xe1;" horiz-adv-x="972" 
d="M246 991l350 334l131 -139l-389 -297zM283 -12q-244 0 -240 329q0 113 20 160l525 60v38q0 59 -41 93q-67 56 -250 25q-80 -13 -129 -29l-49 -15l-27 150q219 74 379 73q410 4 410 -348v-522l-222 -14l-71 114q-186 -102 -244 -110q-20 -4 -61 -4zM326 266q0 -62 28 -80
t94 -9t140 48v189l-256 -45q-6 -41 -6 -103z" />
    <glyph glyph-name="acircumflex" unicode="&#xe2;" horiz-adv-x="972" 
d="M156 983l264 281h135l262 -279l-112 -80l-222 203l-215 -199zM283 -12q-244 0 -240 329q0 113 20 160l525 60v38q0 59 -41 93q-67 56 -250 25q-80 -13 -129 -29l-49 -15l-27 150q219 74 379 73q410 4 410 -348v-522l-222 -14l-71 114q-186 -102 -244 -110q-20 -4 -61 -4z
M326 266q0 -62 28 -80t94 -9t140 48v189l-256 -45q-6 -41 -6 -103z" />
    <glyph glyph-name="atilde" unicode="&#xe3;" horiz-adv-x="972" 
d="M336 1198q82 0 168 -54t115 -54t39 3t22 27t18 72l133 -6q0 -270 -176 -271q-70 -1 -166 63t-131 64t-55 -30t-24 -62l-3 -30l-135 8q5 134 59 202t136 68zM283 -12q-244 0 -240 329q0 113 20 160l525 60v38q0 59 -41 93q-67 56 -250 25q-80 -13 -129 -29l-49 -15
l-27 150q219 74 379 73q410 4 410 -348v-522l-222 -14l-71 114q-186 -102 -244 -110q-20 -4 -61 -4zM326 266q0 -62 28 -80t94 -9t140 48v189l-256 -45q-6 -41 -6 -103z" />
    <glyph glyph-name="adieresis" unicode="&#xe4;" horiz-adv-x="972" 
d="M573 1041q0 52 37 89t90 37q52 0 90 -37t38 -89t-38 -89q-36 -37 -90 -37t-90 37q-37 37 -37 89zM143 1041q0 52 37 89t90 37q53 1 90 -35t37 -90t-37 -90q-37 -37 -90 -37t-90 37t-37 89zM283 -12q-244 0 -240 329q0 113 20 160l525 60v38q0 59 -41 93q-67 56 -250 25
q-80 -13 -129 -29l-49 -15l-27 150q219 74 379 73q410 4 410 -348v-522l-222 -14l-71 114q-186 -102 -244 -110q-20 -4 -61 -4zM326 266q0 -62 28 -80t94 -9t140 48v189l-256 -45q-6 -41 -6 -103z" />
    <glyph glyph-name="aring" unicode="&#xe5;" horiz-adv-x="972" 
d="M485 930q-111 0 -189 55t-77 134q0 79 78 134q79 55 189 55t188 -54q78 -56 78 -135t-78 -134t-189 -55zM485 1217q-51 0 -79 -27t-27 -71q0 -45 28 -71q29 -26 79 -26t78 27t28 71t-28 70q-28 27 -79 27zM283 -12q-244 0 -240 329q0 113 20 160l525 60v38q0 59 -41 93
q-67 56 -250 25q-80 -13 -129 -29l-49 -15l-27 150q219 74 379 73q410 4 410 -348v-522l-222 -14l-71 114q-186 -102 -244 -110q-20 -4 -61 -4zM326 266q0 -62 28 -80t94 -9t140 48v189l-256 -45q-6 -41 -6 -103z" />
    <glyph glyph-name="ae" unicode="&#xe6;" horiz-adv-x="1515" 
d="M1178 551q10 165 -125 162q-76 -5 -117 -55t-45 -97l-4 -49q254 31 291 39zM326 268q0 -64 28 -82t78 -10q72 6 156 49v178l-256 -47q-6 -24 -6 -88zM1069 879q162 0 268 -76t119 -244q4 -61 -6 -110l-2 -21l-555 -55q4 -87 58 -149t155 -62t254 45l49 14l39 -117
q-258 -111 -387 -116q-283 -8 -395 153q-82 -49 -184 -96t-138 -53q-152 -20 -228 64t-73 263q0 106 20 146l525 59v54q0 59 -41 93q-69 57 -250 23q-80 -14 -129 -30l-49 -15l-27 152q220 73 404 73t284 -88q127 93 289 93z" />
    <glyph glyph-name="ccedilla" unicode="&#xe7;" horiz-adv-x="886" 
d="M578 696q-213 0 -228 -250q-12 -264 180 -260q95 0 250 35l54 12l26 -153q-125 -52 -218 -75l-175 -167q20 0 56 -14t59 -32t42 -57q19 -38 19 -87q0 -86 -95 -140t-192 -67l-94 -12l-18 104q119 0 182 60q23 22 23 61q0 40 -38 68t-75 32l-37 4l-20 68l171 156
q-188 4 -302 113q-44 44 -74 123q-31 79 -31 183q0 219 151 351q194 169 518 106q73 -14 105 -27l33 -14l-45 -160q-106 39 -227 39z" />
    <glyph glyph-name="egrave" unicode="&#xe8;" horiz-adv-x="956" 
d="M246 1165l143 146l320 -310l-95 -108zM625 549q4 68 -22 116q-27 48 -103 44q-76 -5 -117 -55t-45 -97l-4 -49q254 33 291 41zM522 877q156 0 264 -76t119 -244q4 -54 -8 -111l-2 -20l-555 -55q4 -87 58 -149t145 -62q55 0 134 14t130 31l49 14l39 -117
q-257 -112 -367 -116t-186 13t-148 60t-112 133q-41 90 -41 220q0 209 142 337t339 128z" />
    <glyph glyph-name="eacute" unicode="&#xe9;" horiz-adv-x="956" 
d="M238 991l350 334l131 -139l-389 -297zM625 549q4 68 -22 116q-27 48 -103 44q-76 -5 -117 -55t-45 -97l-4 -49q254 33 291 41zM522 877q156 0 264 -76t119 -244q4 -54 -8 -111l-2 -20l-555 -55q4 -87 58 -149t145 -62q55 0 134 14t130 31l49 14l39 -117
q-257 -112 -367 -116t-186 13t-148 60t-112 133q-41 90 -41 220q0 209 142 337t339 128z" />
    <glyph glyph-name="ecircumflex" unicode="&#xea;" horiz-adv-x="956" 
d="M147 983l265 281h135l262 -279l-113 -80l-221 203l-215 -199zM625 549q4 68 -22 116q-27 48 -103 44q-76 -5 -117 -55t-45 -97l-4 -49q254 33 291 41zM522 877q156 0 264 -76t119 -244q4 -54 -8 -111l-2 -20l-555 -55q4 -87 58 -149t145 -62q55 0 134 14t130 31l49 14
l39 -117q-257 -112 -367 -116t-186 13t-148 60t-112 133q-41 90 -41 220q0 209 142 337t339 128z" />
    <glyph glyph-name="edieresis" unicode="&#xeb;" horiz-adv-x="956" 
d="M565 1041q0 52 37 89t90 37t90 -37t37 -89t-37 -89t-90 -37t-90 37t-37 89zM135 1041q0 52 37 89t90 37q53 1 90 -35t37 -90t-37 -90q-37 -37 -90 -37t-90 37t-37 89zM625 549q4 68 -22 116q-27 48 -103 44q-76 -5 -117 -55t-45 -97l-4 -49q254 33 291 41zM522 877
q156 0 264 -76t119 -244q4 -54 -8 -111l-2 -20l-555 -55q4 -87 58 -149t145 -62q55 0 134 14t130 31l49 14l39 -117q-257 -112 -367 -116t-186 13t-148 60t-112 133q-41 90 -41 220q0 209 142 337t339 128z" />
    <glyph glyph-name="igrave" unicode="&#xec;" horiz-adv-x="497" 
d="M18 1165l144 146l319 -310l-94 -108zM393 874v-874l-291 -12v872z" />
    <glyph glyph-name="iacute" unicode="&#xed;" horiz-adv-x="497" 
d="M8 991l350 334l131 -139l-389 -297zM393 874v-874l-291 -12v872z" />
    <glyph glyph-name="icircumflex" unicode="&#xee;" horiz-adv-x="497" 
d="M-82 983l264 281h135l263 -279l-113 -80l-221 203l-215 -199zM393 874v-874l-291 -12v872z" />
    <glyph glyph-name="idieresis" unicode="&#xef;" horiz-adv-x="497" 
d="M338 1041q0 52 37 89t90 37t90 -37t37 -89t-37 -89t-90 -37t-90 37t-37 89zM-92 1041q0 52 37 89t90 37q53 1 90 -35t37 -90t-37 -90q-37 -37 -90 -37t-90 37t-37 89zM393 874v-874l-291 -12v872z" />
    <glyph glyph-name="eth" unicode="&#xf0;" horiz-adv-x="1105" 
d="M547 172q195 0 194 283q0 131 -44 193t-135 62t-146 -62q-55 -64 -56 -202q1 -274 187 -274zM539 -8q-221 0 -362 123q-140 123 -132 327q4 104 53 192t124 138q75 51 159 79t164 28q81 1 109 -13t85 -73q-27 197 -170 321l-209 -147l-94 116l168 115q-98 46 -196 59
l-31 5l43 174q225 -31 377 -105l223 154l86 -113l-174 -123q299 -227 293 -717q-3 -260 -149 -400t-367 -140z" />
    <glyph glyph-name="ntilde" unicode="&#xf1;" horiz-adv-x="1089" 
d="M393 1198q82 0 168 -54t115 -54t39 3q28 8 41 99l133 -6q0 -270 -176 -271q-70 -1 -166 63t-131 64t-56 -30q-20 -31 -24 -62l-2 -30l-135 8q6 134 59 202t135 68zM997 688v-688l-290 -12v590q0 104 -132 104q-76 0 -180 -31v-651l-293 -12v872l293 14v-100
q149 60 213 80t146 20t163 -48q80 -48 80 -138z" />
    <glyph glyph-name="ograve" unicode="&#xf2;" horiz-adv-x="1038" 
d="M287 1165l143 146l320 -310l-95 -108zM702 422q0 114 -43 192t-138 78t-144 -78t-49 -188q0 -270 187 -270t187 266zM573 877q185 0 305 -113t120 -319q0 -205 -136 -331q-135 -126 -339 -126t-342 114t-138 315q1 200 151 330t379 130z" />
    <glyph glyph-name="oacute" unicode="&#xf3;" horiz-adv-x="1038" 
d="M279 991l350 334l131 -139l-389 -297zM702 422q0 114 -43 192t-138 78t-144 -78t-49 -188q0 -270 187 -270t187 266zM573 877q185 0 305 -113t120 -319q0 -205 -136 -331q-135 -126 -339 -126t-342 114t-138 315q1 200 151 330t379 130z" />
    <glyph glyph-name="ocircumflex" unicode="&#xf4;" horiz-adv-x="1038" 
d="M188 983l265 281h135l262 -279l-113 -80l-221 203l-215 -199zM702 422q0 114 -43 192t-138 78t-144 -78t-49 -188q0 -270 187 -270t187 266zM573 877q185 0 305 -113t120 -319q0 -205 -136 -331q-135 -126 -339 -126t-342 114t-138 315q1 200 151 330t379 130z" />
    <glyph glyph-name="otilde" unicode="&#xf5;" horiz-adv-x="1038" 
d="M368 1198q82 0 169 -54t115 -54t38 3t22 27t19 72l133 -6q0 -270 -176 -271q-70 -1 -167 63t-131 64t-54 -30t-25 -62l-2 -30l-135 8q6 134 59 202t135 68zM702 422q0 114 -43 192t-138 78t-144 -78t-49 -188q0 -270 187 -270t187 266zM573 877q185 0 305 -113t120 -319
q0 -205 -136 -331q-135 -126 -339 -126t-342 114t-138 315q1 200 151 330t379 130z" />
    <glyph glyph-name="odieresis" unicode="&#xf6;" horiz-adv-x="1038" 
d="M606 1041q0 52 37 89t90 37t90 -37t37 -89t-37 -89t-90 -37t-90 37t-37 89zM176 1041q0 52 37 89t90 37q53 1 90 -35t37 -90t-37 -90q-37 -37 -90 -37t-90 37t-37 89zM702 422q0 114 -43 192t-138 78t-144 -78t-49 -188q0 -270 187 -270t187 266zM573 877q185 0 305 -113
t120 -319q0 -205 -136 -331q-135 -126 -339 -126t-342 114t-138 315q1 200 151 330t379 130z" />
    <glyph glyph-name="divide" unicode="&#xf7;" horiz-adv-x="1157" 
d="M1067 770l-8 -192h-955l7 192h956zM444 301q0 59 45 102t109 43t108 -43q46 -43 46 -102t-45 -102t-109 -43t-109 43t-45 102zM444 1042q0 58 45 102t109 44t108 -43q46 -43 46 -103t-45 -102q-45 -43 -109 -43t-109 43t-45 102z" />
    <glyph glyph-name="oslash" unicode="&#xf8;" horiz-adv-x="1038" 
d="M487 156q188 0 189 266q0 23 -4 67l-287 -303q36 -30 102 -30zM487 694q-85 0 -135 -78t-49 -167q0 -89 10 -132l301 322q-42 55 -127 55zM971 446q0 -206 -135 -332t-338 -126q-141 0 -250 55l-156 -164l-102 96l141 150q-113 113 -113 303t150 318q150 130 379 131
q133 -1 233 -60l150 158l119 -88l-160 -168q82 -109 82 -273z" />
    <glyph glyph-name="ugrave" unicode="&#xf9;" horiz-adv-x="1034" 
d="M285 1165l143 146l320 -310l-95 -108zM365 -18q-127 0 -200 87t-73 220v571l293 14v-536q0 -78 43 -125t119 -18q27 10 90 36l2 629l293 14l-2 -874l-217 -12l-66 110q-127 -90 -182 -103t-100 -13z" />
    <glyph glyph-name="uacute" unicode="&#xfa;" horiz-adv-x="1034" 
d="M276 991l351 334l131 -139l-389 -297zM365 -18q-127 0 -200 87t-73 220v571l293 14v-536q0 -78 43 -125t119 -18q27 10 90 36l2 629l293 14l-2 -874l-217 -12l-66 110q-127 -90 -182 -103t-100 -13z" />
    <glyph glyph-name="ucircumflex" unicode="&#xfb;" horiz-adv-x="1034" 
d="M186 983l265 281h135l262 -279l-113 -80l-221 203l-215 -199zM365 -18q-127 0 -200 87t-73 220v571l293 14v-536q0 -78 43 -125t119 -18q27 10 90 36l2 629l293 14l-2 -874l-217 -12l-66 110q-127 -90 -182 -103t-100 -13z" />
    <glyph glyph-name="udieresis" unicode="&#xfc;" horiz-adv-x="1034" 
d="M604 1041q0 52 37 89t90 37t90 -37t37 -89t-37 -89t-90 -37t-90 37t-37 89zM174 1041q0 52 37 89t90 37q53 1 90 -35t37 -90t-37 -90q-37 -37 -90 -37t-90 37t-37 89zM365 -18q-127 0 -200 87t-73 220v571l293 14v-536q0 -78 43 -125t119 -18q27 10 90 36l2 629l293 14
l-2 -874l-217 -12l-66 110q-127 -90 -182 -103t-100 -13z" />
    <glyph glyph-name="yacute" unicode="&#xfd;" horiz-adv-x="960" 
d="M240 991l350 334l131 -139l-389 -297zM700 874l263 -61l-547 -1257l-256 55l196 467l-94 2l-254 735l293 59l162 -591z" />
    <glyph glyph-name="thorn" unicode="&#xfe;" horiz-adv-x="1038" 
d="M965 465q0 -227 -122 -356t-300 -121q-80 6 -181 55v-477l-290 -12v1779l293 15v-517q29 5 105 23t119 22t109 -18q161 -52 228 -196q39 -86 39 -197zM682 430q0 116 -41 186q-41 72 -109 74l-170 -22v-471q104 -33 171 -24t108 75t41 182z" />
    <glyph glyph-name="ydieresis" unicode="&#xff;" horiz-adv-x="960" 
d="M567 1041q0 52 37 89t90 37t90 -37t37 -89t-37 -89t-90 -37t-90 37t-37 89zM137 1041q0 52 37 89t90 37q53 1 90 -35t37 -90t-37 -90q-37 -37 -90 -37t-90 37t-37 89zM700 874l263 -61l-547 -1257l-256 55l196 467l-94 2l-254 735l293 59l162 -591z" />
    <glyph glyph-name="Amacron" unicode="&#x100;" horiz-adv-x="1318" 
d="M958 1554v-139h-518v139h518zM883 1348l465 -1348l-328 -12l-115 336h-444l-109 -336l-336 12l492 1333zM524 516h320l-156 551z" />
    <glyph glyph-name="amacron" unicode="&#x101;" horiz-adv-x="972" 
d="M745 1081v-139h-518v139h518zM283 -12q-244 0 -240 329q0 113 20 160l525 60v38q0 59 -41 93q-67 56 -250 25q-80 -13 -129 -29l-49 -15l-27 150q219 74 379 73q410 4 410 -348v-522l-222 -14l-71 114q-186 -102 -244 -110q-20 -4 -61 -4zM326 266q0 -62 28 -80t94 -9
t140 48v189l-256 -45q-6 -41 -6 -103z" />
    <glyph glyph-name="Abreve" unicode="&#x102;" horiz-adv-x="1318" 
d="M702 1372q-176 0 -269 164q-22 37 -27 61l-9 27l142 25q2 -3 6 -13t20 -31q59 -81 149 -81q40 0 83 28t59 58l18 30l144 -18q-6 -29 -35 -79t-61 -84q-32 -35 -90 -61q-60 -26 -130 -26zM883 1348l465 -1348l-328 -12l-115 336h-444l-109 -336l-336 12l492 1333zM524 516
h320l-156 551z" />
    <glyph glyph-name="abreve" unicode="&#x103;" horiz-adv-x="972" 
d="M492 1051q40 -1 83 29t60 59l18 28l144 -18q-5 -25 -35 -77q-29 -52 -61 -86t-91 -60t-129 -27q-179 0 -269 163q-22 38 -28 64l-8 25l141 25q62 -125 175 -125zM283 -12q-244 0 -240 329q0 113 20 160l525 60v38q0 59 -41 93q-67 56 -250 25q-80 -13 -129 -29l-49 -15
l-27 150q219 74 379 73q410 4 410 -348v-522l-222 -14l-71 114q-186 -102 -244 -110q-20 -4 -61 -4zM326 266q0 -62 28 -80t94 -9t140 48v189l-256 -45q-6 -41 -6 -103z" />
    <glyph glyph-name="Aogonek" unicode="&#x104;" horiz-adv-x="1318" 
d="M1122 -504q-116 0 -182 58t-60 143q6 86 61 162q56 76 112 112l28 19l-61 -2l-115 336h-444l-109 -336l-336 12l492 1333l375 15l465 -1348l-110 -4q-5 -2 -40 -35q-112 -105 -115 -221q0 -106 136 -107l84 11l24 -95q-89 -53 -205 -53zM524 516h320l-156 551z" />
    <glyph glyph-name="aogonek" unicode="&#x105;" horiz-adv-x="972" 
d="M326 266q0 -62 28 -80t94 -9t140 48v189l-256 -45q-6 -41 -6 -103zM283 -12q-244 0 -240 329q0 113 20 160l525 60v38q0 59 -41 93q-67 56 -250 25q-80 -13 -129 -29l-49 -15l-27 150q219 74 379 73q410 4 410 -348v-522l-89 -6q-2 -2 -9 -7t-37 -33q-109 -102 -109 -216
q0 -106 135 -107l84 11l25 -95q-90 -53 -206 -53q-115 0 -181 58t-61 143q5 86 62 162q56 76 111 112l45 30l-63 101q-186 -102 -244 -110q-20 -4 -61 -4z" />
    <glyph glyph-name="Cacute" unicode="&#x106;" horiz-adv-x="1220" 
d="M494 1464l350 334l131 -139l-389 -297zM823 1352q158 0 312 -37l47 -10l-45 -199q-181 36 -326 29q-401 -31 -412 -476q-4 -209 82 -310t256 -130q178 -21 361 23l67 18l41 -201q-99 -37 -243 -61q-501 -86 -732 196q-165 200 -147 508t225 479t514 171z" />
    <glyph glyph-name="cacute" unicode="&#x107;" horiz-adv-x="886" 
d="M268 991l350 334l132 -139l-390 -297zM43 401q0 219 151 351q194 169 518 106q73 -14 105 -27l33 -14l-45 -160q-106 39 -227 39q-213 0 -228 -250q-12 -264 180 -260q95 0 250 35l54 12l26 -153q-486 -201 -712 15q-44 44 -74 123q-31 79 -31 183z" />
    <glyph glyph-name="Ccircumflex" unicode="&#x108;" horiz-adv-x="1220" 
d="M465 1456l264 281h135l262 -279l-112 -80l-221 203l-215 -199zM823 1352q158 0 312 -37l47 -10l-45 -199q-181 36 -326 29q-401 -31 -412 -476q-4 -209 82 -310t256 -130q178 -21 361 23l67 18l41 -201q-99 -37 -243 -61q-501 -86 -732 196q-165 200 -147 508t225 479
t514 171z" />
    <glyph glyph-name="ccircumflex" unicode="&#x109;" horiz-adv-x="886" 
d="M217 983l264 281h135l263 -279l-113 -80l-221 203l-215 -199zM43 401q0 219 151 351q194 169 518 106q73 -14 105 -27l33 -14l-45 -160q-106 39 -227 39q-213 0 -228 -250q-12 -264 180 -260q95 0 250 35l54 12l26 -153q-486 -201 -712 15q-44 44 -74 123q-31 79 -31 183
z" />
    <glyph glyph-name="Cdotaccent" unicode="&#x10a;" horiz-adv-x="1220" 
d="M670 1531q0 56 41 95t100 39t101 -39t42 -95t-42 -96t-100 -40t-100 40t-42 96zM823 1352q158 0 312 -37l47 -10l-45 -199q-181 36 -326 29q-401 -31 -412 -476q-4 -209 82 -310t256 -130q178 -21 361 23l67 18l41 -201q-99 -37 -243 -61q-501 -86 -732 196
q-165 200 -147 508t225 479t514 171z" />
    <glyph glyph-name="cdotaccent" unicode="&#x10b;" horiz-adv-x="886" 
d="M406 1058q0 56 40 95t100 39t102 -39t42 -95t-42 -96t-100 -40t-101 40q-41 40 -41 96zM43 401q0 219 151 351q194 169 518 106q73 -14 105 -27l33 -14l-45 -160q-106 39 -227 39q-213 0 -228 -250q-12 -264 180 -260q95 0 250 35l54 12l26 -153q-486 -201 -712 15
q-44 44 -74 123q-31 79 -31 183z" />
    <glyph glyph-name="Ccaron" unicode="&#x10c;" horiz-adv-x="1220" 
d="M500 1722l92 64l239 -223l248 229l86 -72l-282 -307h-105zM823 1352q158 0 312 -37l47 -10l-45 -199q-181 36 -326 29q-401 -31 -412 -476q-4 -209 82 -310t256 -130q178 -21 361 23l67 18l41 -201q-99 -37 -243 -61q-501 -86 -732 196q-165 200 -147 508t225 479
t514 171z" />
    <glyph glyph-name="ccaron" unicode="&#x10d;" horiz-adv-x="886" 
d="M178 1249l92 64l240 -223l248 229l86 -72l-283 -307h-104zM43 401q0 219 151 351q194 169 518 106q73 -14 105 -27l33 -14l-45 -160q-106 39 -227 39q-213 0 -228 -250q-12 -264 180 -260q95 0 250 35l54 12l26 -153q-486 -201 -712 15q-44 44 -74 123q-31 79 -31 183z
" />
    <glyph glyph-name="Dcaron" unicode="&#x10e;" horiz-adv-x="1380" 
d="M313 1722l93 64l239 -223l248 229l86 -72l-283 -307h-104zM1014 672q0 268 -111 382t-321 113q-54 0 -109 -6l2 -956q165 -28 324 46q63 30 105 76t76 136t34 209zM543 -12q-207 0 -377 57l-6 1266q266 35 461 35q189 5 355 -62q101 -42 179 -106t131 -180t53 -265
q0 -321 -227 -533t-569 -212z" />
    <glyph glyph-name="dcaron" unicode="&#x10f;" horiz-adv-x="1658" 
d="M1426 1444q94 0 148 -74t54 -168t-33 -165t-113 -149t-147 -122l-65 -45l-86 98q64 51 132 133t68 128q0 20 -6 24t-8 6t-7 4t-11 5t-13 3q-109 49 -108 152q0 70 51 120t144 50zM396 -10q-112 0 -224 81q-61 44 -98 135t-33 218q8 217 158 343t344 107q84 -6 166 -28
l-2 555l290 22v-1423l-223 -12l-69 108q-159 -78 -211 -92t-98 -14zM707 227v463q-92 18 -166 18t-139 -64q-64 -65 -64 -204q0 -138 55 -206t133 -62q49 4 181 55z" />
    <glyph glyph-name="Dcroat" unicode="&#x110;" horiz-adv-x="1380" 
d="M948 1554v-139h-518v139h518zM1014 672q0 268 -111 382t-321 113q-54 0 -109 -6l2 -956q165 -28 324 46q63 30 105 76t76 136t34 209zM543 -12q-207 0 -377 57l-6 1266q266 35 461 35q189 5 355 -62q101 -42 179 -106t131 -180t53 -265q0 -321 -227 -533t-569 -212z" />
    <glyph glyph-name="dcroat" unicode="&#x111;" horiz-adv-x="1099" 
d="M707 227v463q-92 18 -166 18t-139 -64q-64 -65 -64 -204q0 -138 55 -206t133 -62q49 4 181 55zM455 1044v187h252v170l290 22v-192h99v-187h-99v-1044l-223 -12l-69 108q-159 -78 -211 -92t-98 -14q-112 0 -224 81q-61 44 -98 135t-33 218q8 217 158 343t344 107
q84 -6 166 -28l-1 198h-253z" />
    <glyph glyph-name="Emacron" unicode="&#x112;" horiz-adv-x="1048" 
d="M834 1554v-139h-519v139h519zM997 188v-188h-833v1333h821v-182h-510v-358h461v-189h-461v-416h522z" />
    <glyph glyph-name="emacron" unicode="&#x113;" horiz-adv-x="956" 
d="M795 1081v-139h-519v139h519zM625 549q4 68 -22 116q-27 48 -103 44q-76 -5 -117 -55t-45 -97l-4 -49q254 33 291 41zM522 877q156 0 264 -76t119 -244q4 -54 -8 -111l-2 -20l-555 -55q4 -87 58 -149t145 -62q55 0 134 14t130 31l49 14l39 -117q-257 -112 -367 -116
t-186 13t-148 60t-112 133q-41 90 -41 220q0 209 142 337t339 128z" />
    <glyph glyph-name="Ebreve" unicode="&#x114;" horiz-adv-x="1048" 
d="M589 1524q40 0 83 28t61 58l17 30l143 -18q-6 -29 -35 -79q-28 -50 -60 -84q-32 -35 -91 -61t-129 -26t-127 26t-90 63q-65 77 -82 136l-7 27l142 25q2 -3 6 -13t20 -31q59 -81 149 -81zM997 188v-188h-833v1333h821v-182h-510v-358h461v-189h-461v-416h522z" />
    <glyph glyph-name="ebreve" unicode="&#x115;" horiz-adv-x="956" 
d="M501 1051q40 -1 83 29t59 59l19 28l143 -18q-6 -29 -35 -79q-28 -50 -60 -84t-92 -60t-129 -27q-179 0 -269 163q-22 38 -27 64l-9 25l142 25q2 -4 6 -14t20 -30q59 -81 149 -81zM625 549q4 68 -22 116q-27 48 -103 44q-76 -5 -117 -55t-45 -97l-4 -49q254 33 291 41z
M522 877q156 0 264 -76t119 -244q4 -54 -8 -111l-2 -20l-555 -55q4 -87 58 -149t145 -62q55 0 134 14t130 31l49 14l39 -117q-257 -112 -367 -116t-186 13t-148 60t-112 133q-41 90 -41 220q0 209 142 337t339 128z" />
    <glyph glyph-name="Edotaccent" unicode="&#x116;" horiz-adv-x="1048" 
d="M451 1531q0 56 41 95t100 39t101 -39t42 -95t-42 -96t-100 -40t-100 40t-42 96zM997 188v-188h-833v1333h821v-182h-510v-358h461v-189h-461v-416h522z" />
    <glyph glyph-name="edotaccent" unicode="&#x117;" horiz-adv-x="956" 
d="M352 1058q0 56 41 95t101 39t101 -39q42 -39 42 -95t-42 -96t-100 -40t-101 40q-42 40 -42 96zM625 549q4 68 -22 116q-27 48 -103 44q-76 -5 -117 -55t-45 -97l-4 -49q254 33 291 41zM522 877q156 0 264 -76t119 -244q4 -54 -8 -111l-2 -20l-555 -55q4 -87 58 -149
t145 -62q55 0 134 14t130 31l49 14l39 -117q-257 -112 -367 -116t-186 13t-148 60t-112 133q-41 90 -41 220q0 209 142 337t339 128z" />
    <glyph glyph-name="Eogonek" unicode="&#x118;" horiz-adv-x="1048" 
d="M997 188v-188h-104q-100 -75 -141 -175q-18 -44 -19 -85q0 -106 135 -107l84 11l25 -95q-89 -53 -205 -53t-182 58t-61 143q5 86 62 162q56 76 109 112l46 29h-582v1333h821v-182h-510v-358h461v-189h-461v-416h522z" />
    <glyph glyph-name="eogonek" unicode="&#x119;" horiz-adv-x="956" 
d="M625 549q4 68 -22 116q-27 48 -103 44q-76 -5 -117 -55t-45 -97l-4 -49q254 33 291 41zM522 877q156 0 264 -76t119 -244q4 -54 -8 -111l-2 -20l-555 -55q4 -87 58 -149t145 -62q55 0 134 14t130 31l49 14l39 -117q-166 -71 -278 -99q-5 -3 -15 -11q-91 -68 -131 -167
q-18 -44 -18 -85q0 -106 135 -107l84 11l24 -95q-90 -53 -206 -53t-181 58q-67 58 -61 143q6 86 62 162t112 112l22 15q-137 5 -249 73q-72 43 -113 133t-41 220q0 209 142 337t339 128z" />
    <glyph glyph-name="Ecaron" unicode="&#x11a;" horiz-adv-x="1048" 
d="M236 1722l92 64l239 -223l248 229l86 -72l-283 -307h-104zM997 188v-188h-833v1333h821v-182h-510v-358h461v-189h-461v-416h522z" />
    <glyph glyph-name="ecaron" unicode="&#x11b;" horiz-adv-x="956" 
d="M145 1249l93 64l239 -223l248 229l86 -72l-283 -307h-104zM625 549q4 68 -22 116q-27 48 -103 44q-76 -5 -117 -55t-45 -97l-4 -49q254 33 291 41zM522 877q156 0 264 -76t119 -244q4 -54 -8 -111l-2 -20l-555 -55q4 -87 58 -149t145 -62q55 0 134 14t130 31l49 14
l39 -117q-257 -112 -367 -116t-186 13t-148 60t-112 133q-41 90 -41 220q0 209 142 337t339 128z" />
    <glyph glyph-name="Gcircumflex" unicode="&#x11c;" horiz-adv-x="1390" 
d="M395 1456l264 281h136l262 -279l-113 -80l-221 203l-215 -199zM1268 649v-512q-315 -158 -531 -157q-305 0 -493 202t-160 522t232 483q272 215 697 141q91 -15 134 -30l45 -14l-49 -178q-16 4 -46 12t-113 20t-159 9q-186 -4 -300 -124q-113 -120 -119 -348t89 -350
t269 -128q119 -6 192 39v442z" />
    <glyph glyph-name="gcircumflex" unicode="&#x11d;" horiz-adv-x="1058" 
d="M199 983l264 281h135l262 -279l-112 -80l-222 203l-215 -199zM662 -61v153q-74 -58 -142 -70t-117 -12q-344 0 -362 365q-10 207 118 357t337 142q67 -4 131 -43q63 -39 65 -38l27 67l237 14v-921q0 -160 -104 -278q-104 -117 -266 -117t-375 45l-72 16l21 158l297 -10
q205 0 205 172zM488 186q74 0 151 31l23 10v449q-74 16 -136 16q-182 -4 -196 -254q-6 -120 39 -186t119 -66z" />
    <glyph glyph-name="Gbreve" unicode="&#x11e;" horiz-adv-x="1390" 
d="M629 1671q61 -122 166 -125q49 0 92 30t59 58l19 29l143 -18q-6 -29 -35 -79t-61 -84t-90 -61q-59 -27 -129 -27t-127 26t-89 63q-70 81 -81 139l-9 25zM1268 649v-512q-315 -158 -531 -157q-305 0 -493 202t-160 522t232 483q272 215 697 141q91 -15 134 -30l45 -14
l-49 -178q-16 4 -46 12t-113 20t-159 9q-186 -4 -300 -124q-113 -120 -119 -348t89 -350t269 -128q119 -6 192 39v442z" />
    <glyph glyph-name="gbreve" unicode="&#x11f;" horiz-adv-x="1058" 
d="M618 1069q40 0 82 29q43 29 62 57l16 31l144 -19q-5 -23 -34 -76q-30 -53 -62 -87t-91 -60t-129 -26q-177 1 -269 162q-22 38 -30 63l-6 26l141 25q63 -125 176 -125zM662 -61v153q-74 -58 -142 -70t-117 -12q-344 0 -362 365q-10 207 118 357t337 142q67 -4 131 -43
q63 -39 65 -38l27 67l237 14v-921q0 -160 -104 -278q-104 -117 -266 -117t-375 45l-72 16l21 158l297 -10q205 0 205 172zM488 186q74 0 151 31l23 10v449q-74 16 -136 16q-182 -4 -196 -254q-6 -120 39 -186t119 -66z" />
    <glyph glyph-name="Gdotaccent" unicode="&#x120;" horiz-adv-x="1390" 
d="M690 1531q0 56 41 95t100 39t101 -39t43 -95q0 -56 -42 -96q-43 -40 -101 -40t-100 40t-42 96zM1268 649v-512q-315 -158 -531 -157q-305 0 -493 202t-160 522t232 483q272 215 697 141q91 -15 134 -30l45 -14l-49 -178q-16 4 -46 12t-113 20t-159 9q-186 -4 -300 -124
q-113 -120 -119 -348t89 -350t269 -128q119 -6 192 39v442z" />
    <glyph glyph-name="gdotaccent" unicode="&#x121;" horiz-adv-x="1058" 
d="M451 1078q0 56 41 96t100 38q59 0 101 -38t42 -96q0 -56 -42 -96t-100 -40t-100 40t-42 96zM662 -61v153q-74 -58 -142 -70t-117 -12q-344 0 -362 365q-10 207 118 357t337 142q67 -4 131 -43q63 -39 65 -38l27 67l237 14v-921q0 -160 -104 -278q-104 -117 -266 -117
t-375 45l-72 16l21 158l297 -10q205 0 205 172zM488 186q74 0 151 31l23 10v449q-74 16 -136 16q-182 -4 -196 -254q-6 -120 39 -186t119 -66z" />
    <glyph glyph-name="Gcommaaccent" unicode="&#x122;" horiz-adv-x="1390" 
d="M1268 649v-512q-315 -158 -531 -157q-305 0 -493 202t-160 522t232 483q272 215 697 141q91 -15 134 -30l45 -14l-49 -178q-16 4 -46 12t-113 20t-159 9q-186 -4 -300 -124q-113 -120 -119 -348t89 -350t269 -128q119 -6 192 39v442zM559 -276q0 50 43 92t122 43
q79 -1 126 -63t47 -142t-29 -138q-30 -58 -98 -125t-123 -104l-55 -39l-72 84q52 39 105 104q53 64 58 90t6 34q2 13 -25 23q-105 39 -105 141z" />
    <glyph glyph-name="gcommaaccent" unicode="&#x123;" horiz-adv-x="1058" 
d="M696 1196q0 -59 -42 -101t-121 -42q-80 0 -127 62q-48 61 -48 141t28 141t96 128q69 67 124 105l58 37l75 -84q-53 -40 -116 -115q-63 -76 -57 -108q1 -6 1 -9t4 -6t7 -9t12 -5l14 -6q92 -39 92 -129zM662 -61v153q-74 -58 -142 -70t-117 -12q-344 0 -362 365
q-10 207 118 357t337 142q67 -4 131 -43q63 -39 65 -38l27 67l237 14v-921q0 -160 -104 -278q-104 -117 -266 -117t-375 45l-72 16l21 158l297 -10q205 0 205 172zM488 186q74 0 151 31l23 10v449q-74 16 -136 16q-182 -4 -196 -254q-6 -120 39 -186t119 -66z" />
    <glyph glyph-name="Hcircumflex" unicode="&#x124;" horiz-adv-x="1429" 
d="M442 1483l265 280h135l262 -278l-113 -80l-221 203l-215 -199zM995 629h-520v-631l-311 -12v1339l311 21v-529h520v508l312 14v-1341l-312 -12v643z" />
    <glyph glyph-name="hcircumflex" unicode="&#x125;" horiz-adv-x="1085" 
d="M233 1538l265 281h135l262 -279l-113 -80l-221 203l-215 -199zM700 565q0 125 -151 125q-63 0 -154 -22v-668l-293 -12v1413l293 22v-643q160 58 217 76t111 18q109 0 189 -55t81 -155v-664l-293 -12v577z" />
    <glyph glyph-name="Hbar" unicode="&#x126;" horiz-adv-x="1415" 
d="M1403 1016v-139h-111v-879l-311 -12v643h-520v-631l-311 -12v891h-132v139h132v309l311 21v-330h520v309l311 14v-323h111zM981 877h-520v-60h520v60z" />
    <glyph glyph-name="hbar" unicode="&#x127;" horiz-adv-x="1085" 
d="M678 1081v-139h-283v-162q160 58 217 76t111 18q109 0 189 -55t81 -155v-664l-293 -12v577q0 125 -151 125q-63 0 -154 -22v-668l-293 -12v954h-96v139h96v320l293 22v-342h283z" />
    <glyph glyph-name="Itilde" unicode="&#x128;" horiz-adv-x="595" 
d="M416 1563q26 0 36 3q26 9 37 99l121 -6q0 -268 -159 -268q-63 0 -151 62q-88 63 -121 63q-32 0 -50 -31t-20 -60l-3 -30l-120 8q4 131 53 200t124 69t151 -55q76 -54 102 -54zM473 0l-309 -16v1341l309 16v-1341z" />
    <glyph glyph-name="itilde" unicode="&#x129;" horiz-adv-x="499" 
d="M113 1196q69 0 143 -55t98 -55t32 2q26 11 38 102l113 -6q0 -276 -150 -277q-59 0 -143 65q-84 64 -114 64t-47 -30t-20 -64l-2 -31l-116 9q6 136 52 206t116 70zM393 874v-874l-291 -12v872z" />
    <glyph glyph-name="Imacron" unicode="&#x12a;" horiz-adv-x="595" 
d="M557 1554v-139h-518v139h518zM473 0l-309 -16v1341l309 16v-1341z" />
    <glyph glyph-name="imacron" unicode="&#x12b;" horiz-adv-x="493" 
d="M504 1081v-139h-518v139h518zM393 874v-874l-291 -12v872z" />
    <glyph glyph-name="Ibreve" unicode="&#x12c;" horiz-adv-x="595" 
d="M322 1528q40 0 84 28t61 58l16 31l144 -19q-5 -25 -35 -77q-29 -52 -61 -86q-32 -35 -91 -61t-129 -26q-176 0 -269 164q-22 37 -30 62l-6 26l141 25q62 -125 175 -125zM473 0l-309 -16v1341l309 16v-1341z" />
    <glyph glyph-name="ibreve" unicode="&#x12d;" horiz-adv-x="493" 
d="M247 1055q42 -1 79 27t51 57l16 28l123 -18q-7 -33 -31 -79q-25 -46 -53 -78t-77 -58q-50 -26 -110 -27q-59 0 -109 26t-92 77t-56 116l-6 25l120 25q6 -14 16 -34t49 -53q38 -34 80 -34zM393 874v-874l-291 -12v872z" />
    <glyph glyph-name="Iogonek" unicode="&#x12e;" horiz-adv-x="595" 
d="M209 -260q0 -106 135 -107l84 11l25 -95q-90 -53 -206 -53q-115 0 -181 58t-61 143q5 86 62 162q56 76 109 112l23 14l-35 -1v1341l309 16v-1341l-112 -6q-1 -1 -2 -1q-150 -123 -150 -253z" />
    <glyph glyph-name="iogonek" unicode="&#x12f;" horiz-adv-x="497" 
d="M78 1266q0 59 47 100t113 41t112 -41t47 -100q0 -60 -47 -102q-46 -42 -112 -42t-113 42t-47 102zM393 0h-11q-9 -7 -44 -40q-112 -104 -115 -220q0 -106 135 -107l84 11l25 -95q-89 -53 -205 -53t-182 58t-61 143q5 86 61 162t113 112l33 22l-124 -5v872l291 14v-874z
" />
    <glyph glyph-name="Idotaccent" unicode="&#x130;" horiz-adv-x="595" 
d="M156 1531q0 56 41 95t100 39t101 -39t42 -95t-42 -96t-100 -40t-100 40t-42 96zM473 0l-309 -16v1341l309 16v-1341z" />
    <glyph glyph-name="dotlessi" unicode="&#x131;" horiz-adv-x="497" 
d="M393 874v-874l-291 -12v872z" />
    <glyph glyph-name="IJ" unicode="&#x132;" horiz-adv-x="1236" 
d="M801 217v1110l311 19l2 -1080q0 -124 -41 -236t-98 -183q-114 -143 -215 -199l-41 -25l-119 152q25 19 86 98q61 80 88 174t27 170zM473 0l-309 -16v1341l309 16v-1341z" />
    <glyph glyph-name="ij" unicode="&#x133;" horiz-adv-x="1038" 
d="M643 86v774l293 14v-798q0 -244 -213 -535l-186 107q57 113 81 203t25 235zM629 1266q0 59 47 100q46 41 112 41t113 -41t47 -100q0 -60 -47 -102t-113 -42t-112 42t-47 102zM78 1266q0 59 47 100t113 41t112 -41t47 -100q0 -60 -47 -102q-46 -42 -112 -42t-113 42
t-47 102zM393 874v-874l-291 -12v872z" />
    <glyph glyph-name="Jcircumflex" unicode="&#x134;" horiz-adv-x="600" 
d="M-31 1456l264 281h136l262 -279l-113 -80l-221 203l-215 -199zM164 217v1110l311 19l2 -1080q0 -184 -76 -318t-162 -210q-87 -77 -137 -103l-20 -12l-119 152q25 19 86 98q61 80 88 174t27 170z" />
    <glyph glyph-name="jcircumflex" unicode="&#x135;" horiz-adv-x="499" 
d="M-45 995l233 269h119l232 -267l-101 -77l-194 194l-191 -190zM104 86v774l293 14v-798q0 -244 -213 -535l-186 107q58 113 82 203t24 235z" />
    <glyph glyph-name="Kcommaaccent" unicode="&#x136;" horiz-adv-x="1333" 
d="M1346 68l-345 -103l-528 756l2 -723l-311 -12v1341l309 19v-596l590 606l270 -139l-551 -515zM559 -276q0 50 43 92t122 43q79 -1 126 -63t47 -142t-29 -138q-30 -58 -98 -125t-123 -104l-55 -39l-72 84q52 39 105 104q53 64 58 90t6 34q2 13 -25 23q-105 39 -105 141z
" />
    <glyph glyph-name="kcommaaccent" unicode="&#x137;" horiz-adv-x="1054" 
d="M1053 92l-303 -123l-355 454v-423l-291 -12v1413l291 22v-924l385 404l252 -133l-391 -313zM430 -276q0 50 43 92t122 43q79 -1 126 -63t47 -142t-29 -138t-97 -125t-124 -104l-55 -39l-72 84q52 39 105 104q53 64 58 90t6 34q2 13 -25 23q-105 39 -105 141z" />
    <glyph glyph-name="kgreenlandic" unicode="&#x138;" horiz-adv-x="1034" 
d="M975 43l-279 -66l-303 447v-426l-289 -8v872l289 12v-372l346 391l291 -166l-80 -131l-123 41l-192 -186z" />
    <glyph glyph-name="Lacute" unicode="&#x139;" horiz-adv-x="997" 
d="M240 1483l350 334l131 -140l-389 -297zM475 186h537v-188h-848v1329l311 19v-1160z" />
    <glyph glyph-name="lacute" unicode="&#x13a;" horiz-adv-x="497" 
d="M8 1532l350 334l131 -140l-389 -296zM102 -12v1413l293 22v-1423z" />
    <glyph glyph-name="Lcommaaccent" unicode="&#x13b;" horiz-adv-x="997" 
d="M475 186h537v-188h-848v1329l311 19v-1160zM391 -276q0 50 43 92t122 43q79 -1 126 -63t47 -142t-29 -138q-30 -58 -98 -125t-123 -104l-55 -39l-72 84q52 39 105 104q53 64 58 90t6 34q2 13 -25 23q-105 39 -105 141z" />
    <glyph glyph-name="lcommaaccent" unicode="&#x13c;" horiz-adv-x="497" 
d="M102 -12v1413l293 22v-1423zM86 -276q0 50 43 92t122 43q79 -1 126 -63t47 -142t-29 -138t-97 -125t-124 -104l-55 -39l-72 84q52 39 105 104q53 64 58 90t6 34q1 6 -7 13q-7 7 -17 10t-12 5q-94 41 -94 136z" />
    <glyph glyph-name="Lcaron" unicode="&#x13d;" horiz-adv-x="997" 
d="M475 186h537v-188h-848v1329l311 19v-1160zM779 1331q79 0 126 -62q47 -63 47 -143t-28 -138t-98 -125q-69 -67 -124 -105l-55 -37l-72 84q51 39 105 103q53 64 58 91t6 33t-5 11q-12 10 -20 13q-47 17 -76 54t-29 87t43 92t122 42z" />
    <glyph glyph-name="lcaron" unicode="&#x13e;" horiz-adv-x="923" 
d="M102 -12v1413l293 22v-1423zM559 1299q0 51 43 93t122 42t126 -62t47 -143t-29 -139q-30 -58 -98 -124t-123 -106l-55 -37l-72 84q52 39 105 104t58 91t6 32q2 13 -25 24q-105 39 -105 141z" />
    <glyph glyph-name="Ldot" unicode="&#x13f;" horiz-adv-x="997" 
d="M604 524q0 72 53 122t129 50t129 -50t53 -122t-52 -122q-54 -50 -130 -50t-129 50t-53 122zM475 186h537v-188h-848v1329l311 19v-1160z" />
    <glyph glyph-name="ldot" unicode="&#x140;" horiz-adv-x="909" 
d="M526 524q0 72 54 122t129 50q76 0 129 -50t53 -122t-53 -122t-129 -50q-75 0 -129 50t-54 122zM102 -12v1413l293 22v-1423z" />
    <glyph glyph-name="Lslash" unicode="&#x141;" horiz-adv-x="1021" 
d="M459 184h536v-188h-848v528l-129 -49l-61 139l190 78v637l312 14v-520l299 125l57 -160l-356 -141v-463z" />
    <glyph glyph-name="lslash" unicode="&#x142;" horiz-adv-x="507" 
d="M-47 639l156 70v684l292 24v-573l119 55l60 -160l-179 -80v-655l-292 -24v550l-93 -36z" />
    <glyph glyph-name="Nacute" unicode="&#x143;" horiz-adv-x="1425" 
d="M471 1464l350 334l131 -139l-389 -297zM442 907l31 -907l-309 -12v1339l364 21l461 -936h35l-33 921l312 15l-5 -1348l-360 -12l-465 919h-31z" />
    <glyph glyph-name="nacute" unicode="&#x144;" horiz-adv-x="1089" 
d="M313 1018l351 334l131 -140l-389 -297zM997 688v-688l-290 -12v590q0 104 -132 104q-76 0 -180 -31v-651l-293 -12v872l293 14v-100q149 60 213 80t146 20t163 -48q80 -48 80 -138z" />
    <glyph glyph-name="Ncommaaccent" unicode="&#x145;" horiz-adv-x="1425" 
d="M442 907l31 -907l-309 -12v1339l364 21l461 -936h35l-33 921l312 15l-5 -1348l-360 -12l-465 919h-31zM559 -276q0 50 43 92t122 43q79 -1 126 -63t47 -142t-29 -138q-30 -58 -98 -125t-123 -104l-55 -39l-72 84q52 39 105 104q53 64 58 90t6 34q2 13 -25 23
q-105 39 -105 141z" />
    <glyph glyph-name="ncommaaccent" unicode="&#x146;" horiz-adv-x="1089" 
d="M997 688v-688l-290 -12v590q0 104 -132 104q-76 0 -180 -31v-651l-293 -12v872l293 14v-100q149 60 213 80t146 20t163 -48q80 -48 80 -138zM391 -276q0 50 43 92t122 43q79 -1 126 -63t47 -142t-29 -138q-30 -58 -98 -125t-123 -104l-55 -39l-72 84q52 39 105 104
q53 64 58 90t6 34q2 13 -25 23q-105 39 -105 141z" />
    <glyph glyph-name="Ncaron" unicode="&#x147;" horiz-adv-x="1425" 
d="M379 1722l92 64l240 -223l247 229l86 -72l-282 -307h-105zM442 907l31 -907l-309 -12v1339l364 21l461 -936h35l-33 921l312 15l-5 -1348l-360 -12l-465 919h-31z" />
    <glyph glyph-name="ncaron" unicode="&#x148;" horiz-adv-x="1089" 
d="M211 1249l92 64l240 -223l248 229l86 -72l-283 -307h-105zM997 688v-688l-290 -12v590q0 104 -132 104q-76 0 -180 -31v-651l-293 -12v872l293 14v-100q149 60 213 80t146 20t163 -48q80 -48 80 -138z" />
    <glyph glyph-name="napostrophe" unicode="&#x149;" horiz-adv-x="1458" 
d="M1366 688v-688l-291 -12v590q0 104 -131 104q-76 0 -180 -31v-651l-293 -12v872l293 14v-100q150 60 213 80t146 20t163 -48t80 -138zM216 1065q79 -1 126 -63t47 -142t-29 -138q-30 -58 -98 -125t-123 -105l-55 -37l-72 84q54 41 106 104t57 90t6 33q2 11 -23 23
q-107 48 -107 133q0 59 43 101t122 42z" />
    <glyph glyph-name="Eng" unicode="&#x14a;" horiz-adv-x="1425" 
d="M420 905l31 -907l-310 -12v1339l365 21l463 -936h26l-26 921l311 15l2 -1080q0 -124 -41 -236t-98 -183q-114 -143 -215 -199l-41 -25l-119 152q90 82 150 211h-3l-464 919h-31z" />
    <glyph glyph-name="eng" unicode="&#x14b;" horiz-adv-x="1089" 
d="M705 86v514q-12 82 -130 82q-76 0 -180 -31v-651l-293 -12v872l293 14v-100q149 60 213 80t146 20t164 -48q80 -48 79 -138v-612q0 -244 -213 -535l-186 107q57 113 82 203t25 235z" />
    <glyph glyph-name="Omacron" unicode="&#x14c;" horiz-adv-x="1542" 
d="M1030 1554v-139h-518v139h518zM1501 688q0 -303 -208 -509t-523 -206q-212 0 -383 97q-303 172 -303 585q0 297 219 498t496 201t479 -146q102 -74 162 -208t61 -312zM795 1161q-129 -4 -250 -105q-61 -52 -99 -152t-36 -236q0 -136 36 -238q62 -175 218 -240
q63 -27 127 -26q151 0 271 132t117 367t-107 371t-277 127z" />
    <glyph glyph-name="omacron" unicode="&#x14d;" horiz-adv-x="1038" 
d="M778 1081v-139h-518v139h518zM702 422q0 114 -43 192t-138 78t-144 -78t-49 -188q0 -270 187 -270t187 266zM573 877q185 0 305 -113t120 -319q0 -205 -136 -331q-135 -126 -339 -126t-342 114t-138 315q1 200 151 330t379 130z" />
    <glyph glyph-name="Obreve" unicode="&#x14e;" horiz-adv-x="1542" 
d="M834 1540q40 0 84 29t61 57l16 31l144 -19q-5 -23 -34 -76q-30 -52 -62 -86t-91 -61t-129 -27t-127 26t-89 64q-64 76 -83 136l-6 26l141 25q62 -125 175 -125zM1501 688q0 -303 -208 -509t-523 -206q-212 0 -383 97q-303 172 -303 585q0 297 219 498t496 201t479 -146
q102 -74 162 -208t61 -312zM795 1161q-129 -4 -250 -105q-61 -52 -99 -152t-36 -236q0 -136 36 -238q62 -175 218 -240q63 -27 127 -26q151 0 271 132t117 367t-107 371t-277 127z" />
    <glyph glyph-name="obreve" unicode="&#x14f;" horiz-adv-x="1038" 
d="M403 1200q61 -121 166 -125q49 0 93 30t59 58l18 29l144 -18q-5 -24 -34 -77q-30 -53 -62 -87t-91 -60t-129 -26q-177 1 -269 162q-22 38 -28 65l-8 25zM702 422q0 114 -43 192t-138 78t-144 -78t-49 -188q0 -270 187 -270t187 266zM573 877q185 0 305 -113t120 -319
q0 -205 -136 -331q-135 -126 -339 -126t-342 114t-138 315q1 200 151 330t379 130z" />
    <glyph glyph-name="Ohungarumlaut" unicode="&#x150;" horiz-adv-x="1542" 
d="M831 1462l304 303l112 -112l-344 -267zM485 1470l303 295l115 -112l-344 -258zM1501 688q0 -303 -208 -509t-523 -206q-212 0 -383 97q-303 172 -303 585q0 297 219 498t496 201t479 -146q102 -74 162 -208t61 -312zM795 1161q-129 -4 -250 -105q-61 -52 -99 -152
t-36 -236q0 -136 36 -238q62 -175 218 -240q63 -27 127 -26q151 0 271 132t117 367t-107 371t-277 127z" />
    <glyph glyph-name="ohungarumlaut" unicode="&#x151;" horiz-adv-x="1038" 
d="M547 989l303 303l113 -112l-345 -267zM201 997l303 295l114 -112l-344 -258zM702 422q0 114 -43 192t-138 78t-144 -78t-49 -188q0 -270 187 -270t187 266zM573 877q185 0 305 -113t120 -319q0 -205 -136 -331q-135 -126 -339 -126t-342 114t-138 315q1 200 151 330
t379 130z" />
    <glyph glyph-name="OE" unicode="&#x152;" horiz-adv-x="2019" 
d="M367 674q0 -136 40 -238q41 -102 105 -155q128 -105 269 -105t261 117v764q-106 106 -255 101t-273 -100q-66 -50 -106 -150t-41 -234zM1894 188v-188h-852v90q-57 -47 -156 -76q-213 -62 -426 8q-394 129 -394 640q0 300 194 494t481 194q74 0 162 -26t141 -67l3 76h817
v-182h-512v-358h463v-189h-463v-416h542z" />
    <glyph glyph-name="oe" unicode="&#x153;" horiz-adv-x="1607" 
d="M1280 551q2 43 -5 75t-38 60t-95 26q-64 -4 -104 -54q-41 -50 -45 -97l-4 -49q252 31 291 39zM692 424q0 116 -43 194t-137 78t-143 -78t-50 -190q1 -270 187 -270t186 266zM549 879q215 0 334 -129q106 129 295 129q154 0 262 -76t119 -244q5 -61 -11 -131l-555 -55
q5 -87 59 -149t156 -62t250 45l51 14l39 -117q-258 -111 -387 -116q-186 -6 -293 143q-135 -141 -347 -141t-349 114t-137 315q0 200 149 330q150 130 365 130z" />
    <glyph glyph-name="Racute" unicode="&#x154;" horiz-adv-x="1247" 
d="M383 1464l350 334l131 -139l-389 -297zM588 715q143 0 213 57t80 171t-62 168t-162 54l-182 -10v-436q37 -4 113 -4zM674 1352q246 0 382 -98t144 -273q8 -207 -117 -321t-303 -113l492 -422l-285 -162q-473 528 -514 572v-535l-309 -12l-2 1319l407 41q74 4 105 4z" />
    <glyph glyph-name="racute" unicode="&#x155;" horiz-adv-x="823" 
d="M172 991l350 334l131 -139l-389 -297zM397 602v-602l-293 -12v868l293 18v-157q193 157 445 157q-33 -126 -47 -227l-9 -45h-389z" />
    <glyph glyph-name="Rcommaaccent" unicode="&#x156;" horiz-adv-x="1247" 
d="M588 715q143 0 213 57t80 171t-62 168t-162 54l-182 -10v-436q37 -4 113 -4zM674 1352q246 0 382 -98t144 -273q8 -207 -117 -321t-303 -113l492 -422l-285 -162q-473 528 -514 572v-535l-309 -12l-2 1319l407 41q74 4 105 4zM514 -276q0 50 43 92t122 43q79 -1 126 -63
t47 -142t-29 -138t-97 -125t-124 -104l-55 -39l-72 84q52 39 105 104q53 64 58 90t6 34q1 6 -7 13q-7 7 -17 10t-12 5q-94 41 -94 136z" />
    <glyph glyph-name="rcommaaccent" unicode="&#x157;" horiz-adv-x="823" 
d="M397 602v-602l-293 -12v868l293 18v-157q193 157 445 157q-33 -126 -47 -227l-9 -45h-389zM490 -141q79 -1 126 -63q48 -62 48 -142t-29 -138t-97 -125t-124 -104l-56 -39l-71 84q53 40 105 104t63 107q0 10 1 18t-8 14q-10 5 -18 8t-10 5q-94 42 -94 136q0 50 42 92
t122 43z" />
    <glyph glyph-name="Rcaron" unicode="&#x158;" horiz-adv-x="1247" 
d="M291 1722l92 64l240 -223l247 229l86 -72l-282 -307h-105zM588 715q143 0 213 57t80 171t-62 168t-162 54l-182 -10v-436q37 -4 113 -4zM674 1352q246 0 382 -98t144 -273q8 -207 -117 -321t-303 -113l492 -422l-285 -162q-473 528 -514 572v-535l-309 -12l-2 1319
l407 41q74 4 105 4z" />
    <glyph glyph-name="rcaron" unicode="&#x159;" horiz-adv-x="823" 
d="M80 1249l92 64l240 -223l247 229l86 -72l-282 -307h-105zM397 602v-602l-293 -12v868l293 18v-157q193 157 445 157q-33 -126 -47 -227l-9 -45h-389z" />
    <glyph glyph-name="Sacute" unicode="&#x15a;" horiz-adv-x="1103" 
d="M344 1464l350 334l131 -139l-389 -297zM944 1092q-197 59 -301 52q-103 -7 -159 -48t-46 -125q6 -55 74 -94t157 -70t176 -76t145 -135t54 -223q-6 -166 -149 -283t-356 -102q-175 11 -381 78l-66 22l55 193q259 -63 363 -63t163 44q58 45 62 121t-58 127q-63 51 -153 83
t-181 71q-91 40 -156 118t-64 197q0 180 146 275q146 96 323 96t348 -50l57 -16z" />
    <glyph glyph-name="sacute" unicode="&#x15b;" horiz-adv-x="894" 
d="M207 991l350 334l131 -139l-389 -297zM504 727q-166 0 -162 -70q2 -37 55 -59t129 -41q76 -18 152 -46t131 -88t57 -153q4 -141 -96 -216q-100 -74 -259 -74t-413 57l-47 12l31 158q476 -100 469 18q-3 62 -181 111q-73 20 -147 49t-123 90t-45 155t73 156q69 60 154 80
t213 21t255 -25l43 -8l-19 -149q-203 23 -270 22z" />
    <glyph glyph-name="Scircumflex" unicode="&#x15c;" horiz-adv-x="1103" 
d="M246 1456l264 281h135l262 -279l-112 -80l-222 203l-215 -199zM944 1092q-197 59 -301 52q-103 -7 -159 -48t-46 -125q6 -55 74 -94t157 -70t176 -76t145 -135t54 -223q-6 -166 -149 -283t-356 -102q-175 11 -381 78l-66 22l55 193q259 -63 363 -63t163 44q58 45 62 121
t-58 127q-63 51 -153 83t-181 71q-91 40 -156 118t-64 197q0 180 146 275q146 96 323 96t348 -50l57 -16z" />
    <glyph glyph-name="scircumflex" unicode="&#x15d;" horiz-adv-x="894" 
d="M117 983l264 281h135l262 -279l-112 -80l-222 203l-215 -199zM504 727q-166 0 -162 -70q2 -37 55 -59t129 -41q76 -18 152 -46t131 -88t57 -153q4 -141 -96 -216q-100 -74 -259 -74t-413 57l-47 12l31 158q476 -100 469 18q-3 62 -181 111q-73 20 -147 49t-123 90
t-45 155t73 156q69 60 154 80t213 21t255 -25l43 -8l-19 -149q-203 23 -270 22z" />
    <glyph glyph-name="Scedilla" unicode="&#x15e;" horiz-adv-x="1103" 
d="M944 1092q-197 59 -301 52q-103 -7 -159 -48t-46 -125q6 -55 74 -94t157 -70t176 -76t145 -135t54 -223q-6 -166 -149 -283q-101 -83 -238 -99l-159 -153q20 0 56 -14t58 -32t42 -57q19 -38 20 -87q0 -86 -95 -140t-190 -67l-96 -12l-19 104q120 0 183 60q23 22 23 61
q0 40 -38 68q-37 28 -73 32l-39 4l-21 68l183 166q-159 17 -334 74l-66 22l55 193q259 -63 363 -63t163 44q58 45 62 121t-58 127q-63 51 -153 83t-181 71q-91 40 -156 118t-64 197q0 180 146 275q146 96 323 96t348 -50l57 -16z" />
    <glyph glyph-name="scedilla" unicode="&#x15f;" horiz-adv-x="894" 
d="M506 727q-166 0 -162 -70q2 -37 55 -59t129 -41q76 -18 152 -46t131 -88t57 -153q4 -141 -96 -216q-66 -49 -166 -66l-157 -150q20 0 56 -14q37 -14 59 -32t41 -57q19 -38 20 -87q1 -86 -95 -140t-190 -67l-96 -12l-19 104q72 -1 116 19q91 40 90 91t-38 79t-74 32l-38 4
l-21 68l172 156q-118 5 -330 55l-49 12l31 158q476 -100 469 18q-3 62 -181 111q-73 20 -147 49t-123 90t-45 155t73 156q69 60 154 80t215 21t251 -25l45 -8l-19 -149q-203 23 -270 22z" />
    <glyph glyph-name="Scaron" unicode="&#x160;" horiz-adv-x="1103" 
d="M264 1722l92 64l240 -223l248 229l86 -72l-283 -307h-104zM944 1092q-197 59 -301 52q-103 -7 -159 -48t-46 -125q6 -55 74 -94t157 -70t176 -76t145 -135t54 -223q-6 -166 -149 -283t-356 -102q-175 11 -381 78l-66 22l55 193q259 -63 363 -63t163 44q58 45 62 121
t-58 127q-63 51 -153 83t-181 71q-91 40 -156 118t-64 197q0 180 146 275q146 96 323 96t348 -50l57 -16z" />
    <glyph glyph-name="scaron" unicode="&#x161;" horiz-adv-x="894" 
d="M115 1249l92 64l239 -223l248 229l86 -72l-282 -307h-105zM500 727q-166 0 -162 -70q2 -37 55 -59t129 -41q76 -18 152 -46t131 -88t57 -153q4 -141 -96 -216q-100 -74 -259 -74t-413 57l-47 12l31 158q476 -100 469 18q-3 62 -181 111q-73 20 -147 49t-123 90t-45 155
t73 156q69 60 154 80t214 21t253 -25l43 -8l-18 -149q-203 23 -270 22z" />
    <glyph glyph-name="Tcommaaccent" unicode="&#x162;" horiz-adv-x="1077" 
d="M0 1327h1087v-184h-372v-1143l-18 -1l-169 -161q21 0 57 -14q37 -14 59 -32t41 -57q19 -38 20 -87q1 -86 -95 -140t-192 -67l-94 -12l-19 104q72 -1 116 19q89 40 89 91t-38 79t-75 32l-37 4l-20 68l178 161l-115 -7v1165h-403v182z" />
    <glyph glyph-name="tcommaaccent" unicode="&#x163;" horiz-adv-x="737" 
d="M477 -348q0 -86 -95 -140t-189 -67l-97 -12l-18 104q72 -1 116 19q89 40 89 91q0 50 -37 79t-74 32l-39 4l-20 68l172 157q-54 7 -104 45t-50 107v566h-149v137l149 18v305l293 15v-322h270v-153h-270v-539h303l14 -131q-169 -19 -270 -31l-170 -162q20 0 56 -14t59 -32
t42 -57q19 -38 19 -87z" />
    <glyph glyph-name="Tcaron" unicode="&#x164;" horiz-adv-x="1077" 
d="M229 1722l93 64l239 -223l248 229l86 -72l-283 -307h-104zM-4 1327h1087v-184h-372v-1143l-312 -20v1165h-403v182z" />
    <glyph glyph-name="tcaron" unicode="&#x165;" horiz-adv-x="1153" 
d="M131 139v566h-149v137l149 18v305l293 15v-322h270v-153h-270v-539h303l14 -131q-336 -37 -405 -49q-86 -6 -146 39q-59 45 -59 114zM957 1448q79 0 126 -62t47 -143q0 -80 -28 -138t-98 -125q-68 -67 -123 -103l-56 -39l-71 84q55 41 106 104t62 107q0 10 1 18t-8 13
q-10 5 -18 8t-10 6q-95 42 -95 136q0 50 44 92q42 42 121 42z" />
    <glyph glyph-name="Tbar" unicode="&#x166;" horiz-adv-x="1077" 
d="M944 860v-131h-235v-729l-312 -20v749h-282v131h282v285h-403v182h1087v-184h-372v-283h235z" />
    <glyph glyph-name="tbar" unicode="&#x167;" horiz-adv-x="737" 
d="M680 598v-141h-256v-291h303l14 -131q-336 -37 -405 -49q-86 -6 -146 39q-59 45 -59 114v318h-147v141h147v107h-149v137l149 18v305l293 15v-322h270v-153h-270v-107h256z" />
    <glyph glyph-name="Utilde" unicode="&#x168;" horiz-adv-x="1386" 
d="M826 1563q28 0 38 3q10 2 22 26t19 73l133 -6q0 -270 -176 -270q-72 0 -168 63q-96 64 -130 64t-54 -31t-23 -62l-4 -30l-135 8q6 133 60 202t135 69q82 0 168 -55q87 -54 115 -54zM1276 616q0 -272 -135 -442t-413 -186t-426 129t-148 409v799l311 25v-770
q0 -227 40 -290q40 -62 119 -78q46 -9 109 -9q143 0 188 89q44 89 44 296v739l311 21v-732z" />
    <glyph glyph-name="utilde" unicode="&#x169;" horiz-adv-x="1034" 
d="M650 1104q28 0 38 3q30 9 41 99l133 -6q0 -270 -176 -270q-72 0 -168 63t-130 63t-54 -30q-20 -31 -23 -61l-4 -31l-135 8q6 133 59 202q53 68 135 68t169 -54t115 -54zM365 -18q-127 0 -200 87t-73 220v571l293 14v-536q0 -78 43 -125t119 -18q27 10 90 36l2 629l293 14
l-2 -874l-217 -12l-66 110q-127 -90 -182 -103t-100 -13z" />
    <glyph glyph-name="Umacron" unicode="&#x16a;" horiz-adv-x="1386" 
d="M983 1554v-139h-518v139h518zM1276 616q0 -272 -135 -442t-413 -186t-426 129t-148 409v799l311 25v-770q0 -227 40 -290q40 -62 119 -78q46 -9 109 -9q143 0 188 89q44 89 44 296v739l311 21v-732z" />
    <glyph glyph-name="umacron" unicode="&#x16b;" horiz-adv-x="1034" 
d="M776 1081v-139h-518v139h518zM365 -18q-127 0 -200 87t-73 220v571l293 14v-536q0 -78 43 -125t119 -18q27 10 90 36l2 629l293 14l-2 -874l-217 -12l-66 110q-127 -90 -182 -103t-100 -13z" />
    <glyph glyph-name="Ubreve" unicode="&#x16c;" horiz-adv-x="1386" 
d="M727 1372q-176 0 -269 164q-22 37 -28 61l-8 27l141 25q2 -3 6 -13t21 -31q58 -81 148 -81q40 0 83 28t60 58l18 30l143 -18q-6 -28 -34 -78q-29 -51 -61 -85q-32 -35 -91 -61t-129 -26zM1276 616q0 -272 -135 -442t-413 -186t-426 129t-148 409v799l311 25v-770
q0 -227 40 -290q40 -62 119 -78q46 -9 109 -9q143 0 188 89q44 89 44 296v739l311 21v-732z" />
    <glyph glyph-name="ubreve" unicode="&#x16d;" horiz-adv-x="1034" 
d="M524 1051q40 -1 82 29q43 30 62 59l16 28l143 -18q-6 -29 -35 -79q-28 -50 -60 -84t-91 -60t-129 -27q-179 0 -269 163q-22 38 -30 64l-6 25l141 25q2 -4 6 -14t21 -30q59 -81 149 -81zM365 -18q-127 0 -200 87t-73 220v571l293 14v-536q0 -78 43 -125t119 -18
q27 10 90 36l2 629l293 14l-2 -874l-217 -12l-66 110q-127 -90 -182 -103t-100 -13z" />
    <glyph glyph-name="Uring" unicode="&#x16e;" horiz-adv-x="1386" 
d="M735 1403q-111 0 -189 55t-77 134q0 79 78 134q79 56 189 56t188 -56t78 -134q0 -79 -78 -134t-189 -55zM735 1690q-51 0 -79 -27t-27 -71q-1 -44 27 -70t79 -27q51 0 79 27q28 26 28 70t-28 71t-79 27zM1276 616q0 -272 -135 -442t-413 -186t-426 129t-148 409v799
l311 25v-770q0 -227 40 -290q40 -62 119 -78q46 -9 109 -9q143 0 188 89q44 89 44 296v739l311 21v-732z" />
    <glyph glyph-name="uring" unicode="&#x16f;" horiz-adv-x="1034" 
d="M516 930q-110 0 -188 55t-78 134t78 134t188 55t189 -54q77 -56 77 -135t-78 -134t-188 -55zM516 1217q-50 0 -78 -27t-28 -71q0 -45 28 -71t78 -26q51 0 79 27t28 71t-28 70q-28 27 -79 27zM365 -18q-127 0 -200 87t-73 220v571l293 14v-536q0 -78 43 -125t119 -18
q27 10 90 36l2 629l293 14l-2 -874l-217 -12l-66 110q-127 -90 -182 -103t-100 -13z" />
    <glyph glyph-name="Uhungarumlaut" unicode="&#x170;" horiz-adv-x="1386" 
d="M711 1462l303 303l112 -112l-344 -267zM365 1470l303 295l114 -112l-344 -258zM1276 616q0 -272 -135 -442t-413 -186t-426 129t-148 409v799l311 25v-770q0 -227 40 -290q40 -62 119 -78q46 -9 109 -9q143 0 188 89q44 89 44 296v739l311 21v-732z" />
    <glyph glyph-name="uhungarumlaut" unicode="&#x171;" horiz-adv-x="1034" 
d="M481 989l303 303l113 -112l-344 -267zM135 997l303 295l115 -112l-344 -258zM365 -18q-127 0 -200 87t-73 220v571l293 14v-536q0 -78 43 -125t119 -18q27 10 90 36l2 629l293 14l-2 -874l-217 -12l-66 110q-127 -90 -182 -103t-100 -13z" />
    <glyph glyph-name="Uogonek" unicode="&#x172;" horiz-adv-x="1386" 
d="M1276 616q0 -272 -135 -442t-410 -186q-5 0 -10 -1q-89 -74 -125 -162q-18 -44 -18 -85q0 -106 135 -107l84 11l24 -95q-89 -53 -205 -53t-182 58t-60 143q6 86 61 162q56 76 110 112l33 21q-171 22 -276 125q-148 145 -148 409v799l311 25v-770q0 -227 40 -290
q40 -62 119 -78q46 -9 109 -9q143 0 188 89q44 89 44 296v739l311 21v-732z" />
    <glyph glyph-name="uogonek" unicode="&#x173;" horiz-adv-x="1034" 
d="M365 -18q-127 0 -200 87t-73 220v571l293 14v-536q0 -78 43 -125t119 -18q27 10 90 36l2 629l293 14l-2 -874l-75 -4q-5 -2 -40 -35q-112 -105 -115 -221q0 -106 136 -107l84 11l24 -95q-90 -53 -206 -53t-181 58q-67 58 -61 143q6 86 62 162t110 112l40 25l-61 102
q-127 -90 -182 -103t-100 -13z" />
    <glyph glyph-name="Wcircumflex" unicode="&#x174;" horiz-adv-x="1886" 
d="M645 1456l264 281h135l263 -279l-113 -80l-221 203l-215 -199zM946 940l-196 -940l-412 -12l-315 1333l321 27l193 -1047h28l230 1028l354 19l205 -1043h28l265 1043l262 -15l-357 -1333l-401 -12l-178 952h-27z" />
    <glyph glyph-name="wcircumflex" unicode="&#x175;" horiz-adv-x="1531" 
d="M434 983l264 281h136l262 -279l-113 -80l-221 203l-215 -199zM739 557l-139 -557l-369 -12l-229 864l299 22l113 -671h16l166 657l313 14l164 -661h17l184 664l260 -17l-283 -860l-348 -12l-145 569h-19z" />
    <glyph glyph-name="Ycircumflex" unicode="&#x176;" horiz-adv-x="1187" 
d="M330 1456l264 281h135l262 -279l-112 -80l-222 203l-215 -199zM438 500l-407 821l358 27l244 -580h18l297 584l262 -31l-460 -834v-487l-312 -12v512z" />
    <glyph glyph-name="ycircumflex" unicode="&#x177;" horiz-adv-x="960" 
d="M150 983l264 281h135l262 -279l-113 -80l-221 203l-215 -199zM700 874l263 -61l-547 -1257l-256 55l196 467l-94 2l-254 735l293 59l162 -591z" />
    <glyph glyph-name="Ydieresis" unicode="&#x178;" horiz-adv-x="1187" 
d="M991 1515q0 -51 -37 -89t-90 -38t-90 38q-37 37 -37 89t37 89q37 36 90 36t90 -36t37 -89zM561 1516q0 -52 -37 -90t-90 -38t-90 38q-37 37 -37 89t37 89q37 36 90 36t90 -36t37 -88zM438 500l-407 821l358 27l244 -580h18l297 584l262 -31l-460 -834v-487l-312 -12v512z
" />
    <glyph glyph-name="Zacute" unicode="&#x179;" horiz-adv-x="1228" 
d="M373 1464l350 334l131 -139l-389 -297zM143 1327h944l50 -188l-715 -951h672v-188h-988l-55 209l713 934h-621v184z" />
    <glyph glyph-name="zacute" unicode="&#x17a;" horiz-adv-x="964" 
d="M242 991l350 334l131 -139l-389 -297zM877 166v-166h-785l-49 168l541 539h-502v153h776l39 -170l-506 -524h486z" />
    <glyph glyph-name="Zdotaccent" unicode="&#x17b;" horiz-adv-x="1228" 
d="M471 1531q0 56 41 95t100 39q60 0 102 -39t42 -95t-42 -96t-100 -40t-101 40q-42 40 -42 96zM143 1327h944l50 -188l-715 -951h672v-188h-988l-55 209l713 934h-621v184z" />
    <glyph glyph-name="zdotaccent" unicode="&#x17c;" horiz-adv-x="964" 
d="M340 1058q0 56 41 95t100 39t101 -39t43 -95q0 -56 -42 -96q-43 -40 -101 -40t-100 40t-42 96zM877 166v-166h-785l-49 168l541 539h-502v153h776l39 -170l-506 -524h486z" />
    <glyph glyph-name="Zcaron" unicode="&#x17d;" horiz-adv-x="1228" 
d="M336 1722l92 64l240 -223l247 229l86 -72l-282 -307h-105zM143 1327h944l50 -188l-715 -951h672v-188h-988l-55 209l713 934h-621v184z" />
    <glyph glyph-name="zcaron" unicode="&#x17e;" horiz-adv-x="964" 
d="M150 1249l92 64l239 -223l248 229l86 -72l-283 -307h-104zM877 166v-166h-785l-49 168l541 539h-502v153h776l39 -170l-506 -524h486z" />
    <glyph glyph-name="longs" unicode="&#x17f;" horiz-adv-x="759" 
d="M594 1139q-72 0 -96 -33q-24 -34 -25 -106q0 -72 2 -1000l-295 -12v690l-157 31v151h157v37q0 215 127 321q160 134 414 90q51 -9 78 -18l24 -6l-30 -170q-127 25 -199 25z" />
    <glyph glyph-name="florin" unicode="&#x192;" horiz-adv-x="1200" 
d="M962 1358q113 0 205 -25l31 -8l-65 -211q-129 43 -215 43q-145 0 -170 -137q-6 -29 -15 -191h363l-6 -182h-363q-29 -569 -43 -678q-26 -166 -142 -255t-264 -88t-253 30l-41 8l43 217q193 -77 282 8q47 45 53 152q35 586 35 608l-291 10l3 166l299 4q0 12 10 115
q16 158 152 275q161 139 392 139z" />
    <glyph glyph-name="circumflex" unicode="&#x2c6;" horiz-adv-x="911" 
d="M125 983l264 281h135l262 -279l-112 -80l-221 203l-215 -199z" />
    <glyph glyph-name="caron" unicode="&#x2c7;" horiz-adv-x="915" 
d="M125 1249l92 64l240 -223l248 229l86 -72l-283 -307h-105z" />
    <glyph glyph-name="breve" unicode="&#x2d8;" horiz-adv-x="880" 
d="M438 1051q40 -1 82 29q43 30 62 59l16 28l143 -18q-6 -29 -35 -79q-28 -50 -60 -84t-91 -60t-129 -27q-179 0 -269 163q-22 38 -30 64l-6 25l141 25q2 -4 6 -14t21 -30q59 -81 149 -81z" />
    <glyph glyph-name="dotaccent" unicode="&#x2d9;" horiz-adv-x="880" 
d="M295 1058q0 56 41 95t100 39q60 0 102 -39t42 -95t-42 -96t-100 -40t-101 40q-42 40 -42 96z" />
    <glyph glyph-name="ring" unicode="&#x2da;" horiz-adv-x="880" 
d="M444 930q-110 0 -188 55t-78 134t78 134t188 55t189 -54q78 -56 78 -135t-78 -134t-189 -55zM444 1217q-50 0 -78 -27t-28 -71q0 -45 28 -71t78 -26t79 27q28 27 28 71t-28 70q-28 27 -79 27z" />
    <glyph glyph-name="ogonek" unicode="&#x2db;" horiz-adv-x="880" 
d="M610 -504q-116 0 -182 58t-60 143q6 86 61 162q56 76 112 112l53 35h145q-15 -10 -52 -44q-113 -106 -116 -222q0 -106 136 -107l84 11l24 -95q-89 -53 -205 -53z" />
    <glyph glyph-name="tilde" unicode="&#x2dc;" horiz-adv-x="880" 
d="M291 1198q82 0 168 -54t115 -54q28 0 38 3t22 27t19 72l133 -6q0 -270 -176 -271q-70 -1 -166 63t-131 64t-55 -30t-25 -62l-2 -30l-135 8q6 134 60 202t135 68z" />
    <glyph glyph-name="hungarumlaut" unicode="&#x2dd;" horiz-adv-x="880" 
d="M422 989l303 303l113 -112l-344 -267zM76 997l303 295l115 -112l-344 -258z" />
    <glyph glyph-name="Omega" unicode="&#x3a9;" horiz-adv-x="1527" 
d="M1477 188v-188h-598v188q98 79 163 190q33 54 61 141t27 177q0 223 -109 335q-110 112 -254 112q-145 0 -251 -118t-106 -327q0 -90 24 -176t79 -174q54 -88 112 -139l24 -21v-188h-604v188h303q-55 51 -88 86q-118 125 -159 251q-26 81 -25 173q0 294 206 478t496 184
t489 -188q198 -188 197 -476q0 -233 -207 -440q-18 -18 -69 -68h289z" />
    <glyph glyph-name="pi" unicode="&#x3c0;" horiz-adv-x="1232" 
d="M1241 983l-37 -207h-166l56 -772l-303 -12l-60 784h-196l-181 -784l-342 12l195 772h-225l26 207h1233z" />
    <glyph glyph-name="endash" unicode="&#x2013;" horiz-adv-x="983" 
d="M913 580l-6 -181h-848l4 181h850z" />
    <glyph glyph-name="emdash" unicode="&#x2014;" horiz-adv-x="2150" 
d="M2091 580l-6 -181h-2026l4 181h2028z" />
    <glyph glyph-name="quoteleft" unicode="&#x2018;" horiz-adv-x="555" 
d="M292 760q-93 0 -149 74q-55 74 -55 167t33 163t113 149q81 78 147 123l65 45l89 -99q-7 -6 -19 -15t-44 -39q-116 -109 -138 -198q-8 -33 43 -51q109 -47 108 -151q0 -70 -50 -119t-143 -49z" />
    <glyph glyph-name="quoteright" unicode="&#x2019;" horiz-adv-x="555" 
d="M286 1444q93 0 147 -74t54 -168q-1 -94 -33 -165t-113 -149t-146 -122l-66 -45l-86 98q64 51 132 134q69 83 69 117q0 35 -22 44q-5 2 -11 5t-12 3q-109 49 -109 152q0 70 51 120q52 50 145 50z" />
    <glyph glyph-name="quotesinglbase" unicode="&#x201a;" horiz-adv-x="534" 
d="M218 -3q-18 9 -19 9q-98 43 -99 137q0 61 45 107t130 45q85 0 135 -67q50 -68 49 -152q0 -84 -30 -148q-31 -64 -103 -133q-72 -70 -131 -110l-60 -41l-78 90q63 49 116 113q54 65 65 110q6 8 2 15t-4 12q0 4 -18 13z" />
    <glyph glyph-name="quotedblleft" unicode="&#x201c;" horiz-adv-x="1026" 
d="M932 981q0 -61 -46 -107t-130 -45q-84 0 -133 67t-49 152t29 148q30 63 103 133t132 111l59 41l78 -90q-63 -49 -122 -121q-60 -72 -60 -114q0 -18 11 -24q25 -14 30 -14q98 -43 98 -137zM444 981q0 -61 -45 -107t-130 -45q-85 0 -134 67q-49 66 -49 152t30 148t102 133
q73 70 132 111l60 41l79 -90q-63 -49 -116 -114q-53 -64 -64 -110q-6 -6 -1 -15t3 -11t6 -7t10 -7t19 -9q98 -43 98 -137z" />
    <glyph glyph-name="quotedblright" unicode="&#x201d;" horiz-adv-x="1026" 
d="M582 1294q0 60 46 106t130 46t133 -67t49 -151t-30 -148t-102 -134t-132 -110l-60 -41l-77 90q63 49 123 121q59 72 59 104q0 31 -18 37q-5 2 -13 6t-10 4q-98 43 -98 137zM210 1148q-17 8 -20 9q-98 43 -98 137q0 60 45 106t130 46t134 -67t49 -151t-29 -148
q-30 -64 -103 -134t-132 -110l-59 -41l-78 90q63 49 116 113q54 65 64 110q6 8 2 15t-4 12t-17 13z" />
    <glyph glyph-name="quotedblbase" unicode="&#x201e;" horiz-adv-x="1007" 
d="M749 295q83 0 133 -67q50 -68 50 -152t-30 -148t-102 -133q-72 -70 -132 -110l-60 -41l-78 90q63 49 123 121t60 103q1 31 -11 35q-12 5 -20 9t-10 4q-98 43 -99 137q0 61 46 107t130 45zM202 -2q-17 8 -20 8q-98 43 -98 137q0 61 45 107t130 45q85 0 134 -67
q49 -68 49 -152t-29 -148q-30 -64 -103 -133q-73 -70 -132 -110l-59 -41l-78 90q63 49 116 113q54 65 64 110q6 8 2 15t-4 12q0 6 -17 14z" />
    <glyph glyph-name="dagger" unicode="&#x2020;" horiz-adv-x="1171" 
d="M416 895v440l301 15v-455h381l-27 -180h-354l2 -1022l-303 -2v1024h-348l26 180h322z" />
    <glyph glyph-name="daggerdbl" unicode="&#x2021;" horiz-adv-x="1171" 
d="M418 299v416h-348l26 180h322v440l301 15v-455h381l-27 -180h-354v-416h381l-27 -178h-354l2 -428l-303 -2v430h-348l26 178h322z" />
    <glyph glyph-name="bullet" unicode="&#x2022;" horiz-adv-x="860" 
d="M127 520q0 121 91 207t219 86t218 -86t90 -207t-90 -207t-218 -86t-219 86t-91 207z" />
    <glyph glyph-name="ellipsis" unicode="&#x2026;" horiz-adv-x="2009" 
d="M1509 139q-1 72 53 122t130 50t129 -50t53 -122t-53 -122t-129 -50t-130 50t-53 122zM815 139q0 72 53 122t129 50t129 -50q54 -50 54 -122t-54 -122t-129 -50q-76 0 -129 50t-53 122zM123 139q0 72 53 122t129 50t128 -50t52 -122t-52 -122t-128 -50t-129 50t-53 122z
" />
    <glyph glyph-name="perthousand" unicode="&#x2030;" horiz-adv-x="2666" 
d="M418 729q53 0 89 68q36 67 36 185t-34 179t-84 61t-88 -58q-38 -60 -38 -182t33 -188t86 -65zM414 596q-160 0 -261 105t-97 279t119 273q114 98 243 99h24q272 0 379 2l510 16l68 -104l-879 -1329l-174 65l801 1223q-223 -6 -420 -8q63 -88 63 -245q0 -156 -107 -266
q-109 -110 -269 -110zM2226 735q172 0 272 -92t101 -267q0 -175 -108 -286q-109 -110 -269 -110t-261 105t-96 279t118 273q114 98 243 98zM2107 366q0 -122 33 -187t86 -65t89 68q36 66 36 185t-34 179t-84 60t-88 -59t-38 -181zM1382 735q172 0 272 -92t101 -267
t-107 -286q-108 -110 -270 -110t-262 104t-95 280t119 273q114 98 242 98zM1390 606q-50 0 -88 -59t-38 -181t32 -187t86 -65q53 0 88 68q35 66 35 185t-32 179q-33 60 -83 60z" />
    <glyph glyph-name="guilsinglleft" unicode="&#x2039;" horiz-adv-x="595" 
d="M451 858l106 -88l-248 -321l244 -330l-107 -84l-362 354v113z" />
    <glyph glyph-name="guilsinglright" unicode="&#x203a;" horiz-adv-x="595" 
d="M156 858l366 -356v-113l-362 -354l-107 84l242 330l-246 321z" />
    <glyph glyph-name="fraction" unicode="&#x2044;" horiz-adv-x="976" 
d="M842 1374l137 -78l-860 -1329l-131 68z" />
    <glyph glyph-name="zerosuperior" unicode="&#x2070;" 
d="M348 1223q0 203 -88 202q-34 0 -62 -58t-28 -146q0 -89 24 -143t64 -54t65 55q25 56 25 144zM266 1554q116 0 188 -82t72 -236q0 -152 -72 -247q-73 -94 -201 -94t-194 91q-65 92 -65 234t78 238t194 96z" />
    <glyph glyph-name="foursuperior" unicode="&#x2074;" 
d="M260 1346l-102 -175h100zM258 1032h-248l-30 111l284 418l168 -9v-381h109l-6 -139h-103v-131l-174 -8v139z" />
    <glyph glyph-name="fivesuperior" unicode="&#x2075;" 
d="M256 1327q129 -1 185 -65q57 -64 57 -152t-69 -153t-198 -64q-89 0 -180 41l-28 14l38 107q92 -31 158 -31q101 0 103 93t-86 104q-54 5 -89 -13l-14 -4l-70 66l39 286h379v-114h-229l-12 -115h16z" />
    <glyph glyph-name="sixsuperior" unicode="&#x2076;" 
d="M184 1119q0 -50 26 -86t60 -34q76 4 76 125q0 49 -23 79q-24 30 -55 27q-32 -3 -58 -32t-26 -79zM301 1339q93 0 155 -63q62 -62 60 -164t-76 -162t-184 -59q-110 -1 -178 65t-72 186t77 246t249 191l55 -94q-53 -23 -103 -65q-49 -42 -69 -91q35 10 86 10z" />
    <glyph glyph-name="sevensuperior" unicode="&#x2077;" 
d="M20 1432v122h441l39 -108q-73 -73 -142 -212t-92 -333l-182 -6q4 31 15 85t71 196t154 256h-304z" />
    <glyph glyph-name="eightsuperior" unicode="&#x2078;" 
d="M344 1080q0 45 -58 71q-19 8 -63 23q-15 -6 -31 -29t-16 -53q0 -72 92 -72q35 0 56 17q20 17 20 43zM193 1393q2 -41 102 -74q12 4 24 28q13 25 13 53q1 59 -72 54q-37 -2 -54 -19t-13 -42zM252 899q-108 0 -186 47q-76 47 -70 141q2 57 36 97t83 53q-53 33 -72 69
q-18 36 -16 100t71 112q70 49 166 49t161 -42t67 -108q1 -89 -95 -155q82 -29 108 -76q25 -47 19 -121t-85 -120t-187 -46z" />
    <glyph glyph-name="ninesuperior" unicode="&#x2079;" 
d="M336 1340q0 50 -26 86t-60 34q-76 -4 -76 -125q0 -49 24 -79t54 -26t58 32q26 28 26 78zM219 1120q-93 0 -155 64t-60 164q2 102 76 161t184 59t178 -65t72 -185t-77 -246t-249 -191l-55 94q14 6 36 16t69 50t67 89q-37 -10 -86 -10z" />
    <glyph glyph-name="plussuperior" unicode="&#x207a;" horiz-adv-x="509" 
d="M178 1137h-162l4 131h158v149l154 2v-151h155l-4 -131h-151v-168l-154 -2v170z" />
    <glyph glyph-name="minussuperior" unicode="&#x207b;" horiz-adv-x="444" 
d="M471 1251l-4 -125h-469l2 125h471z" />
    <glyph glyph-name="equalssuperior" unicode="&#x207c;" 
d="M498 1133l-4 -125h-469l2 125h471zM498 1319l-4 -125h-469l2 125h471z" />
    <glyph glyph-name="zeroinferior" unicode="&#x2080;" 
d="M348 -86q0 203 -88 203q-34 -1 -62 -59t-28 -146t24 -142t64 -54t64 54q26 56 26 144zM266 246q116 0 188 -83t72 -235t-72 -247t-201 -95q-128 0 -194 91q-65 91 -65 233t78 240q78 96 194 96z" />
    <glyph glyph-name="oneinferior" unicode="&#x2081;" horiz-adv-x="432" 
d="M174 -410v453l-133 -23l-29 125l334 99v-654h-172z" />
    <glyph glyph-name="twoinferior" unicode="&#x2082;" 
d="M246 -268l286 2l-12 -144h-497l-25 131q28 14 96 61q68 46 110 81t76 80t33 80q0 70 -80 69q-53 0 -135 -78l-108 84q4 4 10 12q44 62 153 102q44 15 93 17q133 8 206 -46q72 -54 72 -148t-68 -160t-210 -143z" />
    <glyph glyph-name="threeinferior" unicode="&#x2083;" 
d="M279 -225q0 37 -28 61t-114 23h-31l3 112q15 2 69 3t86 29t25 69q-6 53 -86 53l-168 -23l-12 109q145 23 243 23t173 -36t69 -111t-45 -107t-133 -52q196 -12 188 -164q-9 -236 -417 -174q-52 8 -76 17l-25 6l23 119q109 -20 194 -21q62 1 62 64z" />
    <glyph glyph-name="fourinferior" unicode="&#x2084;" 
d="M260 35l-102 -174h100zM258 -279h-248l-30 111l284 418l168 -8v-381h109l-6 -140h-103v-131l-174 -8v139z" />
    <glyph glyph-name="fiveinferior" unicode="&#x2085;" 
d="M256 14q129 0 185 -64q57 -64 57 -153t-69 -153t-184 -64t-194 41l-28 14l38 107q92 -31 158 -31q101 0 103 93t-86 104q-59 5 -103 -17l-70 66l39 287h379v-115h-229l-12 -115h16z" />
    <glyph glyph-name="sixinferior" unicode="&#x2086;" 
d="M346 -186q0 48 -24 78t-54 27q-32 -3 -58 -31t-26 -79t26 -87t60 -33q76 4 76 125zM215 18q35 10 86 11q93 1 155 -63t60 -166t-76 -160q-74 -60 -184 -60t-178 66t-72 186t77 245q81 126 249 191l55 -94q-14 -6 -36 -16t-69 -50t-67 -90z" />
    <glyph glyph-name="seveninferior" unicode="&#x2087;" 
d="M20 121v123h441l39 -109l-22 -22q-13 -13 -48 -65q-134 -197 -164 -458l-182 -6q4 31 15 85q11 55 71 197t154 255h-304z" />
    <glyph glyph-name="eightinferior" unicode="&#x2088;" 
d="M344 -234q0 26 -19 44t-39 26t-63 23q-15 -6 -31 -29t-16 -53q0 -72 92 -72q35 0 56 17q20 18 20 44zM193 78q2 -41 102 -74q12 4 24 28q13 24 13 52q1 59 -72 55q-37 -2 -54 -19t-13 -42zM252 -416q-108 0 -186 47q-76 47 -70 142q2 57 36 97t83 52q-53 33 -72 69
q-18 35 -16 99t71 113q70 49 166 49t161 -42t67 -108q1 -89 -95 -155q82 -29 108 -76q25 -47 19 -121t-85 -120t-187 -46z" />
    <glyph glyph-name="nineinferior" unicode="&#x2089;" 
d="M174 18q0 -48 24 -78t54 -27t58 32q26 29 26 79t-26 86t-60 33q-76 -4 -76 -125zM264 252q110 0 178 -66t72 -186t-77 -245q-81 -126 -249 -191l-55 94q14 6 36 16t69 50t67 90q-37 -10 -86 -11q-93 -1 -155 63t-60 166t76 160q74 60 184 60z" />
    <glyph glyph-name="plusinferior" unicode="&#x208a;" horiz-adv-x="542" 
d="M201 -150h-162l4 132h158v149l153 2v-151h156l-4 -132h-152v-167l-153 -2v169z" />
    <glyph glyph-name="minusinferior" unicode="&#x208b;" horiz-adv-x="542" 
d="M514 -23l-4 -124h-469l2 124h471z" />
    <glyph glyph-name="equalsinferior" unicode="&#x208c;" horiz-adv-x="548" 
d="M514 -133l-4 -125h-469l2 125h471zM514 53l-4 -125h-469l2 125h471z" />
    <glyph glyph-name="Euro" unicode="&#x20ac;" horiz-adv-x="1355" 
d="M932 1155q-147 0 -258 -92t-148 -268h322v-136h-338v-10q-2 -35 2 -92h336v-137h-309q37 -106 130 -168t195 -64q197 -1 353 33l53 10l24 -182q-236 -67 -454 -67t-395 117q-177 118 -230 321h-207v137h185q-2 49 0 102h-185v136h203q57 268 253 407t470 139
q140 1 369 -38l-33 -187q-143 39 -338 39z" />
    <glyph glyph-name="trademark" unicode="&#x2122;" horiz-adv-x="1404" 
d="M582 1243h-189v-436l-164 -6v442h-182v98h535v-98zM778 1153l-22 -344l-142 -8l41 540l187 7l110 -347l121 340l189 7l36 -543l-149 -4l-19 364l-118 -360l-142 -4z" />
    <glyph glyph-name="partialdiff" unicode="&#x2202;" horiz-adv-x="1159" 
d="M375 299q53 -70 157 -77t162 82q57 89 84 233q-8 49 -42 98t-95 59q-123 23 -209 -53t-98 -174t41 -168zM510 1167q-72 0 -155 -17t-130 -36l-47 -16l-59 168q75 36 213 67q137 31 243 27q530 -25 531 -621q0 -335 -181 -535t-460 -200q-229 0 -338 119t-109 297
q0 229 177 392q150 136 376 120q77 -4 127 -29t99 -84q-20 348 -287 348z" />
    <glyph glyph-name="Delta" unicode="&#x2206;" horiz-adv-x="1353" 
d="M668 1128l-318 -940l647 2zM1348 0h-1342v127l469 1214h410l463 -1214v-127z" />
    <glyph glyph-name="product" unicode="&#x220f;" horiz-adv-x="1394" 
 />
    <glyph glyph-name="summation" unicode="&#x2211;" horiz-adv-x="1150" 
d="M1087 1149h-692l424 -545l-440 -516l766 -2v-213h-1139v197l498 534l-461 522v215l1044 2v-194z" />
    <glyph glyph-name="minus" unicode="&#x2212;" horiz-adv-x="1150" 
d="M1069 766l-8 -193h-957l7 193h958z" />
    <glyph glyph-name="radical" unicode="&#x221a;" horiz-adv-x="1241" 
d="M4 778l385 148l285 -762l387 1575h223l-493 -1903h-224l-338 846l-157 -61z" />
    <glyph glyph-name="infinity" unicode="&#x221e;" horiz-adv-x="1607" 
d="M377 899q213 0 420 -229q121 113 231 172t232 59q158 0 236 -105t74 -258q-2 -153 -108 -248t-224 -95t-222 60t-221 179q-225 -240 -441 -239q-98 -1 -169 35t-103 96q-63 115 -54 244q9 130 98 230t251 99zM420 711q-68 0 -118 -43t-50 -118t42 -119t105 -44
q108 0 258 164q-137 160 -237 160zM1216 709q-66 0 -125 -40q-58 -40 -141 -118q53 -53 85 -82q157 -142 275 -38q50 44 50 117t-39 117t-105 44z" />
    <glyph glyph-name="integral" unicode="&#x222b;" horiz-adv-x="765" 
d="M102 -119q70 0 122 48t52 175q0 128 -17 562t-17 538q0 186 109 303q110 117 276 117q46 0 131 -18l-41 -176q-65 24 -142 -21q-77 -43 -77 -274q0 -139 16 -539t16 -500q2 -182 -101 -296t-273 -113q-84 0 -146 22l31 180q27 -8 61 -8z" />
    <glyph glyph-name="approxequal" unicode="&#x2248;" horiz-adv-x="1140" 
d="M358 602q80 0 233 -66t209 -67q56 0 107 30t72 58l22 29l89 -131q-14 -18 -41 -45t-104 -72t-153 -45q-76 -1 -226 67q-151 68 -207 68t-113 -32t-86 -64l-29 -33l-70 145q14 18 39 44t102 70q76 44 156 44zM346 981q76 0 234 -72q158 -71 214 -71t110 30t79 58l25 30
l69 -147q-14 -16 -38 -40q-23 -23 -97 -63t-150 -40t-230 74q-155 74 -211 73q-56 0 -106 -33t-73 -65l-20 -33l-91 125q14 20 38 49t97 77q74 48 150 48z" />
    <glyph glyph-name="notequal" unicode="&#x2260;" horiz-adv-x="1157" 
d="M1051 772h-357l-92 -229h449l2 -162h-510l-68 -178l-113 47l54 131h-310l-2 162h367l90 229h-457v162h517l65 176l119 -43l-60 -133h306v-162z" />
    <glyph glyph-name="lessequal" unicode="&#x2264;" horiz-adv-x="1157" 
d="M864 1292l94 -135l-516 -358l516 -379l-106 -135l-637 430v157zM1061 172l-6 -172h-955l4 172h957z" />
    <glyph glyph-name="greaterequal" unicode="&#x2265;" horiz-adv-x="1157" 
d="M309 1292l647 -420v-157l-634 -430l-109 135l516 379l-516 358zM1073 172l-6 -172h-952l2 172h956z" />
    <glyph glyph-name="lozenge" unicode="&#x25ca;" horiz-adv-x="1198" 
d="M604 1192l-319 -522l323 -525l326 517zM494 1380h231l428 -716l-430 -715h-227l-445 715z" />
    <glyph glyph-name="zero.onum" unicode="&#xf730;" horiz-adv-x="1136" 
d="M578 705q-88 0 -150 -77t-63 -186q1 -110 59 -184t150 -74t153 76t61 184t-61 185q-61 76 -149 76zM594 883q215 0 361 -131q145 -130 137 -316t-166 -317t-382 -131t-362 129q-137 129 -128 316t167 319t373 131z" />
    <glyph glyph-name="one.onum" unicode="&#xf731;" horiz-adv-x="1011" 
d="M373 0v631l-293 -53l-41 153l643 168v-899h-309z" />
    <glyph glyph-name="two.onum" unicode="&#xf732;" horiz-adv-x="991" 
d="M518 690q-88 0 -191 -37t-167 -73l-103 143q276 165 512 162q375 -10 375 -287q0 -132 -139 -238t-322 -172h465l-22 -188h-844l-43 158q8 4 71 25t170 76t151 83q139 90 167 132q27 42 44 83t-9 76q-27 57 -115 57z" />
    <glyph glyph-name="three.onum" unicode="&#xf733;" horiz-adv-x="968" 
d="M788 -286q-134 -98 -336 -97q-203 0 -362 29l-57 10l30 190q207 -18 306 -18q223 4 245 168q16 108 -46 152t-162 44t-177 1v192q43 0 114 2t139 44t76 120q9 78 -22 117q-32 39 -118 41q-37 3 -258 -29l-70 -12l-31 163q31 7 80 17t218 29t279 -12q252 -68 226 -296
q-10 -93 -98 -169t-234 -93q408 4 400 -309q-8 -186 -142 -284z" />
    <glyph glyph-name="four.onum" unicode="&#xf734;" horiz-adv-x="1126" 
d="M604 582l-272 -394h270zM897 188h199l-11 -188h-188v-350l-297 -17l2 367h-518l-70 174l584 709l299 -13v-682z" />
    <glyph glyph-name="five.onum" unicode="&#xf735;" horiz-adv-x="976" 
d="M926 72q0 -193 -130 -324t-374 -131q-90 0 -190 26t-154 50l-55 26l59 177q156 -68 274 -68t165 33q48 33 70 90t19 112q-2 172 -180 199q-85 12 -168 -16l-31 -8l-129 129l74 503h719v-172h-506l-45 -254q50 18 152 18t195 -36q162 -64 213 -222q22 -65 22 -132z" />
    <glyph glyph-name="six.onum" unicode="&#xf736;" horiz-adv-x="1081" 
d="M338 396q0 -101 54 -160q54 -60 137 -64t144 58q60 62 60 167t-58 162t-137 54t-140 -59q-60 -57 -60 -158zM629 805q186 0 301 -113q116 -113 110 -297t-147 -300q-141 -115 -359 -115t-358 125q-139 126 -131 335q0 254 144 500q73 123 201 228t298 173
q78 -129 90 -157q-276 -131 -381 -432q109 53 232 53z" />
    <glyph glyph-name="seven.onum" unicode="&#xf737;" horiz-adv-x="987" 
d="M92 686l21 184h802l60 -184q-16 -14 -43 -41q-28 -27 -96 -125t-123 -213t-105 -304t-63 -396l-307 -13q8 94 41 235q33 140 78 266q46 126 140 290q93 164 214 299z" />
    <glyph glyph-name="eight.onum" unicode="&#xf738;" horiz-adv-x="1071" 
d="M340 340q0 -82 55 -130t139 -48t136 45q51 45 52 104t-12 80q-13 20 -21 33t-36 33t-56 32q-28 11 -37 17t-43 19t-42 18q-45 -13 -90 -67t-45 -136zM688 974q0 70 -44 107t-116 33t-110 -52t-35 -106q4 -96 201 -178q32 14 68 70t36 126zM516 -12q-216 0 -354 91
q-139 91 -127 273q6 109 89 186t177 109q-113 80 -163 149t-48 165q4 133 131 228t309 99t310 -78t131 -213q2 -57 -26 -109q-27 -52 -55 -79t-79 -66t-61 -47q143 -64 218 -164t64 -210q-12 -156 -156 -245t-360 -89z" />
    <glyph glyph-name="nine.onum" unicode="&#xf739;" horiz-adv-x="1067" 
d="M735 480q0 98 -54 156t-137 62q-84 4 -144 -56t-60 -162t58 -159q58 -55 136 -53t140 58t61 154zM420 76q-172 0 -282 114t-106 292q4 177 147 291q141 114 359 114t356 -121t134 -320q0 -307 -197 -525t-565 -310q-59 135 -69 164q176 55 299 144t184 249
q-84 -66 -148 -79t-112 -13z" />
    <glyph glyph-name="A.smcp" unicode="&#xf761;" horiz-adv-x="974" 
d="M678 877l287 -877l-273 -8l-61 180h-269l-67 -180l-285 8l334 866zM414 356h182l-88 310z" />
    <glyph glyph-name="B.smcp" unicode="&#xf762;" horiz-adv-x="923" 
d="M438 150q152 0 152 96q0 68 -39 92t-117 24l-59 -4v-202q41 -6 63 -6zM436 541q34 0 54 3q22 2 48 24t25 65q0 102 -137 96l-51 -6v-178q27 -4 61 -4zM459 881q379 0 385 -211q0 -92 -71 -142t-177 -57q135 -2 212 -63t69 -187q-11 -123 -133 -182t-292 -59t-300 32
l-50 11l2 825q203 33 355 33z" />
    <glyph glyph-name="C.smcp" unicode="&#xf763;" horiz-adv-x="825" 
d="M770 848l-18 -170l-203 16q-104 2 -150 -65q-45 -68 -47 -211q-6 -227 154 -232q100 0 199 15l47 4l22 -154q-136 -45 -202 -59t-126 -15q-182 -1 -294 139t-99 340t141 309q128 108 326 112q74 0 211 -21z" />
    <glyph glyph-name="D.smcp" unicode="&#xf764;" horiz-adv-x="950" 
d="M371 709v-543l65 -2q80 6 137 74t57 196t-58 204q-60 75 -160 75zM395 -20q-182 0 -291 36l-4 818q145 40 303 40t246 -34q87 -34 135 -75q48 -42 83 -117q34 -75 34 -171q0 -217 -127 -357t-379 -140z" />
    <glyph glyph-name="E.smcp" unicode="&#xf765;" horiz-adv-x="792" 
d="M743 162v-162h-641v866h633v-145h-366v-195h336v-145h-336v-219h374z" />
    <glyph glyph-name="F.smcp" unicode="&#xf766;" horiz-adv-x="765" 
d="M727 723h-356v-223h321v-135h-321v-365l-269 -8v874h625v-143z" />
    <glyph glyph-name="G.smcp" unicode="&#xf767;" horiz-adv-x="935" 
d="M614 696q-137 0 -214 -56t-87 -210q-18 -258 222 -258q45 0 65 10v289l254 -18v-373q-70 -37 -180 -63t-197 -25q-201 0 -319 126t-107 328q19 217 163 326t345 105q108 0 227 -21l37 -8l-22 -168q-133 16 -187 16z" />
    <glyph glyph-name="H.smcp" unicode="&#xf768;" horiz-adv-x="985" 
d="M616 373h-249v-375l-267 -8v872l267 12v-335h249v323l267 8v-872l-267 -8v383z" />
    <glyph glyph-name="I.smcp" unicode="&#xf769;" horiz-adv-x="471" 
d="M369 0l-267 -8v872l267 8v-872z" />
    <glyph glyph-name="J.smcp" unicode="&#xf76a;" horiz-adv-x="473" 
d="M102 141v721l267 12l2 -655q0 -94 -29 -177t-71 -133q-90 -107 -152 -138l-31 -17l-115 123q14 12 36 34t58 91q35 69 35 139z" />
    <glyph glyph-name="K.smcp" unicode="&#xf76b;" horiz-adv-x="923" 
d="M909 43l-278 -66l-262 447v-426l-267 -8v872l267 12v-372l315 405l219 -127l-293 -329z" />
    <glyph glyph-name="L.smcp" unicode="&#xf76c;" horiz-adv-x="751" 
d="M369 160h364v-160h-631v862l267 12v-714z" />
    <glyph glyph-name="M.smcp" unicode="&#xf76d;" horiz-adv-x="1286" 
d="M328 618l18 -618l-270 -8l55 872l363 13l145 -533h16l146 522l360 11l45 -877l-256 -8l19 624h-17l-192 -616l-246 -8l-170 626h-16z" />
    <glyph glyph-name="N.smcp" unicode="&#xf76e;" horiz-adv-x="1017" 
d="M338 537l33 -537l-269 -8v870l304 15l268 -515h18l-43 504l269 11l-3 -877l-301 -8l-258 545h-18z" />
    <glyph glyph-name="O.smcp" unicode="&#xf76f;" horiz-adv-x="1024" 
d="M975 451q0 -199 -138 -336q-137 -137 -321 -137t-316 99q-67 50 -108 141t-41 212q-1 195 145 327t321 132t308 -93q68 -48 109 -137t41 -208zM332 438q0 -268 182 -268q82 0 135 61t51 205q-4 283 -184 275q-80 -3 -132 -59t-52 -214z" />
    <glyph glyph-name="P.smcp" unicode="&#xf770;" horiz-adv-x="854" 
d="M469 877q164 0 259 -77t101 -192q3 -145 -107 -243t-304 -99q-31 0 -49 2v-268l-267 -8v858q260 27 367 27zM371 418h32q146 6 154 149q6 78 -31 118t-82 40l-73 -2v-305z" />
    <glyph glyph-name="Q.smcp" unicode="&#xf771;" horiz-adv-x="1024" 
d="M971 451q0 -217 -162 -359l72 -143l-150 -88l-119 131q-57 -14 -116 -15q-193 0 -321 127q-128 128 -128 318t141 328t321 139q180 0 312 -93q68 -48 109 -137t41 -208zM328 438q0 -268 182 -268q82 0 135 61t51 205q-4 283 -184 275q-80 -3 -132 -59t-52 -214z" />
    <glyph glyph-name="R.smcp" unicode="&#xf772;" horiz-adv-x="942" 
d="M430 471q150 0 162 129q6 61 -34 92t-89 31l-100 -6v-244q10 -2 61 -2zM494 879q178 0 272 -67q94 -66 97 -190t-69 -196t-167 -78l276 -262l-231 -137q-276 346 -303 375v-324l-267 -8v858q214 29 392 29z" />
    <glyph glyph-name="S.smcp" unicode="&#xf773;" horiz-adv-x="794" 
d="M342 170q72 0 108 18q34 18 28 54t-51 58q-47 22 -109 41t-122 49t-100 89q-39 59 -33 146q9 117 105 179q144 93 373 69q76 -7 118 -17l43 -10l-14 -152q-22 5 -124 14q-103 9 -148 -1q-115 -16 -84 -84q17 -40 136 -70t207 -99q96 -78 66 -253q-16 -94 -113 -160
q-143 -97 -409 -40q-88 19 -133 38l-47 18l47 162q184 -49 256 -49z" />
    <glyph glyph-name="T.smcp" unicode="&#xf774;" horiz-adv-x="741" 
d="M16 862h707v-141h-211v-721l-266 -16v737h-230v141z" />
    <glyph glyph-name="U.smcp" unicode="&#xf775;" horiz-adv-x="958" 
d="M866 393q0 -187 -84 -293t-298 -116t-303 80t-89 270v528l266 15v-598q0 -59 14 -83q25 -42 113 -42q115 0 115 157v551l266 15v-484z" />
    <glyph glyph-name="V.smcp" unicode="&#xf776;" horiz-adv-x="923" 
d="M23 862l280 15l158 -658h14l209 653l225 -10l-307 -862l-293 -8z" />
    <glyph glyph-name="W.smcp" unicode="&#xf777;" horiz-adv-x="1445" 
d="M711 586l-115 -586l-367 -8l-204 866l270 19l127 -646h12l139 633l310 13l137 -646h14l144 646l239 -11l-231 -866l-369 -8l-90 594h-16z" />
    <glyph glyph-name="X.smcp" unicode="&#xf778;" horiz-adv-x="952" 
d="M936 858l-309 -405l295 -447l-314 -18l-125 284h-18l-178 -280l-258 8l311 430l-285 428l307 19l125 -283h19l182 283z" />
    <glyph glyph-name="Y.smcp" unicode="&#xf779;" horiz-adv-x="864" 
d="M283 326l-265 532l287 19l135 -359h17l180 361l209 -21l-299 -541v-317l-264 -8v334z" />
    <glyph glyph-name="Z.smcp" unicode="&#xf77a;" horiz-adv-x="876" 
d="M100 866h672l47 -161l-457 -545h414v-160h-674l-61 176l459 543h-400v147z" />
    </font>
</defs>
</svg>
