<?xml version="1.0" standalone="no"?>
<!DOCTYPE svg PUBLIC "-//W3C//DTD SVG 1.1//EN" "http://www.w3.org/Graphics/SVG/1.1/DTD/svg11.dtd" >
<svg xmlns="http://www.w3.org/2000/svg">
<metadata></metadata>
<defs>
<font id="arumsansblack" horiz-adv-x="1259" >
<font-face units-per-em="2048" ascent="1536" descent="-512" />
<missing-glyph horiz-adv-x="471" />
<glyph unicode="&#xfb01;" horiz-adv-x="1284" d="M10 700v160h211v129q0 99 67.5 178t175 118.5t228.5 33.5q83 -4 187.5 -21.5t167.5 -33.5l63 -15l-27 -178q-254 45 -397 45q-111 0 -111 -141v-117h627v-858l-356 -16v686h-271l3 -670l-357 -12v682h-2z" />
<glyph unicode="&#xfb02;" horiz-adv-x="1282" d="M8 700v160h209v129q0 99 67.5 178t175 118.5t228.5 33.5q83 -4 210.5 -27.5t213.5 -45.5l86 -21v-1225l-356 -16v1099q-113 25 -158 25q-57 0 -85 -30.5t-28 -102.5v-117h185v-188h-185l2 -670l-356 -16v686z" />
<glyph unicode="&#xfb03;" horiz-adv-x="1918" d="M8 700v160h211v129q0 99 67 179.5t175.5 120t228.5 28.5q122 -10 285 -88q66 49 154 72.5t182 15.5q51 -4 168 -31.5t208 -53.5l91 -26l-41 -159l-402 75q-44 8 -73 -2t-43 -38.5t-19.5 -63t-5.5 -86.5v-74l641 -2v-856l-356 -14v684h-283l2 -670l-356 -16v686h-269 l2 -670l-356 -16v686h-2zM573 858l269 -2v133q0 44 16 94q-93 39 -145 39q-86 0 -113 -43.5t-27 -146.5v-74z" />
<glyph unicode="&#xfb04;" horiz-adv-x="1925" d="M10 700v160h209v129q0 99 67.5 179.5t176 120t227.5 28.5q57 -4 140.5 -29.5t150.5 -58.5q66 49 154.5 72.5t183.5 15.5q50 -4 180.5 -21.5t236.5 -33.5l105 -15l2 -1247l-358 -14v1112q-61 24 -137 24q-50 0 -80 -11.5t-44 -38.5t-18 -57t-4 -83v-74l184 -2v-186h-184 l2 -670l-356 -16v686h-273l3 -670l-359 -16v686zM573 858l275 2v129q0 44 16 94q-59 41 -147 41t-116 -44t-28 -148v-74z" />
<glyph horiz-adv-x="2048" />
<glyph horiz-adv-x="2048" />
<glyph unicode="&#xd;" horiz-adv-x="2048" />
<glyph unicode=" "  horiz-adv-x="471" />
<glyph unicode="&#x09;" horiz-adv-x="471" />
<glyph unicode="&#xa0;" horiz-adv-x="471" />
<glyph unicode="!" horiz-adv-x="671" d="M154 1333l378 15l-55 -922l-235 -6zM162 133q0 68 57 115t139 47q80 0 137.5 -47.5t57.5 -114.5q0 -66 -58 -114t-137 -48q-81 0 -138.5 48t-57.5 114z" />
<glyph unicode="&#x22;" horiz-adv-x="962" d="M98 1425l320 27q-5 -26 -13 -76.5t-21 -222.5t-13 -362l-199 -33q-10 188 -28.5 354.5t-31.5 239.5zM524 1425l320 27q-5 -26 -13 -76.5t-21 -222.5t-13 -362l-199 -33q-10 188 -28.5 354.5t-31.5 239.5z" />
<glyph unicode="#" horiz-adv-x="1265" d="M55 352v195h207l35 198h-191v195h226l57 320h287l-60 -320h152l57 320h287l-59 -320h151v-195h-188l-37 -198h164v-195h-199l-65 -352h-279l64 352h-156l-66 -352h-278l63 352h-172zM543 547h155l35 198h-153z" />
<glyph unicode="$" horiz-adv-x="1214" d="M106 186l78 179q128 -59 269 -86v315q-52 19 -91.5 36.5t-85 47t-74 63.5t-46.5 84t-15 109q3 66 32.5 120.5t73.5 90t103.5 61t119.5 38t124 16.5v190l205 6v-199q150 -14 272 -57l-63 -194q-103 33 -209 47v-279q51 -20 89.5 -38.5t84.5 -50t75 -66t48.5 -85 t17.5 -108.5q-5 -181 -124.5 -285t-330.5 -104h-4v-176l-202 -6v206q-84 18 -171 49.5t-132 53.5zM477 934q6 -32 52.5 -66.5t103.5 -46.5l4 236q-80 -1 -124 -38t-36 -85zM623 266q95 8 123.5 49.5t19.5 108.5q-3 33 -45 67.5t-94 55.5z" />
<glyph unicode="%" horiz-adv-x="1976" d="M78 979q3 69 27.5 128.5t63 101.5t87.5 73.5t99.5 47.5t101.5 20h20h19q253 0 378 2l547 16l92 -129l-878 -1329l-229 108l788 1203q-193 -7 -377 -9q70 -89 70 -223q0 -175 -118.5 -285t-295.5 -110t-289 105t-106 280zM346 977q0 -121 36 -185.5t95 -64.5 q60 0 98.5 66.5t38.5 191.5q0 113 -37.5 174.5t-99.5 61.5q-49 0 -90 -60.5t-41 -183.5zM1069 362q2 73 28.5 135.5t67.5 105t92.5 73.5t105 45t103.5 14q190 0 300 -92t110 -268q0 -177 -118 -286t-296 -109q-177 0 -288 104t-105 278zM1335 362q0 -121 36 -185t95 -64 q60 0 99 66.5t39 191.5q0 113 -37 173t-99 60q-49 0 -91 -59.5t-42 -182.5z" />
<glyph unicode="&#x26;" horiz-adv-x="1755" d="M49 379q19 129 113.5 214t230.5 132q-59 40 -97.5 80.5t-56.5 80.5t-24 72t-6 70q0 93 63.5 165t170.5 112.5t243 48.5q224 12 348.5 -84t100.5 -252q-7 -43 -25 -80.5t-37.5 -62.5t-57 -53t-61.5 -42.5t-73 -42.5q39 -31 303 -250q39 48 69 103.5t44 101t22.5 84.5 t10.5 60l1 22h305q-26 -145 -85 -265.5t-197 -268.5q50 -48 121 -97.5t117 -74.5l46 -25l-286 -205q-166 127 -246 211q-249 -143 -500 -143q-127 0 -228 23.5t-165 62.5t-104.5 90t-54 104.5t-5.5 108.5zM422 422q0 -193 299 -193q124 0 233 56q-131 117 -228 197.5 t-128 101.5l-31 22q-6 -2 -15.5 -5.5t-34.5 -18.5t-44.5 -34t-35 -53t-15.5 -73zM551 1016q1 -44 40.5 -84t96.5 -70q41 18 79.5 55.5t43.5 92.5q4 60 -35 94t-96 29q-60 -3 -95 -34t-34 -83z" />
<glyph unicode="'" horiz-adv-x="552" d="M113 1425l319 27q-5 -26 -13 -76.5t-21 -222.5t-13 -362l-199 -33q-10 188 -28.5 354.5t-31.5 239.5z" />
<glyph unicode="(" horiz-adv-x="903" d="M182 608q0 99 18 191.5t48.5 165t69.5 138t83 114.5t87.5 90.5t82.5 69t69.5 47t48.5 28.5l18 8l116 -114q-6 -5 -16 -14t-39 -42.5t-55.5 -72.5t-59 -103.5t-55.5 -135t-39 -168.5t-16 -202q0 -105 15.5 -204t40 -174t54.5 -141t60 -111.5t54.5 -78t40.5 -47.5l15 -16 l-133 -115q-11 6 -29 17t-71 51t-101 87t-106.5 124.5t-100.5 162.5t-71 202t-29 243z" />
<glyph unicode=")" horiz-adv-x="903" d="M78 -164q11 11 30 31t67 92.5t84.5 155t66.5 216t30 277.5q0 104 -15.5 201.5t-40 169t-54 134.5t-59 104.5t-54 71.5t-39.5 43l-16 14l115 114q11 -5 30 -15t73.5 -46.5t104.5 -80t110.5 -117t104 -155.5t73.5 -197t30 -241q0 -99 -17.5 -192.5t-47 -168t-67.5 -143 t-80.5 -120t-85 -96t-80.5 -74.5t-67.5 -51.5t-47.5 -31.5l-17 -10z" />
<glyph unicode="*" horiz-adv-x="894" d="M53 1155l109 188l207 -153l-39 256h219l-31 -252l203 156l108 -189l-237 -96l239 -100l-108 -189l-203 158l35 -258h-219l35 260l-205 -166l-109 188l238 105z" />
<glyph unicode="+" horiz-adv-x="1230" d="M121 371l6 227h379v379l227 14v-393h385l-8 -227h-377v-371l-227 -12v383h-385z" />
<glyph unicode="," horiz-adv-x="647" d="M51 -283q107 92 166 199q22 37 -14 57q-86 54 -86 152q0 81 59 140t160 59q110 0 162.5 -62t52.5 -160q0 -94 -41 -178q-25 -55 -70.5 -109t-92.5 -91t-91 -66.5t-72 -43.5l-28 -15z" />
<glyph unicode="-" horiz-adv-x="843" d="M74 395v213h692v-213h-692z" />
<glyph unicode="." horiz-adv-x="655" d="M127 158q0 79 60.5 134.5t146.5 55.5q85 0 145 -55.5t60 -134.5q0 -78 -60 -134.5t-145 -56.5q-86 0 -146.5 56.5t-60.5 134.5z" />
<glyph unicode="/" horiz-adv-x="937" d="M4 -84l682 1536l250 -70l-707 -1548z" />
<glyph unicode="0" d="M68 666q0 190 70 347t199.5 250t291.5 93q273 0 417 -170.5t144 -519.5q0 -115 -22.5 -218t-69 -189.5t-112.5 -149.5t-157.5 -98.5t-199.5 -35.5q-125 0 -222.5 36t-160.5 97.5t-103.5 150.5t-57.5 188.5t-17 218.5zM442 662q0 -441 187 -441q88 0 138 123.5t50 317.5 q0 229 -49 341.5t-139 112.5q-53 0 -96.5 -61t-67 -165t-23.5 -228z" />
<glyph unicode="1" d="M113 1139l772 213v-1352l-379 -16v1020l-330 -84z" />
<glyph unicode="2" d="M100 156q14 9 37.5 25t91.5 66t130 101t139 124t133 141t96.5 145.5t44.5 144.5q10 187 -180 195q-50 2 -108.5 -6.5t-106.5 -22.5t-89 -28t-64 -25l-23 -10l-62 229q11 5 30.5 13t82 28t125.5 35.5t153.5 28t174.5 12.5q54 0 104.5 -7t105 -23.5t99 -47.5t79.5 -74.5 t52 -109t12 -146.5q-4 -66 -26.5 -133t-57 -123.5t-78 -110.5t-90.5 -98t-94 -83t-88.5 -67.5t-74 -49t-51.5 -31.5l-19 -10h571l-27 -238h-975z" />
<glyph unicode="3" d="M106 74l60 217q256 -62 385 -62q102 0 156.5 32t66.5 108q18 118 -51.5 170.5t-233.5 52.5l-129 -4l-2 215q27 -2 125 12q42 6 64 10t60.5 13t60 20t45 28t34 41t9.5 54q-1 36 -16 60.5t-43 37t-60.5 17t-77.5 4.5q-64 0 -154.5 -16.5t-148.5 -33.5l-59 -16l-68 215 q82 37 215.5 68.5t249.5 32.5q70 1 137 -7.5t135 -32t119 -59t82.5 -93t30.5 -130.5q0 -118 -68 -204t-201 -113q332 -22 322 -342q-12 -394 -557 -394q-204 0 -488 99z" />
<glyph unicode="4" d="M10 514l656 832l331 -15v-758h252l-10 -229h-242v-344h-348v344h-579zM358 573h295l4 394z" />
<glyph unicode="5" d="M111 90l65 213q19 -8 52 -19.5t121 -31t159 -19.5q107 0 170 39q46 29 70 84t22 107q-1 88 -56 135.5t-151 56.5q-56 5 -112.5 -5t-85.5 -23l-29 -13l-137 134l77 585h816v-225h-521l-32 -225q20 2 79 2q120 0 215 -28.5t152.5 -73t95 -103.5t52 -115t14.5 -112 q0 -97 -36 -181.5t-106.5 -150t-184.5 -103.5t-259 -38q-103 0 -215.5 27.5t-173.5 54.5z" />
<glyph unicode="6" d="M88 500q1 104 25 202t78 197.5t135 185.5t203 164t276 135q116 -143 145 -176q-339 -160 -436 -432q83 41 176 51q46 4 66 4q188 0 304 -116t111 -299q-6 -198 -150.5 -317t-377.5 -119q-118 0 -216 31t-173.5 93t-119 163t-46.5 233zM467 424q0 -88 45.5 -140t118.5 -57 q66 -5 117 50.5t51 154.5q0 85 -49 135.5t-127 46.5q-54 -2 -105 -51.5t-51 -138.5z" />
<glyph unicode="7" d="M129 1108l21 225h974l68 -182q-8 -9 -21.5 -25t-54.5 -73.5t-79.5 -121.5t-88.5 -167t-90.5 -212t-77 -255t-55.5 -297l-385 -12q2 13 6.5 36.5t22.5 98.5t41.5 151t66 185.5t93.5 211t127 219t163 218.5h-731z" />
<glyph unicode="8" d="M82 371q7 116 84 197t178 110q-122 72 -163 144t-36 184q3 141 141.5 240t338.5 104t338.5 -81.5t144.5 -224.5q1 -25 -2.5 -49t-8.5 -43t-16.5 -39.5t-20 -35t-25.5 -32.5t-26 -27.5t-29.5 -26t-28.5 -22.5t-28.5 -21.5t-25.5 -18.5q301 -113 279 -393 q-8 -107 -86 -187.5t-200 -120.5t-269 -40q-117 0 -214.5 22.5t-173.5 67.5t-116 120t-35 173zM463 395q0 -81 50 -126.5t136 -45.5q67 0 114 42.5t48 109.5q1 41 -17.5 73.5t-53 56t-72 41.5t-85.5 37q-9 3 -14 5q-35 -11 -70.5 -66t-35.5 -127zM496 979q1 -24 14.5 -46.5 t31.5 -38.5t46.5 -33.5t49 -28t50.5 -23.5q24 13 52 66.5t28 125.5q0 58 -40 92t-99 29q-68 -4 -102 -46t-31 -97z" />
<glyph unicode="9" d="M88 920q6 195 166 315.5t397 120.5q152 0 273.5 -69t187 -188t59.5 -263q-1 -104 -25 -202.5t-78 -198.5t-134.5 -186t-202.5 -164t-276 -134q-117 141 -146 176q340 162 436 430q-77 -38 -176 -49q-50 -4 -69 -4q-187 0 -302 116.5t-110 299.5zM461 901q0 -83 49 -133.5 t127 -46.5q54 2 105 51.5t51 138.5q0 88 -45.5 140t-118.5 57q-67 3 -117.5 -52t-50.5 -155z" />
<glyph unicode=":" horiz-adv-x="659" d="M123 760q0 79 60.5 134.5t146.5 55.5q85 0 145 -55.5t60 -134.5q0 -78 -60 -134.5t-145 -56.5q-86 0 -146.5 56.5t-60.5 134.5zM125 158q0 79 60.5 134.5t146.5 55.5t146.5 -55.5t60.5 -134.5q0 -78 -60.5 -134.5t-146.5 -56.5t-146.5 56.5t-60.5 134.5z" />
<glyph unicode=";" horiz-adv-x="655" d="M57 -283q99 83 168 199q19 37 -14 57q-88 55 -88 152q0 81 59.5 140t161.5 59q109 0 162 -62.5t53 -159.5q0 -88 -41 -178q-25 -55 -70.5 -109t-92.5 -91t-91 -66.5t-72 -43.5l-28 -15zM129 760q0 79 60.5 134.5t146.5 55.5t146.5 -55.5t60.5 -134.5q0 -78 -60.5 -134.5 t-146.5 -56.5t-146.5 56.5t-60.5 134.5z" />
<glyph unicode="&#x3c;" horiz-adv-x="1228" d="M203 403v158l739 420l94 -176l-518 -318l518 -335l-106 -179z" />
<glyph unicode="=" horiz-adv-x="1220" d="M115 326l6 227h985l-8 -227h-983zM123 715l6 227h983l-8 -227h-981z" />
<glyph unicode="&#x3e;" horiz-adv-x="1228" d="M246 143l520 336l-520 318l96 176l739 -420v-158l-727 -430z" />
<glyph unicode="?" horiz-adv-x="1048" d="M59 1286q99 39 232 62.5t276 17.5q78 -3 151.5 -26.5t134.5 -65t98.5 -108t37.5 -146.5q0 -76 -43.5 -145.5t-105.5 -117t-124 -84t-105.5 -60.5t-43.5 -33l8 -119l-260 -51l-6 12t-15 31t-20.5 44.5t-19 49.5t-14 50t-3.5 41t11 28q19 17 84 54t123.5 71.5t106.5 86.5 t48 103q0 128 -209 139q-20 1 -43 0t-44 -4t-43.5 -7t-40.5 -8.5t-36.5 -9.5t-30 -8t-21.5 -6.5t-11 -3.5zM233 158q0 79 60.5 134.5t146.5 55.5t146.5 -55.5t60.5 -134.5q0 -78 -60.5 -134.5t-146.5 -56.5t-146.5 56.5t-60.5 134.5z" />
<glyph unicode="@" horiz-adv-x="1599" d="M74 455q7 135 76.5 246t182.5 182.5t257.5 110t306.5 38.5q75 0 148.5 -10.5t145.5 -31.5t132 -56.5t105.5 -82.5t69.5 -112.5t20 -142.5q-10 -194 -158 -296.5t-399 -102.5q-51 0 -78 2q-24 1 -53 31.5t-23 45.5l12 74q-5 -7 -14 -19t-39 -41t-61.5 -49.5t-78 -33 t-91.5 -2.5q-57 13 -85 59t-28 113q0 118 67 227q100 158 265 152q39 -2 70 -7.5t47 -12.5t26.5 -13.5t12.5 -10.5l3 -5l70 69l199 -20q-75 -254 -117 -396q-10 -25 -7.5 -41t23.5 -16q64 0 112 57t73 158q12 44 12 96q0 43 -10 80.5t-38.5 76.5t-73.5 67t-120 45.5 t-172 17.5q-86 0 -161 -17.5t-129 -49t-97 -69.5t-71.5 -83t-46.5 -86.5t-27 -83.5q-13 -57 -13 -100q0 -155 110.5 -253t313.5 -98q76 0 154.5 19.5t118.5 39.5l41 19l88 -112q-7 -4 -20 -11t-56.5 -24.5t-90 -30.5t-117.5 -24t-142 -11q-52 0 -107.5 6.5t-122 23t-126 42 t-116 67.5t-96 95t-61 129t-16.5 166zM655 436q0 -42 31 -53q31 -10 90 34t68 62l45 111q0 1 -1.5 3.5t-6.5 8t-12 10t-20 8t-30 3.5q-47 0 -85 -37t-58 -76q-21 -34 -21 -74z" />
<glyph unicode="A" horiz-adv-x="1384" d="M12 -12l486 1345l460 17l408 -1348l-403 -22l-86 342h-351l-104 -322zM598 559h225l-102 455z" />
<glyph unicode="B" horiz-adv-x="1261" d="M100 1309q283 41 527 41q526 0 526 -320q0 -273 -274 -297q346 -23 346 -327q0 -21 -2 -44q-6 -78 -48 -142.5t-106 -107.5t-147 -72.5t-168 -42.5t-172 -13q-97 0 -217 12.5t-191 25.5l-72 13zM481 254q88 -23 168 -23q33 0 66 9t64.5 28t53 55t25.5 83q1 12 1 23 q0 75 -52 114q-60 45 -162 45q-44 0 -85 -5t-60 -9l-19 -5v-315zM481 1108l2 -301q30 -1 66 -3h9q32 0 67 9q40 10 73.5 26t57 51t28.5 83q1 9 1 18q0 122 -144 129q-16 1 -33 1q-24 0 -48 -2q-40 -3 -60 -7z" />
<glyph unicode="C" horiz-adv-x="1224" d="M51 666q7 172 73.5 308t176 220t249.5 124q115 33 241 34q28 0 57 -2q84 -4 166 -22t122 -34l40 -16l-48 -231q-186 49 -301 49q-170 0 -279.5 -116t-115.5 -331q0 -12 -1 -23q1 -168 83 -258q88 -96 250 -98h18q60 0 142 16q96 19 158 40l63 20l51 -242 q-122 -50 -267.5 -85t-269.5 -35q-290 0 -455 188q-154 176 -154 453q0 20 1 41z" />
<glyph unicode="D" horiz-adv-x="1359" d="M102 1315q25 4 68 10t167 15q93 7 179 7q29 0 57 -1q62 -1 125 -9t137.5 -28.5t140.5 -50.5t129 -80.5t108 -114t72.5 -155t27.5 -199.5q0 -217 -109 -382.5t-294.5 -252t-417.5 -86.5q-213 0 -386 43zM485 270q6 -2 16.5 -4.5t42.5 -6.5q26 -3 50 -3h12q20 1 37 2.5 t49.5 10.5t58 23.5t56 44.5t50.5 69.5t34 102.5t14 140q0 231 -95.5 342t-250.5 111q-27 0 -74 -8v-824z" />
<glyph unicode="E" horiz-adv-x="1056" d="M102 0v1333h891v-225h-510v-293h461v-219h-461v-358h529v-238h-910z" />
<glyph unicode="F" horiz-adv-x="1067" d="M102 -12v1343l932 2v-225h-549v-330h494v-225h-494v-553z" />
<glyph unicode="G" horiz-adv-x="1357" d="M49 688q11 130 56.5 239t116 186.5t162 132t195.5 80.5t216 26q44 0 67 -2q86 -7 173 -23.5t131 -29.5l44 -13l-41 -244q-26 8 -68 19t-145 27q-70 10 -124 10q-25 0 -46 -2q-64 -6 -123 -34.5t-112 -79.5t-86 -136t-35 -193v-12q0 -171 80 -261q83 -92 213 -99 q15 -1 32 -1q24 0 52 2q46 3 73 7l27 4v407l361 -16v-535q-246 -108 -381 -137q-107 -22 -201 -22q-201 0 -352.5 89.5t-225.5 248.5q-62 132 -62 292q0 34 3 70z" />
<glyph unicode="H" horiz-adv-x="1359" d="M102 -16v1349l381 17v-529h394v512l380 17v-1350l-380 -16v606h-394v-590z" />
<glyph unicode="I" horiz-adv-x="602" d="M111 -16v1349l381 17l2 -1350z" />
<glyph unicode="J" horiz-adv-x="589" d="M-100 -195q52 50 77.5 78t55 69.5t42 82t21 98.5t8.5 135v1065l381 17v-1088q0 -112 -28.5 -207t-85.5 -173.5t-126 -141t-165 -127.5z" />
<glyph unicode="K" horiz-adv-x="1335" d="M102 -12v1345l381 17v-676l439 721l362 -178l-424 -553l475 -543l-354 -232l-498 748v-637z" />
<glyph unicode="L" horiz-adv-x="1026" d="M100 0l2 1333l379 17v-1112h512v-238h-893z" />
<glyph unicode="M" horiz-adv-x="1855" d="M35 -12l137 1343l520 19l230 -926h22l242 909l508 17l116 -1350l-409 -12l-33 1026h-16l-260 -1014l-396 -12l-213 1016h-20l-41 -1004z" />
<glyph unicode="N" horiz-adv-x="1378" d="M100 -16l4 1349l443 17l366 -901h11l-39 884l391 17l-2 -1350l-475 -16l-342 845h-11l35 -829z" />
<glyph unicode="O" horiz-adv-x="1497" d="M49 664q4 169 63 304.5t158 221t226 131t272 45.5q103 0 197 -20.5t183.5 -70t155 -124.5t105 -191.5t39.5 -263.5q0 -120 -30 -225t-83 -183t-123 -139.5t-151.5 -99.5t-167 -58t-170.5 -20q-103 0 -198 22t-184.5 74.5t-154.5 130.5q-64 77 -102 197q-35 111 -35 247 v22zM449 688q0 -120 23.5 -208t66.5 -138.5t97 -74t122 -23.5q124 0 209 116q82 112 82 308v14q-1 201 -80 314.5t-207 113.5q-39 0 -78.5 -11.5t-82.5 -42t-76 -76t-54.5 -121.5t-21.5 -171z" />
<glyph unicode="P" horiz-adv-x="1193" d="M102 -12v1327q304 37 535 37q64 0 105.5 -1.5t104 -11t103.5 -26t88.5 -49.5t75 -79t46 -117t18.5 -161q0 -117 -34 -208t-87.5 -145t-126 -88.5t-141 -47t-142.5 -12.5q-59 0 -155 14v-420zM492 666q7 -1 19 -2q11 -2 47 -4q12 -1 23 -1q21 0 37 3q22 3 39.5 6.5 t47 18.5t49.5 37.5t36 65.5t17 101v12q0 113 -54 158q-57 47 -175 47q-32 0 -86 -4v-438z" />
<glyph unicode="Q" horiz-adv-x="1499" d="M51 664q0 166 60 301.5t160.5 221.5t228.5 132.5t268 46.5q82 0 160 -15t156.5 -46t143 -84.5t115 -125.5t79 -174t28.5 -225q0 -211 -74 -346.5t-200 -222.5l86 -254l-232 -111l-178 222q-70 -13 -129 -13q-100 0 -193 22t-181 74.5t-153.5 130t-105 197.5t-39.5 269z M455 690q-1 -21 -1 -40q0 -76 12 -140q16 -79 43.5 -127.5t66.5 -81t78 -46t81 -15.5h10q53 0 101 20q53 23 96.5 71t70.5 132t31 194q1 18 1 36q0 186 -67 297q-73 122 -200 128h-12q-31 0 -64 -8q-38 -10 -81.5 -40t-77.5 -76.5t-58.5 -125t-29.5 -178.5z" />
<glyph unicode="R" horiz-adv-x="1298" d="M102 -12v1331l500 31q16 0 45 1t45 1q61 0 108.5 -3.5t102.5 -14t95.5 -28.5t80 -50t64.5 -76t40 -108t15 -144q0 -166 -108.5 -281.5t-253.5 -128.5l483 -416l-342 -213l-485 580v-100l-3 -369zM492 686q17 -1 33 -1q38 0 72 5q49 7 99 27.5t79.5 66.5t29.5 115 q0 119 -55 167t-166 48q-42 0 -92 -6v-422z" />
<glyph unicode="S" horiz-adv-x="1159" d="M23 111l73 247q29 -11 76.5 -26.5t164.5 -42.5t198 -29h4q73 0 119 40q48 42 53 101v5q0 36 -26 66q-28 32 -75.5 55.5t-107.5 49.5t-122.5 50.5t-120.5 61.5t-101 80q-42 43 -64 109q-15 45 -15 95q0 24 3 49q21 159 140.5 246t314.5 96q20 2 59 2q140 0 225.5 -13 t239.5 -57l-62 -237q-160 36 -238.5 48.5t-142.5 12.5q-82 -2 -120 -40q-33 -33 -34 -84q0 -8 1 -17q4 -36 42 -64t95.5 -48t126 -42.5t135.5 -56.5t122 -80t88 -123q30 -71 30 -160v-16q0 -131 -74 -231t-202 -150q-109 -42 -239 -42q-23 0 -48 1q-107 6 -236.5 42 t-205.5 69z" />
<glyph unicode="T" horiz-adv-x="1169" d="M20 1108v225h1129v-225h-375v-1108l-381 -18v1126h-373z" />
<glyph unicode="U" horiz-adv-x="1357" d="M92 522v813l379 15v-775q0 -185 62 -263q53 -67 144 -66q16 0 34 2q47 6 79.5 23.5t51.5 42t29 67.5t13 86t3 111l-2 757l383 15v-656q0 -324 -142.5 -508.5t-423.5 -201.5q-29 -2 -57 -2q-243 0 -389 132q-164 147 -164 408z" />
<glyph unicode="V" horiz-adv-x="1323" d="M16 1321l406 29l231 -1031l23 3l256 1028l377 -17l-451 -1333l-412 -12z" />
<glyph unicode="W" horiz-adv-x="2056" d="M29 1321l409 29l197 -1022h27l186 997l432 25l168 -1035h22l201 1035l354 -17l-329 -1333l-494 -12l-188 944l-195 -932l-436 -12z" />
<glyph unicode="X" horiz-adv-x="1370" d="M18 63l457 625l-412 598l406 72l227 -410h29l236 408l364 -62l-428 -575l434 -653l-373 -95l-262 486l-32 -2l-289 -482z" />
<glyph unicode="Y" horiz-adv-x="1341" d="M29 1284l401 70l250 -555h27l262 553l344 -76l-469 -780v-496l-383 -16v518z" />
<glyph unicode="Z" horiz-adv-x="1349" d="M66 268l737 840h-651v225h1069l36 -223l-739 -872h739v-238h-1138z" />
<glyph unicode="[" horiz-adv-x="942" d="M252 -387v1851l600 -24v-172h-240v-1452h240v-178z" />
<glyph unicode="\" horiz-adv-x="946" d="M10 1350l240 100l672 -1532l-207 -102z" />
<glyph unicode="]" horiz-adv-x="942" d="M86 -184h240v1452h-240v172l600 24v-1851l-600 25v178z" />
<glyph unicode="^" horiz-adv-x="1247" d="M100 670l439 649l170 2l442 -649l-178 -123l-350 479l-332 -473z" />
<glyph unicode="_" horiz-adv-x="1128" d="M0 -143h1128v-150h-1128v150z" />
<glyph unicode="`" horiz-adv-x="921" d="M190 1294l162 158l350 -332l-100 -112z" />
<glyph unicode="a" horiz-adv-x="970" d="M31 252q1 63 23.5 136t49.5 120l437 37v51q0 77 -70 80q-20 1 -43 1q-46 0 -100 -4q-82 -6 -132 -13l-51 -7l-10 183q158 38 440 38q42 0 81.5 -6.5t85 -25.5t79 -49.5t56 -84t22.5 -122.5v-586l-285 -16l-65 102q-104 -57 -182 -86q-67 -23 -111 -23q-104 -1 -166 81 q-59 78 -59 184v10zM365 272q9 -79 88 -79q38 0 88 20v197l-156 -39q-3 -6 -7 -16t-10 -36q-4 -17 -4 -32q0 -8 1 -15z" />
<glyph unicode="b" horiz-adv-x="1052" d="M82 -16v1402l356 25v-596q117 37 209 53q37 6 70 6q147 0 223 -114q74 -110 74 -306v-16q-2 -123 -45 -224.5t-129.5 -165.5t-202.5 -64q-133 0 -231 98l-46 -82zM438 256q70 -27 105 -27q20 0 32.5 1.5t28.5 7.5t25.5 19.5t19 35.5t13.5 57.5t4 83.5q0 114 -24.5 165.5 t-100.5 51.5q-39 0 -103 -22v-373z" />
<glyph unicode="c" horiz-adv-x="901" d="M39 379q0 104 33 190t88 144t127 98t148 58t153 19q146 0 276 -50l-43 -203q-71 10 -157 16q-64 5 -92 5q-9 0 -15 -1q-85 -6 -126.5 -56t-41.5 -163q0 -119 46 -172t165 -53q26 0 83 8.5t101 17.5l43 9l39 -187q-19 -6 -72 -22.5t-80.5 -24.5t-72.5 -19t-85.5 -15.5 t-80.5 -4.5q-118 0 -215.5 44.5t-159 138.5t-61.5 223z" />
<glyph unicode="d" horiz-adv-x="1097" d="M41 424q0 144 67 252.5t177 159.5q88 41 187 41q25 0 52 -3q65 -6 133 -20v532l359 25v-1411l-256 -16q-17 32 -62 114q-195 -102 -235 -110q-19 -3 -45 -4h-8q-24 0 -60 5q-42 6 -82 20t-82 46.5t-73.5 78t-51.5 120.5t-20 170zM397 432q0 -116 32 -161q29 -40 78 -41 q5 0 11 1q16 2 51 9.5t61 14.5l27 7v373q-58 14 -102 14q-158 0 -158 -217z" />
<glyph unicode="e" horiz-adv-x="974" d="M41 410q0 140 70.5 250t185.5 168.5t252 60.5h7q68 -1 130 -19q64 -20 119 -59.5t89.5 -108.5t41.5 -159q-14 -39 -35.5 -69t-36.5 -40l-14 -10l-451 -49q10 -160 152 -160q49 0 127 9.5t131 19.5l53 10l43 -184q-262 -91 -393 -97q-16 -1 -32 -1q-53 0 -101 8 q-63 10 -126 39.5t-109 77.5t-74.5 128t-28.5 185zM395 512q172 25 205 33q1 10 1 19q0 14 -2 26q-3 22 -11 44q-9 20 -29 32q-17 10 -41 10h-8q-33 -2 -57 -19.5t-34.5 -41t-16.5 -47t-6 -40.5z" />
<glyph unicode="f" horiz-adv-x="860" d="M8 700v160h211v129q0 100 67 180t176 120q86 32 180 32q24 0 48 -2q50 -4 108.5 -13t91.5 -16l34 -6l-43 -203q-135 29 -191 29q-74 0 -95.5 -39t-21.5 -139v-74h254v-188h-254l2 -670l-356 -16v686h-2z" />
<glyph unicode="g" horiz-adv-x="1075" d="M45 418q0 124 55.5 231t157.5 171q93 58 204 58q10 0 21 -1q40 -2 74 -13t51 -20.5t66 -40.5l20 57l299 14v-870q0 -215 -89 -324.5t-267 -121.5q-30 -2 -61 -2q-72 0 -156 10q-121 13 -194 30l-74 17l24 186q219 -10 303 -10q23 0 40 1.5t40.5 9.5t38.5 22t26 41.5 t11 64.5v156q-13 -7 -37 -21t-36.5 -20.5t-30.5 -14t-33 -10.5q-8 -1 -21 -4.5t-24 -5.5t-21 -2q-193 0 -290 108t-97 304zM389 455q-1 -12 -1 -24q0 -176 128 -179q25 0 55 10t47 20l17 9v346q-55 14 -100 14q-69 -2 -105.5 -44.5t-40.5 -151.5z" />
<glyph unicode="h" horiz-adv-x="1120" d="M82 -16v1402l356 25v-608q205 74 297 74q153 0 235 -116q80 -112 79 -312v-15v-434l-357 -16v450q0 115 -24 166t-103 51q-58 0 -127 -39v-612z" />
<glyph unicode="i" horiz-adv-x="518" d="M70 1235q0 59 57.5 100t140.5 41t141 -41t58 -100q0 -60 -58 -101.5t-141 -41.5t-140.5 41.5t-57.5 101.5zM82 -16v876l358 17v-875z" />
<glyph unicode="j" horiz-adv-x="522" d="M-14 -336q56 108 76 190t20 232v774l356 17v-801q0 -247 -213 -535zM59 1235q0 59 58 100t141 41t141 -41t58 -100q0 -60 -58 -101.5t-141 -41.5t-141 41.5t-58 101.5z" />
<glyph unicode="k" horiz-adv-x="1044" d="M82 -16v1402l356 25v-868l303 368l301 -178l-301 -282l326 -342l-324 -195l-305 453v-367z" />
<glyph unicode="l" horiz-adv-x="526" d="M84 -16v1402l358 25v-1411z" />
<glyph unicode="m" horiz-adv-x="1687" d="M82 -16v876l311 17l45 -86q188 86 254 86q80 0 140.5 -25.5t115.5 -95.5q80 40 183.5 80.5t148.5 40.5q159 0 247.5 -107t88.5 -313v-457l-356 -16v411q0 60 -2 96t-9 70.5t-21 51.5t-37 27.5t-58 10.5q-53 0 -129 -28q20 -58 20 -185v-438l-356 -16v411q0 141 -22 197.5 t-91 56.5q-65 0 -117 -22v-627z" />
<glyph unicode="n" horiz-adv-x="1134" d="M82 -16v876l305 19l51 -99q23 11 59.5 26.5t121.5 41.5t135 26q154 0 232 -110q76 -106 75 -305v-15v-444l-356 -16v450q0 111 -30 164t-110 53q-62 0 -127 -26v-625z" />
<glyph unicode="o" horiz-adv-x="1101" d="M41 414q0 208 153.5 341.5t389.5 133.5q137 0 244 -49t171 -151t64 -243q0 -140 -76 -250t-195.5 -166.5t-256.5 -56.5t-248.5 51t-178.5 153t-67 237zM393 438q0 -252 158 -252q89 0 123.5 61t34.5 187q0 129 -34 189.5t-116 60.5q-166 0 -166 -246z" />
<glyph unicode="p" horiz-adv-x="1054" d="M84 -444v1273q126 12 242 24t165 16.5t93 7.5q18 1 36 1q169 0 278 -103q118 -111 118 -326v-11q-1 -73 -19.5 -141.5t-55.5 -128.5t-87.5 -103t-119.5 -65q-53 -16 -111 -16q-19 0 -39 2q-19 2 -55.5 14.5t-63.5 24.5l-27 12l2 -463zM440 254q8 -3 27 -10.5t33 -11 t30 -3.5q24 0 42.5 6t41 24.5t36.5 63t18 111.5q1 18 1 34q0 85 -26 130q-31 53 -117 53q-36 0 -86 -12v-385z" />
<glyph unicode="q" horiz-adv-x="1083" d="M41 418q0 28 8 90q11 65 40.5 127t76.5 116t119.5 87.5t158.5 33.5q24 0 82 -8q79 -15 156 -61l20 57l299 14v-1296l-356 -22v514q-9 -4 -40.5 -19.5t-51.5 -24t-49.5 -20t-56 -17t-50.5 -5.5q-46 0 -91 11t-94 42t-86 77.5t-61 125t-24 178.5zM397 453v-22 q0 -92 29 -143q34 -57 100 -57q24 0 54 10t48 19l17 10v367q-6 2 -16.5 4.5t-37.5 6.5q-22 3 -39 3h-9q-68 0 -105 -43.5t-41 -154.5z" />
<glyph unicode="r" horiz-adv-x="864" d="M82 -16v876l356 14v-176q145 134 422 174l-41 -307h-381v-565z" />
<glyph unicode="s" horiz-adv-x="884" d="M33 59l51 209q20 -8 52.5 -19.5t114 -31.5t138.5 -22q9 -1 18 -1q41 0 69 12q36 14 34 44q-1 27 -35.5 47t-86 31.5t-110 33t-108.5 49.5t-82 83q-29 50 -29 118v13q3 75 43.5 130t106 83.5t139.5 40.5q55 9 113 9q19 0 39 -1q58 -3 134.5 -17.5t123.5 -27.5l47 -13 l-31 -178q-197 37 -260 39h-10q-101 0 -101 -59q1 -22 26 -38t64.5 -26.5t87 -22t95.5 -31.5t88 -48.5t66 -79t28 -117.5v-9q0 -133 -109 -207q-113 -76 -294 -75q-96 0 -201.5 20.5t-163.5 40.5z" />
<glyph unicode="t" horiz-adv-x="847" d="M0 672v157l188 31v289l357 31v-322h231v-188h-231v-461h282l13 -176q-299 -56 -408 -64q-115 0 -179.5 56t-64.5 172v473h-2z" />
<glyph unicode="u" horiz-adv-x="1091" d="M70 379v481l356 17v-484q0 -162 141 -162q14 0 35.5 5.5t35.5 10.5l15 5v608l357 17v-877l-254 -16q-21 26 -66 114q-13 -6 -57 -27t-67.5 -31t-62.5 -24.5t-73.5 -21t-67.5 -6.5h-9q-134 0 -207 92q-76 95 -76 299z" />
<glyph unicode="v" horiz-adv-x="1079" d="M16 825l359 60l192 -582h19l168 580l311 -56l-317 -827l-445 -12z" />
<glyph unicode="w" horiz-adv-x="1681" d="M10 840l363 57l170 -594h18l141 537l330 57l156 -594h16l168 594l297 -55l-305 -842l-399 -12l-95 467h-14l-125 -455l-434 -12z" />
<glyph unicode="x" horiz-adv-x="1077" d="M25 23l327 415l-276 383l383 37l94 -215l154 217l354 -39l-326 -387l322 -414l-387 -26l-133 256l-166 -258z" />
<glyph unicode="y" horiz-adv-x="1054" d="M12 827l357 58l153 -621h19l219 621l289 -58l-502 -1302l-289 45l152 418h-91z" />
<glyph unicode="z" horiz-adv-x="956" d="M12 254l467 416h-393l-8 190h786l60 -223l-518 -436h505v-201h-841z" />
<glyph unicode="{" horiz-adv-x="1011" d="M131 567q0 55 4 82q13 0 37 -1t35 -1q36 0 61 4.5t49 18.5t36 44.5t12 76.5q0 83 -17.5 169.5t-17.5 163.5q0 69 22 124.5t61.5 90.5t85.5 59t102 36t102.5 17t95.5 5q33 0 64 -2t46 -4l15 -2v-170q-5 0 -14 0.5t-34 -1.5t-48 -8t-51.5 -21t-48.5 -37t-34 -60t-14 -86 q0 -47 13.5 -157.5t13.5 -159.5q0 -39 -15.5 -72t-37.5 -51t-44 -30.5t-38 -16.5l-15 -5q6 -2 16 -5t36 -17.5t46 -33t36 -53t16 -75.5q0 -50 -17.5 -176.5t-17.5 -181.5q0 -51 14.5 -91t37.5 -63.5t50.5 -39.5t55 -22t50.5 -9t38 -2l14 1l-2 -180q-49 -8 -121 -8 q-43 0 -84 3t-91.5 13t-93.5 26t-85 44t-72 64.5t-48 90.5t-18 119q0 81 24 173t24 180q0 91 -38 120t-114 29q-12 0 -38 -1t-40 -1q-4 39 -4 90z" />
<glyph unicode="|" horiz-adv-x="1189" d="M475 -532v2074h240v-2074h-240z" />
<glyph unicode="}" horiz-adv-x="1011" d="M86 -195q5 0 14.5 -0.5t36.5 2t51 8.5t54 22t51.5 39.5t36 63.5t14.5 91q0 55 -17.5 181.5t-17.5 176.5q0 41 15.5 75t38 53.5t45 33t38.5 17.5l15 5q-6 1 -16.5 4.5t-36.5 17t-46 31t-36.5 50.5t-16.5 72q0 49 13.5 159.5t13.5 157.5q0 48 -13.5 86t-34.5 59.5t-47 37 t-52 21t-47 8.5t-34 2l-14 -1v170q51 8 125 8q49 0 95.5 -5t102.5 -17t101.5 -36t84.5 -59t61 -90.5t22 -124.5q0 -77 -16.5 -163.5t-16.5 -169.5q0 -46 12 -76.5t36 -44.5t49 -18.5t61 -4.5q11 0 35 1t37 1q4 -54 4 -82l-4 -90q-14 0 -40 1t-38 1q-76 0 -114 -29t-38 -120 q0 -88 22.5 -180t22.5 -173q0 -65 -18 -119t-47.5 -90.5t-71.5 -64.5t-84.5 -44t-93 -26t-91 -13t-83.5 -3q-32 0 -62.5 2t-44.5 4l-14 2z" />
<glyph unicode="~" horiz-adv-x="1249" d="M121 287q0 8 0.5 21.5t6.5 52.5t16 75t31 79.5t49.5 74.5t75 52.5t103.5 21.5q78 0 145.5 -19.5t106.5 -43t87 -43t92 -19.5q26 0 44.5 14t27 33.5t13 39.5t5.5 34v14h206q0 -8 -0.5 -22t-6 -54t-15 -76t-31 -80.5t-50.5 -76.5t-76 -54t-105 -22q-60 0 -127 21 t-115.5 45.5t-98.5 45.5t-79 21q-27 0 -48 -13.5t-32 -33t-18 -39.5t-9 -34l-2 -13z" />
<glyph unicode="&#xa1;" horiz-adv-x="679" d="M125 782q0 67 56.5 114.5t137.5 47.5t138 -48t57 -114q0 -67 -56.5 -114t-138.5 -47t-138 46.5t-56 114.5zM143 -432l56 921l235 7l90 -914z" />
<glyph unicode="&#xa2;" horiz-adv-x="1153" d="M123 639q0 94 38.5 176t104.5 140t150 96t178 53v194l190 17v-209q75 -9 146 -31.5t105 -40.5l34 -18l-57 -152q-13 6 -35.5 15t-83 24t-109.5 15v-488q47 4 101.5 16t84.5 22l31 9l48 -137q-142 -57 -265 -92v-256l-190 -19v246q-58 0 -113 7.5t-123 34.5t-117.5 70.5 t-83.5 123t-34 184.5zM467 686q-9 -121 33.5 -186.5t128.5 -73.5v492q-153 -42 -162 -232z" />
<glyph unicode="&#xa3;" horiz-adv-x="1153" d="M43 0v250h98q4 1 11 3.5t25 16t31.5 34.5t24.5 63.5t11 97.5l-2 86h-181v205h160q-18 123 -18 213q-2 91 26.5 164t88.5 127t161.5 78.5t235.5 13.5q56 -4 132.5 -20.5t124.5 -31.5l48 -14l-55 -203q-131 41 -244 47q-59 3 -103.5 -45.5t-37.5 -142.5l12 -186h319v-205 h-299q2 -59 2 -92q0 -46 -10 -83.5t-23 -59t-30 -37.5t-26 -21t-15 -8h498v-250h-965z" />
<glyph unicode="&#xa5;" horiz-adv-x="1433" d="M113 1319l409 51l275 -571l256 573l356 -72l-375 -628h180v-168l-280 2v-76h280v-168h-280v-262l-381 -16v278h-299v168h299v72l-2 2h-297v168h207z" />
<glyph unicode="&#xa6;" horiz-adv-x="1153" d="M451 -356v725h249v-725h-249zM451 680v723h249v-723h-249z" />
<glyph unicode="&#xa7;" horiz-adv-x="1069" d="M82 532q0 136 158 271q-80 94 -80 198q-3 136 121.5 242.5t304.5 106.5q49 0 103 -13t96 -31t77.5 -36.5t54.5 -31.5l19 -13l-92 -158q-17 9 -43.5 22.5t-89.5 36.5t-101 23q-53 0 -94.5 -26.5t-42.5 -78.5q-1 -28 29 -57t77.5 -57.5t104.5 -62t112.5 -78t99.5 -97 t66.5 -127.5t12.5 -162q-16 -149 -156 -262q72 -89 72 -192q-1 -68 -27 -129t-75 -110.5t-128.5 -79t-179.5 -29.5q-72 0 -169.5 38.5t-158.5 76.5l-61 38l107 162q127 -67 231 -90q70 -15 116.5 10.5t45.5 102.5q0 40 -28.5 72.5t-73.5 57.5t-99.5 50.5t-108.5 60.5t-99 79 t-73 114.5t-28 158.5zM360 584q0 -44 20 -82.5t60 -72.5t78 -59.5t97 -62t94 -61.5q25 45 20 114q-3 34 -20 66t-37.5 55.5t-59.5 53t-66.5 47t-78 48.5t-76.5 48q-31 -43 -31 -94z" />
<glyph unicode="&#xa8;" horiz-adv-x="983" d="M137 1178q0 60 44 101.5t106 41.5q63 0 107 -41.5t44 -101.5q0 -59 -44 -100.5t-107 -41.5q-62 0 -106 42t-44 100zM547 1178q0 60 44 101.5t107 41.5q62 0 106 -41.5t44 -101.5q0 -58 -44 -100t-106 -42q-63 0 -107 41.5t-44 100.5z" />
<glyph unicode="&#xa9;" horiz-adv-x="1595" d="M88 657q0 141 56.5 269.5t152.5 221t228 147.5t278 55q145 0 277 -55t228 -147.5t153 -221t57 -269.5t-57 -269.5t-153 -221.5t-228 -148t-277 -55t-277.5 55t-228.5 148t-152.5 221.5t-56.5 269.5zM244 657q0 -151 75 -279t203.5 -202t280.5 -74q113 0 216 44t178 118 t119 177t44 216q0 112 -44 215t-119 177.5t-178 118.5t-216 44q-114 0 -217.5 -44t-178.5 -118.5t-119 -177.5t-44 -215zM432 639q0 22 4 72q11 136 101.5 234t238.5 116q53 6 122.5 -5.5t113.5 -26.5l43 -15l-35 -160q-16 4 -42.5 9t-86 11.5t-92.5 2.5q-64 -9 -104 -51.5 t-44 -139.5q-6 -108 42 -176t112 -68q38 0 91.5 12t87.5 24l34 11l53 -141q-19 -10 -50.5 -24.5t-112.5 -39t-142 -24.5q-59 0 -114 18.5t-106.5 59.5t-82.5 118.5t-31 182.5z" />
<glyph unicode="&#xaa;" horiz-adv-x="974" d="M57 811q0 135 41 209l434 37v51q0 30 -28 51t-64 19q-54 -2 -126.5 -8.5t-117.5 -12.5l-46 -6v158q212 41 368 41q291 0 291 -265v-471l-211 -32q-37 61 -55 86q-23 -9 -91.5 -32.5t-101.5 -35.5q-50 -20 -98 -20q-90 0 -142.5 66.5t-52.5 164.5zM324 829q4 -33 33.5 -51 t76.5 -18q51 0 98 16v170l-188 -31q-4 -3 -8 -8.5t-12 -27t0 -50.5z" />
<glyph unicode="&#xab;" horiz-adv-x="1146" d="M111 367v157l366 334l137 -100l-233 -309l229 -314l-139 -100zM543 367v157l366 334l138 -100l-234 -309l229 -314l-137 -100z" />
<glyph unicode="&#xac;" horiz-adv-x="1193" d="M121 383l2 209h954v-543l-235 -12v346h-721z" />
<glyph unicode="&#xad;" horiz-adv-x="843" d="M74 395v213h692v-213h-692z" />
<glyph unicode="&#xae;" horiz-adv-x="1095" d="M88 920q0 183 136 311.5t329 128.5q126 0 233 -58.5t169.5 -160t62.5 -221.5q0 -119 -62.5 -220.5t-169.5 -161t-233 -59.5q-193 0 -329 129.5t-136 311.5zM199 920q0 -146 103.5 -249.5t250.5 -103.5q146 0 249 103.5t103 249.5t-103 249t-249 103q-148 0 -251 -103 t-103 -249zM387 713v432q13 2 34 4.5t70.5 6.5t81.5 3q77 2 126 -31.5t55 -91.5q5 -50 -20.5 -93.5t-74.5 -53.5l138 -146l-135 -49l-109 180q-16 -2 -27 -2v-157zM524 946q1 -2 21 -2q39 0 59.5 19t20.5 51q0 47 -76 47q-27 0 -25 -4v-111z" />
<glyph unicode="&#xaf;" horiz-adv-x="921" d="M184 1065v184h555v-184h-555z" />
<glyph unicode="&#xb0;" horiz-adv-x="788" d="M100 1067q0 114 85.5 194t207.5 80t208.5 -80t86.5 -194t-86.5 -194t-208.5 -80t-207.5 80t-85.5 194zM268 1069q0 -60 37 -102.5t90 -42.5t90 42.5t37 102.5t-37 102.5t-90 42.5t-90 -42.5t-37 -102.5z" />
<glyph unicode="&#xb1;" horiz-adv-x="1267" d="M143 188l9 228h983l-9 -228h-983zM143 705l9 225h389v289l227 14v-303h367l-9 -225h-358v-230l-227 -12v242h-398z" />
<glyph unicode="&#xb2;" horiz-adv-x="563" d="M10 1413q3 5 9.5 13t30.5 29.5t51 38.5t71.5 32t93.5 18q133 9 206 -45.5t73 -146.5q0 -50 -19.5 -92.5t-61 -80t-85 -66t-113.5 -66.5q88 0 173.5 1t113.5 1l-12 -144h-498l-25 131q13 7 34 19.5t75.5 50t96.5 72t76 79.5t34 80q0 70 -80 70q-54 0 -135 -78z" />
<glyph unicode="&#xb3;" horiz-adv-x="563" d="M20 930l23 119q114 -21 195 -21q61 0 61 64q0 17 -4.5 30t-18 26.5t-43.5 20.5t-75 7h-31l2 112q16 2 55 2q66 1 98.5 29t26.5 70q-6 53 -86 53q-21 0 -63 -6t-74 -12l-31 -5l-12 109q145 22 244 22q43 0 83.5 -7.5t79 -23.5t60.5 -47.5t18 -74.5q-6 -68 -45 -99.5 t-133 -52.5q102 -6 147 -49.5t42 -114.5q-2 -54 -27 -92.5t-68.5 -59t-96 -28t-116.5 -4.5q-56 2 -109 10t-78 15z" />
<glyph unicode="&#xb4;" horiz-adv-x="921" d="M236 1120l350 332l162 -158l-412 -286z" />
<glyph unicode="&#xb5;" horiz-adv-x="1271" d="M154 -508l10 961v407l356 12v-518q0 -161 139 -161q45 0 89 14v651l356 14v-872l-223 -14q-66 75 -97 110q-31 -55 -94.5 -86t-111.5 -22q-49 12 -101 37l41 -474z" />
<glyph unicode="&#xb6;" horiz-adv-x="1445" d="M92 874q0 83 29.5 153t81.5 118.5t118 85t144 57.5t154.5 31t154.5 10q116 0 227.5 -2t164.5 -4l53 -2v-1604l-232 -10v1401h-147v-1395l-232 -10v707q-87 0 -161 14.5t-140.5 49t-113.5 87t-74 132.5t-27 181z" />
<glyph unicode="&#xb7;" horiz-adv-x="675" d="M129 522q0 78 61.5 133.5t147.5 55.5q88 0 149.5 -55.5t61.5 -133.5t-61.5 -133t-149.5 -55q-86 0 -147.5 55t-61.5 133z" />
<glyph unicode="&#xb8;" horiz-adv-x="921" d="M260 -434q7 0 19.5 1t44.5 6.5t56 13t44 23.5t20 36q0 36 -34 57t-68 24l-33 3l-20 84l190 180h209l-192 -168q8 -1 21 -3t46.5 -14.5t59 -31t46.5 -56t21 -86.5q0 -54 -43 -96.5t-104.5 -64.5t-123 -36t-104.5 -18l-43 -4z" />
<glyph unicode="&#xb9;" horiz-adv-x="475" d="M18 1466l334 99v-654h-172v453l-133 -23z" />
<glyph unicode="&#xba;" horiz-adv-x="948" d="M76 981q3 89 41.5 162t98 117t125.5 67t130 23q188 0 297 -92t109 -267t-117.5 -284t-292.5 -109t-286 104.5t-105 278.5zM342 977q0 -106 37.5 -163.5t97.5 -57.5q62 0 101.5 59t39.5 170q0 99 -38 153t-101 54q-51 0 -94 -52.5t-43 -162.5z" />
<glyph unicode="&#xbb;" horiz-adv-x="1146" d="M78 758l137 100l365 -334v-157l-361 -332l-139 100l231 314zM510 758l137 100l367 -334v-157l-363 -332l-137 100l229 314z" />
<glyph unicode="&#xbc;" horiz-adv-x="1830" d="M127 1184l442 112v-653h-223v453l-190 -35zM457 43l854 1339l162 -94l-861 -1331zM1001 291l385 452l226 -10v-399h157l-14 -160h-143v-166l-228 -12v178h-309zM1243 334h141v178z" />
<glyph unicode="&#xbd;" horiz-adv-x="1824" d="M127 1184l442 112v-653h-223v453l-190 -35zM467 43l854 1339l162 -94l-860 -1331zM1100 152l102 59q232 143 235 221q-1 17 -10 29q-17 21 -44 21.5t-54 -14.5t-52 -33t-41 -33l-15 -15l-113 115q4 5 12 14t34.5 32t55.5 41.5t75.5 34.5t94.5 19q136 9 218.5 -46.5 t82.5 -145.5q0 -21 -4.5 -40.5t-10 -35t-20 -33t-23.5 -28.5t-32 -28t-33.5 -25t-41.5 -25.5t-42.5 -23.5t-47.5 -26q-24 -13 -37 -20q87 0 182 1t125 1l-19 -164h-547z" />
<glyph unicode="&#xbe;" horiz-adv-x="1824" d="M147 680l31 149q125 -24 164 -28q27 -3 50.5 -4.5t38.5 12.5t15 45q0 13 -13.5 22t-35 12.5t-38 5t-31.5 1.5h-25l2 119q16 2 55 2q63 1 87.5 27t17.5 61q-6 41 -76 41q-19 0 -70 -5.5t-92 -10.5l-41 -5l-26 123q154 41 293 43q43 2 84 -4.5t80.5 -22.5t63.5 -48.5 t24 -77.5q0 -69 -43.5 -107t-135.5 -57q104 -7 148 -44.5t41 -107.5q-3 -72 -46.5 -115.5t-108 -58t-150.5 -10.5q-57 3 -123 13.5t-103 19.5zM408 43l854 1339l161 -94l-858 -1331zM971 291l385 452l215 -10v-399h168l-15 -160h-153v-166l-217 -12v178h-310zM1212 334h142 v178z" />
<glyph unicode="&#xbf;" horiz-adv-x="1052" d="M49 -127q0 76 43.5 145.5t105.5 117t124 84t105.5 60.5t43.5 33l-8 119l260 51l6 -12l15.5 -31t20.5 -44.5t18.5 -49.5t14.5 -50t4 -41t-11 -28q-19 -17 -84.5 -54t-123.5 -71.5t-106.5 -86.5t-48.5 -103q0 -128 209 -139q20 -1 43 0t44 4t43.5 7t40.5 8.5t36.5 9.5t30 8 t21.5 6.5t11 3.5l72 -213q-99 -39 -232 -62.5t-276 -17.5q-78 3 -151.5 26.5t-134.5 65t-98.5 108t-37.5 146.5zM391 735q0 78 60.5 134.5t146.5 56.5t146.5 -56.5t60.5 -134.5q0 -79 -60.5 -134.5t-146.5 -55.5t-146.5 55.5t-60.5 134.5z" />
<glyph unicode="&#xc0;" horiz-adv-x="1384" d="M12 -12l486 1345l460 17l408 -1348l-403 -22l-86 342h-351l-104 -322zM436 1767l162 158l350 -332l-100 -112zM598 559h225l-102 455z" />
<glyph unicode="&#xc1;" horiz-adv-x="1384" d="M12 -12l486 1345l460 17l408 -1348l-403 -22l-86 342h-351l-104 -322zM436 1593l350 332l162 -158l-411 -286zM598 559h225l-102 455z" />
<glyph unicode="&#xc2;" horiz-adv-x="1384" d="M12 -12l486 1345l460 17l408 -1348l-403 -22l-86 342h-351l-104 -322zM379 1556l287 330h145l283 -327l-121 -95l-240 207l-233 -201zM598 559h225l-102 455z" />
<glyph unicode="&#xc3;" horiz-adv-x="1384" d="M12 -12l486 1345l460 17l408 -1348l-403 -22l-86 342h-351l-104 -322zM324 1513q7 145 64 220t144 75q53 0 101.5 -17t77.5 -37t64 -37t65 -17q28 0 43 20t24 80l154 -4q0 -139 -45.5 -218t-143.5 -79q-59 0 -119.5 30t-111 59.5t-84.5 29.5q-30 0 -47 -27t-19 -55 l-2 -27zM598 559h225l-102 455z" />
<glyph unicode="&#xc4;" horiz-adv-x="1384" d="M12 -12l486 1345l460 17l408 -1348l-403 -22l-86 342h-351l-104 -322zM336 1651q0 60 43.5 101.5t105.5 41.5q63 0 107.5 -41.5t44.5 -101.5q0 -59 -44.5 -100.5t-107.5 -41.5q-61 0 -105 41.5t-44 100.5zM598 559h225l-102 455zM745 1651q0 60 44.5 101.5t107.5 41.5 q62 0 106 -41.5t44 -101.5q0 -58 -44 -100t-106 -42q-63 0 -107.5 41.5t-44.5 100.5z" />
<glyph unicode="&#xc5;" horiz-adv-x="1384" d="M12 -12l486 1345l460 17l408 -1348l-403 -22l-86 342h-351l-104 -322zM453 1724q0 94 80.5 161t195.5 67q114 0 194.5 -67t80.5 -161t-80.5 -160.5t-194.5 -66.5q-115 0 -195.5 66.5t-80.5 160.5zM598 559h225l-102 455zM618 1724q0 -53 28.5 -84.5t82.5 -31.5 q53 0 81 31.5t28 84.5t-28.5 85t-80.5 32q-54 0 -82.5 -32t-28.5 -85z" />
<glyph unicode="&#xc6;" horiz-adv-x="2070" d="M41 0l797 1333h1050v-225h-510v-293h461v-219h-461v-358h527v-238h-908l-2 498h-340l-264 -510zM754 713h241l-2 391z" />
<glyph unicode="&#xc7;" horiz-adv-x="1224" d="M51 666q7 172 73.5 308t176 220t250 124.5t297.5 31.5q84 -4 166 -22t122 -34l40 -16l-48 -231q-186 49 -301 49q-170 0 -279.5 -116t-115.5 -331q-6 -185 81.5 -280.5t250.5 -98.5q65 -3 160.5 16t157.5 40l63 20l51 -242q-122 -50 -267.5 -85t-269.5 -35 q-290 0 -455 188.5t-153 493.5zM358 -422q8 0 20 1t44 6.5t56.5 13t44.5 23.5t20 36q0 36 -33.5 57t-67.5 24l-34 3l-21 84l191 180h208l-192 -168q8 -1 21 -3t46.5 -14t59 -30.5t46.5 -56t21 -86.5q0 -54 -43 -96.5t-104 -64.5t-122.5 -36t-104.5 -18l-43 -4z" />
<glyph unicode="&#xc8;" horiz-adv-x="1056" d="M102 0v1333h891v-225h-510v-293h461v-219h-461v-358h529v-238h-910zM272 1767l162 158l350 -332l-100 -112z" />
<glyph unicode="&#xc9;" horiz-adv-x="1056" d="M102 0v1333h891v-225h-510v-293h461v-219h-461v-358h529v-238h-910zM272 1593l351 332l161 -158l-411 -286z" />
<glyph unicode="&#xca;" horiz-adv-x="1056" d="M102 0v1333h891v-225h-510v-293h461v-219h-461v-358h529v-238h-910zM217 1556l287 330h145l283 -327l-121 -95l-240 207l-233 -201z" />
<glyph unicode="&#xcb;" horiz-adv-x="1056" d="M102 0v1333h891v-225h-510v-293h461v-219h-461v-358h529v-238h-910zM219 1651q0 60 44 101.5t106 41.5q63 0 107 -41.5t44 -101.5q0 -59 -44 -100.5t-107 -41.5q-62 0 -106 42t-44 100zM629 1651q0 60 44 101.5t107 41.5q62 0 106 -41.5t44 -101.5q0 -58 -44 -100 t-106 -42q-63 0 -107 41.5t-44 100.5z" />
<glyph unicode="&#xcc;" horiz-adv-x="602" d="M45 1767l162 158l350 -332l-100 -112zM111 -16v1349l381 17l2 -1350z" />
<glyph unicode="&#xcd;" horiz-adv-x="602" d="M45 1593l350 332l162 -158l-412 -286zM111 -16v1349l381 17l2 -1350z" />
<glyph unicode="&#xce;" horiz-adv-x="602" d="M-55 1556l286 330h146l282 -327l-120 -95l-240 207l-233 -201zM111 -16v1349l381 17l2 -1350z" />
<glyph unicode="&#xcf;" horiz-adv-x="602" d="M-53 1651q0 60 43.5 101.5t105.5 41.5q63 0 107.5 -41.5t44.5 -101.5q0 -59 -44.5 -100.5t-107.5 -41.5q-61 0 -105 41.5t-44 100.5zM111 -16v1349l381 17l2 -1350zM356 1651q0 60 44.5 101.5t107.5 41.5q62 0 105.5 -41.5t43.5 -101.5q0 -59 -44 -100.5t-105 -41.5 q-63 0 -107.5 41.5t-44.5 100.5z" />
<glyph unicode="&#xd0;" horiz-adv-x="1591" d="M111 569v199h147v547l473 31q59 2 123 -3t141 -22.5t147 -45.5t137 -77t116 -111.5t78.5 -153.5t29.5 -200q0 -59 -4 -92q-14 -127 -69.5 -235t-138.5 -183.5t-188.5 -129t-219 -78.5t-230.5 -25q-44 0 -67 2q-99 6 -180 19.5t-112 23.5l-32 10l-2 524h-149zM643 244 q8 -3 21.5 -7t55 -10.5t75.5 2.5q22 4 40.5 9t54.5 20t64 34.5t61 54.5t55 78.5t37 108.5t15 142q0 118 -28.5 205t-80.5 137t-118.5 74t-149.5 24q-55 0 -102 -8v-340h244v-199h-244v-325z" />
<glyph unicode="&#xd1;" horiz-adv-x="1378" d="M100 -16l4 1349l443 17l366 -901h11l-39 884l391 17l-2 -1350l-475 -16l-342 845h-11l35 -829zM319 1513q7 145 64.5 220t144.5 75q53 0 101.5 -17t77.5 -37t64 -37t65 -17q28 0 43 20t24 80l154 -4q0 -139 -45.5 -218t-143.5 -79q-59 0 -119.5 30t-111 59.5t-84.5 29.5 q-30 0 -47 -27t-19 -55l-2 -27z" />
<glyph unicode="&#xd2;" horiz-adv-x="1497" d="M49 664q4 169 63 304.5t158 221t226 131t272 45.5q103 0 197 -20.5t183.5 -70t155 -124.5t105 -191.5t39.5 -263.5q0 -120 -30 -225t-83 -183t-123 -139.5t-151.5 -99.5t-167 -58t-170.5 -20q-103 0 -198 22t-184.5 74.5t-154.5 130t-102.5 197.5t-34.5 269zM449 688 q0 -120 23.5 -208t66.5 -138.5t97 -74t122 -23.5q124 0 209 115.5t82 322.5q-1 201 -80 314.5t-207 113.5q-39 0 -78.5 -11.5t-82.5 -42t-76 -76t-54.5 -121.5t-21.5 -171zM492 1767l161 158l351 -332l-101 -112z" />
<glyph unicode="&#xd3;" horiz-adv-x="1497" d="M49 664q4 169 63 304.5t158 221t226 131t272 45.5q103 0 197 -20.5t183.5 -70t155 -124.5t105 -191.5t39.5 -263.5q0 -120 -30 -225t-83 -183t-123 -139.5t-151.5 -99.5t-167 -58t-170.5 -20q-103 0 -198 22t-184.5 74.5t-154.5 130t-102.5 197.5t-34.5 269zM449 688 q0 -120 23.5 -208t66.5 -138.5t97 -74t122 -23.5q124 0 209 115.5t82 322.5q-1 201 -80 314.5t-207 113.5q-39 0 -78.5 -11.5t-82.5 -42t-76 -76t-54.5 -121.5t-21.5 -171zM492 1593l350 332l162 -158l-412 -286z" />
<glyph unicode="&#xd4;" horiz-adv-x="1497" d="M49 664q4 169 63 304.5t158 221t226 131t272 45.5q103 0 197 -20.5t183.5 -70t155 -124.5t105 -191.5t39.5 -263.5q0 -120 -30 -225t-83 -183t-123 -139.5t-151.5 -99.5t-167 -58t-170.5 -20q-103 0 -198 22t-184.5 74.5t-154.5 130t-102.5 197.5t-34.5 269zM391 1556 l287 330h145l283 -327l-121 -95l-240 207l-233 -201zM449 688q0 -120 23.5 -208t66.5 -138.5t97 -74t122 -23.5q124 0 209 115.5t82 322.5q-1 201 -80 314.5t-207 113.5q-39 0 -78.5 -11.5t-82.5 -42t-76 -76t-54.5 -121.5t-21.5 -171z" />
<glyph unicode="&#xd5;" horiz-adv-x="1497" d="M49 664q4 169 63 304.5t158 221t226 131t272 45.5q103 0 197 -20.5t183.5 -70t155 -124.5t105 -191.5t39.5 -263.5q0 -120 -30 -225t-83 -183t-123 -139.5t-151.5 -99.5t-167 -58t-170.5 -20q-103 0 -198 22t-184.5 74.5t-154.5 130t-102.5 197.5t-34.5 269zM379 1513 q7 145 64.5 220t144.5 75q53 0 101.5 -17t77 -37t63.5 -37t65 -17q28 0 43.5 20t24.5 80l153 -4q0 -297 -188 -297q-59 0 -120 30t-111.5 59.5t-84.5 29.5q-30 0 -47 -27t-19 -55l-1 -27zM449 688q0 -120 23.5 -208t66.5 -138.5t97 -74t122 -23.5q124 0 209 115.5t82 322.5 q-1 201 -80 314.5t-207 113.5q-39 0 -78.5 -11.5t-82.5 -42t-76 -76t-54.5 -121.5t-21.5 -171z" />
<glyph unicode="&#xd6;" horiz-adv-x="1497" d="M49 664q4 169 63 304.5t158 221t226 131t272 45.5q103 0 197 -20.5t183.5 -70t155 -124.5t105 -191.5t39.5 -263.5q0 -120 -30 -225t-83 -183t-123 -139.5t-151.5 -99.5t-167 -58t-170.5 -20q-103 0 -198 22t-184.5 74.5t-154.5 130t-102.5 197.5t-34.5 269zM393 1651 q0 60 44 101.5t106 41.5q63 0 107 -41.5t44 -101.5q0 -59 -44 -100.5t-107 -41.5q-62 0 -106 42t-44 100zM449 688q0 -120 23.5 -208t66.5 -138.5t97 -74t122 -23.5q124 0 209 115.5t82 322.5q-1 201 -80 314.5t-207 113.5q-39 0 -78.5 -11.5t-82.5 -42t-76 -76 t-54.5 -121.5t-21.5 -171zM803 1651q0 60 44 101.5t107 41.5q62 0 106 -41.5t44 -101.5q0 -58 -44 -100t-106 -42q-63 0 -107 41.5t-44 100.5z" />
<glyph unicode="&#xd7;" horiz-adv-x="1153" d="M115 291l297 317l-291 291l174 176l283 -291l278 297l176 -149l-291 -311l310 -312l-166 -164l-307 304l-295 -312z" />
<glyph unicode="&#xd8;" horiz-adv-x="1585" d="M25 18l211 220q-121 169 -121 434q0 152 60 285t159.5 224t229 143t267.5 52q228 0 392 -104l161 168l175 -152l-173 -178q105 -167 105 -403q0 -143 -42 -264.5t-111.5 -205t-161 -142t-190 -86t-198.5 -27.5q-223 0 -389 102l-211 -219zM520 686q0 -84 8 -141l488 510 q-74 112 -193 112q-37 0 -75 -13t-80 -47.5t-74 -87t-53 -138.5t-21 -195zM614 307q81 -112 207 -112q122 0 206 125.5t83 359.5q-4 88 -10 131z" />
<glyph unicode="&#xd9;" horiz-adv-x="1357" d="M92 522v813l379 15v-775q0 -184 62 -262.5t178 -64.5q47 6 79.5 23.5t51.5 42t29 67.5t13 86t3 111l-2 757l383 15v-656q0 -324 -142.5 -508.5t-423.5 -201.5q-283 -17 -446.5 130t-163.5 408zM422 1767l162 158l350 -332l-100 -112z" />
<glyph unicode="&#xda;" horiz-adv-x="1357" d="M92 522v813l379 15v-775q0 -184 62 -262.5t178 -64.5q47 6 79.5 23.5t51.5 42t29 67.5t13 86t3 111l-2 757l383 15v-656q0 -324 -142.5 -508.5t-423.5 -201.5q-283 -17 -446.5 130t-163.5 408zM422 1593l350 332l162 -158l-412 -286z" />
<glyph unicode="&#xdb;" horiz-adv-x="1357" d="M92 522v813l379 15v-775q0 -184 62 -262.5t178 -64.5q47 6 79.5 23.5t51.5 42t29 67.5t13 86t3 111l-2 757l383 15v-656q0 -324 -142.5 -508.5t-423.5 -201.5q-283 -17 -446.5 130t-163.5 408zM322 1556l286 330h146l282 -327l-121 -95l-239 207l-234 -201z" />
<glyph unicode="&#xdc;" horiz-adv-x="1357" d="M92 522v813l379 15v-775q0 -184 62 -262.5t178 -64.5q47 6 79.5 23.5t51.5 42t29 67.5t13 86t3 111l-2 757l383 15v-656q0 -324 -142.5 -508.5t-423.5 -201.5q-283 -17 -446.5 130t-163.5 408zM324 1651q0 60 43.5 101.5t105.5 41.5q63 0 107.5 -41.5t44.5 -101.5 q0 -59 -44.5 -100.5t-107.5 -41.5q-61 0 -105 41.5t-44 100.5zM733 1651q0 60 44.5 101.5t107.5 41.5q62 0 105.5 -41.5t43.5 -101.5q0 -59 -44 -100.5t-105 -41.5q-63 0 -107.5 41.5t-44.5 100.5z" />
<glyph unicode="&#xdd;" horiz-adv-x="1429" d="M117 1284l401 70l250 -555h27l262 553l344 -76l-469 -780v-496l-383 -16v518zM459 1593l350 332l162 -158l-412 -286z" />
<glyph unicode="&#xde;" horiz-adv-x="1359" d="M223 -12v1345l389 17v-277q28 0 90.5 2t100.5 2q58 0 101.5 -3t95.5 -14t89 -29.5t74 -52t60 -79.5t37 -114t14 -154q0 -108 -33 -192t-84.5 -134t-122.5 -82t-138.5 -43.5t-141.5 -11.5q-62 0 -144 12v-180zM612 395q6 -2 16 -3.5t42 -4.5t57 2q172 27 176 227 q3 116 -50 165.5t-163 49.5q-20 0 -78 -4v-432z" />
<glyph unicode="&#xdf;" horiz-adv-x="1597" d="M229 -16v890q0 73 15 138t55.5 131t105 113t172 75t246.5 25q108 -3 193.5 -39.5t136.5 -89t84.5 -118.5t46 -122.5t12.5 -107.5q-134 -6 -185.5 -38t-45.5 -89q7 -53 166 -103q41 -13 66 -23t63 -28t62.5 -41t49 -55t38 -76.5t16.5 -99.5q5 -105 -63.5 -184t-177 -117.5 t-236.5 -38.5q-70 0 -130 11t-96 26.5t-62 31t-36 26.5l-10 11l112 211q129 -82 195 -90q119 -14 111 98q-5 58 -91 103q-10 5 -47 21t-65 29t-65.5 37.5t-62.5 49.5t-43 62t-18 77q0 61 23.5 114t60.5 88t77.5 57t78.5 28q0 65 -42 107t-128 42q-54 0 -91.5 -15.5 t-59 -39.5t-33 -67t-14.5 -84t-3 -105v-813z" />
<glyph unicode="&#xe0;" horiz-adv-x="970" d="M31 252q1 63 23.5 136t49.5 120l437 37v51q0 77 -70 80q-61 3 -142.5 -3t-132.5 -13l-51 -7l-10 183q158 38 440 38q42 0 81.5 -6.5t85 -25.5t79 -49.5t56 -84t22.5 -122.5v-586l-285 -16l-65 102q-104 -57 -182 -86q-67 -23 -111 -23q-104 0 -166 81.5t-59 193.5z M229 1294l162 158l350 -332l-100 -112zM365 272q9 -79 88 -79q38 0 88 20v197l-156 -39q-3 -6 -7 -16t-10 -36t-3 -47z" />
<glyph unicode="&#xe1;" horiz-adv-x="970" d="M31 252q1 63 23.5 136t49.5 120l437 37v51q0 77 -70 80q-61 3 -142.5 -3t-132.5 -13l-51 -7l-10 183q158 38 440 38q42 0 81.5 -6.5t85 -25.5t79 -49.5t56 -84t22.5 -122.5v-586l-285 -16l-65 102q-104 -57 -182 -86q-67 -23 -111 -23q-104 0 -166 81.5t-59 193.5z M229 1120l351 332l161 -158l-411 -286zM365 272q9 -79 88 -79q38 0 88 20v197l-156 -39q-3 -6 -7 -16t-10 -36t-3 -47z" />
<glyph unicode="&#xe2;" horiz-adv-x="970" d="M31 252q1 63 23.5 136t49.5 120l437 37v51q0 77 -70 80q-61 3 -142.5 -3t-132.5 -13l-51 -7l-10 183q158 38 440 38q42 0 81.5 -6.5t85 -25.5t79 -49.5t56 -84t22.5 -122.5v-586l-285 -16l-65 102q-104 -57 -182 -86q-67 -23 -111 -23q-104 0 -166 81.5t-59 193.5z M127 1083l287 330h145l283 -328l-121 -94l-240 207l-233 -201zM365 272q9 -79 88 -79q38 0 88 20v197l-156 -39q-3 -6 -7 -16t-10 -36t-3 -47z" />
<glyph unicode="&#xe3;" horiz-adv-x="970" d="M31 252q1 63 23.5 136t49.5 120l437 37v51q0 77 -70 80q-61 3 -142.5 -3t-132.5 -13l-51 -7l-10 183q158 38 440 38q42 0 81.5 -6.5t85 -25.5t79 -49.5t56 -84t22.5 -122.5v-586l-285 -16l-65 102q-104 -57 -182 -86q-67 -23 -111 -23q-104 0 -166 81.5t-59 193.5z M117 1040q7 145 64.5 220t144.5 75q53 0 101.5 -17t77 -37t63.5 -37t65 -17q28 0 43 20t24 80l154 -4q0 -297 -188 -297q-59 0 -120 30t-111.5 59.5t-84.5 29.5q-30 0 -47 -27.5t-19 -54.5l-1 -27zM365 272q9 -79 88 -79q38 0 88 20v197l-156 -39q-3 -6 -7 -16t-10 -36 t-3 -47z" />
<glyph unicode="&#xe4;" horiz-adv-x="970" d="M31 252q1 63 23.5 136t49.5 120l437 37v51q0 77 -70 80q-61 3 -142.5 -3t-132.5 -13l-51 -7l-10 183q158 38 440 38q42 0 81.5 -6.5t85 -25.5t79 -49.5t56 -84t22.5 -122.5v-586l-285 -16l-65 102q-104 -57 -182 -86q-67 -23 -111 -23q-104 0 -166 81.5t-59 193.5z M131 1178q0 60 44 101.5t106 41.5q63 0 107 -41.5t44 -101.5q0 -59 -44 -100.5t-107 -41.5q-62 0 -106 42t-44 100zM365 272q9 -79 88 -79q38 0 88 20v197l-156 -39q-3 -6 -7 -16t-10 -36t-3 -47zM541 1178q0 60 44 101.5t107 41.5q62 0 106 -41.5t44 -101.5q0 -58 -44 -100 t-106 -42q-63 0 -107 41.5t-44 100.5z" />
<glyph unicode="&#xe5;" horiz-adv-x="970" d="M31 252q1 63 23.5 136t49.5 120l437 37v51q0 77 -70 80q-61 3 -142.5 -3t-132.5 -13l-51 -7l-10 183q158 38 440 38q42 0 81.5 -6.5t85 -25.5t79 -49.5t56 -84t22.5 -122.5v-586l-285 -16l-65 102q-104 -57 -182 -86q-67 -23 -111 -23q-104 0 -166 81.5t-59 193.5z M209 1251q0 94 80.5 161t195.5 67q114 0 194.5 -67t80.5 -161t-80.5 -160.5t-194.5 -66.5q-115 0 -195.5 66.5t-80.5 160.5zM365 272q9 -79 88 -79q38 0 88 20v197l-156 -39q-3 -6 -7 -16t-10 -36t-3 -47zM375 1251q0 -53 28 -84.5t82 -31.5q53 0 81 31.5t28 84.5t-28.5 85 t-80.5 32q-54 0 -82 -32t-28 -85z" />
<glyph unicode="&#xe6;" horiz-adv-x="1581" d="M72 260q0 159 47 240l463 43v59q0 39 -15.5 61t-52.5 21q-63 -3 -147.5 -9t-137.5 -11l-53 -5v185q176 39 424 39q51 0 126 -20.5t110 -51.5q125 67 276 70q73 1 136 -16t118 -54t90.5 -104t42.5 -158q-14 -39 -35.5 -69t-35.5 -40l-15 -10l-452 -49q3 -49 16 -81.5 t36 -48t47 -21t58 -5.5q49 0 127 10.5t131 20.5l54 10l40 -186q-264 -84 -395 -90q-271 -8 -387 137q-10 -5 -278 -111q-64 -22 -113 -22q-103 0 -164 77t-61 189zM406 311q13 -80 90 -80q34 0 86 19v178l-156 -39q-3 -4 -7 -11.5t-10 -28t-3 -38.5zM958 512q172 25 205 33 q4 53 -15.5 88t-74.5 31q-52 -3 -80.5 -41t-31.5 -75z" />
<glyph unicode="&#xe7;" horiz-adv-x="901" d="M39 379q0 104 33 190t88 144t127 98t148 58t153 18q146 0 276 -49l-43 -203q-72 10 -157.5 16t-106.5 4q-85 -6 -126.5 -56t-41.5 -163q0 -119 46 -172t165 -53q26 0 83 8.5t101 17.5l43 9l39 -187q-19 -6 -72 -22.5t-80.5 -24.5t-72.5 -19t-85.5 -15.5t-80.5 -4.5 q-118 0 -215.5 44.5t-159 138.5t-61.5 223zM236 -434q7 0 19.5 1t44.5 6.5t56 13t44 23.5t20 36q0 36 -34 57t-68 24l-33 3l-21 84l191 180h209l-193 -168q8 -1 21 -3t46.5 -14.5t59.5 -31t47 -56t21 -86.5q0 -54 -43 -96.5t-104.5 -64.5t-123 -36t-104.5 -18l-43 -4z" />
<glyph unicode="&#xe8;" horiz-adv-x="974" d="M41 410q0 140 70.5 250t185.5 168.5t252 60.5q72 1 136.5 -18.5t119.5 -59.5t89.5 -109t41.5 -159q-14 -39 -35.5 -69t-36.5 -40l-14 -10l-451 -49q10 -160 152 -160q49 0 127 9.5t131 19.5l53 10l43 -184q-262 -91 -393 -97q-70 -3 -133 7t-126 39.5t-109 77.5 t-74.5 128t-28.5 185zM231 1294l162 158l350 -332l-100 -112zM395 512q172 25 205 33q2 24 -1 45.5t-11.5 43t-28.5 33t-49 9.5q-33 -2 -57 -19.5t-34.5 -41t-16.5 -47t-6 -40.5z" />
<glyph unicode="&#xe9;" horiz-adv-x="974" d="M41 410q0 140 70.5 250t185.5 168.5t252 60.5q72 1 136.5 -18.5t119.5 -59.5t89.5 -109t41.5 -159q-14 -39 -35.5 -69t-36.5 -40l-14 -10l-451 -49q10 -160 152 -160q49 0 127 9.5t131 19.5l53 10l43 -184q-262 -91 -393 -97q-70 -3 -133 7t-126 39.5t-109 77.5 t-74.5 128t-28.5 185zM231 1120l351 332l161 -158l-411 -286zM395 512q172 25 205 33q2 24 -1 45.5t-11.5 43t-28.5 33t-49 9.5q-33 -2 -57 -19.5t-34.5 -41t-16.5 -47t-6 -40.5z" />
<glyph unicode="&#xea;" horiz-adv-x="974" d="M41 410q0 140 70.5 250t185.5 168.5t252 60.5q72 1 136.5 -18.5t119.5 -59.5t89.5 -109t41.5 -159q-14 -39 -35.5 -69t-36.5 -40l-14 -10l-451 -49q10 -160 152 -160q49 0 127 9.5t131 19.5l53 10l43 -184q-262 -91 -393 -97q-70 -3 -133 7t-126 39.5t-109 77.5 t-74.5 128t-28.5 185zM129 1083l287 330h145l283 -328l-121 -94l-240 207l-233 -201zM395 512q172 25 205 33q2 24 -1 45.5t-11.5 43t-28.5 33t-49 9.5q-33 -2 -57 -19.5t-34.5 -41t-16.5 -47t-6 -40.5z" />
<glyph unicode="&#xeb;" horiz-adv-x="974" d="M41 410q0 140 70.5 250t185.5 168.5t252 60.5q72 1 136.5 -18.5t119.5 -59.5t89.5 -109t41.5 -159q-14 -39 -35.5 -69t-36.5 -40l-14 -10l-451 -49q10 -160 152 -160q49 0 127 9.5t131 19.5l53 10l43 -184q-262 -91 -393 -97q-70 -3 -133 7t-126 39.5t-109 77.5 t-74.5 128t-28.5 185zM133 1178q0 60 44 101.5t106 41.5q63 0 107 -41.5t44 -101.5q0 -59 -44 -100.5t-107 -41.5q-62 0 -106 42t-44 100zM395 512q172 25 205 33q2 24 -1 45.5t-11.5 43t-28.5 33t-49 9.5q-33 -2 -57 -19.5t-34.5 -41t-16.5 -47t-6 -40.5zM543 1178 q0 60 44 101.5t107 41.5q62 0 106 -41.5t44 -101.5q0 -58 -44 -100t-106 -42q-63 0 -107 41.5t-44 100.5z" />
<glyph unicode="&#xec;" horiz-adv-x="518" d="M4 1294l162 158l350 -332l-100 -112zM82 -16v876l358 17v-875z" />
<glyph unicode="&#xed;" horiz-adv-x="518" d="M4 1120l350 332l162 -158l-412 -286zM82 -16v876l358 17v-875z" />
<glyph unicode="&#xee;" horiz-adv-x="518" d="M-98 1083l286 330h146l282 -328l-120 -94l-240 207l-233 -201zM82 -16v876l358 17v-875z" />
<glyph unicode="&#xef;" horiz-adv-x="518" d="M-96 1178q0 60 43.5 101.5t105.5 41.5q63 0 107.5 -41.5t44.5 -101.5q0 -59 -44.5 -100.5t-107.5 -41.5q-61 0 -105 41.5t-44 100.5zM82 -16v876l358 17v-875zM313 1178q0 60 44.5 101.5t107.5 41.5q62 0 105.5 -41.5t43.5 -101.5q0 -59 -44 -100.5t-105 -41.5 q-63 0 -107.5 41.5t-44.5 100.5z" />
<glyph unicode="&#xf0;" horiz-adv-x="1210" d="M61 446q3 85 38 158.5t89 123.5t122.5 86t138 52.5t135.5 16.5q58 0 106 -18t98 -68q-37 180 -176 290l-225 -157l-108 135l167 115q-50 20 -102.5 32t-79.5 14l-28 3l63 211q214 -28 379 -101l221 150l100 -131l-161 -113q317 -237 301 -690q-9 -260 -163 -410.5 t-388 -150.5q-242 0 -388 122.5t-139 329.5zM410 449q0 -116 44.5 -173t141.5 -57q195 0 195 236q0 109 -44 162t-147 53q-80 0 -135 -53t-55 -168z" />
<glyph unicode="&#xf1;" horiz-adv-x="1134" d="M82 -16v876l305 19l51 -99q23 11 59.5 26.5t121.5 41.5t135 26q153 0 231.5 -110t75.5 -320v-444l-356 -16v450q0 111 -30 164t-110 53q-62 0 -127 -26v-625zM199 1040q7 145 64.5 220t144.5 75q53 0 101.5 -17t77 -37t63.5 -37t65 -17q28 0 43 20t24 80l154 -4 q0 -297 -188 -297q-59 0 -120 30t-111.5 59.5t-84.5 29.5q-30 0 -47 -27.5t-19 -54.5l-1 -27z" />
<glyph unicode="&#xf2;" horiz-adv-x="1101" d="M41 414q0 208 153.5 341.5t389.5 133.5q137 0 244 -49t171 -151t64 -243q0 -140 -76 -250t-195.5 -166.5t-256.5 -56.5t-248.5 51t-178.5 153t-67 237zM295 1294l162 158l350 -332l-100 -112zM393 438q0 -252 158 -252q89 0 123.5 61t34.5 187q0 129 -34 189.5t-116 60.5 q-166 0 -166 -246z" />
<glyph unicode="&#xf3;" horiz-adv-x="1101" d="M41 414q0 208 153.5 341.5t389.5 133.5q137 0 244 -49t171 -151t64 -243q0 -140 -76 -250t-195.5 -166.5t-256.5 -56.5t-248.5 51t-178.5 153t-67 237zM295 1120l350 332l162 -158l-412 -286zM393 438q0 -252 158 -252q89 0 123.5 61t34.5 187q0 129 -34 189.5t-116 60.5 q-166 0 -166 -246z" />
<glyph unicode="&#xf4;" horiz-adv-x="1101" d="M41 414q0 208 153.5 341.5t389.5 133.5q137 0 244 -49t171 -151t64 -243q0 -140 -76 -250t-195.5 -166.5t-256.5 -56.5t-248.5 51t-178.5 153t-67 237zM193 1083l286 330h146l282 -328l-121 -94l-239 207l-234 -201zM393 438q0 -252 158 -252q89 0 123.5 61t34.5 187 q0 129 -34 189.5t-116 60.5q-166 0 -166 -246z" />
<glyph unicode="&#xf5;" horiz-adv-x="1101" d="M41 414q0 208 153.5 341.5t389.5 133.5q137 0 244 -49t171 -151t64 -243q0 -140 -76 -250t-195.5 -166.5t-256.5 -56.5t-248.5 51t-178.5 153t-67 237zM182 1040q7 145 64.5 220t144.5 75q53 0 101.5 -17t77 -37t63.5 -37t65 -17q28 0 43.5 20t24.5 80l154 -4 q0 -139 -45.5 -218t-143.5 -79q-59 0 -119.5 30t-111 59.5t-84.5 29.5q-30 0 -47 -27.5t-19 -54.5l-2 -27zM393 438q0 -252 158 -252q89 0 123.5 61t34.5 187q0 129 -34 189.5t-116 60.5q-166 0 -166 -246z" />
<glyph unicode="&#xf6;" horiz-adv-x="1101" d="M41 414q0 208 153.5 341.5t389.5 133.5q137 0 244 -49t171 -151t64 -243q0 -140 -76 -250t-195.5 -166.5t-256.5 -56.5t-248.5 51t-178.5 153t-67 237zM195 1178q0 60 43.5 101.5t105.5 41.5q63 0 107.5 -41.5t44.5 -101.5q0 -59 -44.5 -100.5t-107.5 -41.5 q-61 0 -105 41.5t-44 100.5zM393 438q0 -252 158 -252q89 0 123.5 61t34.5 187q0 129 -34 189.5t-116 60.5q-166 0 -166 -246zM604 1178q0 60 44.5 101.5t107.5 41.5q62 0 105.5 -41.5t43.5 -101.5q0 -59 -44 -100.5t-105 -41.5q-63 0 -107.5 41.5t-44.5 100.5z" />
<glyph unicode="&#xf7;" horiz-adv-x="1230" d="M127 522l6 226h985l-8 -226h-983zM430 279q0 67 57.5 114t139.5 47q80 0 137 -47t57 -114q0 -66 -57 -113t-137 -47q-82 0 -139.5 47t-57.5 113zM438 987q0 67 57.5 114.5t137.5 47.5q82 0 139 -47t57 -115q0 -66 -57.5 -114t-138.5 -48q-79 0 -137 48t-58 114z" />
<glyph unicode="&#xf8;" horiz-adv-x="1214" d="M33 -12l155 166q-94 115 -94 274q0 137 70 246.5t194 170t279 60.5q121 0 221 -41l158 170l160 -139l-148 -154q90 -114 90 -278q0 -141 -77 -251t-196.5 -166t-256.5 -56q-128 0 -232 43l-176 -185zM449 430l237 252q-30 18 -74 18q-163 0 -163 -247v-23zM532 219 q29 -16 72 -16q90 0 125 60t35 186v14z" />
<glyph unicode="&#xf9;" horiz-adv-x="1091" d="M70 379v481l356 17v-484q0 -162 141 -162q14 0 35.5 5.5t35.5 10.5l15 5v608l357 17v-877l-254 -16q-21 26 -66 114q-13 -6 -57 -27t-67.5 -31t-62.5 -24.5t-73.5 -21t-67.5 -6.5q-140 -3 -216 92t-76 299zM289 1294l162 158l350 -332l-101 -112z" />
<glyph unicode="&#xfa;" horiz-adv-x="1091" d="M70 379v481l356 17v-484q0 -162 141 -162q14 0 35.5 5.5t35.5 10.5l15 5v608l357 17v-877l-254 -16q-21 26 -66 114q-13 -6 -57 -27t-67.5 -31t-62.5 -24.5t-73.5 -21t-67.5 -6.5q-140 -3 -216 92t-76 299zM289 1120l350 332l162 -158l-412 -286z" />
<glyph unicode="&#xfb;" horiz-adv-x="1091" d="M70 379v481l356 17v-484q0 -162 141 -162q14 0 35.5 5.5t35.5 10.5l15 5v608l357 17v-877l-254 -16q-21 26 -66 114q-13 -6 -57 -27t-67.5 -31t-62.5 -24.5t-73.5 -21t-67.5 -6.5q-140 -3 -216 92t-76 299zM188 1083l287 330h146l282 -328l-121 -94l-239 207l-234 -201z " />
<glyph unicode="&#xfc;" horiz-adv-x="1091" d="M70 379v481l356 17v-484q0 -162 141 -162q14 0 35.5 5.5t35.5 10.5l15 5v608l357 17v-877l-254 -16q-21 26 -66 114q-13 -6 -57 -27t-67.5 -31t-62.5 -24.5t-73.5 -21t-67.5 -6.5q-140 -3 -216 92t-76 299zM190 1178q0 60 44 101.5t106 41.5q63 0 107.5 -41.5 t44.5 -101.5q0 -59 -44.5 -100.5t-107.5 -41.5q-62 0 -106 42t-44 100zM600 1178q0 60 44.5 101.5t107.5 41.5q62 0 105.5 -41.5t43.5 -101.5q0 -59 -44 -100.5t-105 -41.5q-63 0 -107.5 41.5t-44.5 100.5z" />
<glyph unicode="&#xfd;" horiz-adv-x="1054" d="M12 827l357 58l153 -621h19l219 621l289 -58l-502 -1302l-289 45l152 418h-91zM270 1120l351 332l161 -158l-411 -286z" />
<glyph unicode="&#xfe;" horiz-adv-x="1177" d="M156 -453v1784l356 19v-521q107 25 209 31q187 12 278 -94.5t88 -335.5q-1 -74 -17 -139t-50.5 -122.5t-84.5 -98.5t-123.5 -64.5t-164.5 -23.5q-63 0 -139 12l4 -428zM512 209q77 -25 104 -25q57 0 90 53t33 189q0 117 -29.5 174t-111.5 57q-36 0 -86 -12v-436z" />
<glyph unicode="&#xff;" horiz-adv-x="1054" d="M12 827l357 58l153 -621h19l219 621l289 -58l-502 -1302l-289 45l152 418h-91zM172 1178q0 60 44 101.5t106 41.5q63 0 107 -41.5t44 -101.5q0 -59 -44 -100.5t-107 -41.5q-62 0 -106 42t-44 100zM582 1178q0 60 44 101.5t107 41.5q62 0 106 -41.5t44 -101.5 q0 -58 -44 -100t-106 -42q-63 0 -107 41.5t-44 100.5z" />
<glyph unicode="&#x152;" horiz-adv-x="2150" d="M90 662q0 204 88 365.5t238.5 250t333.5 88.5q181 0 323 -139v106h895v-225h-510v-293h461v-219h-461v-358h535v-238h-916v141q-160 -170 -370 -170q-99 0 -187 22t-168 74t-137 130t-91 197t-34 268zM494 676q0 -101 18.5 -181.5t48.5 -131t70.5 -84t81 -47t82.5 -13.5 q74 0 150.5 42.5t129.5 123.5l-2 594q-95 143 -276 143q-30 0 -62 -9t-67 -28.5t-65.5 -54.5t-55 -82.5t-39 -117.5t-14.5 -154z" />
<glyph unicode="&#x153;" horiz-adv-x="1703" d="M55 426q0 210 153.5 343.5t389.5 133.5q162 0 303 -127q142 108 340 111q57 1 111 -10t104 -37t88.5 -65t64 -98t31.5 -132q-14 -39 -35 -69.5t-35 -41.5l-14 -10l-452 -49q8 -79 39.5 -114.5t111.5 -35.5q50 0 128 9.5t131 18.5l53 9l45 -180q-31 -11 -80.5 -26.5 t-159.5 -42.5t-168 -29q-102 -5 -198 25.5t-164 96.5q-145 -118 -293 -118q-137 0 -248 50.5t-178.5 151.5t-67.5 236zM408 453q0 -117 35 -184.5t122 -67.5q89 0 123.5 59.5t34.5 185.5q0 130 -34 191t-116 61q-165 0 -165 -245zM1087 526q172 25 205 33q2 56 -17.5 97.5 t-72.5 37.5q-33 -2 -57 -20t-34.5 -42t-16.5 -48.5t-6 -41.5z" />
<glyph unicode="&#x178;" horiz-adv-x="1429" d="M117 1284l401 70l250 -555h27l262 553l344 -76l-469 -780v-496l-383 -16v518zM408 1651q0 60 43.5 101.5t105.5 41.5q63 0 107.5 -41.5t44.5 -101.5q0 -59 -44.5 -100.5t-107.5 -41.5q-61 0 -105 41.5t-44 100.5zM817 1651q0 60 44.5 101.5t107.5 41.5q62 0 105.5 -41.5 t43.5 -101.5q0 -59 -44 -100.5t-105 -41.5q-63 0 -107.5 41.5t-44.5 100.5z" />
<glyph unicode="&#x2c6;" horiz-adv-x="952" d="M111 1083l286 330h146l282 -328l-120 -94l-240 207l-234 -201z" />
<glyph unicode="&#x2dc;" horiz-adv-x="921" d="M90 1040q7 145 64.5 220t144.5 75q53 0 101.5 -17t77 -37t63.5 -37t65 -17q28 0 43.5 20t24.5 80l153 -4q0 -297 -188 -297q-59 0 -119.5 30t-111 59.5t-84.5 29.5q-30 0 -47 -27.5t-19 -54.5l-2 -27z" />
<glyph unicode="&#x2000;" horiz-adv-x="976" />
<glyph unicode="&#x2001;" horiz-adv-x="1952" />
<glyph unicode="&#x2002;" horiz-adv-x="976" />
<glyph unicode="&#x2003;" horiz-adv-x="1952" />
<glyph unicode="&#x2004;" horiz-adv-x="650" />
<glyph unicode="&#x2005;" horiz-adv-x="488" />
<glyph unicode="&#x2006;" horiz-adv-x="325" />
<glyph unicode="&#x2007;" horiz-adv-x="325" />
<glyph unicode="&#x2008;" horiz-adv-x="244" />
<glyph unicode="&#x2009;" horiz-adv-x="390" />
<glyph unicode="&#x200a;" horiz-adv-x="108" />
<glyph unicode="&#x2010;" horiz-adv-x="843" d="M74 395v213h692v-213h-692z" />
<glyph unicode="&#x2011;" horiz-adv-x="843" d="M74 395v213h692v-213h-692z" />
<glyph unicode="&#x2012;" horiz-adv-x="843" d="M74 395v213h692v-213h-692z" />
<glyph unicode="&#x2013;" horiz-adv-x="1112" d="M80 375l4 233h944l-6 -233h-942z" />
<glyph unicode="&#x2014;" horiz-adv-x="2191" d="M80 375l4 233h2027l-6 -233h-2025z" />
<glyph unicode="&#x2018;" horiz-adv-x="675" d="M115 981q0 92 39 178q25 55 71 108.5t93.5 91t91.5 66.5t72 43l28 15l104 -117q-101 -87 -168 -199q-19 -37 17 -57q86 -54 86 -152q0 -81 -59 -139.5t-160 -58.5q-110 0 -162.5 62t-52.5 159z" />
<glyph unicode="&#x2019;" horiz-adv-x="675" d="M70 844q95 80 168 196q19 37 -17 60q-86 50 -86 151q0 81 59 140t160 59q110 0 162.5 -62t52.5 -159q0 -93 -41 -180q-25 -55 -70.5 -108.5t-92.5 -91t-91 -66.5t-72 -43l-28 -15z" />
<glyph unicode="&#x201a;" horiz-adv-x="655" d="M72 -285q107 92 166 199q22 36 -15 57q-86 54 -86 152q0 81 59 140t160 59q110 0 162.5 -62t52.5 -160q0 -94 -41 -178q-25 -55 -70.5 -108.5t-92.5 -90.5t-91 -66.5t-72 -43.5l-28 -14z" />
<glyph unicode="&#x201c;" horiz-adv-x="1189" d="M109 981q0 94 41 178q25 55 70.5 108.5t92.5 91t91 66.5t72 43l28 15l104 -117q-107 -92 -166 -199q-22 -36 15 -57q86 -54 86 -152q0 -81 -59 -139.5t-160 -58.5q-110 0 -162.5 62t-52.5 159zM612 981q0 92 39 178q25 55 71 108.5t94 91t92 66.5t72 43l28 15l104 -117 q-101 -87 -168 -199q-19 -37 17 -57q86 -57 86 -152q0 -81 -59.5 -139.5t-160.5 -58.5q-110 0 -162.5 62t-52.5 159z" />
<glyph unicode="&#x201d;" horiz-adv-x="1189" d="M72 844q104 85 168 196q19 36 -15 60q-88 51 -88 151q0 81 60 140t161 59q109 0 162 -63t53 -160q0 -85 -41 -178q-25 -55 -70.5 -108.5t-92.5 -91t-91 -66.5t-72 -43l-28 -15zM549 844q93 76 168 196q19 37 -17 60q-86 52 -86 151q0 81 59.5 140t160.5 59 q110 0 162.5 -62.5t52.5 -160.5q0 -89 -39 -178q-25 -55 -71 -108.5t-93.5 -91t-91 -66.5t-71.5 -43l-28 -15z" />
<glyph unicode="&#x201e;" horiz-adv-x="1159" d="M47 -285q99 83 168 199q19 37 -14 57q-88 55 -88 152q0 81 59 140t160 59q110 0 162.5 -62t52.5 -160q0 -92 -39 -178q-25 -55 -70.5 -108.5t-92.5 -90.5t-91 -66.5t-72 -43.5l-28 -14zM557 -285q107 92 166 199q22 37 -14 57q-86 54 -86 152q0 81 59 140t160 59 q110 0 162.5 -62t52.5 -160q0 -94 -41 -178q-25 -55 -70.5 -108.5t-92.5 -90.5t-91 -66.5t-72 -43.5l-28 -14z" />
<glyph unicode="&#x2022;" horiz-adv-x="931" d="M147 518q0 132 95.5 226t230.5 94t230.5 -94t95.5 -226t-95.5 -224.5t-230.5 -92.5t-230.5 92.5t-95.5 224.5z" />
<glyph unicode="&#x2026;" horiz-adv-x="2109" d="M145 135q0 78 61.5 133.5t147.5 55.5q87 0 148 -55.5t61 -133.5t-60.5 -133t-148.5 -55q-86 0 -147.5 55t-61.5 133zM842 135q0 78 61.5 133.5t149.5 55.5q86 0 147.5 -55.5t61.5 -133.5t-61.5 -133t-147.5 -55q-88 0 -149.5 55t-61.5 133zM1540 135q0 78 61.5 133.5 t149.5 55.5q86 0 147.5 -55.5t61.5 -133.5t-61.5 -133t-147.5 -55q-88 0 -149.5 55t-61.5 133z" />
<glyph unicode="&#x202f;" horiz-adv-x="390" />
<glyph unicode="&#x2039;" horiz-adv-x="675" d="M106 367v157l367 334l135 -100l-233 -309l231 -314l-139 -100z" />
<glyph unicode="&#x203a;" horiz-adv-x="675" d="M78 758l137 100l367 -334v-157l-363 -332l-137 100l229 314z" />
<glyph unicode="&#x205f;" horiz-adv-x="488" />
<glyph unicode="&#x20ac;" horiz-adv-x="1396" d="M29 410v168h106q0 19 4 73q0 11 2 17h-112v168h147q81 257 279 390.5t469 119.5q83 -4 180.5 -28.5t153.5 -46.5l57 -22l-68 -217q-22 9 -59 22.5t-130 35t-161 18.5q-249 -9 -348 -272h319v-168h-354q-2 -12 -2 -35q-3 -31 0 -55h356v-168h-323q69 -173 303 -179 q67 -3 171.5 20.5t175.5 48.5l71 24l67 -205q-118 -60 -266 -98.5t-281 -38.5q-145 0 -271.5 47t-222.5 145.5t-134 235.5h-129z" />
<glyph unicode="&#x2122;" horiz-adv-x="1363" d="M70 1212v117h534v-117h-190v-415l-164 -9l2 424h-182zM639 788l41 541l172 6l127 -346l119 340l190 6l35 -542l-149 -2l-17 358l-121 -356l-141 -5l-92 349l-21 -340z" />
<glyph unicode="&#x25fc;" horiz-adv-x="860" d="M0 0v860h860v-860h-860z" />
</font>
</defs>
</svg>
