<?xml version="1.0" standalone="no"?>
<!DOCTYPE svg PUBLIC "-//W3C//DTD SVG 1.1//EN" "http://www.w3.org/Graphics/SVG/1.1/DTD/svg11.dtd" >
<svg xmlns="http://www.w3.org/2000/svg">
<metadata></metadata>
<defs>
<font id="arumsansregularitalic" horiz-adv-x="1048" >
<font-face units-per-em="2048" ascent="1536" descent="-512" />
<missing-glyph horiz-adv-x="409" />
<glyph unicode="&#xfb01;" horiz-adv-x="1013" d="M-186 -250l47 98q41 -16 96 -20q156 -12 203 217l143 719l-153 16l14 80h158l24 123q24 127 129 229.5t207 110.5q35 2 132 -15.5t177 -35.5l80 -19l-45 -98q-287 64 -342 68q-80 6 -130.5 -46.5t-72.5 -164.5l-30 -152h499l-166 -860l-135 -12l152 772l-369 2l-135 -694 q-24 -126 -131 -229t-209 -111q-34 -2 -69.5 3.5t-54.5 12.5z" />
<glyph unicode="&#xfb02;" horiz-adv-x="1034" d="M-186 -250l47 98q41 -16 96 -20q156 -12 203 217l141 719l-151 16l14 80h155l25 123q24 127 130 229.5t208 110.5q12 1 31.5 -1t42.5 -6t49 -9.5t52.5 -11.5t51.5 -12t47.5 -11.5t38.5 -10t27 -7.5l12 -3l-241 -1251l-138 -8l234 1184q-44 9 -116.5 27t-90.5 20 q-78 6 -128.5 -46.5t-72.5 -164.5l-30 -152h229l-18 -98h-230l-135 -694q-26 -127 -132 -229.5t-208 -110.5q-34 -2 -69.5 3.5t-54.5 12.5z" />
<glyph unicode="&#xfb03;" horiz-adv-x="1511" d="M-182 -250l47 98q41 -16 96 -20q74 -5 124.5 41.5t70.5 140.5q8 39 64.5 329t84.5 431l-153 14l18 80h154l22 123q17 85 74 163.5t129.5 125.5t136.5 51q26 2 80 -7t102 -21t99 -25t57 -14q79 61 156 67q36 3 133.5 -14t177.5 -35l80 -18l-45 -101q-287 66 -344 70 q-159 12 -203 -213l-29 -152h496l-168 -860l-135 -10l151 772l-364 2l-135 -700q-24 -126 -131 -229t-209 -111q-34 -2 -70 3.5t-55 12.5l-19 6l47 98q42 -16 97 -20q149 -12 196 192l148 748h-365l-133 -700q-24 -126 -131 -229t-209 -111q-34 -2 -69.5 3.5t-54.5 12.5z M455 864h364l23 123q17 93 88 184q-36 7 -129 31.5t-117 26.5q-157 12 -201 -213z" />
<glyph unicode="&#xfb04;" horiz-adv-x="1523" d="M-184 -250l47 98q41 -16 96 -20q76 -5 127.5 42t69.5 144l147 756l-151 14l16 80h156l22 123q25 128 131.5 231t206.5 109q26 2 82 -7.5t105.5 -21t101.5 -25t53 -13.5q83 61 160 67q35 3 124 -15t154 -34.5t76 -20.5l-248 -1257l-129 -6l230 1186q-45 9 -117 28t-90 21 q-157 12 -201 -213l-29 -152h230l-21 -96h-229l-135 -700q-24 -126 -131 -229t-209 -111q-34 -2 -70 3.5t-55 12.5l-19 6l48 98q41 -16 96 -20q153 -9 194 182q8 36 33.5 166.5t60 306t56.5 285.5h-371l-135 -700q-24 -126 -131 -229t-209 -111q-34 -2 -69.5 3.5t-54.5 12.5 zM455 864h370l23 123q18 98 86 182q-32 7 -88.5 22t-100 25.5t-61.5 12.5q-157 12 -201 -213z" />
<glyph horiz-adv-x="2048" />
<glyph horiz-adv-x="2048" />
<glyph unicode="&#xd;" horiz-adv-x="2048" />
<glyph unicode=" "  horiz-adv-x="409" />
<glyph unicode="&#x09;" horiz-adv-x="409" />
<glyph unicode="&#xa0;" horiz-adv-x="409" />
<glyph unicode="!" horiz-adv-x="518" d="M90 94q9 43 43.5 74t75.5 31t64 -31t14 -74q-8 -43 -42 -73.5t-75 -30.5t-64.5 30.5t-15.5 73.5zM186 309l166 1024l160 15l-236 -1033z" />
<glyph unicode="&#x22;" horiz-adv-x="628" d="M195 971q22 115 32.5 230.5t10.5 174.5v58l147 8q-37 -198 -88 -455zM475 971q22 115 32 230.5t9 174.5v58l148 8q-38 -198 -89 -455z" />
<glyph unicode="#" d="M135 401l19 103h178l102 291h-182l20 102h197l125 363h113l-127 -363h211l124 363h109l-129 -363h170l-21 -102h-184l-104 -291h194l-18 -103h-211l-139 -401h-103l139 401h-212l-142 -401h-104l139 401h-164zM438 504h215l101 291h-211z" />
<glyph unicode="$" horiz-adv-x="944" d="M63 207l66 98q15 -11 41.5 -29t97 -54t127.5 -50l90 465q-59 23 -103 47t-84.5 59.5t-59 85t-11.5 109.5q13 115 123.5 199t251.5 100l41 213l102 6l-43 -213q118 -2 254 -69l-61 -121q-11 9 -29.5 22t-74 38t-107.5 30l-80 -412q56 -21 96 -44t79 -60t56 -92t11 -125 q-14 -132 -120.5 -232t-250.5 -112l-41 -205l-100 -6l41 215q-48 8 -97.5 24.5t-86.5 35.5t-67 36.5t-46 29.5zM362 922q-6 -59 32.5 -94t115.5 -64l74 377q-94 -15 -154.5 -73.5t-67.5 -145.5zM494 168q117 10 169 76t62 172q7 63 -32 104.5t-115 77.5z" />
<glyph unicode="%" horiz-adv-x="1363" d="M127 1026q18 82 58 146.5t88.5 102t98.5 56.5t95 19q246 0 377 2q59 1 133 5t118 7l44 4l39 -70l-934 -1357l-66 49l869 1286q-236 -8 -396 -8q29 -41 37.5 -114.5t-6.5 -152.5q-15 -78 -54.5 -143.5t-90 -107t-105 -64t-104.5 -22.5q-120 0 -178 102t-23 260zM242 1014 q-25 -126 5.5 -194t100.5 -68q36 0 65 11t58 39t51.5 82.5t38.5 135.5q23 118 -8 183t-102 65q-160 0 -209 -254zM698 348q15 71 57 134.5t92.5 103.5t101 63t87.5 23q127 0 185 -93t30 -255q-23 -133 -129 -232.5t-223 -105.5q-119 -6 -177 98t-24 264zM813 336 q-24 -127 5.5 -194.5t99.5 -67.5t130 69.5t85 198.5q23 119 -8.5 183.5t-104.5 64.5q-26 0 -54.5 -13.5t-58.5 -41.5t-55.5 -80t-38.5 -119z" />
<glyph unicode="&#x26;" horiz-adv-x="1275" d="M36.5 317.5q0.5 47.5 12.5 92.5q20 66 58.5 125t87 102t95.5 73.5t97 53.5q-78 91 -95.5 156.5t-4.5 144.5q18 111 119.5 200.5t228.5 88.5q145 -2 223.5 -96.5t36.5 -231.5q-11 -35 -30.5 -67t-45.5 -57t-49.5 -45t-54.5 -37.5t-48.5 -27t-42.5 -21t-26 -11.5 q76 -72 159.5 -180.5t141.5 -212.5q50 53 90 117.5t61.5 118.5t36 101t19.5 74l4 27h133q-27 -136 -106 -277t-185 -254q28 -55 67.5 -116t64.5 -95l26 -34l-141 -72q-70 113 -125 217q-108 -90 -215 -137t-238 -47q-74 0 -134.5 19t-101 51t-68 74t-39.5 89t-11.5 94.5z M191.5 263.5q12.5 -46.5 36 -78t61.5 -50.5t75 -27t76 -8q84 0 169.5 33.5t187.5 124.5q-86 142 -165.5 249.5t-168.5 178.5q-9 -4 -25 -12t-57.5 -37t-75.5 -62.5t-67.5 -88t-44.5 -113.5q-14 -63 -1.5 -109.5zM426 1071q-15 -74 11 -137t87 -103q1 1 27 13t46 22 t51.5 31.5t54.5 43t45 53.5t32 67q28 89 -23.5 146.5t-133.5 52.5q-89 -6 -134 -53t-63 -136z" />
<glyph unicode="'" horiz-adv-x="358" d="M178 971q22 115 32 230.5t10 174.5l-1 58l148 8q-37 -198 -88 -455z" />
<glyph unicode="(" horiz-adv-x="684" d="M135.5 410q1.5 115 28.5 233q25 111 70 216t97.5 184t109.5 149t109.5 118t94.5 82.5t67 51.5l25 16l54 -63q-8 -6 -23 -17t-58.5 -50t-85 -82.5t-95.5 -114t-97.5 -145.5t-83 -175.5t-59.5 -204.5q-27 -154 -20 -281t38.5 -225t66.5 -165t63 -101l28 -35l-80 -80 q-7 7 -19.5 20.5t-46.5 61t-63 99.5t-59.5 135t-46.5 170.5t-14.5 202.5z" />
<glyph unicode=")" horiz-adv-x="684" d="M-49 -199q8 5 22.5 16t56.5 49t82 81t92 114.5t94 148.5t80 182t58 216q24 149 14 272t-43.5 218.5t-69.5 161t-65 99.5l-28 34l75 67q4 -3 11.5 -10t29 -31t41.5 -51.5t46.5 -74t47.5 -96.5t39.5 -119.5t27 -143.5t7 -168t-17.5 -193q-18 -110 -58 -216t-90 -188 t-106.5 -156t-109.5 -126t-96 -90.5t-69 -56.5l-26 -19z" />
<glyph unicode="*" horiz-adv-x="737" d="M113 993l233 125l-199 137l70 82l172 -151l35 260h108l-63 -260l211 145l43 -88l-240 -125l185 -121l-64 -92l-162 148l-36 -258h-107l63 258l-208 -148z" />
<glyph unicode="+" horiz-adv-x="1024" d="M90 567l4 101h369v379l117 4v-383h372l-6 -101h-366v-405l-117 -8v413h-373z" />
<glyph unicode="," horiz-adv-x="499" d="M20 -246q6 4 15 11.5t34.5 29t46 42.5t41.5 49t29 51q2 5 3 9.5t1.5 7.5t-1 6t-2.5 4.5t-4 3.5t-4.5 2.5t-5.5 2.5t-5 2q-25 16 -38 45t-7 64q9 47 44.5 81t76.5 34q62 0 91 -49t17.5 -117.5t-57.5 -124.5q-36 -42 -94 -93.5t-98 -82.5l-40 -31z" />
<glyph unicode="-" horiz-adv-x="614" d="M59 438l21 109h459l-21 -109h-459z" />
<glyph unicode="." horiz-adv-x="499" d="M125 88q0 43 31 79t82 36h2q55 0 79.5 -34.5t24.5 -74.5q0 -46 -33 -79t-80 -33q-50 0 -78 29.5t-28 76.5z" />
<glyph unicode="/" horiz-adv-x="806" d="M-96 -90l891 1530l82 -37l-893 -1530z" />
<glyph unicode="0" d="M89.5 448.5q8.5 100.5 35.5 217.5q30 130 90 254.5t136 221t168 155.5t181 59q199 0 265 -183.5t-9 -539.5q-30 -137 -119.5 -290t-210.5 -260.5t-223 -107.5q-94 0 -160.5 36t-101.5 98t-47.5 150.5t-4 189zM237 438q-6 -99 9.5 -176t61.5 -119.5t120 -42.5q86 0 164 74 t134.5 199.5t88.5 285.5q58 298 16.5 435.5t-172.5 140.5q-98 2 -164.5 -48t-120.5 -175.5t-104 -352.5q-27 -122 -33 -221z" />
<glyph unicode="1" d="M266 1137l514 211l-260 -1348h-141l223 1139l-307 -92z" />
<glyph unicode="2" d="M27 90q14 9 39 25.5t98.5 70t142 108t155.5 134.5t154 156.5t123 166.5t76 171q14 49 5.5 102.5t-30.5 99t-68.5 76t-107.5 33.5q-64 4 -160 -25.5t-160 -60.5l-65 -31l-59 105q77 43 196 85t242 46q194 6 293.5 -129t46.5 -344q-19 -77 -70 -160.5t-118 -156 t-143.5 -142.5t-149.5 -125t-132.5 -97t-95.5 -64l-36 -23h665l-14 -111h-821z" />
<glyph unicode="3" d="M35 37l49 108q135 -33 315 -39q158 -4 235.5 53t102.5 189q29 156 -51.5 227t-243.5 66l-106 -2l20 119q61 -5 135.5 7.5t146 41t123.5 81t60 118.5q13 106 -26 167t-148 70q-77 1 -175 -29t-157 -60l-59 -30l-35 117q210 111 416 111q55 0 106.5 -12.5t96 -40t75 -66.5 t43 -96t0.5 -125q-20 -112 -127 -198.5t-233 -104.5q107 0 176.5 -47t94.5 -123t10 -170q-31 -200 -163 -297t-337 -97q-45 0 -131 15.5t-150 31.5z" />
<glyph unicode="4" d="M16 457l801 889l133 -15l-170 -876h211l-30 -107h-201l-70 -348h-139l72 348h-551zM162 459l481 -2l139 692z" />
<glyph unicode="5" d="M25 45l51 109q122 -30 231 -48q170 -29 274 65t146 280q21 122 -35 199t-188 77q-52 0 -106.5 -11.5t-83.5 -22.5l-29 -11l-82 68l196 585h635l-22 -116h-510l-137 -392q72 29 170 29q74 0 134 -20t97.5 -53t64.5 -77t35.5 -91t11.5 -95t-8 -90q-37 -192 -190 -318 t-383 -126q-45 0 -113 15t-114 29z" />
<glyph unicode="6" d="M119 461q26 132 80 257t140.5 246t216 226t290.5 176q31 -60 37 -80q-155 -81 -304 -239t-235 -345q74 61 126 81.5t114 25.5q168 12 260.5 -100t62.5 -308q-18 -116 -96.5 -214.5t-184 -152.5t-208.5 -54q-166 0 -250 136.5t-49 344.5zM264 432q-29 -143 28 -238.5 t161 -95.5q138 0 213.5 72.5t101.5 243.5q20 134 -33.5 209t-163.5 75q-127 0 -202.5 -58t-104.5 -208z" />
<glyph unicode="7" d="M182 1223v110h817l35 -110q-15 -16 -42 -46.5t-107 -141.5t-156 -240.5t-174 -344t-176 -450.5l-160 -12q7 25 22.5 70t72.5 183.5t126.5 278t188.5 334t254 369.5h-701z" />
<glyph unicode="8" d="M45.5 253.5q-16.5 77.5 11.5 170.5q32 102 111.5 174.5t196.5 140.5q-157 105 -119 287q29 137 154 234t262 100q161 4 244 -95.5t52 -242.5q-11 -58 -47.5 -114t-80 -95t-78.5 -63.5t-56 -34.5q48 -24 84 -48.5t65 -58.5t43 -73.5t14 -91.5t-17 -113 q-43 -149 -190.5 -244t-299.5 -90q-87 3 -161 35.5t-123 88.5t-65.5 133.5zM197 367q-13 -124 50 -187t199 -63q241 0 302 231q7 34 9 65.5t-15 64.5t-51 65.5t-97 68t-154 72.5q-34 -18 -65.5 -41t-72.5 -62.5t-69.5 -95t-35.5 -118.5zM381 1016q-5 -38 7 -73t32 -59.5 t56.5 -51t63.5 -41.5t70 -37q20 9 46 28t59.5 52.5t61.5 86t40 113.5q19 95 -33.5 158.5t-146.5 58.5q-225 -11 -256 -235z" />
<glyph unicode="9" d="M166 954q18 94 73 172.5t126 127.5t147.5 75.5t144.5 26.5q109 0 186 -65t106.5 -175t6.5 -242q-23 -107 -62.5 -209t-101.5 -204.5t-141.5 -191t-187.5 -167t-234 -133.5q-37 41 -41 74q150 78 310.5 253.5t249.5 365.5q-144 -125 -256 -136q-177 -17 -270.5 107 t-55.5 321zM307 940q-20 -163 35.5 -234t161.5 -71q31 0 64.5 7.5t72.5 26.5t71.5 48t59.5 77.5t39 108.5q27 142 -29 237t-159 97q-147 3 -222.5 -73.5t-93.5 -223.5z" />
<glyph unicode=":" horiz-adv-x="499" d="M84 88q0 43 31 79t82 36h2q55 0 79.5 -34.5t24.5 -74.5q0 -46 -33 -79t-80 -33q-50 0 -78 29.5t-28 76.5zM199 735q0 44 30.5 79.5t81.5 35.5h2q55 0 80 -34.5t25 -74.5q0 -46 -33 -79t-80 -33q-50 0 -78 29.5t-28 76.5z" />
<glyph unicode=";" horiz-adv-x="499" d="M-18 -246q15 11 38.5 30t68.5 68t58 85q2 5 3 9.5t1.5 7.5t-1 6t-2.5 4.5t-4 3.5t-4.5 2.5t-5.5 2.5t-5 2q-25 16 -38 45t-7 64q9 47 44.5 81t76.5 34q62 0 91 -49t17.5 -117.5t-57.5 -124.5q-36 -42 -93.5 -93.5t-97.5 -82.5l-40 -31zM201 737q0 44 30.5 79.5t81.5 35.5 h2q55 0 80 -34.5t25 -74.5q0 -46 -33 -79t-80 -33q-50 0 -78 29.5t-28 76.5z" />
<glyph unicode="&#x3c;" d="M207 442v86l586 426l67 -94l-520 -366l516 -398l-65 -90z" />
<glyph unicode="=" d="M102 401l4 99h859l-7 -99h-856zM102 711l4 98h859l-7 -98h-856z" />
<glyph unicode="&#x3e;" d="M221 864l66 94l585 -426v-86l-583 -436l-66 90l516 398z" />
<glyph unicode="?" horiz-adv-x="880" d="M213 88q0 43 31 79t82 36h2q55 0 79.5 -34.5t24.5 -74.5q0 -46 -33 -79t-80 -33q-50 0 -78 29.5t-28 76.5zM213 1268q251 117 434 69q76 -20 126.5 -68t70 -127.5t-12.5 -187.5q-22 -74 -77 -140.5t-118 -110.5t-123 -77.5t-102 -55.5t-44 -31q-4 -16 -8 -62.5t-5 -84.5 l-2 -38l-90 -12q-2 9 -5.5 24t-11 54.5t-10.5 71t0.5 61.5t16.5 39q11 8 64.5 36.5t105 60.5t110 76.5t103 100.5t61.5 115q11 41 13 78.5t-7 75.5t-41.5 65t-85.5 37q-53 7 -134 -13t-136 -44l-55 -23z" />
<glyph unicode="@" horiz-adv-x="1540" d="M162.5 286.5q-2.5 81.5 23.5 182.5q34 144 119 263.5t194 193.5t227 114.5t228 40.5q67 0 133.5 -19.5t127.5 -59t100 -99.5t50.5 -141t-19.5 -184q-28 -88 -82 -157.5t-112.5 -108t-125 -64t-115.5 -33.5t-88 -8q-12 0 -29.5 20.5t-11.5 34.5l45 107q-8 -7 -21 -19 t-50 -41t-70 -50t-71 -35t-62 -7q-40 11 -60 54.5t-8 99.5q17 102 97 217q134 184 282 168q31 -4 57.5 -16t36.5 -22l11 -11l41 61l80 -12q-158 -357 -172 -396q-5 -15 -7.5 -23t-4 -17t1.5 -13t10 -4q78 0 160 57t128 162q40 87 34 168t-42.5 143.5t-111 100t-171.5 37.5 q-255 0 -411 -137.5t-199 -397.5q-10 -73 -9 -139.5t23.5 -124t59 -100t96.5 -66.5t137 -24q68 0 144.5 22t119.5 44l42 22l30 -88q-7 -4 -20 -11.5t-53.5 -26.5t-82 -33t-101.5 -26t-116 -12q-40 0 -82.5 8t-91 27t-89 50t-76.5 77t-53.5 108t-20 143.5zM592.5 356 q1.5 -23 15.5 -32q23 -13 86.5 24t116.5 80.5t61 56.5l56 138q-38 39 -99 39q-52 0 -98 -41.5t-74 -88.5q-8 -13 -16.5 -29t-22 -46t-20.5 -54t-5.5 -47z" />
<glyph unicode="A" horiz-adv-x="1140" d="M-51 -2l698 1337l174 15l146 -1346l-150 -16l-37 389h-485l-205 -389zM356 494h412l-61 704z" />
<glyph unicode="B" horiz-adv-x="1144" d="M94 29l250 1280q282 41 387 41q179 0 256 -93q55 -67 55 -164q0 -38 -8 -81q-22 -110 -102 -191t-160 -102q102 -13 156 -97q38 -60 39 -153q0 -36 -6 -78q-24 -172 -172 -287.5t-373 -115.5q-74 0 -154.5 10t-123.5 20zM252 123q66 -21 154 -21q58 0 113.5 11 t116.5 38.5t106 85.5t61 140q10 41 10 74q-1 7 -1 14q-2 39 -10 68.5t-28 50t-44.5 34.5t-60 21t-74.5 9q-22 1 -46 2q-20 0 -41 -1l-156 -10zM377 764h135q150 0 251 66.5t126 183.5q6 29 6 54q0 68 -44 110q-55 53 -162 54q-11 0 -23 -1q-44 -2 -93.5 -6t-77.5 -7l-28 -4z " />
<glyph unicode="C" horiz-adv-x="1130" d="M102 670q21 113 72.5 218.5t120.5 185t149 141t162 95t156 38.5q15 1 29 1q71 0 147 -20q90 -24 162 -84l-62 -110q-15 10 -41 25t-101.5 40t-143.5 25q-192 0 -311.5 -132t-186.5 -425q-23 -112 -23 -201q1 -124 45 -206q76 -140 244 -140q51 0 107 14t100 33.5 t80.5 39.5t56.5 34l19 14l35 -115q-10 -6 -27 -16t-69 -35.5t-102 -45.5t-115.5 -37t-119.5 -19h-20q-204 0 -310 176q-73 122 -73 302q0 94 20 204z" />
<glyph unicode="D" horiz-adv-x="1255" d="M92 47l244 1253q205 50 414 50q68 -1 128 -15.5t116.5 -45.5t95.5 -81t66 -122q28 -73 28 -172q0 -94 -21 -214q-29 -147 -85.5 -268t-128 -203t-158.5 -138q-87 -57 -176 -81q-82 -23 -167 -22h-14q-49 1 -134.5 15.5t-146.5 28.5zM254 154q129 -42 207 -48q24 -2 48 -2 q187 0 309 128q138 144 206 489q19 88 19 159q0 23 -2 44q-8 87 -37.5 147.5t-81.5 96.5q-52 38 -116 52q-48 11 -102 10q-19 0 -38 -1q-51 -4 -102 -9.5t-76 -9.5l-25 -4z" />
<glyph unicode="E" horiz-adv-x="1040" d="M84 0l262 1335h684l-20 -110h-547l-90 -459h469l-23 -117h-469l-104 -536h575l-20 -113h-717z" />
<glyph unicode="F" horiz-adv-x="1015" d="M82 -14l264 1349h698l-20 -110h-559l-94 -477h481l-23 -117h-481l-121 -631z" />
<glyph unicode="G" horiz-adv-x="1218" d="M102 392q-7 51 -7 107q0 87 18 187q23 125 75.5 234t121.5 186t151 132.5t166 82.5t164 27q83 0 155.5 -13.5t119.5 -34t69 -33.5t36 -24l-61 -113q-6 4 -17.5 11.5t-48 26t-74.5 32.5t-93 25.5t-107 11.5q-212 0 -334 -140.5t-176 -418.5q-18 -91 -18 -167q0 -23 2 -45 q7 -93 35 -160t73.5 -109.5t97 -63t107.5 -20.5q87 0 169 28.5t142 73.5l74 420l135 -29l-84 -471q-11 -6 -31 -16t-78 -35t-112.5 -44.5t-123 -35.5t-120.5 -16q-109 0 -198.5 47t-148.5 137t-79 220z" />
<glyph unicode="H" horiz-adv-x="1300" d="M84 -8l262 1347l143 11l-110 -564h610l107 549l141 13l-260 -1348l-141 -8l131 678h-611l-129 -670z" />
<glyph unicode="I" horiz-adv-x="561" d="M92 -8l262 1343l146 11l-264 -1342z" />
<glyph unicode="J" horiz-adv-x="555" d="M-109 -358q55 76 78 110.5t56.5 98.5t55 135t40.5 170l231 1183l144 11q-218 -1110 -238 -1223q-29 -142 -92.5 -264t-210.5 -285q-9 8 -32.5 31.5t-31.5 32.5z" />
<glyph unicode="K" horiz-adv-x="1200" d="M82 -10l260 1349l145 11l-262 -1348zM387 754l727 616l86 -104l-639 -531l428 -690l-139 -65z" />
<glyph unicode="L" horiz-adv-x="915" d="M86 0l260 1339l139 7l-239 -1235h569l-22 -111h-707z" />
<glyph unicode="M" horiz-adv-x="1536" d="M51 -10l334 1345l205 13l86 -1233l551 1220l196 15l-163 -1350l-144 -10l174 1214l-545 -1204l-184 -12l-80 1212l-297 -1198z" />
<glyph unicode="N" horiz-adv-x="1314" d="M82 -8l264 1343l168 11l381 -1153l219 1142l141 13l-262 -1348l-174 -8l-379 1149l-215 -1141z" />
<glyph unicode="O" horiz-adv-x="1314" d="M115 700q28 135 104 257.5t173.5 207.5t210 135.5t214.5 51.5h7q78 0 144 -22q70 -24 128.5 -75t92 -131.5t43.5 -194.5q2 -28 1 -58q0 -92 -21 -205q-30 -166 -134.5 -322.5t-256.5 -257t-305 -100.5q-250 0 -360 194q-67 119 -68 288q0 106 27 232zM230 490v-21 q0 -73 15 -126q17 -61 47.5 -106t74 -71t91.5 -38.5t103 -12.5q85 0 164 34.5t147 102t119.5 176t77.5 246.5q20 107 20 194q0 130 -45 218q-76 146 -260 147q-63 0 -121.5 -15.5t-121.5 -54.5t-115 -100t-97 -158.5t-73 -222.5q-24 -106 -26 -192z" />
<glyph unicode="P" horiz-adv-x="1069" d="M88 -8l252 1317l319 41h17q168 0 264 -94q80 -78 80 -204q0 -35 -6 -73q-21 -136 -118.5 -244t-247.5 -159q-97 -33 -198 -33q-56 0 -114 10l-107 -553zM360 672q93 -16 168 -16q120 0 194 42q118 68 148 277q4 28 4 54q0 87 -48 139q-56 62 -146 61h-16 q-52 -2 -102.5 -8t-74.5 -11l-24 -6z" />
<glyph unicode="Q" horiz-adv-x="1314" d="M115 700q38 182 145 332.5t254.5 236t302.5 85.5q82 0 151.5 -23.5t128 -75t92 -132t43.5 -194.5q2 -28 2 -58q0 -93 -22 -205q-26 -142 -108.5 -279.5t-198.5 -236.5l101 -224l-86 -61l-154 186q-127 -65 -250 -65q-251 0 -360 194q-68 120 -68 288q0 106 27 232z M237 456q6 -96 30 -161t72 -105t104 -57.5t126 -17.5q85 0 164 34.5t148 102t120.5 176t77.5 246.5q20 107 20 194q0 131 -45 218q-76 147 -261 147q-55 0 -112.5 -15t-124 -54.5t-122.5 -99.5t-104 -159t-72 -223q-22 -106 -22 -190q0 -19 1 -36z" />
<glyph unicode="R" horiz-adv-x="1148" d="M82 -8l258 1317l338 41h16q164 0 249 -96q69 -78 69 -206q0 -38 -6 -79q-21 -149 -131 -261.5t-279 -142.5l395 -528l-125 -76q-276 396 -399 584q-67 0 -137 8l-107 -553zM352 672q82 -15 147 -17q10 0 20 -1l110 12q65 14 110.5 49t79 100.5t45.5 159.5q3 26 3 49 q0 90 -49 144q-57 62 -147 61h-16q-51 -2 -100.5 -8t-73.5 -11l-24 -6z" />
<glyph unicode="S" horiz-adv-x="1050" d="M14 111l41 102q224 -84 371 -102q18 -2 36 -2q35 0 69 8q51 12 94.5 41.5t73.5 83.5t38 127q2 16 2 31q0 52 -21 92q-27 52 -75.5 85t-108 61t-119 58.5t-107.5 67.5q-48 38 -72 100q-17 42 -16 94q0 23 3 48q14 99 80.5 176t160.5 118t200 46q12 1 25 1q80 0 176 -22 q111 -25 175 -59l-45 -107q-21 10 -56 24t-131 36q-81 19 -149 19q-12 0 -24 -1q-128 -6 -199.5 -74.5t-79.5 -179.5v-9q0 -46 28 -82q30 -40 80 -68.5t111 -56t120.5 -61.5t106.5 -78q46 -44 70 -112q16 -45 15 -99q0 -28 -4 -57q-23 -166 -142 -270q-116 -102 -298 -102 h-11q-69 1 -173.5 31.5t-174.5 60.5z" />
<glyph unicode="T" horiz-adv-x="1030" d="M172 1225l21 110h892l-20 -110h-369l-235 -1225l-146 -8l242 1233h-385z" />
<glyph unicode="U" horiz-adv-x="1284" d="M158 386q2 63 8 106.5t16 91.5l148 755l141 11l-145 -746q-12 -61 -18 -96t-12 -94q-4 -35 -3 -62q0 -18 1 -32q4 -36 18 -80t41 -68.5t73.5 -41.5t110.5 -17q66 0 115.5 10t86 24t65.5 50t47.5 65t38 95t30.5 114t32 145q30 141 65.5 321.5t56.5 290.5l20 111l143 11 l-135 -697q-24 -121 -55 -217t-79 -182t-109.5 -143t-147 -90t-191.5 -33q-88 0 -155 24t-106 61.5t-63 92t-32 106.5q-6 41 -6 89v25z" />
<glyph unicode="V" horiz-adv-x="1183" d="M217 1335l141 13l136 -1198l606 1198l137 -35l-686 -1311l-168 -12z" />
<glyph unicode="W" horiz-adv-x="1605" d="M197 -10l18 1341l145 17l-41 -1229l545 1216l183 15l-13 -1211l484 1204l159 -8l-577 -1333l-193 -12l27 1214l-537 -1202z" />
<glyph unicode="X" horiz-adv-x="1208" d="M-20 0l540 700l-287 631l142 17l250 -545l434 545l151 -13l-540 -647l309 -688l-154 -12l-254 590l-428 -590z" />
<glyph unicode="Y" horiz-adv-x="1009" d="M203 1331l135 19l176 -660l424 658l152 -13l-527 -770l-108 -565l-146 -12l107 575z" />
<glyph unicode="Z" horiz-adv-x="1103" d="M10 0l2 113l889 1108l-651 -11l24 125h797l4 -114l-885 -1108h711l-20 -113h-871z" />
<glyph unicode="[" horiz-adv-x="649" d="M53 -289l344 1757l301 -34l-18 -86h-188l-295 -1526h188l-18 -86z" />
<glyph unicode="\" horiz-adv-x="641" d="M82 1415l100 31l383 -1509l-94 -31z" />
<glyph unicode="]" horiz-adv-x="649" d="M-55 -264l20 86h185l294 1526h-186l16 86l314 24l-340 -1747z" />
<glyph unicode="^" d="M117 743l399 576l88 2l404 -573l-88 -68l-359 483l-350 -485z" />
<glyph unicode="_" horiz-adv-x="1024" d="M0 -160h1022v-88h-1022v88z" />
<glyph unicode="`" horiz-adv-x="937" d="M322 1208l86 86l258 -262l-45 -51z" />
<glyph unicode="a" horiz-adv-x="894" d="M75 273q0 62 9 119.5t25 105.5q34 98 87 172t103.5 112.5t108 61.5t93.5 29t68 6q52 0 118.5 -16t106.5 -32l40 -16l-166 -815l-86 -10v14.5t-0.5 34.5t-1 47t-1 44.5t-1 35.5t-0.5 12q-32 -48 -114.5 -115t-133.5 -75q-25 -4 -47 -4q-40 0 -72 12q-51 20 -78.5 62 t-42.5 97.5t-15 117.5zM228 187q29 -89 109 -89q12 0 25 2q27 4 62 25t64.5 48t55.5 53.5t41 44.5l15 18l90 465q-6 3 -17.5 7.5t-46.5 12.5q-31 7 -63 6h-8q-70 -2 -128 -27.5t-109 -90.5t-76 -166q-28 -122 -28 -207q0 -60 14 -102z" />
<glyph unicode="b" horiz-adv-x="923" d="M72 -10l274 1421l139 12l-131 -680q18 14 48 34.5t99.5 57.5t112.5 42q12 1 23 2q48 0 92 -24q54 -29 89 -87q34 -56 48 -136q5 -31 5 -65q0 -52 -13 -108q-29 -141 -114.5 -258t-189.5 -172q-75 -39 -141 -39q-26 0 -51 6q-24 6 -60 31.5t-60 48.5l-25 22l-43 -98z M242 215q10 -11 26.5 -27t56.5 -45.5t66 -33.5q28 -5 54 -5q95 0 161 66q84 84 123 289q12 62 12 112q-1 93 -43 141q-36 41 -89 41q-44 0 -101 -28l-176 -86z" />
<glyph unicode="c" horiz-adv-x="808" d="M82 378q3 56 16 109q38 160 173.5 277t299.5 117q60 0 116 -22.5t82 -44.5l26 -23l-56 -91q-11 9 -30 23t-73 38t-101 25h-11q-40 0 -70 -6q-34 -7 -68 -27t-60 -55.5t-49 -93.5t-41 -139q-17 -74 -17 -134q0 -39 8 -73q19 -82 64.5 -123t107.5 -41q50 0 114 22.5 t103 45.5l39 22l41 -57q-7 -6 -19.5 -15.5t-49 -33.5t-72 -43t-81.5 -34t-83 -15q-71 0 -127 22.5t-91 61.5t-57.5 89t-29.5 107q-5 40 -5 79q0 16 1 33z" />
<glyph unicode="d" horiz-adv-x="933" d="M75 315q2 94 31 195q20 71 56.5 134.5t90 117.5t129.5 85.5t165 31.5q36 0 83.5 -9.5t77.5 -19.5l29 -10l113 571l131 12l-285 -1423l-63 -14q-10 145 -12 161q-70 -65 -147.5 -109.5t-141.5 -47.5q-9 -1 -18 -1q-78 0 -132 39q-60 43 -85 118q-22 69 -22 155v14z M212 272q8 -82 52.5 -131.5t118.5 -50.5q27 0 61.5 16t64 39t56 46t41.5 39l15 16l98 499q-90 23 -172 35q-29 5 -55 5q-89 0 -146 -53q-73 -68 -119 -273q-16 -79 -16 -144q-1 -22 1 -43z" />
<glyph unicode="e" horiz-adv-x="829" d="M83 218q-7 39 -7 86q0 50 8 108q18 104 70.5 195t119 150t138 92.5t133.5 33.5q86 0 143 -35q56 -36 78 -96q22 -59 21 -130q0 -74 -21 -161l-555 -70q-7 -42 -6 -78q0 -81 34 -137q50 -80 162 -80q29 0 98.5 19t124.5 38l54 19l6 -78q-25 -12 -65 -30.5t-131 -49 t-144 -30.5q-58 0 -109.5 24.5t-94 76.5t-57.5 133zM229 479q61 9 237.5 36t184.5 30q8 31 8 62q0 11 -1 23q-4 42 -17.5 76t-48.5 55t-86 21q-205 0 -277 -303z" />
<glyph unicode="f" horiz-adv-x="581" d="M-180 -250l47 98q41 -16 96 -20q8 -1 16 -1q145 0 187 218l143 719l-164 16l15 80h168q19 97 24 133q16 82 51 145.5t80 101.5t93.5 58.5t99.5 24.5q9 1 18 1q27 0 57 -5q40 -6 63 -13l22 -6l-48 -98q-41 13 -96 21q-16 2 -31 2q-65 0 -100 -41q-43 -49 -69 -172 l-31 -152h196l-18 -98h-199l-137 -694q-24 -126 -131 -229t-209 -111q-9 -1 -18 -1q-25 0 -51 5q-36 5 -55 12z" />
<glyph unicode="g" horiz-adv-x="905" d="M35 -348l39 82q151 -44 245 -60q49 -9 81 -9t49 9q32 18 52 92q7 29 25 113l41 213q-139 -88 -233 -88q-69 0 -120.5 21.5t-80 60t-44.5 87t-17 105.5v7q0 54 8 107q8 57 24 114q18 71 58 139.5t95.5 124t132.5 84.5q58 23 118 23q20 0 41 -3q74 -9 153 -88l41 74l109 14 l-190 -978q-31 -157 -118 -247.5t-210 -90.5q-52 0 -127 23.5t-123 46.5zM206 277.5q0 -77.5 41 -122t124 -44.5q41 0 95 19.5t88 38.5l34 19l94 492q-1 4 -4 10t-14.5 22.5t-26.5 29.5t-42 25t-60 15q-9 1 -18 1q-94 0 -169 -75q-82 -83 -119 -247q-23 -106 -23 -183.5z " />
<glyph unicode="h" horiz-adv-x="925" d="M70 -8l276 1419l135 12l-129 -680q86 68 162 102q66 30 147 30q12 0 25 -1q83 -4 122 -74q28 -50 28 -107q0 -23 -5 -48q-91 -460 -129 -641l-135 -14l133 635q3 20 3 37q0 106 -119 106q-97 0 -260 -141l-121 -627z" />
<glyph unicode="i" horiz-adv-x="440" d="M70 -12l174 882l133 4l-170 -874zM268 1237q0 43 30 72.5t73 29.5t72.5 -29.5t29.5 -72.5t-29.5 -72.5t-72.5 -29.5t-73 29.5t-30 72.5z" />
<glyph unicode="j" horiz-adv-x="436" d="M-133 -393q68 81 99.5 127.5t60.5 118.5t51 178l164 839l131 4q-94 -478 -162 -821q-17 -83 -32.5 -137t-45.5 -117t-78 -122.5t-121 -129.5q-59 50 -67 60zM262 1237q0 43 30 72.5t73 29.5t72.5 -29.5t29.5 -72.5t-29.5 -72.5t-72.5 -29.5t-73 29.5t-30 72.5z" />
<glyph unicode="k" horiz-adv-x="843" d="M72 -12l278 1423l135 12l-276 -1423zM311 520l500 375l63 -102l-425 -293l299 -469l-125 -60z" />
<glyph unicode="l" horiz-adv-x="436" d="M70 -10l276 1421l133 12l-274 -1423z" />
<glyph unicode="m" horiz-adv-x="1400" d="M74 -10l172 878l100 6v-149q22 12 73.5 45.5t84.5 52.5t82 36.5t92 17.5q68 1 107 -47q36 -44 37 -106q0 -5 -1 -9q112 84 163 112q87 47 161 47q85 0 131 -67q30 -44 31 -112q0 -37 -9 -81l-118 -614l-131 -10q108 573 110 581q9 46 9 80q0 99 -74 99q-32 0 -60 -11 q-43 -13 -112.5 -54.5t-112.5 -72.5l-121 -614l-131 -8q94 491 117 604q8 38 8 66q0 90 -74 90q-27 0 -59 -11q-68 -19 -221 -116l-121 -623z" />
<glyph unicode="n" horiz-adv-x="929" d="M72 -12l174 882l102 4l-2 -147q19 13 65.5 48t73.5 52.5t72 34.5t88 17q101 0 155 -70q38 -49 38 -120q0 -30 -7 -64l-126 -625l-136 -10q127 613 131 633q3 18 3 33q-1 42 -23 70q-32 38 -88 38q-21 0 -44 -6t-40.5 -12.5t-44.5 -22t-41 -24.5t-47 -30.5t-45 -29.5 l-123 -639z" />
<glyph unicode="o" horiz-adv-x="909" d="M90 258q-8 41 -9 86q0 52 11 109q22 107 76.5 194.5t120.5 137t130 76t116 26.5q73 0 135.5 -30t106.5 -88q43 -57 61 -141q9 -41 9 -89t-9 -103q-24 -139 -97.5 -245t-166 -158.5t-187.5 -52.5q-69 0 -131 33.5t-105 95.5t-61 149zM225 438q-9 -53 -9 -99q0 -95 39 -158 q58 -93 155 -93q122 0 193 88.5t97 272.5q7 49 7 91q0 93 -36 152q-53 86 -151 86q-113 0 -188 -78.5t-107 -261.5z" />
<glyph unicode="p" horiz-adv-x="933" d="M-6 -451l231 1231q109 40 167 58t81.5 22t85.5 10q20 2 40 2q85 0 149 -42q80 -53 109 -159q13 -46 13 -101q0 -73 -22 -162q-30 -118 -109.5 -222t-178.5 -158q-75 -42 -142 -42q-21 0 -41 4q-37 7 -74 32t-55 46l-19 22l-104 -528zM246 184q5 -3 30 -22.5t54 -35 t65 -22.5q24 -5 47 -5q80 0 149 60q89 77 130 255q19 80 19 145t-19 114q-39 98 -152 99q-118 0 -217 -35z" />
<glyph unicode="q" horiz-adv-x="929" d="M76 328q3 79 26 166q35 134 118.5 232.5t193.5 135.5q49 16 102 16q63 0 131 -24q23 -9 80 -45l31 61l114 15l-258 -1311l-137 -14l107 520q-6 -4 -37.5 -24.5t-41.5 -26t-35 -18t-46 -17t-45 -6.5q-23 -3 -44 -3q-53 0 -95 16q-61 22 -97 68.5t-53 112.5q-15 55 -15 119 q0 13 1 27zM206 274q7 -81 51 -130t118 -50q44 0 101.5 24.5t92.5 49.5l35 25l98 501q-6 8 -17 20.5t-51 38.5t-87 38q-33 6 -62 6q-13 0 -25 -1q-38 -4 -71 -27t-58.5 -53t-46.5 -73.5t-36 -88t-27 -95.5q-17 -80 -17 -145q0 -21 2 -40z" />
<glyph unicode="r" horiz-adv-x="718" d="M70 -12l174 882l131 11l-60 -310q32 54 72 102.5t95.5 97.5t128.5 82t153 43q-3 -10 -21 -81t-22 -82q-31 -1 -72.5 -9.5t-104 -36.5t-115.5 -71t-101 -123.5t-68 -183.5l-59 -309z" />
<glyph unicode="s" horiz-adv-x="727" d="M25 70l38 86q138 -52 236 -58q18 -1 34 -1q67 0 103 20q44 25 64 96q5 18 5 35q0 41 -28 73q-39 45 -121 85q-40 19 -63.5 31.5t-59 37.5t-54.5 50t-31 63q-8 26 -8 55q0 12 1 25q12 102 119 164q80 46 185 45q36 0 75 -5q51 -6 95.5 -17.5t63.5 -19.5l19 -8l-26 -96 q-152 47 -205 49h-21q-35 0 -59 -2q-32 -4 -62 -16.5t-44.5 -39.5t-14.5 -69q0 -68 176 -151q191 -89 191 -241q0 -22 -4 -44q-19 -109 -105 -168q-81 -55 -223 -55h-20q-44 1 -108 20t-106 38z" />
<glyph unicode="t" horiz-adv-x="579" d="M86 774l14 74l142 12l59 305l131 15l-61 -320h247l-16 -88h-248l-131 -674h277l-17 -80q-213 -20 -274 -30h-6q-39 0 -65 28q-28 30 -36 67q-4 20 -3 38q0 17 3 33q35 161 123 618z" />
<glyph unicode="u" horiz-adv-x="954" d="M123 301l110 565l134 8l-115 -583q-7 -36 -7 -67q-1 -46 15 -79q26 -55 86 -55q42 0 94 27q49 25 120.5 71t78.5 50l125 628l131 8l-170 -872l-86 -14l-4 157q-214 -144 -299 -157q-22 -4 -42 -4q-84 0 -138 66q-44 54 -44 147q0 47 11 104z" />
<glyph unicode="v" horiz-adv-x="796" d="M102 870l131 15l74 -781l395 781l123 -25l-454 -860l-154 -12z" />
<glyph unicode="w" horiz-adv-x="1155" d="M145 870l131 15l-14 -799l338 774l164 14l-31 -786l344 799l107 -27l-385 -860l-170 -12l37 778l-332 -766l-172 -12z" />
<glyph unicode="x" horiz-adv-x="864" d="M-25 23l385 423l-223 414l133 25l176 -367l334 369l109 -43l-385 -426l221 -398l-111 -55l-196 379l-344 -385z" />
<glyph unicode="y" horiz-adv-x="817" d="M55 -395l260 475h-79l-95 790l123 15l82 -750l414 748l112 -33l-712 -1294z" />
<glyph unicode="z" horiz-adv-x="768" d="M2 106l600 672h-448l18 92h565l4 -106l-596 -666h484l-17 -98h-594z" />
<glyph unicode="{" horiz-adv-x="684" d="M123 567q2 37 14 70q157 0 185 141q12 62 11 166t13 174q14 74 45 132t68.5 92t79.5 57.5t81.5 32.5t71.5 13.5t51 3.5l19 -1l-14 -86q-5 0 -13 0.5t-33 -2.5t-48 -9.5t-53 -22.5t-54 -40t-45 -64t-31 -91q-9 -49 -17.5 -178.5t-17.5 -176.5q-7 -38 -28.5 -69 t-47.5 -48.5t-51.5 -30t-42.5 -16.5l-16 -4q6 -1 16 -4t34 -16.5t41 -31.5t27.5 -51t2.5 -73q-9 -46 -59 -190.5t-62 -204.5q-13 -79 0 -127.5t44 -72.5t63 -33.5t57 -9.5l24 1l-14 -94q-15 0 -38.5 3t-82 25t-99 59.5t-63.5 119t-2 190.5q15 73 58 163.5t55 156.5 q8 29 5 51t-7 37.5t-16 26t-23 17t-28 10t-30 4.5t-30 1z" />
<glyph unicode="|" d="M469 -532v2074h109v-2074h-109z" />
<glyph unicode="}" horiz-adv-x="684" d="M-61 -297l14 94q5 0 13.5 -0.5t34.5 2t50 9.5t55.5 24.5t56.5 42t47 67.5t32 97q12 59 19.5 203.5t17.5 191.5q8 40 29.5 73t47.5 51t51 30.5t41 17.5l17 4q-6 1 -15.5 4t-33.5 16t-41 30t-27.5 48.5t-3.5 69.5q9 46 52.5 175.5t52.5 179.5q10 53 3.5 91.5t-25 63.5 t-43 40t-51 22.5t-49 10t-36.5 1.5h-15l9 86q16 1 41.5 -0.5t89 -18.5t108 -49.5t72.5 -105.5t8 -174q-14 -70 -53 -165t-51 -157q-3 -24 -4 -42.5t6 -32.5t13.5 -23.5t19.5 -16.5t23.5 -11t25.5 -6t25.5 -2.5t23.5 -0.5q0 -15 -4 -34t-8 -31l-3 -11q-31 0 -55 -4.5t-53 -18 t-49.5 -45t-30.5 -79.5q-12 -64 -7.5 -164.5t-10.5 -173.5q-16 -80 -48 -144t-71 -102.5t-82 -66.5t-83.5 -40t-73.5 -19t-53 -7h-19z" />
<glyph unicode="~" d="M98 354q1 10 4 27.5t19.5 62t40.5 78.5t71.5 62t108.5 28q51 0 95 -14.5t74.5 -35t59 -41.5t62 -35.5t69.5 -14.5q38 0 66.5 14t41.5 34.5t20.5 40.5t8.5 34l1 14h104q0 -5 -1 -14.5t-5.5 -36.5t-12 -51.5t-23.5 -54.5t-37 -51.5t-54 -36.5t-74 -15q-55 0 -102 14.5 t-79.5 35t-63 40.5t-67.5 34.5t-77 14.5q-34 0 -62 -13.5t-43 -33.5t-26 -39.5t-15 -32.5l-3 -14h-101z" />
<glyph unicode="&#xa1;" horiz-adv-x="518" d="M2 -475l236 1032l90 6l-166 -1024zM227 778q8 43 42 74t75 31t64.5 -31t15.5 -74q-9 -43 -43.5 -73.5t-75.5 -30.5t-64 30.5t-14 73.5z" />
<glyph unicode="&#xa2;" horiz-adv-x="874" d="M32 553.5q2 87.5 29 181.5q41 146 155.5 247.5t272.5 121.5l41 207l107 8l-41 -211q58 -4 114.5 -20t83.5 -30l27 -14l-51 -104q-11 7 -29 18.5t-68.5 31t-94.5 22.5l-132 -666q44 13 99.5 32.5t88.5 32.5l34 13l14 -76q-131 -77 -256 -110l-45 -242l-109 -10l45 235 q-104 1 -171 47.5t-91.5 122t-22.5 163zM184 684q-36 -174 9 -261t147 -93l133 684q-117 3 -183.5 -70.5t-105.5 -259.5z" />
<glyph unicode="&#xa3;" horiz-adv-x="995" d="M-55 0l22 111h139q6 3 15 10.5t35.5 35.5t49 63.5t48 98.5t39.5 136q16 100 18 133h-205l19 94h199q2 25 5 73.5t5 76t7.5 71.5t14.5 88q29 150 169.5 259t314.5 102q40 -2 82 -15t64 -25l22 -12l-58 -110q-116 65 -190 65q-59 0 -98.5 -10t-77 -38.5t-63 -86 t-42.5 -147.5q-13 -67 -35 -291h324l-18 -94h-316q-13 -93 -22 -139q-13 -66 -37 -125t-49.5 -96.5t-49 -65t-38.5 -39.5l-15 -12h545l-35 -111h-788z" />
<glyph unicode="&#xa5;" d="M76 281l18 90h295l27 135h-295l16 90h295l-287 735l144 17l229 -646l434 648l135 -17l-514 -735v-2h293l-16 -90h-293l-27 -135h293l-18 -90h-293l-53 -281l-146 -12l58 293h-295z" />
<glyph unicode="&#xa6;" d="M477 360h105v-722h-105v722zM477 672v725h105v-725h-105z" />
<glyph unicode="&#xa7;" horiz-adv-x="788" d="M-70 -209l72 72q8 -8 23 -21t61.5 -40.5t93.5 -39.5q92 -24 148.5 24t50.5 159q-3 54 -21 101t-44 80t-58.5 67.5t-63.5 63t-59.5 66.5t-47 78t-24.5 97t7 125q27 155 168 270q-40 99 -29 188q18 130 108 206.5t215 74.5q41 -1 83.5 -14t73.5 -31t56.5 -36.5t38.5 -30.5 l13 -13l-66 -74q-11 10 -29 25t-65.5 44t-85.5 36q-191 38 -225 -168q-9 -54 7 -102.5t48 -87.5t71.5 -77.5t79 -81.5t70 -91t44.5 -114.5t3 -142.5q-9 -66 -42.5 -125t-62.5 -87.5t-59 -49.5q21 -37 30 -96t3 -113q-14 -118 -98 -196t-217 -78q-46 0 -91.5 13.5t-76.5 33 t-55 39.5t-36 34zM180 621q-8 -52 6.5 -100t46.5 -89t66 -75.5t77.5 -78t69.5 -77.5q72 78 91 202q9 61 -18 121t-66.5 101.5t-97 101.5t-87.5 104q-71 -77 -88 -210z" />
<glyph unicode="&#xa8;" horiz-adv-x="937" d="M309 1098q0 35 26 63.5t66 28.5h2q44 0 64 -27t20 -59q0 -39 -26.5 -65.5t-65.5 -26.5t-62.5 24.5t-23.5 61.5zM612 1098q0 35 26 63.5t67 28.5h2q44 0 64 -27t20 -59q0 -38 -26.5 -65t-66.5 -27q-39 0 -62.5 24.5t-23.5 61.5z" />
<glyph unicode="&#xa9;" horiz-adv-x="1640" d="M109 670q0 188 95.5 347.5t259.5 252t357 92.5q146 0 278 -54.5t228 -147.5t152.5 -221t56.5 -269t-56.5 -269.5t-152.5 -222t-228.5 -148.5t-277.5 -55t-276.5 55t-227 148.5t-152 222t-56.5 269.5zM213 670q0 -164 81.5 -303.5t221.5 -220t305 -80.5q124 0 236.5 48 t194 128.5t130 192.5t48.5 235t-48.5 235t-130 192.5t-194 128.5t-236.5 48q-165 0 -305 -80.5t-221.5 -220t-81.5 -303.5zM475 659q0 22 4 72q13 138 103 237t237 113q50 5 94.5 0.5t81.5 -15t64 -21t42 -19.5l15 -8l-26 -86q-12 8 -33.5 19t-86 29.5t-126.5 18.5 q-100 0 -166 -68t-74 -216q-9 -163 53.5 -249.5t165.5 -86.5q32 0 100.5 21t120.5 42l52 21l26 -68q-20 -13 -53 -32t-116 -50.5t-144 -31.5q-46 0 -90.5 10.5t-89.5 38t-78.5 69t-54.5 108.5t-21 152z" />
<glyph unicode="&#xaa;" horiz-adv-x="745" d="M120.5 860.5q-4.5 58.5 3.5 113.5t23 99q91 264 312 264q39 0 95 -12.5t92 -25.5l36 -13l-121 -614l-82 -8v1v1v1v1v1v1v1v1v1v1v1v1v1v1v1v1v1v1v1v1v1v1v1v1v1v1v1v1v1v1v1v2v1v1v1v1v2v1v1v1v2v1v1v2v1v1v2v1v1v2v1v1v2v1v2v1v2v1v2v1v2v1v2v1v2v1v2v2v1v2v1v2v2v1v2 v2v1v2v2v2v1v2v2v2v1v2v2v2v2v1v2v2v2v2v2v2v2v2v2v9q-27 -39 -82 -87.5t-92 -55.5q-61 -10 -102.5 15.5t-59.5 72t-22.5 105zM251 847q23 -67 89 -56q28 4 66.5 34.5t63.5 58.5l24 29l59 306q-35 16 -88 16q-159 -4 -205 -186q-32 -135 -9 -202z" />
<glyph unicode="&#xab;" horiz-adv-x="862" d="M162 438l10 54l328 305l55 -56l-258 -290l145 -308l-84 -49zM455 438l10 54l328 305l55 -56l-258 -290l145 -308l-84 -49z" />
<glyph unicode="&#xac;" d="M84 459l4 100h868v-467l-116 -12v379h-756z" />
<glyph unicode="&#xad;" horiz-adv-x="614" d="M59 438l21 109h459l-21 -109h-459z" />
<glyph unicode="&#xae;" horiz-adv-x="858" d="M35 975q0 160 115.5 273.5t279.5 113.5t279.5 -113.5t115.5 -273.5t-115.5 -272.5t-279.5 -112.5t-279.5 112.5t-115.5 272.5zM96 975q0 -137 98 -234.5t236 -97.5t236 97.5t98 234.5q0 138 -98 236t-236 98t-236 -98t-98 -236zM287 776v406l162 14q69 2 112.5 -29 t40.5 -86q-1 -44 -36.5 -80t-80.5 -45l138 -143l-72 -43l-133 176q-16 0 -30 1t-17 1v-170zM371 989q20 -2 43 -2q46 0 70 22.5t24 61.5q0 33 -23 51.5t-53 18.5l-61 -6v-146z" />
<glyph unicode="&#xaf;" horiz-adv-x="937" d="M342 1032l18 86h373l-18 -86h-373z" />
<glyph unicode="&#xb0;" horiz-adv-x="395" d="M135 1155q17 83 84.5 143t145.5 60t122 -60t27 -143q-17 -85 -83 -144t-144 -59q-79 0 -124 59.5t-28 143.5zM223 1155q-11 -56 11 -94.5t65 -38.5q42 0 80.5 39t48.5 94t-12 93t-64 38q-43 0 -81 -38t-48 -93z" />
<glyph unicode="&#xb1;" d="M88 193l4 98h858l-6 -98h-856zM88 727l4 98h367v326l119 4v-330h372l-6 -98h-366v-309l-119 -6v315h-371z" />
<glyph unicode="&#xb2;" horiz-adv-x="514" d="M6 885l4 86q16 9 41.5 25t91 64t115 93t89 103t36.5 104q-2 39 -21 58t-67 12q-22 -3 -58 -29t-61 -51l-26 -25l-66 57q4 5 10.5 14t29.5 32.5t47 42t60.5 34.5t73.5 19q103 9 156.5 -43.5t44.5 -141.5q-5 -46 -40.5 -100t-82.5 -98t-93 -81t-78 -58l-32 -21q222 8 279 8 l-10 -104h-443z" />
<glyph unicode="&#xb3;" horiz-adv-x="514" d="M-6 920l37 79q100 -22 155 -28q62 -7 108 18t52 84q4 51 -31.5 71.5t-128.5 22.5l-28 -2l18 90q18 2 53 2q65 0 114.5 36.5t51.5 82.5q2 33 -19 49.5t-65 16.5q-39 0 -83 -11t-68 -21l-25 -11l-22 74q40 21 101 38t114 17q39 0 75 -9.5t65.5 -28t42.5 -52t3 -76.5 q-14 -57 -59 -94t-117 -47q150 -19 125 -166q-10 -54 -36.5 -92.5t-65 -58t-82 -26.5t-93.5 -4q-44 3 -92 14.5t-74 21.5z" />
<glyph unicode="&#xb4;" horiz-adv-x="937" d="M408 1022l309 262l74 -86l-340 -233z" />
<glyph unicode="&#xb6;" horiz-adv-x="962" d="M117 739.5q-15 73.5 6 171.5q18 94 68.5 169.5t117.5 123t151 79.5t164 45t160 13q99 0 183.5 -2t119.5 -4l35 -2l-32 -110h-97l-282 -1448l-107 -11l285 1459h-131l-283 -1452l-110 -11l137 711q-68 0 -129 14.5t-116.5 46t-90 83t-49.5 125z" />
<glyph unicode="&#xb7;" horiz-adv-x="499" d="M143 532q0 43 31 79t82 36h2q55 0 79.5 -34t24.5 -74q0 -46 -32.5 -79.5t-79.5 -33.5q-50 0 -78.5 29.5t-28.5 76.5z" />
<glyph unicode="&#xb8;" horiz-adv-x="937" d="M133 -434l6 67q6 0 15.5 1.5t35 7.5t45.5 14.5t39 26.5t23 41q7 36 -19 57t-56 23l-29 3l-3 50l152 145h96l-139 -137q2 -1 6 -2t16.5 -6.5t21.5 -13t22 -20t18 -28t9.5 -37.5t-3.5 -49q-8 -39 -37 -68t-65 -42.5t-71.5 -22t-59.5 -9.5z" />
<glyph unicode="&#xb9;" horiz-adv-x="428" d="M57 1427l312 113l-129 -655h-111l100 510l-166 -43z" />
<glyph unicode="&#xba;" horiz-adv-x="710" d="M109 999q17 80 57.5 145.5t90 103t97.5 57.5t86 20q116 0 185 -92t43 -246q-27 -155 -126.5 -249.5t-211.5 -94.5q-108 0 -179 101.5t-42 254.5zM238 987q-36 -241 100 -254q78 -7 130 61.5t69 200.5q28 221 -99 240q-59 9 -120 -55.5t-80 -192.5z" />
<glyph unicode="&#xbb;" horiz-adv-x="862" d="M14 156l265 266l-148 311l78 45l209 -350l-10 -53l-336 -281zM303 156l262 266l-147 311l78 45l209 -350l-11 -53l-334 -281z" />
<glyph unicode="&#xbc;" horiz-adv-x="1316" d="M145 31l865 1312l84 -47l-875 -1314zM168 1233l311 113l-129 -656h-110l100 510l-166 -43zM639 240l387 432l127 -17l-74 -393h115l-33 -94h-102l-31 -168l-115 -12l35 180h-291zM758 262h211l57 301z" />
<glyph unicode="&#xbd;" horiz-adv-x="1327" d="M88 1229l311 112l-129 -655h-110l100 510l-166 -43zM113 31l864 1312l84 -47l-875 -1314zM670 0l4 86q14 9 37.5 24.5t85 60.5t110 86t91.5 91.5t51 87.5q9 47 -14 72t-70 18q-75 -7 -154 -94l-63 66q4 5 10.5 14t29.5 32t47 41.5t60.5 34.5t73.5 19q103 9 160.5 -53 t39.5 -152q-6 -29 -21.5 -58.5t-31.5 -52t-49 -52t-51.5 -45t-63 -45.5t-59 -39.5t-62.5 -39.5q66 0 173.5 1t128.5 1l-11 -104h-452z" />
<glyph unicode="&#xbe;" horiz-adv-x="1372" d="M68 739l36 80q101 -22 156 -28q62 -7 108 18t52 84q4 49 -30 65.5t-130 18.5l-29 -2l19 90q18 2 53 2q64 0 114 41t52 88q2 33 -19 49.5t-65 16.5q-24 0 -71 -11t-82 -23l-35 -11l-23 75q39 20 106 38t121 18t99.5 -15.5t73.5 -54.5t14 -96q-14 -56 -68 -97t-127 -51 q82 -10 118.5 -53t25.5 -107q-19 -104 -94.5 -145.5t-182.5 -34.5q-44 3 -92 14t-74 21zM176 31l864 1312l84 -47l-874 -1314zM694 240l387 432l127 -17l-73 -393h114l-32 -94h-103l-31 -168l-114 -12l35 180h-291zM813 262h211l57 301z" />
<glyph unicode="&#xbf;" horiz-adv-x="880" d="M45 -139q15 76 63.5 147t107.5 120.5t116 88t97 64t42 34.5q3 24 2 65.5t-3 81.5l-3 40l90 20q3 -9 8 -23.5t15.5 -53.5t16.5 -70.5t5.5 -62t-12.5 -40.5q-10 -7 -61.5 -41t-99 -70t-102.5 -85.5t-94 -109.5t-51 -120q-4 -31 -5.5 -62.5t8 -62.5t26.5 -56t49 -42t76 -20 q154 0 299 108l45 -110q-250 -133 -418 -105q-120 20 -183.5 113.5t-33.5 251.5zM455 768q0 46 32.5 79.5t79.5 33.5q50 0 78.5 -30t28.5 -77q0 -43 -31 -79t-82 -36h-2q-55 0 -79.5 34.5t-24.5 74.5z" />
<glyph unicode="&#xc0;" horiz-adv-x="1140" d="M-51 -2l698 1337l174 15l146 -1346l-150 -16l-37 389h-485l-205 -389zM356 494h412l-61 704zM541 1673l86 86l258 -262l-45 -51z" />
<glyph unicode="&#xc1;" horiz-adv-x="1140" d="M-51 -2l698 1337l174 15l146 -1346l-150 -16l-37 389h-485l-205 -389zM356 494h412l-61 704zM567 1487l310 262l73 -86l-340 -233z" />
<glyph unicode="&#xc2;" horiz-adv-x="1140" d="M-51 -2l698 1337l174 15l146 -1346l-150 -16l-37 389h-485l-205 -389zM356 494h412l-61 704zM473 1491l213 225h74l194 -229l-57 -49l-172 174l-205 -170z" />
<glyph unicode="&#xc3;" horiz-adv-x="1140" d="M-51 -2l698 1337l174 15l146 -1346l-150 -16l-37 389h-485l-205 -389zM356 494h412l-61 704zM512 1475q22 93 67.5 141.5t100.5 48.5q33 0 59 -19t40.5 -41.5t36.5 -41.5t48 -19q24 0 44 23t40 92l60 -4q-16 -89 -56.5 -145t-101.5 -56q-29 0 -58 18.5t-48 41t-43 41 t-44 18.5q-28 0 -49.5 -26.5t-29.5 -52.5l-7 -26z" />
<glyph unicode="&#xc4;" horiz-adv-x="1140" d="M-51 -2l698 1337l174 15l146 -1346l-150 -16l-37 389h-485l-205 -389zM356 494h412l-61 704zM500 1563q0 35 26 63.5t66 28.5h2q44 0 64 -27t20 -59q0 -39 -26.5 -65.5t-65.5 -26.5t-62.5 24.5t-23.5 61.5zM803 1563q0 35 26 63.5t66 28.5h2q44 0 64 -27t20 -59 q0 -39 -26.5 -65.5t-65.5 -26.5t-62.5 24.5t-23.5 61.5z" />
<glyph unicode="&#xc5;" horiz-adv-x="1140" d="M-51 -2l698 1337l174 15l146 -1346l-150 -16l-37 389h-485l-205 -389zM356 494h412l-61 704zM588 1632q14 75 68 117.5t139 42.5q73 0 115 -57t28 -131q-13 -71 -71 -116.5t-132 -45.5q-70 0 -115.5 59t-31.5 131zM668 1630q-9 -43 13 -74.5t60 -31.5q41 0 74.5 26 t42.5 68q8 42 -12 74t-64 32q-39 0 -73 -27.5t-41 -66.5z" />
<glyph unicode="&#xc6;" horiz-adv-x="1705" d="M-53 0l964 1333l760 2l-20 -110h-547l-90 -459h469l-23 -117h-469l-104 -536h600l-19 -113h-743l104 541h-348l-393 -553zM565 659h287l109 553z" />
<glyph unicode="&#xc7;" horiz-adv-x="1130" d="M102 670q21 113 72.5 218.5t120.5 185t149 141t162 95t156 38.5q85 5 175.5 -19t162.5 -84l-62 -110q-15 10 -41 25t-101.5 40t-143.5 25q-192 0 -311.5 -132t-186.5 -425q-55 -267 21.5 -407t244.5 -140q51 0 107 14t100 33.5t80.5 39.5t56.5 34l19 14l35 -115 q-10 -6 -27 -16t-69 -35.5t-102 -45.5t-115.5 -37t-119.5 -19q-219 -9 -330 176t-53 506zM258 -434l6 67q6 0 15.5 1.5t35 7.5t45.5 14.5t39 26.5t23 41t-5 40t-25 25t-33 12.5t-29 4.5l-13 1l-2 50l152 145h96l-139 -137q2 -1 6 -2t16.5 -6.5t21.5 -13t22 -20t18 -28 t9.5 -37.5t-3.5 -49q-8 -39 -37 -68t-65 -42.5t-71.5 -22t-58.5 -9.5z" />
<glyph unicode="&#xc8;" horiz-adv-x="1040" d="M84 0l262 1335h684l-20 -110h-547l-90 -459h469l-23 -117h-469l-104 -536h575l-20 -113h-717zM569 1673l86 86l258 -262l-45 -51z" />
<glyph unicode="&#xc9;" horiz-adv-x="1040" d="M84 0l262 1335h684l-20 -110h-547l-90 -459h469l-23 -117h-469l-104 -536h575l-20 -113h-717zM532 1487l310 262l73 -86l-340 -233z" />
<glyph unicode="&#xca;" horiz-adv-x="1040" d="M84 0l262 1335h684l-20 -110h-547l-90 -459h469l-23 -117h-469l-104 -536h575l-20 -113h-717zM442 1491l213 225h74l195 -229l-58 -49l-172 174l-205 -170z" />
<glyph unicode="&#xcb;" horiz-adv-x="1040" d="M84 0l262 1335h684l-20 -110h-547l-90 -459h469l-23 -117h-469l-104 -536h575l-20 -113h-717zM500 1563q0 35 26 63.5t66 28.5h2q44 0 64 -27t20 -59q0 -39 -26.5 -65.5t-65.5 -26.5t-62.5 24.5t-23.5 61.5zM803 1563q0 35 26 63.5t66 28.5h2q44 0 64 -27t20 -59 q0 -39 -26.5 -65.5t-65.5 -26.5t-62.5 24.5t-23.5 61.5z" />
<glyph unicode="&#xcc;" horiz-adv-x="561" d="M92 -8l262 1343l146 11l-264 -1342zM221 1673l86 86l258 -262l-45 -51z" />
<glyph unicode="&#xcd;" horiz-adv-x="561" d="M92 -8l262 1343l146 11l-264 -1342zM334 1487l309 262l74 -86l-340 -233z" />
<glyph unicode="&#xce;" horiz-adv-x="561" d="M92 -8l262 1343l146 11l-264 -1342zM182 1491l213 225h74l195 -229l-58 -49l-172 174l-205 -170z" />
<glyph unicode="&#xcf;" horiz-adv-x="561" d="M92 -8l262 1343l146 11l-264 -1342zM205 1563q0 35 26 63.5t66 28.5h2q44 0 64 -27t20 -59q0 -39 -26.5 -65.5t-65.5 -26.5t-62.5 24.5t-23.5 61.5zM508 1563q0 35 26 63.5t66 28.5h2q44 0 64 -27t20 -59q0 -39 -26.5 -65.5t-65.5 -26.5t-62.5 24.5t-23.5 61.5z" />
<glyph unicode="&#xd0;" horiz-adv-x="1327" d="M80 621l18 94h166l115 585l385 50q51 -1 98 -8t94.5 -21.5t87.5 -39.5t74.5 -59t58 -82.5t37 -108t11.5 -137t-19 -167.5q-28 -154 -84 -280t-128.5 -210.5t-160 -142.5t-177 -83t-181.5 -23q-49 1 -134 15.5t-145 28.5l-61 15l111 574h-166zM295 154q119 -44 207 -48 q123 -4 217.5 35t161.5 121t111.5 193.5t74.5 265.5q25 145 8.5 245t-72.5 160t-130.5 84.5t-165.5 18.5q-51 -4 -103 -10t-78 -11l-26 -4l-97 -489h330l-18 -94h-330z" />
<glyph unicode="&#xd1;" horiz-adv-x="1314" d="M82 -8l264 1343l168 11l381 -1153l219 1142l141 13l-262 -1348l-174 -8l-379 1149l-215 -1141zM526 1475q22 93 67.5 141.5t100.5 48.5q27 0 49 -12.5t36.5 -30.5t28.5 -35.5t32 -30t39 -12.5q24 0 44 23t40 92l59 -4q-16 -89 -56.5 -145t-101.5 -56q-37 0 -72 30 t-65 59.5t-55 29.5q-28 0 -49.5 -26.5t-28.5 -52.5l-8 -26z" />
<glyph unicode="&#xd2;" horiz-adv-x="1314" d="M115 700q28 135 104 257.5t173.5 207.5t210 135.5t214.5 51.5q82 1 151.5 -22.5t128 -74.5t92 -131.5t43 -194.5t-19.5 -263q-30 -166 -134.5 -322.5t-256.5 -257t-305 -100.5q-251 0 -360.5 194.5t-40.5 519.5zM230.5 490.5q-2.5 -86.5 14.5 -147.5t47.5 -106t74 -71 t91.5 -38.5t103 -12.5q85 0 164 34.5t147 102t119.5 176t77.5 246.5q51 266 -25 412.5t-260 146.5q-63 0 -121.5 -15.5t-121.5 -54.5t-115 -100t-97 -158.5t-73 -222.5q-23 -105 -25.5 -191.5zM694 1673l86 86l258 -262l-45 -51z" />
<glyph unicode="&#xd3;" horiz-adv-x="1314" d="M115 700q28 135 104 257.5t173.5 207.5t210 135.5t214.5 51.5q82 1 151.5 -22.5t128 -74.5t92 -131.5t43 -194.5t-19.5 -263q-30 -166 -134.5 -322.5t-256.5 -257t-305 -100.5q-251 0 -360.5 194.5t-40.5 519.5zM230.5 490.5q-2.5 -86.5 14.5 -147.5t47.5 -106t74 -71 t91.5 -38.5t103 -12.5q85 0 164 34.5t147 102t119.5 176t77.5 246.5q51 266 -25 412.5t-260 146.5q-63 0 -121.5 -15.5t-121.5 -54.5t-115 -100t-97 -158.5t-73 -222.5q-23 -105 -25.5 -191.5zM645 1487l309 262l74 -86l-340 -233z" />
<glyph unicode="&#xd4;" horiz-adv-x="1314" d="M115 700q28 135 104 257.5t173.5 207.5t210 135.5t214.5 51.5q82 1 151.5 -22.5t128 -74.5t92 -131.5t43 -194.5t-19.5 -263q-30 -166 -134.5 -322.5t-256.5 -257t-305 -100.5q-251 0 -360.5 194.5t-40.5 519.5zM230.5 490.5q-2.5 -86.5 14.5 -147.5t47.5 -106t74 -71 t91.5 -38.5t103 -12.5q85 0 164 34.5t147 102t119.5 176t77.5 246.5q51 266 -25 412.5t-260 146.5q-63 0 -121.5 -15.5t-121.5 -54.5t-115 -100t-97 -158.5t-73 -222.5q-23 -105 -25.5 -191.5zM516 1491l213 225h74l194 -229l-57 -49l-172 174l-205 -170z" />
<glyph unicode="&#xd5;" horiz-adv-x="1314" d="M115 700q28 135 104 257.5t173.5 207.5t210 135.5t214.5 51.5q82 1 151.5 -22.5t128 -74.5t92 -131.5t43 -194.5t-19.5 -263q-30 -166 -134.5 -322.5t-256.5 -257t-305 -100.5q-251 0 -360.5 194.5t-40.5 519.5zM230.5 490.5q-2.5 -86.5 14.5 -147.5t47.5 -106t74 -71 t91.5 -38.5t103 -12.5q85 0 164 34.5t147 102t119.5 176t77.5 246.5q51 266 -25 412.5t-260 146.5q-63 0 -121.5 -15.5t-121.5 -54.5t-115 -100t-97 -158.5t-73 -222.5q-23 -105 -25.5 -191.5zM612 1475q22 93 67.5 141.5t100.5 48.5q27 0 49 -12.5t36.5 -30.5t28.5 -35.5 t32 -30t39 -12.5q24 0 44 23t40 92l59 -4q-16 -89 -56.5 -145t-101.5 -56q-37 0 -72 30t-65 59.5t-55 29.5q-28 0 -49.5 -26.5t-28.5 -52.5l-8 -26z" />
<glyph unicode="&#xd6;" horiz-adv-x="1314" d="M115 700q28 135 104 257.5t173.5 207.5t210 135.5t214.5 51.5q82 1 151.5 -22.5t128 -74.5t92 -131.5t43 -194.5t-19.5 -263q-30 -166 -134.5 -322.5t-256.5 -257t-305 -100.5q-251 0 -360.5 194.5t-40.5 519.5zM230.5 490.5q-2.5 -86.5 14.5 -147.5t47.5 -106t74 -71 t91.5 -38.5t103 -12.5q85 0 164 34.5t147 102t119.5 176t77.5 246.5q51 266 -25 412.5t-260 146.5q-63 0 -121.5 -15.5t-121.5 -54.5t-115 -100t-97 -158.5t-73 -222.5q-23 -105 -25.5 -191.5zM610 1563q0 35 26 63.5t66 28.5h3q44 0 63.5 -27t19.5 -59q0 -39 -26.5 -65.5 t-65.5 -26.5t-62.5 24.5t-23.5 61.5zM913 1563q0 35 26 63.5t67 28.5h2q44 0 64 -27t20 -59q0 -39 -27 -65.5t-66 -26.5t-62.5 24.5t-23.5 61.5z" />
<glyph unicode="&#xd7;" d="M113 346l338 330l-322 307l84 88l319 -315l322 313l82 -82l-322 -309l340 -332l-77 -78l-347 330l-344 -332z" />
<glyph unicode="&#xd8;" horiz-adv-x="1349" d="M-49 -12l196 209q-105 201 -51 483q39 199 152 356t265.5 239.5t315.5 82.5q191 0 316 -119l143 147l60 -59l-158 -160q118 -182 67 -471q-19 -104 -59 -203.5t-104.5 -191t-146 -161t-190.5 -112.5t-231 -46q-200 -3 -333 147l-189 -199zM244 684q-42 -227 18 -371 l776 813q-88 113 -241 113q-66 0 -128.5 -15.5t-129.5 -55t-122.5 -100.5t-101.5 -159.5t-71 -224.5zM303 242q95 -129 270 -129q90 0 173 35t155 102.5t126 176.5t81 249q40 219 -25 375z" />
<glyph unicode="&#xd9;" horiz-adv-x="1284" d="M158 386q2 63 8 106.5t16 91.5l148 755l141 11l-145 -746q-12 -61 -18 -96t-12 -94t-2 -94.5t18 -79.5t41 -68.5t73.5 -41.5t110.5 -17q66 0 115.5 10t86 24t65.5 50t47.5 65t38 95t30.5 114t32 145q30 141 65.5 321.5t56.5 290.5l20 111l143 11l-135 -697 q-24 -121 -55 -217t-79 -182t-109.5 -143t-147 -90t-191.5 -33q-88 0 -155 24t-106 61.5t-63 92t-32 106t-6 114.5zM621 1673l86 86l258 -262l-45 -51z" />
<glyph unicode="&#xda;" horiz-adv-x="1284" d="M158 386q2 63 8 106.5t16 91.5l148 755l141 11l-145 -746q-12 -61 -18 -96t-12 -94t-2 -94.5t18 -79.5t41 -68.5t73.5 -41.5t110.5 -17q66 0 115.5 10t86 24t65.5 50t47.5 65t38 95t30.5 114t32 145q30 141 65.5 321.5t56.5 290.5l20 111l143 11l-135 -697 q-24 -121 -55 -217t-79 -182t-109.5 -143t-147 -90t-191.5 -33q-88 0 -155 24t-106 61.5t-63 92t-32 106t-6 114.5zM631 1487l309 262l74 -86l-340 -233z" />
<glyph unicode="&#xdb;" horiz-adv-x="1284" d="M158 386q2 63 8 106.5t16 91.5l148 755l141 11l-145 -746q-12 -61 -18 -96t-12 -94t-2 -94.5t18 -79.5t41 -68.5t73.5 -41.5t110.5 -17q66 0 115.5 10t86 24t65.5 50t47.5 65t38 95t30.5 114t32 145q30 141 65.5 321.5t56.5 290.5l20 111l143 11l-135 -697 q-24 -121 -55 -217t-79 -182t-109.5 -143t-147 -90t-191.5 -33q-88 0 -155 24t-106 61.5t-63 92t-32 106t-6 114.5zM543 1491l213 225h73l195 -229l-57 -49l-172 174l-205 -170z" />
<glyph unicode="&#xdc;" horiz-adv-x="1284" d="M158 386q2 63 8 106.5t16 91.5l148 755l141 11l-145 -746q-12 -61 -18 -96t-12 -94t-2 -94.5t18 -79.5t41 -68.5t73.5 -41.5t110.5 -17q66 0 115.5 10t86 24t65.5 50t47.5 65t38 95t30.5 114t32 145q30 141 65.5 321.5t56.5 290.5l20 111l143 11l-135 -697 q-24 -121 -55 -217t-79 -182t-109.5 -143t-147 -90t-191.5 -33q-88 0 -155 24t-106 61.5t-63 92t-32 106t-6 114.5zM612 1563q0 35 26 63.5t67 28.5h2q44 0 64 -27t20 -59q0 -39 -26.5 -65.5t-66.5 -26.5q-39 0 -62.5 24.5t-23.5 61.5zM915 1563q0 35 26 63.5t67 28.5h2 q44 0 64 -27t20 -59q0 -39 -27 -65.5t-66 -26.5t-62.5 24.5t-23.5 61.5z" />
<glyph unicode="&#xdd;" horiz-adv-x="1009" d="M203 1331l135 19l176 -660l424 658l152 -13l-527 -770l-108 -565l-146 -12l107 575zM506 1487l309 262l74 -86l-340 -233z" />
<glyph unicode="&#xde;" horiz-adv-x="1110" d="M123 -12l262 1345l143 15l-49 -261q127 19 197 21q87 2 156.5 -21t115.5 -70t62 -117.5t-4 -162.5q-39 -174 -167.5 -291t-338.5 -139q-41 -1 -56.5 -1t-56.5 2t-59 3l-64 -317zM350 430q51 -6 129 -8q157 -1 254 82t127 229q14 65 2 114t-43.5 81.5t-74 47.5t-91.5 13 q-51 -3 -100.5 -9t-73.5 -10l-24 -5z" />
<glyph unicode="&#xdf;" horiz-adv-x="1118" d="M131 0l170 860q18 94 55 178t92.5 155t136 115t175.5 48q68 3 120.5 -21.5t81.5 -67.5t46.5 -98.5t16 -115t-10.5 -117.5q-110 -8 -180 -67t-76 -160q-5 -92 106 -172q159 -113 152 -265q-6 -125 -106.5 -205.5t-231.5 -80.5q-46 0 -87 11t-66.5 26.5t-44 31t-26.5 26.5 l-8 11l91 96q3 -4 9.5 -9.5t25.5 -21t38 -27.5t46 -22.5t51 -11.5q54 -2 103 37t52 135q2 67 -88 146q-5 5 -18 15t-24 18.5t-27 23t-27 27.5t-25.5 32t-22 36.5t-15 42t-6 47.5t4.5 53q11 57 36 102.5t53 73t63.5 48t61.5 29.5t53 15q26 128 -8.5 199.5t-120.5 76.5 q-52 3 -86.5 -3t-71.5 -29t-63 -69t-51 -125.5t-44 -195.5l-164 -831h-141z" />
<glyph unicode="&#xe0;" horiz-adv-x="894" d="M75 273q0 62 9 119.5t25 105.5q34 98 87 172t103.5 112.5t108 61.5t93.5 29t68 6q52 0 118.5 -16t106.5 -32l40 -16l-166 -815l-86 -10v14.5t-0.5 34.5t-1 47t-1 44.5t-1 35.5t-0.5 12q-32 -48 -114.5 -115t-133.5 -75q-68 -11 -119 8.5t-78.5 61.5t-42.5 97.5t-15 117.5 zM227.5 187q33.5 -102 134.5 -87q27 4 62 25t64.5 48t55.5 53.5t41 44.5l15 18l90 465q-6 3 -17.5 7.5t-46.5 12t-71 6.5q-70 -2 -128 -27.5t-109 -90.5t-76 -166q-48 -207 -14.5 -309zM373 1208l86 86l258 -262l-45 -51z" />
<glyph unicode="&#xe1;" horiz-adv-x="894" d="M75 273q0 62 9 119.5t25 105.5q34 98 87 172t103.5 112.5t108 61.5t93.5 29t68 6q52 0 118.5 -16t106.5 -32l40 -16l-166 -815l-86 -10v14.5t-0.5 34.5t-1 47t-1 44.5t-1 35.5t-0.5 12q-32 -48 -114.5 -115t-133.5 -75q-68 -11 -119 8.5t-78.5 61.5t-42.5 97.5t-15 117.5 zM227.5 187q33.5 -102 134.5 -87q27 4 62 25t64.5 48t55.5 53.5t41 44.5l15 18l90 465q-6 3 -17.5 7.5t-46.5 12t-71 6.5q-70 -2 -128 -27.5t-109 -90.5t-76 -166q-48 -207 -14.5 -309zM383 1022l309 262l74 -86l-340 -233z" />
<glyph unicode="&#xe2;" horiz-adv-x="894" d="M75 273q0 62 9 119.5t25 105.5q34 98 87 172t103.5 112.5t108 61.5t93.5 29t68 6q52 0 118.5 -16t106.5 -32l40 -16l-166 -815l-86 -10v14.5t-0.5 34.5t-1 47t-1 44.5t-1 35.5t-0.5 12q-32 -48 -114.5 -115t-133.5 -75q-68 -11 -119 8.5t-78.5 61.5t-42.5 97.5t-15 117.5 zM227.5 187q33.5 -102 134.5 -87q27 4 62 25t64.5 48t55.5 53.5t41 44.5l15 18l90 465q-6 3 -17.5 7.5t-46.5 12t-71 6.5q-70 -2 -128 -27.5t-109 -90.5t-76 -166q-48 -207 -14.5 -309zM328 1026l213 225h73l195 -229l-57 -49l-172 174l-205 -170z" />
<glyph unicode="&#xe3;" horiz-adv-x="894" d="M75 273q0 62 9 119.5t25 105.5q34 98 87 172t103.5 112.5t108 61.5t93.5 29t68 6q52 0 118.5 -16t106.5 -32l40 -16l-166 -815l-86 -10v14.5t-0.5 34.5t-1 47t-1 44.5t-1 35.5t-0.5 12q-32 -48 -114.5 -115t-133.5 -75q-68 -11 -119 8.5t-78.5 61.5t-42.5 97.5t-15 117.5 zM227.5 187q33.5 -102 134.5 -87q27 4 62 25t64.5 48t55.5 53.5t41 44.5l15 18l90 465q-6 3 -17.5 7.5t-46.5 12t-71 6.5q-70 -2 -128 -27.5t-109 -90.5t-76 -166q-48 -207 -14.5 -309zM291 1010q22 93 67.5 141.5t100.5 48.5q33 0 59 -19t40.5 -41.5t36.5 -41.5t48 -19 q24 0 44 23t40 92l59 -4q-16 -89 -56 -145t-101 -56q-29 0 -58 18.5t-48 41t-43 41t-44 18.5q-28 0 -49.5 -26t-28.5 -52l-8 -26z" />
<glyph unicode="&#xe4;" horiz-adv-x="894" d="M75 273q0 62 9 119.5t25 105.5q34 98 87 172t103.5 112.5t108 61.5t93.5 29t68 6q52 0 118.5 -16t106.5 -32l40 -16l-166 -815l-86 -10v14.5t-0.5 34.5t-1 47t-1 44.5t-1 35.5t-0.5 12q-32 -48 -114.5 -115t-133.5 -75q-68 -11 -119 8.5t-78.5 61.5t-42.5 97.5t-15 117.5 zM227.5 187q33.5 -102 134.5 -87q27 4 62 25t64.5 48t55.5 53.5t41 44.5l15 18l90 465q-6 3 -17.5 7.5t-46.5 12t-71 6.5q-70 -2 -128 -27.5t-109 -90.5t-76 -166q-48 -207 -14.5 -309zM274 1098q0 35 26 63.5t67 28.5h2q44 0 64 -27t20 -59q0 -38 -26.5 -65t-66.5 -27 q-39 0 -62.5 24.5t-23.5 61.5zM578 1098q0 35 26 63.5t66 28.5h2q44 0 64 -27t20 -59q0 -39 -26.5 -65.5t-65.5 -26.5t-62.5 24.5t-23.5 61.5z" />
<glyph unicode="&#xe5;" horiz-adv-x="894" d="M75 273q0 62 9 119.5t25 105.5q34 98 87 172t103.5 112.5t108 61.5t93.5 29t68 6q52 0 118.5 -16t106.5 -32l40 -16l-166 -815l-86 -10v14.5t-0.5 34.5t-1 47t-1 44.5t-1 35.5t-0.5 12q-32 -48 -114.5 -115t-133.5 -75q-68 -11 -119 8.5t-78.5 61.5t-42.5 97.5t-15 117.5 zM227.5 187q33.5 -102 134.5 -87q27 4 62 25t64.5 48t55.5 53.5t41 44.5l15 18l90 465q-6 3 -17.5 7.5t-46.5 12t-71 6.5q-70 -2 -128 -27.5t-109 -90.5t-76 -166q-48 -207 -14.5 -309zM367 1167q14 75 67.5 117.5t138.5 42.5q73 0 115.5 -57t28.5 -131q-13 -71 -71 -116.5 t-132 -45.5q-70 0 -115.5 59t-31.5 131zM446 1165q-9 -43 13.5 -74.5t60.5 -31.5q41 0 74.5 26t42.5 68q8 42 -12 74.5t-64 32.5q-39 0 -73.5 -28t-41.5 -67z" />
<glyph unicode="&#xe6;" horiz-adv-x="1400" d="M75 273q0 62 9 119.5t25 105.5q34 98 87 172t103.5 112.5t108 61.5t93.5 29t68 6q52 0 118.5 -16t106.5 -32l40 -16l-9 -39q111 103 240 103q69 0 121 -22.5t82.5 -62t45 -92.5t12.5 -114t-19 -127l-555 -70q-24 -137 19.5 -212t154.5 -75q31 0 100.5 19t123.5 38l54 19 l21 -74q-21 -12 -56 -30.5t-121.5 -51t-146.5 -36.5q-99 -7 -174 35t-100 118q-9 27 -11 41q-55 -56 -149 -121.5t-137 -72.5q-68 -11 -119 8.5t-78.5 61.5t-42.5 97.5t-15 117.5zM227.5 187q33.5 -102 134.5 -87q27 4 62 25t64.5 48t55.5 53.5t41 44.5l15 18l90 465 q-6 3 -17.5 7.5t-46.5 12t-71 6.5q-70 -2 -128 -27.5t-109 -90.5t-76 -166q-48 -207 -14.5 -309zM768 479q64 9 239.5 36t182.5 30q12 42 8.5 83.5t-17 74.5t-48.5 53t-86 20q-96 0 -171.5 -84.5t-107.5 -212.5z" />
<glyph unicode="&#xe7;" horiz-adv-x="808" d="M82 378.5q3 55.5 16 108.5q38 160 173.5 277t299.5 117q60 0 116 -22.5t82 -44.5l26 -23l-56 -91q-11 9 -30 23t-73 38t-101 25q-46 1 -80.5 -6t-68.5 -27t-60 -55.5t-49 -93.5t-41 -139q-28 -125 -9 -207.5t64.5 -123t107.5 -40.5q50 0 114 22.5t103 45.5l39 22l41 -57 q-7 -6 -19.5 -15.5t-49 -33.5t-72 -43t-81.5 -34t-83 -15q-71 0 -127 22.5t-91 61.5t-57.5 89t-29.5 107t-4 112.5zM162 -434l6 67q6 0 15.5 1.5t35 7.5t45.5 14.5t39 26.5t23 41t-5 40t-25 25t-33 12.5t-29 4.5l-13 1l-2 50l152 145h96l-139 -137q2 -1 6 -2t16.5 -6.5 t21.5 -13t22 -20t18 -28t9.5 -37.5t-3.5 -49q-8 -39 -37 -68t-65 -42.5t-71.5 -22t-58.5 -9.5z" />
<glyph unicode="&#xe8;" horiz-adv-x="829" d="M83 218q-15 81 1 194q18 104 70.5 195t119 150t138 92.5t133.5 33.5q86 0 142.5 -35t78.5 -95.5t21.5 -133.5t-21.5 -158l-555 -70q-22 -136 28 -215.5t162 -79.5q29 0 98.5 19t124.5 38l54 19l6 -78q-25 -12 -65 -30.5t-131 -49t-144 -30.5q-58 0 -109.5 24.5t-94 76.5 t-57.5 133zM229 479q61 9 237.5 36t184.5 30q11 42 7 84.5t-17.5 76.5t-48.5 55t-86 21q-205 0 -277 -303zM356 1208l86 86l258 -262l-45 -51z" />
<glyph unicode="&#xe9;" horiz-adv-x="829" d="M83 218q-15 81 1 194q18 104 70.5 195t119 150t138 92.5t133.5 33.5q86 0 142.5 -35t78.5 -95.5t21.5 -133.5t-21.5 -158l-555 -70q-22 -136 28 -215.5t162 -79.5q29 0 98.5 19t124.5 38l54 19l6 -78q-25 -12 -65 -30.5t-131 -49t-144 -30.5q-58 0 -109.5 24.5t-94 76.5 t-57.5 133zM229 479q61 9 237.5 36t184.5 30q11 42 7 84.5t-17.5 76.5t-48.5 55t-86 21q-205 0 -277 -303zM324 1022l309 262l74 -86l-340 -233z" />
<glyph unicode="&#xea;" horiz-adv-x="829" d="M83 218q-15 81 1 194q18 104 70.5 195t119 150t138 92.5t133.5 33.5q86 0 142.5 -35t78.5 -95.5t21.5 -133.5t-21.5 -158l-555 -70q-22 -136 28 -215.5t162 -79.5q29 0 98.5 19t124.5 38l54 19l6 -78q-25 -12 -65 -30.5t-131 -49t-144 -30.5q-58 0 -109.5 24.5t-94 76.5 t-57.5 133zM229 479q61 9 237.5 36t184.5 30q11 42 7 84.5t-17.5 76.5t-48.5 55t-86 21q-205 0 -277 -303zM283 1026l213 225h73l195 -229l-57 -49l-172 174l-205 -170z" />
<glyph unicode="&#xeb;" horiz-adv-x="829" d="M83 218q-15 81 1 194q18 104 70.5 195t119 150t138 92.5t133.5 33.5q86 0 142.5 -35t78.5 -95.5t21.5 -133.5t-21.5 -158l-555 -70q-22 -136 28 -215.5t162 -79.5q29 0 98.5 19t124.5 38l54 19l6 -78q-25 -12 -65 -30.5t-131 -49t-144 -30.5q-58 0 -109.5 24.5t-94 76.5 t-57.5 133zM229 479q61 9 237.5 36t184.5 30q11 42 7 84.5t-17.5 76.5t-48.5 55t-86 21q-205 0 -277 -303zM289 1098q0 35 26 63.5t66 28.5h2q44 0 64 -27t20 -59q0 -39 -26.5 -65.5t-65.5 -26.5t-62.5 24.5t-23.5 61.5zM592 1098q0 35 26 63.5t66 28.5h2q44 0 64 -27 t20 -59q0 -39 -26.5 -65.5t-65.5 -26.5t-62.5 24.5t-23.5 61.5z" />
<glyph unicode="&#xec;" horiz-adv-x="514" d="M76 1208l86 86l258 -262l-45 -51z" />
<glyph unicode="&#xed;" horiz-adv-x="514" d="M123 1022l309 262l74 -86l-340 -233z" />
<glyph unicode="&#xee;" horiz-adv-x="514" d="M111 1026l213 225h73l195 -229l-57 -49l-173 174l-204 -170z" />
<glyph unicode="&#xef;" horiz-adv-x="514" d="M115 1098q0 35 26 63.5t66 28.5h2q44 0 64 -27t20 -59q0 -39 -26.5 -65.5t-65.5 -26.5t-62.5 24.5t-23.5 61.5zM418 1098q0 35 26 63.5t66 28.5h2q44 0 64 -27t20 -59q0 -39 -26.5 -65.5t-65.5 -26.5t-62.5 24.5t-23.5 61.5z" />
<glyph unicode="&#xf0;" horiz-adv-x="958" d="M86 453q19 84 63 157.5t97.5 122.5t113 83.5t112 48t91.5 9.5q66 -7 112 -25t81 -61q13 208 -92 347l-205 -146l-45 70l194 133q-51 44 -112.5 77t-97.5 43l-36 11l35 98q191 -43 316 -155l207 145l41 -63l-195 -140q46 -59 75 -148.5t38 -187t5.5 -192.5t-18.5 -178 q-16 -112 -57 -202.5t-93 -147t-115 -95t-120 -54t-110 -15.5q-167 0 -248.5 129t-36.5 336zM227 436q-26 -162 20.5 -247t147.5 -85q105 0 191.5 88.5t118.5 253.5q28 149 -23 234.5t-156 85.5q-248 0 -299 -330z" />
<glyph unicode="&#xf1;" horiz-adv-x="929" d="M72 -12l174 882l102 4l-2 -147q19 13 65.5 48t73.5 52.5t72 34.5t88 17q100 0 154.5 -70t31.5 -184l-126 -625l-136 -10q127 613 131 633q12 64 -19.5 102.5t-88.5 38.5q-21 0 -44 -6t-40.5 -12.5t-44.5 -22t-41 -24.5t-47 -30.5t-45 -29.5l-123 -639zM344 1010 q22 93 67.5 141.5t100.5 48.5q33 0 59 -19t40.5 -41.5t36.5 -41.5t48 -19q24 0 44 23t40 92l60 -4q-16 -89 -56.5 -145t-101.5 -56q-29 0 -58 18.5t-48 41t-43 41t-44 18.5q-28 0 -49.5 -26t-29.5 -52l-7 -26z" />
<glyph unicode="&#xf2;" horiz-adv-x="909" d="M89.5 258q-17.5 87 2.5 195q22 107 76.5 194.5t120.5 137t130 76t116 26.5q73 0 135.5 -30t106.5 -88t61.5 -141.5t-0.5 -191.5q-24 -139 -97.5 -245t-166 -158.5t-187.5 -52.5q-69 0 -131 33.5t-105.5 95.5t-61 149zM225 438q-28 -164 30 -257t155 -93q122 0 193 88.5 t97 272.5q24 157 -29 243t-151 86q-113 0 -188 -78.5t-107 -261.5zM401 1208l86 86l258 -262l-45 -51z" />
<glyph unicode="&#xf3;" horiz-adv-x="909" d="M89.5 258q-17.5 87 2.5 195q22 107 76.5 194.5t120.5 137t130 76t116 26.5q73 0 135.5 -30t106.5 -88t61.5 -141.5t-0.5 -191.5q-24 -139 -97.5 -245t-166 -158.5t-187.5 -52.5q-69 0 -131 33.5t-105.5 95.5t-61 149zM225 438q-28 -164 30 -257t155 -93q122 0 193 88.5 t97 272.5q24 157 -29 243t-151 86q-113 0 -188 -78.5t-107 -261.5zM344 1022l309 262l74 -86l-340 -233z" />
<glyph unicode="&#xf4;" horiz-adv-x="909" d="M89.5 258q-17.5 87 2.5 195q22 107 76.5 194.5t120.5 137t130 76t116 26.5q73 0 135.5 -30t106.5 -88t61.5 -141.5t-0.5 -191.5q-24 -139 -97.5 -245t-166 -158.5t-187.5 -52.5q-69 0 -131 33.5t-105.5 95.5t-61 149zM225 438q-28 -164 30 -257t155 -93q122 0 193 88.5 t97 272.5q24 157 -29 243t-151 86q-113 0 -188 -78.5t-107 -261.5zM305 1026l213 225h74l194 -229l-57 -49l-172 174l-205 -170z" />
<glyph unicode="&#xf5;" horiz-adv-x="909" d="M89.5 258q-17.5 87 2.5 195q22 107 76.5 194.5t120.5 137t130 76t116 26.5q73 0 135.5 -30t106.5 -88t61.5 -141.5t-0.5 -191.5q-24 -139 -97.5 -245t-166 -158.5t-187.5 -52.5q-69 0 -131 33.5t-105.5 95.5t-61 149zM225 438q-28 -164 30 -257t155 -93q122 0 193 88.5 t97 272.5q24 157 -29 243t-151 86q-113 0 -188 -78.5t-107 -261.5zM303 1010q22 93 67.5 141.5t100.5 48.5q33 0 59 -19t40.5 -41.5t36.5 -41.5t48 -19q24 0 44 23t40 92l60 -4q-16 -89 -56.5 -145t-101.5 -56q-29 0 -57.5 18.5t-48 41t-43 41t-43.5 18.5q-28 0 -49.5 -26 t-29.5 -52l-8 -26z" />
<glyph unicode="&#xf6;" horiz-adv-x="909" d="M89.5 258q-17.5 87 2.5 195q22 107 76.5 194.5t120.5 137t130 76t116 26.5q73 0 135.5 -30t106.5 -88t61.5 -141.5t-0.5 -191.5q-24 -139 -97.5 -245t-166 -158.5t-187.5 -52.5q-69 0 -131 33.5t-105.5 95.5t-61 149zM225 438q-28 -164 30 -257t155 -93q122 0 193 88.5 t97 272.5q24 157 -29 243t-151 86q-113 0 -188 -78.5t-107 -261.5zM252 1112q0 35 26 63.5t66 28.5h2q44 0 64 -27t20 -59q0 -39 -26.5 -65.5t-65.5 -26.5t-62.5 24.5t-23.5 61.5zM555 1112q0 35 26 63.5t66 28.5h2q44 0 64 -27t20 -59q0 -39 -26.5 -65.5t-65.5 -26.5 t-62.5 24.5t-23.5 61.5z" />
<glyph unicode="&#xf7;" d="M104 565l5 101h858l-6 -101h-857zM428 330q0 43 29.5 72.5t72.5 29.5q42 0 72.5 -30t30.5 -72q0 -41 -31 -71t-72 -30q-42 0 -72 29.5t-30 71.5zM428 909q0 41 30 71t72 30q41 0 72 -30t31 -71q0 -42 -30.5 -72t-72.5 -30q-43 0 -72.5 29.5t-29.5 72.5z" />
<glyph unicode="&#xf8;" horiz-adv-x="899" d="M-33 -41l131 147q-35 60 -43.5 152t13.5 195q22 108 74 194t116.5 135.5t130 75t125.5 25.5q127 0 211 -66l106 125l54 -53l-113 -125q36 -55 46.5 -142.5t-7.5 -189.5q-39 -211 -170 -335t-295 -124q-133 0 -207 80l-129 -143zM190 434q-23 -132 5 -219l442 504 q-49 55 -139 55q-129 0 -201.5 -76t-106.5 -264zM225 150q48 -65 144 -68q133 -3 212 83t105 279q18 134 -8 211z" />
<glyph unicode="&#xf9;" horiz-adv-x="954" d="M123 301l110 565l134 8l-115 -583q-17 -91 8.5 -146t85.5 -55q42 0 94 27q49 25 120.5 71t78.5 50l125 628l131 8l-170 -872l-86 -14l-4 157q-214 -144 -299 -157q-115 -19 -180.5 61.5t-32.5 251.5zM432 1208l86 86l258 -262l-45 -51z" />
<glyph unicode="&#xfa;" horiz-adv-x="954" d="M123 301l110 565l134 8l-115 -583q-17 -91 8.5 -146t85.5 -55q42 0 94 27q49 25 120.5 71t78.5 50l125 628l131 8l-170 -872l-86 -14l-4 157q-214 -144 -299 -157q-115 -19 -180.5 61.5t-32.5 251.5zM420 1022l309 262l74 -86l-340 -233z" />
<glyph unicode="&#xfb;" horiz-adv-x="954" d="M123 301l110 565l134 8l-115 -583q-17 -91 8.5 -146t85.5 -55q42 0 94 27q49 25 120.5 71t78.5 50l125 628l131 8l-170 -872l-86 -14l-4 157q-214 -144 -299 -157q-115 -19 -180.5 61.5t-32.5 251.5zM336 1026l213 225h74l194 -229l-57 -49l-172 174l-205 -170z" />
<glyph unicode="&#xfc;" horiz-adv-x="954" d="M123 301l110 565l134 8l-115 -583q-17 -91 8.5 -146t85.5 -55q42 0 94 27q49 25 120.5 71t78.5 50l125 628l131 8l-170 -872l-86 -14l-4 157q-214 -144 -299 -157q-115 -19 -180.5 61.5t-32.5 251.5zM344 1098q0 35 26 63.5t66 28.5h2q44 0 64 -27t20 -59 q0 -39 -26.5 -65.5t-65.5 -26.5t-62.5 24.5t-23.5 61.5zM647 1098q0 35 26 63.5t66 28.5h2q44 0 64 -27t20 -59q0 -39 -26.5 -65.5t-65.5 -26.5t-62.5 24.5t-23.5 61.5z" />
<glyph unicode="&#xfd;" horiz-adv-x="817" d="M55 -395l260 475h-79l-95 790l123 15l82 -750l414 748l112 -33l-712 -1294zM424 1022l309 262l74 -86l-340 -233z" />
<glyph unicode="&#xfe;" horiz-adv-x="950" d="M-10 -453l344 1786l133 15l-105 -537q157 61 220 61q107 0 176 -60.5t92.5 -162.5t3.5 -231q-29 -189 -146.5 -309.5t-297.5 -120.5q-64 0 -191 75l-100 -509zM240 184q3 -2 21.5 -13.5t34 -20.5t38 -21t46.5 -21.5t46 -15.5q119 -32 196 54t97 270q10 105 4 184t-46 125 t-114 47q-54 0 -221 -59z" />
<glyph unicode="&#xff;" horiz-adv-x="817" d="M55 -395l260 475h-79l-95 790l123 15l82 -750l414 748l112 -33l-712 -1294zM274 1098q0 35 26 63.5t67 28.5h2q44 0 64 -27t20 -59q0 -38 -26.5 -65t-66.5 -27q-39 0 -62.5 24.5t-23.5 61.5zM578 1098q0 35 26 63.5t66 28.5h2q44 0 64 -27t20 -59q0 -39 -26.5 -65.5 t-65.5 -26.5t-62.5 24.5t-23.5 61.5z" />
<glyph unicode="&#x152;" horiz-adv-x="1961" d="M121 664q39 200 151.5 360t266 247t315.5 87q272 0 377 -184l31 161h686l-21 -110h-549l-90 -459h469l-22 -117h-469l-105 -536h592l-14 -113h-738l41 211q-201 -221 -491 -229q-265 -6 -379 173.5t-51 508.5zM250 456.5q9 -96.5 37.5 -162.5t79.5 -106t107.5 -57.5 t121.5 -17.5q189 0 337 144t200 419q49 267 -33.5 415t-278.5 148q-58 0 -118 -15.5t-128.5 -55t-126 -100t-106.5 -160t-74 -224.5q-27 -131 -18 -227.5z" />
<glyph unicode="&#x153;" horiz-adv-x="1495" d="M90 451q24 108 78 196.5t120 141t133.5 80.5t127.5 28q114 0 190 -48t103 -142q136 172 325 172q69 0 119.5 -23t77.5 -61.5t38.5 -92.5t7.5 -114t-21 -127l-555 -70q-24 -138 20 -212.5t156 -74.5q29 0 98 19t124 38l54 19l4 -78q-25 -13 -65 -32t-130.5 -50.5 t-142.5 -31.5q-89 0 -156.5 39.5t-93.5 130.5q-67 -81 -154.5 -125.5t-180.5 -44.5q-165 0 -245 126.5t-32 336.5zM221 449q-33 -170 15.5 -261.5t156.5 -91.5q101 0 187 80t127 230q2 8 5 23.5t5 23.5q33 162 -20 248.5t-169 86.5q-41 0 -84 -18t-88 -55t-81.5 -106 t-53.5 -160zM852 479q60 8 236 35.5t184 30.5q12 42 8.5 83.5t-17.5 74.5t-49 53t-86 20q-113 0 -178 -79.5t-98 -217.5z" />
<glyph unicode="&#x178;" horiz-adv-x="1009" d="M203 1331l135 19l176 -660l424 658l152 -13l-527 -770l-108 -565l-146 -12l107 575zM403 1563q0 35 26 63.5t67 28.5h2q44 0 64 -27t20 -59q0 -39 -27 -65.5t-66 -26.5t-62.5 24.5t-23.5 61.5zM707 1563q0 35 26 63.5t66 28.5h2q44 0 64 -27t20 -59q0 -39 -26.5 -65.5 t-65.5 -26.5t-62.5 24.5t-23.5 61.5z" />
<glyph unicode="&#x2c6;" horiz-adv-x="937" d="M299 1026l213 225h74l194 -229l-57 -49l-172 174l-205 -170z" />
<glyph unicode="&#x2dc;" horiz-adv-x="937" d="M305 1010q22 93 67.5 141.5t100.5 48.5q33 0 59 -19t40.5 -41.5t36.5 -41.5t48 -19q24 0 44 23t40 92l60 -4q-16 -89 -56.5 -145t-101.5 -56q-29 0 -57.5 18.5t-48 41t-43 41t-43.5 18.5q-28 0 -49.5 -26t-29.5 -52l-7 -26z" />
<glyph unicode="&#x2000;" horiz-adv-x="896" />
<glyph unicode="&#x2001;" horiz-adv-x="1792" />
<glyph unicode="&#x2002;" horiz-adv-x="896" />
<glyph unicode="&#x2003;" horiz-adv-x="1792" />
<glyph unicode="&#x2004;" horiz-adv-x="597" />
<glyph unicode="&#x2005;" horiz-adv-x="448" />
<glyph unicode="&#x2006;" horiz-adv-x="298" />
<glyph unicode="&#x2007;" horiz-adv-x="298" />
<glyph unicode="&#x2008;" horiz-adv-x="224" />
<glyph unicode="&#x2009;" horiz-adv-x="358" />
<glyph unicode="&#x200a;" horiz-adv-x="99" />
<glyph unicode="&#x2010;" horiz-adv-x="614" d="M59 438l21 109h459l-21 -109h-459z" />
<glyph unicode="&#x2011;" horiz-adv-x="614" d="M59 438l21 109h459l-21 -109h-459z" />
<glyph unicode="&#x2012;" horiz-adv-x="614" d="M59 438l21 109h459l-21 -109h-459z" />
<glyph unicode="&#x2013;" horiz-adv-x="980" d="M66 430l22 105h813l-24 -105h-811z" />
<glyph unicode="&#x2014;" horiz-adv-x="2048" d="M143 438l21 97h1743l-23 -97h-1741z" />
<glyph unicode="&#x2018;" horiz-adv-x="370" d="M163.5 1141.5q11.5 68.5 57.5 124.5q36 42 94 93.5t98 82.5l40 31l43 -54q-6 -4 -15 -11.5t-34.5 -29t-46 -42.5t-41.5 -48.5t-29 -50.5q-2 -4 -3 -8t-1.5 -6.5t0.5 -5.5t1 -4.5t2 -3.5l3 -3t4 -2.5t3.5 -2t4.5 -1.5l4 -2q25 -16 38 -44.5t7 -63.5q-9 -47 -44.5 -81 t-76.5 -34q-62 0 -91 49t-17.5 117.5z" />
<glyph unicode="&#x2019;" horiz-adv-x="370" d="M84 985q6 4 15 11.5t34.5 29t46 42.5t41.5 48.5t29 50.5q11 26 -10 35l-6 3l-3 1q-25 16 -38 45t-7 64q9 47 44.5 81t76.5 34q62 0 91 -49t17.5 -117.5t-57.5 -124.5q-36 -42 -93.5 -93.5t-97.5 -82.5l-40 -31z" />
<glyph unicode="&#x201a;" horiz-adv-x="458" d="M-35 -252q6 4 15 11.5t34.5 29t46 42.5t41.5 48.5t29 50.5q2 4 3 8t1.5 6.5t-0.5 5.5t-1 4.5t-2 3.5l-3 3t-4 2.5t-3.5 2t-4.5 2.5l-4 1q-25 16 -38 45t-7 64q9 48 44 81.5t76 33.5q62 0 91.5 -49t18 -117.5t-57.5 -124.5q-36 -42 -94 -93.5t-98 -82.5l-40 -31z" />
<glyph unicode="&#x201c;" horiz-adv-x="679" d="M163.5 1141.5q11.5 68.5 57.5 124.5q36 42 94 93.5t98 82.5l40 31l43 -54q-6 -4 -15 -11.5t-34.5 -29t-46 -42.5t-41.5 -48.5t-29 -50.5q-2 -4 -3 -8t-1.5 -6.5t0.5 -5.5t1 -4.5t2 -3.5l3 -3t4 -2.5t3.5 -2t4.5 -1.5l4 -2q25 -16 38 -44.5t7 -63.5q-9 -47 -44.5 -81 t-76.5 -34q-62 0 -91 49t-17.5 117.5zM479.5 1141.5q11.5 68.5 57.5 124.5q36 42 93.5 93.5t97.5 82.5l40 31l43 -54q-6 -4 -15 -11.5t-34.5 -29t-46 -42.5t-41.5 -48.5t-29 -50.5q-11 -26 10 -35l6 -3l3 -1q25 -16 38 -44.5t7 -63.5q-9 -47 -44.5 -81t-76.5 -34 q-62 0 -91 49t-17.5 117.5z" />
<glyph unicode="&#x201d;" horiz-adv-x="679" d="M213 991q6 4 15 11.5t34.5 29t46 42.5t41.5 49t29 51q2 6 3.5 11t0.5 8.5t-1.5 5.5t-4.5 4.5t-5 3l-6 3t-6 2.5q-25 16 -38 45t-7 64q9 47 44.5 81t76.5 34q62 0 91 -49t17.5 -117.5t-57.5 -124.5q-36 -42 -93.5 -93.5t-97.5 -82.5l-40 -31zM522 991q6 4 15 11.5t34.5 29 t46 42.5t41.5 49t29 51q2 5 3 9.5t1.5 7.5t-1 6t-2.5 4.5t-4 3.5t-4.5 2.5t-5.5 2.5t-5 2q-25 16 -38 45t-7 64q9 48 44 81.5t76 33.5q62 0 91.5 -49t18 -117.5t-57.5 -124.5q-36 -42 -94 -93.5t-98 -82.5l-40 -31z" />
<glyph unicode="&#x201e;" horiz-adv-x="761" d="M-51 -250q6 4 15 11.5t34.5 29t46 42.5t41.5 48.5t29 50.5q5 21 1 27t-17 11q-2 1 -3 1q-25 16 -38 45t-7 64q9 47 44.5 81t76.5 34q62 0 91 -49t17.5 -117.5t-57.5 -124.5q-36 -42 -93.5 -93.5t-97.5 -82.5l-40 -31zM258 -250q6 4 15 11.5t34.5 29t46 42.5t41.5 48.5 t29 50.5q2 4 3 8t1.5 6.5t-0.5 5.5t-1 4.5t-2 3.5l-3 3t-4 2.5t-3.5 2t-4.5 2.5l-4 1q-25 16 -38.5 45t-7.5 64q9 47 44.5 81t76.5 34q62 0 91 -49t17.5 -117.5t-57.5 -124.5q-36 -42 -93.5 -93.5t-97.5 -82.5l-40 -31z" />
<glyph unicode="&#x2022;" horiz-adv-x="630" d="M111 537q0 80 57 145.5t149 65.5h5q53 0 92.5 -20t60 -51.5t30 -63.5t9.5 -64q0 -85 -61 -146t-148 -61q-90 0 -142 54t-52 141z" />
<glyph unicode="&#x2026;" horiz-adv-x="1603" d="M143 88q0 43 31 79t82 36h2q55 0 79.5 -34.5t24.5 -74.5q0 -46 -32.5 -79t-79.5 -33q-50 0 -78.5 29.5t-28.5 76.5zM676 88q0 44 30.5 79.5t81.5 35.5h3q55 0 79.5 -34.5t24.5 -74.5q0 -46 -33 -79t-80 -33q-50 0 -78 29.5t-28 76.5zM1212 88q0 43 31 79t82 36h2 q55 0 80 -34.5t25 -74.5q0 -46 -33 -79t-80 -33q-50 0 -78.5 29.5t-28.5 76.5z" />
<glyph unicode="&#x202f;" horiz-adv-x="358" />
<glyph unicode="&#x2039;" horiz-adv-x="542" d="M94 438l10 54l328 305l55 -56l-258 -290l146 -308l-84 -49z" />
<glyph unicode="&#x203a;" horiz-adv-x="542" d="M14 178l265 266l-148 312l78 45l209 -350l-10 -54l-336 -280z" />
<glyph unicode="&#x205f;" horiz-adv-x="448" />
<glyph unicode="&#x20ac;" d="M8 502l17 88h94l31 131h-99l17 90h110q96 246 263.5 384t334.5 146q109 5 182 -12.5t146 -79.5l-70 -106q-3 3 -10 9t-30 20.5t-49 25.5t-68 20t-86 9q-163 0 -278.5 -94.5t-195.5 -321.5h484l-17 -90h-493l-25 -131h492l-17 -88h-485q-6 -193 74.5 -286t216.5 -93 q81 0 164 21t125 42l43 21l41 -84q-7 -5 -21 -13.5t-56 -31t-84.5 -40t-102 -33t-113.5 -17.5q-95 -3 -173.5 27.5t-136 93t-89.5 163t-33 230.5h-103z" />
<glyph unicode="&#x2122;" horiz-adv-x="1437" d="M139 1270v71h475v-71h-186v-463l-104 -6v469h-185zM709 801l32 540l123 7l137 -430l134 423l129 7l34 -543l-102 -4l-6 418l-146 -414l-86 -4l-139 407l-16 -399z" />
<glyph unicode="&#x25fc;" horiz-adv-x="890" d="M0 0v891h891v-891h-891z" />
</font>
</defs>
</svg>
