<?xml version="1.0" standalone="no"?>
<!DOCTYPE svg PUBLIC "-//W3C//DTD SVG 1.1//EN" "http://www.w3.org/Graphics/SVG/1.1/DTD/svg11.dtd" >
<svg xmlns="http://www.w3.org/2000/svg">
<metadata></metadata>
<defs>
<font id="vectipede_rgbold" horiz-adv-x="1118" >
<font-face units-per-em="2048" ascent="1556" descent="-492" />
<missing-glyph horiz-adv-x="579" />
<glyph unicode="&#x28;C&#x29;" horiz-adv-x="1294" d="M57 524v406q0 302 142 431.5t448 129.5q304 0 446 -129.5t142 -431.5v-406q0 -302 -142 -431.5t-446 -129.5q-306 0 -448 129.5t-142 431.5zM209 524q0 -223 105 -318t333 -95t333 95t105 318v406q0 220 -105.5 314.5t-332.5 94.5t-332.5 -94.5t-105.5 -314.5v-406z M358 655v162q0 184 73.5 257t250.5 73q66 0 129 -21t100 -59v-160h-133l-10 94q-17 10 -26.5 14.5t-28 8.5t-43.5 4q-81 0 -112.5 -49t-31.5 -162v-190q0 -99 34 -142t110 -43q68 0 100 29l10 94h133v-153q-89 -86 -231 -86q-177 0 -250.5 72t-73.5 257z" />
<glyph unicode="&#x28;R&#x29;" horiz-adv-x="1294" d="M59 524v406q0 302 141.5 431.5t446.5 129.5t446.5 -129.5t141.5 -431.5v-406q0 -302 -141.5 -431.5t-446.5 -129.5t-446.5 129.5t-141.5 431.5zM209 524q0 -222 105.5 -317.5t332.5 -95.5t333.5 95.5t106.5 317.5v406q0 221 -106 316t-334 95q-227 0 -332.5 -94.5 t-105.5 -316.5v-406zM334 346v98l57 13v561l-57 12v98h385q199 0 199 -184v-57q0 -114 -89 -144q49 -16 75 -50t26 -109v-127l59 -13v-98h-135q-51 0 -68.5 20t-17.5 72v156q0 48 -18.5 70t-59.5 22h-139v-229l59 -13v-98h-276zM551 791h135q76 0 76 88v39q0 43 -20 67.5 t-60 24.5h-131v-219z" />
<glyph horiz-adv-x="2048" />
<glyph horiz-adv-x="2048" />
<glyph unicode="&#xd;" horiz-adv-x="2048" />
<glyph horiz-adv-x="579" />
<glyph unicode=" "  horiz-adv-x="579" />
<glyph unicode="&#x09;" horiz-adv-x="579" />
<glyph unicode="&#xa0;" horiz-adv-x="579" />
<glyph unicode="!" horiz-adv-x="456" d="M59 1335q0 75 15 119h313q10 -55 10 -119q0 -212 -21 -408t-69 -491h-157q-49 286 -70 485t-21 414zM74 0v319h305v-319h-305z" />
<glyph unicode="&#x22;" horiz-adv-x="729" d="M61 907v547h228v-547h-228zM434 907v547h228v-547h-228z" />
<glyph unicode="#" horiz-adv-x="1157" d="M55 412l21 192h194l39 244h-196l24 194h203l63 412h189l-62 -412h185l63 412h197l-64 -412h189l-29 -194h-188l-37 -244h194l-20 -192h-205l-61 -412h-197l61 412h-184l-61 -412h-195l64 412h-187zM463 604h186l37 244h-186z" />
<glyph unicode="$" horiz-adv-x="1034" d="M57 918v83q0 258 338 293v160h234v-158q188 -12 291 -84v-278h-207l-23 153q-58 27 -164 27q-122 0 -166.5 -27t-44.5 -100q0 -62 31.5 -83.5t126.5 -37.5q242 -41 318 -66q121 -39 159 -114q25 -50 25 -127v-100q0 -135 -91.5 -207t-254.5 -88v-164h-234v164 q-200 20 -327 106v279h208l19 -135q90 -49 190 -49q126 0 174 28.5t48 93.5q0 37 -7.5 59.5t-30.5 36t-46.5 19.5t-73.5 14q-224 36 -299 60q-133 43 -172 130q-21 46 -21 112z" />
<glyph unicode="%" horiz-adv-x="1441" d="M53 997v226q0 147 66 208.5t192 61.5t192 -61.5t66 -208.5v-226q0 -146 -66 -207t-192 -61t-192 61t-66 207zM197 -43l856 1542h192l-860 -1542h-188zM225 973q0 -101 86 -101t86 101v276q0 99 -86 99t-86 -99v-276zM872 229v226q0 147 66 208.5t192 61.5t192.5 -61.5 t66.5 -208.5v-226q0 -146 -66 -207t-193 -61q-126 0 -192 61t-66 207zM1044 205q0 -101 86 -101q87 0 87 101v276q0 99 -87 99q-86 0 -86 -99v-276z" />
<glyph unicode="&#x26;" horiz-adv-x="1325" d="M53 313v107q0 84 27 144t75 99t130 76v2q-70 70 -100.5 144t-30.5 168v106q0 174 97 253t314 79q215 0 304 -78t89 -254v-119q0 -129 -57 -206t-209 -148l244 -242q50 46 65 96.5t15 121.5v34h246v-43q0 -154 -27.5 -239.5t-108.5 -159.5l45 -43l107 -27v-184h-254 l-84 82q-69 -64 -169 -91.5t-282 -27.5q-106 0 -183 17t-135.5 56t-88 108t-29.5 169zM346 367q0 -92 48.5 -130t146.5 -38q126 0 207 73l2 2l-299 299q-69 -33 -87 -69.5t-18 -136.5zM430 1042q0 -56 23.5 -98.5t72.5 -93.5l2 2q108 49 145.5 86t37.5 102v99q0 69 -34.5 97 t-101.5 28q-70 0 -107.5 -28.5t-37.5 -96.5v-97z" />
<glyph unicode="'" horiz-adv-x="350" d="M61 907v547h228v-547h-228z" />
<glyph unicode="(" horiz-adv-x="714" d="M150 659q0 539 368 936h215q-280 -445 -280 -940q0 -502 280 -968h-215q-181 203 -274.5 454t-93.5 518z" />
<glyph unicode=")" horiz-adv-x="714" d="M-18 -313q278 468 278 968q0 495 -278 940h215q185 -201 276.5 -439.5t91.5 -496.5q0 -266 -94 -517t-274 -455h-215z" />
<glyph unicode="*" horiz-adv-x="882" d="M53 1114l47 141l256 -81l-2 292h166v-292l256 81l51 -141l-262 -82l170 -235l-125 -90l-172 229l-166 -229l-127 90l170 235z" />
<glyph unicode="+" horiz-adv-x="1245" d="M102 647v213h412v412h213v-412h414v-213h-414v-416h-213v416h-412z" />
<glyph unicode="," horiz-adv-x="438" d="M66 0v332h311v-346q-26 -70 -79 -142t-116 -125l-90 95q103 99 144 186h-170z" />
<glyph unicode="-" horiz-adv-x="663" d="M59 559v229h545v-229h-545z" />
<glyph unicode="." horiz-adv-x="434" d="M61 0v332h312v-332h-312z" />
<glyph unicode="/" horiz-adv-x="677" d="M10 -219l410 1673h248l-414 -1673h-244z" />
<glyph unicode="0" horiz-adv-x="1144" d="M63 502v448q0 151 35 257t104 167.5t159.5 89t211.5 27.5q120 0 210.5 -27.5t159 -89t103.5 -167.5t35 -257v-448q0 -150 -35 -256.5t-104 -167.5t-158.5 -88t-210.5 -27q-96 0 -172.5 16.5t-141 55.5t-107 100t-66 153.5t-23.5 213.5zM354 467q0 -145 58 -202.5 t161 -57.5q47 0 84 11.5t68.5 39.5t48.5 80.5t17 128.5v518q0 260 -218 260q-101 0 -160 -58.5t-59 -201.5v-518z" />
<glyph unicode="1" horiz-adv-x="733" d="M14 1157q205 138 346 297h209v-1241l107 -27v-186h-514v186l125 27v862q-89 -68 -148 -102z" />
<glyph unicode="2" horiz-adv-x="1083" d="M59 1370q207 121 494 121q235 0 353 -112.5t118 -348.5q0 -110 -41.5 -210.5t-127.5 -196.5t-190 -180.5t-257 -188.5h421l27 170h180v-424h-973v268q75 47 123 78.5t126.5 87.5t131 100t114 106t98.5 116.5t62 120t25 127.5q0 109 -70.5 173t-187.5 64q-84 0 -174 -32.5 t-164 -84.5z" />
<glyph unicode="3" horiz-adv-x="1028" d="M43 31l74 235q144 -61 305 -61q128 0 203 54t75 173q0 100 -56.5 150.5t-154.5 50.5h-151v213h154q192 0 192 180q0 113 -71 167t-189 54q-79 0 -161 -24.5t-142 -65.5l-76 223q169 111 420 111q242 0 360.5 -104t118.5 -297q0 -117 -53.5 -207t-149.5 -123 q112 -34 172 -133t60 -232q0 -111 -37.5 -195t-108 -135t-164.5 -76.5t-212 -25.5q-233 0 -408 68z" />
<glyph unicode="4" horiz-adv-x="1138" d="M37 256v270q266 449 448 959l244 -92q-72 -221 -184 -466t-230 -446h410v504h262v-504h113v-225h-113v-256h-270v256h-680z" />
<glyph unicode="5" horiz-adv-x="1071" d="M51 68l80 223q161 -82 346 -82q140 0 210.5 65t70.5 203q0 248 -240 248q-79 0 -151 -33.5t-123 -97.5l-185 41l72 819h819v-420h-178l-27 174h-378l-33 -366q103 71 272 71q221 0 317.5 -114t96.5 -336q0 -262 -133.5 -381t-440.5 -119q-240 0 -395 105z" />
<glyph unicode="6" horiz-adv-x="1101" d="M45 608q0 132 27 254.5t83 230t135.5 190.5t191 137.5t243.5 70.5l70 -231q-207 -25 -326 -161t-145 -351q113 155 335 155q103 0 181 -33.5t124.5 -94t69.5 -139.5t23 -175q0 -242 -127.5 -370t-366.5 -128q-119 0 -209.5 30.5t-148.5 85t-94.5 137t-51 177t-14.5 215.5 zM322 508q0 -71 12 -125.5t39 -98.5t76 -67.5t118 -23.5q112 0 165.5 71.5t53.5 196.5q0 117 -50.5 184.5t-157.5 67.5q-76 0 -142 -38.5t-112 -103.5q0 -9 -1 -31t-1 -32z" />
<glyph unicode="7" horiz-adv-x="1034" d="M41 1026v428h960v-225q-183 -310 -320.5 -639t-188.5 -623l-297 64q139 606 534 1169h-481l-27 -174h-180z" />
<glyph unicode="8" d="M39 387q0 278 295 361q-119 42 -182.5 132.5t-63.5 209.5q0 89 24.5 158t67 114.5t104.5 74.5t132 41.5t153 12.5q467 0 467 -401q0 -112 -57.5 -195t-173.5 -117q138 -52 206 -138.5t68 -231.5q0 -116 -38.5 -203t-108.5 -139t-162 -77.5t-205 -25.5t-206.5 25t-166 75 t-113 133t-40.5 191zM324 422q0 -106 62.5 -160.5t172.5 -54.5q111 0 171.5 55t60.5 168q0 95 -62.5 153t-173.5 81q-109 -12 -170 -76.5t-61 -165.5zM342 1042q0 -88 59.5 -148.5t163.5 -82.5q98 22 154.5 80.5t56.5 140.5q0 219 -215 219q-107 0 -163 -53t-56 -156z" />
<glyph unicode="9" horiz-adv-x="1101" d="M41 993q0 242 128.5 370t367.5 128q516 0 516 -655q0 -129 -27 -250t-82.5 -227t-135 -189t-191 -137t-242.5 -70l-70 230q204 25 323 161t148 351q-116 -154 -338 -154q-103 0 -181 33.5t-124.5 94t-69 139.5t-22.5 175zM315 989q0 -114 51 -180t158 -66 q73 0 139.5 37.5t110.5 100.5q2 18 2 61q0 69 -12 123t-38.5 97t-74.5 66t-116 23q-113 0 -166.5 -69.5t-53.5 -192.5z" />
<glyph unicode=":" horiz-adv-x="487" d="M88 0v332h309v-332h-309zM88 743v328h309v-328h-309z" />
<glyph unicode=";" horiz-adv-x="491" d="M90 0v332h311v-346q-25 -70 -77 -142t-117 -125l-88 95q105 105 143 186h-172zM90 743v328h311v-328h-311z" />
<glyph unicode="&#x3c;" horiz-adv-x="1245" d="M102 645v213l1039 428v-237l-797 -297l797 -299v-236z" />
<glyph unicode="=" horiz-adv-x="1245" d="M102 430v213h1039v-213h-1039zM102 862v213h1039v-213h-1039z" />
<glyph unicode="&#x3e;" horiz-adv-x="1245" d="M102 217v236l799 299l-799 297v237l1039 -428v-213z" />
<glyph unicode="?" horiz-adv-x="948" d="M59 1083v273q123 135 394 135q211 0 323.5 -94.5t112.5 -274.5v-86q0 -116 -39 -181.5t-145 -109.5q-37 -16 -54.5 -24t-41 -22.5t-33.5 -29t-17.5 -36.5t-7.5 -51v-123h-260v162q0 37 5.5 67t13 52.5t25 41.5t32 31.5t43 26.5t49 22t59.5 23q67 26 88 61t21 119v37 q0 87 -47.5 130.5t-135.5 43.5q-89 0 -157 -55l-21 -138h-207zM266 0v319h305v-319h-305z" />
<glyph unicode="@" horiz-adv-x="1183" d="M59 262v445q0 176 30.5 290t100.5 180.5t168 92.5t248 26q261 0 389.5 -105.5t128.5 -350.5v-723h-166l-8 92q-84 -117 -262 -117q-124 0 -175.5 66.5t-51.5 218.5v209q0 142 52 206t179 64q141 0 236 -61v51q0 150 -73.5 210t-248.5 60q-110 0 -173.5 -15t-105.5 -61 t-56.5 -121t-14.5 -204v-430q0 -110 23 -192t59 -129.5t88.5 -76t102 -38t108.5 -9.5q159 0 274 27l37 -166q-133 -45 -301 -45q-107 0 -191.5 16t-161 58t-126.5 109t-79.5 174t-29.5 249zM657 395q0 -69 23 -101t84 -32q101 0 164 82v297q-64 55 -150 55q-70 0 -95.5 -30 t-25.5 -109v-162z" />
<glyph unicode="A" horiz-adv-x="1314" d="M41 0v184l98 27l320 1243h418q44 -184 143.5 -602t153.5 -641l98 -27v-184h-524v184l100 27l-55 246h-355l-61 -246l100 -27v-184h-436zM479 645h277l-131 574z" />
<glyph unicode="B" horiz-adv-x="1218" d="M59 0v186l107 27v1028l-107 27v186h713q369 0 369 -340v-72q0 -96 -20 -157.5t-52.5 -91.5t-87.5 -52q44 -15 75 -34.5t59 -54t42 -91t14 -135.5v-104q0 -322 -413 -322h-699zM471 213h234q82 0 115.5 43.5t33.5 149.5v43q0 200 -145 200h-238v-436zM471 840h238 q70 0 105.5 48t35.5 138v41q0 172 -143 172h-236v-399z" />
<glyph unicode="C" horiz-adv-x="1140" d="M57 578v299q0 176 32.5 292.5t107.5 188.5t187 102.5t280 30.5q126 0 242 -34.5t181 -102.5v-305h-243l-19 147q-62 70 -186 70q-144 0 -202 -91.5t-58 -297.5v-302q0 -214 56.5 -301.5t203.5 -87.5q128 0 190 72l19 148h244v-295q-151 -148 -428 -148q-168 0 -280 30.5 t-187 103t-107.5 189t-32.5 292.5z" />
<glyph unicode="D" horiz-adv-x="1273" d="M59 0v186l107 27v1028l-107 27v186h637q279 0 398.5 -126.5t119.5 -424.5v-352q0 -298 -119.5 -424.5t-398.5 -126.5h-637zM483 221h213q105 0 153 72t48 248v372q0 176 -47.5 248t-153.5 72h-213v-1012z" />
<glyph unicode="E" horiz-adv-x="1169" d="M59 0v186l107 27v1028l-107 27v186h1031v-403h-177l-28 178h-408v-371h338l29 113h147v-432h-147l-29 112h-338v-413h410l39 211h176v-449h-1043z" />
<glyph unicode="F" horiz-adv-x="1150" d="M59 0v186l107 27v1028l-107 27v186h1043v-436h-176l-35 203h-408v-420h322l26 112h148v-438h-148l-26 115h-322v-377l121 -27v-186h-545z" />
<glyph unicode="G" horiz-adv-x="1189" d="M59 557v320q0 229 61.5 364t185.5 192.5t329 57.5q153 0 278 -34t191 -103v-305h-244l-18 147q-59 70 -201 70q-145 0 -204.5 -87t-59.5 -300v-322q0 -183 56 -269.5t188 -86.5q166 0 213 57v344l-181 27v174h480v-684q-48 -52 -186.5 -104t-323.5 -52q-305 0 -434.5 139 t-129.5 455z" />
<glyph unicode="H" horiz-adv-x="1363" d="M59 0v186l107 27v1028l-107 27v186h514v-186l-98 -27v-395h414v395l-101 27v186h517v-186l-109 -27v-1028l109 -27v-186h-517v186l101 27v414h-414v-414l98 -27v-186h-514z" />
<glyph unicode="I" horiz-adv-x="649" d="M59 0v186l107 27v1028l-107 27v186h531v-186l-107 -27v-1028l107 -27v-186h-531z" />
<glyph unicode="J" horiz-adv-x="671" d="M-127 -311l21 186q59 -53 137 -53q43 0 75 15t50.5 38t29 57.5t14 66.5t3.5 73v1169l-119 25v188h528v-188l-96 -25v-1159q0 -248 -89 -376t-296 -128q-169 0 -258 111z" />
<glyph unicode="K" horiz-adv-x="1331" d="M59 0v186l107 27v1028l-107 27v186h516v-186l-98 -27v-414l389 414l-94 27v186h467v-186l-131 -37l-350 -365l413 -653l115 -43v-170h-366l-443 760v-547l98 -27v-186h-516z" />
<glyph unicode="L" horiz-adv-x="1103" d="M59 0v188l107 25v1028l-107 27v186h533v-186l-109 -27v-997h357l28 329h181v-573h-990z" />
<glyph unicode="M" horiz-adv-x="1785" d="M59 0v186l107 27v1028l-107 27v186h619l240 -1094l245 1094h563v-186l-106 -27v-1028l106 -27v-186h-479v186l99 27v999l-299 -1212h-322l-293 1212v-999l98 -27v-186h-471z" />
<glyph unicode="N" horiz-adv-x="1374" d="M59 0v186l107 27v1028l-107 27v186h471l439 -922v709l-99 27v186h451v-186l-102 -27v-1241h-269l-534 1006v-793l116 -27v-186h-473z" />
<glyph unicode="O" horiz-adv-x="1251" d="M59 582v290q0 320 138 469.5t428 149.5t428.5 -149.5t138.5 -469.5v-290q0 -320 -138.5 -469.5t-428.5 -149.5t-428 149.5t-138 469.5zM377 582q0 -152 26.5 -237.5t78.5 -118.5t143 -33t143 33t78 118t26 238v290q0 151 -26 236t-78 119.5t-143 34.5q-90 0 -142.5 -34 t-79 -119.5t-26.5 -236.5v-290z" />
<glyph unicode="P" horiz-adv-x="1187" d="M59 0v186l107 27v1028l-107 27v186h676q221 0 315.5 -107.5t94.5 -353.5q0 -247 -94.5 -355t-315.5 -108h-256v-317l119 -27v-186h-539zM479 723h205q84 0 121 61t37 201q0 136 -37 195t-121 59h-205v-516z" />
<glyph unicode="Q" horiz-adv-x="1277" d="M59 596v295q0 308 144 454t436 146t436 -146t144 -454v-295q0 -434 -297 -549q24 -119 74 -173t100 -54q41 0 82 35v-158q-51 -68 -195 -68q-249 0 -332 369q-300 0 -446 143t-146 455zM377 612q0 -146 29.5 -231.5t85 -119.5t147.5 -34t147.5 34t85 119.5t29.5 231.5 v273q0 213 -62.5 299t-199.5 86t-199.5 -86t-62.5 -299v-273z" />
<glyph unicode="R" horiz-adv-x="1323" d="M59 0v186l107 27v1028l-107 27v186h717q196 0 282.5 -89t86.5 -251v-72q0 -143 -43 -209.5t-129 -95.5q47 -13 80 -32t62.5 -54t44 -93.5t14.5 -141.5v-203l104 -27v-186h-250q-96 0 -131 37t-35 131v293q0 89 -33 130.5t-106 41.5h-252v-420l107 -27v-186h-519zM471 829 h240q139 0 139 193v10q0 197 -145 197h-234v-400z" />
<glyph unicode="S" horiz-adv-x="1132" d="M51 999v82q0 208 121 309t393 101q309 0 453 -135v-307h-234l-18 190q-70 49 -201 49q-101 0 -157 -41t-56 -139v-31q0 -24 2.5 -42t12 -34t18.5 -27t31 -22.5t41.5 -19t58 -18t71 -18t89.5 -19.5q57 -13 95 -23t83 -26.5t74 -34.5t59 -45.5t46.5 -61t27 -79t10.5 -101.5 v-98q0 -234 -133 -339.5t-401 -105.5q-298 0 -476 141v302h232l12 -146q86 -70 225 -70q125 0 185.5 45.5t60.5 126.5v60q0 43 -9.5 68t-44 47.5t-88.5 38t-157 38.5q-165 37 -227 64q-137 58 -178 179q-21 61 -21 142z" />
<glyph unicode="T" horiz-adv-x="1204" d="M39 881v573h1126v-573h-180l-29 340h-196v-1008l119 -27v-186h-555v186l120 27v1008h-198l-29 -340h-178z" />
<glyph unicode="U" horiz-adv-x="1376" d="M49 1268v186h514v-186l-98 -27v-782q0 -137 54.5 -190.5t187.5 -53.5q137 0 191 53.5t54 190.5v782l-98 27v186h475v-186l-96 -27v-747q0 -102 -8.5 -173.5t-31 -134.5t-61 -102.5t-100.5 -68t-146.5 -40.5t-201.5 -12q-158 0 -261 28t-166 93.5t-88.5 163t-25.5 246.5 v747z" />
<glyph unicode="V" horiz-adv-x="1294" d="M43 1268v186h535v-186l-99 -27l197 -913l219 913l-96 27v186h454v-186l-98 -27l-338 -1241h-362l-316 1241z" />
<glyph unicode="W" horiz-adv-x="1841" d="M43 1268v186h530v-186l-96 -27l107 -872l243 1085h265l231 -1085l115 872l-97 27v186h457v-186l-98 -27l-217 -1241h-353l-204 952l-219 -952h-340l-226 1241z" />
<glyph unicode="X" horiz-adv-x="1273" d="M49 0v186l111 27l332 504l-326 524l-111 27v186h533v-186l-86 -27l176 -311l184 311l-88 27v186h445v-186l-115 -27l-316 -479l342 -549l103 -27v-186h-524v186l86 27l-193 336l-201 -336l88 -27v-186h-440z" />
<glyph unicode="Y" horiz-adv-x="1230" d="M43 1268v186h502v-186l-88 -27l205 -459l208 459l-88 27v186h406v-186l-92 -27l-322 -682v-346l119 -27v-186h-555v186l119 27v346l-324 682z" />
<glyph unicode="Z" horiz-adv-x="1130" d="M49 0v289l649 936h-426l-36 -344h-185v573h1006v-221l-672 -1000h477l37 340h182v-573h-1032z" />
<glyph unicode="[" horiz-adv-x="739" d="M193 -285v1860h512v-201h-250v-1460h250v-199h-512z" />
<glyph unicode="\" horiz-adv-x="677" d="M10 1454h248l410 -1673h-244z" />
<glyph unicode="]" horiz-adv-x="733" d="M35 -86h254v1460h-254v201h516v-1860h-516v199z" />
<glyph unicode="^" horiz-adv-x="739" d="M59 1036l236 418h145l240 -418h-203l-106 215l-113 -215h-199z" />
<glyph unicode="_" horiz-adv-x="923" d="M6 -150h916v-149h-916v149z" />
<glyph unicode="`" horiz-adv-x="559" d="M59 1569h281l160 -381h-181z" />
<glyph unicode="a" d="M39 285v92q0 289 309 289q161 0 340 -54v136q0 73 -47 101t-135 28q-186 0 -324 -89l-88 205q171 113 457 113q228 0 322 -74.5t94 -255.5v-555q0 -78 59 -78q26 0 47 21l12 -150q-55 -49 -155 -49q-91 0 -143 42t-72 132q-42 -80 -138 -128t-219 -48q-162 0 -240.5 86.5 t-78.5 235.5zM322 309q0 -73 27.5 -106t96.5 -33q131 0 242 100v195q-116 33 -229 33q-73 0 -105 -35.5t-32 -110.5v-43z" />
<glyph unicode="b" horiz-adv-x="1155" d="M4 1286v187h397v-500q142 133 361 133q178 0 258 -110.5t80 -348.5v-209q0 -256 -84.5 -365.5t-288.5 -109.5q-111 0 -210 38t-169 112l-57 -113h-180v1260zM401 272q42 -32 101 -50.5t116 -18.5q108 0 150.5 57t42.5 191v180q0 134 -37.5 189t-126.5 57h-8 q-140 0 -238 -109v-496z" />
<glyph unicode="c" horiz-adv-x="980" d="M51 426v236q0 100 26.5 180t81.5 140t145.5 92t211.5 32q269 0 399 -135v-273h-213l-18 138q-52 55 -152 55q-102 0 -149 -58t-47 -178v-198q0 -122 54 -186t175 -64q88 0 160.5 39.5t112.5 115.5l112 -167q-134 -232 -409 -232q-245 0 -367.5 119.5t-122.5 343.5z" />
<glyph unicode="d" horiz-adv-x="1191" d="M51 426v209q0 256 84 365.5t289 109.5q203 0 326 -109v259l-107 26v187h397v-1260l107 -27v-186h-371l-8 119q-86 -81 -178.5 -115.5t-202.5 -34.5q-177 0 -256.5 109.5t-79.5 347.5zM338 451q0 -134 38 -190t128 -56q152 0 246 108v494q-42 33 -101.5 52.5t-118.5 19.5 q-107 0 -149.5 -58.5t-42.5 -191.5v-178z" />
<glyph unicode="e" horiz-adv-x="1038" d="M53 451v159q0 257 108 376.5t363 119.5q94 0 165.5 -14t121.5 -44.5t83.5 -71t52.5 -100.5t26.5 -126.5t7.5 -155.5v-137h-649q0 -150 55.5 -208.5t200.5 -58.5q107 0 171.5 31t110.5 92l101 -168q-101 -182 -422 -182q-250 0 -373 132t-123 356zM332 641h387q0 52 -3 87 t-14 71.5t-31.5 58t-56 35.5t-86.5 14q-62 0 -102.5 -19t-60 -57.5t-26.5 -81.5t-7 -108z" />
<glyph unicode="f" horiz-adv-x="704" d="M37 885v192h123v125q0 156 76 222.5t235 66.5q161 0 229 -45l-30 -180q-42 22 -109 22q-57 0 -87 -24t-30 -80v-107h236v-192h-236v-672l127 -27v-186h-520v186l109 27v672h-123z" />
<glyph unicode="g" horiz-adv-x="1085" d="M51 500v137q0 121 17 204.5t58.5 144.5t113 89.5t178.5 28.5q253 0 375 -141l57 114h178v-1106q0 -246 -121 -354.5t-362 -108.5q-287 0 -428 136l78 192q128 -86 303 -86q140 0 191.5 60t51.5 200v166q-142 -139 -354 -139q-184 0 -260 115t-76 348zM334 500 q0 -121 35 -178t127 -58q147 0 245 109v438q-38 30 -100.5 50t-118.5 20q-58 0 -96 -17t-57.5 -51.5t-27 -76.5t-7.5 -103v-133z" />
<glyph unicode="h" horiz-adv-x="1298" d="M47 0v186l107 27v1047l-107 26v187h397v-484q148 117 390 117q158 0 235.5 -73t77.5 -222v-598l106 -27v-186h-497v186l100 27v537q0 122 -143 122q-172 0 -269 -92v-567l101 -27v-186h-498z" />
<glyph unicode="i" horiz-adv-x="595" d="M47 0v186l107 27v651l-107 27v186h397v-864l107 -27v-186h-504zM154 1208v265h290v-265h-290z" />
<glyph unicode="j" horiz-adv-x="503" d="M-160 -389l25 174q51 -43 119 -43q47 0 78.5 19.5t46.5 54.5t20.5 70t5.5 81v897l-110 25v188h401v-1110q0 -225 -79 -342t-257 -117q-170 0 -250 103zM133 1208v265h291v-265h-291z" />
<glyph unicode="k" horiz-adv-x="1167" d="M47 0v186l107 27v1047l-107 26v187h397v-924l301 319l-100 23v186h434v-186l-114 -23l-254 -250l315 -405l111 -27v-186h-340l-353 494v-281l84 -27v-186h-481z" />
<glyph unicode="l" horiz-adv-x="595" d="M47 0v186l107 27v1047l-107 26v187h397v-1260l107 -27v-186h-504z" />
<glyph unicode="m" horiz-adv-x="1925" d="M47 0v186l105 27v651l-105 27v186h365l6 -121q87 82 172.5 116t214.5 34q214 0 272 -154q94 85 181 119.5t215 34.5q152 0 226.5 -73t74.5 -222v-598l106 -27v-186h-487v186l98 27v537q0 124 -135 124q-157 0 -250 -88v-573l98 -25v-188h-477v186l96 27v537 q0 124 -135 124q-163 0 -252 -92v-569l99 -27v-186h-488z" />
<glyph unicode="n" horiz-adv-x="1298" d="M47 0v186l107 27v651l-107 27v186h373l6 -121q90 81 180.5 115.5t227.5 34.5q158 0 235.5 -73t77.5 -222v-598l106 -27v-186h-497v186l100 27v537q0 124 -143 124q-172 0 -269 -92v-569l101 -27v-186h-498z" />
<glyph unicode="o" horiz-adv-x="1075" d="M51 426v219q0 240 116.5 350.5t369.5 110.5q254 0 370.5 -110.5t116.5 -350.5v-219q0 -242 -116 -352.5t-371 -110.5q-253 0 -369.5 110.5t-116.5 352.5zM336 444q0 -151 42.5 -204.5t158.5 -53.5q118 0 160 53.5t42 204.5v183q0 149 -42.5 202.5t-159.5 53.5 q-116 0 -158.5 -53.5t-42.5 -202.5v-183z" />
<glyph unicode="p" horiz-adv-x="1185" d="M39 -281l106 27v1118l-106 27v186h371l6 -119q86 79 178.5 113.5t202.5 34.5q179 0 258.5 -109.5t79.5 -347.5v-209q0 -256 -84.5 -365.5t-288.5 -109.5q-203 0 -326 109v-328l127 -27v-186h-524v186zM436 262q41 -33 100 -52.5t117 -19.5q108 0 150.5 57t42.5 191v193 q0 130 -38 184.5t-126 54.5q-154 0 -246 -106v-502z" />
<glyph unicode="q" horiz-adv-x="1103" d="M51 428v209q0 255 84.5 362t288.5 107q242 0 379 -143l57 114h180v-1331l107 -27v-186h-524v186l127 27v356q-148 -139 -361 -139q-178 0 -258 113t-80 352zM340 440q0 -135 37 -190t127 -55q152 0 246 108v500q-42 33 -100.5 51t-117.5 18q-108 0 -150 -56.5t-42 -190.5 v-185z" />
<glyph unicode="r" horiz-adv-x="837" d="M47 0v186l107 27v651l-107 27v186h363l10 -125q128 154 348 154q42 0 66 -4l-37 -275q-47 9 -88 9q-155 0 -265 -99v-524l119 -27v-186h-516z" />
<glyph unicode="s" horiz-adv-x="1007" d="M49 729v76q0 301 459 301q276 0 403 -90v-279h-213l-20 148q-60 24 -160 24q-124 0 -168.5 -23t-44.5 -98q0 -55 34 -80t128 -38q84 -12 138.5 -22t112.5 -23.5t93.5 -29.5t68.5 -38t50 -50.5t27 -65.5t10 -85v-92q0 -82 -33.5 -141.5t-97.5 -94t-147.5 -50t-192.5 -15.5 q-271 0 -437 111v278h215l19 -133q83 -47 184 -47q115 0 167 25t52 96q0 50 -17 73t-52 37q-22 8 -53 12.5t-88.5 12t-116.5 18.5q-69 12 -115 24.5t-88 33.5t-66 50t-37.5 72.5t-13.5 102.5z" />
<glyph unicode="t" horiz-adv-x="739" d="M33 885v192h117v238l280 49v-287h277v-192h-277v-514q0 -93 34.5 -137t119.5 -44q66 0 121 46l24 -173q-81 -100 -244 -100q-179 0 -257 106t-78 306v510h-117z" />
<glyph unicode="u" horiz-adv-x="1185" d="M37 891v186h475v-186l-98 -27v-528q0 -78 44 -108.5t156 -30.5q111 0 154 31.5t43 107.5v528l-98 27v186h436v-186l-88 -27v-532q0 -195 -110 -282t-351 -87q-243 0 -359 87.5t-116 281.5v532z" />
<glyph unicode="v" horiz-adv-x="1181" d="M33 891v186h483v-186l-86 -19l191 -641l206 641l-82 19v186h406v-186l-88 -19l-293 -872h-354l-297 872z" />
<glyph unicode="w" horiz-adv-x="1656" d="M33 889v188h467v-186l-84 -19l92 -636l221 841h279l202 -841l99 636l-84 19v186h399v-186l-86 -19l-158 -872h-360l-184 750l-195 -750h-358l-170 870z" />
<glyph unicode="x" horiz-adv-x="1173" d="M37 0v186l80 19l305 330l-293 337l-80 19v186h500v-186l-86 -19l158 -202l165 202l-79 19v186h415v-186l-86 -19l-284 -311l307 -356l80 -19v-186h-502v186l84 19l-170 219l-180 -219l73 -19v-186h-407z" />
<glyph unicode="y" horiz-adv-x="1173" d="M16 -387l74 209q66 -60 162 -60q126 0 184 156l15 39l-332 913l-90 19v188h477v-188l-86 -19l192 -614l205 614l-82 19v188h406v-188l-88 -19l-357 -956q-29 -77 -54 -131.5t-61.5 -109.5t-76.5 -88t-96.5 -53.5t-124.5 -20.5q-168 0 -267 102z" />
<glyph unicode="z" horiz-adv-x="1058" d="M45 0v215l573 676h-337l-25 -186h-209v372h942v-164l-598 -714h377l37 225h209v-424h-969z" />
<glyph unicode="{" horiz-adv-x="770" d="M92 549v194q102 0 145.5 52.5t43.5 177.5q0 20 -11.5 134.5t-11.5 174.5t8.5 102.5t31.5 81t64 61.5t107.5 36.5t159.5 13.5h84v-186h-56q-85 0 -118 -27t-33 -96q0 -70 10 -175t10 -163q0 -134 -60 -202.5t-181 -80.5q118 -9 179.5 -72t61.5 -172q0 -72 -10 -190 t-10 -186q0 -73 33 -100t118 -27h56v-187h-84q-116 0 -190.5 18.5t-113.5 59.5t-53 92t-14 129q0 59 11.5 175.5t11.5 138.5q0 123 -43.5 173t-145.5 50z" />
<glyph unicode="|" horiz-adv-x="575" d="M172 -274v1888h234v-1888h-234z" />
<glyph unicode="}" horiz-adv-x="772" d="M55 -100h56q85 0 118 27t33 100q0 68 -10 186t-10 190q0 109 61.5 172t179.5 72q-121 12 -181 80.5t-60 202.5q0 58 10 163t10 175q0 69 -33 96t-118 27h-56v186h84q93 0 159.5 -13.5t107.5 -36.5t64 -61.5t31.5 -81t8.5 -102.5t-11.5 -174.5t-11.5 -134.5 q0 -125 43.5 -177.5t145.5 -52.5v-194q-102 0 -145.5 -50t-43.5 -173q0 -22 11.5 -138.5t11.5 -175.5q0 -78 -14 -129t-53 -92t-113.5 -59.5t-190.5 -18.5h-84v187z" />
<glyph unicode="~" horiz-adv-x="1310" d="M102 485v232q120 145 291 145q71 0 147 -21.5t129 -48t115 -48t109 -21.5q96 0 172 37t141 125v-228q-69 -76 -146.5 -110.5t-180.5 -34.5q-59 0 -127 21.5t-120 48t-115.5 48t-113.5 21.5q-91 0 -161.5 -40t-139.5 -126z" />
<glyph unicode="&#xa1;" horiz-adv-x="456" d="M59 119q0 211 21 406t70 493h157q48 -283 69 -483t21 -416q0 -78 -14 -119h-313q-11 60 -11 119zM78 1135v319h305v-319h-305z" />
<glyph unicode="&#xa2;" horiz-adv-x="997" d="M59 618v236q0 386 367 438v162h231v-168q161 -23 258 -123v-272h-213l-18 139q-53 53 -147 53q-102 0 -147.5 -56.5t-45.5 -176.5v-199q0 -122 52 -187t173 -65q87 0 157 40t112 118l112 -170q-103 -178 -293 -217v-170h-231v164q-185 27 -276 143t-91 311z" />
<glyph unicode="&#xa3;" horiz-adv-x="1083" d="M33 0v238q49 -17 94 -17q47 0 82 14t55 35t32 53.5t15.5 63.5t3.5 70q0 50 -18 102h-234v168h164q-59 84 -87.5 157t-28.5 167v63q0 183 112.5 280t325.5 97q268 0 391 -135v-273h-211l-18 138q-65 53 -156 53q-90 0 -136 -43t-46 -139v-43q0 -62 17.5 -124t36.5 -100 t54 -98h461v-168h-391q18 -56 18 -119q0 -102 -37 -180q93 -61 259 -61q157 0 237 100v-242q-94 -94 -266 -94q-86 0 -174 28t-154 79q-52 -56 -109 -81.5t-137 -25.5q-87 0 -155 37z" />
<glyph unicode="&#xa4;" horiz-adv-x="1183" d="M57 365l148 135q-70 115 -70 243q0 132 70 244l-146 135l152 152l135 -144q112 72 246 72q131 0 246 -72l131 144l151 -152l-143 -133q74 -117 74 -246q0 -135 -74 -245l145 -133l-151 -156l-135 147q-110 -69 -244 -69t-244 69l-137 -147zM283 743q0 -129 90 -219 t219 -90q130 0 220.5 90t90.5 219q0 131 -90.5 221.5t-220.5 90.5q-129 0 -219 -91t-90 -221z" />
<glyph unicode="&#xa5;" horiz-adv-x="1228" d="M45 1268v186h502v-186l-88 -27l203 -436l204 436l-88 27v186h406v-186l-92 -27l-273 -545h228v-170h-275v-180h275v-174h-275v-172h-315v172h-285v174h285v180h-285v170h238l-273 545z" />
<glyph unicode="&#xa6;" horiz-adv-x="845" d="M305 -274v815h234v-815h-234zM305 870v744h234v-744h-234z" />
<glyph unicode="&#xa7;" horiz-adv-x="1009" d="M57 492v122q0 139 86 238q-73 70 -73 221v84q0 334 452 334q274 0 398 -100v-310h-209l-21 164q-65 29 -158 29q-123 0 -166.5 -25.5t-43.5 -109.5q0 -61 33 -88.5t126 -42.5q72 -12 121 -21.5t101.5 -22.5t86 -26.5t67.5 -32.5t53.5 -42t35.5 -53t22.5 -67t6.5 -84v-122 q0 -140 -88 -238q76 -73 76 -221v-84q0 -334 -453 -334q-273 0 -397 100v310h209l20 -164q65 -29 158 -29q123 0 167 25.5t44 109.5q0 60 -33.5 88t-126.5 43q-72 12 -121 21.5t-101.5 22.5t-86 26.5t-67.5 32.5t-53.5 42t-35.5 53t-22.5 67t-6.5 84zM324 594 q0 -126 69 -156q25 -8 93.5 -18.5t123.5 -22.5q99 62 99 160q0 125 -70 156q-21 7 -46.5 11.5t-76 11.5t-94.5 14q-98 -56 -98 -156z" />
<glyph unicode="&#xa8;" horiz-adv-x="890" d="M59 1208v265h291v-265h-291zM541 1208v265h290v-265h-290z" />
<glyph unicode="&#xaa;" horiz-adv-x="739" d="M80 770v51q0 160 168 160q61 0 170 -23v64q0 22 -13.5 34t-29 14.5t-39.5 2.5q-97 0 -168 -45l-57 133q98 62 254 62q129 0 181 -41t52 -142v-286q0 -43 31 -43q10 0 22 6l6 -96q-36 -27 -94 -27q-93 0 -129 86q-22 -40 -71 -63t-111 -23q-87 0 -129.5 47.5t-42.5 128.5z M262 788q0 -33 11 -46t38 -13q49 0 107 35v100q-92 8 -96 8q-32 0 -46 -15.5t-14 -49.5v-19z" />
<glyph unicode="&#xab;" horiz-adv-x="929" d="M55 578v225l355 295v-221l-228 -187l228 -186v-221zM520 578v225l354 295v-221l-227 -187l227 -186v-221z" />
<glyph unicode="&#xac;" horiz-adv-x="1294" d="M59 809v268h1176v-1077h-268v809h-908z" />
<glyph unicode="&#xad;" horiz-adv-x="663" d="M59 559v229h545v-229h-545z" />
<glyph unicode="&#xaf;" horiz-adv-x="825" d="M59 1198v195h707v-195h-707z" />
<glyph unicode="&#xb0;" horiz-adv-x="774" d="M59 1126q0 157 80 252t246 95t248 -95.5t82 -251.5q0 -155 -82 -251.5t-248 -96.5q-85 0 -149 27t-102 75t-56.5 109.5t-18.5 136.5zM213 1128q0 -92 42 -149t130 -57q90 0 132 57t42 149t-42 149.5t-132 57.5q-88 0 -130 -57.5t-42 -149.5z" />
<glyph unicode="&#xb1;" horiz-adv-x="1245" d="M102 -70v213h1039v-213h-1039zM102 647v213h412v412h213v-412h414v-213h-414v-416h-213v416h-412z" />
<glyph unicode="&#xb2;" horiz-adv-x="604" d="M57 1432q105 61 250 61q122 0 181 -58t59 -180q0 -97 -68 -178t-217 -180h176l15 70h100v-219h-494v157q48 28 83.5 51.5t83.5 60.5t79 70t53.5 74t22.5 80q0 47 -31 76t-82 29q-73 0 -159 -58z" />
<glyph unicode="&#xb3;" horiz-adv-x="577" d="M49 762l43 139q73 -31 148 -31q120 0 120 99q0 41 -24 62.5t-64 21.5h-73v125h73q80 0 80 73q0 52 -31.5 75.5t-80.5 23.5q-82 0 -146 -43l-45 131q86 55 215 55q122 0 183 -53t61 -150q0 -54 -24.5 -100t-67.5 -64q52 -19 79 -68t27 -112q0 -111 -71 -164t-195 -53 q-120 0 -207 33z" />
<glyph unicode="&#xb4;" horiz-adv-x="559" d="M59 1188l164 381h277l-260 -381h-181z" />
<glyph unicode="&#xb5;" horiz-adv-x="1214" d="M33 -281l108 27v1118l-90 27v186h477v-186l-96 -27v-602q41 -33 99.5 -52.5t117.5 -19.5q107 0 150 58t43 190v426l-99 27v186h437v-186l-88 -27v-424q0 -108 -8.5 -181t-29.5 -132.5t-59.5 -93t-96.5 -51t-142 -17.5q-201 0 -324 109v-328l127 -27v-186h-526v186z" />
<glyph unicode="&#xb6;" horiz-adv-x="1103" d="M27 1159q0 140 67.5 217.5t192.5 77.5h788v-182l-98 -25v-1587h-217v1585h-277v-1585h-221v1200q-117 0 -176 78t-59 221z" />
<glyph unicode="&#xb7;" horiz-adv-x="434" d="M61 532v332h312v-332h-312z" />
<glyph unicode="&#xb8;" horiz-adv-x="409" d="M82 -59h250v-217q-30 -113 -152 -216l-86 76q68 58 111 140h-123v217z" />
<glyph unicode="&#xb9;" horiz-adv-x="448" d="M33 1315q106 69 188 160h123v-603l47 -14v-110h-270v110l57 14v379q-55 -37 -74 -45z" />
<glyph unicode="&#xba;" horiz-adv-x="716" d="M86 848v121q0 132 65 193t207 61t207.5 -61t65.5 -193v-121q0 -132 -65.5 -193t-207.5 -61t-207 61t-65 193zM270 860q0 -74 17.5 -97.5t70.5 -23.5t70.5 23.5t17.5 97.5v96q0 73 -17.5 98t-70.5 25t-70.5 -25t-17.5 -98v-96z" />
<glyph unicode="&#xbb;" horiz-adv-x="929" d="M53 283v219l226 188l-226 184v222l357 -295v-226zM518 283v219l225 188l-225 184v222l356 -295v-226z" />
<glyph unicode="&#xbc;" horiz-adv-x="1312" d="M53 1315q109 71 189 160h123v-603l47 -14v-110h-271v110l58 14v379q-55 -37 -74 -45zM98 -43l856 1542h193l-860 -1542h-189zM721 104v162q123 223 209 459l143 -57q-75 -221 -188 -430h166v233h155v-233h54v-134h-54v-124h-159v124h-326z" />
<glyph unicode="&#xbd;" horiz-adv-x="1320" d="M53 1315q109 71 189 160h123v-603l47 -14v-110h-271v110l58 14v379q-55 -37 -74 -45zM98 -43l856 1542h193l-860 -1542h-189zM772 664q105 61 250 61q122 0 181 -58t59 -180q0 -97 -68 -178t-217 -180h176l14 70h101v-219h-494v157q48 28 83.5 51.5t83.5 60.5t79 70 t53.5 74t22.5 80q0 47 -31 76t-82 29q-74 0 -160 -58z" />
<glyph unicode="&#xbe;" horiz-adv-x="1282" d="M53 762l43 139q73 -31 148 -31q121 0 121 99q0 41 -24.5 62.5t-64.5 21.5h-73v125h73q80 0 80 73q0 52 -31.5 75.5t-80.5 23.5q-82 0 -146 -43l-45 131q86 55 215 55q122 0 183 -53t61 -150q0 -54 -24.5 -100t-67.5 -64q52 -19 79 -68t27 -112q0 -111 -71 -164t-195 -53 q-120 0 -207 33zM109 -43l856 1542h192l-860 -1542h-188zM690 104v162q123 223 209 459l143 -57q-75 -221 -188 -430h166v233h156v-233h53v-134h-53v-124h-160v124h-326z" />
<glyph unicode="&#xbf;" horiz-adv-x="948" d="M59 332v86q0 116 39.5 181t145.5 110q37 15 54.5 23.5t40.5 23t33 29t17.5 36.5t7.5 51v123h260v-161q0 -43 -6 -76.5t-21 -58.5t-30.5 -42.5t-46 -34t-54.5 -26.5t-69 -27q-67 -26 -87.5 -61t-20.5 -119v-37q0 -174 182 -174q90 0 158 55l20 138h207v-273 q-123 -135 -393 -135q-211 0 -324 95t-113 274zM377 1135v319h305v-319h-305z" />
<glyph unicode="&#xc0;" horiz-adv-x="1314" d="M41 0v184l98 27l320 1243h418q44 -184 143.5 -602t153.5 -641l98 -27v-184h-524v184l100 27l-55 246h-355l-61 -246l100 -27v-184h-436zM375 1946h280l160 -381h-180zM479 645h277l-131 574z" />
<glyph unicode="&#xc1;" horiz-adv-x="1314" d="M41 0v184l98 27l320 1243h418q44 -184 143.5 -602t153.5 -641l98 -27v-184h-524v184l100 27l-55 246h-355l-61 -246l100 -27v-184h-436zM479 645h277l-131 574zM498 1565l164 381h276l-260 -381h-180z" />
<glyph unicode="&#xc2;" horiz-adv-x="1314" d="M41 0v184l98 27l320 1243h418q44 -184 143.5 -602t153.5 -641l98 -27v-184h-524v184l100 27l-55 246h-355l-61 -246l100 -27v-184h-436zM256 1563l295 360h225l293 -360h-219l-186 233l-189 -233h-219zM479 645h277l-131 574z" />
<glyph unicode="&#xc3;" horiz-adv-x="1314" d="M41 0v184l98 27l320 1243h418q44 -184 143.5 -602t153.5 -641l98 -27v-184h-524v184l100 27l-55 246h-355l-61 -246l100 -27v-184h-436zM295 1548v187q79 94 188 94q47 0 96.5 -16.5t85 -37t79.5 -37t81 -16.5q109 0 195 105v-187q-79 -94 -189 -94q-49 0 -100 17 t-86.5 37.5t-78.5 37.5t-77 17q-59 0 -104.5 -26t-89.5 -81zM479 645h277l-131 574z" />
<glyph unicode="&#xc4;" horiz-adv-x="1314" d="M41 0v184l98 27l320 1243h418q44 -184 143.5 -602t153.5 -641l98 -27v-184h-524v184l100 27l-55 246h-355l-61 -246l100 -27v-184h-436zM270 1585v264h291v-264h-291zM479 645h277l-131 574zM752 1585v264h290v-264h-290z" />
<glyph unicode="&#xc5;" horiz-adv-x="1314" d="M41 0v184l98 27l320 1243h418q44 -184 143.5 -602t153.5 -641l98 -27v-184h-524v184l100 27l-55 246h-355l-61 -246l100 -27v-184h-436zM438 1735q0 211 230 211q120 0 173.5 -53t53.5 -158q0 -107 -53 -158t-174 -51q-230 0 -230 209zM479 645h277l-131 574zM559 1735 q0 -105 109 -105q112 0 112 105q0 112 -112 112q-109 0 -109 -112z" />
<glyph unicode="&#xc6;" horiz-adv-x="1835" d="M41 0v186l98 25l314 1243h1302v-403h-180l-29 178h-395v-371h330l24 113h150v-432h-150l-24 112h-330v-415h397l41 213h178v-449h-1034v186l107 25v246h-385l-60 -246l101 -25v-186h-455zM496 645h344v584h-199z" />
<glyph unicode="&#xc7;" horiz-adv-x="1140" d="M57 578v299q0 176 32.5 292.5t107.5 188.5t187 102.5t280 30.5q126 0 242 -34.5t181 -102.5v-305h-243l-19 147q-62 70 -186 70q-144 0 -202 -91.5t-58 -297.5v-302q0 -214 56.5 -301.5t203.5 -87.5q128 0 190 72l19 148h244v-295q-151 -148 -428 -148q-168 0 -280 30.5 t-187 103t-107.5 189t-32.5 292.5zM496 -59h249v-217q-15 -55 -56 -112.5t-95 -103.5l-86 76q66 57 110 140h-122v217z" />
<glyph unicode="&#xc8;" horiz-adv-x="1169" d="M59 0v186l107 27v1028l-107 27v186h1031v-403h-177l-28 178h-408v-371h338l29 113h147v-432h-147l-29 112h-338v-413h410l39 211h176v-449h-1043zM303 1946h281l159 -381h-180z" />
<glyph unicode="&#xc9;" horiz-adv-x="1169" d="M59 0v186l107 27v1028l-107 27v186h1031v-403h-177l-28 178h-408v-371h338l29 113h147v-432h-147l-29 112h-338v-413h410l39 211h176v-449h-1043zM436 1565l164 381h277l-261 -381h-180z" />
<glyph unicode="&#xca;" horiz-adv-x="1169" d="M59 0v186l107 27v1028l-107 27v186h1031v-403h-177l-28 178h-408v-371h338l29 113h147v-432h-147l-29 112h-338v-413h410l39 211h176v-449h-1043zM178 1563l295 360h225l293 -360h-219l-186 233l-189 -233h-219z" />
<glyph unicode="&#xcb;" horiz-adv-x="1169" d="M59 0v186l107 27v1028l-107 27v186h1031v-403h-177l-28 178h-408v-371h338l29 113h147v-432h-147l-29 112h-338v-413h410l39 211h176v-449h-1043zM213 1585v264h291v-264h-291zM694 1585v264h291v-264h-291z" />
<glyph unicode="&#xcc;" horiz-adv-x="649" d="M43 1946h281l159 -381h-180zM59 0v186l107 27v1028l-107 27v186h531v-186l-107 -27v-1028l107 -27v-186h-531z" />
<glyph unicode="&#xcd;" horiz-adv-x="649" d="M59 0v186l107 27v1028l-107 27v186h531v-186l-107 -27v-1028l107 -27v-186h-531zM166 1565l164 381h276l-260 -381h-180z" />
<glyph unicode="&#xce;" horiz-adv-x="649" d="M-82 1563l295 360h225l293 -360h-219l-186 233l-189 -233h-219zM59 0v186l107 27v1028l-107 27v186h531v-186l-107 -27v-1028l107 -27v-186h-531z" />
<glyph unicode="&#xcf;" horiz-adv-x="649" d="M-61 1585v264h290v-264h-290zM59 0v186l107 27v1028l-107 27v186h531v-186l-107 -27v-1028l107 -27v-186h-531zM420 1585v264h291v-264h-291z" />
<glyph unicode="&#xd0;" horiz-adv-x="1273" d="M59 0v186l107 27v438h-107v207h107v383l-107 27v186h637q279 0 398.5 -126.5t119.5 -424.5v-352q0 -298 -119.5 -424.5t-398.5 -126.5h-637zM483 221h213q106 0 153.5 72t47.5 248v360q0 183 -47.5 257.5t-153.5 74.5h-213v-375h215v-207h-215v-430z" />
<glyph unicode="&#xd1;" horiz-adv-x="1374" d="M59 0v186l107 27v1028l-107 27v186h471l439 -922v709l-99 27v186h451v-186l-102 -27v-1241h-269l-534 1006v-793l116 -27v-186h-473zM324 1548v187q79 94 188 94q47 0 96.5 -16.5t85 -37t79.5 -37t81 -16.5q109 0 195 105v-187q-79 -94 -189 -94q-49 0 -100 17 t-86.5 37.5t-78.5 37.5t-77 17q-59 0 -104.5 -26t-89.5 -81z" />
<glyph unicode="&#xd2;" horiz-adv-x="1251" d="M59 582v290q0 320 138 469.5t428 149.5t428.5 -149.5t138.5 -469.5v-290q0 -320 -138.5 -469.5t-428.5 -149.5t-428 149.5t-138 469.5zM344 1946h281l159 -381h-180zM377 582q0 -152 26.5 -237.5t78.5 -118.5t143 -33t143 33t78 118t26 238v290q0 151 -26 236t-78 119.5 t-143 34.5q-90 0 -142.5 -34t-79 -119.5t-26.5 -236.5v-290z" />
<glyph unicode="&#xd3;" horiz-adv-x="1251" d="M59 582v290q0 320 138 469.5t428 149.5t428.5 -149.5t138.5 -469.5v-290q0 -320 -138.5 -469.5t-428.5 -149.5t-428 149.5t-138 469.5zM377 582q0 -152 26.5 -237.5t78.5 -118.5t143 -33t143 33t78 118t26 238v290q0 151 -26 236t-78 119.5t-143 34.5q-90 0 -142.5 -34 t-79 -119.5t-26.5 -236.5v-290zM467 1565l164 381h276l-260 -381h-180z" />
<glyph unicode="&#xd4;" horiz-adv-x="1251" d="M59 582v290q0 320 138 469.5t428 149.5t428.5 -149.5t138.5 -469.5v-290q0 -320 -138.5 -469.5t-428.5 -149.5t-428 149.5t-138 469.5zM219 1563l295 360h225l293 -360h-219l-186 233l-189 -233h-219zM377 582q0 -152 26.5 -237.5t78.5 -118.5t143 -33t143 33t78 118 t26 238v290q0 151 -26 236t-78 119.5t-143 34.5q-90 0 -142.5 -34t-79 -119.5t-26.5 -236.5v-290z" />
<glyph unicode="&#xd5;" horiz-adv-x="1251" d="M59 582v290q0 320 138 469.5t428 149.5t428.5 -149.5t138.5 -469.5v-290q0 -320 -138.5 -469.5t-428.5 -149.5t-428 149.5t-138 469.5zM262 1548v187q79 94 189 94q47 0 96.5 -16.5t85 -37t79.5 -37t81 -16.5q58 0 103.5 25t90.5 80v-187q-79 -94 -188 -94q-49 0 -100 17 t-86.5 37.5t-78.5 37.5t-77 17q-59 0 -105 -26t-90 -81zM377 582q0 -152 26.5 -237.5t78.5 -118.5t143 -33t143 33t78 118t26 238v290q0 151 -26 236t-78 119.5t-143 34.5q-90 0 -142.5 -34t-79 -119.5t-26.5 -236.5v-290z" />
<glyph unicode="&#xd6;" horiz-adv-x="1251" d="M59 582v290q0 320 138 469.5t428 149.5t428.5 -149.5t138.5 -469.5v-290q0 -320 -138.5 -469.5t-428.5 -149.5t-428 149.5t-138 469.5zM240 1585v264h290v-264h-290zM377 582q0 -152 26.5 -237.5t78.5 -118.5t143 -33t143 33t78 118t26 238v290q0 151 -26 236t-78 119.5 t-143 34.5q-90 0 -142.5 -34t-79 -119.5t-26.5 -236.5v-290zM721 1585v264h291v-264h-291z" />
<glyph unicode="&#xd7;" horiz-adv-x="1308" d="M207 459l291 293l-289 288l151 152l291 -289l293 291l150 -152l-291 -290l293 -295l-152 -152l-293 293l-293 -291z" />
<glyph unicode="&#xd8;" horiz-adv-x="1251" d="M57 -154l136 271q-134 149 -134 465v290q0 320 138 469.5t428 149.5q134 0 241 -35l76 152h248l-135 -269q137 -149 137 -467v-290q0 -320 -138.5 -469.5t-428.5 -149.5q-141 0 -248 37l-76 -154h-244zM377 582q0 -68 2 -97l375 750q-52 27 -129 27q-90 0 -142.5 -34 t-79 -119.5t-26.5 -236.5v-290zM489 221q49 -28 136 -28q91 0 143 33t78 118t26 238v290q0 39 -4 101z" />
<glyph unicode="&#xd9;" horiz-adv-x="1376" d="M49 1268v186h514v-186l-98 -27v-782q0 -137 54.5 -190.5t187.5 -53.5q137 0 191 53.5t54 190.5v782l-98 27v186h475v-186l-96 -27v-747q0 -102 -8.5 -173.5t-31 -134.5t-61 -102.5t-100.5 -68t-146.5 -40.5t-201.5 -12q-158 0 -261 28t-166 93.5t-88.5 163t-25.5 246.5 v747zM406 1946h280l160 -381h-180z" />
<glyph unicode="&#xda;" horiz-adv-x="1376" d="M49 1268v186h514v-186l-98 -27v-782q0 -137 54.5 -190.5t187.5 -53.5q137 0 191 53.5t54 190.5v782l-98 27v186h475v-186l-96 -27v-747q0 -102 -8.5 -173.5t-31 -134.5t-61 -102.5t-100.5 -68t-146.5 -40.5t-201.5 -12q-158 0 -261 28t-166 93.5t-88.5 163t-25.5 246.5 v747zM528 1565l164 381h277l-260 -381h-181z" />
<glyph unicode="&#xdb;" horiz-adv-x="1376" d="M49 1268v186h514v-186l-98 -27v-782q0 -137 54.5 -190.5t187.5 -53.5q137 0 191 53.5t54 190.5v782l-98 27v186h475v-186l-96 -27v-747q0 -102 -8.5 -173.5t-31 -134.5t-61 -102.5t-100.5 -68t-146.5 -40.5t-201.5 -12q-158 0 -261 28t-166 93.5t-88.5 163t-25.5 246.5 v747zM281 1563l294 360h226l293 -360h-220l-186 233l-188 -233h-219z" />
<glyph unicode="&#xdc;" horiz-adv-x="1376" d="M49 1268v186h514v-186l-98 -27v-782q0 -137 54.5 -190.5t187.5 -53.5q137 0 191 53.5t54 190.5v782l-98 27v186h475v-186l-96 -27v-747q0 -102 -8.5 -173.5t-31 -134.5t-61 -102.5t-100.5 -68t-146.5 -40.5t-201.5 -12q-158 0 -261 28t-166 93.5t-88.5 163t-25.5 246.5 v747zM301 1585v264h291v-264h-291zM782 1585v264h291v-264h-291z" />
<glyph unicode="&#xdd;" horiz-adv-x="1230" d="M43 1268v186h502v-186l-88 -27l205 -459l208 459l-88 27v186h406v-186l-92 -27l-322 -682v-346l119 -27v-186h-555v186l119 27v346l-324 682zM477 1565l164 381h277l-261 -381h-180z" />
<glyph unicode="&#xde;" horiz-adv-x="1187" d="M59 0v186l107 27v1028l-107 27v186h523v-186l-103 -27v-90h256q221 0 315.5 -96.5t94.5 -327.5q0 -232 -94.5 -330t-315.5 -98h-256v-86l103 -27v-186h-523zM479 494h205q85 0 121.5 51t36.5 182q0 130 -36.5 180.5t-121.5 50.5h-205v-464z" />
<glyph unicode="&#xdf;" horiz-adv-x="1429" d="M41 0v186l106 25v987q0 75 19 128.5t51 85.5t86.5 49.5t111.5 23.5t140 6t140.5 -6t112 -23.5t86.5 -49.5t51.5 -85.5t19.5 -128.5v-354q0 -56 42 -87.5t134 -60.5q126 -39 181.5 -107t55.5 -196v-129q0 -301 -387 -301q-230 0 -370 113v268h202l21 -131q76 -45 162 -45 q67 0 98 33.5t31 103.5v33q0 44 -9 68t-39 49q-18 15 -71 33.5t-108 41.5t-109.5 58t-89.5 98t-35 148v348q0 60 -27 83t-92 23q-59 0 -90 -23.5t-31 -82.5v-971l84 -25v-186h-477z" />
<glyph unicode="&#xe0;" d="M39 285v92q0 289 309 289q161 0 340 -54v136q0 73 -47 101t-135 28q-186 0 -324 -89l-88 205q171 113 457 113q228 0 322 -74.5t94 -255.5v-555q0 -78 59 -78q26 0 47 21l12 -150q-55 -49 -155 -49q-91 0 -143 42t-72 132q-42 -80 -138 -128t-219 -48q-162 0 -240.5 86.5 t-78.5 235.5zM276 1569h281l160 -381h-180zM322 309q0 -73 27.5 -106t96.5 -33q131 0 242 100v195q-116 33 -229 33q-73 0 -105 -35.5t-32 -110.5v-43z" />
<glyph unicode="&#xe1;" d="M39 285v92q0 289 309 289q161 0 340 -54v136q0 73 -47 101t-135 28q-186 0 -324 -89l-88 205q171 113 457 113q228 0 322 -74.5t94 -255.5v-555q0 -78 59 -78q26 0 47 21l12 -150q-55 -49 -155 -49q-91 0 -143 42t-72 132q-42 -80 -138 -128t-219 -48q-162 0 -240.5 86.5 t-78.5 235.5zM322 309q0 -73 27.5 -106t96.5 -33q131 0 242 100v195q-116 33 -229 33q-73 0 -105 -35.5t-32 -110.5v-43zM399 1188l164 381h277l-260 -381h-181z" />
<glyph unicode="&#xe2;" d="M39 285v92q0 289 309 289q161 0 340 -54v136q0 73 -47 101t-135 28q-186 0 -324 -89l-88 205q171 113 457 113q228 0 322 -74.5t94 -255.5v-555q0 -78 59 -78q26 0 47 21l12 -150q-55 -49 -155 -49q-91 0 -143 42t-72 132q-42 -80 -138 -128t-219 -48q-162 0 -240.5 86.5 t-78.5 235.5zM152 1186l294 360h226l293 -360h-220l-186 233l-188 -233h-219zM322 309q0 -73 27.5 -106t96.5 -33q131 0 242 100v195q-116 33 -229 33q-73 0 -105 -35.5t-32 -110.5v-43z" />
<glyph unicode="&#xe3;" d="M39 285v92q0 289 309 289q161 0 340 -54v136q0 73 -47 101t-135 28q-186 0 -324 -89l-88 205q171 113 457 113q228 0 322 -74.5t94 -255.5v-555q0 -78 59 -78q26 0 47 21l12 -150q-55 -49 -155 -49q-91 0 -143 42t-72 132q-42 -80 -138 -128t-219 -48q-162 0 -240.5 86.5 t-78.5 235.5zM197 1171v187q79 94 188 94q59 0 121 -26.5t119 -53t102 -26.5q110 0 195 104v-186q-79 -95 -189 -95q-62 0 -125.5 27.5t-119 54.5t-97.5 27q-59 0 -104.5 -26t-89.5 -81zM322 309q0 -73 27.5 -106t96.5 -33q131 0 242 100v195q-116 33 -229 33 q-73 0 -105 -35.5t-32 -110.5v-43z" />
<glyph unicode="&#xe4;" d="M39 285v92q0 289 309 289q161 0 340 -54v136q0 73 -47 101t-135 28q-186 0 -324 -89l-88 205q171 113 457 113q228 0 322 -74.5t94 -255.5v-555q0 -78 59 -78q26 0 47 21l12 -150q-55 -49 -155 -49q-91 0 -143 42t-72 132q-42 -80 -138 -128t-219 -48q-162 0 -240.5 86.5 t-78.5 235.5zM172 1208v265h291v-265h-291zM322 309q0 -73 27.5 -106t96.5 -33q131 0 242 100v195q-116 33 -229 33q-73 0 -105 -35.5t-32 -110.5v-43zM653 1208v265h291v-265h-291z" />
<glyph unicode="&#xe5;" d="M39 285v92q0 289 309 289q161 0 340 -54v136q0 73 -47 101t-135 28q-186 0 -324 -89l-88 205q171 113 457 113q228 0 322 -74.5t94 -255.5v-555q0 -78 59 -78q26 0 47 21l12 -150q-55 -49 -155 -49q-91 0 -143 42t-72 132q-42 -80 -138 -128t-219 -48q-162 0 -240.5 86.5 t-78.5 235.5zM322 309q0 -73 27.5 -106t96.5 -33q131 0 242 100v195q-116 33 -229 33q-73 0 -105 -35.5t-32 -110.5v-43zM330 1358q0 211 229 211q120 0 173.5 -53t53.5 -158q0 -107 -53 -158t-174 -51q-229 0 -229 209zM451 1358q0 -105 108 -105q113 0 113 105 q0 112 -113 112q-108 0 -108 -112z" />
<glyph unicode="&#xe6;" horiz-adv-x="1675" d="M39 285v92q0 289 309 289q154 0 340 -54v133q0 53 -25.5 83.5t-62.5 39.5t-94 9q-181 0 -324 -89l-90 205q169 111 455 111q242 0 311 -121q85 121 303 121q113 0 193 -21.5t131.5 -60.5t81 -104t40.5 -141t11 -183v-137h-649q3 -267 256 -267q197 0 280 119l103 -164 q-100 -180 -420 -180q-296 0 -410 195q-72 -102 -187 -149.5t-235 -47.5q-162 0 -239.5 86.5t-77.5 235.5zM319 309q0 -73 28.5 -107t98.5 -34t134.5 31.5t107.5 79.5v184q-107 35 -231 35q-73 0 -105.5 -36t-32.5 -110v-43zM969 641h385q0 67 -6 109t-24.5 81t-58.5 57.5 t-102 18.5q-61 0 -101 -18.5t-59.5 -56.5t-26.5 -82t-7 -109z" />
<glyph unicode="&#xe7;" horiz-adv-x="980" d="M51 426v236q0 100 26.5 180t81.5 140t145.5 92t211.5 32q269 0 399 -135v-273h-213l-18 138q-52 55 -152 55q-102 0 -149 -58t-47 -178v-198q0 -122 54 -186t175 -64q88 0 160.5 39.5t112.5 115.5l112 -167q-134 -232 -409 -232q-245 0 -367.5 119.5t-122.5 343.5z M395 -59h250v-217q-15 -55 -56 -112.5t-95 -103.5l-86 76q66 57 110 140h-123v217z" />
<glyph unicode="&#xe8;" horiz-adv-x="1038" d="M53 451v159q0 257 108 376.5t363 119.5q94 0 165.5 -14t121.5 -44.5t83.5 -71t52.5 -100.5t26.5 -126.5t7.5 -155.5v-137h-649q0 -150 55.5 -208.5t200.5 -58.5q107 0 171.5 31t110.5 92l101 -168q-101 -182 -422 -182q-250 0 -373 132t-123 356zM258 1569h281l159 -381 h-180zM332 641h387q0 52 -3 87t-14 71.5t-31.5 58t-56 35.5t-86.5 14q-62 0 -102.5 -19t-60 -57.5t-26.5 -81.5t-7 -108z" />
<glyph unicode="&#xe9;" horiz-adv-x="1038" d="M53 451v159q0 257 108 376.5t363 119.5q94 0 165.5 -14t121.5 -44.5t83.5 -71t52.5 -100.5t26.5 -126.5t7.5 -155.5v-137h-649q0 -150 55.5 -208.5t200.5 -58.5q107 0 171.5 31t110.5 92l101 -168q-101 -182 -422 -182q-250 0 -373 132t-123 356zM332 641h387q0 52 -3 87 t-14 71.5t-31.5 58t-56 35.5t-86.5 14q-62 0 -102.5 -19t-60 -57.5t-26.5 -81.5t-7 -108zM360 1188l164 381h277l-260 -381h-181z" />
<glyph unicode="&#xea;" horiz-adv-x="1038" d="M53 451v159q0 257 108 376.5t363 119.5q94 0 165.5 -14t121.5 -44.5t83.5 -71t52.5 -100.5t26.5 -126.5t7.5 -155.5v-137h-649q0 -150 55.5 -208.5t200.5 -58.5q107 0 171.5 31t110.5 92l101 -168q-101 -182 -422 -182q-250 0 -373 132t-123 356zM113 1186l295 360h225 l293 -360h-219l-187 233l-188 -233h-219zM332 641h387q0 52 -3 87t-14 71.5t-31.5 58t-56 35.5t-86.5 14q-62 0 -102.5 -19t-60 -57.5t-26.5 -81.5t-7 -108z" />
<glyph unicode="&#xeb;" horiz-adv-x="1038" d="M53 451v159q0 257 108 376.5t363 119.5q94 0 165.5 -14t121.5 -44.5t83.5 -71t52.5 -100.5t26.5 -126.5t7.5 -155.5v-137h-649q0 -150 55.5 -208.5t200.5 -58.5q107 0 171.5 31t110.5 92l101 -168q-101 -182 -422 -182q-250 0 -373 132t-123 356zM133 1208v265h291v-265 h-291zM332 641h387q0 52 -3 87t-14 71.5t-31.5 58t-56 35.5t-86.5 14q-62 0 -102.5 -19t-60 -57.5t-26.5 -81.5t-7 -108zM614 1208v265h291v-265h-291z" />
<glyph unicode="&#xec;" horiz-adv-x="595" d="M16 1569h281l160 -381h-181zM47 0v186l107 27v651l-107 27v186h397v-864l107 -27v-186h-504z" />
<glyph unicode="&#xed;" horiz-adv-x="595" d="M47 0v186l107 27v651l-107 27v186h397v-864l107 -27v-186h-504zM139 1188l164 381h277l-261 -381h-180z" />
<glyph unicode="&#xee;" horiz-adv-x="741" d="M-37 1186l295 360h225l293 -360h-219l-186 233l-189 -233h-219zM119 0v186l106 27v651l-106 27v186h397v-864l107 -27v-186h-504z" />
<glyph unicode="&#xef;" horiz-adv-x="733" d="M-20 1208v265h290v-265h-290zM115 0v186l106 27v651l-106 27v186h397v-864l106 -27v-186h-503zM461 1208v265h291v-265h-291z" />
<glyph unicode="&#xf0;" horiz-adv-x="1089" d="M49 389v205q0 91 19.5 155t53.5 103.5t91.5 62t121 30t154.5 7.5q165 0 226 -71q-18 142 -78 282l-246 -92l-65 162l231 86q-45 74 -104 133l198 72q68 -65 117 -125l193 71l63 -161l-152 -58q164 -284 164 -696v-166q0 -228 -116.5 -327t-374.5 -99q-256 0 -376 99.5 t-120 326.5zM340 430q0 -136 44 -193t161 -57q104 0 155.5 46t51.5 145v211q-9 90 -60 133t-149 43q-104 0 -153.5 -40t-49.5 -136v-152z" />
<glyph unicode="&#xf1;" horiz-adv-x="1298" d="M47 0v186l107 27v651l-107 27v186h373l6 -121q90 81 180.5 115.5t227.5 34.5q158 0 235.5 -73t77.5 -222v-598l106 -27v-186h-497v186l100 27v537q0 124 -143 124q-172 0 -269 -92v-569l101 -27v-186h-498zM287 1171v187q79 94 188 94q59 0 121 -26.5t119 -53t102 -26.5 q110 0 195 104v-186q-79 -95 -189 -95q-62 0 -125.5 27.5t-119 54.5t-97.5 27q-59 0 -104.5 -26t-89.5 -81z" />
<glyph unicode="&#xf2;" horiz-adv-x="1075" d="M51 426v219q0 240 116.5 350.5t369.5 110.5q254 0 370.5 -110.5t116.5 -350.5v-219q0 -242 -116 -352.5t-371 -110.5q-253 0 -369.5 110.5t-116.5 352.5zM256 1569h281l159 -381h-180zM336 444q0 -151 42.5 -204.5t158.5 -53.5q118 0 160 53.5t42 204.5v183 q0 149 -42.5 202.5t-159.5 53.5q-116 0 -158.5 -53.5t-42.5 -202.5v-183z" />
<glyph unicode="&#xf3;" horiz-adv-x="1075" d="M51 426v219q0 240 116.5 350.5t369.5 110.5q254 0 370.5 -110.5t116.5 -350.5v-219q0 -242 -116 -352.5t-371 -110.5q-253 0 -369.5 110.5t-116.5 352.5zM336 444q0 -151 42.5 -204.5t158.5 -53.5q118 0 160 53.5t42 204.5v183q0 149 -42.5 202.5t-159.5 53.5 q-116 0 -158.5 -53.5t-42.5 -202.5v-183zM379 1188l164 381h276l-260 -381h-180z" />
<glyph unicode="&#xf4;" horiz-adv-x="1075" d="M51 426v219q0 240 116.5 350.5t369.5 110.5q254 0 370.5 -110.5t116.5 -350.5v-219q0 -242 -116 -352.5t-371 -110.5q-253 0 -369.5 110.5t-116.5 352.5zM131 1186l295 360h225l293 -360h-219l-186 233l-189 -233h-219zM336 444q0 -151 42.5 -204.5t158.5 -53.5 q118 0 160 53.5t42 204.5v183q0 149 -42.5 202.5t-159.5 53.5q-116 0 -158.5 -53.5t-42.5 -202.5v-183z" />
<glyph unicode="&#xf5;" horiz-adv-x="1075" d="M51 426v219q0 240 116.5 350.5t369.5 110.5q254 0 370.5 -110.5t116.5 -350.5v-219q0 -242 -116 -352.5t-371 -110.5q-253 0 -369.5 110.5t-116.5 352.5zM174 1171v187q79 94 188 94q47 0 96.5 -16.5t85.5 -36.5t80 -36.5t81 -16.5q58 0 103.5 24.5t90.5 79.5v-186 q-79 -95 -188 -95q-62 0 -125.5 27.5t-119 54.5t-97.5 27q-59 0 -105 -26t-90 -81zM336 444q0 -151 42.5 -204.5t158.5 -53.5q118 0 160 53.5t42 204.5v183q0 149 -42.5 202.5t-159.5 53.5q-116 0 -158.5 -53.5t-42.5 -202.5v-183z" />
<glyph unicode="&#xf6;" horiz-adv-x="1075" d="M51 426v219q0 240 116.5 350.5t369.5 110.5q254 0 370.5 -110.5t116.5 -350.5v-219q0 -242 -116 -352.5t-371 -110.5q-253 0 -369.5 110.5t-116.5 352.5zM152 1208v265h290v-265h-290zM336 444q0 -151 42.5 -204.5t158.5 -53.5q118 0 160 53.5t42 204.5v183 q0 149 -42.5 202.5t-159.5 53.5q-116 0 -158.5 -53.5t-42.5 -202.5v-183zM633 1208v265h291v-265h-291z" />
<glyph unicode="&#xf7;" horiz-adv-x="1245" d="M102 647v213h1039v-213h-1039zM467 172v332h311v-332h-311zM467 1004v331h311v-331h-311z" />
<glyph unicode="&#xf8;" horiz-adv-x="1075" d="M49 -154l119 226q-117 111 -117 354v219q0 240 116.5 350.5t369.5 110.5q77 0 163 -14l74 139h248l-121 -230q123 -111 123 -356v-219q0 -242 -116 -352.5t-371 -110.5q-88 0 -175 17l-69 -134h-244zM336 395l254 484q-32 4 -53 4q-116 0 -158.5 -53.5t-42.5 -202.5v-232 zM473 190q18 -4 64 -4q118 0 160 53.5t42 204.5v248z" />
<glyph unicode="&#xf9;" horiz-adv-x="1185" d="M37 891v186h475v-186l-98 -27v-528q0 -78 44 -108.5t156 -30.5q111 0 154 31.5t43 107.5v528l-98 27v186h436v-186l-88 -27v-532q0 -195 -110 -282t-351 -87q-243 0 -359 87.5t-116 281.5v532zM311 1569h281l160 -381h-181z" />
<glyph unicode="&#xfa;" horiz-adv-x="1185" d="M37 891v186h475v-186l-98 -27v-528q0 -78 44 -108.5t156 -30.5q111 0 154 31.5t43 107.5v528l-98 27v186h436v-186l-88 -27v-532q0 -195 -110 -282t-351 -87q-243 0 -359 87.5t-116 281.5v532zM434 1188l164 381h276l-260 -381h-180z" />
<glyph unicode="&#xfb;" horiz-adv-x="1185" d="M37 891v186h475v-186l-98 -27v-528q0 -78 44 -108.5t156 -30.5q111 0 154 31.5t43 107.5v528l-98 27v186h436v-186l-88 -27v-532q0 -195 -110 -282t-351 -87q-243 0 -359 87.5t-116 281.5v532zM186 1186l295 360h226l292 -360h-219l-186 233l-188 -233h-220z" />
<glyph unicode="&#xfc;" horiz-adv-x="1185" d="M37 891v186h475v-186l-98 -27v-528q0 -78 44 -108.5t156 -30.5q111 0 154 31.5t43 107.5v528l-98 27v186h436v-186l-88 -27v-532q0 -195 -110 -282t-351 -87q-243 0 -359 87.5t-116 281.5v532zM207 1208v265h291v-265h-291zM688 1208v265h291v-265h-291z" />
<glyph unicode="&#xfd;" horiz-adv-x="1173" d="M16 -387l74 209q66 -60 162 -60q126 0 184 156l15 39l-332 913l-90 19v188h477v-188l-86 -19l192 -614l205 614l-82 19v188h406v-188l-88 -19l-357 -956q-29 -77 -54 -131.5t-61.5 -109.5t-76.5 -88t-96.5 -53.5t-124.5 -20.5q-168 0 -267 102zM449 1188l163 381h277 l-260 -381h-180z" />
<glyph unicode="&#xfe;" horiz-adv-x="1155" d="M4 -281l107 27v1514l-107 26v187h397v-500q142 133 361 133q178 0 258 -110.5t80 -348.5v-207q0 -256 -84.5 -365.5t-288.5 -109.5q-203 0 -326 109v-328l127 -27v-186h-524v186zM401 262q42 -33 101 -52.5t116 -19.5q108 0 150.5 57t42.5 191v193q0 132 -37.5 189 t-126.5 57q-148 0 -246 -109v-506z" />
<glyph unicode="&#xff;" horiz-adv-x="1173" d="M16 -387l74 209q66 -60 162 -60q126 0 184 156l15 39l-332 913l-90 19v188h477v-188l-86 -19l192 -614l205 614l-82 19v188h406v-188l-88 -19l-357 -956q-29 -77 -54 -131.5t-61.5 -109.5t-76.5 -88t-96.5 -53.5t-124.5 -20.5q-168 0 -267 102zM227 1208v265h291v-265 h-291zM709 1208v265h290v-265h-290z" />
<glyph unicode="&#x152;" horiz-adv-x="1812" d="M59 551v352q0 298 121 424.5t400 126.5h1153v-403h-179l-26 178h-387v-371h317l27 113h149v-432h-149l-27 112h-317v-413h389l39 211h176v-449h-1165q-279 0 -400 126.5t-121 424.5zM377 541q0 -174 49.5 -247t153.5 -73h249v1012h-249q-106 0 -154.5 -71.5t-48.5 -248.5 v-372z" />
<glyph unicode="&#x153;" horiz-adv-x="1730" d="M49 426v219q0 237 115 348t366 111q252 0 353 -125q92 127 334 127q113 0 193 -22t131 -61t80.5 -104.5t40.5 -141.5t11 -183v-137h-649q2 -128 65.5 -197.5t190.5 -69.5q114 0 179.5 28.5t103.5 94.5l100 -168q-101 -182 -422 -182q-239 0 -344 137q-96 -137 -360 -137 q-255 0 -371.5 110.5t-116.5 352.5zM334 444q0 -151 43 -204.5t160 -53.5t159.5 53.5t42.5 204.5v181q0 149 -43 203.5t-159 54.5t-159.5 -54.5t-43.5 -203.5v-181zM1024 641h387q0 66 -6 108t-24.5 81.5t-58 58t-101.5 18.5q-50 0 -86 -13t-57 -35t-33.5 -57.5t-16.5 -72.5 t-4 -88z" />
<glyph unicode="&#x178;" horiz-adv-x="1230" d="M43 1268v186h502v-186l-88 -27l205 -459l208 459l-88 27v186h406v-186l-92 -27l-322 -682v-346l119 -27v-186h-555v186l119 27v346l-324 682zM229 1585v264h291v-264h-291zM711 1585v264h290v-264h-290z" />
<glyph unicode="&#x2c6;" horiz-adv-x="931" d="M59 1186l295 360h226l292 -360h-219l-186 233l-188 -233h-220z" />
<glyph unicode="&#x2dc;" horiz-adv-x="841" d="M57 1171v187q79 94 189 94q59 0 121 -26.5t119 -53t102 -26.5q58 0 103.5 24.5t90.5 79.5v-186q-79 -95 -188 -95q-62 0 -125.5 27.5t-119 54.5t-97.5 27q-59 0 -105 -26t-90 -81z" />
<glyph unicode="&#x2000;" horiz-adv-x="973" />
<glyph unicode="&#x2001;" horiz-adv-x="1946" />
<glyph unicode="&#x2002;" horiz-adv-x="973" />
<glyph unicode="&#x2003;" horiz-adv-x="1946" />
<glyph unicode="&#x2004;" horiz-adv-x="648" />
<glyph unicode="&#x2005;" horiz-adv-x="486" />
<glyph unicode="&#x2006;" horiz-adv-x="324" />
<glyph unicode="&#x2007;" horiz-adv-x="324" />
<glyph unicode="&#x2008;" horiz-adv-x="243" />
<glyph unicode="&#x2009;" horiz-adv-x="389" />
<glyph unicode="&#x200a;" horiz-adv-x="108" />
<glyph unicode="&#x2010;" horiz-adv-x="663" d="M59 559v229h545v-229h-545z" />
<glyph unicode="&#x2011;" horiz-adv-x="663" d="M59 559v229h545v-229h-545z" />
<glyph unicode="&#x2012;" horiz-adv-x="663" d="M59 559v229h545v-229h-545z" />
<glyph unicode="&#x2013;" horiz-adv-x="1097" d="M59 559v229h981v-229h-981z" />
<glyph unicode="&#x2014;" horiz-adv-x="1507" d="M59 559v229h1389v-229h-1389z" />
<glyph unicode="&#x2018;" horiz-adv-x="438" d="M66 1126v347h311v-332h-172q41 -88 143 -187l-90 -96q-64 55 -116 126.5t-76 141.5z" />
<glyph unicode="&#x2019;" horiz-adv-x="438" d="M66 1141v332h311v-347q-26 -70 -78.5 -141.5t-116.5 -126.5l-90 96q104 100 144 187h-170z" />
<glyph unicode="&#x201a;" horiz-adv-x="438" d="M66 0v332h311v-346q-26 -70 -79 -142t-116 -125l-90 95q103 99 144 186h-170z" />
<glyph unicode="&#x201c;" horiz-adv-x="876" d="M66 1126v347h311v-332h-172q41 -88 143 -187l-90 -96q-64 55 -116 126.5t-76 141.5zM504 1126v347h311v-332h-172q41 -88 143 -187l-90 -96q-64 55 -116 126.5t-76 141.5z" />
<glyph unicode="&#x201d;" horiz-adv-x="876" d="M66 1141v332h311v-347q-26 -70 -78.5 -141.5t-116.5 -126.5l-90 96q104 100 144 187h-170zM504 1141v332h311v-347q-26 -70 -78 -142t-116 -126l-91 96q104 100 144 187h-170z" />
<glyph unicode="&#x201e;" horiz-adv-x="876" d="M66 0v332h311v-346q-26 -70 -79 -142t-116 -125l-90 95q103 99 144 186h-170zM504 0v332h311v-346q-26 -70 -78.5 -142t-115.5 -125l-91 95q103 99 144 186h-170z" />
<glyph unicode="&#x2022;" horiz-adv-x="753" d="M59 752q0 140 84 225.5t234 85.5q153 0 235 -85t82 -226q0 -137 -82.5 -223.5t-234.5 -86.5q-149 0 -233.5 87t-84.5 223z" />
<glyph unicode="&#x2026;" horiz-adv-x="2170" d="M61 0v332h312v-332h-312zM930 0v332h311v-332h-311zM1798 0v332h311v-332h-311z" />
<glyph unicode="&#x202f;" horiz-adv-x="389" />
<glyph unicode="&#x2039;" horiz-adv-x="464" d="M55 578v225l355 295v-221l-228 -187l228 -186v-221z" />
<glyph unicode="&#x203a;" horiz-adv-x="464" d="M53 283v219l226 188l-226 184v222l357 -295v-226z" />
<glyph unicode="&#x205f;" horiz-adv-x="486" />
<glyph unicode="&#x20ac;" horiz-adv-x="1146" d="M25 477l30 156h115v176h-145l30 156h117q20 271 157.5 398.5t405.5 127.5q219 0 359 -80l-88 -205q-98 56 -271 56q-122 0 -179 -65.5t-67 -231.5h418l-65 -156h-355v-176h283l-68 -156h-210q10 -161 66.5 -222.5t176.5 -61.5q182 0 283 57l110 -187q-147 -100 -393 -100 q-265 0 -403 125t-158 389h-149z" />
<glyph unicode="&#x2122;" horiz-adv-x="1851" d="M61 1112v342h672v-342h-110l-17 203h-114v-600l69 -17v-110h-330v110l70 17v600h-113l-18 -203h-109zM795 588v110l61 17v610l-61 18v111h366l139 -649l146 649h342v-111l-64 -18v-610l64 -17v-110h-291v110l59 17v594l-174 -721h-192l-172 721v-594l59 -17v-110h-282z " />
<glyph unicode="&#x25fc;" horiz-adv-x="1075" d="M0 0v1075h1075v-1075h-1075z" />
<glyph unicode="&#xfb01;" horiz-adv-x="1300" d="M37 885v192h123v125q0 156 76 222.5t235 66.5q161 0 229 -45l-30 -180q-42 22 -109 22q-57 0 -87 -24t-30 -80v-107h236v-192h-236v-672l127 -27v-186h-520v186l109 27v672h-123zM752 0v186l106 27v651l-106 27v186h397v-864l106 -27v-186h-503zM858 1208v265h291v-265 h-291z" />
<glyph unicode="&#xfb02;" horiz-adv-x="1331" d="M37 885v192h123v125q0 156 76 222.5t235 66.5q161 0 229 -45l-30 -180q-42 22 -109 22q-57 0 -87 -24t-30 -80v-107h236v-192h-236v-672l127 -27v-186h-520v186l109 27v672h-123zM782 0v186l107 27v1047l-107 26v187h398v-1260l106 -27v-186h-504z" />
</font>
</defs>
</svg>
