<?xml version="1.0" standalone="no"?>
<!DOCTYPE svg PUBLIC "-//W3C//DTD SVG 1.1//EN" "http://www.w3.org/Graphics/SVG/1.1/DTD/svg11.dtd" >
<svg xmlns="http://www.w3.org/2000/svg">
<metadata></metadata>
<defs>
<font id="vectipedeextralight_italic" horiz-adv-x="1222" >
<font-face units-per-em="2048" ascent="1556" descent="-492" />
<missing-glyph horiz-adv-x="608" />
<glyph unicode="&#x28;C&#x29;" horiz-adv-x="1265" d="M158 342q0 80 18 182l72 406q53 302 207.5 431.5t439.5 129.5q238 0 352.5 -90t114.5 -293q0 -90 -16 -178l-72 -406q-54 -302 -209.5 -431.5t-439.5 -129.5q-238 0 -352.5 89t-114.5 290zM205 346q0 -185 104 -261.5t324 -76.5q256 0 401.5 125t192.5 391l71 406 q17 107 17 172q0 188 -103.5 265t-324.5 77q-260 0 -401.5 -120.5t-190.5 -393.5l-72 -406q-18 -102 -18 -178zM418 498q0 65 14 139l33 182q38 213 131 297t283 84q70 0 132 -24t95 -68l-33 -186h-39l21 170q-26 32 -77.5 48.5t-109.5 16.5q-161 0 -241.5 -77t-112.5 -261 l-33 -182q-14 -74 -14 -137q0 -113 58 -158t192 -45q124 0 215 76l37 164h39l-33 -179q-108 -100 -262 -100q-156 0 -225.5 54.5t-69.5 185.5z" />
<glyph unicode="&#x28;R&#x29;" horiz-adv-x="1265" d="M158 342q0 80 18 182l72 406q53 302 207.5 431.5t439.5 129.5q238 0 352.5 -90t114.5 -293q0 -90 -16 -178l-72 -406q-54 -302 -209.5 -431.5t-439.5 -129.5q-238 0 -352.5 89t-114.5 290zM205 346q0 -185 104 -261.5t324 -76.5q256 0 401.5 125t192.5 391l71 406 q17 107 17 172q0 188 -103.5 265t-324.5 77q-260 0 -401.5 -120.5t-190.5 -393.5l-72 -406q-18 -102 -18 -178zM346 281l4 30l101 6l143 820l-96 8l6 31h407q93 0 137 -36.5t44 -111.5q0 -23 -7 -63l-8 -43q-17 -87 -51 -132t-90 -57q41 -10 62.5 -35t21.5 -73q0 -34 -4 -52 l-45 -256l92 -6l-4 -30h-111q-28 0 -28 24q0 2 1 6t1 6l45 256q4 20 4 54q0 52 -29.5 70t-97.5 18h-275l-69 -398l94 -6l-4 -30h-244zM575 752h273q153 0 180 166l8 38q6 34 6 62q0 64 -35.5 91.5t-111.5 27.5h-252z" />
<glyph horiz-adv-x="2048" />
<glyph horiz-adv-x="2048" />
<glyph unicode="&#xd;" horiz-adv-x="2048" />
<glyph horiz-adv-x="608" />
<glyph unicode=" "  horiz-adv-x="608" />
<glyph unicode="&#x09;" horiz-adv-x="608" />
<glyph unicode="&#xa0;" horiz-adv-x="608" />
<glyph unicode="!" horiz-adv-x="274" d="M94 0l56 319h83l-55 -319h-84zM190 449q38 326 71 552t83 453h98q-56 -376 -202 -1005h-50z" />
<glyph unicode="&#x22;" horiz-adv-x="507" d="M254 907l96 547h68l-96 -547h-68zM510 907l96 547h68l-96 -547h-68z" />
<glyph unicode="#" horiz-adv-x="1114" d="M154 481l16 56h229l150 378h-266l16 56h272l197 483h55l-194 -483h299l196 483h56l-195 -483h225l-16 -56h-231l-152 -378h270l-16 -56h-277l-192 -481h-57l192 481h-299l-192 -481h-56l193 481h-223zM455 537h299l151 378h-299z" />
<glyph unicode="$" horiz-adv-x="1021" d="M133 266l51 281h58l-33 -250q107 -82 309 -82q376 0 422 236l6 32q6 30 6 56q0 19 -5.5 35.5t-17.5 29t-25 22.5t-34.5 18t-38.5 13.5t-44.5 11t-45 8.5t-48.5 7.5t-46 7.5q-197 32 -257 52q-108 36 -134 111q-10 30 -10 67q0 26 6 61l8 43q49 263 436 274l29 154h61 l-28 -154q118 -2 201 -20.5t137 -69.5l-49 -278h-54l31 248q-33 30 -84.5 45t-94 17.5t-118.5 2.5q-73 0 -135.5 -10.5t-120 -34t-95.5 -68t-48 -106.5l-6 -37q-7 -40 -7 -59q0 -28 10 -50.5t33.5 -39t50 -29t71.5 -23t85.5 -18t104.5 -16.5q151 -23 195 -36 q136 -39 154 -133q3 -16 3 -34q0 -29 -6 -64l-6 -38q-12 -76 -53 -132.5t-104.5 -89.5t-136 -49.5t-159.5 -19.5l-27 -158h-61l27 158q-229 3 -363 108z" />
<glyph unicode="%" horiz-adv-x="1382" d="M203 -43l1165 1542h66l-1166 -1542h-65zM244 911q0 42 8 86l41 226q27 147 98.5 208.5t190.5 61.5q97 0 148.5 -43t51.5 -141q0 -45 -8 -86l-41 -226q-25 -146 -97.5 -207t-189.5 -61q-99 0 -150.5 42t-51.5 140zM307 918q0 -77 37.5 -106.5t112.5 -29.5q82 0 138 52.5 t75 162.5l39 224q8 44 8 84q0 75 -37 104t-109 29q-88 0 -143 -51t-74 -166l-39 -224q-8 -41 -8 -79zM854 143q0 42 8 86l41 226q27 147 98.5 208.5t190.5 61.5q98 0 149.5 -43t51.5 -141q0 -39 -9 -86l-41 -226q-25 -146 -97 -207t-189 -61q-99 0 -151 42t-52 140zM918 150 q0 -77 37 -106.5t112 -29.5q82 0 138 52.5t75 162.5l39 224q8 44 8 84q0 75 -36.5 104t-108.5 29q-88 0 -143 -51t-74 -166l-39 -224q-8 -41 -8 -79z" />
<glyph unicode="&#x26;" d="M102 213q0 37 9 84l18 102q23 131 97 201t206 117q-102 130 -102 266q0 47 8 88l18 109q28 159 124 235t263 76q141 0 205 -51.5t64 -159.5q0 -49 -8 -96l-19 -113q-10 -62 -27 -108.5t-44.5 -81t-58.5 -59t-79 -46t-96.5 -38.5t-119.5 -39q-11 -3 -17 -5l415 -512 q239 213 277 473l6 41h66l-7 -43q-41 -291 -301 -518l62 -78l149 -10l-8 -47h-188l-72 88q-98 -70 -214 -97.5t-265 -27.5q-81 0 -143 11.5t-113 38.5t-78 77.5t-27 122.5zM180 233q0 -63 23 -105.5t67 -64t94.5 -30t120.5 -8.5q261 0 416 112l-432 535q-120 -37 -183 -98 t-85 -187l-15 -80q-6 -41 -6 -74zM401 991q0 -119 103 -250q191 59 250 88q93 46 131 125q23 47 35 117l18 109q8 44 8 86q0 88 -50.5 126t-160.5 38q-262 0 -307 -254l-18 -107q-9 -61 -9 -78z" />
<glyph unicode="'" horiz-adv-x="256" d="M254 907l96 547h68l-96 -547h-68z" />
<glyph unicode="(" horiz-adv-x="645" d="M268 465q0 629 584 1130h68q-576 -509 -576 -1134q0 -206 60.5 -409t179.5 -365h-68q-121 156 -184.5 361t-63.5 417z" />
<glyph unicode=")" horiz-adv-x="645" d="M-49 -313q581 540 581 1161q0 198 -60.5 393t-184.5 354h67q126 -155 190 -350.5t64 -398.5q0 -311 -151.5 -608t-438.5 -551h-67z" />
<glyph unicode="*" horiz-adv-x="878" d="M242 1165l18 54l340 -117l-8 364h53v-364l340 117l19 -52l-347 -106l220 -289l-46 -35l-208 299l-207 -299l-47 33l219 291z" />
<glyph unicode="+" horiz-adv-x="1224" d="M254 725l10 59h455l80 455h59l-80 -455h455l-10 -59h-455l-80 -457h-59l80 457h-455z" />
<glyph unicode="," horiz-adv-x="301" d="M39 -211q86 111 117 211h-43l57 332h84l-59 -334q-37 -121 -132 -234z" />
<glyph unicode="-" horiz-adv-x="643" d="M180 641l10 61h508l-10 -61h-508z" />
<glyph unicode="." horiz-adv-x="272" d="M94 0l58 332h84l-58 -332h-84z" />
<glyph unicode="/" horiz-adv-x="681" d="M-2 -219l838 1673h67l-840 -1673h-65z" />
<glyph unicode="0" horiz-adv-x="1124" d="M158 324q0 79 18 178l78 448q21 121 59.5 213.5t89.5 154t118 101t141 56t163 16.5q192 0 294 -84.5t102 -278.5q0 -53 -19 -178l-78 -448q-26 -151 -77.5 -257t-126.5 -167t-163.5 -88t-201.5 -27q-192 0 -294.5 83.5t-102.5 277.5zM231 328q0 -169 85 -235t251 -66 q186 0 313.5 116.5t170.5 358.5l77 448q14 91 17 170q0 88 -22.5 148.5t-68 94.5t-103.5 48t-138 14q-404 0 -485 -475l-78 -448q-19 -108 -19 -174z" />
<glyph unicode="1" horiz-adv-x="569" d="M84 0l8 47l172 10l228 1289q-82 -77 -187 -152l-26 49q141 101 251 211h54l-248 -1397l160 -10l-9 -47h-403z" />
<glyph unicode="2" horiz-adv-x="1067" d="M88 0l12 76q236 152 377 254q103 75 184 140.5t168.5 152.5t145.5 168t95.5 177.5t37.5 190.5q0 264 -328 264q-237 0 -446 -118l-10 65q219 121 481 121q178 0 277.5 -77t99.5 -232q0 -80 -20.5 -157.5t-53 -143.5t-84.5 -134.5t-105 -124t-125.5 -117t-135 -109 t-144.5 -105.5q-174 -123 -330 -225h756l64 299h53l-64 -365h-905z" />
<glyph unicode="3" horiz-adv-x="1015" d="M72 31l28 61q147 -65 346 -65q103 0 190.5 27.5t156.5 81.5t108 143t39 204q0 244 -301 244h-170l10 57h170q177 0 283 106t106 284q0 253 -336 253q-200 0 -380 -106l-11 59q178 111 412 111q193 0 289 -78t96 -219q0 -187 -97.5 -300t-258.5 -134q125 -14 191.5 -85 t66.5 -194q0 -241 -153 -379.5t-419 -138.5q-213 0 -366 68z" />
<glyph unicode="4" horiz-adv-x="1118" d="M111 276l12 66q211 230 430 554t326 570l65 -20q-112 -250 -327.5 -569t-413.5 -541h706l115 649h70l-115 -649h133l-10 -60h-133l-47 -276h-70l47 276h-788z" />
<glyph unicode="5" horiz-adv-x="1054" d="M86 68l31 59q134 -98 336 -98q245 0 374 107t166 329q15 96 15 139q0 132 -67.5 194t-213.5 62q-274 0 -481 -237l-53 12l215 819h761l-67 -379h-51l43 314h-639l-179 -687q193 211 478 211q319 0 319 -301q0 -56 -14 -149q-45 -262 -190.5 -381t-434.5 -119 q-102 0 -194 26.5t-154 78.5z" />
<glyph unicode="6" horiz-adv-x="1081" d="M154 365q0 157 35.5 312t106 293t167 248t227 182.5t277.5 90.5l6 -61q-141 -19 -263 -89.5t-211 -177t-150.5 -237.5t-92.5 -279q202 256 516 256q172 0 253 -84.5t81 -232.5q0 -60 -12 -125q-43 -242 -184.5 -370t-364.5 -128q-209 0 -300 103t-91 299zM223 371 q0 -170 78 -258t258 -88q189 0 308.5 113t156.5 323q10 68 10 117q0 270 -289 270q-147 0 -276.5 -72.5t-224.5 -195.5q-21 -133 -21 -209z" />
<glyph unicode="7" horiz-adv-x="1005" d="M248 1067l69 387h895l-10 -57q-229 -284 -468 -686t-361 -725l-76 14q126 328 359 717t464 672h-751l-68 -322h-53z" />
<glyph unicode="8" horiz-adv-x="1089" d="M121 285q0 107 31.5 188.5t93 136t144.5 88t194 50.5q-153 22 -222 99t-69 187q0 34 6 68q68 389 510 389q375 0 375 -291q0 -58 -11.5 -112t-40.5 -110t-74.5 -100.5t-118.5 -78t-167 -45.5q166 -29 247 -97t81 -192q0 -45 -8 -86q-25 -140 -106 -235.5t-194.5 -138 t-254.5 -42.5q-190 0 -303 81t-113 241zM193 299q0 -141 95.5 -206.5t260.5 -65.5q75 0 144 16t130 50.5t106 84t71 122t26 159.5q0 119 -85.5 180t-270.5 82q-242 -25 -359.5 -129.5t-117.5 -292.5zM358 1028q0 -105 74.5 -175t247.5 -83q108 8 190 42t127.5 77.5t73.5 101 t36.5 103.5t8.5 94q0 131 -83.5 185t-237.5 54q-369 0 -430 -333q-7 -40 -7 -66z" />
<glyph unicode="9" horiz-adv-x="1081" d="M229 870q0 53 13 123q43 242 184.5 370t364.5 128q107 0 183.5 -28.5t121.5 -83t65.5 -127t20.5 -167.5q0 -156 -35.5 -310t-106 -291.5t-166.5 -247.5t-226 -182.5t-277 -90.5l-6 62q141 19 262.5 88.5t210 175t150.5 236t93 278.5q-202 -252 -518 -252 q-173 0 -253.5 85t-80.5 234zM299 874q0 -270 291 -270q148 0 277.5 71.5t222.5 192.5q20 133 20 215q0 171 -77.5 257.5t-254.5 86.5q-190 0 -310 -112t-157 -322q-12 -65 -12 -119z" />
<glyph unicode=":" horiz-adv-x="335" d="M125 0l57 332h84l-57 -332h-84zM256 743l57 328h84l-57 -328h-84z" />
<glyph unicode=";" horiz-adv-x="370" d="M86 -211q84 104 117 211h-43l57 332h84l-59 -334q-38 -123 -131 -234zM291 743l57 328h84l-57 -328h-84z" />
<glyph unicode="&#x3c;" horiz-adv-x="1224" d="M254 723l10 57l1053 484l-12 -70l-981 -444l825 -447l-12 -63z" />
<glyph unicode="=" horiz-adv-x="1224" d="M217 514l10 59h969l-10 -59h-969zM291 936l10 59h969l-10 -59h-969z" />
<glyph unicode="&#x3e;" horiz-adv-x="1224" d="M168 240l12 67l981 447l-825 444l12 66l885 -484l-10 -57z" />
<glyph unicode="?" horiz-adv-x="942" d="M274 1083l48 273q141 135 391 135q170 0 260 -72t90 -209q0 -26 -8 -88l-15 -86q-18 -108 -76 -169t-167 -101q-69 -25 -103.5 -40.5t-66 -40t-45.5 -54.5t-23 -78l-16 -94h-70l19 102q20 106 73 153.5t197 98.5q97 34 145 83.5t66 145.5l14 76q6 44 6 80q0 234 -293 234 q-200 0 -323 -111l-51 -238h-52zM385 0l55 319h84l-55 -319h-84z" />
<glyph unicode="@" horiz-adv-x="1161" d="M109 66q0 92 20 198l78 441q31 177 80 291.5t125.5 181t172.5 92.5t236 26q207 0 311.5 -75.5t104.5 -247.5q0 -51 -14 -137l-125 -719h-43l24 194q-144 -219 -344 -219q-124 0 -174.5 39t-50.5 131q0 50 12 117l37 205q27 151 91 211.5t220 60.5q98 0 164.5 -38.5 t108.5 -125.5l26 146q13 73 13 125q0 153 -90.5 216.5t-278.5 63.5q-128 0 -214.5 -23t-155 -83.5t-111 -164.5t-70.5 -265l-76 -439q-18 -108 -18 -190q0 -88 21 -154t56.5 -106.5t89 -65t111.5 -34t132 -9.5q131 0 253 33v-51q-144 -35 -260 -35q-85 0 -152 11.5 t-126.5 40t-99 74t-62 117.5t-22.5 167zM567 281q0 -77 43 -107.5t150 -30.5q187 0 327 232l46 262q-36 91 -97 130.5t-155 39.5q-91 0 -145.5 -24.5t-81.5 -72t-42 -132.5l-34 -195q-11 -54 -11 -102z" />
<glyph unicode="A" horiz-adv-x="1277" d="M31 0l8 47l151 10l619 1397h180l115 -1397l149 -10l-8 -47h-389l8 47l156 10l-37 480h-516l-213 -480l156 -10l-9 -47h-370zM489 590h490l-66 801h-67z" />
<glyph unicode="B" horiz-adv-x="1191" d="M84 0l8 47l160 10l237 1340l-157 10l8 47h666q151 0 221.5 -58.5t70.5 -178.5q0 -42 -22 -175q-50 -281 -297 -301q223 -20 223 -229q0 -50 -26 -190q-58 -322 -439 -322h-653zM330 57h403q164 0 254.5 75.5t112.5 201.5q5 35 10.5 68.5t7.5 47.5t3.5 26.5t0.5 21.5 q0 115 -59 166t-184 51h-433zM457 770h432q119 0 207 74t108 203q19 128 19 157q0 103 -58 147t-184 44h-414z" />
<glyph unicode="C" horiz-adv-x="1128" d="M160 346q0 100 24 232l54 299q31 176 81.5 292.5t132.5 188.5t191 102.5t266 30.5q119 0 221 -34.5t150 -102.5l-53 -305h-56l37 266q-40 58 -126 86.5t-187 28.5q-264 0 -393.5 -122t-184.5 -431l-53 -299q-22 -129 -22 -216q0 -184 94 -261.5t309 -77.5q224 0 361 124 l55 259h55l-51 -295q-164 -148 -426 -148q-254 0 -366.5 86.5t-112.5 296.5z" />
<glyph unicode="D" horiz-adv-x="1245" d="M84 0l8 47l160 10l237 1340l-157 10l8 47h594q211 0 308 -82t97 -268q0 -74 -20 -201l-62 -352q-52 -298 -186 -424.5t-393 -126.5h-594zM332 59h356q215 0 331 112.5t161 377.5l61 356q19 111 19 185q0 162 -81 233.5t-255 71.5h-357z" />
<glyph unicode="E" horiz-adv-x="1148" d="M84 0l8 47l160 10l237 1340l-157 10l8 47h960l-71 -403h-51l45 342h-658l-106 -607h530l47 185h47l-75 -432h-47l18 190h-530l-117 -666h669l82 386h52l-78 -449h-973z" />
<glyph unicode="F" horiz-adv-x="1132" d="M84 0l8 47l160 10l237 1340l-157 10l8 47h973l-78 -436h-51l51 375h-670l-116 -664h561l47 184h45l-78 -438h-45l20 195h-561l-108 -613l196 -10l-8 -47h-434z" />
<glyph unicode="G" horiz-adv-x="1177" d="M158 344q0 87 22 213l58 320q31 173 82 290t130.5 189t184.5 103.5t250 31.5q140 0 250.5 -34t160.5 -103l-53 -305h-57l39 266q-43 58 -138 86.5t-213 28.5q-246 0 -374 -123.5t-183 -429.5l-57 -320q-20 -111 -20 -205q0 -174 87.5 -249.5t284.5 -75.5q147 0 261 40 t163 85l99 557l-371 10l8 47h447l-113 -647q-57 -52 -194 -104t-310 -52q-233 0 -338.5 90.5t-105.5 290.5z" />
<glyph unicode="H" horiz-adv-x="1329" d="M84 0l8 47l160 10l237 1340l-157 10l8 47h395l-8 -47l-162 -10l-110 -629h688l110 629l-155 10l8 47h395l-8 -47l-162 -10l-237 -1340l159 -10l-8 -47h-395l8 47l158 10l114 650h-688l-114 -650l159 -10l-8 -47h-395z" />
<glyph unicode="I" horiz-adv-x="565" d="M84 0l8 47l160 10l237 1340l-157 10l8 47h397l-8 -47l-162 -10l-237 -1340l159 -10l-8 -47h-397z" />
<glyph unicode="J" horiz-adv-x="700" d="M-184 -311l18 71q66 -112 195 -112q163 0 249 108t125 324l234 1317l-180 8l10 49h405l-10 -49l-147 -8l-232 -1315q-43 -248 -149.5 -376t-298.5 -128q-159 0 -219 111z" />
<glyph unicode="K" horiz-adv-x="1261" d="M84 0l8 49l160 8l237 1340l-159 8l10 49h395l-10 -49l-158 -8l-106 -602l733 602l-147 8l10 49h385l-10 -49l-162 -10l-740 -602l535 -736l168 -12l-6 -45h-215l-555 770l-127 -713l157 -8l-8 -49h-395z" />
<glyph unicode="L" horiz-adv-x="1085" d="M84 0l8 49l160 8l237 1340l-159 8l10 49h414l-11 -49l-176 -8l-235 -1334h618l101 510h55l-100 -573h-922z" />
<glyph unicode="M" horiz-adv-x="1724" d="M84 0l8 49l160 8l237 1340l-159 8l10 49h289l250 -1364l743 1364h274l-10 -49l-160 -8l-237 -1340l160 -8l-9 -49h-385l9 49l157 8l236 1332l-758 -1389h-86l-260 1386l-236 -1329l158 -8l-8 -49h-383z" />
<glyph unicode="N" horiz-adv-x="1323" d="M84 0l8 49l160 8l237 1340l-159 8l10 49h254l475 -1321l223 1264l-157 8l10 49h371l-11 -49l-149 -8l-246 -1397h-68l-499 1346l-228 -1289l170 -8l-8 -49h-393z" />
<glyph unicode="O" d="M166 373q0 98 20 209l52 290q57 321 210.5 470t425.5 149q222 0 329.5 -100.5t107.5 -313.5q0 -85 -19 -205l-51 -290q-57 -320 -212 -469.5t-425 -149.5q-223 0 -330.5 99.5t-107.5 310.5zM244 371q0 -185 90.5 -265.5t281.5 -80.5q228 0 362.5 137.5t184.5 419.5 l51 290q15 98 19 203q0 189 -89.5 272t-279.5 83q-231 0 -363.5 -135t-183.5 -423l-51 -290q-22 -126 -22 -211z" />
<glyph unicode="P" horiz-adv-x="1163" d="M84 0l8 49l160 8l237 1340l-159 8l10 49h631q166 0 240.5 -68.5t74.5 -220.5q0 -66 -16 -172q-43 -247 -150.5 -355t-312.5 -108h-393l-84 -473l178 -8l-8 -49h-416zM424 584h383q170 0 259.5 94.5t127.5 312.5q16 101 16 166q0 129 -61.5 183.5t-198.5 54.5h-383z" />
<glyph unicode="Q" horiz-adv-x="1228" d="M168 389q0 97 20 211l50 274q57 319 211 468t425 149q223 0 332 -102t109 -314q0 -84 -19 -201l-49 -274q-49 -275 -169.5 -420.5t-323.5 -177.5q-2 -18 -2 -51q0 -134 51 -195t127 -61q82 0 153 82l-10 -68q-62 -71 -178 -71q-213 0 -213 352q-266 0 -390 89t-124 310z M246 403q0 -190 91.5 -273t283.5 -83q231 0 363 135t185 420l50 270q18 98 18 201q0 189 -91 273t-282 84q-229 0 -363.5 -137.5t-185.5 -420.5l-49 -270q-20 -109 -20 -199z" />
<glyph unicode="R" horiz-adv-x="1282" d="M84 0l8 49l160 8l237 1340l-159 8l10 49h664q151 0 220.5 -57.5t69.5 -177.5q0 -40 -10 -105l-12 -72q-51 -295 -283 -305q95 -6 141 -46.5t46 -137.5q0 -29 -11 -104l-69 -392l153 -8l-8 -49h-178q-47 0 -47 39q0 10 2 16l74 418q8 44 8 86q0 85 -49 117.5t-160 32.5 h-445l-116 -652l159 -8l-8 -49h-397zM455 764h442q129 0 201.5 67t97.5 207l10 60q11 71 11 104q0 109 -56 150t-184 41h-412z" />
<glyph unicode="S" horiz-adv-x="1126" d="M113 106l51 300h55l-35 -265q121 -116 355 -116q126 0 225.5 34.5t169 113.5t88.5 196q14 93 14 129q0 25 -2.5 43.5t-12 34.5t-19 27t-32.5 22t-43 18t-60 16t-74.5 15.5t-94.5 17.5q-191 33 -257 57q-125 45 -158 141q-15 42 -15 97q0 54 11 113q20 113 69.5 191.5 t124 121t159.5 60.5t193 18q285 0 396 -137l-54 -305h-57l37 276q-94 109 -332 109q-77 0 -143.5 -12.5t-127.5 -44t-104 -80.5t-68.5 -126t-25.5 -176q0 -49 19 -86t49 -60.5t81 -41.5t100.5 -27.5t123.5 -19.5q162 -23 212 -38q132 -38 166 -133q15 -40 15 -93 q0 -121 -31.5 -214.5t-85 -152.5t-130 -97t-158.5 -53.5t-179 -15.5q-269 0 -415 143z" />
<glyph unicode="T" horiz-adv-x="1175" d="M217 881l102 573h1049l-102 -573h-54l78 512h-420l-235 -1336l178 -8l-8 -49h-436l8 49l178 8l236 1336h-418l-103 -512h-53z" />
<glyph unicode="U" horiz-adv-x="1421" d="M268 291q0 86 21 203l160 903l-142 8l10 49h379l-10 -49l-158 -8l-161 -910q-19 -111 -19 -180q0 -154 84 -216t283 -62q134 0 224 25.5t148 85t89.5 140t54.5 207.5l162 910l-158 8l10 49h369l-10 -49l-140 -8l-159 -903q-18 -101 -39 -173.5t-53.5 -135t-75.5 -102 t-106 -68t-144.5 -40.5t-190.5 -12q-233 0 -330.5 75.5t-97.5 252.5z" />
<glyph unicode="V" horiz-adv-x="1191" d="M276 1405l11 49h391l-10 -49l-158 -8l98 -1317l576 1317l-152 8l10 49h373l-10 -49l-152 -8l-616 -1397h-96l-113 1397z" />
<glyph unicode="W" horiz-adv-x="1712" d="M285 1405l10 49h389l-10 -49l-170 -8v-1307l579 1364h80l74 -1364l457 1307l-152 8l10 49h377l-10 -49l-154 -8l-493 -1397h-98l-76 1337l-568 -1337h-94v1397z" />
<glyph unicode="X" horiz-adv-x="1220" d="M61 0l9 49l151 8l479 674l-235 666l-152 8l11 49h391l-10 -49l-154 -8l209 -606l422 606l-156 8l10 49h373l-10 -49l-152 -8l-469 -656l246 -684l150 -8l-9 -49h-387l8 49l154 8l-217 627l-436 -627l155 -8l-8 -49h-373z" />
<glyph unicode="Y" horiz-adv-x="1159" d="M276 1405l11 49h385l-10 -49l-156 -8l199 -701l456 701l-153 8l10 49h364l-10 -49l-147 -8l-502 -764l-102 -576l178 -8l-8 -49h-435l9 49l178 8l102 576l-221 764z" />
<glyph unicode="Z" horiz-adv-x="1132" d="M86 0l12 76l1076 1317h-773l-104 -512h-55l102 573h938l-10 -57l-1086 -1336h805l105 512h53l-100 -573h-963z" />
<glyph unicode="[" horiz-adv-x="686" d="M166 -285l328 1860h409l-10 -55h-342l-307 -1749h342l-11 -56h-409z" />
<glyph unicode="\" horiz-adv-x="681" d="M291 1454h67l250 -1673h-67z" />
<glyph unicode="]" horiz-adv-x="675" d="M8 -285l10 56h340l308 1749h-340l10 55h409l-327 -1860h-410z" />
<glyph unicode="^" horiz-adv-x="720" d="M266 1036l330 418h45l178 -418h-59l-148 361l-278 -361h-68z" />
<glyph unicode="_" horiz-adv-x="899" d="M-10 -242l8 54h840l-9 -54h-839z" />
<glyph unicode="`" horiz-adv-x="514" d="M360 1569h76l203 -381h-53z" />
<glyph unicode="a" horiz-adv-x="1112" d="M106 199q0 39 9 86l16 92q27 147 115.5 218t253.5 71q292 0 456 -107l37 211q8 44 8 88q0 104 -65 144t-219 40q-245 0 -412 -106l-12 57q178 113 444 113q180 0 259 -52.5t79 -174.5q0 -38 -10 -103l-117 -665q-4 -28 -4 -35q0 -62 57 -62q60 0 95 60v-49 q-39 -60 -117 -60q-53 0 -77.5 27.5t-24.5 83.5q0 45 20 133q-74 -108 -201.5 -177t-300.5 -69q-289 0 -289 236zM178 211q0 -95 58 -144t186 -49q160 0 280 68.5t201 181.5l45 246q-165 100 -436 100q-140 0 -215 -61t-96 -182l-15 -82q-8 -42 -8 -68v-10z" />
<glyph unicode="b" horiz-adv-x="1161" d="M160 0l248 1415l-158 8l8 50h234l-107 -613q84 121 215 183.5t279 62.5q172 0 250.5 -76t78.5 -231q0 -76 -14 -156l-37 -209q-44 -248 -159.5 -359.5t-346.5 -111.5q-132 0 -243.5 57.5t-153.5 161.5l-47 -182h-47zM274 242q32 -101 137.5 -158t231.5 -57 q201 0 301 97.5t139 313.5l35 195q15 86 15 151q0 136 -69 198t-220 62q-145 0 -273.5 -69.5t-199.5 -198.5z" />
<glyph unicode="c" horiz-adv-x="1009" d="M139 311q0 59 11 115l40 236q35 204 171.5 324t361.5 120q263 0 362 -135l-47 -273h-55l31 240q-43 55 -124.5 82t-174.5 27q-187 0 -304.5 -107.5t-148.5 -280.5l-41 -233q-10 -49 -10 -109q0 -290 348 -290q113 0 217 54t180 163l25 -49q-81 -114 -196.5 -173 t-241.5 -59q-199 0 -301.5 89.5t-102.5 258.5z" />
<glyph unicode="d" horiz-adv-x="1218" d="M135 272q0 68 15 154l36 209q44 249 159.5 360t346.5 111q129 0 238.5 -54.5t150.5 -154.5l90 518l-157 8l8 50h233l-249 -1416l159 -8l-8 -49h-229l37 213q-88 -122 -219.5 -185t-278.5 -63q-172 0 -252 76t-80 231zM211 289q0 -137 68.5 -199.5t220.5 -62.5 q145 0 273.5 69.5t201.5 198.5l94 534q-32 101 -137.5 158t-231.5 57q-201 0 -301.5 -98.5t-138.5 -312.5l-35 -195q-14 -77 -14 -149z" />
<glyph unicode="e" horiz-adv-x="1026" d="M145 324q0 54 13 127l28 159q45 257 167 376.5t360 119.5q196 0 278 -74.5t82 -230.5q0 -84 -22 -207l-15 -78h-794l-13 -65q-10 -54 -10 -119q0 -307 334 -307q100 0 170.5 21t115.5 55t99 96l23 -52q-132 -182 -429 -182q-197 0 -292 96t-95 265zM250 567h725 q24 151 24 228q0 133 -66.5 193.5t-230.5 60.5q-110 0 -187.5 -30t-129 -94t-82 -148.5t-53.5 -209.5z" />
<glyph unicode="f" horiz-adv-x="702" d="M72 0l8 49l160 8l170 965h-183l11 55h182l26 146q26 144 102.5 206t215.5 62q138 0 192 -41l-18 -53q-55 39 -166 39q-110 0 -171.5 -49.5t-82.5 -167.5l-24 -142h354l-10 -55h-355l-170 -965l181 -8l-9 -49h-413z" />
<glyph unicode="g" horiz-adv-x="1089" d="M82 -356l35 59q108 -131 342 -131q390 0 459 408l47 274q-82 -121 -212.5 -183.5t-277.5 -62.5q-175 0 -254.5 75.5t-79.5 229.5q0 61 17 158l28 164q42 247 157.5 358t348.5 111q87 0 165 -23t141 -72.5t89 -119.5l50 188h47l-195 -1106q-43 -246 -174.5 -354.5 t-357.5 -108.5q-270 0 -375 136zM215 324q0 -134 68.5 -195t220.5 -61q146 0 275 70t200 200l88 491q-31 101 -136.5 158t-230.5 57q-137 0 -228 -47t-140.5 -134.5t-73.5 -227.5l-29 -164q-14 -77 -14 -147z" />
<glyph unicode="h" horiz-adv-x="1374" d="M72 0l8 49l160 8l239 1358l-157 8l8 50h233l-106 -611q114 132 256.5 188t318.5 56q277 0 277 -205q0 -33 -6 -70l-138 -774l158 -8l-8 -49h-397l8 49l166 8l135 762q6 35 6 62q0 88 -58.5 125.5t-177.5 37.5q-167 0 -304 -58.5t-249 -194.5l-131 -734l166 -8l-8 -49 h-399z" />
<glyph unicode="i" horiz-adv-x="526" d="M72 0l8 49l160 8l170 963l-158 8l8 49h234l-181 -1020l160 -8l-8 -49h-393zM440 1208l45 265h74l-45 -265h-74z" />
<glyph unicode="j" horiz-adv-x="442" d="M-250 -399l19 61q53 -86 168 -86q64 0 114.5 25.5t85 74t57 110.5t37.5 142l193 1092l-174 8l8 49h250l-203 -1149q-37 -206 -122.5 -313t-235.5 -107q-145 0 -197 93zM455 1208l45 265h73l-45 -265h-73z" />
<glyph unicode="k" horiz-adv-x="1105" d="M72 0l8 49l160 8l239 1358l-157 8l8 50h233l-162 -920l582 467l-145 8l8 49h377l-9 -49l-157 -8l-586 -461l455 -502l170 -8l-9 -49h-217l-473 530l-84 -473l138 -8l-9 -49h-370z" />
<glyph unicode="l" horiz-adv-x="526" d="M72 0l8 49l160 8l239 1358l-157 8l8 50h233l-250 -1416l160 -8l-8 -49h-393z" />
<glyph unicode="m" horiz-adv-x="2019" d="M72 0l8 49l158 8l170 963l-156 8l8 49h221l-32 -223q106 135 234 193.5t288 58.5q239 0 239 -195q0 -25 -2 -37q106 126 228.5 179t275.5 53q242 0 242 -199q0 -36 -6 -76l-138 -774l160 -8l-8 -49h-389l8 49l158 8l135 762q6 40 6 70q0 85 -50 120t-153 35 q-290 0 -473 -233l-135 -754l156 -8l-8 -49h-388l9 49l157 8l135 762q7 44 7 70q0 85 -50 120t-153 35q-302 0 -492 -256l-131 -731l166 -8l-8 -49h-397z" />
<glyph unicode="n" horiz-adv-x="1374" d="M72 0l8 49l160 8l170 963l-158 8l8 49h221l-30 -223q117 135 259.5 193.5t321.5 58.5q277 0 277 -205q0 -33 -6 -70l-138 -774l158 -8l-8 -49h-397l8 49l166 8l135 762q6 35 6 64q0 88 -58.5 124.5t-177.5 36.5q-343 0 -553 -256l-131 -731l166 -8l-8 -49h-399z" />
<glyph unicode="o" horiz-adv-x="1056" d="M135 279q0 67 15 147l38 219q43 240 170.5 350.5t364.5 110.5q198 0 291.5 -76t93.5 -239q0 -72 -14 -146l-39 -219q-43 -242 -170.5 -352.5t-364.5 -110.5q-198 0 -291.5 76.5t-93.5 239.5zM209 287q0 -143 76.5 -203.5t244.5 -60.5q199 0 308.5 99t146.5 308l37 211 q14 93 14 143q0 142 -77 202.5t-246 60.5q-199 0 -308 -99.5t-145 -306.5l-37 -211q-14 -77 -14 -143z" />
<glyph unicode="p" horiz-adv-x="1216" d="M-23 -467l11 49l157 8l252 1430l-157 8l8 49h223l-33 -221q88 124 220 187t280 63q172 0 251 -75.5t79 -229.5q0 -71 -15 -156l-36 -209q-44 -249 -159.5 -361t-346.5 -112q-128 0 -238 55t-151 156l-103 -584l180 -8l-10 -49h-412zM334 246q34 -102 139 -161.5 t229 -59.5q202 0 303.5 98.5t137.5 310.5l35 203q14 80 14 149q0 135 -69 195.5t-220 60.5q-146 0 -274.5 -67t-200.5 -195z" />
<glyph unicode="q" horiz-adv-x="1122" d="M137 270q0 59 17 156l36 209q29 167 87 268t160 152t259 51q132 0 244 -56.5t154 -160.5l49 188h47l-262 -1487l157 -8l-10 -49h-411l10 49l180 8l111 621q-87 -121 -219 -184.5t-279 -63.5q-171 0 -250.5 76t-79.5 231zM213 289q0 -137 69 -200.5t222 -63.5 q144 0 272.5 70t202.5 200l94 534q-34 101 -139 158t-229 57q-201 0 -303 -99.5t-140 -311.5l-35 -197q-14 -77 -14 -147z" />
<glyph unicode="r" horiz-adv-x="874" d="M72 0l8 49l160 8l170 963l-158 8l8 49h221l-30 -223q103 127 243.5 189.5t296.5 62.5q42 0 66 -6l-23 -70q-30 6 -67 6q-142 0 -280 -61.5t-245 -192.5l-129 -725l170 -8l-8 -49h-403z" />
<glyph unicode="s" horiz-adv-x="1003" d="M100 72l50 280h57l-33 -246q112 -86 309 -86q82 0 150 12t126.5 38t97 73.5t50.5 112.5q8 47 8 80q0 30 -9 53.5t-34 40t-41 26.5t-60 18.5t-60 11t-68 8.5q-21 3 -31 4q-85 11 -139 20.5t-109 26.5t-85 40t-49 59t-19 85q0 377 491 377q128 0 216 -18t143 -72l-49 -279 h-54l31 248q-43 40 -115.5 53t-181.5 13q-411 0 -411 -312q0 -30 9.5 -53t33 -40t48 -29t71.5 -23t85.5 -18t106.5 -17q9 -1 28 -4q159 -24 220 -51q106 -47 106 -150q0 -87 -27 -155t-73.5 -112t-112.5 -72.5t-139.5 -40t-159.5 -11.5q-239 0 -377 109z" />
<glyph unicode="t" horiz-adv-x="700" d="M201 215q0 48 14 137l117 670h-113l10 55h113l43 238l74 12l-45 -250h426l-11 -55h-426l-116 -672q-13 -76 -13 -127q0 -102 47.5 -150t151.5 -48q117 0 205 92l-2 -58q-87 -96 -236 -96q-125 0 -182 64.5t-57 187.5z" />
<glyph unicode="u" horiz-adv-x="1255" d="M233 1028l9 49h370l-8 -49l-160 -8l-120 -688q-9 -49 -9 -88q0 -120 79 -169.5t247 -49.5q190 0 289 74t127 233l121 688l-158 8l8 49h363l-9 -49l-139 -8l-121 -688q-35 -195 -153.5 -282t-341.5 -87q-196 0 -291.5 64.5t-95.5 205.5q0 37 10 99l121 688z" />
<glyph unicode="v" horiz-adv-x="1136" d="M209 1028l8 49h381l-8 -49l-156 -8l148 -961l491 961l-149 8l8 49h364l-8 -49l-149 -8l-525 -1020h-96l-162 1020z" />
<glyph unicode="w" horiz-adv-x="1587" d="M213 1028l8 49h377l-8 -49l-156 -8l39 -957l477 1014h80l129 -1014l357 957l-146 8l8 49h365l-8 -49l-154 -8l-383 -1020h-98l-127 995l-471 -995h-96l-46 1020z" />
<glyph unicode="x" horiz-adv-x="1128" d="M49 0l8 49l146 8l415 490l-233 473l-143 8l8 49h385l-8 -49l-158 -8l203 -434l354 434l-152 8l9 49h366l-8 -49l-147 -8l-394 -469l240 -494l145 -8l-8 -49h-383l8 49l154 8l-213 453l-373 -453l154 -8l-8 -49h-367z" />
<glyph unicode="y" horiz-adv-x="1132" d="M-41 -399l31 59q64 -78 166 -78q83 0 148 51.5t140 196.5l78 152l-168 1038l-147 8l8 49h379l-8 -49l-156 -8l148 -954l489 954l-147 8l8 49h364l-8 -49l-151 -8l-621 -1200q-87 -167 -169 -235t-198 -68q-123 0 -186 84z" />
<glyph unicode="z" horiz-adv-x="1050" d="M82 0l10 61l934 963h-700l-68 -319h-51l65 372h863l-9 -45l-946 -977h731l78 369h53l-73 -424h-887z" />
<glyph unicode="{" horiz-adv-x="700" d="M225 618l11 56q44 0 75 10.5t52.5 37.5t34.5 56.5t23.5 84.5t17 103.5t18.5 131.5t24 151q11 61 21.5 102t28.5 81.5t43.5 64.5t63 44t89.5 28t121 8h47l-8 -53h-47q-55 0 -96 -6.5t-70 -23t-48.5 -36t-34 -53.5t-23 -66.5t-17.5 -83.5q-8 -48 -19 -130t-18.5 -136 t-23.5 -121t-36.5 -108t-56.5 -73.5t-84 -39.5q107 -21 107 -153q0 -32 -6 -70q-10 -57 -36.5 -182.5t-42.5 -211.5t-16 -118q0 -78 45 -111.5t164 -33.5h47l-8 -54h-47q-152 0 -210 43t-58 140q0 99 43 283.5t49 223.5q10 62 10 97q0 64 -30.5 91t-98.5 27z" />
<glyph unicode="|" horiz-adv-x="456" d="M147 -274l332 1888h62l-332 -1888h-62z" />
<glyph unicode="}" horiz-adv-x="702" d="M29 -287l8 54h47q65 0 111 11t75.5 29.5t49.5 54.5t31 73.5t22 99.5q8 44 29.5 193t29.5 196q17 97 63 154t115 69q-106 15 -106 152q-3 32 6 71q11 60 37 186t40.5 207.5t14.5 112.5q0 78 -45 113t-162 35h-47l8 53h47q152 0 211.5 -43.5t59.5 -140.5q0 -75 -15 -157.5 t-42 -187t-37 -155.5q-11 -64 -11 -94q0 -67 31 -96t100 -29l-10 -56q-89 0 -132.5 -47.5t-63.5 -167.5q-10 -60 -20 -131t-15.5 -118.5t-14 -102.5t-17 -90.5t-22.5 -74.5t-32.5 -63t-45.5 -47.5t-62.5 -35.5t-82.5 -19.5t-106 -7.5h-47z" />
<glyph unicode="~" horiz-adv-x="1286" d="M227 578l15 77q138 131 290 131q62 0 125 -22t106 -48.5t99.5 -48.5t108.5 -22q89 0 167 35t158 115l-12 -76q-76 -72 -152 -101.5t-174 -29.5q-56 0 -114 22t-100 48.5t-101 48.5t-117 22q-84 0 -155 -37.5t-144 -113.5z" />
<glyph unicode="&#xa1;" horiz-adv-x="274" d="M88 0q54 367 203 1006h49q-38 -327 -71 -553t-83 -453h-98zM297 1135l55 319h84l-55 -319h-84z" />
<glyph unicode="&#xa2;" horiz-adv-x="985" d="M180 492q0 53 13 129l40 235q72 417 490 444l29 154h61l-29 -156q210 -10 299 -133l-49 -272h-55l35 244q-86 104 -281 104q-186 0 -291.5 -104t-136.5 -281l-41 -235q-12 -67 -12 -121q0 -142 80 -209.5t248 -67.5q225 0 376 217l25 -51q-155 -220 -397 -229l-27 -160 h-61l26 160q-342 14 -342 332z" />
<glyph unicode="&#xa3;" horiz-adv-x="1067" d="M41 10l12 70q24 -49 121 -49q69 0 125 27t90.5 68.5t58 96t32.5 106t9 101.5q0 88 -32 186h-250l8 54h221q-6 13 -28 62t-30 70.5t-22 63.5t-19 81.5t-5 84.5q0 98 29 180.5t86.5 145.5t150.5 98t213 35q249 0 340 -135l-47 -273h-53l32 240q-78 109 -282 109 q-198 0 -300 -106t-102 -298q0 -52 12 -106t22 -82t38 -90.5t35 -79.5h526l-8 -54h-498q31 -95 31 -182q0 -172 -86 -295q41 -53 127 -83.5t156 -30.5q93 0 160 47t118 157l-16 -108q-62 -158 -281 -158q-72 0 -161.5 35t-137.5 90q-100 -125 -262 -125q-100 0 -133 47z" />
<glyph unicode="&#xa4;" horiz-adv-x="1038" d="M141 332l156 131q-57 82 -57 190q0 188 149 334l-106 131l47 41l106 -131q132 98 279 98q149 0 246 -100l153 133l35 -41l-158 -133q62 -92 62 -194q0 -181 -154 -328l113 -131l-51 -43l-107 135q-132 -98 -279 -98q-151 0 -243 98l-158 -135zM293 666q0 -123 81.5 -204 t209.5 -81q100 0 194.5 53t155.5 147t61 203q0 125 -80 207t-208 82q-104 0 -200 -55.5t-155 -150t-59 -201.5z" />
<glyph unicode="&#xa5;" horiz-adv-x="1200" d="M231 279l11 51h370l52 297h-371l10 49h352l-192 721l-148 8l11 49h383l-11 -49l-153 -8l182 -697l438 697l-153 8l10 49h364l-10 -49l-147 -8l-461 -721h350l-10 -49h-367l-51 -297h367l-10 -51h-367l-47 -279h-78l47 279h-371z" />
<glyph unicode="&#xa6;" horiz-adv-x="727" d="M281 -274l143 815h61l-143 -815h-61zM481 870l131 744h62l-131 -744h-62z" />
<glyph unicode="&#xa7;" horiz-adv-x="1028" d="M96 -250l49 277h52l-33 -244q47 -43 118 -55.5t181 -12.5q364 0 401 217l6 37q4 36 4 49q0 29 -9 52t-22 39.5t-39 30t-49.5 22t-65.5 17t-74 13t-87 11.5q-198 25 -281 67.5t-83 139.5q0 24 6 51l29 157q45 243 340 297q-137 27 -197.5 68.5t-60.5 128.5q0 28 6 62l4 26 q46 291 479 291q128 0 215.5 -18t142.5 -72l-49 -279h-51l33 244q-48 42 -121 56t-178 14q-73 0 -136.5 -10.5t-121 -34.5t-96 -68.5t-48.5 -105.5l-6 -37q-4 -18 -4 -50q0 -39 15.5 -67t40.5 -46.5t72 -32t94.5 -21.5t123.5 -17q140 -16 220 -44t111.5 -67t31.5 -98 q0 -17 -4 -49l-29 -158q-44 -245 -342 -299q138 -29 198 -69t60 -127q0 -30 -6 -60l-4 -26q-45 -289 -477 -289q-129 0 -217 18t-142 72zM238 428q0 -85 80 -124.5t260 -39.5q141 0 248.5 67t127.5 181l29 166q4 28 4 41q0 84 -77.5 124t-243.5 40q-150 0 -263 -66 t-135 -192l-26 -156q-4 -28 -4 -41z" />
<glyph unicode="&#xa8;" horiz-adv-x="690" d="M297 1208l45 265h74l-45 -265h-74zM745 1208l46 265h73l-45 -265h-74z" />
<glyph unicode="&#xaa;" horiz-adv-x="735" d="M225 723q0 31 4 47l9 51q24 160 202 160q152 0 232 -53l20 106q4 28 4 41q0 51 -33 70.5t-108 19.5q-121 0 -215 -59l-14 55q106 62 249 62q101 0 146 -29t45 -96q0 -28 -6 -58l-64 -356q-2 -6 -2 -14q0 -29 33 -29q29 0 45 27l-2 -45q-6 -11 -25 -19t-43 -8 q-67 0 -67 70q0 23 6 53q-38 -55 -104.5 -90t-155.5 -35q-156 0 -156 129zM293 733q0 -45 27 -66.5t88 -21.5q141 0 237 119l23 129q-71 43 -213 43q-68 0 -103 -29.5t-47 -91.5l-8 -39q-4 -16 -4 -43z" />
<glyph unicode="&#xab;" horiz-adv-x="913" d="M178 662l10 57l394 350l-13 -72l-346 -311l236 -311l-13 -64zM635 662l10 57l393 350l-12 -72l-346 -311l235 -311l-12 -64z" />
<glyph unicode="&#xac;" horiz-adv-x="1263" d="M260 1008l12 69h1096l-188 -1077h-70l176 1008h-1026z" />
<glyph unicode="&#xad;" horiz-adv-x="643" d="M180 641l10 61h508l-10 -61h-508z" />
<glyph unicode="&#xaf;" horiz-adv-x="827" d="M307 1268l8 55h660l-8 -55h-660z" />
<glyph unicode="&#xb0;" horiz-adv-x="778" d="M274 1049q0 84 22 158t65.5 134.5t117.5 96t170 35.5q129 0 190.5 -73t61.5 -196q0 -83 -22 -157.5t-66 -135.5t-118 -97t-169 -36q-128 0 -190 74.5t-62 196.5zM328 1059q0 -103 51 -166.5t156 -63.5q80 0 142 31.5t98 84t54.5 116t18.5 133.5q0 103 -51 165t-158 62 q-80 0 -141.5 -31t-97.5 -83t-54 -115t-18 -133z" />
<glyph unicode="&#xb1;" horiz-adv-x="1224" d="M147 111l11 59h968l-10 -59h-969zM254 725l10 59h455l80 455h59l-80 -455h455l-10 -59h-455l-80 -457h-59l80 457h-455z" />
<glyph unicode="&#xb2;" horiz-adv-x="595" d="M203 748l10 61q60 37 100.5 63.5t104 71t105.5 84t84 87.5t63.5 98.5t21.5 99.5q0 123 -151 123q-106 0 -211 -60l-8 56q108 61 243 61q191 0 191 -160q0 -64 -28.5 -127.5t-69.5 -113t-110 -106t-124.5 -94t-138.5 -89.5h331l33 133h47l-32 -188h-461z" />
<glyph unicode="&#xb3;" horiz-adv-x="569" d="M195 762l24 53q67 -33 166 -33q98 0 162.5 52t64.5 155q0 109 -137 109h-82l8 49h82q80 0 128 47.5t48 128.5q0 115 -155 115q-94 0 -182 -52l-9 52q93 55 209 55q197 0 197 -152q0 -88 -46 -145.5t-122 -69.5q119 -18 119 -139q0 -128 -81 -193t-208 -65q-111 0 -186 33 z" />
<glyph unicode="&#xb4;" horiz-adv-x="514" d="M293 1188l332 381h82l-359 -381h-55z" />
<glyph unicode="&#xb5;" horiz-adv-x="1316" d="M-29 -467l11 49l155 8l252 1430l-137 8l8 49h371l-8 -49l-160 -8l-137 -778q34 -101 139 -159t229 -58q205 0 304.5 94t138.5 315l102 586l-156 8l9 49h362l-8 -49l-141 -8l-103 -584q-29 -169 -84 -269.5t-155 -151t-258 -50.5q-129 0 -240 54.5t-152 154.5l-102 -584 l180 -8l-10 -49h-410z" />
<glyph unicode="&#xb6;" horiz-adv-x="997" d="M252 1098q0 164 71.5 260t211.5 96h665l-8 -47l-88 -8l-305 -1739h-60l305 1737h-346l-305 -1737h-61l217 1229h-111q-186 0 -186 209z" />
<glyph unicode="&#xb7;" horiz-adv-x="272" d="M186 532l58 332h84l-58 -332h-84z" />
<glyph unicode="&#xb8;" horiz-adv-x="311" d="M6 -469q79 103 107 203h-33l35 196h71l-34 -192q-18 -103 -121 -230z" />
<glyph unicode="&#xb9;" horiz-adv-x="366" d="M213 748l6 38l82 9l105 591q-46 -40 -91 -69l-24 41q82 54 145 117h45l-119 -680l72 -9l-6 -38h-215z" />
<glyph unicode="&#xba;" horiz-adv-x="706" d="M240 770q0 39 8 78l22 121q25 133 94.5 193.5t202.5 60.5q112 0 164.5 -42.5t52.5 -133.5q0 -32 -8 -78l-22 -121q-23 -133 -93.5 -193.5t-203.5 -60.5q-111 0 -164 43t-53 133zM309 774q0 -69 37 -97t119 -28q98 0 151 50t72 153l21 113q6 40 6 73q0 70 -37.5 99.5 t-120.5 29.5q-97 0 -148.5 -48.5t-70.5 -153.5l-21 -113q-8 -39 -8 -78z" />
<glyph unicode="&#xbb;" horiz-adv-x="913" d="M117 311l12 72l346 311l-235 312l12 63l266 -350l-10 -57zM573 311l13 72l346 311l-236 312l13 63l266 -350l-10 -57z" />
<glyph unicode="&#xbc;" horiz-adv-x="1267" d="M78 -43l1165 1542h66l-1166 -1542h-65zM270 748l6 38l82 9l105 591q-48 -42 -90 -69l-25 41q85 56 146 117h45l-119 -680l72 -9l-7 -38h-215zM705 115l10 57q105 119 204.5 269.5t155.5 273.5l53 -19q-54 -120 -154 -270t-194 -260h316l53 305h59l-53 -305h64l-11 -51 h-63l-23 -135h-61l22 135h-378z" />
<glyph unicode="&#xbd;" horiz-adv-x="1257" d="M78 -43l1165 1542h66l-1166 -1542h-65zM270 748l6 38l82 9l105 591q-48 -42 -90 -69l-25 41q85 56 146 117h45l-119 -680l72 -9l-7 -38h-215zM715 -20l10 61q60 37 100.5 63.5t104 71t105.5 84t84 87.5t63.5 98.5t21.5 99.5q0 123 -151 123q-106 0 -211 -60l-8 56 q108 61 243 61q191 0 191 -160q0 -64 -28.5 -127.5t-69.5 -113t-110 -106t-124.5 -94t-138.5 -89.5h331l33 133h47l-32 -188h-461z" />
<glyph unicode="&#xbe;" horiz-adv-x="1265" d="M117 -43l1165 1542h66l-1166 -1542h-65zM211 762l25 53q67 -33 165 -33t163 52t65 155q0 109 -137 109h-82l8 49h82q80 0 128 47.5t48 128.5q0 115 -156 115q-94 0 -182 -52l-8 52q93 55 209 55q196 0 196 -152q0 -88 -46 -145.5t-122 -69.5q119 -18 119 -139 q0 -128 -81 -193t-208 -65q-111 0 -186 33zM702 115l11 57q105 119 204.5 269.5t155.5 273.5l53 -19q-54 -120 -154 -270t-194 -260h316l53 305h59l-53 -305h64l-11 -51h-63l-23 -135h-61l22 135h-379z" />
<glyph unicode="&#xbf;" horiz-adv-x="942" d="M135 244q0 26 8 88l15 86q18 108 76 169t167 101q69 25 103.5 40.5t66 40t45.5 54.5t23 78l16 94h70l-18 -102q-20 -106 -73.5 -153.5t-197.5 -98.5q-97 -34 -145 -83.5t-66 -145.5l-14 -76q-6 -44 -6 -80q0 -233 293 -233q201 0 323 110l51 238h52l-47 -273 q-141 -135 -392 -135q-170 0 -260 72t-90 209zM674 1135l55 319h84l-55 -319h-84z" />
<glyph unicode="&#xc0;" horiz-adv-x="1277" d="M31 0l8 47l151 10l619 1397h180l115 -1397l149 -10l-8 -47h-389l8 47l156 10l-37 480h-516l-213 -480l156 -10l-9 -47h-370zM489 590h490l-66 801h-67zM745 1946h76l203 -381h-53z" />
<glyph unicode="&#xc1;" horiz-adv-x="1277" d="M31 0l8 47l151 10l619 1397h180l115 -1397l149 -10l-8 -47h-389l8 47l156 10l-37 480h-516l-213 -480l156 -10l-9 -47h-370zM489 590h490l-66 801h-67zM801 1565l332 381h81l-358 -381h-55z" />
<glyph unicode="&#xc2;" horiz-adv-x="1277" d="M31 0l8 47l151 10l619 1397h180l115 -1397l149 -10l-8 -47h-389l8 47l156 10l-37 480h-516l-213 -480l156 -10l-9 -47h-370zM489 590h490l-66 801h-67zM532 1563l416 360h58l286 -360h-63l-256 321l-369 -321h-72z" />
<glyph unicode="&#xc3;" horiz-adv-x="1277" d="M31 0l8 47l151 10l619 1397h180l115 -1397l149 -10l-8 -47h-389l8 47l156 10l-37 480h-516l-213 -480l156 -10l-9 -47h-370zM489 590h490l-66 801h-67zM588 1620l10 68q77 84 190 84q42 0 83 -16.5t69.5 -36t69.5 -36t82 -16.5q111 0 192 100l-10 -67q-75 -82 -191 -82 q-43 0 -85 16t-70.5 36t-68 36t-79.5 16q-57 0 -102.5 -25t-89.5 -77z" />
<glyph unicode="&#xc4;" horiz-adv-x="1277" d="M31 0l8 47l151 10l619 1397h180l115 -1397l149 -10l-8 -47h-389l8 47l156 10l-37 480h-516l-213 -480l156 -10l-9 -47h-370zM489 590h490l-66 801h-67zM655 1585l45 264h74l-45 -264h-74zM1104 1585l45 264h74l-45 -264h-74z" />
<glyph unicode="&#xc5;" horiz-adv-x="1277" d="M31 0l8 47l151 10l619 1397h180l115 -1397l149 -10l-8 -47h-389l8 47l156 10l-37 480h-516l-213 -480l156 -10l-9 -47h-370zM489 590h490l-66 801h-67zM721 1677q0 126 70 197.5t190 71.5q180 0 180 -150q0 -118 -67 -194t-189 -76q-184 0 -184 151zM772 1692 q0 -121 141 -121q90 0 143.5 58t53.5 157q0 115 -137 115q-91 0 -146 -55.5t-55 -153.5z" />
<glyph unicode="&#xc6;" horiz-adv-x="1802" d="M31 0l8 47l151 10l613 1397h1149l-72 -403h-51l45 342h-639l-107 -609h514l46 187h45l-76 -432h-45l20 188h-514l-117 -666h650l84 388h51l-78 -449h-954l8 47l160 10l86 480h-527l-211 -480l156 -10l-8 -47h-387zM504 590h512l141 803h-301z" />
<glyph unicode="&#xc7;" horiz-adv-x="1128" d="M160 346q0 100 24 232l54 299q31 176 81.5 292.5t132.5 188.5t191 102.5t266 30.5q119 0 221 -34.5t150 -102.5l-53 -305h-56l37 266q-40 58 -126 86.5t-187 28.5q-264 0 -393.5 -122t-184.5 -431l-53 -299q-22 -129 -22 -216q0 -184 94 -261.5t309 -77.5q224 0 361 124 l55 259h55l-51 -295q-164 -148 -426 -148q-254 0 -366.5 86.5t-112.5 296.5zM457 -469q78 101 106 203h-33l35 196h72l-35 -192q-18 -103 -121 -230z" />
<glyph unicode="&#xc8;" horiz-adv-x="1148" d="M84 0l8 47l160 10l237 1340l-157 10l8 47h960l-71 -403h-51l45 342h-658l-106 -607h530l47 185h47l-75 -432h-47l18 190h-530l-117 -666h669l82 386h52l-78 -449h-973zM723 1946h76l202 -381h-53z" />
<glyph unicode="&#xc9;" horiz-adv-x="1148" d="M84 0l8 47l160 10l237 1340l-157 10l8 47h960l-71 -403h-51l45 342h-658l-106 -607h530l47 185h47l-75 -432h-47l18 190h-530l-117 -666h669l82 386h52l-78 -449h-973zM778 1565l332 381h82l-358 -381h-56z" />
<glyph unicode="&#xca;" horiz-adv-x="1148" d="M84 0l8 47l160 10l237 1340l-157 10l8 47h960l-71 -403h-51l45 342h-658l-106 -607h530l47 185h47l-75 -432h-47l18 190h-530l-117 -666h669l82 386h52l-78 -449h-973zM489 1563l416 360h58l286 -360h-63l-256 321l-369 -321h-72z" />
<glyph unicode="&#xcb;" horiz-adv-x="1148" d="M84 0l8 47l160 10l237 1340l-157 10l8 47h960l-71 -403h-51l45 342h-658l-106 -607h530l47 185h47l-75 -432h-47l18 190h-530l-117 -666h669l82 386h52l-78 -449h-973zM633 1585l45 264h74l-45 -264h-74zM1081 1585l45 264h74l-45 -264h-74z" />
<glyph unicode="&#xcc;" horiz-adv-x="565" d="M84 0l8 47l160 10l237 1340l-157 10l8 47h397l-8 -47l-162 -10l-237 -1340l159 -10l-8 -47h-397zM391 1946h76l203 -381h-54z" />
<glyph unicode="&#xcd;" horiz-adv-x="565" d="M84 0l8 47l160 10l237 1340l-157 10l8 47h397l-8 -47l-162 -10l-237 -1340l159 -10l-8 -47h-397zM444 1565l332 381h82l-358 -381h-56z" />
<glyph unicode="&#xce;" horiz-adv-x="565" d="M84 0l8 47l160 10l237 1340l-157 10l8 47h397l-8 -47l-162 -10l-237 -1340l159 -10l-8 -47h-397zM180 1563l416 360h57l287 -360h-63l-256 321l-369 -321h-72z" />
<glyph unicode="&#xcf;" horiz-adv-x="565" d="M84 0l8 47l160 10l237 1340l-157 10l8 47h397l-8 -47l-162 -10l-237 -1340l159 -10l-8 -47h-397zM301 1585l45 264h74l-45 -264h-74zM750 1585l45 264h73l-45 -264h-73z" />
<glyph unicode="&#xd0;" horiz-adv-x="1245" d="M84 0l8 47l160 10l119 672h-160l10 57h160l108 611l-157 10l8 47h594q211 0 308 -82t97 -268q0 -74 -20 -201l-62 -352q-52 -298 -186 -424.5t-393 -126.5h-594zM332 59h356q213 0 330.5 117t161.5 373l59 344q21 126 21 211q0 160 -77.5 225.5t-258.5 65.5h-357 l-108 -609h362l-10 -57h-362z" />
<glyph unicode="&#xd1;" horiz-adv-x="1323" d="M84 0l8 49l160 8l237 1340l-159 8l10 49h254l475 -1321l223 1264l-157 8l10 49h371l-11 -49l-149 -8l-246 -1397h-68l-499 1346l-228 -1289l170 -8l-8 -49h-393zM610 1620l11 68q77 84 190 84q42 0 83 -16.5t69.5 -36t69 -36t81.5 -16.5q112 0 193 100l-11 -67 q-75 -82 -190 -82q-43 0 -85 16t-70.5 36t-68 36t-79.5 16q-107 0 -193 -102z" />
<glyph unicode="&#xd2;" d="M166 373q0 98 20 209l52 290q57 321 210.5 470t425.5 149q222 0 329.5 -100.5t107.5 -313.5q0 -85 -19 -205l-51 -290q-57 -320 -212 -469.5t-425 -149.5q-223 0 -330.5 99.5t-107.5 310.5zM244 371q0 -185 90.5 -265.5t281.5 -80.5q228 0 362.5 137.5t184.5 419.5 l51 290q15 98 19 203q0 189 -89.5 272t-279.5 83q-231 0 -363.5 -135t-183.5 -423l-51 -290q-22 -126 -22 -211zM719 1946h76l202 -381h-53z" />
<glyph unicode="&#xd3;" d="M166 373q0 98 20 209l52 290q57 321 210.5 470t425.5 149q222 0 329.5 -100.5t107.5 -313.5q0 -85 -19 -205l-51 -290q-57 -320 -212 -469.5t-425 -149.5q-223 0 -330.5 99.5t-107.5 310.5zM244 371q0 -185 90.5 -265.5t281.5 -80.5q228 0 362.5 137.5t184.5 419.5 l51 290q15 98 19 203q0 189 -89.5 272t-279.5 83q-231 0 -363.5 -135t-183.5 -423l-51 -290q-22 -126 -22 -211zM774 1565l332 381h82l-359 -381h-55z" />
<glyph unicode="&#xd4;" d="M166 373q0 98 20 209l52 290q57 321 210.5 470t425.5 149q222 0 329.5 -100.5t107.5 -313.5q0 -85 -19 -205l-51 -290q-57 -320 -212 -469.5t-425 -149.5q-223 0 -330.5 99.5t-107.5 310.5zM244 371q0 -185 90.5 -265.5t281.5 -80.5q228 0 362.5 137.5t184.5 419.5 l51 290q15 98 19 203q0 189 -89.5 272t-279.5 83q-231 0 -363.5 -135t-183.5 -423l-51 -290q-22 -126 -22 -211zM506 1563l416 360h57l287 -360h-64l-256 321l-368 -321h-72z" />
<glyph unicode="&#xd5;" d="M166 373q0 98 20 209l52 290q57 321 210.5 470t425.5 149q222 0 329.5 -100.5t107.5 -313.5q0 -85 -19 -205l-51 -290q-57 -320 -212 -469.5t-425 -149.5q-223 0 -330.5 99.5t-107.5 310.5zM244 371q0 -185 90.5 -265.5t281.5 -80.5q228 0 362.5 137.5t184.5 419.5 l51 290q15 98 19 203q0 189 -89.5 272t-279.5 83q-231 0 -363.5 -135t-183.5 -423l-51 -290q-22 -126 -22 -211zM559 1620l10 68q77 84 191 84q42 0 83 -16.5t69.5 -36t69 -36t81.5 -16.5q111 0 192 100l-10 -67q-75 -82 -190 -82q-43 0 -85 16t-70.5 36t-68 36t-79.5 16 q-108 0 -193 -102z" />
<glyph unicode="&#xd6;" d="M166 373q0 98 20 209l52 290q57 321 210.5 470t425.5 149q222 0 329.5 -100.5t107.5 -313.5q0 -85 -19 -205l-51 -290q-57 -320 -212 -469.5t-425 -149.5q-223 0 -330.5 99.5t-107.5 310.5zM244 371q0 -185 90.5 -265.5t281.5 -80.5q228 0 362.5 137.5t184.5 419.5 l51 290q15 98 19 203q0 189 -89.5 272t-279.5 83q-231 0 -363.5 -135t-183.5 -423l-51 -290q-22 -126 -22 -211zM629 1585l45 264h74l-46 -264h-73zM1077 1585l45 264h74l-45 -264h-74z" />
<glyph unicode="&#xd7;" horiz-adv-x="1239" d="M328 430l381 326l-267 319l50 41l264 -319l379 319l32 -41l-376 -319l266 -326l-49 -41l-267 324l-381 -324z" />
<glyph unicode="&#xd8;" d="M55 -154l185 252q-74 100 -74 275q0 98 20 209l52 290q57 321 210.5 470t425.5 149q211 0 320 -92l154 209h73l-186 -254q76 -102 76 -277q0 -85 -19 -205l-51 -290q-57 -320 -212 -469.5t-425 -149.5q-211 0 -323 92l-154 -209h-72zM244 371q0 -133 45 -207l862 1175 q-91 91 -287 91q-231 0 -363.5 -135t-183.5 -423l-51 -290q-22 -126 -22 -211zM324 115q87 -90 292 -90q228 0 362.5 137.5t184.5 419.5l51 290q19 120 19 203q0 133 -47 213z" />
<glyph unicode="&#xd9;" horiz-adv-x="1421" d="M268 291q0 86 21 203l160 903l-142 8l10 49h379l-10 -49l-158 -8l-161 -910q-19 -111 -19 -180q0 -154 84 -216t283 -62q134 0 224 25.5t148 85t89.5 140t54.5 207.5l162 910l-158 8l10 49h369l-10 -49l-140 -8l-159 -903q-18 -101 -39 -173.5t-53.5 -135t-75.5 -102 t-106 -68t-144.5 -40.5t-190.5 -12q-233 0 -330.5 75.5t-97.5 252.5zM817 1946h76l203 -381h-54z" />
<glyph unicode="&#xda;" horiz-adv-x="1421" d="M268 291q0 86 21 203l160 903l-142 8l10 49h379l-10 -49l-158 -8l-161 -910q-19 -111 -19 -180q0 -154 84 -216t283 -62q134 0 224 25.5t148 85t89.5 140t54.5 207.5l162 910l-158 8l10 49h369l-10 -49l-140 -8l-159 -903q-18 -101 -39 -173.5t-53.5 -135t-75.5 -102 t-106 -68t-144.5 -40.5t-190.5 -12q-233 0 -330.5 75.5t-97.5 252.5zM872 1565l332 381h82l-358 -381h-56z" />
<glyph unicode="&#xdb;" horiz-adv-x="1421" d="M268 291q0 86 21 203l160 903l-142 8l10 49h379l-10 -49l-158 -8l-161 -910q-19 -111 -19 -180q0 -154 84 -216t283 -62q134 0 224 25.5t148 85t89.5 140t54.5 207.5l162 910l-158 8l10 49h369l-10 -49l-140 -8l-159 -903q-18 -101 -39 -173.5t-53.5 -135t-75.5 -102 t-106 -68t-144.5 -40.5t-190.5 -12q-233 0 -330.5 75.5t-97.5 252.5zM604 1563l416 360h57l287 -360h-64l-256 321l-368 -321h-72z" />
<glyph unicode="&#xdc;" horiz-adv-x="1421" d="M268 291q0 86 21 203l160 903l-142 8l10 49h379l-10 -49l-158 -8l-161 -910q-19 -111 -19 -180q0 -154 84 -216t283 -62q134 0 224 25.5t148 85t89.5 140t54.5 207.5l162 910l-158 8l10 49h369l-10 -49l-140 -8l-159 -903q-18 -101 -39 -173.5t-53.5 -135t-75.5 -102 t-106 -68t-144.5 -40.5t-190.5 -12q-233 0 -330.5 75.5t-97.5 252.5zM727 1585l45 264h74l-45 -264h-74zM1176 1585l45 264h73l-45 -264h-73z" />
<glyph unicode="&#xdd;" horiz-adv-x="1159" d="M276 1405l11 49h385l-10 -49l-156 -8l199 -701l456 701l-153 8l10 49h364l-10 -49l-147 -8l-502 -764l-102 -576l178 -8l-8 -49h-435l9 49l178 8l102 576l-221 764zM741 1565l332 381h82l-358 -381h-56z" />
<glyph unicode="&#xde;" horiz-adv-x="1163" d="M84 0l8 47l160 10l237 1340l-157 10l8 47h412l-9 -47l-176 -10l-39 -217h394q166 0 241.5 -67.5t75.5 -217.5q0 -69 -16 -170q-43 -244 -149 -349.5t-312 -105.5h-393l-39 -213l174 -10l-8 -47h-412zM377 324h383q168 0 259 96.5t128 304.5q16 84 16 166q0 129 -62 182 t-200 53h-383z" />
<glyph unicode="&#xdf;" horiz-adv-x="1429" d="M49 0l8 49l160 8l203 1141q17 94 48 153.5t83 89.5t110 40t148 10q61 0 103.5 -4t81.5 -16t62.5 -33.5t37.5 -56.5t14 -85q0 -36 -10 -98l-45 -250q-6 -35 -6 -61q0 -67 40.5 -108t135.5 -79q56 -23 86 -38.5t61 -42t44 -62t13 -86.5q0 -43 -8 -90l-20 -117 q-53 -301 -412 -301q-215 0 -325 113l43 241h55l-29 -211q98 -86 268 -86q293 0 338 252l19 103q10 62 10 94q0 64 -41.5 100.5t-167.5 92.5q-96 43 -141 93t-45 132q0 27 6 61l45 250q8 44 8 88q0 92 -53 121t-178 29q-72 0 -118 -8.5t-86.5 -33.5t-64.5 -72.5t-38 -123.5 l-203 -1141l155 -8l-8 -49h-387z" />
<glyph unicode="&#xe0;" horiz-adv-x="1112" d="M106 199q0 39 9 86l16 92q27 147 115.5 218t253.5 71q292 0 456 -107l37 211q8 44 8 88q0 104 -65 144t-219 40q-245 0 -412 -106l-12 57q178 113 444 113q180 0 259 -52.5t79 -174.5q0 -38 -10 -103l-117 -665q-4 -28 -4 -35q0 -62 57 -62q60 0 95 60v-49 q-39 -60 -117 -60q-53 0 -77.5 27.5t-24.5 83.5q0 45 20 133q-74 -108 -201.5 -177t-300.5 -69q-289 0 -289 236zM178 211q0 -95 58 -144t186 -49q160 0 280 68.5t201 181.5l45 246q-165 100 -436 100q-140 0 -215 -61t-96 -182l-15 -82q-10 -50 -8 -78zM598 1569h76 l203 -381h-54z" />
<glyph unicode="&#xe1;" horiz-adv-x="1112" d="M106 199q0 39 9 86l16 92q27 147 115.5 218t253.5 71q292 0 456 -107l37 211q8 44 8 88q0 104 -65 144t-219 40q-245 0 -412 -106l-12 57q178 113 444 113q180 0 259 -52.5t79 -174.5q0 -38 -10 -103l-117 -665q-4 -28 -4 -35q0 -62 57 -62q60 0 95 60v-49 q-39 -60 -117 -60q-53 0 -77.5 27.5t-24.5 83.5q0 45 20 133q-74 -108 -201.5 -177t-300.5 -69q-289 0 -289 236zM178 211q0 -95 58 -144t186 -49q160 0 280 68.5t201 181.5l45 246q-165 100 -436 100q-140 0 -215 -61t-96 -182l-15 -82q-10 -50 -8 -78zM653 1188l332 381 h82l-358 -381h-56z" />
<glyph unicode="&#xe2;" horiz-adv-x="1112" d="M106 199q0 39 9 86l16 92q27 147 115.5 218t253.5 71q292 0 456 -107l37 211q8 44 8 88q0 104 -65 144t-219 40q-245 0 -412 -106l-12 57q178 113 444 113q180 0 259 -52.5t79 -174.5q0 -38 -10 -103l-117 -665q-4 -28 -4 -35q0 -62 57 -62q60 0 95 60v-49 q-39 -60 -117 -60q-53 0 -77.5 27.5t-24.5 83.5q0 45 20 133q-74 -108 -201.5 -177t-300.5 -69q-289 0 -289 236zM178 211q0 -95 58 -144t186 -49q160 0 280 68.5t201 181.5l45 246q-165 100 -436 100q-140 0 -215 -61t-96 -182l-15 -82q-10 -50 -8 -78zM385 1186l416 360 h57l287 -360h-64l-256 321l-368 -321h-72z" />
<glyph unicode="&#xe3;" horiz-adv-x="1112" d="M106 199q0 39 9 86l16 92q27 147 115.5 218t253.5 71q292 0 456 -107l37 211q8 44 8 88q0 104 -65 144t-219 40q-245 0 -412 -106l-12 57q178 113 444 113q180 0 259 -52.5t79 -174.5q0 -38 -10 -103l-117 -665q-4 -28 -4 -35q0 -62 57 -62q60 0 95 60v-49 q-39 -60 -117 -60q-53 0 -77.5 27.5t-24.5 83.5q0 45 20 133q-74 -108 -201.5 -177t-300.5 -69q-289 0 -289 236zM178 211q0 -95 58 -144t186 -49q160 0 280 68.5t201 181.5l45 246q-165 100 -436 100q-140 0 -215 -61t-96 -182l-15 -82q-10 -50 -8 -78zM438 1243l11 68 q77 84 190 84q42 0 83 -16.5t69.5 -36t69 -36t81.5 -16.5q111 0 193 101l-11 -68q-75 -82 -190 -82q-43 0 -85 16.5t-70.5 36t-68 36t-79.5 16.5q-107 0 -193 -103z" />
<glyph unicode="&#xe4;" horiz-adv-x="1112" d="M106 199q0 39 9 86l16 92q27 147 115.5 218t253.5 71q292 0 456 -107l37 211q8 44 8 88q0 104 -65 144t-219 40q-245 0 -412 -106l-12 57q178 113 444 113q180 0 259 -52.5t79 -174.5q0 -38 -10 -103l-117 -665q-4 -28 -4 -35q0 -62 57 -62q60 0 95 60v-49 q-39 -60 -117 -60q-53 0 -77.5 27.5t-24.5 83.5q0 45 20 133q-74 -108 -201.5 -177t-300.5 -69q-289 0 -289 236zM178 211q0 -95 58 -144t186 -49q160 0 280 68.5t201 181.5l45 246q-165 100 -436 100q-140 0 -215 -61t-96 -182l-15 -82q-10 -50 -8 -78zM508 1208l45 265h74 l-45 -265h-74zM956 1208l45 265h74l-45 -265h-74z" />
<glyph unicode="&#xe5;" horiz-adv-x="1112" d="M106 199q0 39 9 86l16 92q27 147 115.5 218t253.5 71q292 0 456 -107l37 211q8 44 8 88q0 104 -65 144t-219 40q-245 0 -412 -106l-12 57q178 113 444 113q180 0 259 -52.5t79 -174.5q0 -38 -10 -103l-117 -665q-4 -28 -4 -35q0 -62 57 -62q60 0 95 60v-49 q-39 -60 -117 -60q-53 0 -77.5 27.5t-24.5 83.5q0 45 20 133q-74 -108 -201.5 -177t-300.5 -69q-289 0 -289 236zM178 211q0 -95 58 -144t186 -49q160 0 280 68.5t201 181.5l45 246q-165 100 -436 100q-140 0 -215 -61t-96 -182l-15 -82q-10 -50 -8 -78zM573 1300 q0 126 70.5 197.5t190.5 71.5q180 0 180 -150q0 -118 -67 -194t-189 -76q-185 0 -185 151zM625 1315q0 -121 141 -121q90 0 143.5 58t53.5 157q0 115 -138 115q-91 0 -145.5 -55.5t-54.5 -153.5z" />
<glyph unicode="&#xe6;" horiz-adv-x="1804" d="M106 199q0 39 9 86l16 92q27 147 115.5 218t253.5 71q288 0 456 -107l37 211q8 62 8 86q0 104 -65.5 145t-218.5 41q-241 0 -412 -108l-12 59q174 111 442 111q169 0 245.5 -44.5t76.5 -160.5q0 -31 -6 -72q51 145 160 211t282 66q195 0 276.5 -73.5t81.5 -229.5 q0 -84 -22 -207l-14 -78h-795q-21 -102 -21 -186q0 -149 78 -227t254 -78q258 0 381 168l27 -48q-131 -180 -422 -180q-185 0 -275 79t-108 228q-44 -99 -136.5 -171t-196 -105t-206.5 -33q-289 0 -289 236zM178 205q0 -96 57 -141.5t187 -45.5q165 0 301.5 85t187.5 208 l37 201q-168 102 -436 102q-142 0 -215.5 -58t-95.5 -185l-15 -82q-8 -41 -8 -84zM1028 567h725l8 47q21 126 21 187q0 130 -68.5 189t-232.5 59q-201 0 -304 -111.5t-149 -370.5z" />
<glyph unicode="&#xe7;" horiz-adv-x="1009" d="M139 311q0 59 11 115l40 236q35 204 171.5 324t361.5 120q263 0 362 -135l-47 -273h-55l31 240q-43 55 -124.5 82t-174.5 27q-187 0 -304.5 -107.5t-148.5 -280.5l-41 -233q-10 -49 -10 -109q0 -290 348 -290q113 0 217 54t180 163l25 -49q-81 -114 -196.5 -173 t-241.5 -59q-199 0 -301.5 89.5t-102.5 258.5zM377 -469q78 101 106 203h-32l34 196h72l-35 -192q-18 -103 -121 -230z" />
<glyph unicode="&#xe8;" horiz-adv-x="1026" d="M145 324q0 54 13 127l28 159q45 257 167 376.5t360 119.5q196 0 278 -74.5t82 -230.5q0 -84 -22 -207l-15 -78h-794l-13 -65q-10 -54 -10 -119q0 -307 334 -307q100 0 170.5 21t115.5 55t99 96l23 -52q-132 -182 -429 -182q-197 0 -292 96t-95 265zM250 567h725 q24 151 24 228q0 133 -66.5 193.5t-230.5 60.5q-110 0 -187.5 -30t-129 -94t-82 -148.5t-53.5 -209.5zM555 1569h76l203 -381h-54z" />
<glyph unicode="&#xe9;" horiz-adv-x="1026" d="M145 324q0 54 13 127l28 159q45 257 167 376.5t360 119.5q196 0 278 -74.5t82 -230.5q0 -84 -22 -207l-15 -78h-794l-13 -65q-10 -54 -10 -119q0 -307 334 -307q100 0 170.5 21t115.5 55t99 96l23 -52q-132 -182 -429 -182q-197 0 -292 96t-95 265zM250 567h725 q24 151 24 228q0 133 -66.5 193.5t-230.5 60.5q-110 0 -187.5 -30t-129 -94t-82 -148.5t-53.5 -209.5zM610 1188l332 381h82l-358 -381h-56z" />
<glyph unicode="&#xea;" horiz-adv-x="1026" d="M145 324q0 54 13 127l28 159q45 257 167 376.5t360 119.5q196 0 278 -74.5t82 -230.5q0 -84 -22 -207l-15 -78h-794l-13 -65q-10 -54 -10 -119q0 -307 334 -307q100 0 170.5 21t115.5 55t99 96l23 -52q-132 -182 -429 -182q-197 0 -292 96t-95 265zM250 567h725 q24 151 24 228q0 133 -66.5 193.5t-230.5 60.5q-110 0 -187.5 -30t-129 -94t-82 -148.5t-53.5 -209.5zM342 1186l416 360h57l287 -360h-64l-256 321l-368 -321h-72z" />
<glyph unicode="&#xeb;" horiz-adv-x="1026" d="M145 324q0 54 13 127l28 159q45 257 167 376.5t360 119.5q196 0 278 -74.5t82 -230.5q0 -84 -22 -207l-15 -78h-794l-13 -65q-10 -54 -10 -119q0 -307 334 -307q100 0 170.5 21t115.5 55t99 96l23 -52q-132 -182 -429 -182q-197 0 -292 96t-95 265zM250 567h725 q24 151 24 228q0 133 -66.5 193.5t-230.5 60.5q-110 0 -187.5 -30t-129 -94t-82 -148.5t-53.5 -209.5zM465 1208l45 265h74l-45 -265h-74zM913 1208l45 265h74l-45 -265h-74z" />
<glyph unicode="&#xec;" horiz-adv-x="526" d="M72 0l8 49l160 8l170 963l-158 8l8 49h234l-181 -1020l160 -8l-8 -49h-393zM305 1569h76l203 -381h-54z" />
<glyph unicode="&#xed;" horiz-adv-x="526" d="M72 0l8 49l160 8l170 963l-158 8l8 49h234l-181 -1020l160 -8l-8 -49h-393zM360 1188l332 381h82l-358 -381h-56z" />
<glyph unicode="&#xee;" horiz-adv-x="663" d="M143 0l9 49l159 8l170 963l-157 8l8 49h233l-180 -1020l160 -8l-8 -49h-394zM164 1186l416 360h57l287 -360h-64l-256 321l-368 -321h-72z" />
<glyph unicode="&#xef;" horiz-adv-x="526" d="M72 0l8 49l160 8l170 963l-158 8l8 49h234l-181 -1020l160 -8l-8 -49h-393zM215 1208l45 265h74l-45 -265h-74zM664 1208l45 265h73l-45 -265h-73z" />
<glyph unicode="&#xf0;" horiz-adv-x="1071" d="M131 264q0 57 12 125l37 205q16 91 45.5 155t68.5 103.5t99 61.5t125 30t158 8q163 0 249.5 -61.5t118.5 -173.5q9 115 9 149q0 234 -84 430l-361 -190l-16 45l358 188q-54 102 -108 164l59 21q61 -77 103 -156l186 98l16 -45l-180 -94q92 -203 92 -467q0 -143 -28 -305 l-29 -166q-39 -227 -167 -326.5t-368 -99.5q-202 0 -298.5 71t-96.5 230zM207 270q0 -135 79 -191t251 -56q200 0 309.5 84.5t142.5 277.5l35 205q-11 75 -31.5 127.5t-59 95t-102 63.5t-153.5 21q-98 0 -165.5 -12.5t-123.5 -46t-89 -94t-48 -152.5l-33 -197 q-14 -84 -12 -125z" />
<glyph unicode="&#xf1;" horiz-adv-x="1374" d="M72 0l8 49l160 8l170 963l-158 8l8 49h221l-30 -223q117 135 259.5 193.5t321.5 58.5q277 0 277 -205q0 -33 -6 -70l-138 -774l158 -8l-8 -49h-397l8 49l166 8l135 762q6 35 6 64q0 88 -58.5 124.5t-177.5 36.5q-343 0 -553 -256l-131 -731l166 -8l-8 -49h-399zM569 1243 l11 68q77 84 190 84q42 0 83 -16.5t69.5 -36t69 -36t81.5 -16.5q111 0 193 101l-11 -68q-75 -82 -190 -82q-43 0 -85 16.5t-70.5 36t-68 36t-79.5 16.5q-107 0 -193 -103z" />
<glyph unicode="&#xf2;" horiz-adv-x="1056" d="M135 279q0 67 15 147l38 219q43 240 170.5 350.5t364.5 110.5q198 0 291.5 -76t93.5 -239q0 -72 -14 -146l-39 -219q-43 -242 -170.5 -352.5t-364.5 -110.5q-198 0 -291.5 76.5t-93.5 239.5zM209 287q0 -143 76.5 -203.5t244.5 -60.5q199 0 308.5 99t146.5 308l37 211 q14 93 14 143q0 142 -77 202.5t-246 60.5q-199 0 -308 -99.5t-145 -306.5l-37 -211q-14 -77 -14 -143zM569 1569h76l203 -381h-53z" />
<glyph unicode="&#xf3;" horiz-adv-x="1056" d="M135 279q0 67 15 147l38 219q43 240 170.5 350.5t364.5 110.5q198 0 291.5 -76t93.5 -239q0 -72 -14 -146l-39 -219q-43 -242 -170.5 -352.5t-364.5 -110.5q-198 0 -291.5 76.5t-93.5 239.5zM209 287q0 -143 76.5 -203.5t244.5 -60.5q199 0 308.5 99t146.5 308l37 211 q14 93 14 143q0 142 -77 202.5t-246 60.5q-199 0 -308 -99.5t-145 -306.5l-37 -211q-14 -77 -14 -143zM625 1188l331 381h82l-358 -381h-55z" />
<glyph unicode="&#xf4;" horiz-adv-x="1056" d="M135 279q0 67 15 147l38 219q43 240 170.5 350.5t364.5 110.5q198 0 291.5 -76t93.5 -239q0 -72 -14 -146l-39 -219q-43 -242 -170.5 -352.5t-364.5 -110.5q-198 0 -291.5 76.5t-93.5 239.5zM209 287q0 -143 76.5 -203.5t244.5 -60.5q199 0 308.5 99t146.5 308l37 211 q14 93 14 143q0 142 -77 202.5t-246 60.5q-199 0 -308 -99.5t-145 -306.5l-37 -211q-14 -77 -14 -143zM356 1186l416 360h57l287 -360h-63l-256 321l-369 -321h-72z" />
<glyph unicode="&#xf5;" horiz-adv-x="1056" d="M135 279q0 67 15 147l38 219q43 240 170.5 350.5t364.5 110.5q198 0 291.5 -76t93.5 -239q0 -72 -14 -146l-39 -219q-43 -242 -170.5 -352.5t-364.5 -110.5q-198 0 -291.5 76.5t-93.5 239.5zM209 287q0 -143 76.5 -203.5t244.5 -60.5q199 0 308.5 99t146.5 308l37 211 q14 93 14 143q0 142 -77 202.5t-246 60.5q-199 0 -308 -99.5t-145 -306.5l-37 -211q-14 -77 -14 -143zM412 1243l10 68q77 84 190 84q42 0 83 -16.5t69.5 -36t69 -36t81.5 -16.5q111 0 193 101l-10 -68q-75 -82 -191 -82q-43 0 -85 16.5t-70.5 36t-68 36t-79.5 16.5 q-106 0 -192 -103z" />
<glyph unicode="&#xf6;" horiz-adv-x="1056" d="M135 279q0 67 15 147l38 219q43 240 170.5 350.5t364.5 110.5q198 0 291.5 -76t93.5 -239q0 -72 -14 -146l-39 -219q-43 -242 -170.5 -352.5t-364.5 -110.5q-198 0 -291.5 76.5t-93.5 239.5zM209 287q0 -143 76.5 -203.5t244.5 -60.5q199 0 308.5 99t146.5 308l37 211 q14 93 14 143q0 142 -77 202.5t-246 60.5q-199 0 -308 -99.5t-145 -306.5l-37 -211q-14 -77 -14 -143zM479 1208l45 265h74l-45 -265h-74zM928 1208l45 265h74l-46 -265h-73z" />
<glyph unicode="&#xf7;" horiz-adv-x="1224" d="M254 725l10 59h969l-10 -59h-969zM608 229l58 332h84l-58 -332h-84zM735 948l58 332h84l-58 -332h-84z" />
<glyph unicode="&#xf8;" horiz-adv-x="1056" d="M47 -154l162 209q-74 77 -74 226q0 65 15 145l38 219q43 240 170.5 350.5t364.5 110.5q166 0 260 -55l139 180h74l-168 -215q80 -77 80 -225q0 -53 -14 -146l-39 -219q-43 -242 -170.5 -352.5t-364.5 -110.5q-177 0 -266 57l-135 -174h-72zM209 283q0 -111 45 -168 l688 882q-76 50 -229 50q-199 0 -308 -99.5t-145 -306.5l-37 -211q-14 -77 -14 -147zM295 74q73 -51 235 -51q199 0 308.5 99t146.5 308l37 211q14 93 14 143q0 117 -51 177z" />
<glyph unicode="&#xf9;" horiz-adv-x="1255" d="M233 1028l9 49h370l-8 -49l-160 -8l-120 -688q-9 -49 -9 -88q0 -120 79 -169.5t247 -49.5q190 0 289 74t127 233l121 688l-158 8l8 49h363l-9 -49l-139 -8l-121 -688q-35 -195 -153.5 -282t-341.5 -87q-196 0 -291.5 64.5t-95.5 205.5q0 37 10 99l121 688zM670 1569h75 l203 -381h-53z" />
<glyph unicode="&#xfa;" horiz-adv-x="1255" d="M233 1028l9 49h370l-8 -49l-160 -8l-120 -688q-9 -49 -9 -88q0 -120 79 -169.5t247 -49.5q190 0 289 74t127 233l121 688l-158 8l8 49h363l-9 -49l-139 -8l-121 -688q-35 -195 -153.5 -282t-341.5 -87q-196 0 -291.5 64.5t-95.5 205.5q0 37 10 99l121 688zM725 1188 l332 381h82l-359 -381h-55z" />
<glyph unicode="&#xfb;" horiz-adv-x="1255" d="M233 1028l9 49h370l-8 -49l-160 -8l-120 -688q-9 -49 -9 -88q0 -120 79 -169.5t247 -49.5q190 0 289 74t127 233l121 688l-158 8l8 49h363l-9 -49l-139 -8l-121 -688q-35 -195 -153.5 -282t-341.5 -87q-196 0 -291.5 64.5t-95.5 205.5q0 37 10 99l121 688zM457 1186 l415 360h58l287 -360h-64l-256 321l-369 -321h-71z" />
<glyph unicode="&#xfc;" horiz-adv-x="1255" d="M233 1028l9 49h370l-8 -49l-160 -8l-120 -688q-9 -49 -9 -88q0 -120 79 -169.5t247 -49.5q190 0 289 74t127 233l121 688l-158 8l8 49h363l-9 -49l-139 -8l-121 -688q-35 -195 -153.5 -282t-341.5 -87q-196 0 -291.5 64.5t-95.5 205.5q0 37 10 99l121 688zM580 1208 l45 265h73l-45 -265h-73zM1028 1208l45 265h74l-45 -265h-74z" />
<glyph unicode="&#xfd;" horiz-adv-x="1132" d="M-41 -399l31 59q64 -78 166 -78q83 0 148 51.5t140 196.5l78 152l-168 1038l-147 8l8 49h379l-8 -49l-156 -8l148 -954l489 954l-147 8l8 49h364l-8 -49l-151 -8l-621 -1200q-87 -167 -169 -235t-198 -68q-123 0 -186 84zM664 1188l331 381h82l-358 -381h-55z" />
<glyph unicode="&#xfe;" horiz-adv-x="1161" d="M-82 -467l8 47l160 10l322 1825l-158 10l8 48h234l-107 -613q84 121 215 183.5t279 62.5q172 0 250.5 -76t78.5 -231q0 -76 -14 -156l-37 -207q-44 -249 -159.5 -361t-346.5 -112q-128 0 -238 55t-151 156l-102 -584l178 -10l-8 -47h-412zM274 242q32 -101 138 -159 t231 -58q201 0 302 100t138 309l35 197q15 86 15 151q0 137 -68.5 199.5t-220.5 62.5q-146 0 -274 -68.5t-199 -197.5z" />
<glyph unicode="&#xff;" horiz-adv-x="1132" d="M-41 -399l31 59q64 -78 166 -78q83 0 148 51.5t140 196.5l78 152l-168 1038l-147 8l8 49h379l-8 -49l-156 -8l148 -954l489 954l-147 8l8 49h364l-8 -49l-151 -8l-621 -1200q-87 -167 -169 -235t-198 -68q-123 0 -186 84zM518 1208l45 265h74l-45 -265h-74zM967 1208 l45 265h73l-45 -265h-73z" />
<glyph unicode="&#x152;" horiz-adv-x="1800" d="M160 352q0 76 20 199l62 352q52 297 187.5 424t393.5 127h1129l-72 -403h-51l47 342h-639l-107 -607h510l48 185h47l-76 -432h-47l18 190h-510l-116 -666h649l82 386h51l-78 -449h-1141q-213 0 -310 82.5t-97 269.5zM240 356q0 -163 81.5 -230t256.5 -67h348l235 1336 h-348q-213 0 -330 -116t-161 -374l-62 -356q-20 -123 -20 -193z" />
<glyph unicode="&#x153;" horiz-adv-x="1855" d="M135 279q0 67 15 147l38 219q41 237 168 348t361 111q186 0 276.5 -70.5t96.5 -220.5q56 150 164.5 221.5t287.5 71.5q197 0 278 -73.5t81 -229.5q0 -81 -23 -209l-14 -78h-793q-18 -95 -18 -176q0 -154 76 -234.5t253 -80.5q107 0 178 20t113.5 54t93.5 98l21 -52 q-129 -182 -426 -182q-175 0 -265.5 79.5t-103.5 221.5q-55 -156 -170 -228.5t-305 -72.5q-197 0 -290 76.5t-93 239.5zM207 285q0 -143 76 -202.5t245 -59.5q203 0 308 94.5t145 310.5l39 213q12 73 12 131q0 141 -78 206.5t-245 65.5q-200 0 -306 -97.5t-143 -305.5 l-39 -213q-14 -77 -14 -143zM1079 567h725l8 47q21 126 21 187q0 130 -68.5 189t-232.5 59q-195 0 -296.5 -104t-143.5 -316z" />
<glyph unicode="&#x178;" horiz-adv-x="1159" d="M276 1405l11 49h385l-10 -49l-156 -8l199 -701l456 701l-153 8l10 49h364l-10 -49l-147 -8l-502 -764l-102 -576l178 -8l-8 -49h-435l9 49l178 8l102 576l-221 764zM596 1585l45 264h74l-45 -264h-74zM1044 1585l46 264h73l-45 -264h-74z" />
<glyph unicode="&#x2c6;" horiz-adv-x="927" d="M293 1186l416 360h57l287 -360h-64l-256 321l-368 -321h-72z" />
<glyph unicode="&#x2dc;" horiz-adv-x="841" d="M303 1243l10 68q77 84 191 84q42 0 83 -16.5t69.5 -36t69 -36t81.5 -16.5q110 0 192 101l-10 -68q-75 -82 -190 -82q-43 0 -85 16.5t-70.5 36t-68 36t-79.5 16.5q-107 0 -193 -103z" />
<glyph unicode="&#x2000;" horiz-adv-x="973" />
<glyph unicode="&#x2001;" horiz-adv-x="1946" />
<glyph unicode="&#x2002;" horiz-adv-x="973" />
<glyph unicode="&#x2003;" horiz-adv-x="1946" />
<glyph unicode="&#x2004;" horiz-adv-x="648" />
<glyph unicode="&#x2005;" horiz-adv-x="486" />
<glyph unicode="&#x2006;" horiz-adv-x="324" />
<glyph unicode="&#x2007;" horiz-adv-x="324" />
<glyph unicode="&#x2008;" horiz-adv-x="243" />
<glyph unicode="&#x2009;" horiz-adv-x="389" />
<glyph unicode="&#x200a;" horiz-adv-x="108" />
<glyph unicode="&#x2010;" horiz-adv-x="643" d="M180 641l10 61h508l-10 -61h-508z" />
<glyph unicode="&#x2011;" horiz-adv-x="643" d="M180 641l10 61h508l-10 -61h-508z" />
<glyph unicode="&#x2012;" horiz-adv-x="643" d="M180 641l10 61h508l-10 -61h-508z" />
<glyph unicode="&#x2013;" horiz-adv-x="1048" d="M180 641l10 61h916l-10 -61h-916z" />
<glyph unicode="&#x2014;" horiz-adv-x="1429" d="M180 641l10 61h1295l-10 -61h-1295z" />
<glyph unicode="&#x2018;" horiz-adv-x="301" d="M311 1135l60 338h84l-58 -332h-45q0 -122 39 -213l-33 -25q-47 94 -47 232z" />
<glyph unicode="&#x2019;" horiz-adv-x="301" d="M240 928q85 110 116 213h-43l58 332h84l-60 -338q-40 -127 -131 -232z" />
<glyph unicode="&#x201a;" horiz-adv-x="301" d="M39 -211q86 111 117 211h-43l57 332h84l-59 -334q-37 -121 -132 -234z" />
<glyph unicode="&#x201c;" horiz-adv-x="602" d="M311 1135l60 338h84l-58 -332h-45q0 -122 39 -213l-33 -25q-47 94 -47 232zM612 1135l60 338h84l-58 -332h-45q0 -122 39 -213l-33 -25q-47 94 -47 232z" />
<glyph unicode="&#x201d;" horiz-adv-x="602" d="M240 928q85 110 116 213h-43l58 332h84l-60 -338q-40 -127 -131 -232zM541 928q85 110 116 213h-43l58 332h84l-60 -338q-40 -127 -131 -232z" />
<glyph unicode="&#x201e;" horiz-adv-x="602" d="M39 -211q86 111 117 211h-43l57 332h84l-59 -334q-37 -121 -132 -234zM340 -211q86 111 117 211h-43l57 332h84l-59 -334q-38 -123 -131 -234z" />
<glyph unicode="&#x2022;" horiz-adv-x="540" d="M213 719q0 96 61.5 160.5t161.5 64.5q76 0 117 -42t41 -111q0 -97 -62 -163.5t-163 -66.5q-74 0 -115 44t-41 114z" />
<glyph unicode="&#x2026;" horiz-adv-x="1361" d="M94 0l58 332h84l-58 -332h-84zM639 0l57 332h84l-57 -332h-84zM1184 0l57 332h84l-57 -332h-84z" />
<glyph unicode="&#x202f;" horiz-adv-x="389" />
<glyph unicode="&#x2039;" horiz-adv-x="456" d="M178 662l10 57l394 350l-13 -72l-346 -311l236 -311l-13 -64z" />
<glyph unicode="&#x203a;" horiz-adv-x="456" d="M117 311l12 72l346 311l-235 312l12 63l266 -350l-10 -57z" />
<glyph unicode="&#x205f;" horiz-adv-x="486" />
<glyph unicode="&#x20ac;" horiz-adv-x="1089" d="M117 498l20 49h119l59 346h-129l19 47h119q64 284 217 417.5t409 133.5q198 0 314 -84l-33 -55q-106 78 -291 78q-218 0 -349 -120t-188 -370h598l-28 -47h-578l-59 -346h444l-28 -49h-424q-9 -70 -9 -129q0 -188 90.5 -266t282.5 -78q209 0 344 100l21 -57 q-150 -105 -377 -105q-223 0 -331.5 99.5t-108.5 310.5q0 65 8 125h-131z" />
<glyph unicode="&#x2122;" horiz-adv-x="1822" d="M281 1108l61 346h629l-62 -346h-39l45 301h-241l-137 -780l104 -8l-6 -33h-264l6 33l104 8l137 780h-237l-62 -301h-38zM909 588l6 33l97 8l137 782l-92 10l6 33h174l147 -803l435 803h172l-6 -33l-95 -10l-137 -782l90 -8l-6 -33h-235l6 33l96 8l135 768l-440 -809h-60 l-145 807l-135 -766l92 -8l-6 -33h-236z" />
<glyph unicode="&#x25fc;" horiz-adv-x="1075" d="M0 0v1075h1075v-1075h-1075z" />
<glyph unicode="&#xfb01;" horiz-adv-x="1228" d="M72 0l8 49l160 8l170 965h-183l11 55h182l26 146q26 144 102.5 206t215.5 62q138 0 192 -41l-18 -53q-55 39 -166 39q-110 0 -171.5 -49.5t-82.5 -167.5l-24 -142h354l-10 -55h-355l-170 -965l181 -8l-9 -49h-413zM774 0l8 49l160 8l170 963l-158 8l9 49h233l-180 -1020 l160 -8l-9 -49h-393zM1143 1208l45 265h74l-45 -265h-74z" />
<glyph unicode="&#xfb02;" horiz-adv-x="1259" d="M72 0l8 49l160 8l170 965h-183l11 55h182l26 146q26 144 102.5 206t215.5 62q138 0 192 -41l-18 -53q-55 39 -166 39q-110 0 -171.5 -49.5t-82.5 -167.5l-24 -142h354l-10 -55h-355l-170 -965l181 -8l-9 -49h-413zM805 0l8 49l160 8l239 1358l-157 8l8 50h233l-249 -1416 l159 -8l-8 -49h-393z" />
</font>
</defs>
</svg>
