<?xml version="1.0" standalone="no"?>
<!DOCTYPE svg PUBLIC "-//W3C//DTD SVG 1.1//EN" "http://www.w3.org/Graphics/SVG/1.1/DTD/svg11.dtd" >
<svg xmlns="http://www.w3.org/2000/svg">
<metadata></metadata>
<defs>
<font id="vectipedeextralight" horiz-adv-x="1222" >
<font-face units-per-em="2048" ascent="1556" descent="-492" />
<missing-glyph horiz-adv-x="608" />
<glyph unicode="&#x28;C&#x29;" horiz-adv-x="1265" d="M84 524v406q0 302 132 431.5t417 129.5q284 0 416.5 -129.5t132.5 -431.5v-406q0 -302 -132.5 -431.5t-416.5 -129.5q-285 0 -417 129.5t-132 431.5zM131 524q0 -278 121 -397t381 -119t381 119t121 397v406q0 277 -120.5 395.5t-381.5 118.5t-381.5 -118.5 t-120.5 -395.5v-406zM322 637v182q0 213 78 297t268 84q71 0 137 -24t106 -68v-186h-39l-8 168q-32 32 -86.5 49.5t-111.5 17.5q-162 0 -228.5 -75t-66.5 -263v-182q0 -189 66 -264.5t229 -75.5q124 0 200 76l8 164h39v-179q-92 -100 -245 -100q-190 0 -268 83t-78 296z" />
<glyph unicode="&#x28;R&#x29;" horiz-adv-x="1265" d="M84 524v406q0 302 132 431.5t417 129.5q284 0 416.5 -129.5t132.5 -431.5v-406q0 -302 -132.5 -431.5t-416.5 -129.5q-285 0 -417 129.5t-132 431.5zM131 524q0 -278 121 -397t381 -119t381 119t121 397v406q0 277 -120.5 395.5t-381.5 118.5t-381.5 -118.5 t-120.5 -395.5v-406zM297 281v30l98 6v820l-98 8v31h408q111 0 160.5 -51t49.5 -160v-43q0 -164 -108 -189q54 -11 81 -48t27 -112v-256l95 -6v-30h-111q-33 0 -33 36v256q0 77 -34 109.5t-113 32.5h-275v-398l97 -6v-30h-244zM444 752h273q79 0 115 38.5t36 127.5v38 q0 94 -40.5 137.5t-131.5 43.5h-252v-385z" />
<glyph horiz-adv-x="2048" />
<glyph horiz-adv-x="2048" />
<glyph unicode="&#xd;" horiz-adv-x="2048" />
<glyph horiz-adv-x="608" />
<glyph unicode=" "  horiz-adv-x="608" />
<glyph unicode="&#x09;" horiz-adv-x="608" />
<glyph unicode="&#xa0;" horiz-adv-x="608" />
<glyph unicode="!" horiz-adv-x="274" d="M84 1335q0 90 4 119h98q4 -66 4 -119q0 -329 -28 -886h-49q-29 519 -29 886zM94 0v319h84v-319h-84z" />
<glyph unicode="&#x22;" horiz-adv-x="507" d="M94 907v547h68v-547h-68zM350 907v547h68v-547h-68z" />
<glyph unicode="#" horiz-adv-x="1114" d="M70 481l6 56h229l84 378h-266l6 56h272l111 483h55l-108 -483h299l110 483h56l-109 -483h225l-6 -56h-231l-86 -378h270l-6 -56h-276l-109 -481h-57l108 481h-299l-108 -481h-56l109 481h-223zM360 537h299l86 378h-299z" />
<glyph unicode="$" horiz-adv-x="1021" d="M80 983v43q0 262 389 274v154h61v-154q118 -2 204.5 -20.5t148.5 -69.5v-278h-54l-12 244q-54 43 -127 56t-182 13q-59 0 -108 -5t-97.5 -19.5t-81.5 -38.5t-53.5 -63.5t-20.5 -92.5v-37q0 -69 29 -111.5t105 -72.5q19 -7 40 -13t53.5 -11.5t46.5 -8t61 -9t55 -7.5 q9 -1 57.5 -8t67 -10.5t54 -11t62.5 -17.5q82 -28 118 -80.5t36 -141.5v-38q0 -76 -31.5 -132.5t-88.5 -89.5t-126.5 -49.5t-155.5 -19.5v-158h-61v158q-230 3 -381 108v281h57l11 -244q131 -88 325 -88q66 0 119.5 6.5t103.5 22.5t84 42.5t54 68t20 96.5v32q0 128 -104 164 q-73 26 -232 45q-196 24 -282 56q-82 30 -123 85.5t-41 149.5z" />
<glyph unicode="%" horiz-adv-x="1382" d="M78 997v226q0 147 62 208.5t179 61.5q116 0 178 -62t62 -208v-226q0 -146 -61.5 -207t-178.5 -61q-118 0 -179.5 61t-61.5 207zM141 997q0 -119 44 -167t134 -48q85 0 131 49t46 166v224q0 118 -45 167.5t-132 49.5q-88 0 -133 -49t-45 -168v-224zM209 -43l897 1542h63 l-897 -1542h-63zM823 229v226q0 146 62 208t180 62q116 0 178 -62t62 -208v-226q0 -146 -61.5 -207t-178.5 -61q-118 0 -180 61t-62 207zM887 229q0 -119 44 -167t134 -48q84 0 130 48.5t46 166.5v224q0 118 -44.5 167.5t-131.5 49.5q-88 0 -133 -49t-45 -168v-224z" />
<glyph unicode="&#x26;" d="M59 297v102q0 130 61.5 200.5t186.5 117.5q-78 80 -117.5 163.5t-39.5 190.5v109q0 159 82 235t249 76q169 0 242.5 -74t73.5 -233v-113q0 -64 -8.5 -110.5t-30.5 -81.5t-48 -59t-73 -46.5t-92.5 -38.5t-118.5 -40q-3 -1 -4 -1l506 -512q192 200 192 473v41h66v-43 q0 -303 -209 -518l76 -78l149 -10v-47h-188l-86 88q-85 -70 -196 -97.5t-261 -27.5q-91 0 -161 15t-129 51t-90.5 103.5t-31.5 164.5zM133 307q0 -81 27 -138.5t77 -87.5t109 -43t135 -13q263 0 398 112l-527 535q-56 -19 -91 -38t-67 -50.5t-46.5 -80t-14.5 -116.5v-80z M221 1069q0 -96 38 -172t116 -156q176 57 226 83q84 43 111 114q19 50 19 133v109q0 130 -58.5 190t-189.5 60q-262 0 -262 -254v-107z" />
<glyph unicode="'" horiz-adv-x="256" d="M94 907v547h68v-547h-68z" />
<glyph unicode="(" horiz-adv-x="645" d="M174 659q0 258 98.5 496.5t298.5 439.5h68q-389 -407 -389 -936q0 -262 96.5 -509.5t292.5 -462.5h-68q-194 203 -295.5 454t-101.5 518z" />
<glyph unicode=")" horiz-adv-x="645" d="M6 -313q195 216 292 463.5t97 508.5q0 526 -389 936h68q200 -201 298.5 -439.5t98.5 -496.5q0 -267 -101.5 -518t-295.5 -454h-68z" />
<glyph unicode="*" horiz-adv-x="878" d="M57 1165l19 54l340 -117l-8 364h59l-6 -364l340 117l18 -52l-346 -106l219 -289l-45 -35l-209 299l-207 -299l-47 33l219 291z" />
<glyph unicode="+" horiz-adv-x="1224" d="M127 725v59h455v455h59v-455h455v-59h-455v-457h-59v457h-455z" />
<glyph unicode="," horiz-adv-x="301" d="M78 -211q68 114 78 211h-43v332h84v-334q-15 -120 -91 -234z" />
<glyph unicode="-" horiz-adv-x="643" d="M68 641v61h507v-61h-507z" />
<glyph unicode="." horiz-adv-x="272" d="M94 0v332h84v-332h-84z" />
<glyph unicode="/" horiz-adv-x="681" d="M35 -219l545 1673h67l-545 -1673h-67z" />
<glyph unicode="0" horiz-adv-x="1124" d="M88 502v448q0 151 33 257t97 167.5t148 89t197 27.5q89 0 160 -16.5t131 -56t99 -101t61 -154t22 -213.5v-448q0 -151 -32.5 -257t-96.5 -167t-147.5 -88t-196.5 -27t-197 27t-148 88t-97 167t-33 257zM162 502q0 -133 27 -226.5t81 -147.5t125 -77.5t168 -23.5 q94 0 164.5 24t125 77.5t82.5 147t28 226.5v448q0 132 -27.5 225.5t-81.5 147.5t-125 78t-166 24q-96 0 -167 -24t-125 -78t-81.5 -147.5t-27.5 -225.5v-448z" />
<glyph unicode="1" horiz-adv-x="569" d="M59 1243q128 104 215 211h54v-1397l159 -10v-47h-403v47l172 10v1289q-65 -70 -160 -152z" />
<glyph unicode="2" horiz-adv-x="1067" d="M84 1370q196 121 459 121q205 0 322.5 -102t117.5 -310q0 -69 -15.5 -136.5t-40 -125t-65 -117.5t-81 -108t-99 -104.5t-106.5 -98.5t-115 -98q-142 -117 -289 -225h758l10 299h53v-365h-905v76q211 153 332 254q105 87 181.5 162t152.5 171t116.5 200t40.5 210 q0 172 -104 261t-277 89q-237 0 -426 -118z" />
<glyph unicode="3" horiz-adv-x="1015" d="M68 31l18 61q157 -65 356 -65q195 0 308.5 90t113.5 272q0 168 -91 253t-261 85h-170v57h170q158 0 243 78.5t85 227.5q0 160 -98 248.5t-289 88.5q-203 0 -363 -106l-20 59q158 111 391 111q224 0 335 -102.5t111 -286.5q0 -149 -75.5 -236t-213.5 -106 q152 -15 235 -112t83 -265q0 -211 -131 -315.5t-359 -104.5q-214 0 -378 68z" />
<glyph unicode="4" horiz-adv-x="1118" d="M63 276v66q171 230 333 554t225 570l65 -20q-67 -249 -226.5 -567.5t-318.5 -542.5h711v649h70v-649h133v-60h-133v-276h-70v276h-789z" />
<glyph unicode="5" horiz-adv-x="1054" d="M76 68l20 59q153 -98 353 -98q247 0 354.5 104t107.5 332q0 195 -80 295t-256 100q-274 0 -438 -237l-55 12l70 819h761v-379h-51l-12 314h-639l-57 -689q160 213 440 213q205 0 295 -114t90 -336q0 -263 -124.5 -381.5t-412.5 -118.5q-223 0 -366 105z" />
<glyph unicode="6" horiz-adv-x="1081" d="M72 608q0 132 25.5 254.5t77.5 230t126.5 190.5t177.5 137.5t226 70.5l16 -61q-138 -19 -247.5 -89.5t-179.5 -176.5t-108.5 -237.5t-42.5 -279.5q73 121 192 188.5t279 67.5q106 0 184.5 -33.5t125 -94.5t68.5 -139t22 -175q0 -242 -119 -370t-342 -128 q-138 0 -233.5 45.5t-149 134t-76 201t-22.5 264.5zM143 580q1 -104 12.5 -185.5t40 -152.5t74.5 -117.5t118 -73t167 -26.5q190 0 289.5 113t99.5 323q0 177 -83 282t-263 105q-148 0 -265.5 -72.5t-189.5 -195.5z" />
<glyph unicode="7" horiz-adv-x="1005" d="M61 1067v387h895v-57q-181 -288 -350.5 -690t-232.5 -721l-76 14q69 327 235.5 715.5t348.5 673.5h-756l-10 -322h-54z" />
<glyph unicode="8" horiz-adv-x="1089" d="M63 375q0 167 96 254t294 119q-94 13 -163.5 48t-108 84.5t-57 104.5t-18.5 117q0 389 441 389q436 0 436 -389q0 -62 -18 -116t-56 -102.5t-106.5 -82.5t-161.5 -47q197 -33 291 -120.5t94 -254.5q0 -106 -36.5 -186.5t-102 -130t-151.5 -74.5t-191 -25 q-104 0 -190.5 25t-152.5 74t-102.5 129t-36.5 184zM135 383q0 -177 113 -266.5t297 -89.5t295.5 90t111.5 268q0 149 -98.5 231t-310.5 105q-212 -22 -310 -104.5t-98 -233.5zM172 1094q0 -44 10 -84.5t36.5 -82t67.5 -73t107.5 -54.5t151.5 -30q105 8 181 40t115.5 80 t56.5 97.5t17 104.5q0 335 -370 335q-373 0 -373 -333z" />
<glyph unicode="9" horiz-adv-x="1081" d="M68 993q0 243 118.5 370.5t341.5 127.5q111 0 195 -31.5t138 -86.5t88 -138t47.5 -177.5t13.5 -213.5q0 -165 -41 -314.5t-118 -269.5t-198.5 -199t-273.5 -98l-19 62q138 19 247.5 88.5t180 175t109 236t43.5 278.5q-74 -120 -193.5 -186t-279.5 -66q-106 0 -184.5 33.5 t-124.5 94.5t-68 139t-22 175zM137 993q0 -177 83 -283t263 -106q148 0 265.5 71.5t189.5 192.5q-1 133 -21 231t-66 174t-127 115t-196 39q-190 0 -290.5 -112t-100.5 -322z" />
<glyph unicode=":" horiz-adv-x="335" d="M125 0v332h84v-332h-84zM125 743v328h84v-328h-84z" />
<glyph unicode=";" horiz-adv-x="370" d="M125 -211q67 108 78 211h-43v332h84v-334q-15 -122 -90 -234zM160 743v328h84v-328h-84z" />
<glyph unicode="&#x3c;" horiz-adv-x="1224" d="M127 723v57l969 484v-68l-903 -444l903 -447v-65z" />
<glyph unicode="=" horiz-adv-x="1224" d="M127 514v59h969v-59h-969zM127 936v59h969v-59h-969z" />
<glyph unicode="&#x3e;" horiz-adv-x="1224" d="M127 240v65l903 447l-903 444v68l969 -484v-57z" />
<glyph unicode="?" horiz-adv-x="942" d="M84 1083v273q117 135 367 135q197 0 302 -94.5t105 -274.5v-86q0 -108 -46.5 -168t-149.5 -100q-64 -25 -96.5 -41t-59 -40.5t-35 -55t-8.5 -78.5v-94h-70v102q0 45 7.5 76.5t21.5 55t43.5 44t63.5 36.5t92 38q90 34 130 84.5t40 146.5v76q0 153 -88 233.5t-254 80.5 q-204 0 -304 -109l-10 -240h-51zM385 0v319h84v-319h-84z" />
<glyph unicode="@" horiz-adv-x="1161" d="M84 264v441q0 176 28.5 291t93.5 181.5t156.5 92.5t231.5 26q243 0 363 -106.5t120 -353.5v-719h-43l-8 194q-107 -219 -305 -219q-80 0 -131 15.5t-80.5 52t-41 88t-11.5 131.5v205q0 76 11.5 124.5t41 83t80.5 49.5t131 15q98 0 171 -38.5t130 -125.5v146 q0 218 -104.5 311.5t-323.5 93.5q-128 0 -209.5 -23t-139 -83.5t-82 -164t-24.5 -265.5v-439q0 -132 25.5 -231.5t68.5 -161t107 -99.5t134 -52.5t157 -14.5q130 0 248 33l8 -51q-133 -35 -254 -35q-100 0 -179 16t-150.5 58t-118.5 109.5t-74 174.5t-27 250zM512 383 q0 -133 45.5 -186.5t177.5 -53.5q97 0 167 57t120 173v262q-53 92 -121.5 132t-161.5 40q-69 0 -113 -12.5t-69.5 -42t-35 -70t-9.5 -104.5v-195z" />
<glyph unicode="A" horiz-adv-x="1277" d="M31 0v47l151 10l371 1397h180l363 -1397l149 -10v-47h-389v47l154 10l-123 480h-516l-127 -480l157 -10v-47h-370zM385 590h489l-206 801h-68z" />
<glyph unicode="B" horiz-adv-x="1191" d="M84 0v47l160 10v1340l-160 10v47h666q179 0 261.5 -83.5t82.5 -256.5v-72q0 -281 -244 -301q270 -24 270 -315v-104q0 -322 -383 -322h-653zM322 57h403q167 0 242 71t75 206v84q0 146 -73.5 221.5t-214.5 75.5h-432v-658zM322 770h432q124 0 195 68t71 209v55 q0 151 -68 222t-217 71h-413v-625z" />
<glyph unicode="C" horiz-adv-x="1128" d="M84 578v299q0 176 30 292.5t99 188.5t173 102.5t261 30.5q119 0 227 -34.5t168 -102.5v-305h-55l-10 266q-51 58 -142 86.5t-192 28.5q-178 0 -281 -52.5t-150.5 -172t-47.5 -328.5v-299q0 -308 107 -431.5t372 -123.5q222 0 338 124l10 259h56v-295q-139 -148 -400 -148 q-209 0 -329 57t-177 190.5t-57 367.5z" />
<glyph unicode="D" horiz-adv-x="1245" d="M84 0v47l160 10v1340l-160 10v47h594q259 0 371 -126.5t112 -424.5v-352q0 -298 -112 -424.5t-371 -126.5h-594zM322 59h356q216 0 310.5 112t94.5 378v356q0 265 -94 377.5t-311 112.5h-356v-1336z" />
<glyph unicode="E" horiz-adv-x="1148" d="M84 0v47l160 10v1340l-160 10v47h960v-403h-51l-14 342h-657v-607h530l14 185h47v-432h-47l-14 190h-530v-666h669l15 386h51v-449h-973z" />
<glyph unicode="F" horiz-adv-x="1132" d="M84 0v47l160 10v1340l-160 10v47h973v-436h-51l-15 375h-669v-664h561l14 184h45v-438h-45l-14 195h-561v-613l196 -10v-47h-434z" />
<glyph unicode="G" horiz-adv-x="1177" d="M84 557v320q0 173 30.5 290t98 189t166.5 103.5t244 31.5q140 0 257 -34t179 -103v-305h-58l-8 266q-54 58 -153 86.5t-217 28.5q-165 0 -263.5 -52t-147 -173t-48.5 -328v-320q0 -280 101 -405t343 -125q147 0 255 40t147 85v557l-371 10v47h446v-647q-46 -52 -174 -104 t-301 -52q-285 0 -405.5 139t-120.5 455z" />
<glyph unicode="H" horiz-adv-x="1329" d="M84 0v47l160 10v1340l-160 10v47h395v-47l-160 -10v-629h689v629l-158 10v47h395v-47l-160 -10v-1340l160 -10v-47h-395v47l158 10v650h-689v-650l160 -10v-47h-395z" />
<glyph unicode="I" horiz-adv-x="565" d="M84 0v47l160 10v1340l-160 10v47h397v-47l-159 -10v-1340l159 -10v-47h-397z" />
<glyph unicode="J" horiz-adv-x="700" d="M-131 -311l6 71q85 -112 217 -112q163 0 231 109.5t68 322.5v1317l-180 8v49h405v-49l-147 -8v-1315q0 -248 -83 -376t-275 -128q-160 0 -242 111z" />
<glyph unicode="K" horiz-adv-x="1261" d="M84 0v49l160 8v1340l-160 8v49h395v-49l-157 -8v-602l630 602l-151 8v49h385v-49l-162 -10l-631 -600l664 -738l170 -12v-45h-219l-686 770v-713l157 -8v-49h-395z" />
<glyph unicode="L" horiz-adv-x="1085" d="M84 0v49l160 8v1340l-160 8v49h414v-49l-176 -8v-1334h618l10 510h56v-573h-922z" />
<glyph unicode="M" horiz-adv-x="1724" d="M84 0v49l160 8v1340l-160 8v49h293l489 -1364l504 1364h270v-49l-159 -8v-1340l159 -8v-49h-385v49l158 8v1332l-514 -1389h-86l-504 1386v-1329l158 -8v-49h-383z" />
<glyph unicode="N" horiz-adv-x="1323" d="M84 0v49l160 8v1340l-160 8v49h256l707 -1321v1264l-158 8v49h371v-49l-150 -8v-1397h-70l-733 1346v-1289l170 -8v-49h-393z" />
<glyph unicode="O" d="M84 582v290q0 320 128.5 469.5t399.5 149.5q270 0 398.5 -149.5t128.5 -469.5v-290q0 -320 -128.5 -469.5t-398.5 -149.5q-271 0 -399.5 149.5t-128.5 469.5zM164 582q0 -293 108 -425t340 -132q231 0 340 132.5t109 424.5v290q0 291 -109 424.5t-340 133.5 q-232 0 -340 -133t-108 -425v-290z" />
<glyph unicode="P" horiz-adv-x="1163" d="M84 0v49l160 8v1340l-160 8v49h631q206 0 293.5 -107.5t87.5 -353.5q0 -247 -87.5 -355t-293.5 -108h-393v-473l178 -8v-49h-416zM322 584h383q170 0 242.5 94.5t72.5 312.5q0 216 -72.5 310t-242.5 94h-383v-811z" />
<glyph unicode="Q" horiz-adv-x="1228" d="M84 600v274q0 318 129 467.5t399 149.5t400.5 -149.5t130.5 -467.5v-274q0 -274 -95.5 -420t-293.5 -178q22 -158 86 -232.5t145 -74.5q85 0 139 78v-60q-27 -37 -70.5 -56t-90.5 -19q-99 0 -176 84t-103 268q-159 0 -267 28.5t-185 98t-112.5 188t-35.5 295.5zM162 602 q0 -289 109.5 -422t340.5 -133q232 0 342.5 133t110.5 422v270q0 291 -110.5 424.5t-342.5 133.5q-231 0 -340.5 -133.5t-109.5 -424.5v-270z" />
<glyph unicode="R" horiz-adv-x="1282" d="M84 0v49l160 8v1340l-160 8v49h664q180 0 261 -83t81 -257v-72q0 -295 -230 -305q118 -8 172.5 -70t54.5 -218v-392l154 -8v-49h-178q-53 0 -53 55v418q0 128 -56.5 182t-187.5 54h-444v-652l159 -8v-49h-397zM322 764h442q131 0 190.5 63.5t59.5 210.5v60q0 153 -66 224 t-215 71h-411v-629z" />
<glyph unicode="S" horiz-adv-x="1126" d="M86 1067v33q0 112 35.5 190.5t103 121.5t149 61t189.5 18q287 0 420 -137v-305h-57l-11 274q-116 111 -352 111q-401 0 -401 -304v-57q0 -92 33.5 -148t107.5 -94q92 -49 283 -71q105 -12 171.5 -25.5t129.5 -40.5q147 -62 147 -276v-45q0 -115 -37.5 -197t-107.5 -127.5 t-156 -65.5t-196 -20q-271 0 -443 143v300h56l10 -263q145 -118 375 -118q96 0 170 17.5t132.5 56t89.5 106.5t31 164v41q0 87 -25.5 138t-86.5 81q-28 15 -72 26.5t-80.5 17.5t-115.5 17q-217 31 -312 74q-90 40 -135 111t-45 192z" />
<glyph unicode="T" horiz-adv-x="1175" d="M63 881v573h1049v-573h-53l-12 512h-420v-1336l178 -8v-49h-436v49l178 8v1336h-418l-12 -512h-54z" />
<glyph unicode="U" horiz-adv-x="1421" d="M61 1405v49h379v-49l-157 -8v-910q0 -255 93 -356.5t335 -101.5q136 0 220.5 23.5t132.5 81.5t65.5 139.5t17.5 213.5v910l-158 8v49h369v-49l-139 -8v-903q0 -102 -8 -174t-29.5 -134.5t-57.5 -102t-93.5 -68t-137 -40.5t-188.5 -12q-146 0 -241.5 28t-154 93.5 t-82.5 163t-24 246.5v903z" />
<glyph unicode="V" horiz-adv-x="1191" d="M31 1405v49h391v-49l-156 -8l332 -1317l342 1317l-154 8v49h373v-49l-151 -8l-371 -1397h-96l-359 1397z" />
<glyph unicode="W" horiz-adv-x="1712" d="M39 1405v49h389v-49l-154 -8l218 -1307l335 1364h80l318 -1364l225 1307l-154 8v49h377v-49l-153 -8l-248 -1397h-98l-314 1337l-330 -1337h-96l-244 1397z" />
<glyph unicode="X" horiz-adv-x="1220" d="M61 0v49l152 8l360 674l-354 666l-151 8v49h391v-49l-154 -8l316 -606l315 606l-156 8v49h373v-49l-152 -8l-352 -656l367 -684l149 -8v-49h-387v49l154 8l-328 627l-325 -627l155 -8v-49h-373z" />
<glyph unicode="Y" horiz-adv-x="1159" d="M31 1405v49h385v-49l-156 -8l324 -701l331 701l-153 8v49h364v-49l-147 -8l-367 -764v-576l179 -8v-49h-435v49l179 8v576l-357 764z" />
<glyph unicode="Z" horiz-adv-x="1132" d="M86 0v76l848 1317h-776l-15 -512h-55v573h938v-57l-856 -1336h811l14 512h54v-573h-963z" />
<glyph unicode="[" horiz-adv-x="686" d="M217 -285v1860h410v-55h-342v-1749h342v-56h-410z" />
<glyph unicode="\" horiz-adv-x="681" d="M35 1454h67l545 -1673h-67z" />
<glyph unicode="]" horiz-adv-x="675" d="M59 -229h340v1749h-340v55h410v-1860h-410v56z" />
<glyph unicode="^" horiz-adv-x="720" d="M84 1036l256 418h45l252 -418h-64l-211 361l-215 -361h-63z" />
<glyph unicode="_" horiz-adv-x="899" d="M31 -188h841v-54h-841v54z" />
<glyph unicode="`" horiz-adv-x="514" d="M84 1569h78l268 -381h-55z" />
<glyph unicode="a" horiz-adv-x="1112" d="M66 285v92q0 147 76 218t241 71q295 0 475 -107v211q0 151 -72 211.5t-251 60.5q-246 0 -394 -106l-22 57q158 113 424 113q212 0 299.5 -74.5t87.5 -255.5v-682q0 -80 69 -80q62 0 84 60l9 -49q-27 -60 -107 -60q-39 0 -64 17t-37.5 51.5t-17 75t-4.5 100.5 q-56 -109 -171 -177.5t-288 -68.5q-337 0 -337 322zM137 289q0 -271 283 -271q300 0 438 248v246q-184 102 -452 102q-140 0 -204.5 -60t-64.5 -183v-82z" />
<glyph unicode="b" horiz-adv-x="1161" d="M0 1423v50h233v-613q63 121 183 183.5t268 62.5q211 0 304 -114t93 -349v-209q0 -248 -96 -359.5t-326 -111.5q-132 0 -254 57.5t-182 161.5l-16 -182h-47v1415zM233 244q50 -101 165.5 -159t240.5 -58q202 0 285.5 97.5t83.5 313.5v195q0 209 -81 310t-265 101 q-146 0 -263 -68.5t-166 -197.5v-534z" />
<glyph unicode="c" horiz-adv-x="1009" d="M76 426v236q0 204 114 324t338 120q265 0 387 -135v-273h-55l-10 240q-54 55 -140.5 82t-179.5 27q-188 0 -285.5 -104.5t-97.5 -283.5v-233q0 -190 105.5 -294.5t302.5 -104.5q113 0 207.5 54t152.5 163l33 -49q-61 -114 -166.5 -173t-230.5 -59q-231 0 -353 120.5 t-122 342.5z" />
<glyph unicode="d" horiz-adv-x="1218" d="M76 426v209q0 249 95.5 360t326.5 111q129 0 248.5 -54.5t177.5 -154.5v518l-160 8v50h233v-1416l160 -8v-49h-229v213q-65 -122 -186 -185t-269 -63q-210 0 -303.5 114t-93.5 347zM150 438q0 -209 80.5 -310t265.5 -101q146 0 262.5 68.5t165.5 197.5v534 q-50 101 -165.5 159t-240.5 58q-202 0 -285 -97.5t-83 -313.5v-195z" />
<glyph unicode="e" horiz-adv-x="1026" d="M80 451v159q0 257 100 376.5t338 119.5q130 0 215 -31.5t131.5 -100t64 -157.5t17.5 -223v-78h-794v-65q0 -197 98.5 -311.5t298.5 -114.5q100 0 167 21t106 55t83 96l31 -52q-98 -182 -395 -182q-118 0 -207.5 36t-144.5 102t-82 154t-27 196zM152 567h725 q0 84 -5 144.5t-19 118t-39 95.5t-64.5 67.5t-97 43t-134.5 13.5q-110 0 -182 -29t-112.5 -92.5t-56 -148.5t-15.5 -212z" />
<glyph unicode="f" horiz-adv-x="702" d="M49 1022v55h182v146q0 144 66.5 206t204.5 62q139 0 200 -41l-10 -53q-61 39 -172 39q-109 0 -162 -50t-53 -167v-142h354v-55h-354v-965l180 -8v-49h-413v49l159 8v965h-182z" />
<glyph unicode="g" horiz-adv-x="1089" d="M76 471v164q0 248 94.5 358.5t327.5 110.5q134 0 254.5 -55.5t179.5 -159.5l16 188h47v-1106q0 -246 -112 -354.5t-338 -108.5q-270 0 -400 136l25 59q131 -131 365 -131q198 0 292.5 95t94.5 313v274q-61 -121 -180.5 -183.5t-266.5 -62.5q-214 0 -306.5 114t-92.5 349z M147 471q0 -201 81.5 -302t265.5 -101q146 0 262.5 69t165.5 199v491q-49 101 -164.5 159t-239.5 58q-205 0 -288 -98t-83 -311v-164z" />
<glyph unicode="h" horiz-adv-x="1374" d="M72 0v49l159 8v1358l-159 8v50h233v-611q91 132 223.5 188t309.5 56q160 0 239.5 -67t79.5 -208v-774l158 -8v-49h-397v49l165 8v762q0 116 -67.5 170.5t-200.5 54.5q-168 0 -295 -57.5t-215 -193.5v-736l166 -8v-49h-399z" />
<glyph unicode="i" horiz-adv-x="526" d="M72 0v49l159 8v963l-159 8v49h233v-1020l160 -8v-49h-393zM227 1208v265h74v-265h-74z" />
<glyph unicode="j" horiz-adv-x="442" d="M-180 -399l8 61q67 -86 182 -86q128 0 182 90t54 262v1092l-176 8v49h249v-1149q0 -206 -67.5 -313t-218.5 -107q-145 0 -213 93zM242 1208v265h73v-265h-73z" />
<glyph unicode="k" horiz-adv-x="1105" d="M72 0v49l159 8v1358l-159 8v50h233v-920l504 467l-152 8v49h377v-49l-155 -8l-504 -457l543 -506l169 -8v-49h-221l-561 530v-473l137 -8v-49h-370z" />
<glyph unicode="l" horiz-adv-x="526" d="M72 0v49l159 8v1358l-159 8v50h233v-1416l160 -8v-49h-393z" />
<glyph unicode="m" horiz-adv-x="2019" d="M72 0v49l157 8v963l-157 8v49h221l6 -223q83 136 200 194t277 58q262 0 279 -232q84 126 197 179t266 53q143 0 213.5 -67t70.5 -208v-774l160 -8v-49h-389v49l158 8v762q0 117 -58.5 171t-177.5 54q-142 0 -250.5 -52.5t-183.5 -176.5v-758l156 -8v-49h-388v49l158 8 v762q0 117 -58.5 171t-176.5 54q-146 0 -258.5 -58t-190.5 -193v-736l166 -8v-49h-397z" />
<glyph unicode="n" horiz-adv-x="1374" d="M72 0v49l159 8v963l-159 8v49h221l8 -223q93 135 225.5 193.5t311.5 58.5q160 0 239.5 -67t79.5 -208v-774l158 -8v-49h-397v49l165 8v762q0 116 -67.5 170.5t-200.5 54.5q-168 0 -295 -57.5t-215 -193.5v-736l166 -8v-49h-399z" />
<glyph unicode="o" horiz-adv-x="1056" d="M76 426v219q0 240 107.5 350.5t344.5 110.5t345 -110.5t108 -350.5v-219q0 -242 -108 -352.5t-345 -110.5t-344.5 110.5t-107.5 352.5zM147 430q0 -215 90 -311t291 -96t291 96t90 311v211q0 214 -90 310t-291 96t-291 -96t-90 -310v-211z" />
<glyph unicode="p" horiz-adv-x="1216" d="M59 -418l160 8v1430l-160 8v49h224l6 -221q65 124 185.5 187t268.5 63q211 0 304.5 -114t93.5 -347v-209q0 -249 -95.5 -361t-326.5 -112q-128 0 -247.5 55t-178.5 156v-584l180 -8v-49h-414v49zM293 242q52 -102 166 -159.5t239 -57.5q203 0 286 96.5t83 312.5v203 q0 205 -81.5 305t-264.5 100q-146 0 -262.5 -68.5t-165.5 -197.5v-534z" />
<glyph unicode="q" horiz-adv-x="1122" d="M80 426v209q0 250 95 360.5t327 110.5q132 0 253 -56.5t183 -160.5l16 188h47v-1487l158 -8v-49h-411v49l180 8v621q-64 -121 -185 -184.5t-268 -63.5q-209 0 -302 115t-93 348zM152 436q0 -209 81.5 -310t266.5 -101q145 0 261 68.5t167 197.5v534q-52 102 -167.5 160.5 t-238.5 58.5q-203 0 -286.5 -97.5t-83.5 -313.5v-197z" />
<glyph unicode="r" horiz-adv-x="874" d="M72 0v49l159 8v963l-159 8v49h221l8 -223q82 127 211 189.5t285 62.5q40 0 67 -6l-10 -70q-35 6 -70 6q-68 0 -132.5 -14t-127 -43t-119.5 -79t-100 -118v-725l170 -8v-49h-403z" />
<glyph unicode="s" horiz-adv-x="1003" d="M80 788v43q0 79 36 135.5t99.5 85.5t134.5 41.5t158 12.5q128 0 219.5 -18t155.5 -72v-279h-54l-12 244q-55 43 -128 56.5t-181 13.5q-361 0 -361 -220v-36q0 -70 29 -113t105 -72q19 -7 40 -13t53.5 -11.5t46.5 -8t61 -9t55 -7.5q9 -1 57.5 -8t67 -10.5t54 -11 t62.5 -17.5q82 -28 118 -80t36 -141v-39q0 -81 -35 -139.5t-99 -90.5t-141 -46.5t-172 -14.5q-236 0 -397 109v280h57l11 -243q133 -89 325 -89q66 0 119.5 6.5t103.5 22.5t84 42.5t54 68t20 96.5v33q0 128 -104 164q-73 26 -232 45q-200 24 -282 55q-82 30 -123 85.5 t-41 149.5z" />
<glyph unicode="t" horiz-adv-x="700" d="M41 1022v55h113v238l71 12v-250h426v-55h-426v-672q0 -163 57 -244t187 -81q117 0 188 92l9 -58q-69 -96 -217 -96q-156 0 -225.5 100t-69.5 289v670h-113z" />
<glyph unicode="u" horiz-adv-x="1255" d="M53 1028v49h371v-49l-158 -8v-688q0 -162 90 -234.5t281 -72.5t276.5 72.5t85.5 234.5v688l-159 8v49h362v-49l-137 -8v-688q0 -195 -103 -282t-327 -87q-227 0 -334.5 87.5t-107.5 281.5v688z" />
<glyph unicode="v" horiz-adv-x="1136" d="M29 1028v49h381v-49l-152 -8l315 -961l324 961l-154 8v49h365v-49l-147 -8l-347 -1020h-96l-340 1020z" />
<glyph unicode="w" horiz-adv-x="1587" d="M33 1028v49h377v-49l-152 -8l205 -957l301 1014h80l305 -1014l190 957l-149 8v49h364v-49l-151 -8l-205 -1020h-98l-301 995l-297 -995h-96l-224 1020z" />
<glyph unicode="x" horiz-adv-x="1128" d="M49 0v49l146 8l327 490l-315 473l-146 8v49h385v-49l-155 -8l278 -434l279 434l-154 8v49h367v-49l-146 -8l-311 -469l328 -494l145 -8v-49h-383v49l154 8l-293 453l-293 -453l154 -8v-49h-367z" />
<glyph unicode="y" horiz-adv-x="1132" d="M27 1028v49h379v-49l-152 -8l315 -954l322 954l-152 8v49h365v-49l-150 -8l-409 -1200q-57 -167 -127.5 -235t-186.5 -68q-125 0 -202 84l20 59q81 -78 180 -78q85 0 141.5 51.5t106.5 196.5l51 152l-352 1038z" />
<glyph unicode="z" horiz-adv-x="1050" d="M82 0v61l768 963h-705l-10 -319h-51v372h862v-45l-778 -977h735l12 369h54v-424h-887z" />
<glyph unicode="{" horiz-adv-x="700" d="M117 618v56q88 0 122.5 49t34.5 170q0 25 -6 176t-6 180q0 52 2.5 88.5t10 73.5t21.5 61t36.5 45.5t55.5 33.5t78 19t105 7h47v-53h-47q-54 0 -93.5 -7t-66 -23t-43 -35.5t-25 -53t-11 -67t-2.5 -83.5q0 -43 5 -189.5t5 -195.5q0 -97 -36 -155t-103 -68q68 -12 103.5 -69 t35.5 -154q0 -44 -5 -193t-5 -196q0 -51 2.5 -84t11 -66.5t25 -53t43 -35.5t65.5 -22.5t94 -6.5h47v-54h-47q-83 0 -139 13.5t-90 36.5t-51.5 66.5t-23 90t-5.5 121.5q0 30 6 183t6 179q0 121 -34 168t-123 47z" />
<glyph unicode="|" horiz-adv-x="456" d="M197 -274v1888h61v-1888h-61z" />
<glyph unicode="}" horiz-adv-x="702" d="M80 -233h47q65 0 109 11t70.5 29.5t40.5 54.5t18 74t4 99q0 47 -5.5 196t-5.5 193q0 96 36 153.5t104 69.5q-67 10 -103.5 68t-36.5 155q0 49 5.5 195.5t5.5 189.5q0 61 -4 99t-18 74t-40.5 54.5t-70.5 30t-109 11.5h-47v53h47q83 0 139.5 -13.5t90.5 -37t52 -67 t23.5 -90t5.5 -120.5q0 -29 -7 -180t-7 -176q0 -121 34.5 -170t123.5 -49v-56q-89 0 -123.5 -47.5t-34.5 -167.5q0 -26 7 -179t7 -183q0 -75 -5.5 -121.5t-23.5 -90t-52 -66.5t-90.5 -36.5t-139.5 -13.5h-47v54z" />
<glyph unicode="~" horiz-adv-x="1286" d="M127 578v73q118 135 272 135q62 0 128 -22t113 -48.5t106.5 -48.5t111.5 -22q89 0 161 35t138 115v-72q-63 -72 -135.5 -103.5t-169.5 -31.5q-56 0 -117 22t-107 48.5t-108.5 48.5t-120.5 22q-84 0 -149 -37.5t-123 -113.5z" />
<glyph unicode="&#xa1;" horiz-adv-x="274" d="M84 119q0 310 29 887h49q28 -501 28 -887q0 -90 -4 -119h-98q-4 66 -4 119zM96 1135v319h84v-319h-84z" />
<glyph unicode="&#xa2;" horiz-adv-x="985" d="M84 621v235q0 199 97 314.5t315 129.5v154h61v-156q212 -10 322 -133v-272h-56l-8 242q-109 106 -299 106q-360 0 -360 -385v-235q0 -191 95 -294.5t290 -103.5q227 0 340 215l32 -49q-117 -220 -356 -229v-160h-61v160q-208 9 -310 127.5t-102 333.5z" />
<glyph unicode="&#xa3;" horiz-adv-x="1067" d="M41 10v70q31 -49 129 -49q68 0 119 26t79.5 70t42 94.5t13.5 106.5q0 147 -76 288h-250v54h224q-17 30 -48.5 77t-50.5 79t-40.5 76.5t-31.5 96t-10 111.5v45q0 152 107 244t301 92q247 0 364 -135v-273h-53l-8 240q-100 109 -303 109q-161 0 -250.5 -77t-89.5 -204v-37 q0 -59 9.5 -110.5t32.5 -100t39 -77.5t52 -82t49 -74h524v-54h-499q76 -141 76 -292q0 -103 -43 -185q50 -53 140.5 -83.5t160.5 -30.5q90 0 148.5 48t94.5 154v-94q-64 -170 -250 -170q-72 0 -167.5 35t-153.5 90q-81 -125 -240 -125q-103 0 -141 47z" />
<glyph unicode="&#xa4;" horiz-adv-x="1038" d="M84 332l133 131q-98 112 -98 262q0 146 98 262l-131 131l41 41l129 -131q116 98 262 98q148 0 262 -100l131 133l41 -41l-133 -133q101 -119 101 -260q0 -143 -101 -262l135 -131l-43 -43l-131 135q-116 -98 -262 -98q-151 0 -260 98l-133 -135zM172 725 q0 -143 101 -243.5t245 -100.5t245 100.5t101 243.5q0 145 -100.5 246.5t-245.5 101.5t-245.5 -101.5t-100.5 -246.5z" />
<glyph unicode="&#xa5;" horiz-adv-x="1200" d="M70 1405v49h383v-49l-154 -8l305 -697l316 697l-154 8v49h364v-49l-147 -8l-334 -721h350v-49h-366v-297h366v-51h-366v-279h-78v279h-371v51h371v297h-371v49h353l-320 721z" />
<glyph unicode="&#xa6;" horiz-adv-x="727" d="M330 -274v815h61v-815h-61zM330 870v744h61v-744h-61z" />
<glyph unicode="&#xa7;" horiz-adv-x="1028" d="M80 1174v26q0 291 428 291q128 0 219.5 -18t155.5 -72v-279h-52l-10 244q-55 42 -130.5 56t-180.5 14q-60 0 -109 -5t-98 -19.5t-82 -38.5t-53.5 -63.5t-20.5 -92.5v-37q0 -33 5.5 -59.5t21 -47.5t30 -36t45.5 -27.5t52.5 -20.5t67.5 -17t74.5 -13.5t86.5 -12.5l101 -14 q162 -23 232.5 -79.5t70.5 -164.5v-158q0 -244 -289 -299q64 -13 106.5 -25t81.5 -31.5t61 -45.5t35 -64t13 -90v-26q0 -69 -23.5 -120.5t-62 -83t-95 -51.5t-115 -27t-130.5 -7q-129 0 -220.5 18t-154.5 72v277h52l10 -242q54 -43 128.5 -56.5t182.5 -13.5q363 0 363 217 v37q0 51 -18 88t-46 60.5t-80.5 40.5t-104.5 26t-134 19q-90 11 -151 23.5t-112.5 31.5t-80.5 46t-44.5 65.5t-15.5 91.5v157q0 242 289 297q-80 15 -131.5 32t-91.5 46.5t-58 73t-18 107.5zM160 469q0 -102 87 -153.5t285 -51.5q94 0 167 25.5t119 82.5t46 140v166 q0 205 -352 205q-73 0 -134.5 -14t-111.5 -43.5t-78 -80.5t-28 -120v-156z" />
<glyph unicode="&#xa8;" horiz-adv-x="690" d="M84 1208v265h74v-265h-74zM532 1208v265h74v-265h-74z" />
<glyph unicode="&#xaa;" horiz-adv-x="735" d="M94 770v51q0 81 41.5 120.5t132.5 39.5q150 0 242 -53v106q0 71 -37 101t-123 30q-125 0 -205 -57l-22 53q92 62 237 62q119 0 168.5 -41.5t49.5 -141.5v-356q0 -43 36 -43q30 0 41 27l7 -41q-17 -31 -64 -31q-43 0 -62.5 30t-19.5 93q-30 -55 -91 -90t-149 -35 q-95 0 -138.5 47t-43.5 129zM162 776q0 -64 30.5 -97.5t102.5 -33.5q144 0 215 115v129q-85 47 -219 47q-68 0 -98.5 -30t-30.5 -91v-39z" />
<glyph unicode="&#xab;" horiz-adv-x="913" d="M63 662v57l330 350v-68l-291 -311l291 -311v-68zM520 662v57l330 350v-68l-291 -311l291 -311v-68z" />
<glyph unicode="&#xac;" horiz-adv-x="1263" d="M84 1008v69h1096v-1077h-70v1008h-1026z" />
<glyph unicode="&#xad;" horiz-adv-x="643" d="M68 641v61h507v-61h-507z" />
<glyph unicode="&#xaf;" horiz-adv-x="827" d="M84 1268v55h659v-55h-659z" />
<glyph unicode="&#xb0;" horiz-adv-x="778" d="M84 1126q0 156 75 251.5t230 95.5t230 -95.5t75 -251.5q0 -155 -75.5 -251.5t-229.5 -96.5t-229.5 96.5t-75.5 251.5zM137 1126q0 -132 62 -214.5t190 -82.5t190 82.5t62 214.5t-62 213.5t-190 81.5t-190 -81.5t-62 -213.5z" />
<glyph unicode="&#xb1;" horiz-adv-x="1224" d="M127 111v59h969v-59h-969zM127 725v59h455v455h59v-455h455v-59h-455v-457h-59v457h-455z" />
<glyph unicode="&#xb2;" horiz-adv-x="595" d="M70 1432q99 61 233 61q106 0 164.5 -53t58.5 -160q0 -57 -23.5 -113.5t-55.5 -100t-89 -95.5t-100.5 -85t-112.5 -83h332l8 133h47v-188h-460v61q44 30 71.5 49.5t73.5 54.5t76 62.5t65.5 66.5t56.5 73.5t35.5 76.5t14.5 82q0 77 -48.5 119.5t-127.5 42.5 q-107 0 -201 -60z" />
<glyph unicode="&#xb3;" horiz-adv-x="569" d="M61 762l15 53q75 -33 172 -33q89 0 141.5 40.5t52.5 123.5q0 75 -41.5 113.5t-117.5 38.5h-82v49h82q147 0 147 137q0 74 -45.5 114t-132.5 40q-95 0 -174 -52l-17 52q80 55 199 55q115 0 171 -51.5t56 -145.5q0 -70 -35 -114.5t-98 -55.5q71 -11 109.5 -59t38.5 -127 q0 -106 -66.5 -158.5t-181.5 -52.5q-112 0 -193 33z" />
<glyph unicode="&#xb4;" horiz-adv-x="514" d="M84 1188l266 381h80l-293 -381h-53z" />
<glyph unicode="&#xb5;" horiz-adv-x="1316" d="M53 -418l158 8v1430l-139 8v49h370v-49l-157 -8v-778q52 -101 166.5 -159t238.5 -58q203 0 287 97.5t84 311.5v586l-158 8v49h363v-49l-140 -8v-584q0 -127 -20.5 -213t-68.5 -145t-127.5 -86t-198.5 -27q-129 0 -248.5 54.5t-177.5 154.5v-584l180 -8v-49h-412v49z" />
<glyph unicode="&#xb6;" horiz-adv-x="997" d="M53 1174q0 280 226 280h665v-47l-86 -8v-1739h-59v1737h-346v-1737h-62v1229h-110q-228 0 -228 285z" />
<glyph unicode="&#xb7;" horiz-adv-x="272" d="M94 532v332h84v-332h-84z" />
<glyph unicode="&#xb8;" horiz-adv-x="311" d="M90 -469q62 101 70 203h-33v196h72v-192q0 -103 -80 -230z" />
<glyph unicode="&#xb9;" horiz-adv-x="366" d="M53 1358q74 55 125 117h45v-680l74 -9v-38h-215v38l80 9v591q-33 -36 -78 -69z" />
<glyph unicode="&#xba;" horiz-adv-x="706" d="M100 848v121q0 132 60 193t192 61q133 0 193.5 -61t60.5 -193v-121q0 -132 -60.5 -193t-193.5 -61q-132 0 -192 61t-60 193zM168 852q0 -109 43 -156t141 -47q100 0 143.5 47t43.5 156v113q0 107 -43.5 154.5t-143.5 47.5q-98 0 -141 -47.5t-43 -154.5v-113z" />
<glyph unicode="&#xbb;" horiz-adv-x="913" d="M63 311v68l291 311l-291 311v68l330 -350v-57zM520 311v68l291 311l-291 311v68l330 -350v-57z" />
<glyph unicode="&#xbc;" horiz-adv-x="1267" d="M84 -43l897 1542h63l-897 -1542h-63zM111 1358q74 55 125 117h45v-680l73 -9v-38h-215v38l80 9v591q-33 -36 -78 -69zM686 115v57q84 119 157 269.5t107 273.5l56 -19q-33 -119 -107 -269t-149 -261h317v305h59v-305h64v-51h-64v-135h-61v135h-379z" />
<glyph unicode="&#xbd;" horiz-adv-x="1257" d="M84 -43l897 1542h63l-897 -1542h-63zM111 1358q74 55 125 117h45v-680l73 -9v-38h-215v38l80 9v591q-33 -36 -78 -69zM717 664q99 61 233 61q106 0 165 -53t59 -160q0 -57 -23.5 -113.5t-55.5 -100t-89 -95.5t-100.5 -85t-112.5 -83h331l9 133h47v-188h-461v61 q44 30 71.5 49.5t73.5 54.5t76 62.5t65.5 66.5t56.5 73.5t35.5 76.5t14.5 82q0 77 -48.5 119.5t-127.5 42.5q-107 0 -201 -60z" />
<glyph unicode="&#xbe;" horiz-adv-x="1265" d="M78 762l14 53q75 -33 172 -33q89 0 142 40.5t53 123.5q0 75 -42 113.5t-118 38.5h-82v49h82q147 0 147 137q0 74 -45.5 114t-132.5 40q-95 0 -174 -52l-16 52q80 55 198 55q115 0 171.5 -51.5t56.5 -145.5q0 -70 -35 -114.5t-98 -55.5q71 -11 109 -59t38 -127 q0 -106 -66.5 -158.5t-181.5 -52.5q-111 0 -192 33zM123 -43l897 1542h63l-897 -1542h-63zM684 115v57q84 119 157 269.5t107 273.5l56 -19q-33 -119 -107 -269t-149 -261h317v305h59v-305h64v-51h-64v-135h-61v135h-379z" />
<glyph unicode="&#xbf;" horiz-adv-x="942" d="M84 332v86q0 108 47 168t150 100q63 25 96 41t59 40.5t34.5 55t8.5 78.5v94h70v-102q0 -56 -9.5 -91.5t-39 -63.5t-67.5 -47.5t-111 -47.5q-90 -34 -130 -84.5t-40 -146.5v-76q0 -153 88 -233t254 -80q204 0 303 108l10 240h51v-273q-117 -135 -366 -135 q-197 0 -302.5 95t-105.5 274zM473 1135v319h84v-319h-84z" />
<glyph unicode="&#xc0;" horiz-adv-x="1277" d="M31 0v47l151 10l371 1397h180l363 -1397l149 -10v-47h-389v47l154 10l-123 480h-516l-127 -480l157 -10v-47h-370zM385 590h489l-206 801h-68zM403 1946h78l269 -381h-56z" />
<glyph unicode="&#xc1;" horiz-adv-x="1277" d="M31 0v47l151 10l371 1397h180l363 -1397l149 -10v-47h-389v47l154 10l-123 480h-516l-127 -480l157 -10v-47h-370zM385 590h489l-206 801h-68zM526 1565l267 381h79l-292 -381h-54z" />
<glyph unicode="&#xc2;" horiz-adv-x="1277" d="M31 0v47l151 10l371 1397h180l363 -1397l149 -10v-47h-389v47l154 10l-123 480h-516l-127 -480l157 -10v-47h-370zM258 1563l352 360h58l350 -360h-68l-311 321l-313 -321h-68zM385 590h489l-206 801h-68z" />
<glyph unicode="&#xc3;" horiz-adv-x="1277" d="M31 0v47l151 10l371 1397h180l363 -1397l149 -10v-47h-389v47l154 10l-123 480h-516l-127 -480l157 -10v-47h-370zM303 1620v63q67 89 178 89q42 0 85.5 -16.5t74.5 -36t74 -36t84 -16.5q99 0 176 100v-63q-65 -86 -178 -86q-54 0 -108.5 26t-107.5 52t-102 26 q-55 0 -96 -26t-80 -76zM385 590h489l-206 801h-68z" />
<glyph unicode="&#xc4;" horiz-adv-x="1277" d="M31 0v47l151 10l371 1397h180l363 -1397l149 -10v-47h-389v47l154 10l-123 480h-516l-127 -480l157 -10v-47h-370zM377 1585v264h74v-264h-74zM385 590h489l-206 801h-68zM825 1585v264h74v-264h-74z" />
<glyph unicode="&#xc5;" horiz-adv-x="1277" d="M31 0v47l151 10l371 1397h180l363 -1397l149 -10v-47h-389v47l154 10l-123 480h-516l-127 -480l157 -10v-47h-370zM385 590h489l-206 801h-68zM424 1735q0 103 54 157t161 54q111 0 162 -53.5t51 -157.5q0 -106 -50.5 -157.5t-162.5 -51.5q-215 0 -215 209zM473 1735 q0 -164 166 -164q86 0 125 40.5t39 123.5q0 166 -164 166q-82 0 -124 -43t-42 -123z" />
<glyph unicode="&#xc6;" horiz-adv-x="1802" d="M31 0v47l151 10l365 1397h1149v-403h-51l-15 342h-639v-609h514l13 187h45v-432h-45l-13 188h-514v-666h649l17 388h51v-449h-954v47l159 10v480h-526l-125 -480l156 -10v-47h-387zM401 590h512v803h-301z" />
<glyph unicode="&#xc7;" horiz-adv-x="1128" d="M84 578v299q0 176 30 292.5t99 188.5t173 102.5t261 30.5q119 0 227 -34.5t168 -102.5v-305h-55l-10 266q-51 58 -142 86.5t-192 28.5q-178 0 -281 -52.5t-150.5 -172t-47.5 -328.5v-299q0 -308 107 -431.5t372 -123.5q222 0 338 124l10 259h56v-295q-139 -148 -400 -148 q-209 0 -329 57t-177 190.5t-57 367.5zM541 -469q60 100 69 203h-32v196h71v-192q0 -103 -80 -230z" />
<glyph unicode="&#xc8;" horiz-adv-x="1148" d="M84 0v47l160 10v1340l-160 10v47h960v-403h-51l-14 342h-657v-607h530l14 185h47v-432h-47l-14 190h-530v-666h669l15 386h51v-449h-973zM381 1946h78l268 -381h-55z" />
<glyph unicode="&#xc9;" horiz-adv-x="1148" d="M84 0v47l160 10v1340l-160 10v47h960v-403h-51l-14 342h-657v-607h530l14 185h47v-432h-47l-14 190h-530v-666h669l15 386h51v-449h-973zM504 1565l266 381h80l-293 -381h-53z" />
<glyph unicode="&#xca;" horiz-adv-x="1148" d="M84 0v47l160 10v1340l-160 10v47h960v-403h-51l-14 342h-657v-607h530l14 185h47v-432h-47l-14 190h-530v-666h669l15 386h51v-449h-973zM215 1563l352 360h58l350 -360h-68l-311 321l-313 -321h-68z" />
<glyph unicode="&#xcb;" horiz-adv-x="1148" d="M84 0v47l160 10v1340l-160 10v47h960v-403h-51l-14 342h-657v-607h530l14 185h47v-432h-47l-14 190h-530v-666h669l15 386h51v-449h-973zM354 1585v264h74v-264h-74zM803 1585v264h74v-264h-74z" />
<glyph unicode="&#xcc;" horiz-adv-x="565" d="M49 1946h78l268 -381h-55zM84 0v47l160 10v1340l-160 10v47h397v-47l-159 -10v-1340l159 -10v-47h-397z" />
<glyph unicode="&#xcd;" horiz-adv-x="565" d="M84 0v47l160 10v1340l-160 10v47h397v-47l-159 -10v-1340l159 -10v-47h-397zM170 1565l266 381h80l-293 -381h-53z" />
<glyph unicode="&#xce;" horiz-adv-x="565" d="M-96 1563l352 360h57l351 -360h-68l-311 321l-314 -321h-67zM84 0v47l160 10v1340l-160 10v47h397v-47l-159 -10v-1340l159 -10v-47h-397z" />
<glyph unicode="&#xcf;" horiz-adv-x="565" d="M23 1585v264h73v-264h-73zM84 0v47l160 10v1340l-160 10v47h397v-47l-159 -10v-1340l159 -10v-47h-397zM471 1585v264h74v-264h-74z" />
<glyph unicode="&#xd0;" horiz-adv-x="1245" d="M84 0v47l160 10v672h-160v57h160v611l-160 10v47h594q259 0 371 -126.5t112 -424.5v-352q0 -298 -112 -424.5t-371 -126.5h-594zM322 59h356q217 0 311 112.5t94 377.5v344q0 273 -94 387.5t-311 114.5h-356v-609h362v-57h-362v-670z" />
<glyph unicode="&#xd1;" horiz-adv-x="1323" d="M84 0v49l160 8v1340l-160 8v49h256l707 -1321v1264l-158 8v49h371v-49l-150 -8v-1397h-70l-733 1346v-1289l170 -8v-49h-393zM326 1620v63q67 89 178 89q42 0 85 -16.5t74 -36t74 -36t84 -16.5q99 0 176 100v-63q-65 -86 -178 -86q-43 0 -87 16t-75 36t-73 36t-82 16 q-55 0 -96 -26t-80 -76z" />
<glyph unicode="&#xd2;" d="M84 582v290q0 320 128.5 469.5t399.5 149.5q270 0 398.5 -149.5t128.5 -469.5v-290q0 -320 -128.5 -469.5t-398.5 -149.5q-271 0 -399.5 149.5t-128.5 469.5zM164 582q0 -293 108 -425t340 -132q231 0 340 132.5t109 424.5v290q0 291 -109 424.5t-340 133.5 q-232 0 -340 -133t-108 -425v-290zM377 1946h78l268 -381h-55z" />
<glyph unicode="&#xd3;" d="M84 582v290q0 320 128.5 469.5t399.5 149.5q270 0 398.5 -149.5t128.5 -469.5v-290q0 -320 -128.5 -469.5t-398.5 -149.5q-271 0 -399.5 149.5t-128.5 469.5zM164 582q0 -293 108 -425t340 -132q231 0 340 132.5t109 424.5v290q0 291 -109 424.5t-340 133.5 q-232 0 -340 -133t-108 -425v-290zM500 1565l266 381h80l-293 -381h-53z" />
<glyph unicode="&#xd4;" d="M84 582v290q0 320 128.5 469.5t399.5 149.5q270 0 398.5 -149.5t128.5 -469.5v-290q0 -320 -128.5 -469.5t-398.5 -149.5q-271 0 -399.5 149.5t-128.5 469.5zM164 582q0 -293 108 -425t340 -132q231 0 340 132.5t109 424.5v290q0 291 -109 424.5t-340 133.5 q-232 0 -340 -133t-108 -425v-290zM231 1563l353 360h57l350 -360h-67l-312 321l-313 -321h-68z" />
<glyph unicode="&#xd5;" d="M84 582v290q0 320 128.5 469.5t399.5 149.5q270 0 398.5 -149.5t128.5 -469.5v-290q0 -320 -128.5 -469.5t-398.5 -149.5q-271 0 -399.5 149.5t-128.5 469.5zM164 582q0 -293 108 -425t340 -132q231 0 340 132.5t109 424.5v290q0 291 -109 424.5t-340 133.5 q-232 0 -340 -133t-108 -425v-290zM274 1620v63q67 89 179 89q42 0 85 -16.5t74 -36t74 -36t84 -16.5q99 0 176 100v-63q-65 -86 -178 -86q-43 0 -87 16t-75 36t-73 36t-82 16q-55 0 -97 -26t-80 -76z" />
<glyph unicode="&#xd6;" d="M84 582v290q0 320 128.5 469.5t399.5 149.5q270 0 398.5 -149.5t128.5 -469.5v-290q0 -320 -128.5 -469.5t-398.5 -149.5q-271 0 -399.5 149.5t-128.5 469.5zM164 582q0 -293 108 -425t340 -132q231 0 340 132.5t109 424.5v290q0 291 -109 424.5t-340 133.5 q-232 0 -340 -133t-108 -425v-290zM350 1585v264h74v-264h-74zM799 1585v264h73v-264h-73z" />
<glyph unicode="&#xd7;" horiz-adv-x="1239" d="M252 430l323 326l-321 319l41 41l321 -319l322 319l41 -41l-322 -319l324 -326l-41 -41l-324 324l-323 -324z" />
<glyph unicode="&#xd8;" d="M84 -154l141 252q-141 147 -141 484v290q0 320 128.5 469.5t399.5 149.5q213 0 338 -94l119 211h70l-142 -252q142 -151 142 -484v-290q0 -320 -128.5 -469.5t-398.5 -149.5q-217 0 -342 94l-118 -211h-68zM164 582q0 -282 100 -414l651 1165q-106 97 -303 97 q-232 0 -340 -133t-108 -425v-290zM305 121q108 -96 307 -96q231 0 340 132.5t109 424.5v290q0 282 -103 414z" />
<glyph unicode="&#xd9;" horiz-adv-x="1421" d="M61 1405v49h379v-49l-157 -8v-910q0 -255 93 -356.5t335 -101.5q136 0 220.5 23.5t132.5 81.5t65.5 139.5t17.5 213.5v910l-158 8v49h369v-49l-139 -8v-903q0 -102 -8 -174t-29.5 -134.5t-57.5 -102t-93.5 -68t-137 -40.5t-188.5 -12q-146 0 -241.5 28t-154 93.5 t-82.5 163t-24 246.5v903zM475 1946h78l268 -381h-55z" />
<glyph unicode="&#xda;" horiz-adv-x="1421" d="M61 1405v49h379v-49l-157 -8v-910q0 -255 93 -356.5t335 -101.5q136 0 220.5 23.5t132.5 81.5t65.5 139.5t17.5 213.5v910l-158 8v49h369v-49l-139 -8v-903q0 -102 -8 -174t-29.5 -134.5t-57.5 -102t-93.5 -68t-137 -40.5t-188.5 -12q-146 0 -241.5 28t-154 93.5 t-82.5 163t-24 246.5v903zM598 1565l266 381h80l-293 -381h-53z" />
<glyph unicode="&#xdb;" horiz-adv-x="1421" d="M61 1405v49h379v-49l-157 -8v-910q0 -255 93 -356.5t335 -101.5q136 0 220.5 23.5t132.5 81.5t65.5 139.5t17.5 213.5v910l-158 8v49h369v-49l-139 -8v-903q0 -102 -8 -174t-29.5 -134.5t-57.5 -102t-93.5 -68t-137 -40.5t-188.5 -12q-146 0 -241.5 28t-154 93.5 t-82.5 163t-24 246.5v903zM330 1563l352 360h57l351 -360h-68l-311 321l-314 -321h-67z" />
<glyph unicode="&#xdc;" horiz-adv-x="1421" d="M61 1405v49h379v-49l-157 -8v-910q0 -255 93 -356.5t335 -101.5q136 0 220.5 23.5t132.5 81.5t65.5 139.5t17.5 213.5v910l-158 8v49h369v-49l-139 -8v-903q0 -102 -8 -174t-29.5 -134.5t-57.5 -102t-93.5 -68t-137 -40.5t-188.5 -12q-146 0 -241.5 28t-154 93.5 t-82.5 163t-24 246.5v903zM449 1585v264h73v-264h-73zM897 1585v264h74v-264h-74z" />
<glyph unicode="&#xdd;" horiz-adv-x="1159" d="M31 1405v49h385v-49l-156 -8l324 -701l331 701l-153 8v49h364v-49l-147 -8l-367 -764v-576l179 -8v-49h-435v49l179 8v576l-357 764zM467 1565l266 381h80l-293 -381h-53z" />
<glyph unicode="&#xde;" horiz-adv-x="1163" d="M84 0v47l160 10v1340l-160 10v47h412v-47l-174 -10v-217h393q206 0 293.5 -105.5t87.5 -349.5t-87.5 -349.5t-293.5 -105.5h-393v-213l174 -10v-47h-412zM322 324h383q170 0 242.5 92.5t72.5 308.5t-72.5 308.5t-242.5 92.5h-383v-802z" />
<glyph unicode="&#xdf;" horiz-adv-x="1429" d="M49 0v49l160 8v1141q0 76 15 129t40.5 85t70 49.5t92.5 23.5t120 6t120.5 -6t93 -23.5t70.5 -49.5t41 -85t15 -129v-250q0 -92 52 -149t161 -99q57 -22 89 -36.5t68.5 -40.5t54.5 -56t30 -76.5t12 -109.5v-117q0 -301 -359 -301q-217 0 -346 113v241h56l8 -208 q119 -89 284 -89q293 0 293 252v103q0 44 -2.5 70.5t-12.5 53.5t-24 42.5t-45 35.5t-67 36.5t-97 41.5q-119 48 -175 114.5t-56 178.5v250q0 75 -15 122.5t-50.5 72.5t-80.5 34t-118 9q-71 0 -116 -8.5t-81.5 -33.5t-52.5 -72.5t-16 -123.5v-1141l155 -8v-49h-387z" />
<glyph unicode="&#xe0;" horiz-adv-x="1112" d="M66 285v92q0 147 76 218t241 71q295 0 475 -107v211q0 151 -72 211.5t-251 60.5q-246 0 -394 -106l-22 57q158 113 424 113q212 0 299.5 -74.5t87.5 -255.5v-682q0 -80 69 -80q62 0 84 60l9 -49q-27 -60 -107 -60q-39 0 -64 17t-37.5 51.5t-17 75t-4.5 100.5 q-56 -109 -171 -177.5t-288 -68.5q-337 0 -337 322zM137 289q0 -271 283 -271q300 0 438 248v246q-184 102 -452 102q-140 0 -204.5 -60t-64.5 -183v-82zM322 1569h77l269 -381h-56z" />
<glyph unicode="&#xe1;" horiz-adv-x="1112" d="M66 285v92q0 147 76 218t241 71q295 0 475 -107v211q0 151 -72 211.5t-251 60.5q-246 0 -394 -106l-22 57q158 113 424 113q212 0 299.5 -74.5t87.5 -255.5v-682q0 -80 69 -80q62 0 84 60l9 -49q-27 -60 -107 -60q-39 0 -64 17t-37.5 51.5t-17 75t-4.5 100.5 q-56 -109 -171 -177.5t-288 -68.5q-337 0 -337 322zM137 289q0 -271 283 -271q300 0 438 248v246q-184 102 -452 102q-140 0 -204.5 -60t-64.5 -183v-82zM444 1188l267 381h80l-293 -381h-54z" />
<glyph unicode="&#xe2;" horiz-adv-x="1112" d="M66 285v92q0 147 76 218t241 71q295 0 475 -107v211q0 151 -72 211.5t-251 60.5q-246 0 -394 -106l-22 57q158 113 424 113q212 0 299.5 -74.5t87.5 -255.5v-682q0 -80 69 -80q62 0 84 60l9 -49q-27 -60 -107 -60q-39 0 -64 17t-37.5 51.5t-17 75t-4.5 100.5 q-56 -109 -171 -177.5t-288 -68.5q-337 0 -337 322zM137 289q0 -271 283 -271q300 0 438 248v246q-184 102 -452 102q-140 0 -204.5 -60t-64.5 -183v-82zM176 1186l352 360h58l350 -360h-68l-311 321l-313 -321h-68z" />
<glyph unicode="&#xe3;" horiz-adv-x="1112" d="M66 285v92q0 147 76 218t241 71q295 0 475 -107v211q0 151 -72 211.5t-251 60.5q-246 0 -394 -106l-22 57q158 113 424 113q212 0 299.5 -74.5t87.5 -255.5v-682q0 -80 69 -80q62 0 84 60l9 -49q-27 -60 -107 -60q-39 0 -64 17t-37.5 51.5t-17 75t-4.5 100.5 q-56 -109 -171 -177.5t-288 -68.5q-337 0 -337 322zM137 289q0 -271 283 -271q300 0 438 248v246q-184 102 -452 102q-140 0 -204.5 -60t-64.5 -183v-82zM219 1243v64q66 88 178 88q42 0 85.5 -16.5t74.5 -36t74 -36t84 -16.5q98 0 176 101v-64q-65 -86 -178 -86 q-43 0 -87.5 16.5t-75.5 36t-73 36t-82 16.5q-97 0 -176 -103z" />
<glyph unicode="&#xe4;" horiz-adv-x="1112" d="M66 285v92q0 147 76 218t241 71q295 0 475 -107v211q0 151 -72 211.5t-251 60.5q-246 0 -394 -106l-22 57q158 113 424 113q212 0 299.5 -74.5t87.5 -255.5v-682q0 -80 69 -80q62 0 84 60l9 -49q-27 -60 -107 -60q-39 0 -64 17t-37.5 51.5t-17 75t-4.5 100.5 q-56 -109 -171 -177.5t-288 -68.5q-337 0 -337 322zM137 289q0 -271 283 -271q300 0 438 248v246q-184 102 -452 102q-140 0 -204.5 -60t-64.5 -183v-82zM295 1208v265h74v-265h-74zM743 1208v265h74v-265h-74z" />
<glyph unicode="&#xe5;" horiz-adv-x="1112" d="M66 285v92q0 147 76 218t241 71q295 0 475 -107v211q0 151 -72 211.5t-251 60.5q-246 0 -394 -106l-22 57q158 113 424 113q212 0 299.5 -74.5t87.5 -255.5v-682q0 -80 69 -80q62 0 84 60l9 -49q-27 -60 -107 -60q-39 0 -64 17t-37.5 51.5t-17 75t-4.5 100.5 q-56 -109 -171 -177.5t-288 -68.5q-337 0 -337 322zM137 289q0 -271 283 -271q300 0 438 248v246q-184 102 -452 102q-140 0 -204.5 -60t-64.5 -183v-82zM342 1358q0 103 54 157t161 54q111 0 162 -53.5t51 -157.5q0 -106 -50.5 -157.5t-162.5 -51.5q-215 0 -215 209z M391 1358q0 -164 166 -164q86 0 125 40.5t39 123.5q0 166 -164 166q-82 0 -124 -43t-42 -123z" />
<glyph unicode="&#xe6;" horiz-adv-x="1804" d="M66 285v92q0 147 76 218t241 71q290 0 475 -107v211q0 152 -73 212t-250 60q-246 0 -394 -106l-22 57q156 111 422 111q192 0 276 -59t88 -218q26 145 123 211t270 66q104 0 178.5 -21.5t122.5 -60.5t76 -104t38.5 -141.5t10.5 -182.5v-78h-794q0 -90 11 -161 t38.5 -134.5t71.5 -105.5t114 -66t162 -24q136 0 220.5 41t131.5 124l35 -45q-97 -180 -391 -180q-185 0 -288.5 79t-147.5 228q-26 -99 -106 -171t-177.5 -105t-200.5 -33q-337 0 -337 322zM137 289q0 -271 283 -271q165 0 286.5 85t151.5 208v201q-184 102 -452 102 q-140 0 -204.5 -60t-64.5 -183v-82zM930 567h725v47q0 89 -9 154t-33 120.5t-64 89.5t-103 52.5t-150 18.5q-198 0 -282 -102t-84 -318v-62z" />
<glyph unicode="&#xe7;" horiz-adv-x="1009" d="M76 426v236q0 204 114 324t338 120q265 0 387 -135v-273h-55l-10 240q-54 55 -140.5 82t-179.5 27q-188 0 -285.5 -104.5t-97.5 -283.5v-233q0 -190 105.5 -294.5t302.5 -104.5q113 0 207.5 54t152.5 163l33 -49q-61 -114 -166.5 -173t-230.5 -59q-231 0 -353 120.5 t-122 342.5zM461 -469q60 100 69 203h-32v196h71v-192q0 -103 -80 -230z" />
<glyph unicode="&#xe8;" horiz-adv-x="1026" d="M80 451v159q0 257 100 376.5t338 119.5q130 0 215 -31.5t131.5 -100t64 -157.5t17.5 -223v-78h-794v-65q0 -197 98.5 -311.5t298.5 -114.5q100 0 167 21t106 55t83 96l31 -52q-98 -182 -395 -182q-118 0 -207.5 36t-144.5 102t-82 154t-27 196zM152 567h725 q0 84 -5 144.5t-19 118t-39 95.5t-64.5 67.5t-97 43t-134.5 13.5q-110 0 -182 -29t-112.5 -92.5t-56 -148.5t-15.5 -212zM279 1569h77l269 -381h-56z" />
<glyph unicode="&#xe9;" horiz-adv-x="1026" d="M80 451v159q0 257 100 376.5t338 119.5q130 0 215 -31.5t131.5 -100t64 -157.5t17.5 -223v-78h-794v-65q0 -197 98.5 -311.5t298.5 -114.5q100 0 167 21t106 55t83 96l31 -52q-98 -182 -395 -182q-118 0 -207.5 36t-144.5 102t-82 154t-27 196zM152 567h725 q0 84 -5 144.5t-19 118t-39 95.5t-64.5 67.5t-97 43t-134.5 13.5q-110 0 -182 -29t-112.5 -92.5t-56 -148.5t-15.5 -212zM401 1188l267 381h80l-293 -381h-54z" />
<glyph unicode="&#xea;" horiz-adv-x="1026" d="M80 451v159q0 257 100 376.5t338 119.5q130 0 215 -31.5t131.5 -100t64 -157.5t17.5 -223v-78h-794v-65q0 -197 98.5 -311.5t298.5 -114.5q100 0 167 21t106 55t83 96l31 -52q-98 -182 -395 -182q-118 0 -207.5 36t-144.5 102t-82 154t-27 196zM133 1186l352 360h58 l350 -360h-68l-311 321l-313 -321h-68zM152 567h725q0 84 -5 144.5t-19 118t-39 95.5t-64.5 67.5t-97 43t-134.5 13.5q-110 0 -182 -29t-112.5 -92.5t-56 -148.5t-15.5 -212z" />
<glyph unicode="&#xeb;" horiz-adv-x="1026" d="M80 451v159q0 257 100 376.5t338 119.5q130 0 215 -31.5t131.5 -100t64 -157.5t17.5 -223v-78h-794v-65q0 -197 98.5 -311.5t298.5 -114.5q100 0 167 21t106 55t83 96l31 -52q-98 -182 -395 -182q-118 0 -207.5 36t-144.5 102t-82 154t-27 196zM152 567h725 q0 84 -5 144.5t-19 118t-39 95.5t-64.5 67.5t-97 43t-134.5 13.5q-110 0 -182 -29t-112.5 -92.5t-56 -148.5t-15.5 -212zM252 1208v265h74v-265h-74zM700 1208v265h74v-265h-74z" />
<glyph unicode="&#xec;" horiz-adv-x="526" d="M29 1569h77l269 -381h-56zM72 0v49l159 8v963l-159 8v49h233v-1020l160 -8v-49h-393z" />
<glyph unicode="&#xed;" horiz-adv-x="526" d="M72 0v49l159 8v963l-159 8v49h233v-1020l160 -8v-49h-393zM152 1188l266 381h80l-293 -381h-53z" />
<glyph unicode="&#xee;" horiz-adv-x="663" d="M-45 1186l352 360h58l350 -360h-68l-311 321l-313 -321h-68zM143 0v49l160 8v963l-160 8v49h234v-1020l160 -8v-49h-394z" />
<glyph unicode="&#xef;" horiz-adv-x="526" d="M2 1208v265h74v-265h-74zM72 0v49l159 8v963l-159 8v49h233v-1020l160 -8v-49h-393zM451 1208v265h73v-265h-73z" />
<glyph unicode="&#xf0;" horiz-adv-x="1071" d="M76 389v205q0 91 18.5 155t51 103.5t88.5 62t119.5 30t156.5 7.5q302 0 410 -235q-26 326 -179 579l-327 -190l-25 45l326 188q-68 97 -137 164l55 21q70 -70 131 -156l168 98l24 -45l-163 -94q200 -318 200 -772v-166q0 -228 -109.5 -327t-348.5 -99q-237 0 -348 99.5 t-111 326.5zM150 395q0 -199 91.5 -285.5t293.5 -86.5q201 0 294 84t93 278v205q-24 74 -54 127t-76.5 95.5t-114 63.5t-157.5 21q-99 0 -163 -12t-113.5 -44.5t-71.5 -93t-22 -155.5v-197z" />
<glyph unicode="&#xf1;" horiz-adv-x="1374" d="M72 0v49l159 8v963l-159 8v49h221l8 -223q93 135 225.5 193.5t311.5 58.5q160 0 239.5 -67t79.5 -208v-774l158 -8v-49h-397v49l165 8v762q0 116 -67.5 170.5t-200.5 54.5q-168 0 -295 -57.5t-215 -193.5v-736l166 -8v-49h-399zM350 1243v64q66 88 178 88 q42 0 85.5 -16.5t74.5 -36t74 -36t84 -16.5q98 0 176 101v-64q-65 -86 -178 -86q-43 0 -87.5 16.5t-75.5 36t-73 36t-82 16.5q-97 0 -176 -103z" />
<glyph unicode="&#xf2;" horiz-adv-x="1056" d="M76 426v219q0 240 107.5 350.5t344.5 110.5t345 -110.5t108 -350.5v-219q0 -242 -108 -352.5t-345 -110.5t-344.5 110.5t-107.5 352.5zM147 430q0 -215 90 -311t291 -96t291 96t90 311v211q0 214 -90 310t-291 96t-291 -96t-90 -310v-211zM293 1569h78l268 -381h-55z" />
<glyph unicode="&#xf3;" horiz-adv-x="1056" d="M76 426v219q0 240 107.5 350.5t344.5 110.5t345 -110.5t108 -350.5v-219q0 -242 -108 -352.5t-345 -110.5t-344.5 110.5t-107.5 352.5zM147 430q0 -215 90 -311t291 -96t291 96t90 311v211q0 214 -90 310t-291 96t-291 -96t-90 -310v-211zM416 1188l266 381h80l-293 -381 h-53z" />
<glyph unicode="&#xf4;" horiz-adv-x="1056" d="M76 426v219q0 240 107.5 350.5t344.5 110.5t345 -110.5t108 -350.5v-219q0 -242 -108 -352.5t-345 -110.5t-344.5 110.5t-107.5 352.5zM147 430q0 -215 90 -311t291 -96t291 96t90 311v211q0 214 -90 310t-291 96t-291 -96t-90 -310v-211zM147 1186l353 360h57l350 -360 h-67l-312 321l-313 -321h-68z" />
<glyph unicode="&#xf5;" horiz-adv-x="1056" d="M76 426v219q0 240 107.5 350.5t344.5 110.5t345 -110.5t108 -350.5v-219q0 -242 -108 -352.5t-345 -110.5t-344.5 110.5t-107.5 352.5zM147 430q0 -215 90 -311t291 -96t291 96t90 311v211q0 214 -90 310t-291 96t-291 -96t-90 -310v-211zM193 1243v64q66 88 178 88 q42 0 85 -16.5t74 -36t74 -36t84 -16.5q98 0 176 101v-64q-65 -86 -178 -86q-43 0 -87 16.5t-75 36t-73 36t-82 16.5q-97 0 -176 -103z" />
<glyph unicode="&#xf6;" horiz-adv-x="1056" d="M76 426v219q0 240 107.5 350.5t344.5 110.5t345 -110.5t108 -350.5v-219q0 -242 -108 -352.5t-345 -110.5t-344.5 110.5t-107.5 352.5zM147 430q0 -215 90 -311t291 -96t291 96t90 311v211q0 214 -90 310t-291 96t-291 -96t-90 -310v-211zM266 1208v265h74v-265h-74z M715 1208v265h73v-265h-73z" />
<glyph unicode="&#xf7;" horiz-adv-x="1224" d="M127 725v59h969v-59h-969zM569 229v332h84v-332h-84zM569 948v332h84v-332h-84z" />
<glyph unicode="&#xf8;" horiz-adv-x="1056" d="M76 -154l125 209q-125 108 -125 371v219q0 240 107.5 350.5t344.5 110.5q173 0 275 -57l108 182h70l-131 -215q131 -108 131 -371v-219q0 -242 -108 -352.5t-345 -110.5q-170 0 -278 60l-107 -177h-67zM147 430q0 -216 93 -313l528 874q-89 56 -240 56q-201 0 -291 -96 t-90 -310v-211zM285 78q83 -55 243 -55q201 0 291 96t90 311v211q0 217 -96 313z" />
<glyph unicode="&#xf9;" horiz-adv-x="1255" d="M53 1028v49h371v-49l-158 -8v-688q0 -162 90 -234.5t281 -72.5t276.5 72.5t85.5 234.5v688l-159 8v49h362v-49l-137 -8v-688q0 -195 -103 -282t-327 -87q-227 0 -334.5 87.5t-107.5 281.5v688zM393 1569h78l268 -381h-55z" />
<glyph unicode="&#xfa;" horiz-adv-x="1255" d="M53 1028v49h371v-49l-158 -8v-688q0 -162 90 -234.5t281 -72.5t276.5 72.5t85.5 234.5v688l-159 8v49h362v-49l-137 -8v-688q0 -195 -103 -282t-327 -87q-227 0 -334.5 87.5t-107.5 281.5v688zM516 1188l266 381h80l-293 -381h-53z" />
<glyph unicode="&#xfb;" horiz-adv-x="1255" d="M53 1028v49h371v-49l-158 -8v-688q0 -162 90 -234.5t281 -72.5t276.5 72.5t85.5 234.5v688l-159 8v49h362v-49l-137 -8v-688q0 -195 -103 -282t-327 -87q-227 0 -334.5 87.5t-107.5 281.5v688zM248 1186l352 360h57l351 -360h-68l-311 321l-314 -321h-67z" />
<glyph unicode="&#xfc;" horiz-adv-x="1255" d="M53 1028v49h371v-49l-158 -8v-688q0 -162 90 -234.5t281 -72.5t276.5 72.5t85.5 234.5v688l-159 8v49h362v-49l-137 -8v-688q0 -195 -103 -282t-327 -87q-227 0 -334.5 87.5t-107.5 281.5v688zM367 1208v265h73v-265h-73zM815 1208v265h74v-265h-74z" />
<glyph unicode="&#xfd;" horiz-adv-x="1132" d="M27 1028v49h379v-49l-152 -8l315 -954l322 954l-152 8v49h365v-49l-150 -8l-409 -1200q-57 -167 -127.5 -235t-186.5 -68q-125 0 -202 84l20 59q81 -78 180 -78q85 0 141.5 51.5t106.5 196.5l51 152l-352 1038zM455 1188l266 381h80l-293 -381h-53z" />
<glyph unicode="&#xfe;" horiz-adv-x="1161" d="M0 -420l160 10v1825l-160 10v48h233v-613q63 121 183 183.5t268 62.5q211 0 304 -114t93 -349v-207q0 -249 -95.5 -361t-326.5 -112q-128 0 -247.5 55t-178.5 156v-584l181 -10v-47h-414v47zM233 242q50 -101 165.5 -159t240.5 -58q203 0 286 96.5t83 312.5v197 q0 210 -80.5 311.5t-265.5 101.5q-146 0 -263 -68.5t-166 -197.5v-536z" />
<glyph unicode="&#xff;" horiz-adv-x="1132" d="M27 1028v49h379v-49l-152 -8l315 -954l322 954l-152 8v49h365v-49l-150 -8l-409 -1200q-57 -167 -127.5 -235t-186.5 -68q-125 0 -202 84l20 59q81 -78 180 -78q85 0 141.5 51.5t106.5 196.5l51 152l-352 1038zM305 1208v265h74v-265h-74zM754 1208v265h73v-265h-73z" />
<glyph unicode="&#x152;" horiz-adv-x="1800" d="M84 551v352q0 298 112 424.5t371 126.5h1129v-403h-51l-13 342h-639v-607h510l15 185h47v-432h-47l-15 190h-510v-666h649l15 386h51v-449h-1141q-259 0 -371 126.5t-112 424.5zM164 549q0 -264 95 -377t308 -113h348v1336h-348q-216 0 -309.5 -112t-93.5 -378v-356z" />
<glyph unicode="&#x153;" horiz-adv-x="1855" d="M76 426v219q0 238 106.5 348.5t339.5 110.5q186 0 289 -70.5t135 -220.5q31 150 127 221.5t275 71.5q105 0 179.5 -21.5t122.5 -61t75.5 -105t38 -141.5t10.5 -183v-78h-793q0 -88 11 -159t39 -134.5t72 -106t113.5 -67t161.5 -24.5q107 0 175 20t105.5 54t76.5 98 l28 -52q-95 -182 -393 -182q-175 0 -280 79.5t-142 221.5q-28 -156 -130 -228.5t-292 -72.5q-236 0 -343 110.5t-107 352.5zM147 428q0 -215 89 -310t290 -95q202 0 291.5 95t89.5 310v213q0 213 -89.5 308t-291.5 95q-201 0 -290 -95t-89 -308v-213zM981 567h725v47 q0 113 -15 188.5t-54 134t-110 85.5t-179 27q-198 0 -282.5 -102t-84.5 -318v-62z" />
<glyph unicode="&#x178;" horiz-adv-x="1159" d="M31 1405v49h385v-49l-156 -8l324 -701l331 701l-153 8v49h364v-49l-147 -8l-367 -764v-576l179 -8v-49h-435v49l179 8v576l-357 764zM317 1585v264h74v-264h-74zM766 1585v264h74v-264h-74z" />
<glyph unicode="&#x2c6;" horiz-adv-x="927" d="M84 1186l352 360h58l350 -360h-68l-311 321l-313 -321h-68z" />
<glyph unicode="&#x2dc;" horiz-adv-x="841" d="M84 1243v64q66 88 178 88q42 0 85.5 -16.5t74.5 -36t74 -36t84 -16.5q98 0 176 101v-64q-65 -86 -178 -86q-43 0 -87.5 16.5t-75.5 36t-73 36t-82 16.5q-97 0 -176 -103z" />
<glyph unicode="&#x2000;" horiz-adv-x="973" />
<glyph unicode="&#x2001;" horiz-adv-x="1946" />
<glyph unicode="&#x2002;" horiz-adv-x="973" />
<glyph unicode="&#x2003;" horiz-adv-x="1946" />
<glyph unicode="&#x2004;" horiz-adv-x="648" />
<glyph unicode="&#x2005;" horiz-adv-x="486" />
<glyph unicode="&#x2006;" horiz-adv-x="324" />
<glyph unicode="&#x2007;" horiz-adv-x="324" />
<glyph unicode="&#x2008;" horiz-adv-x="243" />
<glyph unicode="&#x2009;" horiz-adv-x="389" />
<glyph unicode="&#x200a;" horiz-adv-x="108" />
<glyph unicode="&#x2010;" horiz-adv-x="643" d="M68 641v61h507v-61h-507z" />
<glyph unicode="&#x2011;" horiz-adv-x="643" d="M68 641v61h507v-61h-507z" />
<glyph unicode="&#x2012;" horiz-adv-x="643" d="M68 641v61h507v-61h-507z" />
<glyph unicode="&#x2013;" horiz-adv-x="1048" d="M68 641v61h915v-61h-915z" />
<glyph unicode="&#x2014;" horiz-adv-x="1429" d="M68 641v61h1294v-61h-1294z" />
<glyph unicode="&#x2018;" horiz-adv-x="301" d="M113 1135v338h84v-332h-45q11 -101 77 -213l-28 -25q-72 104 -88 232z" />
<glyph unicode="&#x2019;" horiz-adv-x="301" d="M78 928q68 114 78 213h-43v332h84v-338q-15 -122 -91 -232z" />
<glyph unicode="&#x201a;" horiz-adv-x="301" d="M78 -211q68 114 78 211h-43v332h84v-334q-15 -120 -91 -234z" />
<glyph unicode="&#x201c;" horiz-adv-x="602" d="M113 1135v338h84v-332h-45q11 -101 77 -213l-28 -25q-72 104 -88 232zM414 1135v338h84v-332h-45q11 -101 77 -213l-28 -25q-72 104 -88 232z" />
<glyph unicode="&#x201d;" horiz-adv-x="602" d="M78 928q68 114 78 213h-43v332h84v-338q-15 -122 -91 -232zM379 928q68 114 78 213h-43v332h84v-338q-16 -124 -90 -232z" />
<glyph unicode="&#x201e;" horiz-adv-x="602" d="M78 -211q68 114 78 211h-43v332h84v-334q-15 -120 -91 -234zM379 -211q68 114 78 211h-43v332h84v-334q-15 -122 -90 -234z" />
<glyph unicode="&#x2022;" horiz-adv-x="540" d="M84 754q0 85 49.5 137.5t136.5 52.5q89 0 138 -52.5t49 -137.5t-49.5 -139t-137.5 -54q-87 0 -136.5 54.5t-49.5 138.5z" />
<glyph unicode="&#x2026;" horiz-adv-x="1361" d="M94 0v332h84v-332h-84zM639 0v332h84v-332h-84zM1184 0v332h84v-332h-84z" />
<glyph unicode="&#x202f;" horiz-adv-x="389" />
<glyph unicode="&#x2039;" horiz-adv-x="456" d="M63 662v57l330 350v-68l-291 -311l291 -311v-68z" />
<glyph unicode="&#x203a;" horiz-adv-x="456" d="M63 311v68l291 311l-291 311v68l330 -350v-57z" />
<glyph unicode="&#x205f;" horiz-adv-x="486" />
<glyph unicode="&#x20ac;" horiz-adv-x="1089" d="M31 498l10 49h119v346h-129l10 47h119q13 284 142.5 417.5t385.5 133.5q200 0 328 -84l-23 -57q-121 80 -305 80q-219 0 -327.5 -117.5t-120.5 -372.5h598l-21 -47h-577v-346h444l-18 -49h-424q13 -247 121.5 -360t324.5 -113q213 0 328 98l31 -55q-132 -105 -359 -105 q-253 0 -382 129.5t-144 405.5h-131z" />
<glyph unicode="&#x2122;" horiz-adv-x="1822" d="M86 1108v346h629v-346h-39l-8 301h-242v-780l106 -8v-33h-264v33l103 8v780h-238l-8 -301h-39zM807 588v33l94 8v782l-94 10v33h176l289 -803l293 803h170v-33l-93 -10v-782l93 -8v-33h-236v33l94 8v768l-297 -809h-59l-289 807v-766l94 -8v-33h-235z" />
<glyph unicode="&#x25fc;" horiz-adv-x="1075" d="M0 0v1075h1075v-1075h-1075z" />
<glyph unicode="&#xfb01;" horiz-adv-x="1228" d="M49 1022v55h182v146q0 144 66.5 206t204.5 62q139 0 200 -41l-10 -53q-61 39 -172 39q-109 0 -162 -50t-53 -167v-142h354v-55h-354v-965l180 -8v-49h-413v49l159 8v965h-182zM774 0v49l160 8v963l-160 8v49h234v-1020l159 -8v-49h-393zM930 1208v265h74v-265h-74z" />
<glyph unicode="&#xfb02;" horiz-adv-x="1259" d="M49 1022v55h182v146q0 144 66.5 206t204.5 62q139 0 200 -41l-10 -53q-61 39 -172 39q-109 0 -162 -50t-53 -167v-142h354v-55h-354v-965l180 -8v-49h-413v49l159 8v965h-182zM805 0v49l160 8v1358l-160 8v50h233v-1416l160 -8v-49h-393z" />
</font>
</defs>
</svg>
