<?xml version="1.0" standalone="no"?>
<!DOCTYPE svg PUBLIC "-//W3C//DTD SVG 1.1//EN" "http://www.w3.org/Graphics/SVG/1.1/DTD/svg11.dtd" >
<svg xmlns="http://www.w3.org/2000/svg">
<metadata></metadata>
<defs>
<font id="vectipedelight" horiz-adv-x="1228" >
<font-face units-per-em="2048" ascent="1556" descent="-492" />
<missing-glyph horiz-adv-x="600" />
<glyph unicode="&#x28;C&#x29;" horiz-adv-x="1271" d="M78 524v406q0 302 133.5 431.5t423.5 129.5t424.5 -129.5t134.5 -431.5v-406q0 -302 -134.5 -431.5t-424.5 -129.5t-423.5 129.5t-133.5 431.5zM150 524q0 -264 117 -377.5t368 -113.5q252 0 369.5 113.5t117.5 377.5v406q0 262 -117 374.5t-370 112.5 q-251 0 -368 -112.5t-117 -374.5v-406zM330 641v176q0 207 76.5 288t263.5 81q69 0 135 -24.5t106 -67.5v-176h-65l-8 147q-59 59 -172 59q-141 0 -198.5 -68.5t-57.5 -238.5v-176q0 -170 56 -238.5t200 -68.5q109 0 174 65l8 144h65v-166q-100 -103 -243 -103 q-187 0 -263.5 80t-76.5 287z" />
<glyph unicode="&#x28;R&#x29;" horiz-adv-x="1271" d="M78 524v406q0 302 133.5 431.5t423.5 129.5t424.5 -129.5t134.5 -431.5v-406q0 -302 -134.5 -431.5t-424.5 -129.5t-423.5 129.5t-133.5 431.5zM150 524q0 -264 117 -377.5t368 -113.5q252 0 369.5 113.5t117.5 377.5v406q0 262 -117 374.5t-370 112.5 q-251 0 -368 -112.5t-117 -374.5v-406zM305 297v47l88 8v754l-88 10v47h402q110 0 159 -50.5t49 -154.5v-40q0 -158 -104 -183q55 -13 81 -47.5t26 -109.5v-226l86 -8v-47h-117q-45 0 -45 57v224q0 70 -30.5 99.5t-100.5 29.5h-240v-355l86 -8v-47h-252zM471 760h238 q68 0 100.5 35t32.5 114v33q0 84 -35.5 123t-114.5 39h-221v-344z" />
<glyph horiz-adv-x="2048" />
<glyph horiz-adv-x="2048" />
<glyph unicode="&#xd;" horiz-adv-x="2048" />
<glyph horiz-adv-x="600" />
<glyph unicode=" "  horiz-adv-x="600" />
<glyph unicode="&#x09;" horiz-adv-x="600" />
<glyph unicode="&#xa0;" horiz-adv-x="600" />
<glyph unicode="!" horiz-adv-x="319" d="M78 1335q0 88 6 119h152q6 -50 6 -119q0 -332 -45 -891h-76q-43 497 -43 891zM88 0v319h139v-319h-139z" />
<glyph unicode="&#x22;" horiz-adv-x="565" d="M86 907v547h107v-547h-107zM369 907v547h106v-547h-106z" />
<glyph unicode="#" horiz-adv-x="1124" d="M66 463l10 90h221l72 346h-248l10 90h256l98 465h88l-96 -465h271l98 465h90l-96 -465h215l-13 -90h-221l-71 -346h249l-8 -90h-260l-96 -463h-92l96 463h-270l-97 -463h-90l97 463h-213zM387 553h270l72 346h-270z" />
<glyph unicode="$" horiz-adv-x="1024" d="M76 965v51q0 263 375 282v156h104v-156q112 -2 195 -20.5t143 -67.5v-278h-90l-17 223q-49 36 -113 46.5t-159 10.5q-71 0 -124.5 -8t-101 -28t-73 -60t-25.5 -98v-29q0 -65 21 -101.5t76 -60.5q54 -23 236 -49.5t276 -56.5q76 -25 110.5 -75.5t34.5 -137.5v-55 q0 -75 -30 -131t-84.5 -89.5t-122.5 -51t-152 -21.5v-160h-104v160q-220 6 -367 108v279h92l14 -215q122 -80 293 -80q76 0 134 9.5t106.5 32.5t74 65.5t25.5 103.5v24q0 66 -25 102.5t-79 51.5q-85 24 -236 42t-223 42q-93 31 -138.5 86.5t-45.5 153.5z" />
<glyph unicode="%" horiz-adv-x="1390" d="M72 997v226q0 147 62.5 208.5t182.5 61.5t183 -62t63 -208v-226q0 -146 -63 -207t-183 -61t-182.5 61t-62.5 207zM164 997q0 -108 37.5 -150t115.5 -42q74 0 115 42.5t41 149.5v224q0 105 -40 149.5t-116 44.5q-77 0 -115 -43.5t-38 -150.5v-224zM205 -43l887 1542h90 l-887 -1542h-90zM827 229v226q0 146 63 208t183 62t183 -62t63 -208v-226q0 -146 -63 -207t-183 -61t-183 61t-63 207zM920 229q0 -108 37.5 -150t115.5 -42q74 0 115 42.5t41 149.5v224q0 105 -40 149.5t-116 44.5q-77 0 -115 -43.5t-38 -150.5v-224z" />
<glyph unicode="&#x26;" horiz-adv-x="1247" d="M57 301v102q0 125 58 196.5t186 125.5q-76 77 -113.5 158t-37.5 184v107q0 163 86.5 240t265.5 77q182 0 259 -74.5t77 -238.5v-115q0 -45 -4.5 -80.5t-15.5 -66t-24 -53t-37.5 -43.5t-46.5 -36t-60.5 -32.5t-71.5 -30t-86 -31.5l438 -442q164 179 164 409v39h110v-43 q0 -293 -190 -489l67 -68l140 -16v-80h-205l-86 86q-86 -67 -193 -95t-262 -28q-95 0 -166.5 15.5t-130.5 52t-90 104.5t-31 166zM186 322q0 -73 23.5 -124t67 -78.5t97 -39.5t122.5 -12q223 0 352 102l-471 477q-84 -33 -121.5 -64t-53.5 -89t-16 -172zM272 1063 q0 -86 34.5 -154t105.5 -141q160 57 206 82q75 43 96 115q11 40 11 98v106q0 116 -52 168t-167 52q-234 0 -234 -224v-102z" />
<glyph unicode="'" horiz-adv-x="278" d="M86 907v547h107v-547h-107z" />
<glyph unicode="(" horiz-adv-x="661" d="M168 659q0 259 96.5 497t292.5 439h105q-363 -419 -363 -938q0 -258 90.5 -504.5t272.5 -465.5h-105q-191 203 -290 454t-99 518z" />
<glyph unicode=")" horiz-adv-x="661" d="M0 -313q360 438 360 970q0 519 -360 938h104q196 -202 293 -440.5t97 -495.5q0 -266 -100 -517t-290 -455h-104z" />
<glyph unicode="*" horiz-adv-x="878" d="M55 1151l27 76l317 -109l-6 348h86l-4 -348l320 109l26 -74l-325 -100l206 -275l-65 -49l-199 281l-196 -281l-68 47l207 277z" />
<glyph unicode="+" d="M121 705v98h442v444h99v-444h444v-98h-444v-447h-99v447h-442z" />
<glyph unicode="," horiz-adv-x="335" d="M82 -205q77 114 94 205h-76v332h142v-338q-24 -128 -117 -242z" />
<glyph unicode="-" horiz-adv-x="647" d="M66 621v102h516v-102h-516z" />
<glyph unicode="." horiz-adv-x="311" d="M86 0v332h139v-332h-139z" />
<glyph unicode="/" horiz-adv-x="679" d="M29 -219l510 1673h112l-512 -1673h-110z" />
<glyph unicode="0" horiz-adv-x="1128" d="M82 502v448q0 121 22 213.5t62.5 154t101.5 101t133.5 56t163.5 16.5q114 0 199.5 -27.5t150.5 -89t98.5 -167.5t33.5 -257v-448q0 -150 -33.5 -256.5t-98.5 -167.5t-150.5 -88t-199.5 -27q-91 0 -163.5 16.5t-133.5 55.5t-101.5 100t-62.5 153.5t-22 213.5zM209 502 q0 -122 23.5 -206.5t71.5 -133t111 -69.5t150 -21q82 0 144 20.5t111 68t74.5 133t25.5 206.5v448q0 120 -24.5 205t-72 134t-110.5 71t-148 22q-86 0 -149.5 -21.5t-111 -70.5t-71.5 -134t-24 -206v-446z" />
<glyph unicode="1" horiz-adv-x="610" d="M47 1221q152 116 248 233h92v-1358l148 -16v-80h-433v80l160 16v1182q-66 -68 -156 -139z" />
<glyph unicode="2" horiz-adv-x="1071" d="M78 1370q198 121 467 121q213 0 330.5 -104.5t117.5 -319.5q0 -65 -14.5 -128.5t-38 -120t-63 -116t-79 -108t-97.5 -104.5t-106.5 -98.5t-118.5 -96.5t-121.5 -92t-125.5 -90h666l14 266h95v-379h-922v123q90 62 144 100t147 109.5t151.5 126t130.5 133t113.5 147.5 t70.5 152t29 164q0 156 -95.5 239.5t-254.5 83.5q-217 0 -403 -118z" />
<glyph unicode="3" horiz-adv-x="1017" d="M61 31l31 104q156 -65 344 -65q178 0 282.5 81.5t104.5 247.5q0 151 -82.5 227t-234.5 76h-166v97h166q141 0 218 69.5t77 204.5q0 148 -92 228.5t-265 80.5q-194 0 -348 -102l-33 100q161 111 398 111q229 0 341.5 -103t112.5 -290q0 -141 -70 -228.5t-198 -109.5 q143 -22 220 -119t77 -256q0 -212 -133.5 -317t-364.5 -105q-218 0 -385 68z" />
<glyph unicode="4" horiz-adv-x="1122" d="M57 270v117q168 238 314.5 538.5t214.5 544.5l112 -34q-69 -241 -217.5 -543t-296.5 -520h635v612h119v-612h127v-103h-127v-270h-121v270h-760z" />
<glyph unicode="5" horiz-adv-x="1058" d="M70 68l34 100q72 -45 166 -69.5t185 -24.5q220 0 318.5 94t98.5 299q0 178 -75.5 268t-235.5 90q-116 0 -219 -51.5t-178 -159.5l-88 21l69 819h777v-389h-91l-18 278h-563l-55 -606q144 176 401 176q209 0 301 -114t92 -336q0 -262 -127 -381t-420 -119 q-105 0 -204.5 27.5t-167.5 77.5z" />
<glyph unicode="6" horiz-adv-x="1085" d="M66 608q0 132 25.5 254.5t78.5 230t128.5 190.5t180.5 137.5t230 70.5l30 -105q-130 -17 -234 -80.5t-171.5 -160t-105 -217t-42.5 -256.5q67 107 179 169t260 62q105 0 183.5 -33.5t125 -94.5t68.5 -139t22 -175q0 -242 -121 -370t-348 -128q-113 0 -198 30.5t-140 85 t-89 137t-48 177t-14 215.5zM186 578q0 -120 16.5 -208t57 -159.5t115 -108t182.5 -36.5q170 0 259 103t89 292q0 162 -75 257t-238 95q-130 0 -235.5 -63.5t-170.5 -171.5z" />
<glyph unicode="7" horiz-adv-x="1011" d="M55 1057v397h912v-100q-182 -294 -344 -677.5t-222 -696.5l-133 24q70 322 230 689.5t344 647.5h-676l-16 -284h-95z" />
<glyph unicode="8" horiz-adv-x="1095" d="M57 377q0 162 90 249t275 122q-166 29 -244 124.5t-78 225.5q0 393 451 393q444 0 444 -393q0 -126 -75 -219t-238 -119q181 -38 268.5 -125.5t87.5 -249.5q0 -108 -36.5 -190t-103 -132t-154 -75t-195.5 -25q-142 0 -250.5 42.5t-175 137.5t-66.5 234zM182 391 q0 -158 99.5 -238.5t265.5 -80.5t265 81t99 242q0 135 -89.5 211t-276.5 99q-363 -36 -363 -314zM213 1079q0 -52 17 -99t54 -89.5t105 -72t160 -38.5q74 7 132 28t95 50t61 66t34 74t10 77q0 307 -332 307q-336 0 -336 -303z" />
<glyph unicode="9" horiz-adv-x="1085" d="M61 993q0 243 120.5 370.5t348.5 127.5q112 0 197.5 -32.5t140.5 -88.5t89.5 -139.5t48.5 -178t14 -210.5q0 -131 -26 -253t-79 -229t-128.5 -189.5t-180.5 -137t-229 -70.5l-31 103q130 19 233.5 82t170.5 158.5t104.5 215t44.5 256.5q-146 -227 -440 -227 q-105 0 -183.5 33.5t-124.5 94.5t-68 139t-22 175zM182 991q0 -78 17 -140.5t53.5 -110.5t97.5 -74.5t144 -26.5q128 0 233 62.5t170 168.5q-1 123 -19 213t-59 159.5t-113.5 104.5t-177.5 35q-170 0 -258 -101.5t-88 -289.5z" />
<glyph unicode=":" horiz-adv-x="372" d="M115 0v332h141v-332h-141zM115 743v328h141v-328h-141z" />
<glyph unicode=";" horiz-adv-x="393" d="M117 -205q75 107 94 205h-76v332h141v-338q-25 -130 -116 -242zM135 743v328h141v-328h-141z" />
<glyph unicode="&#x3c;" d="M121 702v97l985 469v-109l-877 -407l877 -410v-109z" />
<glyph unicode="=" d="M121 494v98h985v-98h-985zM121 915v99h985v-99h-985z" />
<glyph unicode="&#x3e;" d="M121 233v109l876 410l-876 407v109l985 -469v-97z" />
<glyph unicode="?" horiz-adv-x="942" d="M78 1083v273q117 135 373 135q200 0 306.5 -94.5t106.5 -274.5v-86q0 -110 -44.5 -170.5t-147.5 -103.5q-115 -48 -152 -85.5t-37 -117.5v-100h-116v116q0 72 20.5 113.5t64.5 70.5t142 70q84 34 120 80.5t36 137.5v67q0 136 -78.5 207.5t-225.5 71.5q-175 0 -266 -97 l-14 -213h-88zM354 0v319h140v-319h-140z" />
<glyph unicode="@" horiz-adv-x="1165" d="M78 262v443q0 177 28.5 291t94.5 181t159 93t236 26q248 0 369.5 -106.5t121.5 -353.5v-719h-69l-12 168q-100 -193 -293 -193q-148 0 -202 64t-54 221v207q0 148 54 210t202 62q90 0 159 -33t125 -106v123q0 201 -96.5 285.5t-304.5 84.5q-123 0 -200 -21t-130.5 -77.5 t-75.5 -153t-22 -249.5v-437q0 -127 24.5 -222t65.5 -153t102.5 -93.5t126 -48.5t144.5 -13q148 0 256 33l14 -82q-140 -37 -266 -37q-102 0 -182 16t-152.5 58t-120 109t-75 174t-27.5 249zM547 385q0 -117 40 -165t154 -48q166 0 256 193v270q-88 143 -249 143 q-118 0 -159.5 -46.5t-41.5 -160.5v-186z" />
<glyph unicode="A" horiz-adv-x="1286" d="M33 0v80l139 16l365 1358h225l352 -1358l137 -16v-80h-426v80l142 16l-109 420h-469l-113 -420l144 -16v-80h-387zM412 604h426l-191 744h-35z" />
<glyph unicode="B" horiz-adv-x="1198" d="M78 0v80l145 16v1262l-145 14v82h676q183 0 266.5 -85t83.5 -255v-72q0 -144 -56.5 -215.5t-164.5 -85.5q118 -16 184 -89t66 -226v-104q0 -322 -392 -322h-663zM360 96h359q147 0 211.5 62.5t64.5 187.5v64q0 143 -61.5 215.5t-192.5 72.5h-381v-602zM360 786h381 q112 0 174 65t62 200v39q0 135 -59 200.5t-191 65.5h-367v-570z" />
<glyph unicode="C" horiz-adv-x="1130" d="M78 578v299q0 176 30.5 292.5t100.5 188.5t176 102.5t266 30.5q121 0 231 -34.5t171 -102.5v-305h-97l-14 235q-44 53 -126.5 79t-174.5 26q-235 0 -329.5 -114.5t-94.5 -397.5v-302q0 -282 94 -397t330 -115q202 0 305 111l15 232h96v-295q-141 -148 -406 -148 q-160 0 -266 30.5t-176 103t-100.5 189t-30.5 292.5z" />
<glyph unicode="D" horiz-adv-x="1251" d="M78 0v80l145 16v1262l-145 14v82h604q264 0 378 -126.5t114 -424.5v-352q0 -298 -114 -424.5t-378 -126.5h-604zM360 98h322q188 0 271 102t83 347v360q0 243 -82.5 345t-271.5 102h-322v-1256z" />
<glyph unicode="E" horiz-adv-x="1153" d="M78 0v80l145 16v1262l-145 14v82h977v-403h-88l-23 301h-584v-549h471l23 168h78v-432h-78l-23 170h-471v-603h594l25 343h88v-449h-989z" />
<glyph unicode="F" horiz-adv-x="1136" d="M78 0v80l145 16v1262l-145 14v82h989v-436h-88l-25 332h-594v-605h492l20 168h78v-438h-78l-20 174h-492v-553l179 -16v-80h-461z" />
<glyph unicode="G" horiz-adv-x="1179" d="M78 557v320q0 229 58 363.5t175.5 192.5t313.5 58q143 0 262 -34t182 -103v-305h-98l-13 235q-48 54 -137 79.5t-194 25.5q-220 0 -315 -115t-95 -397v-320q0 -254 88.5 -370.5t304.5 -116.5q133 0 227.5 34t127.5 74v504l-324 14v78h455v-655q-46 -52 -177.5 -104 t-306.5 -52q-289 0 -411.5 139t-122.5 455z" />
<glyph unicode="H" horiz-adv-x="1337" d="M78 0v80l145 16v1262l-145 14v82h424v-82l-144 -14v-572h619v572l-143 14v82h426v-82l-148 -14v-1262l148 -16v-80h-426v80l143 16v590h-619v-590l144 -16v-80h-424z" />
<glyph unicode="I" horiz-adv-x="585" d="M78 0v80l145 16v1262l-145 14v82h430v-82l-148 -14v-1262l148 -16v-80h-430z" />
<glyph unicode="J" horiz-adv-x="692" d="M-131 -311l10 102q79 -98 199 -98q76 0 129 27t82.5 80t42 120t12.5 158v1280l-166 12v84h436v-84l-135 -12v-1276q0 -249 -84 -376.5t-280 -127.5q-160 0 -246 111z" />
<glyph unicode="K" horiz-adv-x="1277" d="M78 0v82l145 14v1262l-145 12v84h424v-84l-142 -12v-555l570 555l-137 12v84h405v-84l-154 -16l-563 -543l604 -715l156 -20v-76h-246l-635 766v-670l142 -14v-82h-424z" />
<glyph unicode="L" horiz-adv-x="1089" d="M78 0v84l145 12v1262l-145 12v84h442v-84l-160 -12v-1249h543l17 464h96v-573h-938z" />
<glyph unicode="M" horiz-adv-x="1738" d="M78 0v82l145 14v1262l-145 12v84h379l426 -1296l442 1296h336v-84l-145 -12v-1262l145 -14v-82h-406v82l144 14v1247l-463 -1343h-148l-452 1341v-1245l143 -14v-82h-401z" />
<glyph unicode="N" horiz-adv-x="1335" d="M78 0v82l145 14v1262l-145 12v84h311l639 -1223v1127l-143 12v84h389v-84l-137 -12v-1358h-119l-686 1255v-1159l155 -14v-82h-409z" />
<glyph unicode="O" d="M78 582v290q0 320 130 469.5t406 149.5q275 0 406 -149.5t131 -469.5v-290q0 -320 -131 -469.5t-406 -149.5q-276 0 -406 149.5t-130 469.5zM217 582q0 -277 94.5 -396.5t302.5 -119.5q207 0 303.5 120t96.5 396v290q0 273 -96.5 393.5t-303.5 120.5q-208 0 -302.5 -120 t-94.5 -394v-290z" />
<glyph unicode="P" horiz-adv-x="1169" d="M78 0v82l145 14v1262l-145 12v84h641q211 0 300 -107.5t89 -353.5q0 -248 -89 -355.5t-300 -107.5h-359v-434l164 -14v-82h-446zM360 618h338q149 0 213 86.5t64 284.5q0 196 -64 281.5t-213 85.5h-338v-738z" />
<glyph unicode="Q" horiz-adv-x="1241" d="M78 598v281q0 315 132.5 463.5t407.5 148.5q276 0 409.5 -148.5t133.5 -463.5v-281q0 -260 -90.5 -404t-275.5 -182q23 -148 83.5 -217t133.5 -69q76 0 125 65v-82q-53 -74 -170 -74q-47 0 -89.5 18t-83 57t-71.5 111t-47 171q-157 0 -265.5 30t-185 100t-112 187 t-35.5 289zM215 604q0 -271 98 -391.5t305 -120.5q209 0 307.5 120.5t98.5 391.5v270q0 272 -99 393.5t-307 121.5q-207 0 -305 -121.5t-98 -393.5v-270z" />
<glyph unicode="R" horiz-adv-x="1292" d="M78 0v82l145 14v1262l-145 12v84h676q184 0 266 -84.5t82 -255.5v-72q0 -153 -55.5 -224t-159.5 -81q77 -9 123 -36.5t72 -96t26 -184.5v-324l141 -14v-82h-196q-80 0 -80 90v379q0 118 -51 168.5t-168 50.5h-394v-592l148 -14v-82h-430zM360 780h390q116 0 169.5 59.5 t53.5 194.5v47q0 138 -58 204.5t-190 66.5h-365v-572z" />
<glyph unicode="S" horiz-adv-x="1126" d="M78 1059v37q0 110 33.5 188t99 122.5t151.5 64.5t201 20q291 0 428 -137v-305h-102l-12 254q-107 94 -314 94q-354 0 -354 -273v-55q0 -168 176 -235q63 -24 241.5 -53t270.5 -70q70 -32 106.5 -110.5t38.5 -174.5v-41q0 -118 -36.5 -201.5t-105.5 -131t-158 -68.5 t-205 -21q-276 0 -451 143v300h98l13 -234q130 -106 335 -106q187 0 284 70t97 226v29q0 95 -20.5 141.5t-79.5 73.5q-85 38 -258.5 68t-220.5 43q-129 35 -192.5 112t-63.5 230z" />
<glyph unicode="T" horiz-adv-x="1181" d="M57 881v573h1067v-573h-92l-18 471h-355v-1256l164 -14v-82h-467v82l164 14v1256h-352l-18 -471h-93z" />
<glyph unicode="U" horiz-adv-x="1409" d="M57 1370v84h414v-84l-143 -12v-879q0 -225 84.5 -315t296.5 -90q119 0 194 21t118.5 72t60 123.5t16.5 188.5v879l-144 12v84h396v-84l-129 -12v-864q0 -102 -8 -174t-30 -134.5t-58.5 -102t-95.5 -68t-139.5 -40.5t-191.5 -12q-149 0 -246.5 28t-157 93.5t-84 163 t-24.5 246.5v864z" />
<glyph unicode="V" horiz-adv-x="1216" d="M33 1370v84h428v-84l-142 -12l297 -1217l312 1217l-140 12v84h394v-84l-138 -12l-362 -1358h-164l-348 1358z" />
<glyph unicode="W" horiz-adv-x="1742" d="M39 1370v84h428v-84l-141 -12l188 -1198l311 1294h127l297 -1294l195 1198l-139 12v84h399v-84l-139 -12l-240 -1358h-164l-287 1241l-299 -1241h-159l-238 1358z" />
<glyph unicode="X" horiz-adv-x="1232" d="M57 0v82l142 14l352 631l-346 631l-142 12v84h426v-84l-133 -12l279 -533l283 533l-140 12v84h391v-84l-143 -12l-342 -613l360 -649l138 -14v-82h-422v82l135 14l-291 555l-295 -555l137 -14v-82h-389z" />
<glyph unicode="Y" horiz-adv-x="1175" d="M33 1370v84h413v-84l-137 -12l293 -641l301 641l-137 12v84h375v-84l-133 -12l-357 -744v-518l164 -14v-82h-465v82l164 14v518l-348 744z" />
<glyph unicode="Z" horiz-adv-x="1130" d="M76 0v129l798 1221h-677l-23 -469h-96v573h954v-98l-809 -1252h717l23 469h94v-573h-981z" />
<glyph unicode="[" horiz-adv-x="698" d="M211 -285v1860h434v-92h-319v-1678h319v-90h-434z" />
<glyph unicode="\" horiz-adv-x="679" d="M29 1454h112l510 -1673h-110z" />
<glyph unicode="]" horiz-adv-x="690" d="M53 -195h318v1678h-318v92h436v-1860h-436v90z" />
<glyph unicode="^" horiz-adv-x="724" d="M78 1036l250 418h69l250 -418h-100l-182 322l-189 -322h-98z" />
<glyph unicode="_" horiz-adv-x="905" d="M25 -180h860v-76h-860v76z" />
<glyph unicode="`" horiz-adv-x="524" d="M78 1569h127l241 -381h-86z" />
<glyph unicode="a" horiz-adv-x="1112" d="M59 285v92q0 147 76 218t240 71q258 0 440 -95v193q0 129 -66 183t-223 54q-228 0 -374 -102l-39 94q161 113 432 113q214 0 303.5 -75t89.5 -255v-651q0 -78 68 -78q54 0 75 49l9 -73q-30 -58 -115 -58q-80 0 -115 55t-35 170q-54 -101 -163.5 -164t-270.5 -63 q-174 0 -253 85.5t-79 236.5zM182 293q0 -114 57 -176t187 -62q259 0 389 211v234q-164 86 -397 86q-124 0 -180 -54t-56 -165v-74z" />
<glyph unicode="b" horiz-adv-x="1159" d="M0 1389v84h274v-586q66 108 178.5 163.5t249.5 55.5q202 0 292.5 -114t90.5 -349v-209q0 -250 -92.5 -360.5t-316.5 -110.5q-127 0 -243 52t-179 149l-29 -164h-78v1376zM274 250q49 -84 150 -132t209 -48q179 0 252 87.5t73 282.5v181q0 197 -70.5 288.5t-230.5 91.5 q-83 0 -156.5 -24.5t-133.5 -76.5t-93 -126v-524z" />
<glyph unicode="c" horiz-adv-x="1001" d="M70 426v236q0 205 113.5 324.5t340.5 119.5q266 0 391 -135v-273h-98l-12 213q-48 50 -121.5 73.5t-153.5 23.5q-166 0 -250.5 -93.5t-84.5 -257.5v-231q0 -169 92 -261.5t270 -92.5q106 0 195.5 50t142.5 150l53 -77q-63 -114 -168 -173t-233 -59q-234 0 -355.5 120.5 t-121.5 342.5z" />
<glyph unicode="d" horiz-adv-x="1210" d="M70 426v209q0 251 92 361t317 110q120 0 231 -46.5t169 -137.5v454l-146 13v84h275v-1377l145 -14v-82h-260l-6 188q-70 -112 -183.5 -167.5t-252.5 -55.5q-202 0 -291.5 113t-89.5 348zM197 451q0 -197 70 -289t231 -92q128 0 230.5 58.5t150.5 168.5v524 q-47 84 -149 132t-210 48q-179 0 -251 -87t-72 -283v-180z" />
<glyph unicode="e" horiz-adv-x="1028" d="M74 451v159q0 257 102 376.5t344 119.5q106 0 182.5 -21.5t125 -61t77 -105t39 -141.5t10.5 -183v-92h-757v-51q0 -180 90 -282.5t272 -102.5q129 0 201 37t137 122l47 -80q-98 -182 -401 -182q-236 0 -352.5 132.5t-116.5 355.5zM197 586h641q0 89 -6.5 150t-26 117.5 t-54.5 89t-92 52t-139 19.5q-98 0 -162 -26.5t-99 -83.5t-48.5 -131.5t-13.5 -186.5z" />
<glyph unicode="f" horiz-adv-x="702" d="M45 987v90h168v140q0 147 69.5 210.5t211.5 63.5t206 -43l-14 -84q-57 35 -156 35q-96 0 -143 -44.5t-47 -146.5v-131h324v-90h-324v-891l166 -14v-82h-440v82l147 14v891h-168z" />
<glyph unicode="g" horiz-adv-x="1087" d="M70 477v158q0 123 20 208t67 144.5t126 87t196 27.5q129 0 244 -50t174 -145l27 170h80v-1106q0 -246 -115 -354.5t-344 -108.5q-276 0 -408 136l37 92q129 -119 350 -119q184 0 268.5 86.5t84.5 284.5v245q-62 -108 -173.5 -162.5t-248.5 -54.5q-209 0 -297 112.5 t-88 348.5zM193 477q0 -180 70 -270t231 -90q83 0 156.5 24.5t133.5 76.5t93 126v479q-45 83 -148.5 132t-210.5 49q-181 0 -253 -90t-72 -281v-156z" />
<glyph unicode="h" horiz-adv-x="1353" d="M66 0v82l145 14v1280l-145 13v84h274v-580q88 115 211 164t285 49q160 0 238.5 -68.5t78.5 -212.5v-729l145 -14v-82h-421v82l149 14v705q0 104 -60 152t-178 48q-146 0 -257.5 -49t-190.5 -164v-692l149 -14v-82h-423z" />
<glyph unicode="i" horiz-adv-x="542" d="M66 0v82l145 14v885l-145 12v84h274v-981l145 -14v-82h-419zM209 1208v265h127v-265h-127z" />
<glyph unicode="j" horiz-adv-x="456" d="M-176 -397l12 88q61 -74 166 -74q62 0 105 23t66.5 68t33.5 100t10 129v1044l-160 12v84h289v-1140q0 -210 -71 -319.5t-228 -109.5q-153 0 -223 95zM215 1208v265h127v-265h-127z" />
<glyph unicode="k" horiz-adv-x="1120" d="M66 0v82l145 14v1280l-145 13v84h274v-922l453 430l-140 12v84h391v-84l-145 -12l-440 -406l485 -479l156 -14v-82h-252l-508 520v-424l123 -14v-82h-397z" />
<glyph unicode="l" horiz-adv-x="542" d="M66 0v82l145 14v1280l-145 13v84h274v-1377l145 -14v-82h-419z" />
<glyph unicode="m" horiz-adv-x="1994" d="M66 0v82l143 14v885l-143 12v84h253l9 -198q84 123 192.5 175t261.5 52q251 0 277 -213q87 115 193.5 164t252.5 49t217.5 -68.5t71.5 -212.5v-729l148 -14v-82h-414v82l141 14v705q0 104 -52 152t-157 48q-126 0 -222.5 -44.5t-166.5 -149.5v-711l141 -12v-84h-409v82 l143 14v705q0 200 -211 200q-130 0 -229.5 -49t-169.5 -164v-692l149 -14v-82h-419z" />
<glyph unicode="n" horiz-adv-x="1353" d="M66 0v82l145 14v885l-145 12v84h256l10 -198q91 122 213 174.5t291 52.5q160 0 238.5 -68.5t78.5 -212.5v-729l145 -14v-82h-421v82l149 14v705q0 104 -60 152t-178 48q-146 0 -257.5 -49t-190.5 -164v-692l149 -14v-82h-423z" />
<glyph unicode="o" horiz-adv-x="1060" d="M70 426v219q0 240 109 350.5t351 110.5q241 0 351 -110.5t110 -350.5v-219q0 -242 -110 -352.5t-351 -110.5q-242 0 -351 110.5t-109 352.5zM195 432q0 -198 77.5 -283.5t257.5 -85.5t258 85.5t78 283.5v205q0 197 -78 283t-258 86t-257.5 -86t-77.5 -283v-205z" />
<glyph unicode="p" horiz-adv-x="1208" d="M53 -385l148 14v1352l-148 12v84h258l8 -196q71 113 184.5 169t252.5 56q202 0 292.5 -113t90.5 -348v-209q0 -250 -93 -361.5t-317 -111.5q-119 0 -231 47t-170 137v-518l168 -14v-82h-443v82zM328 246q49 -84 149.5 -132t208.5 -48q179 0 252.5 86.5t73.5 281.5v195 q0 190 -70.5 280t-230.5 90q-83 0 -156.5 -24.5t-133.5 -76.5t-93 -126v-526z" />
<glyph unicode="q" horiz-adv-x="1116" d="M72 426v209q0 251 92 361t317 110q126 0 242.5 -51.5t179.5 -147.5l27 170h80v-1448l145 -14v-82h-440v82l168 14v553q-66 -108 -179.5 -163.5t-250.5 -55.5q-200 0 -290.5 114t-90.5 349zM199 446q0 -197 70 -288.5t231 -91.5q83 0 156.5 24.5t133.5 76.5t93 126v526 q-49 84 -151 133t-208 49q-179 0 -252 -87.5t-73 -282.5v-185z" />
<glyph unicode="r" horiz-adv-x="864" d="M66 0v82l145 14v885l-145 12v84h253l11 -198q76 114 194.5 170.5t263.5 56.5q44 0 68 -6l-16 -121q-37 6 -76 6q-125 0 -236 -51.5t-188 -163.5v-674l156 -14v-82h-430z" />
<glyph unicode="s" horiz-adv-x="1003" d="M72 788v43q0 63 24 111.5t64 79t97.5 50t118.5 27t132 7.5q132 0 225.5 -19.5t155.5 -70.5v-279h-96q-6 108 -15 221q-48 34 -110 46t-158 12q-55 0 -99.5 -4.5t-87.5 -17.5t-72 -34t-47 -55.5t-18 -81.5v-28q0 -66 26.5 -101.5t92.5 -60.5q77 -26 223 -47 q174 -25 230 -41q94 -29 138 -86.5t44 -153.5v-43q0 -299 -453 -299q-247 0 -407 109v280h102l13 -217q122 -78 284 -78q78 0 136 9.5t106.5 32t74 65t25.5 104.5v21q0 56 -23 89.5t-75 55.5q-51 23 -223 43q-168 21 -244 47q-184 62 -184 264z" />
<glyph unicode="t" horiz-adv-x="708" d="M39 987v90h113v238l124 20v-258h388v-90h-388v-633q0 -151 51 -219.5t171 -68.5q105 0 170 79l12 -86q-69 -96 -223 -96q-162 0 -233.5 101t-71.5 292v631h-113z" />
<glyph unicode="u" horiz-adv-x="1236" d="M49 993v84h395v-84l-141 -12v-649q0 -141 78 -202.5t250 -61.5q171 0 246 61.5t75 202.5v649l-145 12v84h381v-84l-125 -12v-649q0 -195 -104.5 -282t-333.5 -87q-231 0 -341 87.5t-110 281.5v649z" />
<glyph unicode="v" horiz-adv-x="1146" d="M29 993v84h407v-84l-135 -10l283 -881l295 881l-136 10v84h375v-84l-133 -10l-332 -983h-161l-330 983z" />
<glyph unicode="w" horiz-adv-x="1603" d="M33 993v84h399v-84l-135 -10l176 -877l281 971h131l278 -971l168 877l-133 10v84h373v-84l-135 -10l-193 -983h-164l-272 934l-270 -934h-162l-211 981z" />
<glyph unicode="x" horiz-adv-x="1138" d="M45 0v82l129 12l322 449l-310 440l-129 10v84h414v-84l-137 -10l248 -377l249 377l-135 10v84h379v-84l-131 -10l-303 -430l322 -459l129 -12v-82h-412v82l135 12l-262 393l-264 -393l133 -12v-82h-377z" />
<glyph unicode="y" horiz-adv-x="1142" d="M25 -397l34 96q75 -72 179 -72q76 0 127 47t100 179l43 122l-346 1008l-135 10v84h403v-84l-135 -10l285 -870l292 870l-135 10v84h375v-84l-133 -10l-381 -1094q-36 -103 -68.5 -169t-74.5 -114.5t-93 -69.5t-120 -21q-146 0 -217 88z" />
<glyph unicode="z" horiz-adv-x="1052" d="M72 0v98l719 891h-613l-14 -284h-90v372h882v-76l-733 -911h645l19 334h92v-424h-907z" />
<glyph unicode="{" horiz-adv-x="716" d="M111 600v90q92 0 127.5 49.5t35.5 171.5q0 31 -8 166t-8 168q0 74 6.5 122t26 91.5t55.5 67.5t95 37.5t145 13.5h55v-88h-55q-69 0 -111.5 -13t-64 -44t-28.5 -70t-7 -105q0 -49 5 -192t5 -197q0 -94 -44.5 -152t-119.5 -69q75 -12 119.5 -70.5t44.5 -152.5 q0 -50 -5 -195t-5 -196q0 -67 7 -106.5t29 -71t64 -44t111 -12.5h55v-86h-55q-86 0 -145 13.5t-95 36.5t-55.5 66.5t-26 91.5t-6.5 122q0 38 8 172.5t8 167.5q0 122 -35.5 169.5t-127.5 47.5z" />
<glyph unicode="|" horiz-adv-x="485" d="M190 -274v1888h105v-1888h-105z" />
<glyph unicode="}" horiz-adv-x="718" d="M74 -201h55q69 0 111 12.5t64 44t29 71t7 106.5q0 51 -5 196t-5 195q0 94 44.5 152.5t119.5 70.5q-75 11 -119.5 69t-44.5 152q0 54 5 197t5 192q0 66 -7 105t-28.5 70t-64 44t-111.5 13h-55v88h55q86 0 145 -13.5t95 -37.5t55.5 -67.5t26 -91.5t6.5 -122 q0 -33 -8.5 -168t-8.5 -166q0 -122 36 -171.5t128 -49.5v-90q-92 0 -128 -47.5t-36 -169.5q0 -33 8.5 -167.5t8.5 -172.5q0 -74 -6.5 -122t-26 -91.5t-55.5 -66.5t-95 -36.5t-145 -13.5h-55v86z" />
<glyph unicode="~" horiz-adv-x="1292" d="M121 555v113q114 135 276 135q65 0 133 -21.5t116 -47t108.5 -47t111.5 -21.5q92 0 165 34t138 115v-110q-65 -73 -139 -104.5t-172 -31.5q-57 0 -119.5 21.5t-110 47.5t-110 47.5t-119.5 21.5q-85 0 -151.5 -37.5t-126.5 -114.5z" />
<glyph unicode="&#xa1;" horiz-adv-x="319" d="M78 119q0 332 45 891h76q43 -497 43 -891q0 -88 -6 -119h-152q-6 50 -6 119zM92 1135v319h139v-319h-139z" />
<glyph unicode="&#xa2;" horiz-adv-x="987" d="M78 621v235q0 197 94 309t305 133v156h105v-160q200 -13 305 -129v-272h-96l-13 215q-94 94 -258 94q-317 0 -317 -346v-235q0 -169 84.5 -262t259.5 -93q213 0 323 201l52 -78q-112 -211 -340 -227v-162h-105v160q-201 13 -300 132t-99 329z" />
<glyph unicode="&#xa3;" horiz-adv-x="1071" d="M39 8v111q37 -41 121 -41q65 0 113 24.5t74 66.5t38 89.5t12 101.5q0 113 -61 242h-246v82h205q-41 57 -64 93.5t-49 89.5t-37.5 109t-11.5 120v49q0 159 108.5 252.5t307.5 93.5q254 0 371 -135v-273h-95l-10 213q-90 97 -264 97q-144 0 -222.5 -67.5t-78.5 -186.5v-35 q0 -43 8 -86t15.5 -71.5t30 -74t31 -61t40.5 -67t37 -60.5h510v-82h-471q59 -121 59 -260q0 -98 -41 -172q50 -48 135.5 -75t155.5 -27q85 0 144.5 42.5t96.5 135.5v-131q-72 -152 -253 -152q-75 0 -169.5 33.5t-154.5 87.5q-84 -121 -240 -121q-100 0 -145 45z" />
<glyph unicode="&#xa4;" horiz-adv-x="1073" d="M78 340l135 131q-90 114 -90 258t90 258l-133 131l67 70l132 -135q113 92 258 92q143 0 258 -94l131 137l67 -70l-135 -133q94 -119 94 -256q0 -139 -94 -258l137 -131l-69 -72l-133 140q-117 -93 -256 -93q-145 0 -256 93l-136 -140zM211 729q0 -135 95 -229t231 -94 q135 0 230 94t95 229q0 136 -95 232t-230 96q-136 0 -231 -95.5t-95 -232.5z" />
<glyph unicode="&#xa5;" horiz-adv-x="1206" d="M63 1370v84h412v-84l-137 -12l280 -633l287 633l-137 12v84h375v-84l-133 -12l-320 -678h320v-80h-342v-266h342v-82h-342v-252h-138v252h-350v82h350v266h-350v80h324l-307 678z" />
<glyph unicode="&#xa6;" horiz-adv-x="755" d="M324 -274v815h104v-815h-104zM324 870v744h104v-744h-104z" />
<glyph unicode="&#xa7;" horiz-adv-x="1021" d="M72 1167v31q0 85 34.5 144.5t98 91t136 44.5t165.5 13q132 0 226 -19.5t157 -70.5v-279h-90l-15 219q-83 60 -274 60q-71 0 -124.5 -8t-101 -28t-73 -59.5t-25.5 -97.5v-28q0 -108 78.5 -151.5t259.5 -57.5q123 -11 206.5 -36t128 -65t63 -85.5t18.5 -106.5v-129 q0 -129 -63 -196.5t-179 -96.5q130 -31 188 -86.5t58 -173.5v-31q0 -69 -23.5 -121t-62.5 -83.5t-96 -51.5t-117.5 -27.5t-134.5 -7.5q-134 0 -227 19t-154 71v277h90l12 -219q49 -34 114.5 -46t160.5 -12q71 0 124.5 8t101.5 28t73.5 59t25.5 96v29q0 37 -8.5 65 t-28.5 48.5t-43.5 34.5t-63 24.5t-77 17t-94.5 14.5q-244 32 -342 95.5t-98 214.5v116q0 123 65.5 193.5t175.5 95.5q-130 31 -187.5 88t-57.5 176zM197 487q0 -100 81.5 -142.5t276.5 -53.5q121 10 193.5 72.5t72.5 181.5v129q0 100 -86 146t-262 46q-120 0 -198 -67 t-78 -187v-125z" />
<glyph unicode="&#xa8;" horiz-adv-x="739" d="M78 1208v265h127v-265h-127zM535 1208v265h127v-265h-127z" />
<glyph unicode="&#xaa;" horiz-adv-x="735" d="M90 770v51q0 80 42 120t130 40q129 0 225 -45v96q0 59 -33 85t-106 26q-119 0 -198 -53l-29 71q92 62 241 62q119 0 170.5 -42.5t51.5 -140.5v-340q0 -43 34 -43q23 0 37 23l4 -55q-18 -29 -67 -29q-96 0 -96 115q-28 -53 -86 -85t-140 -32q-94 0 -137 47t-43 129z M188 778q0 -56 25.5 -84t87.5 -28q115 0 186 96v121q-85 39 -188 39q-59 0 -85 -27t-26 -82v-35z" />
<glyph unicode="&#xab;" horiz-adv-x="917" d="M61 639v100l336 336v-106l-276 -279l276 -280v-107zM520 639v100l336 336v-106l-276 -279l276 -280v-107z" />
<glyph unicode="&#xac;" horiz-adv-x="1269" d="M78 956v121h1114v-1077h-119v956h-995z" />
<glyph unicode="&#xad;" horiz-adv-x="647" d="M66 621v102h516v-102h-516z" />
<glyph unicode="&#xaf;" horiz-adv-x="825" d="M78 1249v90h670v-90h-670z" />
<glyph unicode="&#xb0;" horiz-adv-x="776" d="M78 1126q0 75 17.5 136.5t53.5 109.5t96.5 74.5t141.5 26.5q158 0 234.5 -95.5t76.5 -251.5q0 -155 -77 -251.5t-234 -96.5t-233 96t-76 252zM162 1126q0 -119 55 -192.5t170 -73.5t170 73.5t55 192.5q0 118 -55 191.5t-170 73.5t-170 -73.5t-55 -191.5z" />
<glyph unicode="&#xb1;" d="M121 90v98h985v-98h-985zM121 705v98h442v444h99v-444h444v-98h-444v-447h-99v447h-442z" />
<glyph unicode="&#xb2;" horiz-adv-x="598" d="M66 1432q102 61 239 61q109 0 168 -54t59 -165q0 -53 -20.5 -104.5t-49.5 -92t-81 -88t-95.5 -81t-111.5 -81.5h287l10 117h68v-196h-471v86q48 33 68.5 47t69 50t73.5 59t62 61t55.5 69t33 70t14.5 76q0 69 -44 108t-115 39q-103 0 -191 -59z" />
<glyph unicode="&#xb3;" horiz-adv-x="571" d="M57 762l23 74q79 -31 166 -31q81 0 128.5 36t47.5 111q0 66 -37 100.5t-104 34.5h-80v68h80q63 0 97 30.5t34 90.5q0 68 -43 103.5t-119 35.5q-95 0 -168 -49l-23 72q80 55 203 55q116 0 174 -52t58 -147q0 -66 -32.5 -110.5t-92.5 -57.5q67 -12 103 -61t36 -123 q0 -108 -68 -160.5t-186 -52.5q-114 0 -197 33z" />
<glyph unicode="&#xb4;" horiz-adv-x="524" d="M78 1188l239 381h129l-284 -381h-84z" />
<glyph unicode="&#xb5;" horiz-adv-x="1290" d="M47 -385l146 14v1352l-127 12v84h397v-84l-141 -12v-735q49 -84 149.5 -132t208.5 -48q179 0 252.5 87t73.5 281v547l-144 12v84h381v-84l-127 -12v-545q0 -129 -18.5 -214.5t-63.5 -145t-121.5 -85.5t-193.5 -26q-119 0 -229 46t-168 136v-518l165 -14v-82h-440v82z" />
<glyph unicode="&#xb6;" horiz-adv-x="1024" d="M47 1165q0 134 59 211.5t175 77.5h696v-82l-90 -10v-1702h-99v1698h-329v-1698h-101v1221h-77q-117 0 -175.5 75.5t-58.5 208.5z" />
<glyph unicode="&#xb7;" horiz-adv-x="311" d="M86 530v332h139v-332h-139z" />
<glyph unicode="&#xb8;" horiz-adv-x="335" d="M90 -457q66 93 80 187h-55v202h116v-188q0 -110 -98 -236z" />
<glyph unicode="&#xb9;" horiz-adv-x="387" d="M49 1348q83 60 139 127h66v-660l68 -10v-57h-230v57l74 10v537q-47 -44 -78 -64z" />
<glyph unicode="&#xba;" horiz-adv-x="708" d="M96 848v121q0 132 61.5 193t196.5 61t196.5 -61t61.5 -193v-121q0 -132 -61.5 -193t-196.5 -61t-196.5 61t-61.5 193zM195 854q0 -100 35.5 -141t123.5 -41t124 41t36 141v109q0 100 -36 141t-124 41t-123.5 -41t-35.5 -141v-109z" />
<glyph unicode="&#xbb;" horiz-adv-x="917" d="M61 303v107l275 280l-275 279v106l336 -336v-100zM520 303v107l275 280l-275 279v106l336 -336v-100z" />
<glyph unicode="&#xbc;" horiz-adv-x="1253" d="M78 -43l887 1542h90l-887 -1542h-90zM86 1348q83 60 139 127h66v-660l67 -10v-57h-229v57l74 10v537q-47 -44 -78 -64zM668 113v84q164 239 252 520l77 -25q-33 -115 -101.5 -257t-137.5 -251h278v287h84v-287h62v-71h-62v-133h-86v133h-366z" />
<glyph unicode="&#xbd;" horiz-adv-x="1263" d="M78 -43l887 1542h90l-887 -1542h-90zM86 1348q83 60 139 127h66v-660l67 -10v-57h-229v57l74 10v537q-47 -44 -78 -64zM719 664q102 61 239 61q109 0 168.5 -54t59.5 -165q0 -65 -27 -125t-84 -118.5t-109 -100t-139 -103.5h287l10 117h68v-196h-471v86q49 34 68.5 47 t69 50t74 59.5t62 60.5t56 69t33 70t14.5 76q0 69 -44.5 108t-115.5 39q-102 0 -190 -59z" />
<glyph unicode="&#xbe;" horiz-adv-x="1271" d="M72 762l22 74q79 -31 166 -31q81 0 128.5 36t47.5 111q0 66 -37 100.5t-104 34.5h-80v68h80q63 0 97 30.5t34 90.5q0 68 -43 103.5t-119 35.5q-95 0 -168 -49l-22 72q80 55 202 55q116 0 174 -52t58 -147q0 -66 -32.5 -110.5t-92.5 -57.5q67 -12 103 -61t36 -123 q0 -108 -68 -160.5t-186 -52.5q-113 0 -196 33zM117 -43l887 1542h90l-887 -1542h-90zM686 113v84q164 239 252 520l78 -25q-33 -115 -101.5 -256.5t-138.5 -251.5h279v287h84v-287h61v-71h-61v-133h-86v133h-367z" />
<glyph unicode="&#xbf;" horiz-adv-x="942" d="M78 332v86q0 110 44.5 170.5t147.5 103.5q115 48 152 85.5t37 117.5v100h116v-116q0 -72 -20.5 -113.5t-64.5 -70.5t-142 -70q-84 -34 -119.5 -80t-35.5 -137v-68q0 -136 78 -207.5t225 -71.5q175 0 266 97l14 213h88v-273q-117 -135 -372 -135q-200 0 -307 95t-107 274z M449 1135v319h139v-319h-139z" />
<glyph unicode="&#xc0;" horiz-adv-x="1286" d="M33 0v80l139 16l365 1358h225l352 -1358l137 -16v-80h-426v80l142 16l-109 420h-469l-113 -420l144 -16v-80h-387zM397 1946h127l242 -381h-86zM412 604h426l-191 744h-35z" />
<glyph unicode="&#xc1;" horiz-adv-x="1286" d="M33 0v80l139 16l365 1358h225l352 -1358l137 -16v-80h-426v80l142 16l-109 420h-469l-113 -420l144 -16v-80h-387zM412 604h426l-191 744h-35zM520 1565l240 381h129l-285 -381h-84z" />
<glyph unicode="&#xc2;" horiz-adv-x="1286" d="M33 0v80l139 16l365 1358h225l352 -1358l137 -16v-80h-426v80l142 16l-109 420h-469l-113 -420l144 -16v-80h-387zM256 1563l338 360h98l336 -360h-104l-281 299l-283 -299h-104zM412 604h426l-191 744h-35z" />
<glyph unicode="&#xc3;" horiz-adv-x="1286" d="M33 0v80l139 16l365 1358h225l352 -1358l137 -16v-80h-426v80l142 16l-109 420h-469l-113 -420l144 -16v-80h-387zM301 1602v92q68 90 180 90q43 0 88 -16t77 -35.5t75.5 -35.5t83.5 -16q100 0 180 103v-94q-66 -88 -180 -88q-45 0 -90.5 16t-78 35t-75 35t-80.5 16 q-101 0 -180 -102zM412 604h426l-191 744h-35z" />
<glyph unicode="&#xc4;" horiz-adv-x="1286" d="M33 0v80l139 16l365 1358h225l352 -1358l137 -16v-80h-426v80l142 16l-109 420h-469l-113 -420l144 -16v-80h-387zM350 1585v264h127v-264h-127zM412 604h426l-191 744h-35zM807 1585v264h127v-264h-127z" />
<glyph unicode="&#xc5;" horiz-adv-x="1286" d="M33 0v80l139 16l365 1358h225l352 -1358l137 -16v-80h-426v80l142 16l-109 420h-469l-113 -420l144 -16v-80h-387zM412 604h426l-191 744h-35zM426 1735q0 103 54 157t163 54q114 0 165.5 -53t51.5 -158q0 -106 -51 -157.5t-166 -51.5q-217 0 -217 209zM494 1735 q0 -148 149 -148q78 0 114 36.5t36 111.5q0 149 -150 149q-73 0 -111 -38.5t-38 -110.5z" />
<glyph unicode="&#xc6;" horiz-adv-x="1810" d="M33 0v82l139 14l350 1358h1188v-403h-90l-21 301h-569v-549h461l16 168h78v-432h-78l-18 170h-459v-605h578l24 345h90v-449h-974v82l147 14v420h-473l-109 -420l142 -14v-82h-422zM444 604h451v748h-258z" />
<glyph unicode="&#xc7;" horiz-adv-x="1130" d="M78 578v299q0 176 30.5 292.5t100.5 188.5t176 102.5t266 30.5q121 0 231 -34.5t171 -102.5v-305h-97l-14 235q-44 53 -126.5 79t-174.5 26q-235 0 -329.5 -114.5t-94.5 -397.5v-302q0 -282 94 -397t330 -115q202 0 305 111l15 232h96v-295q-141 -148 -406 -148 q-160 0 -266 30.5t-176 103t-100.5 189t-30.5 292.5zM535 -457q64 91 79 187h-55v202h117v-188q0 -110 -98 -236z" />
<glyph unicode="&#xc8;" horiz-adv-x="1153" d="M78 0v80l145 16v1262l-145 14v82h977v-403h-88l-23 301h-584v-549h471l23 168h78v-432h-78l-23 170h-471v-603h594l25 343h88v-449h-989zM330 1946h127l241 -381h-86z" />
<glyph unicode="&#xc9;" horiz-adv-x="1153" d="M78 0v80l145 16v1262l-145 14v82h977v-403h-88l-23 301h-584v-549h471l23 168h78v-432h-78l-23 170h-471v-603h594l25 343h88v-449h-989zM453 1565l239 381h129l-284 -381h-84z" />
<glyph unicode="&#xca;" horiz-adv-x="1153" d="M78 0v80l145 16v1262l-145 14v82h977v-403h-88l-23 301h-584v-549h471l23 168h78v-432h-78l-23 170h-471v-603h594l25 343h88v-449h-989zM190 1563l338 360h99l336 -360h-105l-280 299l-283 -299h-105z" />
<glyph unicode="&#xcb;" horiz-adv-x="1153" d="M78 0v80l145 16v1262l-145 14v82h977v-403h-88l-23 301h-584v-549h471l23 168h78v-432h-78l-23 170h-471v-603h594l25 343h88v-449h-989zM285 1585v264h127v-264h-127zM741 1585v264h127v-264h-127z" />
<glyph unicode="&#xcc;" horiz-adv-x="585" d="M47 1946h127l242 -381h-86zM78 0v80l145 16v1262l-145 14v82h430v-82l-148 -14v-1262l148 -16v-80h-430z" />
<glyph unicode="&#xcd;" horiz-adv-x="585" d="M78 0v80l145 16v1262l-145 14v82h430v-82l-148 -14v-1262l148 -16v-80h-430zM170 1565l240 381h129l-285 -381h-84z" />
<glyph unicode="&#xce;" horiz-adv-x="585" d="M-92 1563l338 360h98l336 -360h-105l-280 299l-283 -299h-104zM78 0v80l145 16v1262l-145 14v82h430v-82l-148 -14v-1262l148 -16v-80h-430z" />
<glyph unicode="&#xcf;" horiz-adv-x="585" d="M2 1585v264h127v-264h-127zM78 0v80l145 16v1262l-145 14v82h430v-82l-148 -14v-1262l148 -16v-80h-430zM459 1585v264h127v-264h-127z" />
<glyph unicode="&#xd0;" horiz-adv-x="1251" d="M78 0v80l145 16v613h-145v94h145v555l-145 14v82h604q264 0 378 -126.5t114 -424.5v-352q0 -298 -114 -424.5t-378 -126.5h-604zM360 98h322q189 0 271.5 102.5t82.5 346.5v334q0 258 -82 365.5t-272 107.5h-322v-551h326v-94h-326v-611z" />
<glyph unicode="&#xd1;" horiz-adv-x="1335" d="M78 0v82l145 14v1262l-145 12v84h311l639 -1223v1127l-143 12v84h389v-84l-137 -12v-1358h-119l-686 1255v-1159l155 -14v-82h-409zM326 1602v92q68 90 180 90q43 0 88 -16t76.5 -35.5t75 -35.5t83.5 -16q101 0 181 103v-94q-66 -88 -181 -88q-56 0 -112.5 25.5t-110 51 t-100.5 25.5q-101 0 -180 -102z" />
<glyph unicode="&#xd2;" d="M78 582v290q0 320 130 469.5t406 149.5q275 0 406 -149.5t131 -469.5v-290q0 -320 -131 -469.5t-406 -149.5q-276 0 -406 149.5t-130 469.5zM217 582q0 -277 94.5 -396.5t302.5 -119.5q207 0 303.5 120t96.5 396v290q0 273 -96.5 393.5t-303.5 120.5q-208 0 -302.5 -120 t-94.5 -394v-290zM369 1946h127l241 -381h-86z" />
<glyph unicode="&#xd3;" d="M78 582v290q0 320 130 469.5t406 149.5q275 0 406 -149.5t131 -469.5v-290q0 -320 -131 -469.5t-406 -149.5q-276 0 -406 149.5t-130 469.5zM217 582q0 -277 94.5 -396.5t302.5 -119.5q207 0 303.5 120t96.5 396v290q0 273 -96.5 393.5t-303.5 120.5q-208 0 -302.5 -120 t-94.5 -394v-290zM492 1565l239 381h129l-285 -381h-83z" />
<glyph unicode="&#xd4;" d="M78 582v290q0 320 130 469.5t406 149.5q275 0 406 -149.5t131 -469.5v-290q0 -320 -131 -469.5t-406 -149.5q-276 0 -406 149.5t-130 469.5zM217 582q0 -277 94.5 -396.5t302.5 -119.5q207 0 303.5 120t96.5 396v290q0 273 -96.5 393.5t-303.5 120.5q-208 0 -302.5 -120 t-94.5 -394v-290zM227 1563l338 360h99l335 -360h-104l-281 299l-282 -299h-105z" />
<glyph unicode="&#xd5;" d="M78 582v290q0 320 130 469.5t406 149.5q275 0 406 -149.5t131 -469.5v-290q0 -320 -131 -469.5t-406 -149.5q-276 0 -406 149.5t-130 469.5zM217 582q0 -277 94.5 -396.5t302.5 -119.5q207 0 303.5 120t96.5 396v290q0 273 -96.5 393.5t-303.5 120.5q-208 0 -302.5 -120 t-94.5 -394v-290zM272 1602v92q68 90 181 90q43 0 88 -16t76.5 -35.5t75 -35.5t83.5 -16q100 0 180 103v-94q-66 -88 -180 -88q-56 0 -112.5 25.5t-110 51t-100.5 25.5q-102 0 -181 -102z" />
<glyph unicode="&#xd6;" d="M78 582v290q0 320 130 469.5t406 149.5q275 0 406 -149.5t131 -469.5v-290q0 -320 -131 -469.5t-406 -149.5q-276 0 -406 149.5t-130 469.5zM217 582q0 -277 94.5 -396.5t302.5 -119.5q207 0 303.5 120t96.5 396v290q0 273 -96.5 393.5t-303.5 120.5q-208 0 -302.5 -120 t-94.5 -394v-290zM322 1585v264h127v-264h-127zM778 1585v264h127v-264h-127z" />
<glyph unicode="&#xd7;" horiz-adv-x="1255" d="M240 436l315 318l-313 313l69 68l314 -312l313 312l70 -68l-314 -313l316 -318l-70 -67l-315 315l-316 -315z" />
<glyph unicode="&#xd8;" d="M78 -154l139 256q-139 148 -139 480v290q0 320 130 469.5t406 149.5q194 0 316 -78l106 195h115l-139 -256q139 -154 139 -480v-290q0 -320 -131 -469.5t-406 -149.5q-197 0 -319 76l-107 -193h-110zM217 582q0 -232 70 -351l587 1078q-92 77 -260 77q-208 0 -302.5 -120 t-94.5 -394v-290zM352 143q92 -77 262 -77q207 0 303.5 120t96.5 396v290q0 226 -72 349z" />
<glyph unicode="&#xd9;" horiz-adv-x="1409" d="M57 1370v84h414v-84l-143 -12v-879q0 -225 84.5 -315t296.5 -90q119 0 194 21t118.5 72t60 123.5t16.5 188.5v879l-144 12v84h396v-84l-129 -12v-864q0 -102 -8 -174t-30 -134.5t-58.5 -102t-95.5 -68t-139.5 -40.5t-191.5 -12q-149 0 -246.5 28t-157 93.5t-84 163 t-24.5 246.5v864zM459 1946h127l241 -381h-86z" />
<glyph unicode="&#xda;" horiz-adv-x="1409" d="M57 1370v84h414v-84l-143 -12v-879q0 -225 84.5 -315t296.5 -90q119 0 194 21t118.5 72t60 123.5t16.5 188.5v879l-144 12v84h396v-84l-129 -12v-864q0 -102 -8 -174t-30 -134.5t-58.5 -102t-95.5 -68t-139.5 -40.5t-191.5 -12q-149 0 -246.5 28t-157 93.5t-84 163 t-24.5 246.5v864zM582 1565l239 381h129l-284 -381h-84z" />
<glyph unicode="&#xdb;" horiz-adv-x="1409" d="M57 1370v84h414v-84l-143 -12v-879q0 -225 84.5 -315t296.5 -90q119 0 194 21t118.5 72t60 123.5t16.5 188.5v879l-144 12v84h396v-84l-129 -12v-864q0 -102 -8 -174t-30 -134.5t-58.5 -102t-95.5 -68t-139.5 -40.5t-191.5 -12q-149 0 -246.5 28t-157 93.5t-84 163 t-24.5 246.5v864zM317 1563l338 360h99l336 -360h-105l-280 299l-283 -299h-105z" />
<glyph unicode="&#xdc;" horiz-adv-x="1409" d="M57 1370v84h414v-84l-143 -12v-879q0 -225 84.5 -315t296.5 -90q119 0 194 21t118.5 72t60 123.5t16.5 188.5v879l-144 12v84h396v-84l-129 -12v-864q0 -102 -8 -174t-30 -134.5t-58.5 -102t-95.5 -68t-139.5 -40.5t-191.5 -12q-149 0 -246.5 28t-157 93.5t-84 163 t-24.5 246.5v864zM412 1585v264h127v-264h-127zM868 1585v264h127v-264h-127z" />
<glyph unicode="&#xdd;" horiz-adv-x="1175" d="M33 1370v84h413v-84l-137 -12l293 -641l301 641l-137 12v84h375v-84l-133 -12l-357 -744v-518l164 -14v-82h-465v82l164 14v518l-348 744zM477 1565l240 381h129l-285 -381h-84z" />
<glyph unicode="&#xde;" horiz-adv-x="1169" d="M78 0v80l145 16v1262l-145 14v82h438v-82l-156 -14v-187h359q210 0 299.5 -103t89.5 -343q0 -242 -89.5 -345.5t-299.5 -103.5h-359v-180l156 -16v-80h-438zM360 365h338q149 0 213 82.5t64 277.5q0 194 -63.5 276t-213.5 82h-338v-718z" />
<glyph unicode="&#xdf;" horiz-adv-x="1429" d="M47 0v82l146 14v1102q0 94 22.5 153.5t72 89.5t108.5 40t153 10t153 -10t108.5 -40t72 -89.5t22.5 -153.5v-278q0 -81 51.5 -132.5t153.5 -89.5q68 -24 108 -45t75.5 -56t51 -87t15.5 -127v-119q0 -301 -367 -301q-220 0 -352 113v248h98l13 -193q100 -74 247 -74 q113 0 182.5 53t69.5 171v24q0 96 -14.5 144.5t-56.5 83.5t-136 75q-93 40 -148 78t-87.5 95t-32.5 134v283q0 120 -50 160.5t-177 40.5q-61 0 -100 -7.5t-70.5 -29t-45.5 -62.5t-14 -104v-1100l138 -14v-82h-410z" />
<glyph unicode="&#xe0;" horiz-adv-x="1112" d="M59 285v92q0 147 76 218t240 71q258 0 440 -95v193q0 129 -66 183t-223 54q-228 0 -374 -102l-39 94q161 113 432 113q214 0 303.5 -75t89.5 -255v-651q0 -78 68 -78q54 0 75 49l9 -73q-30 -58 -115 -58q-80 0 -115 55t-35 170q-54 -101 -163.5 -164t-270.5 -63 q-174 0 -253 85.5t-79 236.5zM182 293q0 -114 57 -176t187 -62q259 0 389 211v234q-164 86 -397 86q-124 0 -180 -54t-56 -165v-74zM309 1569h127l242 -381h-86z" />
<glyph unicode="&#xe1;" horiz-adv-x="1112" d="M59 285v92q0 147 76 218t240 71q258 0 440 -95v193q0 129 -66 183t-223 54q-228 0 -374 -102l-39 94q161 113 432 113q214 0 303.5 -75t89.5 -255v-651q0 -78 68 -78q54 0 75 49l9 -73q-30 -58 -115 -58q-80 0 -115 55t-35 170q-54 -101 -163.5 -164t-270.5 -63 q-174 0 -253 85.5t-79 236.5zM182 293q0 -114 57 -176t187 -62q259 0 389 211v234q-164 86 -397 86q-124 0 -180 -54t-56 -165v-74zM432 1188l240 381h129l-285 -381h-84z" />
<glyph unicode="&#xe2;" horiz-adv-x="1112" d="M59 285v92q0 147 76 218t240 71q258 0 440 -95v193q0 129 -66 183t-223 54q-228 0 -374 -102l-39 94q161 113 432 113q214 0 303.5 -75t89.5 -255v-651q0 -78 68 -78q54 0 75 49l9 -73q-30 -58 -115 -58q-80 0 -115 55t-35 170q-54 -101 -163.5 -164t-270.5 -63 q-174 0 -253 85.5t-79 236.5zM170 1186l338 360h98l336 -360h-104l-281 299l-283 -299h-104zM182 293q0 -114 57 -176t187 -62q259 0 389 211v234q-164 86 -397 86q-124 0 -180 -54t-56 -165v-74z" />
<glyph unicode="&#xe3;" horiz-adv-x="1112" d="M59 285v92q0 147 76 218t240 71q258 0 440 -95v193q0 129 -66 183t-223 54q-228 0 -374 -102l-39 94q161 113 432 113q214 0 303.5 -75t89.5 -255v-651q0 -78 68 -78q54 0 75 49l9 -73q-30 -58 -115 -58q-80 0 -115 55t-35 170q-54 -101 -163.5 -164t-270.5 -63 q-174 0 -253 85.5t-79 236.5zM182 293q0 -114 57 -176t187 -62q259 0 389 211v234q-164 86 -397 86q-124 0 -180 -54t-56 -165v-74zM213 1225v92q68 90 180 90q54 0 109.5 -25.5t110 -51t104.5 -25.5q101 0 180 102v-94q-66 -88 -180 -88q-45 0 -90.5 16t-78 35t-75 35 t-80.5 16q-101 0 -180 -102z" />
<glyph unicode="&#xe4;" horiz-adv-x="1112" d="M59 285v92q0 147 76 218t240 71q258 0 440 -95v193q0 129 -66 183t-223 54q-228 0 -374 -102l-39 94q161 113 432 113q214 0 303.5 -75t89.5 -255v-651q0 -78 68 -78q54 0 75 49l9 -73q-30 -58 -115 -58q-80 0 -115 55t-35 170q-54 -101 -163.5 -164t-270.5 -63 q-174 0 -253 85.5t-79 236.5zM182 293q0 -114 57 -176t187 -62q259 0 389 211v234q-164 86 -397 86q-124 0 -180 -54t-56 -165v-74zM264 1208v265h127v-265h-127zM721 1208v265h127v-265h-127z" />
<glyph unicode="&#xe5;" horiz-adv-x="1112" d="M59 285v92q0 147 76 218t240 71q258 0 440 -95v193q0 129 -66 183t-223 54q-228 0 -374 -102l-39 94q161 113 432 113q214 0 303.5 -75t89.5 -255v-651q0 -78 68 -78q54 0 75 49l9 -73q-30 -58 -115 -58q-80 0 -115 55t-35 170q-54 -101 -163.5 -164t-270.5 -63 q-174 0 -253 85.5t-79 236.5zM182 293q0 -114 57 -176t187 -62q259 0 389 211v234q-164 86 -397 86q-124 0 -180 -54t-56 -165v-74zM338 1358q0 103 54 157t163 54q114 0 165.5 -53t51.5 -158q0 -106 -51 -157.5t-166 -51.5q-217 0 -217 209zM406 1358q0 -148 149 -148 q78 0 114 36.5t36 111.5q0 149 -150 149q-73 0 -111 -38.5t-38 -110.5z" />
<glyph unicode="&#xe6;" horiz-adv-x="1771" d="M59 285v92q0 147 76 218t240 71q258 0 440 -95v193q0 133 -67 185t-222 52q-228 0 -374 -102l-39 94q160 111 426 111q177 0 260.5 -51t93.5 -187q29 124 122 181t251 57q106 0 181.5 -21.5t124 -60.5t77 -104t39 -141t10.5 -183v-92h-758q0 -101 17.5 -177t57.5 -136 t111.5 -91.5t173.5 -31.5q244 0 334 151l54 -72q-97 -180 -396 -180q-179 0 -282 71.5t-150 207.5q-31 -91 -109.5 -156.5t-171 -95t-188.5 -29.5q-174 0 -253 85.5t-79 236.5zM182 293q0 -114 57 -176t187 -62q141 0 248 72t141 176v197q-164 86 -397 86q-124 0 -180 -54 t-56 -165v-74zM940 586h639v51q0 96 -14 162t-48 116.5t-96.5 74.5t-156.5 24q-174 0 -249 -90t-75 -277v-61z" />
<glyph unicode="&#xe7;" horiz-adv-x="1001" d="M70 426v236q0 205 113.5 324.5t340.5 119.5q266 0 391 -135v-273h-98l-12 213q-48 50 -121.5 73.5t-153.5 23.5q-166 0 -250.5 -93.5t-84.5 -257.5v-231q0 -169 92 -261.5t270 -92.5q106 0 195.5 50t142.5 150l53 -77q-63 -114 -168 -173t-233 -59q-234 0 -355.5 120.5 t-121.5 342.5zM451 -457q64 91 79 187h-55v202h117v-188q0 -110 -98 -236z" />
<glyph unicode="&#xe8;" horiz-adv-x="1028" d="M74 451v159q0 257 102 376.5t344 119.5q106 0 182.5 -21.5t125 -61t77 -105t39 -141.5t10.5 -183v-92h-757v-51q0 -180 90 -282.5t272 -102.5q129 0 201 37t137 122l47 -80q-98 -182 -401 -182q-236 0 -352.5 132.5t-116.5 355.5zM197 586h641q0 89 -6.5 150t-26 117.5 t-54.5 89t-92 52t-139 19.5q-98 0 -162 -26.5t-99 -83.5t-48.5 -131.5t-13.5 -186.5zM268 1569h127l242 -381h-86z" />
<glyph unicode="&#xe9;" horiz-adv-x="1028" d="M74 451v159q0 257 102 376.5t344 119.5q106 0 182.5 -21.5t125 -61t77 -105t39 -141.5t10.5 -183v-92h-757v-51q0 -180 90 -282.5t272 -102.5q129 0 201 37t137 122l47 -80q-98 -182 -401 -182q-236 0 -352.5 132.5t-116.5 355.5zM197 586h641q0 89 -6.5 150t-26 117.5 t-54.5 89t-92 52t-139 19.5q-98 0 -162 -26.5t-99 -83.5t-48.5 -131.5t-13.5 -186.5zM391 1188l240 381h129l-285 -381h-84z" />
<glyph unicode="&#xea;" horiz-adv-x="1028" d="M74 451v159q0 257 102 376.5t344 119.5q106 0 182.5 -21.5t125 -61t77 -105t39 -141.5t10.5 -183v-92h-757v-51q0 -180 90 -282.5t272 -102.5q129 0 201 37t137 122l47 -80q-98 -182 -401 -182q-236 0 -352.5 132.5t-116.5 355.5zM127 1186l338 360h98l336 -360h-104 l-281 299l-283 -299h-104zM197 586h641q0 89 -6.5 150t-26 117.5t-54.5 89t-92 52t-139 19.5q-98 0 -162 -26.5t-99 -83.5t-48.5 -131.5t-13.5 -186.5z" />
<glyph unicode="&#xeb;" horiz-adv-x="1028" d="M74 451v159q0 257 102 376.5t344 119.5q106 0 182.5 -21.5t125 -61t77 -105t39 -141.5t10.5 -183v-92h-757v-51q0 -180 90 -282.5t272 -102.5q129 0 201 37t137 122l47 -80q-98 -182 -401 -182q-236 0 -352.5 132.5t-116.5 355.5zM197 586h641q0 89 -6.5 150t-26 117.5 t-54.5 89t-92 52t-139 19.5q-98 0 -162 -26.5t-99 -83.5t-48.5 -131.5t-13.5 -186.5zM221 1208v265h127v-265h-127zM678 1208v265h127v-265h-127z" />
<glyph unicode="&#xec;" horiz-adv-x="542" d="M27 1569h127l241 -381h-86zM66 0v82l145 14v885l-145 12v84h274v-981l145 -14v-82h-419z" />
<glyph unicode="&#xed;" horiz-adv-x="542" d="M66 0v82l145 14v885l-145 12v84h274v-981l145 -14v-82h-419zM147 1188l240 381h129l-285 -381h-84z" />
<glyph unicode="&#xee;" horiz-adv-x="700" d="M-39 1186l338 360h98l336 -360h-104l-281 299l-282 -299h-105zM141 0v82l146 14v885l-146 12v84h275v-981l145 -14v-82h-420z" />
<glyph unicode="&#xef;" horiz-adv-x="559" d="M-16 1208v265h127v-265h-127zM70 0v82l145 14v885l-145 12v84h274v-981l145 -14v-82h-419zM440 1208v265h127v-265h-127z" />
<glyph unicode="&#xf0;" horiz-adv-x="1075" d="M70 389v205q0 91 18.5 155t51.5 103.5t89 62t119.5 30t155.5 7.5q268 0 362 -200q-22 269 -149 508l-309 -162l-39 78l305 157q-57 91 -127 158l90 33q74 -74 127 -146l172 90l37 -75l-162 -84q193 -312 193 -754v-166q0 -228 -111.5 -327t-355.5 -99q-242 0 -354.5 99.5 t-112.5 326.5zM197 403q0 -184 79.5 -263t260.5 -79q177 0 259.5 75t82.5 245v207q-38 137 -118 205.5t-235 68.5q-87 0 -144.5 -11t-101.5 -40.5t-63.5 -83.5t-19.5 -137v-187z" />
<glyph unicode="&#xf1;" horiz-adv-x="1353" d="M66 0v82l145 14v885l-145 12v84h256l10 -198q91 122 213 174.5t291 52.5q160 0 238.5 -68.5t78.5 -212.5v-729l145 -14v-82h-421v82l149 14v705q0 104 -60 152t-178 48q-146 0 -257.5 -49t-190.5 -164v-692l149 -14v-82h-423zM334 1225v92q68 90 180 90q54 0 109.5 -25.5 t110 -51t104.5 -25.5q101 0 180 102v-94q-66 -88 -180 -88q-45 0 -90.5 16t-78 35t-75 35t-80.5 16q-101 0 -180 -102z" />
<glyph unicode="&#xf2;" horiz-adv-x="1060" d="M70 426v219q0 240 109 350.5t351 110.5q241 0 351 -110.5t110 -350.5v-219q0 -242 -110 -352.5t-351 -110.5q-242 0 -351 110.5t-109 352.5zM195 432q0 -198 77.5 -283.5t257.5 -85.5t258 85.5t78 283.5v205q0 197 -78 283t-258 86t-257.5 -86t-77.5 -283v-205zM285 1569 h127l241 -381h-86z" />
<glyph unicode="&#xf3;" horiz-adv-x="1060" d="M70 426v219q0 240 109 350.5t351 110.5q241 0 351 -110.5t110 -350.5v-219q0 -242 -110 -352.5t-351 -110.5q-242 0 -351 110.5t-109 352.5zM195 432q0 -198 77.5 -283.5t257.5 -85.5t258 85.5t78 283.5v205q0 197 -78 283t-258 86t-257.5 -86t-77.5 -283v-205zM408 1188 l239 381h129l-284 -381h-84z" />
<glyph unicode="&#xf4;" horiz-adv-x="1060" d="M70 426v219q0 240 109 350.5t351 110.5q241 0 351 -110.5t110 -350.5v-219q0 -242 -110 -352.5t-351 -110.5q-242 0 -351 110.5t-109 352.5zM143 1186l338 360h99l335 -360h-104l-281 299l-282 -299h-105zM195 432q0 -198 77.5 -283.5t257.5 -85.5t258 85.5t78 283.5v205 q0 197 -78 283t-258 86t-257.5 -86t-77.5 -283v-205z" />
<glyph unicode="&#xf5;" horiz-adv-x="1060" d="M70 426v219q0 240 109 350.5t351 110.5q241 0 351 -110.5t110 -350.5v-219q0 -242 -110 -352.5t-351 -110.5q-242 0 -351 110.5t-109 352.5zM188 1225v92q68 90 181 90q54 0 109.5 -25.5t109.5 -51t104 -25.5q101 0 180 102v-94q-66 -88 -180 -88q-56 0 -112.5 25.5 t-110 51t-100.5 25.5q-102 0 -181 -102zM195 432q0 -198 77.5 -283.5t257.5 -85.5t258 85.5t78 283.5v205q0 197 -78 283t-258 86t-257.5 -86t-77.5 -283v-205z" />
<glyph unicode="&#xf6;" horiz-adv-x="1060" d="M70 426v219q0 240 109 350.5t351 110.5q241 0 351 -110.5t110 -350.5v-219q0 -242 -110 -352.5t-351 -110.5q-242 0 -351 110.5t-109 352.5zM195 432q0 -198 77.5 -283.5t257.5 -85.5t258 85.5t78 283.5v205q0 197 -78 283t-258 86t-257.5 -86t-77.5 -283v-205zM238 1208 v265h127v-265h-127zM694 1208v265h127v-265h-127z" />
<glyph unicode="&#xf7;" d="M121 705v98h985v-98h-985zM545 209v332h139v-332h-139zM545 967v331h139v-331h-139z" />
<glyph unicode="&#xf8;" horiz-adv-x="1060" d="M70 -154l123 213q-123 106 -123 367v219q0 240 109 350.5t351 110.5q152 0 248 -45l99 170h114l-129 -219q129 -108 129 -367v-219q0 -242 -110 -352.5t-351 -110.5q-158 0 -254 45l-96 -162h-110zM195 432q0 -179 63 -262l465 797q-76 39 -193 39q-180 0 -257.5 -86 t-77.5 -283v-205zM332 102q66 -39 198 -39q180 0 258 85.5t78 283.5v205q0 177 -67 262z" />
<glyph unicode="&#xf9;" horiz-adv-x="1236" d="M49 993v84h395v-84l-141 -12v-649q0 -141 78 -202.5t250 -61.5q171 0 246 61.5t75 202.5v649l-145 12v84h381v-84l-125 -12v-649q0 -195 -104.5 -282t-333.5 -87q-231 0 -341 87.5t-110 281.5v649zM373 1569h127l241 -381h-86z" />
<glyph unicode="&#xfa;" horiz-adv-x="1236" d="M49 993v84h395v-84l-141 -12v-649q0 -141 78 -202.5t250 -61.5q171 0 246 61.5t75 202.5v649l-145 12v84h381v-84l-125 -12v-649q0 -195 -104.5 -282t-333.5 -87q-231 0 -341 87.5t-110 281.5v649zM496 1188l239 381h129l-284 -381h-84z" />
<glyph unicode="&#xfb;" horiz-adv-x="1236" d="M49 993v84h395v-84l-141 -12v-649q0 -141 78 -202.5t250 -61.5q171 0 246 61.5t75 202.5v649l-145 12v84h381v-84l-125 -12v-649q0 -195 -104.5 -282t-333.5 -87q-231 0 -341 87.5t-110 281.5v649zM231 1186l338 360h99l336 -360h-105l-281 299l-282 -299h-105z" />
<glyph unicode="&#xfc;" horiz-adv-x="1236" d="M49 993v84h395v-84l-141 -12v-649q0 -141 78 -202.5t250 -61.5q171 0 246 61.5t75 202.5v649l-145 12v84h381v-84l-125 -12v-649q0 -195 -104.5 -282t-333.5 -87q-231 0 -341 87.5t-110 281.5v649zM326 1208v265h127v-265h-127zM782 1208v265h127v-265h-127z" />
<glyph unicode="&#xfd;" horiz-adv-x="1142" d="M25 -397l34 96q75 -72 179 -72q76 0 127 47t100 179l43 122l-346 1008l-135 10v84h403v-84l-135 -10l285 -870l292 870l-135 10v84h375v-84l-133 -10l-381 -1094q-36 -103 -68.5 -169t-74.5 -114.5t-93 -69.5t-120 -21q-146 0 -217 88zM459 1188l239 381h129l-284 -381 h-84z" />
<glyph unicode="&#xfe;" horiz-adv-x="1159" d="M0 -387l147 16v1747l-147 15v82h274v-586q66 108 178.5 163.5t249.5 55.5q202 0 292.5 -114t90.5 -349v-207q0 -250 -92.5 -361.5t-316.5 -111.5q-120 0 -232 47t-170 137v-518l168 -16v-80h-442v80zM274 246q49 -84 150 -132t209 -48q179 0 252 86.5t73 281.5v184 q0 198 -70 290.5t-231 92.5q-129 0 -231 -58t-152 -169v-528z" />
<glyph unicode="&#xff;" horiz-adv-x="1142" d="M25 -397l34 96q75 -72 179 -72q76 0 127 47t100 179l43 122l-346 1008l-135 10v84h403v-84l-135 -10l285 -870l292 870l-135 10v84h375v-84l-133 -10l-381 -1094q-36 -103 -68.5 -169t-74.5 -114.5t-93 -69.5t-120 -21q-146 0 -217 88zM285 1208v265h127v-265h-127z M741 1208v265h127v-265h-127z" />
<glyph unicode="&#x152;" horiz-adv-x="1802" d="M78 551v352q0 298 113.5 424.5t377.5 126.5h1135v-403h-90l-19 301h-565v-549h451l20 168h80v-432h-80l-20 170h-451v-603h574l22 343h90v-449h-1147q-264 0 -377.5 126.5t-113.5 424.5zM217 547q0 -241 85 -345t267 -104h324v1256h-324q-188 0 -270 -101t-82 -346v-360z " />
<glyph unicode="&#x153;" horiz-adv-x="1822" d="M70 426v219q0 235 107 346t341 111q172 0 273 -60.5t139 -187.5q36 128 128 190t257 62q106 0 182.5 -21.5t125 -61t77 -105t39 -141.5t10.5 -183v-92h-758q0 -436 363 -436q146 0 216.5 33t121.5 126l47 -80q-98 -182 -402 -182q-162 0 -261.5 68.5t-139.5 191.5 q-34 -134 -133 -197t-275 -63q-241 0 -349.5 110.5t-108.5 352.5zM195 432q0 -199 76.5 -284t256.5 -85q182 0 259 85t77 284v205q0 197 -77.5 282t-258.5 85q-180 0 -256.5 -85t-76.5 -282v-205zM991 586h641v51q0 96 -14 162t-48.5 116.5t-97.5 74.5t-157 24 q-174 0 -249 -90t-75 -277v-61z" />
<glyph unicode="&#x178;" horiz-adv-x="1175" d="M33 1370v84h413v-84l-137 -12l293 -641l301 641l-137 12v84h375v-84l-133 -12l-357 -744v-518l164 -14v-82h-465v82l164 14v518l-348 744zM309 1585v264h127v-264h-127zM766 1585v264h127v-264h-127z" />
<glyph unicode="&#x2c6;" horiz-adv-x="927" d="M78 1186l338 360h98l336 -360h-105l-280 299l-283 -299h-104z" />
<glyph unicode="&#x2dc;" horiz-adv-x="841" d="M78 1225v92q68 90 180 90q54 0 109.5 -25.5t110 -51t104.5 -25.5q101 0 180 102v-94q-66 -88 -180 -88q-45 0 -90.5 16t-78 35t-75 35t-80.5 16q-101 0 -180 -102z" />
<glyph unicode="&#x2000;" horiz-adv-x="973" />
<glyph unicode="&#x2001;" horiz-adv-x="1946" />
<glyph unicode="&#x2002;" horiz-adv-x="973" />
<glyph unicode="&#x2003;" horiz-adv-x="1946" />
<glyph unicode="&#x2004;" horiz-adv-x="648" />
<glyph unicode="&#x2005;" horiz-adv-x="486" />
<glyph unicode="&#x2006;" horiz-adv-x="324" />
<glyph unicode="&#x2007;" horiz-adv-x="324" />
<glyph unicode="&#x2008;" horiz-adv-x="243" />
<glyph unicode="&#x2009;" horiz-adv-x="389" />
<glyph unicode="&#x200a;" horiz-adv-x="108" />
<glyph unicode="&#x2010;" horiz-adv-x="647" d="M66 621v102h516v-102h-516z" />
<glyph unicode="&#x2011;" horiz-adv-x="647" d="M66 621v102h516v-102h-516z" />
<glyph unicode="&#x2012;" horiz-adv-x="647" d="M66 621v102h516v-102h-516z" />
<glyph unicode="&#x2013;" horiz-adv-x="1060" d="M66 621v102h931v-102h-931z" />
<glyph unicode="&#x2014;" horiz-adv-x="1447" d="M66 621v102h1316v-102h-1316z" />
<glyph unicode="&#x2018;" horiz-adv-x="335" d="M100 1133v340h142v-332h-78q17 -92 94 -207l-43 -43q-90 110 -115 242z" />
<glyph unicode="&#x2019;" horiz-adv-x="335" d="M82 934q77 115 94 207h-76v332h142v-340q-24 -128 -117 -242z" />
<glyph unicode="&#x201a;" horiz-adv-x="335" d="M82 -205q77 114 94 205h-76v332h142v-338q-24 -128 -117 -242z" />
<glyph unicode="&#x201c;" horiz-adv-x="671" d="M100 1133v340h142v-332h-78q17 -92 94 -207l-43 -43q-90 110 -115 242zM436 1133v340h142v-332h-78q17 -92 94 -207l-43 -43q-90 110 -115 242z" />
<glyph unicode="&#x201d;" horiz-adv-x="671" d="M82 934q77 115 94 207h-76v332h142v-340q-24 -128 -117 -242zM418 934q77 115 94 207h-76v332h142v-340q-24 -128 -117 -242z" />
<glyph unicode="&#x201e;" horiz-adv-x="671" d="M82 -205q77 114 94 205h-76v332h142v-338q-24 -128 -117 -242zM418 -205q77 114 94 205h-76v332h142v-338q-24 -128 -117 -242z" />
<glyph unicode="&#x2022;" horiz-adv-x="593" d="M78 752q0 99 58 160t161 61t161 -61t58 -160q0 -97 -58 -159.5t-161 -62.5t-161 62.5t-58 159.5z" />
<glyph unicode="&#x2026;" horiz-adv-x="1556" d="M86 0v332h139v-332h-139zM709 0v332h139v-332h-139zM1331 0v332h139v-332h-139z" />
<glyph unicode="&#x202f;" horiz-adv-x="389" />
<glyph unicode="&#x2039;" horiz-adv-x="458" d="M61 639v100l336 336v-106l-276 -279l276 -280v-107z" />
<glyph unicode="&#x203a;" horiz-adv-x="458" d="M61 303v107l275 280l-275 279v106l336 -336v-100z" />
<glyph unicode="&#x205f;" horiz-adv-x="486" />
<glyph unicode="&#x20ac;" horiz-adv-x="1103" d="M29 492l14 75h119v303h-133l14 76h119q15 280 146 412.5t390 132.5q205 0 336 -84l-39 -94q-112 73 -297 73q-194 0 -289.5 -104t-107.5 -336h553l-31 -76h-522v-303h404l-31 -75h-371q13 -225 108.5 -325.5t286.5 -100.5q203 0 318 88l51 -88q-139 -103 -369 -103 q-255 0 -386 128t-148 401h-135z" />
<glyph unicode="&#x2122;" horiz-adv-x="1828" d="M80 1108v346h639v-346h-64l-10 276h-203v-735l97 -10v-51h-281v51l94 10v735h-198l-13 -276h-61zM803 588v51l86 10v740l-86 12v53h223l252 -766l256 766h213v-53l-84 -12v-740l84 -10v-51h-250v51l86 10v725l-266 -786h-92l-260 784v-723l86 -10v-51h-248z" />
<glyph unicode="&#x25fc;" horiz-adv-x="1075" d="M0 0v1075h1075v-1075h-1075z" />
<glyph unicode="&#xfb01;" horiz-adv-x="1245" d="M45 987v90h168v140q0 147 69.5 210.5t211.5 63.5t206 -43l-14 -84q-57 35 -156 35q-96 0 -143 -44.5t-47 -146.5v-131h324v-90h-324v-891l166 -14v-82h-440v82l147 14v891h-168zM768 0v82l145 14v885l-145 12v84h274v-981l146 -14v-82h-420zM911 1208v265h127v-265h-127z " />
<glyph unicode="&#xfb02;" horiz-adv-x="1275" d="M45 987v90h168v140q0 147 69.5 210.5t211.5 63.5t206 -43l-14 -84q-57 35 -156 35q-96 0 -143 -44.5t-47 -146.5v-131h324v-90h-324v-891l166 -14v-82h-440v82l147 14v891h-168zM799 0v82l145 14v1280l-145 13v84h274v-1377l146 -14v-82h-420z" />
</font>
</defs>
</svg>
