<?xml version="1.0" standalone="no"?>
<!DOCTYPE svg PUBLIC "-//W3C//DTD SVG 1.1//EN" "http://www.w3.org/Graphics/SVG/1.1/DTD/svg11.dtd" >
<svg xmlns="http://www.w3.org/2000/svg">
<metadata></metadata>
<defs>
<font id="vectipedebook" horiz-adv-x="1296" >
<font-face units-per-em="2048" ascent="1556" descent="-492" />
<missing-glyph horiz-adv-x="593" />
<glyph unicode="&#x28;C&#x29;" horiz-adv-x="1280" d="M72 524v406q0 302 136 431.5t431 129.5t432 -129.5t137 -431.5v-406q0 -302 -137 -431.5t-432 -129.5t-431 129.5t-136 431.5zM170 524q0 -250 113 -357.5t356 -107.5q244 0 357.5 107.5t113.5 357.5v406q0 249 -113.5 356t-357.5 107q-243 0 -356 -107t-113 -356v-406z M340 647v170q0 199 75.5 278t258.5 79q67 0 132.5 -25.5t104.5 -67.5v-166h-90l-8 125q-54 54 -145 54q-122 0 -170.5 -62.5t-48.5 -214.5v-170q0 -152 47.5 -214t171.5 -62q93 0 147 57l8 123h90v-154q-47 -49 -110 -76.5t-129 -27.5q-184 0 -259 77t-75 277z" />
<glyph unicode="&#x28;R&#x29;" horiz-adv-x="1280" d="M72 524v406q0 302 136 431.5t431 129.5t432 -129.5t137 -431.5v-406q0 -302 -137 -431.5t-432 -129.5t-431 129.5t-136 431.5zM170 524q0 -250 113 -357.5t356 -107.5q244 0 357.5 107.5t113.5 357.5v406q0 249 -113.5 356t-357.5 107q-243 0 -356 -107t-113 -356v-406z M315 313v64l78 10v690l-78 10v64h396q109 0 156.5 -49t47.5 -148v-41q0 -80 -25 -121t-73 -55q55 -13 80 -46t25 -107v-197l77 -10v-64h-122q-60 0 -60 78v193q0 63 -26 89.5t-86 26.5h-207v-313l77 -10v-64h-260zM498 770h202q58 0 86.5 32t28.5 101v27q0 73 -29.5 108 t-97.5 35h-190v-303z" />
<glyph horiz-adv-x="2048" />
<glyph horiz-adv-x="2048" />
<glyph unicode="&#xd;" horiz-adv-x="2048" />
<glyph horiz-adv-x="593" />
<glyph unicode=" "  horiz-adv-x="593" />
<glyph unicode="&#x09;" horiz-adv-x="593" />
<glyph unicode="&#xa0;" horiz-adv-x="593" />
<glyph unicode="!" horiz-adv-x="364" d="M72 1335q0 75 8 119h207q6 -50 6 -119q0 -211 -14 -402t-46 -491h-102q-59 491 -59 893zM84 0v319h195v-319h-195z" />
<glyph unicode="&#x22;" horiz-adv-x="620" d="M78 907v547h147v-547h-147zM395 907v547h148v-547h-148z" />
<glyph unicode="#" horiz-adv-x="1134" d="M63 446l13 125h215l59 312h-231l14 125h240l86 446h121l-84 -446h241l86 446h127l-86 -446h207l-18 -125h-211l-60 -312h232l-13 -125h-241l-84 -446h-127l84 446h-242l-84 -446h-125l84 446h-203zM414 571h241l60 312h-242z" />
<glyph unicode="$" horiz-adv-x="1028" d="M72 948v60q0 75 27 130t78 87.5t113 49.5t142 23v156h148v-156q220 -7 323 -86v-278h-127l-18 201q-45 29 -101.5 38t-136.5 9q-65 0 -113 -7.5t-89.5 -25.5t-63 -52.5t-21.5 -84.5v-23q0 -41 6 -66.5t17.5 -43.5t38 -29.5t58 -18t87.5 -14.5q237 -32 303 -49 q115 -30 164 -81t49 -152v-76q0 -272 -376 -297v-162h-148v162q-212 12 -352 108v279h129l16 -189q112 -69 260 -69q145 0 223 40.5t78 143.5v19q-1 67 -24.5 96t-81.5 45q-67 18 -180 32t-131 17q-153 27 -225 84t-72 180z" />
<glyph unicode="%" horiz-adv-x="1392" d="M66 997v226q0 147 63 208.5t186 61.5q122 0 186 -62t64 -208v-226q0 -146 -64 -207t-186 -61q-123 0 -186 60.5t-63 207.5zM182 989q0 -90 34 -126t99 -36q62 0 96.5 36t34.5 126v242q0 89 -34 125.5t-97 36.5q-65 0 -99 -36.5t-34 -125.5v-242zM190 -43l885 1542h127 l-887 -1542h-125zM827 229v226q0 147 63.5 208.5t186.5 61.5q122 0 186 -62t64 -208v-226q0 -146 -64 -207t-186 -61q-123 0 -186.5 60.5t-63.5 207.5zM944 221q0 -90 34 -126t99 -36q62 0 96.5 36t34.5 126v242q0 89 -34 125.5t-97 36.5q-65 0 -99 -36.5t-34 -125.5v-242z " />
<glyph unicode="&#x26;" horiz-adv-x="1273" d="M57 305v105q0 121 54 193.5t184 129.5q-73 74 -108 152.5t-35 177.5v106q0 167 90 244.5t282 77.5t273.5 -76t81.5 -244v-114q0 -66 -12 -114.5t-33.5 -84t-63.5 -66t-88 -53t-121 -53.5l371 -371q81 93 109 173.5t28 170.5v37h156v-43q0 -146 -41.5 -255.5 t-130.5 -202.5l59 -60l129 -20v-115h-221l-86 86q-86 -66 -189 -94.5t-264 -28.5q-99 0 -172.5 16t-132.5 53.5t-89 105.5t-30 167zM240 338q0 -124 70.5 -174.5t201.5 -50.5q183 0 305 90l-416 422q-39 -17 -64.5 -31t-44.5 -33.5t-28.5 -36.5t-15.5 -47.5t-7 -59.5t-1 -79 zM326 1057q0 -75 31 -135t94 -125q6 2 18 7q39 15 57 22.5t47.5 20t42 20.5t32.5 20.5t28 23.5t19.5 27t15.5 33t7 38.5t3 47.5v102q0 100 -46.5 144.5t-144.5 44.5q-204 0 -204 -191v-100z" />
<glyph unicode="'" horiz-adv-x="303" d="M78 907v547h147v-547h-147z" />
<glyph unicode="(" horiz-adv-x="679" d="M162 659q0 538 383 936h141q-336 -426 -336 -938q0 -522 336 -970h-141q-188 203 -285.5 454t-97.5 518z" />
<glyph unicode=")" horiz-adv-x="679" d="M-6 -313q334 450 334 970q0 511 -334 938h141q193 -201 288 -439.5t95 -496.5q0 -267 -98 -517.5t-285 -454.5h-141z" />
<glyph unicode="*" horiz-adv-x="880" d="M55 1139l33 98l297 -100l-4 329h113l-5 -329l299 100l35 -96l-305 -94l195 -263l-84 -63l-191 264l-186 -264l-88 61l194 265z" />
<glyph unicode="+" horiz-adv-x="1234" d="M115 686v135h432v434h137v-434h434v-135h-434v-436h-137v436h-432z" />
<glyph unicode="," horiz-adv-x="370" d="M86 -199q86 109 111 199h-109v332h199v-340q-36 -138 -142 -250z" />
<glyph unicode="-" horiz-adv-x="653" d="M63 600v145h527v-145h-527z" />
<glyph unicode="." horiz-adv-x="352" d="M78 0v332h196v-332h-196z" />
<glyph unicode="/" horiz-adv-x="679" d="M23 -219l477 1673h157l-479 -1673h-155z" />
<glyph unicode="0" horiz-adv-x="1134" d="M76 502v448q0 151 34 257t100 167.5t153 89t204 27.5t204 -27.5t153.5 -89t100.5 -167.5t34 -257v-448q0 -150 -34 -256.5t-100.5 -167.5t-153.5 -88t-204 -27t-204 27t-153 88t-100 167t-34 257zM258 502q0 -110 20 -186t61 -119t96 -61.5t132 -18.5q71 0 124.5 18 t96.5 60t66 118.5t23 186.5v448q0 144 -38.5 231t-104.5 121.5t-167 34.5q-155 0 -232 -87t-77 -300v-446z" />
<glyph unicode="1" horiz-adv-x="651" d="M37 1200q168 123 280 254h132v-1319l133 -20v-115h-459v115l147 20v1075q-77 -74 -153 -127z" />
<glyph unicode="2" horiz-adv-x="1075" d="M72 1370q201 121 477 121q220 0 337.5 -107t117.5 -329q0 -76 -20.5 -150.5t-53.5 -138.5t-88.5 -132t-110 -122.5t-135.5 -120.5t-146.5 -115t-160.5 -116h571l21 235h135v-395h-940v172q246 169 354 257q359 292 393 552q4 28 4 57q0 137 -88.5 216t-230.5 79 q-199 0 -381 -119z" />
<glyph unicode="3" horiz-adv-x="1021" d="M55 31l45 147q154 -63 332 -63q161 0 255.5 72.5t94.5 222.5q0 134 -73.5 202t-208.5 68h-160v135h162q125 0 192.5 60.5t67.5 181.5q0 136 -85 208t-239 72q-188 0 -334 -98l-47 141q164 111 406 111q232 0 347.5 -103.5t115.5 -291.5q0 -133 -65 -221.5t-183 -114.5 q133 -26 204.5 -123.5t71.5 -247.5q0 -215 -135.5 -320.5t-369.5 -105.5q-225 0 -394 68z" />
<glyph unicode="4" horiz-adv-x="1128" d="M51 266v168q164 242 295 519.5t207 523.5l158 -50q-69 -232 -206 -517t-276 -500h559v575h166v-575h123v-144h-123v-266h-170v266h-733z" />
<glyph unicode="5" horiz-adv-x="1062" d="M63 68l50 141q69 -39 165 -64.5t185 -25.5q193 0 282 84.5t89 267.5q0 162 -70.5 242t-216.5 80q-101 0 -196 -46.5t-161 -138.5l-120 27l71 819h791v-399h-129l-25 243h-489l-51 -524q128 139 362 139q212 0 305.5 -114t93.5 -336q0 -262 -128.5 -381t-426.5 -119 q-106 0 -211 29.5t-170 75.5z" />
<glyph unicode="6" horiz-adv-x="1091" d="M59 608q0 166 42 315.5t122.5 270t207 199.5t284.5 98l43 -148q-122 -15 -219.5 -71.5t-161.5 -143.5t-100 -196t-44 -234q62 95 164 150t240 55q105 0 183 -33.5t124.5 -94.5t69 -139t22.5 -175q0 -242 -123.5 -370t-353.5 -128q-115 0 -202 30.5t-143 85t-91 137 t-49.5 177t-14.5 215.5zM233 578q0 -87 8 -153t29.5 -128t57.5 -101.5t94.5 -63t138.5 -23.5q151 0 228 92t77 260q0 148 -66.5 233.5t-211.5 85.5q-112 0 -204 -54t-151 -148z" />
<glyph unicode="7" horiz-adv-x="1019" d="M51 1047v407h928v-141q-182 -298 -336 -664t-211 -674l-190 33q70 319 223 663.5t340 622.5h-598l-21 -247h-135z" />
<glyph unicode="8" horiz-adv-x="1103" d="M51 381q0 156 85 243.5t257 123.5q-151 34 -224 127.5t-73 220.5q0 108 35 186.5t99 123t144.5 65t182.5 20.5q453 0 453 -395q0 -122 -69.5 -211.5t-217.5 -118.5q167 -43 248.5 -130t81.5 -243q0 -111 -37.5 -194.5t-105 -134.5t-157 -76t-198.5 -25q-108 0 -198.5 25 t-159.5 74.5t-107.5 131t-38.5 187.5zM229 401q0 -141 87.5 -212.5t234.5 -71.5t233 72.5t86 218.5q0 122 -80 192.5t-241 93.5q-161 -17 -240.5 -92t-79.5 -201zM256 1067q0 -105 73.5 -183t225.5 -96q77 9 135 36t91 65t49 81.5t16 90.5q0 278 -293 278q-141 0 -219 -66 t-78 -206z" />
<glyph unicode="9" horiz-adv-x="1091" d="M55 993q0 242 123 370t354 128q114 0 201.5 -33t143.5 -90.5t91.5 -141.5t49.5 -177.5t14 -208.5q0 -164 -42.5 -312.5t-122.5 -268t-206.5 -198.5t-283.5 -98l-43 146q122 17 218.5 73.5t160 143.5t99.5 195t46 235q-138 -205 -405 -205q-105 0 -183 33.5t-124 94.5 t-68.5 139t-22.5 175zM227 991q0 -146 67 -231.5t210 -85.5q111 0 203 54t149 146v39q0 98 -16 172t-52 133t-101 90t-157 31q-151 0 -227 -91t-76 -257z" />
<glyph unicode=":" horiz-adv-x="411" d="M106 0v332h197v-332h-197zM106 743v328h197v-328h-197z" />
<glyph unicode=";" horiz-adv-x="417" d="M109 -199q84 107 110 199h-108v332h198v-340q-36 -139 -141 -250zM111 743v328h198v-328h-198z" />
<glyph unicode="&#x3c;" horiz-adv-x="1234" d="M115 684v135l1003 455v-152l-850 -370l850 -373v-152z" />
<glyph unicode="=" horiz-adv-x="1234" d="M115 473v137h1003v-137h-1003zM115 897v135h1003v-135h-1003z" />
<glyph unicode="&#x3e;" horiz-adv-x="1234" d="M115 227v152l850 373l-850 370v152l1003 -455v-135z" />
<glyph unicode="?" horiz-adv-x="944" d="M72 1083v273q120 135 379 135q204 0 312.5 -94.5t108.5 -274.5v-86q0 -111 -43.5 -173t-146.5 -107q-107 -46 -141.5 -82.5t-34.5 -106.5v-108h-164v131q0 101 42.5 148.5t184.5 109.5q79 34 109.5 76t30.5 129v57q0 120 -68 182t-195 62q-146 0 -231 -82l-16 -189h-127z M326 0v319h194v-319h-194z" />
<glyph unicode="@" horiz-adv-x="1171" d="M72 262v443q0 177 29.5 291.5t96.5 181t162 92.5t240 26q252 0 376 -106t124 -352v-721h-99l-14 143q-94 -168 -282 -168q-139 0 -192.5 65t-53.5 220v207q0 147 53.5 209.5t194.5 62.5q166 0 268 -113v99q0 184 -89.5 261t-285.5 77q-119 0 -192 -19.5t-122.5 -72.5 t-69 -142.5t-19.5 -234.5v-435q0 -102 16.5 -182t47 -134t69.5 -91t90.5 -57t102 -28.5t110.5 -8.5q164 0 262 32l23 -110q-132 -41 -279 -41q-104 0 -185.5 16t-155 58t-122 109t-76.5 174t-28 249zM584 389q0 -101 35 -143.5t131 -42.5q144 0 225 155v279 q-82 115 -217 115q-102 0 -138 -41t-36 -144v-178z" />
<glyph unicode="A" d="M37 0v115l125 20l358 1319h273l342 -1319l125 -20v-115h-465v115l129 20l-93 363h-423l-97 -363l129 -20v-115h-403zM440 618h361l-174 687z" />
<glyph unicode="B" horiz-adv-x="1204" d="M72 0v115l133 20v1184l-133 20v115h688q187 0 271.5 -86.5t84.5 -253.5v-72q0 -142 -50.5 -210.5t-150.5 -90.5q71 -14 119 -44.5t79.5 -98.5t31.5 -172v-104q0 -322 -397 -322h-676zM401 135h314q124 0 178.5 54t54.5 169v45q0 141 -49 210t-168 69h-330v-547zM401 805 h330q203 0 203 250v22q0 122 -48.5 181t-164.5 59h-320v-512z" />
<glyph unicode="C" horiz-adv-x="1134" d="M72 578v299q0 176 31 292.5t103 188.5t179.5 102.5t269.5 30.5q123 0 235.5 -34.5t174.5 -102.5v-305h-139l-17 206q-40 48 -113 70.5t-155 22.5q-205 0 -287 -106t-82 -365v-302q0 -257 80.5 -364t288.5 -107q181 0 272 99l17 203h139v-295q-145 -148 -414 -148 q-216 0 -340.5 57t-183.5 190.5t-59 367.5z" />
<glyph unicode="D" horiz-adv-x="1259" d="M72 0v115l133 20v1184l-133 20v115h614q270 0 386 -126.5t116 -424.5v-352q0 -298 -116 -424.5t-386 -126.5h-614zM401 139h285q160 0 231.5 91t71.5 315v364q0 220 -70.5 312t-232.5 92h-285v-1174z" />
<glyph unicode="E" horiz-adv-x="1159" d="M72 0v115l133 20v1184l-133 20v115h995v-403h-127l-29 260h-512v-490h414l29 150h110v-432h-110l-29 151h-414v-540h519l34 299h127v-449h-1007z" />
<glyph unicode="F" horiz-adv-x="1140" d="M72 0v115l133 20v1184l-133 20v115h1007v-436h-127l-32 289h-519v-543h422l27 149h111v-438h-111l-27 154h-422v-494l160 -20v-115h-489z" />
<glyph unicode="G" horiz-adv-x="1183" d="M72 557v320q0 172 32 289.5t101.5 189.5t172 103.5t251.5 31.5q146 0 266.5 -34t185.5 -103v-305h-139l-16 206q-41 48 -121.5 70.5t-173.5 22.5q-131 0 -208.5 -45t-115 -148t-37.5 -278v-320q0 -227 76.5 -335.5t267.5 -108.5q117 0 197 28t111 64v450l-277 21v108h463 v-665q-46 -52 -180 -104t-312 -52q-295 0 -419.5 138.5t-124.5 455.5z" />
<glyph unicode="H" horiz-adv-x="1345" d="M72 0v115l133 20v1184l-133 20v115h454v-115l-129 -20v-512h551v512l-129 20v115h455v-115l-133 -20v-1184l133 -20v-115h-455v115l129 20v531h-551v-531l129 -20v-115h-454z" />
<glyph unicode="I" horiz-adv-x="606" d="M72 0v115l133 20v1184l-133 20v115h463v-115l-134 -20v-1184l134 -20v-115h-463z" />
<glyph unicode="J" horiz-adv-x="686" d="M-129 -311l12 133q74 -84 183 -84q68 0 115 24.5t71.5 72.5t34.5 105t10 136v1243l-150 18v117h467v-117l-122 -18v-1237q0 -248 -86 -376t-285 -128q-164 0 -250 111z" />
<glyph unicode="K" d="M72 0v117l133 18v1184l-133 18v117h454v-117l-127 -18v-508l510 508l-123 18v117h426v-117l-147 -24l-494 -486l543 -692l141 -29v-106h-272l-584 764v-629l127 -18v-117h-454z" />
<glyph unicode="L" horiz-adv-x="1093" d="M72 0v121l133 14v1184l-133 18v117h473v-117l-144 -18v-1165h465l25 419h135v-573h-954z" />
<glyph unicode="M" horiz-adv-x="1755" d="M72 0v117l133 18v1184l-133 18v117h467l360 -1229l381 1229h403v-117l-133 -18v-1184l133 -18v-117h-426v117l129 18v1163l-413 -1298h-207l-401 1296v-1161l127 -18v-117h-420z" />
<glyph unicode="N" horiz-adv-x="1347" d="M72 0v117l133 18v1184l-133 18v117h366l574 -1122v987l-129 18v117h407v-117l-127 -18v-1319h-166l-641 1167v-1032l144 -18v-117h-428z" />
<glyph unicode="O" horiz-adv-x="1236" d="M72 582v290q0 320 132.5 469.5t413.5 149.5q280 0 413.5 -150t133.5 -469v-290q0 -319 -133.5 -469t-413.5 -150q-281 0 -413.5 149.5t-132.5 469.5zM270 582q0 -258 81.5 -365.5t266.5 -107.5q184 0 266.5 107.5t82.5 365.5v290q0 256 -83 365t-266 109 q-184 0 -266 -109t-82 -365v-290z" />
<glyph unicode="P" horiz-adv-x="1175" d="M72 0v117l133 18v1184l-133 18v117h653q214 0 304.5 -107.5t90.5 -353.5q0 -248 -90.5 -355.5t-304.5 -107.5h-324v-395l150 -18v-117h-479zM401 653h293q127 0 181.5 77.5t54.5 256.5q0 177 -54.5 253.5t-181.5 76.5h-293v-664z" />
<glyph unicode="Q" horiz-adv-x="1253" d="M72 598v285q0 313 136.5 460.5t418.5 147.5q281 0 418 -148t137 -460v-285q0 -247 -85.5 -387.5t-258.5 -185.5q23 -139 80 -204t122 -65q63 0 111 56v-107q-53 -72 -178 -72q-49 0 -92 17.5t-85 56.5t-75.5 112t-52.5 175q-154 0 -263 32t-185 103t-112 186.5t-36 282.5 zM270 608q0 -253 86 -362t271 -109q184 0 270 109t86 362v271q0 252 -86 361.5t-270 109.5q-185 0 -271 -109.5t-86 -361.5v-271z" />
<glyph unicode="R" horiz-adv-x="1302" d="M72 0v117l133 18v1184l-133 18v117h690q187 0 270.5 -86t83.5 -254v-72q0 -149 -51 -219t-150 -86q76 -11 120.5 -41.5t69.5 -104t25 -198.5v-258l130 -18v-117h-216q-108 0 -108 125v342q0 107 -45 155t-148 48h-342v-535l134 -18v-117h-463zM401 797h336 q100 0 147.5 55.5t47.5 179.5v35q0 124 -48.5 184t-164.5 60h-318v-514z" />
<glyph unicode="S" horiz-adv-x="1128" d="M70 1051v41q0 213 123.5 306t371.5 93q296 0 436 -135v-307h-147l-16 233q-97 80 -273 80q-307 0 -307 -242v-55q0 -74 25 -112.5t79 -63.5q82 -39 254 -68t246 -57q107 -41 149 -115t42 -213v-37q0 -235 -132 -335.5t-384 -100.5q-282 0 -459 143v300h143l15 -203 q115 -94 296 -94q176 0 256 65t80 211v21q0 84 -19 118t-77 68q-17 10 -37.5 18t-49.5 14.5t-47 10t-57 10t-53 8.5q-71 13 -108.5 20.5t-95 24t-87.5 33.5t-67.5 46.5t-55.5 66t-31 89t-13 118.5z" />
<glyph unicode="T" horiz-adv-x="1189" d="M51 881v573h1088v-573h-133l-23 430h-291v-1176l150 -18v-117h-496v117l150 18v1176h-289l-25 -430h-131z" />
<glyph unicode="U" horiz-adv-x="1398" d="M55 1337v117h447v-117l-129 -18v-846q0 -195 76.5 -273.5t259.5 -78.5q101 0 166 18t104 61.5t54.5 108t15.5 164.5v846l-127 18v117h421v-117l-118 -18v-825q0 -101 -8.5 -173.5t-30.5 -135t-59.5 -102t-97 -68t-141.5 -40.5t-194 -12q-152 0 -251.5 28t-160.5 93.5 t-85.5 163t-24.5 246.5v825z" />
<glyph unicode="V" horiz-adv-x="1243" d="M37 1337v117h463v-117l-127 -18l264 -1116l281 1116l-125 18v117h413v-117l-125 -18l-354 -1319h-229l-338 1319z" />
<glyph unicode="W" horiz-adv-x="1775" d="M41 1337v117h465v-117l-127 -18l158 -1090l288 1225h172l277 -1225l166 1090l-125 18v117h420v-117l-125 -18l-230 -1319h-231l-258 1145l-270 -1145h-224l-231 1319z" />
<glyph unicode="X" horiz-adv-x="1247" d="M55 0v117l131 18l344 588l-337 596l-132 18v117h461v-117l-114 -18l243 -457l248 457l-123 18v117h410v-117l-133 -18l-332 -567l352 -617l125 -18v-117h-455v117l115 18l-254 483l-264 -483l121 -18v-117h-406z" />
<glyph unicode="Y" horiz-adv-x="1193" d="M37 1337v117h442v-117l-121 -18l265 -580l270 580l-121 18v117h385v-117l-121 -18l-344 -723v-461l150 -18v-117h-496v117l150 18v461l-340 723z" />
<glyph unicode="Z" horiz-adv-x="1130" d="M68 0v182l747 1127h-577l-33 -428h-135v573h970v-139l-764 -1168h625l31 426h133v-573h-997z" />
<glyph unicode="[" horiz-adv-x="712" d="M205 -285v1860h461v-129h-297v-1604h297v-127h-461z" />
<glyph unicode="\" horiz-adv-x="679" d="M23 1454h157l477 -1673h-155z" />
<glyph unicode="]" horiz-adv-x="704" d="M47 -158h297v1604h-297v129h463v-1860h-463v127z" />
<glyph unicode="^" horiz-adv-x="729" d="M72 1036l245 418h95l245 -418h-137l-153 285l-160 -285h-135z" />
<glyph unicode="_" horiz-adv-x="911" d="M18 -172h879v-96h-879v96z" />
<glyph unicode="`" horiz-adv-x="536" d="M72 1569h178l215 -381h-119z" />
<glyph unicode="a" horiz-adv-x="1114" d="M53 285v92q0 146 76.5 217.5t237.5 71.5q226 0 407 -80v172q0 107 -60 155t-194 48q-213 0 -358 -99l-56 131q163 113 441 113q216 0 308.5 -76t92.5 -254v-618q0 -78 66 -78q43 0 65 39l8 -99q-32 -53 -122 -53q-87 0 -132 47.5t-45 159.5q-48 -94 -153 -152.5 t-254 -58.5q-170 0 -249 86t-79 236zM229 299q0 -101 47 -153t158 -52q213 0 340 174v219q-144 70 -342 70q-107 0 -155 -48t-48 -147v-63z" />
<glyph unicode="b" horiz-adv-x="1157" d="M2 1356v117h315v-558q68 95 173 143t233 48q193 0 280 -112.5t87 -348.5v-209q0 -253 -90 -363t-308 -110q-121 0 -231 47t-176 137l-39 -147h-111v1337zM317 258q46 -67 133 -105t179 -38q155 0 217.5 77.5t62.5 251.5v166q0 185 -59.5 268t-196.5 83 q-109 0 -198.5 -48.5t-137.5 -140.5v-514z" />
<glyph unicode="c" horiz-adv-x="995" d="M63 426v236q0 205 114 324.5t345 119.5q266 0 393 -135v-273h-141l-14 189q-79 82 -230 82q-145 0 -216.5 -81t-71.5 -231v-231q0 -149 80 -229t237 -80q101 0 185 46.5t133 139.5l71 -108q-63 -115 -168 -173.5t-235 -58.5q-238 0 -360 120t-122 343z" />
<glyph unicode="d" horiz-adv-x="1204" d="M63 426v209q0 253 90 363t308 110q111 0 214 -39.5t161 -120.5v389l-134 19v117h316v-1338l133 -18v-117h-297l-6 166q-149 -199 -418 -199q-194 0 -280.5 112t-86.5 347zM244 465q0 -185 59 -267.5t197 -82.5q109 0 198.5 48.5t137.5 139.5v514q-46 67 -133.5 105.5 t-178.5 38.5q-155 0 -217.5 -77.5t-62.5 -252.5v-166z" />
<glyph unicode="e" horiz-adv-x="1032" d="M68 451v159q0 257 104 376.5t350 119.5q108 0 186 -21.5t127.5 -61t78.5 -105t40 -141.5t11 -183v-107h-723v-36q0 -162 82 -252t245 -90q117 0 187.5 34.5t132.5 112.5l65 -111q-101 -182 -409 -182q-122 0 -215 36t-149.5 102t-84.5 154t-28 196zM242 604h557 q0 78 -5.5 130.5t-22 102.5t-46 79t-80 46t-121.5 17q-86 0 -142 -24t-86.5 -74.5t-42 -115.5t-11.5 -161z" />
<glyph unicode="f" horiz-adv-x="702" d="M43 954v123h152v135q0 150 71.5 214.5t218.5 64.5q148 0 215 -43l-20 -117q-54 31 -139 31q-83 0 -124.5 -38t-41.5 -124v-123h295v-123h-295v-819l153 -18v-117h-467v117l134 18v819h-152z" />
<glyph unicode="g" horiz-adv-x="1087" d="M63 485v150q0 124 19 208t64.5 143.5t122.5 86.5t192 27q127 0 235 -43t166 -131l37 151h113v-1106q0 -246 -116.5 -354.5t-350.5 -108.5q-278 0 -414 136l49 125q125 -107 336 -107q169 0 242 77t73 257v219q-62 -96 -165.5 -143t-229.5 -47q-206 0 -289.5 110.5 t-83.5 349.5zM240 485q0 -160 58 -239.5t196 -79.5q110 0 199.5 48t137.5 140v465q-43 65 -132 104.5t-179 39.5q-157 0 -218.5 -80.5t-61.5 -249.5v-148z" />
<glyph unicode="h" horiz-adv-x="1335" d="M59 0v117l134 18v1202l-134 19v117h316v-547q159 180 461 180q159 0 237 -70t78 -215v-686l133 -18v-117h-448v117l133 18v649q0 91 -52 132.5t-153 41.5q-260 0 -389 -172v-651l133 -18v-117h-449z" />
<glyph unicode="i" horiz-adv-x="561" d="M59 0v117l134 18v807l-134 19v116h316v-942l133 -18v-117h-449zM190 1208v265h183v-265h-183z" />
<glyph unicode="j" horiz-adv-x="473" d="M-170 -395l16 116q55 -63 150 -63q58 0 97.5 22t60 64t28.5 90.5t8 112.5v995l-143 19v116h326v-1130q0 -214 -74 -326.5t-238 -112.5q-156 0 -231 97zM188 1208v265h183v-265h-183z" />
<glyph unicode="k" horiz-adv-x="1136" d="M59 0v117l134 18v1202l-134 19v117h316v-922l401 393l-125 17v116h406v-116l-135 -17l-379 -354l428 -455l141 -18v-117h-281l-456 512v-377l110 -18v-117h-426z" />
<glyph unicode="l" horiz-adv-x="561" d="M59 0v117l134 18v1202l-134 19v117h316v-1338l133 -18v-117h-449z" />
<glyph unicode="m" horiz-adv-x="1972" d="M59 0v117l131 18v807l-131 19v116h289l10 -172q83 108 185.5 154.5t247.5 46.5q238 0 274 -193q90 104 190 148.5t240 44.5q147 0 220 -70t73 -215v-686l133 -18v-117h-438v117l127 18v649q0 91 -46.5 132.5t-138.5 41.5q-111 0 -195 -35.5t-147 -121.5v-666l127 -14 v-121h-432v117l127 18v649q0 91 -47 132.5t-139 41.5q-232 0 -350 -172v-651l133 -18v-117h-443z" />
<glyph unicode="n" horiz-adv-x="1335" d="M59 0v117l134 18v807l-134 19v116h293l10 -172q91 108 203 154.5t271 46.5t237 -70t78 -215v-686l133 -18v-117h-448v117l133 18v649q0 91 -52 132.5t-153 41.5q-260 0 -389 -172v-651l133 -18v-117h-449z" />
<glyph unicode="o" horiz-adv-x="1064" d="M63 426v219q0 240 112 350.5t357 110.5t357 -110.5t112 -350.5v-219q0 -242 -111.5 -352.5t-357.5 -110.5t-357.5 110.5t-111.5 352.5zM242 436q0 -183 65.5 -257.5t224.5 -74.5t225 75t66 257v197q0 181 -66.5 256.5t-224.5 75.5t-224 -75.5t-66 -256.5v-197z" />
<glyph unicode="p" horiz-adv-x="1200" d="M49 -350l133 18v1274l-133 19v116h293l10 -170q149 199 418 199q194 0 280.5 -112t86.5 -347v-209q0 -253 -90 -363t-308 -110q-111 0 -214.5 39.5t-159.5 118.5v-455l153 -18v-117h-469v117zM365 252q46 -68 133 -107t178 -39q155 0 217.5 77.5t62.5 252.5v187 q0 173 -60 253t-196 80q-109 0 -198 -47.5t-137 -138.5v-518z" />
<glyph unicode="q" horiz-adv-x="1112" d="M66 426v209q0 253 89.5 362t307.5 109q122 0 231.5 -45.5t175.5 -134.5l37 151h113v-1409l133 -18v-117h-469v117l154 18v488q-68 -95 -173.5 -144t-232.5 -49q-193 0 -279.5 113.5t-86.5 349.5zM246 459q0 -185 59 -267.5t197 -82.5q109 0 198.5 48.5t137.5 139.5v516 q-46 68 -133 106.5t-179 38.5q-155 0 -217.5 -77.5t-62.5 -251.5v-170z" />
<glyph unicode="r" horiz-adv-x="856" d="M59 0v117l134 18v807l-134 19v116h289l12 -174q144 203 422 203q45 0 66 -6l-23 -172q-36 8 -80 8q-234 0 -370 -176v-625l143 -18v-117h-459z" />
<glyph unicode="s" horiz-adv-x="1005" d="M66 776v35q0 69 23.5 121t63 85t97.5 53t120 28t138 8q278 0 389 -90v-279h-139l-17 199q-42 25 -93.5 35t-133.5 10q-65 0 -113 -7t-89.5 -24.5t-63 -51t-21.5 -83.5v-20q0 -56 16.5 -84t67.5 -52q23 -12 59 -21t65.5 -13.5t86.5 -12t90 -12.5q183 -30 260.5 -91.5 t77.5 -189.5v-49q0 -307 -458 -307q-256 0 -418 111v278h147l15 -190q107 -66 243 -66q146 0 223.5 40t77.5 145v10q0 57 -24 90.5t-82 50.5q-46 13 -180 31q-67 8 -112.5 16t-94 20t-79.5 27t-60.5 38t-46 52.5t-26 69t-9.5 90.5z" />
<glyph unicode="t" horiz-adv-x="718" d="M37 954v123h115v238l176 31v-269h350v-123h-350v-594q0 -141 44.5 -197.5t153.5 -56.5q92 0 154 68l16 -113q-73 -98 -229 -98q-168 0 -241.5 102.5t-73.5 296.5v592h-115z" />
<glyph unicode="u" horiz-adv-x="1220" d="M45 961v116h422v-116l-127 -19v-608q0 -121 66.5 -172t218.5 -51t216 51.5t64 171.5v608l-129 19v116h400v-116l-113 -19v-610q0 -195 -107 -282t-340 -87q-235 0 -346.5 87.5t-111.5 281.5v610z" />
<glyph unicode="v" horiz-adv-x="1159" d="M31 961v116h432v-116l-119 -15l252 -801l266 801l-119 15v116h385v-116l-116 -15l-320 -946h-225l-320 946z" />
<glyph unicode="w" horiz-adv-x="1622" d="M33 958v119h422v-116l-119 -15l149 -796l260 927h181l254 -927l143 796l-117 15v116h383v-116l-119 -15l-182 -946h-229l-242 872l-246 -872h-227l-197 944z" />
<glyph unicode="x" horiz-adv-x="1150" d="M43 0v117l113 14l315 410l-303 405l-113 15v116h443v-116l-121 -15l217 -319l223 319l-117 15v116h392v-116l-117 -15l-297 -391l317 -424l113 -14v-117h-442v117l118 14l-231 336l-238 -336l115 -14v-117h-387z" />
<glyph unicode="y" horiz-adv-x="1153" d="M23 -393l47 133q37 -35 76 -51.5t102 -16.5q69 0 113 42t92 163l36 92l-342 977l-118 15v116h428v-116l-119 -15l254 -784l262 784l-117 15v116h385v-116l-118 -15l-353 -987q-29 -81 -51.5 -136.5t-50.5 -110t-56.5 -87.5t-64 -60t-78.5 -38.5t-96 -11.5q-164 0 -231 92 z" />
<glyph unicode="z" horiz-adv-x="1054" d="M63 0v137l670 819h-520l-18 -251h-129v372h901v-104l-688 -846h557l24 297h131v-424h-928z" />
<glyph unicode="{" horiz-adv-x="735" d="M104 584v125q95 0 132.5 49.5t37.5 173.5q0 38 -9 156t-9 153q0 61 5 104.5t18.5 84t37.5 66t62 45t92.5 28t128.5 8.5h66v-121h-66q-109 0 -144.5 -42.5t-35.5 -151.5q0 -56 5 -196t5 -198q0 -91 -53 -150.5t-135 -70.5q82 -11 135 -71t53 -150q0 -56 -5 -197t-5 -198 q0 -112 35.5 -155.5t144.5 -43.5h66v-119h-66q-110 0 -178.5 19t-105 63.5t-48.5 101.5t-12 150q0 43 9 159.5t9 158.5q0 122 -37.5 170.5t-132.5 48.5z" />
<glyph unicode="|" horiz-adv-x="516" d="M184 -274v1888h148v-1888h-148z" />
<glyph unicode="}" horiz-adv-x="737" d="M68 -168h65q109 0 144.5 43.5t35.5 155.5q0 57 -5 198t-5 197q0 90 53.5 150t135.5 71q-82 11 -135.5 70.5t-53.5 150.5q0 58 5 198t5 196q0 109 -35.5 151.5t-144.5 42.5h-65v121h65q74 0 128.5 -8.5t92.5 -28t62 -45t37.5 -66t18.5 -84t5 -104.5q0 -35 -9 -153t-9 -156 q0 -124 37.5 -173.5t132.5 -49.5v-125q-95 0 -132.5 -48.5t-37.5 -170.5q0 -42 9 -158.5t9 -159.5q0 -93 -12 -150t-48.5 -101.5t-105 -63.5t-178.5 -19h-65v119z" />
<glyph unicode="~" horiz-adv-x="1298" d="M115 526v152q119 141 280 141q67 0 137.5 -20.5t120.5 -45t111 -45t110 -20.5q93 0 168 36.5t140 119.5v-148q-68 -75 -143 -109t-175 -34q-57 0 -121.5 21t-113 45.5t-111 45.5t-117.5 21q-86 0 -154 -39.5t-132 -120.5z" />
<glyph unicode="&#xa1;" horiz-adv-x="364" d="M72 119q0 213 13.5 406t45.5 487h102q60 -500 60 -893q0 -75 -8 -119h-207q-6 50 -6 119zM86 1135v319h195v-319h-195z" />
<glyph unicode="&#xa2;" horiz-adv-x="991" d="M72 621v235q0 196 92.5 305t296.5 135v158h147v-162q184 -17 289 -127v-272h-139l-15 188q-82 82 -217 82q-276 0 -276 -307v-235q0 -144 75.5 -227t229.5 -83q204 0 305 187l72 -109q-110 -201 -324 -223v-166h-147v162q-196 18 -292.5 136t-96.5 323z" />
<glyph unicode="&#xa3;" horiz-adv-x="1075" d="M37 6v154q41 -33 113 -33q63 0 108 22.5t68.5 62.5t34 84.5t10.5 96.5q0 91 -47 197h-242v108h186q-35 55 -55 91.5t-43 87.5t-33.5 101t-9.5 103v54q0 165 110 260.5t312 95.5q259 0 379 -135v-273h-135l-15 189q-82 82 -225 82q-126 0 -194 -59.5t-68 -168.5v-32 q0 -69 23.5 -144.5t47.5 -122t72 -129.5h496v-108h-445q47 -107 47 -209q0 -101 -40 -180q50 -43 129.5 -65.5t148.5 -22.5q167 0 242 151v-168q-80 -133 -258 -133q-79 0 -171.5 32t-154.5 85q-88 -117 -242 -117q-99 0 -149 43z" />
<glyph unicode="&#xa4;" horiz-adv-x="1110" d="M72 348l139 133q-84 114 -84 254q0 138 84 252l-137 133l96 97l131 -138q114 86 254 86q139 0 254 -88l131 140l96 -97l-137 -133q86 -117 86 -252q0 -140 -86 -254l139 -133l-96 -98l-135 141q-114 -84 -252 -84q-141 0 -252 84l-135 -141zM250 735q0 -127 89 -216 t216 -89q128 0 217.5 89t89.5 216t-90 217t-217 90t-216 -89.5t-89 -217.5z" />
<glyph unicode="&#xa5;" horiz-adv-x="1214" d="M57 1337v117h443v-117l-121 -18l254 -567l260 567l-121 18v117h385v-117l-121 -18l-303 -633h289v-111h-320v-237h320v-113h-320v-225h-196v225h-328v113h328v237h-328v111h295l-297 633z" />
<glyph unicode="&#xa6;" horiz-adv-x="786" d="M317 -274v815h148v-815h-148zM317 870v744h148v-744h-148z" />
<glyph unicode="&#xa7;" horiz-adv-x="1017" d="M63 479v131q0 104 49.5 172t145.5 111q-101 30 -148 91t-47 177v35q0 69 23.5 121t63.5 85t98 53t120 28t138 8q278 0 389 -90v-279h-129l-16 197q-77 47 -238 47q-65 0 -113 -7t-89.5 -24.5t-63 -51t-21.5 -83.5v-20q0 -26 4 -47t16 -37.5t22.5 -28t35.5 -22t41 -16.5 t54 -13.5t60 -11t73 -11t79 -12.5q183 -30 260.5 -92.5t77.5 -190.5v-131q0 -105 -49.5 -172.5t-144.5 -111.5q99 -31 146.5 -92t47.5 -175v-34q0 -69 -23.5 -121t-63 -85t-97.5 -53t-120 -28t-138 -8q-278 0 -389 90v278h129l16 -196q77 -47 238 -47q65 0 113 7t89 24 t62.5 50.5t21.5 83.5v21q0 24 -4.5 43t-11 34t-21 28t-26 21.5t-36 17t-41.5 13.5t-51 11t-56.5 9.5t-66 10t-71.5 11.5q-183 30 -260.5 92t-77.5 190zM233 508q0 -27 4.5 -48t16.5 -38t25 -29.5t38.5 -23t47.5 -17t60.5 -13.5t69.5 -11.5t83 -10.5q200 45 200 261v92 q0 124 -106 151q-81 21 -215 35q-106 -25 -165 -83t-59 -173v-92z" />
<glyph unicode="&#xa8;" horiz-adv-x="790" d="M72 1208v265h182v-265h-182zM537 1208v265h182v-265h-182z" />
<glyph unicode="&#xaa;" horiz-adv-x="737" d="M86 770v51q0 80 42 120t130 40q104 0 205 -37v84q0 49 -29.5 69.5t-91.5 20.5q-111 0 -186 -49l-39 92q95 62 245 62q123 0 174.5 -41.5t51.5 -141.5v-321q0 -43 35 -43q19 0 30 16l4 -69q-24 -27 -75 -27q-99 0 -107 104q-26 -48 -81.5 -77t-129.5 -29 q-91 0 -134.5 47.5t-43.5 128.5zM213 780q0 -47 20.5 -70.5t69.5 -23.5q95 0 160 76v115q-71 26 -158 26q-50 0 -71 -22t-21 -70v-31z" />
<glyph unicode="&#xab;" horiz-adv-x="921" d="M59 618v142l342 323v-145l-260 -248l260 -250v-143zM520 618v142l342 323v-145l-260 -248l260 -250v-143z" />
<glyph unicode="&#xac;" horiz-adv-x="1277" d="M72 907v170h1134v-1077h-168v907h-966z" />
<glyph unicode="&#xad;" horiz-adv-x="653" d="M63 600v145h527v-145h-527z" />
<glyph unicode="&#xaf;" horiz-adv-x="825" d="M72 1233v125h682v-125h-682z" />
<glyph unicode="&#xb0;" horiz-adv-x="776" d="M72 1126q0 157 77.5 252t237.5 95q161 0 239.5 -95.5t78.5 -251.5q0 -155 -79 -251.5t-239 -96.5q-82 0 -144 27t-98.5 75t-54.5 109.5t-18 136.5zM188 1126q0 -105 49 -170t150 -65t150 65t49 170t-49 170.5t-150 65.5t-150 -65.5t-49 -170.5z" />
<glyph unicode="&#xb1;" horiz-adv-x="1234" d="M115 31v135h1003v-135h-1003zM115 686v135h432v434h137v-434h434v-135h-434v-436h-137v436h-432z" />
<glyph unicode="&#xb2;" horiz-adv-x="600" d="M63 1432q102 61 242 61q232 0 232 -225q0 -60 -24 -115.5t-73 -108t-102 -95.5t-133 -99h248l12 102h78v-204h-477v108q59 39 92.5 62t91 70t89.5 84t57.5 87.5t25.5 97.5q0 62 -39.5 98t-103.5 36q-94 0 -181 -60z" />
<glyph unicode="&#xb3;" horiz-adv-x="573" d="M55 762l29 96q78 -31 160 -31q157 0 157 129q0 59 -33 89t-92 30h-77v86h80q112 0 112 107q0 63 -38.5 94t-106.5 31q-92 0 -160 -47l-31 92q83 55 207 55q119 0 177.5 -52.5t58.5 -148.5q0 -62 -30 -106.5t-83 -59.5q61 -15 94 -64t33 -120q0 -108 -68.5 -160.5 t-189.5 -52.5q-116 0 -199 33z" />
<glyph unicode="&#xb4;" horiz-adv-x="536" d="M72 1188l215 381h178l-277 -381h-116z" />
<glyph unicode="&#xb5;" horiz-adv-x="1265" d="M43 -350l133 18v1274l-115 19v116h424v-116l-127 -19v-690q46 -68 133 -107t179 -39q154 0 217 78.5t63 251.5v506l-127 19v116h400v-116l-115 -19v-504q0 -105 -10.5 -178.5t-35 -132t-68.5 -92t-108.5 -51t-156.5 -17.5q-111 0 -212 38.5t-159 117.5v-455l154 -18v-117 h-469v117z" />
<glyph unicode="&#xb6;" horiz-adv-x="1050" d="M41 1159q0 129 61.5 212t180.5 83h727v-115l-92 -14v-1665h-138v1661h-313v-1661h-139v1214h-45q-120 0 -181 78.5t-61 206.5z" />
<glyph unicode="&#xb7;" horiz-adv-x="352" d="M78 532v332h196v-332h-196z" />
<glyph unicode="&#xb8;" horiz-adv-x="360" d="M92 -442q66 79 90 170h-78v206h162v-184q0 -117 -116 -242z" />
<glyph unicode="&#xb9;" horiz-adv-x="407" d="M43 1335q91 63 156 140h86v-641l59 -13v-73h-244v73l70 13v485q-49 -42 -76 -57z" />
<glyph unicode="&#xba;" horiz-adv-x="710" d="M92 848v121q0 132 63 193t201 61q136 0 199 -61t63 -193v-121q0 -132 -63 -193t-199 -61q-138 0 -201 61t-63 193zM221 856q0 -92 29.5 -127t105.5 -35t106 35.5t30 126.5v105q0 90 -30.5 125.5t-105.5 35.5t-105 -35.5t-30 -125.5v-105z" />
<glyph unicode="&#xbb;" horiz-adv-x="921" d="M59 297v143l258 250l-258 248v145l342 -323v-142zM520 297v143l258 250l-258 248v145l342 -323v-142z" />
<glyph unicode="&#xbc;" horiz-adv-x="1261" d="M66 1335q88 61 155 140h86v-641l60 -13v-73h-244v73l70 13v485q-49 -42 -76 -57zM92 -43l885 1542h127l-887 -1542h-125zM674 109v110q153 240 237 500l101 -35q-34 -112 -96.5 -244.5t-127.5 -238.5h242v270h109v-270h57v-92h-57v-129h-111v129h-354z" />
<glyph unicode="&#xbd;" horiz-adv-x="1271" d="M66 1335q88 61 155 140h86v-641l60 -13v-73h-244v73l70 13v485q-49 -42 -76 -57zM72 -43l884 1542h127l-886 -1542h-125zM727 664q102 61 242 61q231 0 231 -225q0 -60 -24 -115.5t-73 -108t-102 -95.5t-133 -99h248l12 102h78v-204h-477v108q59 39 92.5 62t91 70 t89.5 84t57.5 87.5t25.5 97.5q0 62 -39.5 98t-103.5 36q-93 0 -180 -60z" />
<glyph unicode="&#xbe;" horiz-adv-x="1271" d="M66 762l28 96q78 -31 160 -31q72 0 115 31t43 98q0 59 -33 89t-92 30h-78v86h80q112 0 112 107q0 63 -38.5 94t-106.5 31q-92 0 -160 -47l-30 92q83 55 206 55q119 0 177.5 -52.5t58.5 -148.5q0 -62 -30 -106.5t-83 -59.5q61 -15 94 -64t33 -120q0 -108 -68.5 -160.5 t-189.5 -52.5q-115 0 -198 33zM102 -43l885 1542h127l-887 -1542h-125zM684 109v110q155 243 238 500l100 -35q-34 -112 -96 -245t-127 -238h241v270h109v-270h57v-92h-57v-129h-111v129h-354z" />
<glyph unicode="&#xbf;" horiz-adv-x="944" d="M72 332v86q0 111 43.5 173t146.5 107q107 46 141.5 82.5t34.5 106.5v108h164v-131q0 -101 -42.5 -148.5t-184.5 -109.5q-78 -34 -108.5 -75.5t-30.5 -129.5v-57q0 -120 67.5 -182t194.5 -62q146 0 231 82l16 189h127v-273q-120 -135 -378 -135q-204 0 -313 94.5 t-109 274.5zM424 1135v319h194v-319h-194z" />
<glyph unicode="&#xc0;" d="M37 0v115l125 20l358 1319h273l342 -1319l125 -20v-115h-465v115l129 20l-93 363h-423l-97 -363l129 -20v-115h-403zM389 1946h178l215 -381h-118zM440 618h361l-174 687z" />
<glyph unicode="&#xc1;" d="M37 0v115l125 20l358 1319h273l342 -1319l125 -20v-115h-465v115l129 20l-93 363h-423l-97 -363l129 -20v-115h-403zM440 618h361l-174 687zM512 1565l215 381h178l-276 -381h-117z" />
<glyph unicode="&#xc2;" d="M37 0v115l125 20l358 1319h273l342 -1319l125 -20v-115h-465v115l129 20l-93 363h-423l-97 -363l129 -20v-115h-403zM254 1563l324 360h141l321 -360h-143l-250 276l-250 -276h-143zM440 618h361l-174 687z" />
<glyph unicode="&#xc3;" d="M37 0v115l125 20l358 1319h273l342 -1319l125 -20v-115h-465v115l129 20l-93 363h-423l-97 -363l129 -20v-115h-403zM299 1583v123q73 92 182 92q56 0 114 -25t113 -50t103 -25q104 0 186 102v-123q-73 -92 -184 -92q-58 0 -117 25.5t-112.5 50.5t-98.5 25 q-109 0 -186 -103zM440 618h361l-174 687z" />
<glyph unicode="&#xc4;" d="M37 0v115l125 20l358 1319h273l342 -1319l125 -20v-115h-465v115l129 20l-93 363h-423l-97 -363l129 -20v-115h-403zM324 1585v264h182v-264h-182zM440 618h361l-174 687zM788 1585v264h183v-264h-183z" />
<glyph unicode="&#xc5;" d="M37 0v115l125 20l358 1319h273l342 -1319l125 -20v-115h-465v115l129 20l-93 363h-423l-97 -363l129 -20v-115h-403zM432 1735q0 211 221 211q115 0 168 -53.5t53 -157.5q0 -106 -52.5 -157.5t-168.5 -51.5q-221 0 -221 209zM440 618h361l-174 687zM520 1735 q0 -131 133 -131q70 0 102.5 32t32.5 99q0 135 -135 135q-133 0 -133 -135z" />
<glyph unicode="&#xc6;" horiz-adv-x="1818" d="M37 0v117l125 18l338 1319h1226v-403h-131l-26 260h-498v-490h406l20 150h113v-432h-113l-24 151h-402v-540h504l35 299h129v-449h-996v117l134 18v363h-420l-92 -363l129 -18v-117h-457zM487 618h390v693h-213z" />
<glyph unicode="&#xc7;" horiz-adv-x="1134" d="M72 578v299q0 176 31 292.5t103 188.5t179.5 102.5t269.5 30.5q123 0 235.5 -34.5t174.5 -102.5v-305h-139l-17 206q-40 48 -113 70.5t-155 22.5q-205 0 -287 -106t-82 -365v-302q0 -257 80.5 -364t288.5 -107q181 0 272 99l17 203h139v-295q-145 -148 -414 -148 q-216 0 -340.5 57t-183.5 190.5t-59 367.5zM520 -442q66 79 90 170h-78v206h162v-184q0 -117 -116 -242z" />
<glyph unicode="&#xc8;" horiz-adv-x="1159" d="M72 0v115l133 20v1184l-133 20v115h995v-403h-127l-29 260h-512v-490h414l29 150h110v-432h-110l-29 151h-414v-540h519l34 299h127v-449h-1007zM342 1946h178l215 -381h-119z" />
<glyph unicode="&#xc9;" horiz-adv-x="1159" d="M72 0v115l133 20v1184l-133 20v115h995v-403h-127l-29 260h-512v-490h414l29 150h110v-432h-110l-29 151h-414v-540h519l34 299h127v-449h-1007zM465 1565l215 381h178l-276 -381h-117z" />
<glyph unicode="&#xca;" horiz-adv-x="1159" d="M72 0v115l133 20v1184l-133 20v115h995v-403h-127l-29 260h-512v-490h414l29 150h110v-432h-110l-29 151h-414v-540h519l34 299h127v-449h-1007zM186 1563l324 360h141l322 -360h-144l-249 276l-250 -276h-144z" />
<glyph unicode="&#xcb;" horiz-adv-x="1159" d="M72 0v115l133 20v1184l-133 20v115h995v-403h-127l-29 260h-512v-490h414l29 150h110v-432h-110l-29 151h-414v-540h519l34 299h127v-449h-1007zM256 1585v264h182v-264h-182zM721 1585v264h182v-264h-182z" />
<glyph unicode="&#xcc;" horiz-adv-x="606" d="M45 1946h178l215 -381h-119zM72 0v115l133 20v1184l-133 20v115h463v-115l-134 -20v-1184l134 -20v-115h-463z" />
<glyph unicode="&#xcd;" horiz-adv-x="606" d="M72 0v115l133 20v1184l-133 20v115h463v-115l-134 -20v-1184l134 -20v-115h-463zM168 1565l215 381h178l-276 -381h-117z" />
<glyph unicode="&#xce;" horiz-adv-x="606" d="M-90 1563l323 360h142l321 -360h-143l-250 276l-250 -276h-143zM72 0v115l133 20v1184l-133 20v115h463v-115l-134 -20v-1184l134 -20v-115h-463z" />
<glyph unicode="&#xcf;" horiz-adv-x="606" d="M-20 1585v264h182v-264h-182zM72 0v115l133 20v1184l-133 20v115h463v-115l-134 -20v-1184l134 -20v-115h-463zM444 1585v264h183v-264h-183z" />
<glyph unicode="&#xd0;" horiz-adv-x="1259" d="M72 0v115l133 20v555h-133v131h133v498l-133 20v115h614q270 0 386 -126.5t116 -424.5v-352q0 -298 -116 -424.5t-386 -126.5h-614zM401 139h285q162 0 232.5 92t70.5 314v325q0 244 -70 343.5t-233 99.5h-285v-492h289v-131h-289v-551z" />
<glyph unicode="&#xd1;" horiz-adv-x="1347" d="M72 0v117l133 18v1184l-133 18v117h366l574 -1122v987l-129 18v117h407v-117l-127 -18v-1319h-166l-641 1167v-1032l144 -18v-117h-428zM324 1583v123q73 92 182 92q56 0 114 -25t113 -50t103 -25q104 0 186 102v-123q-73 -92 -184 -92q-58 0 -117 25.5t-112.5 50.5 t-98.5 25q-109 0 -186 -103z" />
<glyph unicode="&#xd2;" horiz-adv-x="1236" d="M72 582v290q0 320 132.5 469.5t413.5 149.5q280 0 413.5 -150t133.5 -469v-290q0 -319 -133.5 -469t-413.5 -150q-281 0 -413.5 149.5t-132.5 469.5zM270 582q0 -258 81.5 -365.5t266.5 -107.5q184 0 266.5 107.5t82.5 365.5v290q0 256 -83 365t-266 109 q-184 0 -266 -109t-82 -365v-290zM360 1946h179l215 -381h-119z" />
<glyph unicode="&#xd3;" horiz-adv-x="1236" d="M72 582v290q0 320 132.5 469.5t413.5 149.5q280 0 413.5 -150t133.5 -469v-290q0 -319 -133.5 -469t-413.5 -150q-281 0 -413.5 149.5t-132.5 469.5zM270 582q0 -258 81.5 -365.5t266.5 -107.5q184 0 266.5 107.5t82.5 365.5v290q0 256 -83 365t-266 109 q-184 0 -266 -109t-82 -365v-290zM483 1565l215 381h179l-277 -381h-117z" />
<glyph unicode="&#xd4;" horiz-adv-x="1236" d="M72 582v290q0 320 132.5 469.5t413.5 149.5q280 0 413.5 -150t133.5 -469v-290q0 -319 -133.5 -469t-413.5 -150q-281 0 -413.5 149.5t-132.5 469.5zM225 1563l324 360h141l322 -360h-144l-250 276l-249 -276h-144zM270 582q0 -258 81.5 -365.5t266.5 -107.5 q184 0 266.5 107.5t82.5 365.5v290q0 256 -83 365t-266 109q-184 0 -266 -109t-82 -365v-290z" />
<glyph unicode="&#xd5;" horiz-adv-x="1236" d="M72 582v290q0 320 132.5 469.5t413.5 149.5q280 0 413.5 -150t133.5 -469v-290q0 -319 -133.5 -469t-413.5 -150q-281 0 -413.5 149.5t-132.5 469.5zM268 1583v123q73 92 183 92q56 0 113.5 -25t112.5 -50t103 -25q105 0 187 102v-123q-73 -92 -185 -92q-58 0 -117 25.5 t-112 50.5t-98 25q-110 0 -187 -103zM270 582q0 -258 81.5 -365.5t266.5 -107.5q184 0 266.5 107.5t82.5 365.5v290q0 256 -83 365t-266 109q-184 0 -266 -109t-82 -365v-290z" />
<glyph unicode="&#xd6;" horiz-adv-x="1236" d="M72 582v290q0 320 132.5 469.5t413.5 149.5q280 0 413.5 -150t133.5 -469v-290q0 -319 -133.5 -469t-413.5 -150q-281 0 -413.5 149.5t-132.5 469.5zM270 582q0 -258 81.5 -365.5t266.5 -107.5q184 0 266.5 107.5t82.5 365.5v290q0 256 -83 365t-266 109 q-184 0 -266 -109t-82 -365v-290zM295 1585v264h182v-264h-182zM760 1585v264h182v-264h-182z" />
<glyph unicode="&#xd7;" horiz-adv-x="1273" d="M229 444l308 310l-306 305l97 96l307 -305l305 305l96 -96l-305 -305l307 -310l-96 -96l-307 307l-309 -307z" />
<glyph unicode="&#xd8;" horiz-adv-x="1236" d="M72 -154l137 260q-137 152 -137 476v290q0 320 132.5 469.5t413.5 149.5q175 0 293 -59l95 176h159l-139 -260q139 -154 139 -476v-290q0 -319 -133.5 -469t-413.5 -150q-176 0 -296 60l-95 -177h-155zM270 582q0 -186 39 -287l527 991q-80 60 -218 60q-184 0 -266 -109 t-82 -365v-290zM399 168q73 -59 219 -59q184 0 266.5 107.5t82.5 365.5v290q0 176 -41 285z" />
<glyph unicode="&#xd9;" horiz-adv-x="1398" d="M55 1337v117h447v-117l-129 -18v-846q0 -195 76.5 -273.5t259.5 -78.5q101 0 166 18t104 61.5t54.5 108t15.5 164.5v846l-127 18v117h421v-117l-118 -18v-825q0 -101 -8.5 -173.5t-30.5 -135t-59.5 -102t-97 -68t-141.5 -40.5t-194 -12q-152 0 -251.5 28t-160.5 93.5 t-85.5 163t-24.5 246.5v825zM440 1946h178l216 -381h-119z" />
<glyph unicode="&#xda;" horiz-adv-x="1398" d="M55 1337v117h447v-117l-129 -18v-846q0 -195 76.5 -273.5t259.5 -78.5q101 0 166 18t104 61.5t54.5 108t15.5 164.5v846l-127 18v117h421v-117l-118 -18v-825q0 -101 -8.5 -173.5t-30.5 -135t-59.5 -102t-97 -68t-141.5 -40.5t-194 -12q-152 0 -251.5 28t-160.5 93.5 t-85.5 163t-24.5 246.5v825zM563 1565l215 381h178l-276 -381h-117z" />
<glyph unicode="&#xdb;" horiz-adv-x="1398" d="M55 1337v117h447v-117l-129 -18v-846q0 -195 76.5 -273.5t259.5 -78.5q101 0 166 18t104 61.5t54.5 108t15.5 164.5v846l-127 18v117h421v-117l-118 -18v-825q0 -101 -8.5 -173.5t-30.5 -135t-59.5 -102t-97 -68t-141.5 -40.5t-194 -12q-152 0 -251.5 28t-160.5 93.5 t-85.5 163t-24.5 246.5v825zM305 1563l324 360h141l322 -360h-144l-250 276l-249 -276h-144z" />
<glyph unicode="&#xdc;" horiz-adv-x="1398" d="M55 1337v117h447v-117l-129 -18v-846q0 -195 76.5 -273.5t259.5 -78.5q101 0 166 18t104 61.5t54.5 108t15.5 164.5v846l-127 18v117h421v-117l-118 -18v-825q0 -101 -8.5 -173.5t-30.5 -135t-59.5 -102t-97 -68t-141.5 -40.5t-194 -12q-152 0 -251.5 28t-160.5 93.5 t-85.5 163t-24.5 246.5v825zM375 1585v264h182v-264h-182zM840 1585v264h182v-264h-182z" />
<glyph unicode="&#xdd;" horiz-adv-x="1193" d="M37 1337v117h442v-117l-121 -18l265 -580l270 580l-121 18v117h385v-117l-121 -18l-344 -723v-461l150 -18v-117h-496v117l150 18v461l-340 723zM481 1565l215 381h178l-276 -381h-117z" />
<glyph unicode="&#xde;" horiz-adv-x="1175" d="M72 0v115l133 20v1184l-133 20v115h467v-115l-140 -20v-154h326q214 0 304.5 -101t90.5 -339t-90.5 -339t-304.5 -101h-326v-150l140 -20v-115h-467zM399 408h295q128 0 182 72t54 245q0 174 -54 245.5t-182 71.5h-295v-634z" />
<glyph unicode="&#xdf;" horiz-adv-x="1429" d="M45 0v117l133 18v1063q0 76 17 129t45.5 85t78 49.5t102.5 23.5t130 6q64 0 110 -4t91.5 -15t75 -31.5t53 -52.5t34.5 -79.5t11 -110.5v-307q0 -126 194 -193q66 -23 107 -45t75 -57t49 -85.5t15 -123.5v-123q0 -301 -373 -301q-223 0 -358 113v256h141l15 -178 q88 -60 210 -60q97 0 154 48t57 147v49q0 68 -11.5 102.5t-51.5 69.5q-18 16 -46 29.5t-70.5 30t-71.5 30.5q-49 24 -83 46.5t-67.5 56t-50.5 79.5t-17 103v313q0 95 -41.5 129.5t-150.5 34.5q-101 0 -147 -34t-46 -132v-1061l119 -18v-117h-432z" />
<glyph unicode="&#xe0;" horiz-adv-x="1114" d="M53 285v92q0 146 76.5 217.5t237.5 71.5q226 0 407 -80v172q0 107 -60 155t-194 48q-213 0 -358 -99l-56 131q163 113 441 113q216 0 308.5 -76t92.5 -254v-618q0 -78 66 -78q43 0 65 39l8 -99q-32 -53 -122 -53q-87 0 -132 47.5t-45 159.5q-48 -94 -153 -152.5 t-254 -58.5q-170 0 -249 86t-79 236zM229 299q0 -101 47 -153t158 -52q213 0 340 174v219q-144 70 -342 70q-107 0 -155 -48t-48 -147v-63zM299 1569h178l215 -381h-119z" />
<glyph unicode="&#xe1;" horiz-adv-x="1114" d="M53 285v92q0 146 76.5 217.5t237.5 71.5q226 0 407 -80v172q0 107 -60 155t-194 48q-213 0 -358 -99l-56 131q163 113 441 113q216 0 308.5 -76t92.5 -254v-618q0 -78 66 -78q43 0 65 39l8 -99q-32 -53 -122 -53q-87 0 -132 47.5t-45 159.5q-48 -94 -153 -152.5 t-254 -58.5q-170 0 -249 86t-79 236zM229 299q0 -101 47 -153t158 -52q213 0 340 174v219q-144 70 -342 70q-107 0 -155 -48t-48 -147v-63zM422 1188l215 381h178l-276 -381h-117z" />
<glyph unicode="&#xe2;" horiz-adv-x="1114" d="M53 285v92q0 146 76.5 217.5t237.5 71.5q226 0 407 -80v172q0 107 -60 155t-194 48q-213 0 -358 -99l-56 131q163 113 441 113q216 0 308.5 -76t92.5 -254v-618q0 -78 66 -78q43 0 65 39l8 -99q-32 -53 -122 -53q-87 0 -132 47.5t-45 159.5q-48 -94 -153 -152.5 t-254 -58.5q-170 0 -249 86t-79 236zM164 1186l323 360h142l321 -360h-143l-250 276l-250 -276h-143zM229 299q0 -101 47 -153t158 -52q213 0 340 174v219q-144 70 -342 70q-107 0 -155 -48t-48 -147v-63z" />
<glyph unicode="&#xe3;" horiz-adv-x="1114" d="M53 285v92q0 146 76.5 217.5t237.5 71.5q226 0 407 -80v172q0 107 -60 155t-194 48q-213 0 -358 -99l-56 131q163 113 441 113q216 0 308.5 -76t92.5 -254v-618q0 -78 66 -78q43 0 65 39l8 -99q-32 -53 -122 -53q-87 0 -132 47.5t-45 159.5q-48 -94 -153 -152.5 t-254 -58.5q-170 0 -249 86t-79 236zM207 1206v123q73 92 182 92q56 0 114 -25t113 -50t103 -25q104 0 186 102v-123q-73 -92 -184 -92q-46 0 -93.5 16t-81 34.5t-75.5 34.5t-78 16q-109 0 -186 -103zM229 299q0 -101 47 -153t158 -52q213 0 340 174v219q-144 70 -342 70 q-107 0 -155 -48t-48 -147v-63z" />
<glyph unicode="&#xe4;" horiz-adv-x="1114" d="M53 285v92q0 146 76.5 217.5t237.5 71.5q226 0 407 -80v172q0 107 -60 155t-194 48q-213 0 -358 -99l-56 131q163 113 441 113q216 0 308.5 -76t92.5 -254v-618q0 -78 66 -78q43 0 65 39l8 -99q-32 -53 -122 -53q-87 0 -132 47.5t-45 159.5q-48 -94 -153 -152.5 t-254 -58.5q-170 0 -249 86t-79 236zM229 299q0 -101 47 -153t158 -52q213 0 340 174v219q-144 70 -342 70q-107 0 -155 -48t-48 -147v-63zM233 1208v265h183v-265h-183zM698 1208v265h183v-265h-183z" />
<glyph unicode="&#xe5;" horiz-adv-x="1114" d="M53 285v92q0 146 76.5 217.5t237.5 71.5q226 0 407 -80v172q0 107 -60 155t-194 48q-213 0 -358 -99l-56 131q163 113 441 113q216 0 308.5 -76t92.5 -254v-618q0 -78 66 -78q43 0 65 39l8 -99q-32 -53 -122 -53q-87 0 -132 47.5t-45 159.5q-48 -94 -153 -152.5 t-254 -58.5q-170 0 -249 86t-79 236zM229 299q0 -101 47 -153t158 -52q213 0 340 174v219q-144 70 -342 70q-107 0 -155 -48t-48 -147v-63zM336 1358q0 211 221 211q115 0 168 -53.5t53 -157.5q0 -106 -52.5 -157.5t-168.5 -51.5q-221 0 -221 209zM424 1358q0 -131 133 -131 q70 0 102.5 32t32.5 99q0 135 -135 135q-133 0 -133 -135z" />
<glyph unicode="&#xe6;" horiz-adv-x="1738" d="M53 285v92q0 146 76.5 217.5t237.5 71.5q224 0 407 -80v172q0 115 -60.5 159t-193.5 44q-213 0 -358 -99l-56 131q163 111 431 111q163 0 245.5 -43t100.5 -156q57 199 350 199q108 0 184.5 -21.5t126 -60.5t77.5 -104t39 -141t11 -183v-107h-721q0 -378 326 -378 q229 0 313 135l72 -99q-97 -180 -399 -180q-173 0 -276 64.5t-152 187.5q-36 -83 -112.5 -142t-163.5 -85.5t-177 -26.5q-170 0 -249 86t-79 236zM229 299q0 -101 47 -153t158 -52q117 0 210 58t130 143v192q-144 70 -342 70q-107 0 -155 -48t-48 -147v-63zM950 604h555v55 q0 163 -59.5 241.5t-214.5 78.5q-149 0 -215 -77.5t-66 -233.5v-64z" />
<glyph unicode="&#xe7;" horiz-adv-x="995" d="M63 426v236q0 205 114 324.5t345 119.5q266 0 393 -135v-273h-141l-14 189q-79 82 -230 82q-145 0 -216.5 -81t-71.5 -231v-231q0 -149 80 -229t237 -80q101 0 185 46.5t133 139.5l71 -108q-63 -115 -168 -173.5t-235 -58.5q-238 0 -360 120t-122 343zM430 -442 q66 79 90 170h-78v206h162v-184q0 -116 -117 -242z" />
<glyph unicode="&#xe8;" horiz-adv-x="1032" d="M68 451v159q0 257 104 376.5t350 119.5q108 0 186 -21.5t127.5 -61t78.5 -105t40 -141.5t11 -183v-107h-723v-36q0 -162 82 -252t245 -90q117 0 187.5 34.5t132.5 112.5l65 -111q-101 -182 -409 -182q-122 0 -215 36t-149.5 102t-84.5 154t-28 196zM242 604h557 q0 78 -5.5 130.5t-22 102.5t-46 79t-80 46t-121.5 17q-86 0 -142 -24t-86.5 -74.5t-42 -115.5t-11.5 -161zM258 1569h178l215 -381h-119z" />
<glyph unicode="&#xe9;" horiz-adv-x="1032" d="M68 451v159q0 257 104 376.5t350 119.5q108 0 186 -21.5t127.5 -61t78.5 -105t40 -141.5t11 -183v-107h-723v-36q0 -162 82 -252t245 -90q117 0 187.5 34.5t132.5 112.5l65 -111q-101 -182 -409 -182q-122 0 -215 36t-149.5 102t-84.5 154t-28 196zM242 604h557 q0 78 -5.5 130.5t-22 102.5t-46 79t-80 46t-121.5 17q-86 0 -142 -24t-86.5 -74.5t-42 -115.5t-11.5 -161zM381 1188l215 381h178l-276 -381h-117z" />
<glyph unicode="&#xea;" horiz-adv-x="1032" d="M68 451v159q0 257 104 376.5t350 119.5q108 0 186 -21.5t127.5 -61t78.5 -105t40 -141.5t11 -183v-107h-723v-36q0 -162 82 -252t245 -90q117 0 187.5 34.5t132.5 112.5l65 -111q-101 -182 -409 -182q-122 0 -215 36t-149.5 102t-84.5 154t-28 196zM123 1186l323 360h142 l321 -360h-143l-250 276l-250 -276h-143zM242 604h557q0 78 -5.5 130.5t-22 102.5t-46 79t-80 46t-121.5 17q-86 0 -142 -24t-86.5 -74.5t-42 -115.5t-11.5 -161z" />
<glyph unicode="&#xeb;" horiz-adv-x="1032" d="M68 451v159q0 257 104 376.5t350 119.5q108 0 186 -21.5t127.5 -61t78.5 -105t40 -141.5t11 -183v-107h-723v-36q0 -162 82 -252t245 -90q117 0 187.5 34.5t132.5 112.5l65 -111q-101 -182 -409 -182q-122 0 -215 36t-149.5 102t-84.5 154t-28 196zM193 1208v265h182 v-265h-182zM242 604h557q0 78 -5.5 130.5t-22 102.5t-46 79t-80 46t-121.5 17q-86 0 -142 -24t-86.5 -74.5t-42 -115.5t-11.5 -161zM657 1208v265h183v-265h-183z" />
<glyph unicode="&#xec;" horiz-adv-x="561" d="M23 1569h178l215 -381h-119zM59 0v117l134 18v807l-134 19v116h316v-942l133 -18v-117h-449z" />
<glyph unicode="&#xed;" horiz-adv-x="561" d="M59 0v117l134 18v807l-134 19v116h316v-942l133 -18v-117h-449zM145 1188l215 381h179l-277 -381h-117z" />
<glyph unicode="&#xee;" horiz-adv-x="718" d="M-37 1186l324 360h141l322 -360h-144l-250 276l-250 -276h-143zM135 0v117l133 18v807l-133 19v116h316v-942l133 -18v-117h-449z" />
<glyph unicode="&#xef;" horiz-adv-x="591" d="M-31 1208v265h183v-265h-183zM72 0v117l133 18v807l-133 19v116h315v-942l133 -18v-117h-448zM434 1208v265h182v-265h-182z" />
<glyph unicode="&#xf0;" horiz-adv-x="1079" d="M63 389v205q0 91 19 155t52.5 103.5t90.5 62t120 30t155 7.5q230 0 315 -164q-17 218 -121 437l-291 -135l-51 108l283 131q-54 88 -119 150l127 45q71 -68 123 -133l176 82l49 -109l-155 -74q180 -301 180 -735v-166q0 -228 -113 -327t-362 -99q-247 0 -362.5 99.5 t-115.5 326.5zM246 414q0 -168 68 -240t227 -72q153 0 225 65t72 212v207q-29 121 -99.5 181t-206.5 60q-152 0 -219 -50t-67 -189v-174z" />
<glyph unicode="&#xf1;" horiz-adv-x="1335" d="M59 0v117l134 18v807l-134 19v116h293l10 -172q91 108 203 154.5t271 46.5t237 -70t78 -215v-686l133 -18v-117h-448v117l133 18v649q0 91 -52 132.5t-153 41.5q-260 0 -389 -172v-651l133 -18v-117h-449zM317 1206v123q73 92 183 92q56 0 113.5 -25t112.5 -50t103 -25 q105 0 187 102v-123q-73 -92 -185 -92q-46 0 -93.5 16t-80.5 34.5t-75 34.5t-78 16q-110 0 -187 -103z" />
<glyph unicode="&#xf2;" horiz-adv-x="1064" d="M63 426v219q0 240 112 350.5t357 110.5t357 -110.5t112 -350.5v-219q0 -242 -111.5 -352.5t-357.5 -110.5t-357.5 110.5t-111.5 352.5zM242 436q0 -183 65.5 -257.5t224.5 -74.5t225 75t66 257v197q0 181 -66.5 256.5t-224.5 75.5t-224 -75.5t-66 -256.5v-197zM274 1569 h179l215 -381h-119z" />
<glyph unicode="&#xf3;" horiz-adv-x="1064" d="M63 426v219q0 240 112 350.5t357 110.5t357 -110.5t112 -350.5v-219q0 -242 -111.5 -352.5t-357.5 -110.5t-357.5 110.5t-111.5 352.5zM242 436q0 -183 65.5 -257.5t224.5 -74.5t225 75t66 257v197q0 181 -66.5 256.5t-224.5 75.5t-224 -75.5t-66 -256.5v-197zM397 1188 l215 381h179l-277 -381h-117z" />
<glyph unicode="&#xf4;" horiz-adv-x="1064" d="M63 426v219q0 240 112 350.5t357 110.5t357 -110.5t112 -350.5v-219q0 -242 -111.5 -352.5t-357.5 -110.5t-357.5 110.5t-111.5 352.5zM139 1186l324 360h141l322 -360h-144l-250 276l-249 -276h-144zM242 436q0 -183 65.5 -257.5t224.5 -74.5t225 75t66 257v197 q0 181 -66.5 256.5t-224.5 75.5t-224 -75.5t-66 -256.5v-197z" />
<glyph unicode="&#xf5;" horiz-adv-x="1064" d="M63 426v219q0 240 112 350.5t357 110.5t357 -110.5t112 -350.5v-219q0 -242 -111.5 -352.5t-357.5 -110.5t-357.5 110.5t-111.5 352.5zM182 1206v123q73 92 183 92q56 0 113.5 -25t112.5 -50t103 -25q105 0 187 102v-123q-73 -92 -185 -92q-46 0 -93.5 16t-80.5 34.5 t-75 34.5t-78 16q-110 0 -187 -103zM242 436q0 -183 65.5 -257.5t224.5 -74.5t225 75t66 257v197q0 181 -66.5 256.5t-224.5 75.5t-224 -75.5t-66 -256.5v-197z" />
<glyph unicode="&#xf6;" horiz-adv-x="1064" d="M63 426v219q0 240 112 350.5t357 110.5t357 -110.5t112 -350.5v-219q0 -242 -111.5 -352.5t-357.5 -110.5t-357.5 110.5t-111.5 352.5zM209 1208v265h182v-265h-182zM242 436q0 -183 65.5 -257.5t224.5 -74.5t225 75t66 257v197q0 181 -66.5 256.5t-224.5 75.5 t-224 -75.5t-66 -256.5v-197zM674 1208v265h182v-265h-182z" />
<glyph unicode="&#xf7;" horiz-adv-x="1234" d="M115 686v135h1003v-135h-1003zM518 190v332h197v-332h-197zM518 985v332h197v-332h-197z" />
<glyph unicode="&#xf8;" horiz-adv-x="1064" d="M63 -154l121 217q-121 107 -121 363v219q0 240 112 350.5t357 110.5q129 0 224 -31l88 156h157l-127 -223q127 -109 127 -363v-219q0 -242 -111.5 -352.5t-357.5 -110.5q-141 0 -229 33l-84 -150h-156zM242 436q0 -142 34 -211l404 717q-64 23 -148 23q-158 0 -224 -75.5 t-66 -256.5v-197zM379 129q57 -25 153 -25q159 0 225 75t66 257v197q0 139 -39 213z" />
<glyph unicode="&#xf9;" horiz-adv-x="1220" d="M45 961v116h422v-116l-127 -19v-608q0 -121 66.5 -172t218.5 -51t216 51.5t64 171.5v608l-129 19v116h400v-116l-113 -19v-610q0 -195 -107 -282t-340 -87q-235 0 -346.5 87.5t-111.5 281.5v610zM352 1569h178l215 -381h-118z" />
<glyph unicode="&#xfa;" horiz-adv-x="1220" d="M45 961v116h422v-116l-127 -19v-608q0 -121 66.5 -172t218.5 -51t216 51.5t64 171.5v608l-129 19v116h400v-116l-113 -19v-610q0 -195 -107 -282t-340 -87q-235 0 -346.5 87.5t-111.5 281.5v610zM475 1188l215 381h178l-276 -381h-117z" />
<glyph unicode="&#xfb;" horiz-adv-x="1220" d="M45 961v116h422v-116l-127 -19v-608q0 -121 66.5 -172t218.5 -51t216 51.5t64 171.5v608l-129 19v116h400v-116l-113 -19v-610q0 -195 -107 -282t-340 -87q-235 0 -346.5 87.5t-111.5 281.5v610zM217 1186l324 360h141l322 -360h-144l-250 276l-250 -276h-143z" />
<glyph unicode="&#xfc;" horiz-adv-x="1220" d="M45 961v116h422v-116l-127 -19v-608q0 -121 66.5 -172t218.5 -51t216 51.5t64 171.5v608l-129 19v116h400v-116l-113 -19v-610q0 -195 -107 -282t-340 -87q-235 0 -346.5 87.5t-111.5 281.5v610zM287 1208v265h182v-265h-182zM752 1208v265h182v-265h-182z" />
<glyph unicode="&#xfd;" horiz-adv-x="1153" d="M23 -393l47 133q37 -35 76 -51.5t102 -16.5q69 0 113 42t92 163l36 92l-342 977l-118 15v116h428v-116l-119 -15l254 -784l262 784l-117 15v116h385v-116l-118 -15l-353 -987q-29 -81 -51.5 -136.5t-50.5 -110t-56.5 -87.5t-64 -60t-78.5 -38.5t-96 -11.5q-164 0 -231 92 zM461 1188l215 381h178l-276 -381h-117z" />
<glyph unicode="&#xfe;" horiz-adv-x="1157" d="M2 -352l133 20v1669l-133 21v115h315v-558q68 95 173 143t233 48q193 0 280 -112.5t87 -348.5v-207q0 -253 -90 -363t-308 -110q-112 0 -215.5 39.5t-159.5 118.5v-455l154 -20v-115h-469v115zM317 252q46 -68 133 -107t179 -39q155 0 217.5 77.5t62.5 252.5v172 q0 184 -59 268.5t-197 84.5q-110 0 -199 -48.5t-137 -140.5v-520z" />
<glyph unicode="&#xff;" horiz-adv-x="1153" d="M23 -393l47 133q37 -35 76 -51.5t102 -16.5q69 0 113 42t92 163l36 92l-342 977l-118 15v116h428v-116l-119 -15l254 -784l262 784l-117 15v116h385v-116l-118 -15l-353 -987q-29 -81 -51.5 -136.5t-50.5 -110t-56.5 -87.5t-64 -60t-78.5 -38.5t-96 -11.5q-164 0 -231 92 zM272 1208v265h183v-265h-183zM737 1208v265h183v-265h-183z" />
<glyph unicode="&#x152;" horiz-adv-x="1806" d="M72 551v352q0 298 116 424.5t385 126.5h1141v-403h-129l-26 260h-492v-490h393l27 150h112v-432h-112l-27 151h-393v-540h498l32 299h129v-449h-1153q-269 0 -385 126.5t-116 424.5zM270 545q0 -218 75 -312t228 -94h299v1174h-299q-161 0 -232 -90t-71 -314v-364z" />
<glyph unicode="&#x153;" horiz-adv-x="1792" d="M63 426v219q0 234 108.5 345.5t342.5 111.5q314 0 401 -205q39 106 127 157.5t240 51.5q109 0 187 -22t127.5 -61t78 -104.5t39 -141.5t10.5 -183v-107h-720q0 -175 78 -276.5t247 -101.5q140 0 208.5 27t111.5 120l65 -111q-98 -182 -407 -182q-292 0 -383 219 q-38 -113 -134 -166t-258 -53q-246 0 -357.5 110.5t-111.5 352.5zM242 436q0 -183 65.5 -257.5t224.5 -74.5t225 75t66 257v197q0 181 -66.5 256.5t-224.5 75.5t-224 -75.5t-66 -256.5v-197zM1004 604h555v55q0 162 -60 241t-215 79q-149 0 -214.5 -77.5t-65.5 -233.5v-64z " />
<glyph unicode="&#x178;" horiz-adv-x="1193" d="M37 1337v117h442v-117l-121 -18l265 -580l270 580l-121 18v117h385v-117l-121 -18l-344 -723v-461l150 -18v-117h-496v117l150 18v461l-340 723zM293 1585v264h182v-264h-182zM758 1585v264h182v-264h-182z" />
<glyph unicode="&#x2c6;" horiz-adv-x="929" d="M72 1186l323 360h142l321 -360h-143l-250 276l-250 -276h-143z" />
<glyph unicode="&#x2dc;" horiz-adv-x="841" d="M72 1206v123q73 92 182 92q56 0 114 -25t113 -50t103 -25q104 0 186 102v-123q-73 -92 -184 -92q-46 0 -93.5 16t-81 34.5t-75.5 34.5t-78 16q-109 0 -186 -103z" />
<glyph unicode="&#x2000;" horiz-adv-x="973" />
<glyph unicode="&#x2001;" horiz-adv-x="1946" />
<glyph unicode="&#x2002;" horiz-adv-x="973" />
<glyph unicode="&#x2003;" horiz-adv-x="1946" />
<glyph unicode="&#x2004;" horiz-adv-x="648" />
<glyph unicode="&#x2005;" horiz-adv-x="486" />
<glyph unicode="&#x2006;" horiz-adv-x="324" />
<glyph unicode="&#x2007;" horiz-adv-x="324" />
<glyph unicode="&#x2008;" horiz-adv-x="243" />
<glyph unicode="&#x2009;" horiz-adv-x="389" />
<glyph unicode="&#x200a;" horiz-adv-x="108" />
<glyph unicode="&#x2010;" horiz-adv-x="653" d="M63 600v145h527v-145h-527z" />
<glyph unicode="&#x2011;" horiz-adv-x="653" d="M63 600v145h527v-145h-527z" />
<glyph unicode="&#x2012;" horiz-adv-x="653" d="M63 600v145h527v-145h-527z" />
<glyph unicode="&#x2013;" horiz-adv-x="1073" d="M63 600v145h949v-145h-949z" />
<glyph unicode="&#x2014;" horiz-adv-x="1468" d="M63 600v145h1342v-145h-1342z" />
<glyph unicode="&#x2018;" horiz-adv-x="370" d="M88 1130v343h199v-332h-109q24 -89 111 -199l-60 -61q-105 111 -141 249z" />
<glyph unicode="&#x2019;" horiz-adv-x="370" d="M86 942q87 110 111 199h-109v332h199v-343q-36 -136 -142 -249z" />
<glyph unicode="&#x201a;" horiz-adv-x="370" d="M86 -199q86 109 111 199h-109v332h199v-340q-36 -138 -142 -250z" />
<glyph unicode="&#x201c;" horiz-adv-x="741" d="M88 1130v343h199v-332h-109q24 -89 111 -199l-60 -61q-105 111 -141 249zM459 1130v343h198v-332h-108q25 -91 110 -199l-59 -61q-105 111 -141 249z" />
<glyph unicode="&#x201d;" horiz-adv-x="741" d="M86 942q87 110 111 199h-109v332h199v-343q-36 -136 -142 -249zM457 942q85 108 110 199h-108v332h198v-343q-36 -138 -141 -249z" />
<glyph unicode="&#x201e;" horiz-adv-x="741" d="M86 -199q86 109 111 199h-109v332h199v-340q-36 -138 -142 -250zM457 -199q84 107 110 199h-108v332h198v-340q-36 -139 -141 -250z" />
<glyph unicode="&#x2022;" horiz-adv-x="647" d="M72 752q0 113 66.5 182.5t185.5 69.5q120 0 185.5 -69t65.5 -183q0 -110 -66 -180t-185 -70q-118 0 -185 70.5t-67 179.5z" />
<glyph unicode="&#x2026;" horiz-adv-x="1761" d="M78 0v332h196v-332h-196zM782 0v332h197v-332h-197zM1487 0v332h196v-332h-196z" />
<glyph unicode="&#x202f;" horiz-adv-x="389" />
<glyph unicode="&#x2039;" horiz-adv-x="460" d="M59 618v142l342 323v-145l-260 -248l260 -250v-143z" />
<glyph unicode="&#x203a;" horiz-adv-x="460" d="M59 297v143l258 250l-258 248v145l342 -323v-142z" />
<glyph unicode="&#x205f;" horiz-adv-x="486" />
<glyph unicode="&#x20ac;" horiz-adv-x="1118" d="M27 487l20 103h117v260h-137l20 102h119q17 277 150 408t395 131q210 0 344 -82l-56 -131q-110 68 -288 68q-170 0 -253 -91.5t-93 -302.5h507l-43 -102h-467v-260h365l-43 -103h-317q12 -203 94.5 -290.5t249.5 -87.5q196 0 305 77l71 -120q-142 -103 -376 -103 q-258 0 -392 127t-151 397h-141z" />
<glyph unicode="&#x2122;" horiz-adv-x="1837" d="M74 1110v344h649v-344h-86l-14 252h-164v-690l88 -13v-71h-297v71l86 13v690h-162l-14 -252h-86zM801 588v71l78 13v696l-78 14v72h270l215 -727l219 727h256v-72l-78 -14v-696l78 -13v-71h-264v71l78 13v680l-236 -764h-127l-229 764v-680l76 -13v-71h-258z" />
<glyph unicode="&#x25fc;" horiz-adv-x="1075" d="M0 0v1075h1075v-1075h-1075z" />
<glyph unicode="&#xfb01;" horiz-adv-x="1263" d="M43 954v123h152v135q0 150 71.5 214.5t218.5 64.5q148 0 215 -43l-20 -117q-54 31 -139 31q-83 0 -124.5 -38t-41.5 -124v-123h295v-123h-295v-819l153 -18v-117h-467v117l134 18v819h-152zM762 0v117l133 18v807l-133 19v116h315v-942l133 -18v-117h-448zM893 1208v265 h182v-265h-182z" />
<glyph unicode="&#xfb02;" horiz-adv-x="1294" d="M43 954v123h152v135q0 150 71.5 214.5t218.5 64.5q148 0 215 -43l-20 -117q-54 31 -139 31q-83 0 -124.5 -38t-41.5 -124v-123h295v-123h-295v-819l153 -18v-117h-467v117l134 18v819h-152zM793 0v117l133 18v1202l-133 19v117h315v-1338l133 -18v-117h-448z" />
</font>
</defs>
</svg>
