<?xml version="1.0" standalone="no"?>
<!DOCTYPE svg PUBLIC "-//W3C//DTD SVG 1.1//EN" "http://www.w3.org/Graphics/SVG/1.1/DTD/svg11.dtd" >
<svg xmlns="http://www.w3.org/2000/svg">
<metadata></metadata>
<defs>
<font id="vectipede_rgbold_italic" horiz-adv-x="1118" >
<font-face units-per-em="2048" ascent="1556" descent="-492" />
<missing-glyph horiz-adv-x="579" />
<glyph unicode="&#x28;C&#x29;" horiz-adv-x="1294" d="M133 350q0 74 19 174l71 406q53 302 217 431.5t469 129.5q259 0 382.5 -91.5t123.5 -299.5q0 -69 -16 -170l-72 -406q-55 -302 -219 -431.5t-469 -129.5q-259 0 -382.5 91t-123.5 296zM287 389q0 -154 91.5 -216t287.5 -62q223 0 350 102t164 311l71 406q13 76 13 127 q0 157 -92 220.5t-289 63.5q-228 0 -350.5 -99t-159.5 -312l-72 -406q-17 -85 -14 -135zM461 537q0 51 12 118l29 162q32 184 118 257t263 73q66 0 125.5 -21t89.5 -59l-27 -160h-133l6 94q-16 10 -24.5 14.5t-26.5 8.5t-43 4q-79 0 -119.5 -52t-60.5 -159l-35 -190 q-8 -39 -8 -76q0 -61 29 -85t92 -24q64 0 104 29l27 94h133l-27 -153q-105 -86 -246 -86q-148 0 -213 47.5t-65 163.5z" />
<glyph unicode="&#x28;R&#x29;" horiz-adv-x="1294" d="M133 350q0 74 19 174l71 406q53 302 217 431.5t469 129.5q259 0 382.5 -91.5t123.5 -299.5q0 -69 -16 -170l-72 -406q-55 -302 -219 -431.5t-469 -129.5q-259 0 -382.5 91t-123.5 296zM287 389q0 -154 91.5 -216t287.5 -62q223 0 350 102t164 311l71 406q13 76 13 127 q0 157 -92 220.5t-289 63.5q-226 0 -349.5 -99t-160.5 -312l-72 -406q-17 -85 -14 -135zM393 346l19 98l59 13l98 561l-55 12l18 98h386q169 0 169 -135q0 -17 -4 -49l-10 -57q-21 -112 -112 -144q37 -14 56 -37.5t19 -70.5q0 -15 -4 -51l-22 -127l57 -13l-18 -98h-136 q-41 0 -57 12t-16 41q0 11 4 39l28 156q5 35 5 37q0 32 -15 43.5t-51 11.5h-139l-41 -229l57 -13l-18 -98h-277zM690 791h135q37 0 60.5 23.5t29.5 64.5l7 39q2 10 2 30q0 62 -66 62h-131z" />
<glyph horiz-adv-x="2048" />
<glyph horiz-adv-x="2048" />
<glyph unicode="&#xd;" horiz-adv-x="2048" />
<glyph horiz-adv-x="579" />
<glyph unicode=" "  horiz-adv-x="579" />
<glyph unicode="&#x09;" horiz-adv-x="579" />
<glyph unicode="&#xa0;" horiz-adv-x="579" />
<glyph unicode="!" horiz-adv-x="456" d="M74 0l55 319h305l-55 -319h-305zM225 436q0 342 19 554.5t86 463.5h313q-27 -248 -83 -456.5t-177 -561.5h-158z" />
<glyph unicode="&#x22;" horiz-adv-x="729" d="M221 907l96 547h228l-96 -547h-228zM594 907l96 547h228l-97 -547h-227z" />
<glyph unicode="#" horiz-adv-x="1157" d="M127 412l55 192h195l80 244h-197l59 194h203l137 412h189l-135 -412h184l137 412h197l-137 -412h188l-63 -194h-189l-78 -244h195l-55 -192h-205l-133 -412h-197l133 412h-184l-133 -412h-195l135 412h-186zM569 604h187l78 244h-187z" />
<glyph unicode="$" horiz-adv-x="1034" d="M115 270l49 279h209l-6 -135q81 -49 182 -49q76 0 125.5 11t75.5 34.5t35.5 52t9.5 69.5q0 42 -28 58.5t-110 30.5q-190 31 -243 46q-165 44 -195 137q-8 24 -8 52t6 62l16 83q49 259 390 293l28 160h234l-29 -158q188 -12 277 -84l-50 -278h-202v153q-53 27 -160 27 q-133 0 -185.5 -39t-52.5 -127q0 -38 29.5 -55t112.5 -31q27 -5 70.5 -12.5t69.5 -12t63.5 -12.5t60.5 -14.5t52.5 -17t47 -21.5t37 -26.5t30 -33t17 -40t6.5 -49.5q0 -29 -6 -64l-18 -100q-49 -262 -398 -295l-28 -164h-234l29 164q-199 20 -309 106z" />
<glyph unicode="%" horiz-adv-x="1441" d="M190 -43l1123 1542h196l-1126 -1542h-193zM219 915q0 41 8 82l41 226q27 147 102.5 208.5t202.5 61.5q107 0 163.5 -43.5t56.5 -144.5q-5 -61 -9 -82l-41 -226q-26 -147 -102.5 -207.5t-202.5 -60.5q-107 0 -163 43t-56 143zM391 938q0 -66 72 -66q87 0 104 101l49 276 q2 10 2 31q0 68 -71 68q-86 0 -103 -99l-49 -276q-4 -24 -4 -35zM903 147q0 41 8 82l41 226q27 147 102.5 208.5t202.5 61.5q107 0 163.5 -43.5t56.5 -144.5q-5 -61 -9 -82l-41 -226q-26 -147 -102.5 -207.5t-202.5 -60.5q-107 0 -163 43t-56 143zM1075 170q0 -66 72 -66 q87 0 104 101l49 276q3 15 3 31q0 68 -72 68q-86 0 -103 -99l-49 -276q-4 -24 -4 -35z" />
<glyph unicode="&#x26;" horiz-adv-x="1325" d="M98 221q0 48 8 92l21 107q24 124 89.5 194.5t197.5 124.5v2q-84 103 -84 226q0 45 8 86l18 106q31 174 142.5 253t328.5 79q183 0 263.5 -55.5t80.5 -178.5q0 -40 -10 -98l-20 -119q-22 -128 -93 -205t-235 -149l201 -242q31 24 52 50t33.5 56.5t18.5 53t12 58.5l7 34 h245l-6 -43q-27 -154 -70 -239.5t-137 -159.5l39 -43l101 -27l-31 -184h-254l-70 82q-81 -65 -186 -92t-287 -27q-190 0 -286.5 58t-96.5 200zM403 311q0 -65 40.5 -88.5t131.5 -23.5q66 0 117 16.5t103 56.5l2 2l-246 299q-74 -33 -98.5 -70t-42.5 -136q-7 -35 -7 -56z M606 991q0 -33 15.5 -62.5t54.5 -78.5l2 2q111 48 158 88.5t57 99.5l18 99q4 28 4 41q0 50 -29 67t-89 17q-70 0 -111.5 -29t-54.5 -96l-19 -97q-6 -27 -6 -51z" />
<glyph unicode="'" horiz-adv-x="350" d="M221 907l96 547h228l-96 -547h-228z" />
<glyph unicode="(" horiz-adv-x="714" d="M244 449q0 642 555 1146h215q-241 -300 -357 -588t-116 -601q0 -181 35 -371t102 -348h-215q-107 151 -163 353t-56 409z" />
<glyph unicode=")" horiz-adv-x="714" d="M-74 -313q242 314 358.5 608t116.5 602q0 177 -35.5 361.5t-103.5 336.5h215q113 -149 169 -342.5t56 -394.5q0 -313 -145 -614t-416 -557h-215z" />
<glyph unicode="*" horiz-adv-x="882" d="M246 1114l47 141l254 -81v292h166v-292l256 81l51 -141l-262 -82l170 -235l-125 -90l-172 229l-166 -229l-127 90l170 235z" />
<glyph unicode="+" horiz-adv-x="1245" d="M215 647l39 213h412l71 412h213l-71 -412h413l-39 -213h-413l-74 -416h-213l74 416h-412z" />
<glyph unicode="," horiz-adv-x="438" d="M57 -186q124 100 179 186h-170l57 332h311l-61 -346q-38 -70 -103.5 -142t-138.5 -125z" />
<glyph unicode="-" horiz-adv-x="663" d="M158 559l39 229h544l-39 -229h-544z" />
<glyph unicode="." horiz-adv-x="434" d="M61 0l58 332h311l-57 -332h-312z" />
<glyph unicode="/" horiz-adv-x="677" d="M-27 -219l703 1673h248l-709 -1673h-242z" />
<glyph unicode="0" horiz-adv-x="1144" d="M135 332q0 63 17 170l77 448q21 121 61.5 213.5t94 154t125 101t151 56t175.5 16.5q208 0 318 -86.5t110 -286.5q0 -64 -17 -168l-78 -448q-22 -121 -62 -213.5t-93.5 -153.5t-124 -100t-149.5 -55.5t-175 -16.5q-210 0 -320 85.5t-110 283.5zM426 373q0 -96 47.5 -131 t134.5 -35q95 0 168 65t96 195l91 518q10 62 10 96q0 50 -14 83.5t-40 50.5t-56 23.5t-70 6.5q-100 0 -172 -61.5t-95 -198.5l-90 -518q-10 -62 -10 -94z" />
<glyph unicode="1" horiz-adv-x="733" d="M162 0l33 186l129 27l151 858q-100 -68 -166 -102l-92 188q226 135 399 297h209l-219 -1241l103 -27l-33 -186h-514z" />
<glyph unicode="2" horiz-adv-x="1083" d="M63 0l48 268q815 460 815 797q0 176 -224 176q-84 0 -179 -32.5t-179 -84.5l-45 246q231 121 516 121q402 0 402 -330q0 -93 -22 -176.5t-69 -160.5t-108 -146.5t-151.5 -142t-187 -138t-224.5 -143.5h417l58 170h180l-74 -424h-973z" />
<glyph unicode="3" horiz-adv-x="1028" d="M47 31l115 235q137 -61 295 -61q140 0 231.5 71.5t91.5 210.5q0 79 -46 112.5t-134 33.5h-151l36 213h154q105 0 168 64t63 175q0 91 -59.5 126.5t-167.5 35.5q-79 0 -165 -24.5t-154 -65.5l-37 223q189 111 440 111q211 0 313.5 -79.5t102.5 -227.5q0 -145 -73 -265 t-196 -159q87 -28 132 -102t45 -175q0 -41 -9 -88q-40 -219 -198.5 -325.5t-401.5 -106.5q-231 0 -395 68z" />
<glyph unicode="4" horiz-adv-x="1138" d="M82 256l47 270q347 451 616 959l232 -92q-113 -224 -267.5 -469t-306.5 -443h406l88 504h262l-88 -504h113l-39 -225h-113l-45 -256h-270l45 256h-680z" />
<glyph unicode="5" horiz-adv-x="1071" d="M61 68l121 223q143 -82 330 -82q157 0 246.5 88t89.5 258q0 94 -50.5 132t-152.5 38q-79 0 -157.5 -33.5t-139.5 -97.5l-178 41l217 819h819l-73 -420h-179l4 174h-378l-99 -366q115 71 285 71q182 0 265 -78t83 -231q0 -52 -14 -141q-46 -262 -200.5 -381t-461.5 -119 q-240 0 -377 105z" />
<glyph unicode="6" horiz-adv-x="1101" d="M129 377q0 156 37 309t110.5 290t175 245.5t240 180t295.5 89.5l29 -231q-212 -25 -354.5 -161t-206.5 -351q140 155 362 155q170 0 251 -86t81 -235q0 -56 -12 -121q-43 -242 -193 -370t-389 -128q-228 0 -327 106.5t-99 307.5zM397 387q0 -98 47 -146t156 -48 q69 0 124.5 35t87.5 90.5t48.5 116t16.5 118.5q0 82 -43 121t-132 39q-76 0 -148 -38.5t-130 -103.5q-27 -127 -27 -184z" />
<glyph unicode="7" horiz-adv-x="1034" d="M199 31q249 611 737 1169h-477l-58 -174h-180l76 428h960l-40 -225q-236 -308 -431 -637.5t-297 -624.5z" />
<glyph unicode="8" d="M98 299q0 181 96.5 292t270.5 157q-95 36 -144 107t-49 165q0 113 44.5 203.5t121 148.5t177 88.5t216.5 30.5q404 0 404 -303q0 -147 -72.5 -258t-220.5 -152q107 -43 162 -111t55 -173q0 -162 -81 -284t-216.5 -184.5t-304.5 -62.5q-135 0 -236 34.5t-162 111.5 t-61 190zM391 360q0 -82 52.5 -117.5t150.5 -35.5q120 0 198 75t78 195q0 80 -51 123.5t-147 63.5q-86 -10 -151 -55.5t-97.5 -110t-32.5 -138.5zM520 997q0 -145 187 -186q127 26 192.5 107.5t65.5 185.5q0 80 -46 113.5t-139 33.5q-115 0 -187.5 -69.5t-72.5 -184.5z" />
<glyph unicode="9" horiz-adv-x="1101" d="M205 874q0 126 40.5 238t115 196.5t188 133.5t250.5 49q420 0 420 -438q0 -151 -36.5 -300t-109.5 -283t-173.5 -241t-238 -177.5t-294.5 -88.5l-29 230q209 25 351.5 161t209.5 351q-143 -154 -364 -154q-170 0 -250 86.5t-80 236.5zM479 899q0 -81 42.5 -118.5 t133.5 -37.5q73 0 145.5 37.5t127.5 100.5q24 71 24 172q0 97 -46.5 147.5t-151.5 50.5q-128 0 -201.5 -102t-73.5 -250z" />
<glyph unicode=":" horiz-adv-x="487" d="M88 0l57 332h310l-58 -332h-309zM219 743l57 328h310l-58 -328h-309z" />
<glyph unicode=";" horiz-adv-x="491" d="M84 -186q126 106 178 186h-172l57 332h312l-62 -346q-36 -70 -101.5 -142t-139.5 -125zM221 743l58 328h311l-58 -328h-311z" />
<glyph unicode="&#x3c;" horiz-adv-x="1245" d="M215 645l37 213l1114 428l-41 -242l-850 -296l744 -299l-41 -232z" />
<glyph unicode="=" horiz-adv-x="1245" d="M178 430l37 213h1038l-36 -213h-1039zM254 862l37 213h1038l-37 -213h-1038z" />
<glyph unicode="&#x3e;" horiz-adv-x="1245" d="M139 217l41 240l852 299l-745 297l41 233l962 -428l-37 -213z" />
<glyph unicode="?" horiz-adv-x="948" d="M250 1083l47 273q147 135 418 135q184 0 280.5 -73.5t96.5 -213.5q0 -31 -7 -82l-14 -86q-19 -114 -70 -177.5t-165 -108.5q-93 -37 -132 -68.5t-51 -99.5l-22 -123h-260l28 162q7 37 18 67t22 51.5t32.5 40.5t36.5 30.5t48.5 26t53 22t64.5 22.5q71 26 98 62.5t41 121.5 l6 37q4 20 4 53q0 67 -38.5 94t-116.5 27q-89 0 -166 -55l-45 -138h-207zM266 0l56 319h305l-56 -319h-305z" />
<glyph unicode="@" horiz-adv-x="1183" d="M86 76q0 81 18 186l78 445q31 175 82 289.5t133 181t185 92.5t252 26q226 0 338 -77.5t112 -253.5q0 -57 -12 -125l-127 -723h-166l6 92q-106 -117 -283 -117q-99 0 -143.5 41.5t-44.5 132.5q0 46 12 111l37 209q25 142 88.5 206t190.5 64q142 0 225 -61l8 51 q10 62 10 98q0 102 -64 137t-218 35q-107 0 -176 -18t-118.5 -66t-78 -122t-49.5 -195l-76 -430q-16 -94 -16 -154q0 -76 19 -131t48 -85t74 -47.5t85 -22.5t93 -5q161 0 279 27l8 -166q-143 -45 -309 -45q-92 0 -164.5 11.5t-137 41t-107 76t-67 120.5t-24.5 171zM721 334 q0 -39 20 -55.5t68 -16.5q102 0 178 82l53 297q-55 55 -141 55q-68 0 -101 -33.5t-44 -105.5l-27 -162q-6 -37 -6 -61z" />
<glyph unicode="A" horiz-adv-x="1314" d="M41 0l31 184l104 27l539 1243h418q10 -162 35.5 -587t41.5 -656l93 -27l-31 -184h-524l30 184l111 27l-12 246h-355l-104 -246l90 -27l-31 -184h-436zM596 645h276l-30 574z" />
<glyph unicode="B" horiz-adv-x="1218" d="M59 0l33 186l111 27l180 1028l-100 27l32 186h713q315 0 315 -248q0 -48 -8 -92l-12 -72q-25 -141 -74 -204.5t-139 -96.5q70 -25 107.5 -71t37.5 -138q0 -38 -10 -106l-18 -104q-58 -322 -469 -322h-699zM508 213h233q79 0 121.5 47t61.5 146l8 43q8 44 8 83 q0 62 -28 89.5t-91 27.5h-237zM618 840h238q67 0 114.5 52.5t59.5 133.5l6 41q6 38 6 66q0 58 -28 82t-90 24h-236z" />
<glyph unicode="C" horiz-adv-x="1140" d="M135 358q0 82 23 220l53 299q31 176 84 292.5t140.5 188.5t205 102.5t285.5 30.5q126 0 235.5 -34.5t163.5 -102.5l-53 -305h-244l6 147q-48 70 -174 70q-144 0 -219 -96t-109 -293l-53 -302q-20 -111 -20 -190q0 -113 48.5 -156t164.5 -43q127 0 202 72l44 148h243 l-51 -295q-175 -148 -455 -148q-276 0 -398 89t-122 306z" />
<glyph unicode="D" horiz-adv-x="1273" d="M59 0l33 186l111 27l180 1028l-100 27l32 186h637q229 0 334 -84t105 -274q0 -79 -19 -193l-61 -352q-52 -298 -194 -424.5t-421 -126.5h-637zM522 221h213q198 0 256 320l66 372q16 101 16 156q0 94 -38.5 129t-121.5 35h-213z" />
<glyph unicode="E" horiz-adv-x="1169" d="M59 0l33 186l111 27l180 1028l-100 27l32 186h1031l-72 -403h-174v178h-408l-65 -371h338l49 113h147l-76 -432h-147l-8 112h-338l-74 -413h410l76 211h176l-78 -449h-1043z" />
<glyph unicode="F" horiz-adv-x="1150" d="M59 0l33 186l111 27l180 1028l-100 27l32 186h1043l-78 -436h-174v203h-408l-75 -420h321l47 112h148l-78 -438h-148l-6 115h-321l-66 -377l117 -27l-33 -186h-545z" />
<glyph unicode="G" horiz-adv-x="1189" d="M135 354q0 89 21 203l57 320q31 173 84.5 290t138 189t195.5 103.5t266 31.5q153 0 271 -34t173 -103l-53 -305h-244l7 147q-46 70 -189 70t-219.5 -92t-112.5 -295l-57 -322q-16 -98 -16 -158q0 -108 46.5 -153t151.5 -45q167 0 224 57l59 344l-174 27l31 174h479 l-121 -684q-58 -52 -206 -104t-333 -52q-251 0 -365 93.5t-114 297.5z" />
<glyph unicode="H" horiz-adv-x="1363" d="M59 0l33 186l111 27l180 1028l-100 27l32 186h514l-32 -186l-105 -27l-69 -395h413l70 395l-94 27l32 186h517l-33 -186l-115 -27l-180 -1028l104 -27l-32 -186h-517l33 186l105 27l71 414h-413l-72 -414l94 -27l-33 -186h-514z" />
<glyph unicode="I" horiz-adv-x="649" d="M59 0l33 186l111 27l180 1028l-100 27l32 186h531l-33 -186l-113 -27l-180 -1028l103 -27l-33 -186h-531z" />
<glyph unicode="J" horiz-adv-x="671" d="M-180 -311l53 186q50 -53 127 -53q48 0 87 21.5t64 58.5t40.5 79t23.5 91l205 1169l-115 25l35 188h528l-34 -188l-101 -25l-203 -1159q-43 -248 -155.5 -376t-319.5 -128q-168 0 -235 111z" />
<glyph unicode="K" horiz-adv-x="1331" d="M59 0l33 186l111 27l180 1028l-100 27l32 186h516l-32 -186l-105 -27l-71 -414l456 414l-88 27l33 186h471l-33 -186l-139 -37l-412 -369l297 -649l107 -43l-29 -170h-364l-312 760l-96 -547l94 -27l-33 -186h-516z" />
<glyph unicode="L" horiz-adv-x="1103" d="M59 0l33 188l111 25l180 1028l-100 27l32 186h533l-33 -186l-115 -27l-176 -997h357l88 329h180l-100 -573h-990z" />
<glyph unicode="M" horiz-adv-x="1785" d="M59 0l33 186l111 27l180 1028l-100 27l32 186h615l47 -1094l438 1094h567l-32 -186l-113 -27l-180 -1028l102 -27l-33 -186h-479l33 186l102 27l177 999l-512 -1212h-322l-80 1212l-176 -999l94 -27l-33 -186h-471z" />
<glyph unicode="N" horiz-adv-x="1374" d="M59 0l33 186l111 27l180 1028l-100 27l32 186h467l279 -922l125 709l-92 27l32 186h451l-33 -186l-108 -27l-217 -1241h-265l-362 1006l-139 -793l112 -27l-33 -186h-473z" />
<glyph unicode="O" horiz-adv-x="1251" d="M141 383q0 69 21 199l51 290q57 320 220 469.5t454 149.5q243 0 360 -103.5t117 -322.5q0 -88 -18 -193l-52 -290q-57 -319 -222.5 -469t-455.5 -150q-241 0 -358 102.5t-117 317.5zM457 385q0 -113 47.5 -152.5t152.5 -39.5q132 0 206 89t112 300l51 290q21 117 21 193 q0 114 -47.5 155.5t-153.5 41.5q-131 0 -205 -91.5t-111 -298.5l-51 -290q-22 -126 -22 -197z" />
<glyph unicode="P" horiz-adv-x="1187" d="M59 0l33 186l111 27l180 1028l-100 27l32 186h676q180 0 262 -70.5t82 -226.5q0 -66 -16 -164q-43 -247 -156.5 -355t-335.5 -108h-256l-55 -317l115 -27l-33 -186h-539zM606 723h205q81 0 130 65.5t73 196.5q12 73 12 123q0 74 -29.5 102.5t-95.5 28.5h-205z" />
<glyph unicode="Q" horiz-adv-x="1277" d="M145 416q0 75 19 180l51 295q53 307 224 453.5t462 146.5q245 0 367.5 -103.5t122.5 -318.5q0 -66 -17 -178l-51 -295q-74 -432 -393 -549q0 -118 40.5 -172.5t92.5 -54.5q42 0 88 35l-29 -158q-19 -30 -65.5 -49t-106.5 -19q-127 0 -214 97.5t-87 271.5 q-253 0 -378.5 101t-125.5 317zM465 438q0 -121 51.5 -166t161.5 -45q135 0 213.5 89.5t116.5 295.5l49 273q16 88 16 168q0 122 -51 169.5t-160 47.5q-134 0 -213.5 -92t-116.5 -293l-49 -273q-18 -105 -18 -174z" />
<glyph unicode="R" horiz-adv-x="1323" d="M59 0l33 186l111 27l180 1028l-100 27l32 186h717q316 0 316 -248q0 -42 -9 -92l-12 -72q-17 -98 -50 -161.5t-74 -94t-101 -49.5q73 -21 113 -68t40 -143q0 -38 -10 -110l-35 -203l101 -27l-33 -186h-250q-78 0 -111.5 23.5t-33.5 78.5q0 16 8 66l51 293q6 41 6 67 q0 57 -27 81t-87 24h-252l-74 -420l102 -27l-32 -186h-519zM616 829h240q68 0 112 52t60 141q10 62 10 94q0 64 -28 88.5t-90 24.5h-234z" />
<glyph unicode="S" horiz-adv-x="1132" d="M78 104l53 302h231l-12 -146q73 -70 213 -70q69 0 122 17t85 43.5t52 65t27 77t7 82.5q0 53 -47.5 76t-224.5 67q-38 10 -56.5 14.5t-55 15.5t-56.5 19t-51 22.5t-48.5 29t-39 35t-32 42.5t-18.5 51t-8 62q0 40 23 172q36 208 174.5 309t410.5 101q307 0 428 -135 l-53 -307h-233l14 190q-62 49 -192 49q-114 0 -185 -63t-71 -197q0 -59 56.5 -87.5t237.5 -68.5q68 -15 111 -27.5t91 -34t74.5 -49t44 -70t17.5 -97.5q0 -61 -24 -186q-46 -236 -196.5 -340.5t-418.5 -104.5q-294 0 -450 141z" />
<glyph unicode="T" horiz-adv-x="1204" d="M193 881l102 573h1126l-102 -573h-180l32 340h-196l-178 -1008l114 -27l-32 -186h-555l32 186l125 27l178 1008h-198l-90 -340h-178z" />
<glyph unicode="U" horiz-adv-x="1376" d="M209 299q0 72 20 195l131 747l-88 27l33 186h514l-33 -186l-104 -27l-137 -782q-10 -62 -10 -94q0 -87 48 -118.5t160 -31.5q135 0 200 56.5t89 187.5l137 782l-92 27l33 186h475l-33 -186l-102 -27l-131 -747q-22 -123 -49 -204t-73 -148t-115 -104t-167.5 -56 t-238.5 -19q-254 0 -360.5 77t-106.5 259z" />
<glyph unicode="V" horiz-adv-x="1294" d="M266 1268l33 186h535l-33 -186l-109 -27l37 -913l379 913l-86 27l33 186h454l-32 -186l-105 -27l-555 -1241h-362l-99 1241z" />
<glyph unicode="W" horiz-adv-x="1841" d="M266 1268l33 186h530l-32 -186l-107 -27l-47 -872l440 1085h263l36 -1085l269 872l-86 27l32 186h457l-33 -186l-104 -27l-434 -1241h-348l-39 952l-385 -952h-353v1241z" />
<glyph unicode="X" horiz-adv-x="1273" d="M49 0l33 186l115 27l421 510l-235 518l-104 27l32 186h533l-33 -186l-96 -27l123 -311l237 311l-78 27l33 186h445l-33 -186l-121 -27l-389 -483l235 -545l99 -27l-33 -186h-524l32 186l95 27l-134 336l-260 -336l80 -27l-33 -186h-440z" />
<glyph unicode="Y" horiz-adv-x="1230" d="M266 1268l33 186h502l-33 -186l-98 -27l125 -459l288 459l-77 27l32 186h406l-33 -186l-98 -27l-441 -682l-61 -346l115 -27l-33 -186h-555l33 186l123 27l61 346l-205 682z" />
<glyph unicode="Z" horiz-adv-x="1130" d="M49 0l49 289l811 936h-422l-98 -344h-184l102 573h1006l-39 -221l-844 -1000h473l96 340h183l-101 -573h-1032z" />
<glyph unicode="[" horiz-adv-x="739" d="M141 -285l328 1860h512l-35 -201h-250l-258 -1460h250l-35 -199h-512z" />
<glyph unicode="\" horiz-adv-x="677" d="M266 1454h248l115 -1673h-244z" />
<glyph unicode="]" horiz-adv-x="733" d="M-14 -285l32 199h254l258 1460h-254l35 201h516l-327 -1860h-514z" />
<glyph unicode="^" horiz-adv-x="739" d="M242 1036l309 418h145l166 -418h-198l-70 215l-150 -215h-202z" />
<glyph unicode="_" horiz-adv-x="923" d="M-45 -299l27 149h913l-27 -149h-913z" />
<glyph unicode="`" horiz-adv-x="559" d="M336 1569h276l97 -381h-177z" />
<glyph unicode="a" d="M80 201q0 50 24 176q52 289 361 289q162 0 330 -54l24 136q4 28 4 40q0 55 -37.5 72t-126.5 17q-183 0 -340 -89l-51 205q193 113 477 113q195 0 281 -53.5t86 -178.5q0 -40 -10 -98l-96 -555q-2 -10 -2 -28q0 -50 47 -50q24 0 51 21l-15 -150q-63 -49 -163 -49 q-178 0 -187 174q-56 -80 -160 -128t-227 -48q-138 0 -204 63t-66 175zM369 252q0 -45 24 -63.5t82 -18.5q129 0 260 100l35 195q-111 33 -225 33q-90 0 -133 -70t-43 -176z" />
<glyph unicode="b" horiz-adv-x="1155" d="M111 0l221 1260l-103 26l33 187h397l-88 -500q166 133 385 133q141 0 207 -69t66 -214q0 -83 -17 -176l-36 -209q-45 -255 -149 -365t-308 -110q-111 0 -203 38t-149 112l-76 -113h-180zM449 272q37 -32 92 -50.5t112 -18.5q105 0 159 62.5t77 185.5l33 180q12 71 12 117 q0 74 -31 101.5t-102 27.5q-146 0 -264 -109z" />
<glyph unicode="c" horiz-adv-x="980" d="M115 309q0 66 10 117l41 236q35 206 171 325t374 119q268 0 374 -135l-47 -273h-213l4 138q-42 55 -141 55q-98 0 -158.5 -64.5t-78.5 -171.5l-35 -198q-10 -58 -10 -92q0 -84 46 -121t148 -37q88 0 167.5 39.5t133.5 115.5l82 -167q-174 -232 -451 -232 q-210 0 -313.5 88.5t-103.5 257.5z" />
<glyph unicode="d" horiz-adv-x="1191" d="M106 252q0 70 19 174l37 209q45 256 148 365.5t308 109.5q202 0 308 -109l45 259l-103 26l33 187h397l-221 -1260l103 -27l-33 -186h-371l12 119q-101 -81 -199 -115.5t-208 -34.5q-141 0 -208 68.5t-67 214.5zM403 338q0 -74 32.5 -103.5t103.5 -29.5q150 0 264 108 l88 494q-36 34 -92 53t-115 19q-106 0 -158.5 -60t-76.5 -190l-33 -178q-9 -50 -13 -113z" />
<glyph unicode="e" horiz-adv-x="1038" d="M119 330q0 56 12 121l29 159q45 257 174.5 376.5t384.5 119.5q213 0 300 -75.5t87 -233.5q0 -70 -21 -203l-24 -137h-649q-13 -67 -13 -109q0 -90 51 -124t171 -34q107 0 176.5 31t126.5 92l71 -168q-135 -182 -454 -182q-215 0 -318.5 97.5t-103.5 269.5zM444 641h387 q15 92 15 129q0 70 -35 103.5t-123 33.5q-62 0 -106.5 -21t-71 -61t-41 -82.5t-25.5 -101.5z" />
<glyph unicode="f" horiz-adv-x="704" d="M51 0l33 186l113 27l118 672h-122l32 192h123l23 125q29 156 116 222.5t246 66.5t221 -45l-63 -180q-36 22 -105 22q-118 0 -135 -104l-18 -107h235l-32 -192h-236l-119 -672l123 -27l-33 -186h-520z" />
<glyph unicode="g" horiz-adv-x="1085" d="M53 -356l111 192q114 -86 289 -86q136 0 200 67t88 193l31 166q-167 -139 -379 -139q-144 0 -208 69.5t-64 210.5q0 81 18 183l23 137q20 121 52 205t85 144.5t130 89t183 28.5q254 0 349 -141l77 114h179l-195 -1106q-43 -246 -183 -354.5t-382 -108.5q-289 0 -404 136z M410 389q0 -66 30 -95.5t101 -29.5q148 0 266 109l76 438q-32 30 -91.5 50t-115.5 20q-57 0 -99 -18.5t-68 -54t-41 -77t-24 -98.5l-22 -133q-12 -66 -12 -102v-9z" />
<glyph unicode="h" horiz-adv-x="1298" d="M47 0l33 186l110 27l185 1047l-103 26l33 187h397l-84 -484q166 117 410 117q268 0 268 -215q0 -22 -8 -80l-104 -598l102 -27l-33 -186h-497l32 186l105 27l94 537q4 28 4 36q0 49 -31.5 67.5t-93.5 18.5q-172 0 -284 -92l-101 -567l97 -27l-33 -186h-498z" />
<glyph unicode="i" horiz-adv-x="595" d="M47 0l33 186l110 27l115 651l-102 27l33 186h397l-152 -864l103 -27l-33 -186h-504zM367 1208l45 265h290l-45 -265h-290z" />
<glyph unicode="j" horiz-adv-x="503" d="M-227 -389l55 174q43 -43 111 -43q46 0 81.5 21.5t56.5 57.5t33 71t19 75l158 897l-107 25l33 188h401l-194 -1110q-40 -225 -140 -342t-278 -117q-168 0 -229 103zM346 1208l45 265h291l-45 -265h-291z" />
<glyph unicode="k" horiz-adv-x="1167" d="M47 0l33 186l110 27l185 1047l-103 26l33 187h397l-161 -924l352 319l-96 23l32 186h439l-33 -186l-119 -23l-293 -252l240 -403l106 -27l-32 -186h-332l-275 494l-49 -281l80 -27l-33 -186h-481z" />
<glyph unicode="l" horiz-adv-x="595" d="M47 0l33 186l110 27l185 1047l-103 26l33 187h397l-221 -1260l103 -27l-33 -186h-504z" />
<glyph unicode="m" horiz-adv-x="1925" d="M47 0l33 186l108 27l115 651l-100 27l33 186h364l-14 -121q101 82 192.5 116t220.5 34q214 0 244 -154q109 85 202.5 119.5t221.5 34.5q256 0 256 -213q0 -20 -8 -82l-105 -598l103 -27l-33 -186h-487l32 186l103 27l94 537q4 28 4 38q0 49 -29.5 67.5t-87.5 18.5 q-157 0 -266 -88l-100 -573l94 -25l-33 -188h-477l33 186l100 27l94 537q4 28 4 38q0 49 -29 67.5t-87 18.5q-164 0 -269 -92l-100 -569l94 -27l-32 -186h-488z" />
<glyph unicode="n" horiz-adv-x="1298" d="M47 0l33 186l110 27l115 651l-102 27l33 186h372l-14 -121q104 81 200.5 115.5t233.5 34.5q268 0 268 -215q0 -22 -8 -80l-104 -598l102 -27l-33 -186h-497l32 186l105 27l94 537q4 28 4 38q0 49 -31.5 67.5t-93.5 18.5q-172 0 -284 -92l-101 -569l97 -27l-33 -186h-498z " />
<glyph unicode="o" horiz-adv-x="1075" d="M111 287q0 68 14 139l39 219q43 240 178.5 350.5t388.5 110.5q215 0 316.5 -78.5t101.5 -245.5q0 -64 -12 -137l-39 -219q-43 -242 -179 -352.5t-391 -110.5q-214 0 -315.5 78.5t-101.5 245.5zM399 319q0 -80 38 -106.5t132 -26.5q113 0 168.5 60t79.5 198l31 183 q14 88 14 118v7q0 78 -39 104.5t-133 26.5q-112 0 -168 -60.5t-78 -195.5l-30 -183q-15 -96 -15 -125z" />
<glyph unicode="p" horiz-adv-x="1185" d="M-43 -467l33 186l110 27l197 1118l-102 27l32 186h371l-14 -119q186 148 407 148q141 0 208 -68t67 -211q0 -70 -19 -178l-37 -209q-45 -256 -147.5 -365.5t-306.5 -109.5t-307 109l-58 -328l121 -27l-33 -186h-522zM481 262q35 -33 91 -52.5t114 -19.5q106 0 159.5 60.5 t76.5 187.5l34 193q13 73 13 110q0 73 -32 101t-103 28q-153 0 -265 -106z" />
<glyph unicode="q" horiz-adv-x="1103" d="M106 250q0 70 19 178l37 209q44 255 147.5 362t308.5 107q241 0 353 -143l78 114h180l-234 -1331l101 -27l-33 -186h-524l32 186l134 27l61 356q-174 -139 -385 -139q-141 0 -208 70.5t-67 216.5zM403 322q0 -72 31.5 -99.5t102.5 -27.5q149 0 266 108l88 500 q-78 69 -205 69q-108 0 -162 -61.5t-75 -185.5l-33 -185q-13 -76 -13 -118z" />
<glyph unicode="r" horiz-adv-x="837" d="M47 0l33 186l110 27l115 651l-102 27l33 186h362l-12 -125q157 154 377 154q43 0 63 -4l-84 -275q-47 9 -88 9q-155 0 -281 -99l-92 -524l115 -27l-33 -186h-516z" />
<glyph unicode="s" horiz-adv-x="1007" d="M72 74l49 278h215l-6 -133q77 -47 176 -47q130 0 188 33.5t58 130.5q0 16 -1 26t-6 19t-11 14t-20 10t-27.5 8t-40 8t-51.5 8.5t-67 11t-82 14.5q-45 9 -75 16.5t-71 25t-65.5 39.5t-42.5 59t-18 85q0 97 27 171.5t73 122t114 78t144.5 42.5t169.5 12q276 0 388 -90 l-50 -279h-213l7 148q-57 24 -156 24q-138 0 -189 -30.5t-51 -126.5q0 -42 28 -59.5t118 -30.5q67 -10 107.5 -17t90.5 -17t79 -19.5t61.5 -22.5t50 -28.5t33.5 -35.5t22 -44.5t6 -55.5q0 -54 -22 -158q-18 -84 -62.5 -143.5t-114 -93.5t-154 -49t-194.5 -15 q-271 0 -415 111z" />
<glyph unicode="t" horiz-adv-x="739" d="M188 885l33 192h117l43 238l289 49l-52 -287h277l-33 -192h-276l-92 -514q-9 -61 -9 -72q0 -58 31 -83.5t100 -25.5q65 0 129 46l-6 -173q-97 -100 -262 -100q-276 0 -276 270q0 71 14 142l90 510h-117z" />
<glyph unicode="u" horiz-adv-x="1185" d="M172 238q0 39 10 94l94 532l-83 27l32 186h475l-32 -186l-103 -27l-94 -528q-4 -16 -4 -45q0 -55 40.5 -74.5t139.5 -19.5q110 0 159 33.5t62 105.5l95 528l-95 27l33 186h436l-32 -186l-93 -27l-94 -532q-35 -195 -160 -282t-366 -87q-213 0 -316.5 65.5t-103.5 209.5z " />
<glyph unicode="v" horiz-adv-x="1181" d="M188 891l33 186h479l-32 -186l-88 -19l75 -641l322 641l-80 19l33 186h409l-32 -186l-90 -19l-447 -872h-354l-144 872z" />
<glyph unicode="w" horiz-adv-x="1656" d="M188 889l33 188h463l-33 -186l-86 -19l-20 -636l368 841h279l55 -841l211 636l-82 19l33 186h403l-32 -186l-88 -19l-312 -872h-358l-53 750l-326 -750h-360l-19 870z" />
<glyph unicode="x" horiz-adv-x="1173" d="M37 0l33 186l82 19l372 340l-241 327l-78 19l33 186h495l-33 -186l-88 -19l121 -202l203 202l-78 19l33 186h420l-33 -186l-88 -19l-342 -315l246 -352l77 -19l-32 -186h-498l33 186l86 19l-131 219l-219 -219l71 -19l-32 -186h-412z" />
<glyph unicode="y" horiz-adv-x="1173" d="M-51 -387l108 209q57 -60 152 -60q68 0 114.5 38.5t92.5 117.5l22 39l-168 913l-86 19l33 188h473l-33 -188l-90 -19l86 -614l312 614l-78 19l33 188h409l-33 -188l-92 -19l-524 -956q-42 -77 -77 -131.5t-81 -109t-92.5 -88t-106.5 -54t-128 -20.5q-169 0 -246 102z" />
<glyph unicode="z" horiz-adv-x="1058" d="M45 0l37 215l688 676h-334l-57 -186h-209l66 372h942l-29 -164l-719 -714h373l76 225h208l-73 -424h-969z" />
<glyph unicode="{" horiz-adv-x="770" d="M188 549l35 194q100 0 152.5 52.5t75.5 177.5q2 16 12 132t20 177q11 60 26.5 102.5t45.5 81t75 61.5t113.5 36.5t161.5 13.5h84l-33 -186h-55q-85 0 -122.5 -27t-49.5 -96q-13 -73 -21.5 -178t-17.5 -160q-24 -134 -96.5 -202.5t-196.5 -80.5q100 -8 152.5 -55.5 t52.5 -130.5q0 -28 -6 -58q-13 -74 -43.5 -192t-42.5 -184q-6 -30 -6 -52q0 -47 29.5 -61t105.5 -14h55l-32 -187h-84q-125 0 -198.5 23.5t-101.5 65.5t-28 110q0 63 43 231.5t45 182.5q10 65 10 96q0 74 -37.5 100.5t-122.5 26.5z" />
<glyph unicode="|" horiz-adv-x="575" d="M123 -274l332 1888h233l-332 -1888h-233z" />
<glyph unicode="}" horiz-adv-x="772" d="M4 -287l33 187h55q85 0 123 27t51 100q12 67 21.5 185t23.5 191q19 109 91.5 172t193.5 72q-199 22 -199 201q0 36 9 82q10 61 38.5 165.5t40.5 172.5q4 32 4 43q0 48 -30.5 64t-104.5 16h-55l33 186h84q95 0 159.5 -13t101.5 -39.5t52.5 -62.5t15.5 -86 q0 -62 -42.5 -224t-45.5 -179q-10 -65 -10 -99q0 -76 37 -103.5t123 -27.5l-35 -194q-102 0 -153.5 -50t-73.5 -173q-4 -23 -13.5 -139t-19.5 -175q-14 -78 -37 -129t-69.5 -92t-124 -59.5t-193.5 -18.5h-84z" />
<glyph unicode="~" horiz-adv-x="1310" d="M186 485l41 240q141 137 310 137q71 0 144 -21.5t123 -48t109.5 -48t106.5 -21.5q96 0 178 37t164 125l-41 -236q-82 -75 -161 -106t-183 -31q-59 0 -124.5 21.5t-114 48t-109.5 48t-111 21.5q-91 0 -169 -40t-163 -126z" />
<glyph unicode="&#xa1;" horiz-adv-x="456" d="M70 0q27 248 83 456.5t177 561.5h157q0 -345 -18.5 -556.5t-85.5 -461.5h-313zM279 1135l55 319h305l-55 -319h-305z" />
<glyph unicode="&#xa2;" horiz-adv-x="997" d="M156 498q0 56 12 120l41 236q66 386 444 438l29 162h231l-30 -168q157 -23 237 -123l-49 -272h-213l6 139q-42 53 -137 53q-192 0 -233 -233l-35 -199q-12 -76 -10 -98q0 -84 44 -119t146 -35q86 0 162.5 40t132.5 118l84 -170q-136 -178 -332 -217l-29 -170h-231l29 164 q-299 46 -299 334z" />
<glyph unicode="&#xa3;" horiz-adv-x="1083" d="M33 0l41 238q43 -17 92 -17q52 0 94 20t67 50t42 69.5t23.5 75t6.5 68.5q0 19 -4 55h-233l28 168h154q-57 145 -57 236q0 251 134.5 389.5t389.5 138.5q268 0 367 -135l-48 -273h-210l6 138q-56 53 -148 53q-62 0 -107.5 -25t-71.5 -68.5t-38 -97.5t-12 -118 q0 -90 55 -238h465l-29 -168h-393q4 -32 4 -49q0 -70 -20.5 -139.5t-52.5 -110.5q82 -61 247 -61q157 0 254 100l-43 -242q-108 -94 -282 -94q-85 0 -168 28t-142 79q-61 -56 -122 -81.5t-142 -25.5q-86 0 -147 37z" />
<glyph unicode="&#xa4;" horiz-adv-x="1183" d="M121 365l172 135q-35 78 -35 162q0 177 119 325l-121 135l178 152l111 -144q125 72 258 72q132 0 233 -72l156 144l125 -152l-166 -133q37 -85 37 -172q0 -174 -125 -319l123 -133l-180 -156l-109 147q-123 -69 -256 -69q-134 0 -231 69l-164 -147zM408 688 q0 -110 72.5 -182t187.5 -72q142 0 256 108.5t114 254.5q0 111 -73 184.5t-189 73.5q-94 0 -179 -49.5t-137 -135t-52 -182.5z" />
<glyph unicode="&#xa5;" horiz-adv-x="1228" d="M201 172l30 174h285l33 180h-285l29 170h237l-176 545l-86 27l33 186h498l-33 -186l-94 -27l127 -436l280 436l-82 27l33 186h410l-33 -186l-98 -27l-369 -545h227l-28 -170h-275l-33 -180h275l-31 -174h-274l-29 -172h-315l28 172h-284z" />
<glyph unicode="&#xa6;" horiz-adv-x="845" d="M256 -274l143 815h234l-144 -815h-233zM457 870l131 744h233l-131 -744h-233z" />
<glyph unicode="&#xa7;" horiz-adv-x="1009" d="M70 -240l53 310h209l-8 -164q62 -29 153 -29q130 0 184 32t54 134q0 43 -31 64.5t-109 35.5q-104 18 -171.5 35.5t-121.5 41t-82.5 55.5t-42.5 74.5t-14 101.5q0 47 21 163q13 75 59.5 147t112.5 107q-82 72 -82 160q0 13 4 45l14 84q57 334 512 334q273 0 379 -100 l-53 -310h-209l8 164q-62 29 -153 29q-133 0 -186.5 -34.5t-53.5 -145.5q0 -39 28.5 -55.5t112.5 -30.5q97 -17 157 -30.5t119 -35t89.5 -48.5t49 -68t18.5 -97q0 -49 -21 -192q-25 -154 -149 -228q61 -48 61 -162q0 -31 -6 -69l-14 -84q-57 -334 -512 -334q-273 0 -379 100 zM422 532q0 -30 6.5 -49t16 -30t34 -18.5t47 -11t69 -11t85.5 -15.5q131 59 131 221q0 74 -47 95q-19 9 -44 13.5t-74.5 10.5t-92.5 13q-66 -35 -98.5 -86.5t-32.5 -131.5z" />
<glyph unicode="&#xa8;" horiz-adv-x="890" d="M272 1208l45 265h291l-45 -265h-291zM754 1208l45 265h291l-46 -265h-290z" />
<glyph unicode="&#xaa;" horiz-adv-x="739" d="M211 725q0 119 51.5 187.5t157.5 68.5q61 0 166 -23l10 64q2 6 2 16q0 22 -18 28.5t-56 6.5q-96 0 -176 -45l-35 133q111 62 267 62q110 0 158 -29.5t48 -97.5q0 -26 -6 -56l-51 -286q-2 -6 -2 -17q0 -26 27 -26q10 0 22 6l-10 -96q-42 -27 -98 -27q-96 0 -115 86 q-29 -40 -82 -63t-115 -23q-74 0 -109.5 35t-35.5 96zM397 762q0 -19 9 -26t32 -7q52 0 113 35l18 100q-92 8 -94 8q-78 0 -78 -110z" />
<glyph unicode="&#xab;" horiz-adv-x="929" d="M156 578l41 225l405 295l-39 -226l-260 -186l195 -186l-39 -217zM621 578l41 225l405 295l-39 -226l-260 -186l195 -186l-39 -217z" />
<glyph unicode="&#xac;" horiz-adv-x="1294" d="M201 809l47 268h1175l-188 -1077h-268l141 809h-907z" />
<glyph unicode="&#xad;" horiz-adv-x="663" d="M158 559l39 229h544l-39 -229h-544z" />
<glyph unicode="&#xaf;" horiz-adv-x="825" d="M270 1198l33 195h707l-33 -195h-707z" />
<glyph unicode="&#xb0;" horiz-adv-x="774" d="M250 1053q0 84 22.5 157t68 133t124 95t180.5 35q141 0 209 -75t68 -200q0 -83 -24 -156.5t-71 -133.5t-125.5 -95t-179.5 -35q-139 0 -205.5 75.5t-66.5 199.5zM406 1079q0 -71 34 -114t107 -43q57 0 100.5 22.5t68 60t36.5 81.5t12 92q0 71 -34.5 114t-108.5 43 t-124.5 -39.5t-70.5 -95t-20 -121.5z" />
<glyph unicode="&#xb1;" horiz-adv-x="1245" d="M90 -70l39 213h1038l-39 -213h-1038zM215 647l39 213h412l71 412h213l-71 -412h413l-39 -213h-413l-74 -416h-213l74 416h-412z" />
<glyph unicode="&#xb2;" horiz-adv-x="604" d="M190 748l27 157q383 204 383 365q0 76 -96 76q-72 0 -170 -58l-25 144q113 61 260 61q203 0 203 -166q0 -128 -78.5 -222t-269.5 -208h172l27 70h100l-39 -219h-494z" />
<glyph unicode="&#xb3;" horiz-adv-x="577" d="M182 762l68 139q69 -31 141 -31q58 0 99.5 32.5t41.5 90.5q0 60 -75 60h-74l23 125h73q44 0 69 27.5t25 72.5q0 72 -96 72q-82 0 -153 -43l-23 131q99 55 225 55q105 0 158 -40.5t53 -115.5q0 -66 -34.5 -127.5t-90.5 -83.5q80 -33 80 -135q0 -68 -24.5 -119.5t-68 -82 t-98 -45.5t-118.5 -15q-120 0 -201 33z" />
<glyph unicode="&#xb4;" horiz-adv-x="559" d="M268 1188l228 381h280l-323 -381h-185z" />
<glyph unicode="&#xb5;" horiz-adv-x="1214" d="M-49 -467l33 186l112 27l197 1118l-86 27l33 186h477l-33 -186l-100 -27l-107 -602q35 -33 90.5 -52.5t114.5 -19.5q104 0 158.5 61.5t77.5 186.5l75 426l-94 27l33 186h436l-33 -186l-92 -27l-76 -424q-24 -136 -51.5 -219t-75 -144.5t-116.5 -86.5t-174 -25 q-203 0 -306 109l-57 -328l121 -27l-33 -186h-524z" />
<glyph unicode="&#xb6;" horiz-adv-x="1103" d="M203 -340l211 1200q-96 0 -144.5 58t-48.5 163q0 172 85.5 272.5t236.5 100.5h788l-33 -182l-102 -25l-278 -1587h-218l279 1585h-277l-278 -1585h-221z" />
<glyph unicode="&#xb7;" horiz-adv-x="434" d="M154 532l57 332h311l-57 -332h-311z" />
<glyph unicode="&#xb8;" horiz-adv-x="409" d="M20 -416q76 57 136 140h-123l37 217h249l-36 -217q-25 -55 -77 -112.5t-114 -103.5z" />
<glyph unicode="&#xb9;" horiz-adv-x="448" d="M252 748l18 110l60 14l67 375q-55 -34 -82 -45l-51 113q115 68 215 160h123l-106 -603l45 -14l-19 -110h-270z" />
<glyph unicode="&#xba;" horiz-adv-x="716" d="M225 774q0 20 8 74l23 121q25 133 99 193.5t218 60.5q121 0 177.5 -43.5t56.5 -137.5q0 -32 -6 -73l-23 -121q-23 -132 -98 -193t-217 -61q-122 0 -180 43.5t-58 136.5zM414 795q0 -34 16.5 -45t56.5 -11q51 0 75.5 27.5t35.5 93.5l16 96q7 47 7 64q0 35 -17 47t-57 12 q-51 0 -74.5 -28t-34.5 -95l-16 -96q-8 -39 -8 -65z" />
<glyph unicode="&#xbb;" horiz-adv-x="929" d="M102 283l39 223l258 188l-192 185l39 217l303 -295l-39 -226zM567 283l39 223l258 188l-192 185l39 217l303 -295l-39 -226z" />
<glyph unicode="&#xbc;" horiz-adv-x="1312" d="M92 -43l1122 1542h197l-1126 -1542h-193zM272 748l19 110l59 14l68 375q-55 -34 -82 -45l-51 113q115 68 215 160h123l-107 -603l45 -14l-18 -110h-271zM737 104l29 162q162 222 291 459l137 -57q-118 -226 -264 -430h162l41 233h155l-41 -233h53l-24 -134h-53l-21 -124 h-160l21 124h-326z" />
<glyph unicode="&#xbd;" horiz-adv-x="1320" d="M92 -43l1122 1542h197l-1126 -1542h-193zM272 748l19 110l59 14l68 375q-55 -34 -82 -45l-51 113q115 68 215 160h123l-107 -603l45 -14l-18 -110h-271zM770 -20l27 157q383 204 383 365q0 76 -97 76q-72 0 -170 -58l-24 144q113 61 260 61q203 0 203 -166 q0 -128 -78.5 -222t-269.5 -208h172l26 70h101l-39 -219h-494z" />
<glyph unicode="&#xbe;" horiz-adv-x="1282" d="M102 -43l1123 1542h196l-1126 -1542h-193zM186 762l68 139q69 -31 141 -31q58 0 100 32.5t42 90.5q0 60 -76 60h-74l23 125h73q44 0 69.5 27.5t25.5 72.5q0 72 -97 72q-82 0 -153 -43l-23 131q99 55 225 55q105 0 158 -40.5t53 -115.5q0 -66 -34.5 -127.5t-90.5 -83.5 q80 -33 80 -135q0 -68 -24.5 -119.5t-68 -82t-98 -45.5t-118.5 -15q-120 0 -201 33zM707 104l28 162q162 222 291 459l137 -57q-118 -226 -264 -430h162l41 233h155l-40 -233h53l-25 -134h-53l-21 -124h-159l20 124h-325z" />
<glyph unicode="&#xbf;" horiz-adv-x="948" d="M113 250q0 38 6 82l14 86q19 114 70.5 178t165.5 109q93 37 131.5 68t50.5 99l22 123h261l-29 -161q-7 -37 -17.5 -67t-22 -51.5t-33 -41t-37 -31t-48 -26t-53 -22t-64.5 -22.5q-71 -26 -98 -62.5t-41 -121.5l-6 -37q-4 -20 -4 -53q0 -67 39 -94t117 -27q88 0 165 55 l46 138h206l-47 -273q-147 -135 -418 -135q-184 0 -280 73.5t-96 213.5zM578 1135l55 319h305l-55 -319h-305z" />
<glyph unicode="&#xc0;" horiz-adv-x="1314" d="M41 0l31 184l104 27l539 1243h418q10 -162 35.5 -587t41.5 -656l93 -27l-31 -184h-524l30 184l111 27l-12 246h-355l-104 -246l90 -27l-31 -184h-436zM596 645h276l-30 574zM717 1946h276l97 -381h-177z" />
<glyph unicode="&#xc1;" horiz-adv-x="1314" d="M41 0l31 184l104 27l539 1243h418q10 -162 35.5 -587t41.5 -656l93 -27l-31 -184h-524l30 184l111 27l-12 246h-355l-104 -246l90 -27l-31 -184h-436zM596 645h276l-30 574zM772 1565l227 381h281l-324 -381h-184z" />
<glyph unicode="&#xc2;" horiz-adv-x="1314" d="M41 0l31 184l104 27l539 1243h418q10 -162 35.5 -587t41.5 -656l93 -27l-31 -184h-524l30 184l111 27l-12 246h-355l-104 -246l90 -27l-31 -184h-436zM530 1563l359 360h225l229 -360h-215l-145 233l-229 -233h-224zM596 645h276l-30 574z" />
<glyph unicode="&#xc3;" horiz-adv-x="1314" d="M41 0l31 184l104 27l539 1243h418q10 -162 35.5 -587t41.5 -656l93 -27l-31 -184h-524l30 184l111 27l-12 246h-355l-104 -246l90 -27l-31 -184h-436zM565 1548l33 191q94 90 203 90q47 0 94 -16.5t79 -37t73.5 -37t78.5 -16.5q108 0 213 105l-32 -191q-90 -90 -201 -90 q-49 0 -97.5 17t-81 37.5t-73 37.5t-74.5 17q-59 0 -109.5 -26t-105.5 -81zM596 645h276l-30 574z" />
<glyph unicode="&#xc4;" horiz-adv-x="1314" d="M41 0l31 184l104 27l539 1243h418q10 -162 35.5 -587t41.5 -656l93 -27l-31 -184h-524l30 184l111 27l-12 246h-355l-104 -246l90 -27l-31 -184h-436zM549 1585l45 264h291l-45 -264h-291zM596 645h276l-30 574zM1030 1585l45 264h291l-45 -264h-291z" />
<glyph unicode="&#xc5;" horiz-adv-x="1314" d="M41 0l31 184l104 27l539 1243h418q10 -162 35.5 -587t41.5 -656l93 -27l-31 -184h-524l30 184l111 27l-12 246h-355l-104 -246l90 -27l-31 -184h-436zM596 645h276l-30 574zM737 1690q0 120 69 188t204 68q196 0 196 -164q0 -124 -61.5 -190t-208.5 -66q-199 0 -199 164z M862 1712q0 -82 92 -82q133 0 133 129q0 88 -94 88q-64 0 -97.5 -36t-33.5 -99z" />
<glyph unicode="&#xc6;" horiz-adv-x="1835" d="M41 0l33 186l102 25l533 1243h1302l-72 -403h-178v178h-395l-66 -371h330l45 113h150l-76 -432h-150l-4 112h-329l-74 -415h397l78 213h178l-78 -449h-1034l33 186l111 25l43 246h-383l-103 -246l96 -25l-32 -186h-457zM610 645h342l103 584h-197z" />
<glyph unicode="&#xc7;" horiz-adv-x="1140" d="M135 358q0 82 23 220l53 299q31 176 84 292.5t140.5 188.5t205 102.5t285.5 30.5q126 0 235.5 -34.5t163.5 -102.5l-53 -305h-244l6 147q-48 70 -174 70q-144 0 -219 -96t-109 -293l-53 -302q-20 -111 -20 -190q0 -113 48.5 -156t164.5 -43q127 0 202 72l44 148h243 l-51 -295q-175 -148 -455 -148q-276 0 -398 89t-122 306zM434 -416q74 56 135 140h-123l37 217h250l-37 -217q-26 -55 -77 -112.5t-113 -103.5z" />
<glyph unicode="&#xc8;" horiz-adv-x="1169" d="M59 0l33 186l111 27l180 1028l-100 27l32 186h1031l-72 -403h-174v178h-408l-65 -371h338l49 113h147l-76 -432h-147l-8 112h-338l-74 -413h410l76 211h176l-78 -449h-1043zM645 1946h277l96 -381h-176z" />
<glyph unicode="&#xc9;" horiz-adv-x="1169" d="M59 0l33 186l111 27l180 1028l-100 27l32 186h1031l-72 -403h-174v178h-408l-65 -371h338l49 113h147l-76 -432h-147l-8 112h-338l-74 -413h410l76 211h176l-78 -449h-1043zM711 1565l227 381h281l-324 -381h-184z" />
<glyph unicode="&#xca;" horiz-adv-x="1169" d="M59 0l33 186l111 27l180 1028l-100 27l32 186h1031l-72 -403h-174v178h-408l-65 -371h338l49 113h147l-76 -432h-147l-8 112h-338l-74 -413h410l76 211h176l-78 -449h-1043zM453 1563l358 360h225l230 -360h-215l-146 233l-229 -233h-223z" />
<glyph unicode="&#xcb;" horiz-adv-x="1169" d="M59 0l33 186l111 27l180 1028l-100 27l32 186h1031l-72 -403h-174v178h-408l-65 -371h338l49 113h147l-76 -432h-147l-8 112h-338l-74 -413h410l76 211h176l-78 -449h-1043zM492 1585l45 264h290l-45 -264h-290zM973 1585l45 264h291l-45 -264h-291z" />
<glyph unicode="&#xcc;" horiz-adv-x="649" d="M59 0l33 186l111 27l180 1028l-100 27l32 186h531l-33 -186l-113 -27l-180 -1028l103 -27l-33 -186h-531zM385 1946h277l96 -381h-176z" />
<glyph unicode="&#xcd;" horiz-adv-x="649" d="M59 0l33 186l111 27l180 1028l-100 27l32 186h531l-33 -186l-113 -27l-180 -1028l103 -27l-33 -186h-531zM440 1565l228 381h280l-323 -381h-185z" />
<glyph unicode="&#xce;" horiz-adv-x="649" d="M59 0l33 186l111 27l180 1028l-100 27l32 186h531l-33 -186l-113 -27l-180 -1028l103 -27l-33 -186h-531zM195 1563l358 360h225l230 -360h-215l-146 233l-229 -233h-223z" />
<glyph unicode="&#xcf;" horiz-adv-x="649" d="M59 0l33 186l111 27l180 1028l-100 27l32 186h531l-33 -186l-113 -27l-180 -1028l103 -27l-33 -186h-531zM219 1585l45 264h291l-45 -264h-291zM700 1585l45 264h291l-45 -264h-291z" />
<glyph unicode="&#xd0;" horiz-adv-x="1273" d="M59 0l33 186l111 27l78 438h-107l35 207h106l68 383l-100 27l32 186h637q229 0 334 -84t105 -274q0 -79 -19 -193l-61 -352q-52 -298 -194 -424.5t-421 -126.5h-637zM522 221h213q102 0 164.5 77t91.5 243l64 360q16 101 16 160q0 96 -38 134t-120 38h-213l-67 -375h215 l-35 -207h-215z" />
<glyph unicode="&#xd1;" horiz-adv-x="1374" d="M59 0l33 186l111 27l180 1028l-100 27l32 186h467l279 -922l125 709l-92 27l32 186h451l-33 -186l-108 -27l-217 -1241h-265l-362 1006l-139 -793l112 -27l-33 -186h-473zM594 1548l33 191q94 90 202 90q47 0 94 -16.5t79.5 -37t74 -37t78.5 -16.5q108 0 213 105 l-33 -191q-90 -90 -200 -90q-49 0 -97.5 17t-81 37.5t-73 37.5t-74.5 17q-59 0 -109.5 -26t-105.5 -81z" />
<glyph unicode="&#xd2;" horiz-adv-x="1251" d="M141 383q0 69 21 199l51 290q57 320 220 469.5t454 149.5q243 0 360 -103.5t117 -322.5q0 -88 -18 -193l-52 -290q-57 -319 -222.5 -469t-455.5 -150q-241 0 -358 102.5t-117 317.5zM457 385q0 -113 47.5 -152.5t152.5 -39.5q132 0 206 89t112 300l51 290q21 117 21 193 q0 114 -47.5 155.5t-153.5 41.5q-131 0 -205 -91.5t-111 -298.5l-51 -290q-22 -126 -22 -197zM686 1946h277l96 -381h-176z" />
<glyph unicode="&#xd3;" horiz-adv-x="1251" d="M141 383q0 69 21 199l51 290q57 320 220 469.5t454 149.5q243 0 360 -103.5t117 -322.5q0 -88 -18 -193l-52 -290q-57 -319 -222.5 -469t-455.5 -150q-241 0 -358 102.5t-117 317.5zM457 385q0 -113 47.5 -152.5t152.5 -39.5q132 0 206 89t112 300l51 290q21 117 21 193 q0 114 -47.5 155.5t-153.5 41.5q-131 0 -205 -91.5t-111 -298.5l-51 -290q-22 -126 -22 -197zM741 1565l228 381h280l-323 -381h-185z" />
<glyph unicode="&#xd4;" horiz-adv-x="1251" d="M141 383q0 69 21 199l51 290q57 320 220 469.5t454 149.5q243 0 360 -103.5t117 -322.5q0 -88 -18 -193l-52 -290q-57 -319 -222.5 -469t-455.5 -150q-241 0 -358 102.5t-117 317.5zM457 385q0 -113 47.5 -152.5t152.5 -39.5q132 0 206 89t112 300l51 290q21 117 21 193 q0 114 -47.5 155.5t-153.5 41.5q-131 0 -205 -91.5t-111 -298.5l-51 -290q-22 -126 -22 -197zM494 1563l358 360h225l230 -360h-215l-146 233l-229 -233h-223z" />
<glyph unicode="&#xd5;" horiz-adv-x="1251" d="M141 383q0 69 21 199l51 290q57 320 220 469.5t454 149.5q243 0 360 -103.5t117 -322.5q0 -88 -18 -193l-52 -290q-57 -319 -222.5 -469t-455.5 -150q-241 0 -358 102.5t-117 317.5zM457 385q0 -113 47.5 -152.5t152.5 -39.5q132 0 206 89t112 300l51 290q21 117 21 193 q0 114 -47.5 155.5t-153.5 41.5q-131 0 -205 -91.5t-111 -298.5l-51 -290q-22 -126 -22 -197zM532 1548l33 191q94 90 203 90q47 0 94 -16.5t79.5 -37t74 -37t78.5 -16.5q108 0 213 105l-33 -191q-90 -90 -201 -90q-49 0 -97.5 17t-80.5 37.5t-72.5 37.5t-74.5 17 q-59 0 -110 -26t-106 -81z" />
<glyph unicode="&#xd6;" horiz-adv-x="1251" d="M141 383q0 69 21 199l51 290q57 320 220 469.5t454 149.5q243 0 360 -103.5t117 -322.5q0 -88 -18 -193l-52 -290q-57 -319 -222.5 -469t-455.5 -150q-241 0 -358 102.5t-117 317.5zM457 385q0 -113 47.5 -152.5t152.5 -39.5q132 0 206 89t112 300l51 290q21 117 21 193 q0 114 -47.5 155.5t-153.5 41.5q-131 0 -205 -91.5t-111 -298.5l-51 -290q-22 -126 -22 -197zM518 1585l45 264h291l-45 -264h-291zM999 1585l45 264h291l-45 -264h-291z" />
<glyph unicode="&#xd7;" horiz-adv-x="1308" d="M287 459l342 293l-238 288l178 152l240 -289l344 291l123 -152l-342 -290l242 -295l-179 -152l-241 293l-344 -291z" />
<glyph unicode="&#xd8;" horiz-adv-x="1251" d="M29 -154l182 271q-70 98 -70 264q0 71 21 201l51 290q57 320 220 469.5t454 149.5q127 0 231 -33l103 150h252l-183 -269q74 -103 74 -274q0 -88 -18 -193l-52 -290q-57 -319 -222.5 -469t-455.5 -150q-137 0 -237 35l-103 -152h-247zM463 485l508 754q-45 23 -125 23 q-133 0 -207 -91.5t-109 -298.5zM526 217q44 -24 131 -24q131 0 206.5 89.5t111.5 299.5l67 397z" />
<glyph unicode="&#xd9;" horiz-adv-x="1376" d="M209 299q0 72 20 195l131 747l-88 27l33 186h514l-33 -186l-104 -27l-137 -782q-10 -62 -10 -94q0 -87 48 -118.5t160 -31.5q135 0 200 56.5t89 187.5l137 782l-92 27l33 186h475l-33 -186l-102 -27l-131 -747q-22 -123 -49 -204t-73 -148t-115 -104t-167.5 -56 t-238.5 -19q-254 0 -360.5 77t-106.5 259zM748 1946h276l96 -381h-176z" />
<glyph unicode="&#xda;" horiz-adv-x="1376" d="M209 299q0 72 20 195l131 747l-88 27l33 186h514l-33 -186l-104 -27l-137 -782q-10 -62 -10 -94q0 -87 48 -118.5t160 -31.5q135 0 200 56.5t89 187.5l137 782l-92 27l33 186h475l-33 -186l-102 -27l-131 -747q-22 -123 -49 -204t-73 -148t-115 -104t-167.5 -56 t-238.5 -19q-254 0 -360.5 77t-106.5 259zM803 1565l227 381h281l-324 -381h-184z" />
<glyph unicode="&#xdb;" horiz-adv-x="1376" d="M209 299q0 72 20 195l131 747l-88 27l33 186h514l-33 -186l-104 -27l-137 -782q-10 -62 -10 -94q0 -87 48 -118.5t160 -31.5q135 0 200 56.5t89 187.5l137 782l-92 27l33 186h475l-33 -186l-102 -27l-131 -747q-22 -123 -49 -204t-73 -148t-115 -104t-167.5 -56 t-238.5 -19q-254 0 -360.5 77t-106.5 259zM555 1563l358 360h226l229 -360h-215l-145 233l-230 -233h-223z" />
<glyph unicode="&#xdc;" horiz-adv-x="1376" d="M209 299q0 72 20 195l131 747l-88 27l33 186h514l-33 -186l-104 -27l-137 -782q-10 -62 -10 -94q0 -87 48 -118.5t160 -31.5q135 0 200 56.5t89 187.5l137 782l-92 27l33 186h475l-33 -186l-102 -27l-131 -747q-22 -123 -49 -204t-73 -148t-115 -104t-167.5 -56 t-238.5 -19q-254 0 -360.5 77t-106.5 259zM580 1585l45 264h290l-45 -264h-290zM1061 1585l45 264h291l-45 -264h-291z" />
<glyph unicode="&#xdd;" horiz-adv-x="1230" d="M266 1268l33 186h502l-33 -186l-98 -27l125 -459l288 459l-77 27l32 186h406l-33 -186l-98 -27l-441 -682l-61 -346l115 -27l-33 -186h-555l33 186l123 27l61 346l-205 682zM752 1565l227 381h281l-324 -381h-184z" />
<glyph unicode="&#xde;" horiz-adv-x="1187" d="M59 0l33 186l111 27l180 1028l-100 27l32 186h523l-33 -186l-109 -27l-14 -90h256q182 0 265 -64.5t83 -212.5q0 -70 -14 -147q-41 -232 -153 -330t-333 -98h-256l-14 -86l98 -27l-32 -186h-523zM565 494h205q83 0 130 55t69 178q12 67 12 113q0 70 -30.5 94t-98.5 24 h-205z" />
<glyph unicode="&#xdf;" horiz-adv-x="1429" d="M41 0l33 186l110 25l174 987q13 75 41.5 128.5t66 85.5t95 49.5t115.5 23.5t141 6q91 0 152.5 -7.5t113.5 -28t77.5 -61t25.5 -102.5q0 -42 -10 -94l-66 -360q-2 -10 -2 -25q0 -47 35.5 -71.5t116.5 -51.5q101 -34 147.5 -83t46.5 -136q0 -26 -31 -207 q-53 -301 -440 -301q-229 0 -350 113l47 268h203l-2 -131q67 -45 153 -45q58 0 97 35t54 82.5t15 103.5q0 20 -7 33.5t-26 32.5q-15 14 -59.5 31.5t-92 37t-94.5 48.5t-77.5 80.5t-30.5 119.5q0 28 6 62l62 348q4 28 4 39q0 39 -24.5 53t-80.5 14q-59 0 -94 -23.5t-45 -82.5 l-170 -971l80 -25l-33 -186h-477z" />
<glyph unicode="&#xe0;" d="M80 201q0 50 24 176q52 289 361 289q162 0 330 -54l24 136q4 28 4 40q0 55 -37.5 72t-126.5 17q-183 0 -340 -89l-51 205q193 113 477 113q195 0 281 -53.5t86 -178.5q0 -40 -10 -98l-96 -555q-2 -10 -2 -28q0 -50 47 -50q24 0 51 21l-15 -150q-63 -49 -163 -49 q-178 0 -187 174q-56 -80 -160 -128t-227 -48q-138 0 -204 63t-66 175zM369 252q0 -45 24 -63.5t82 -18.5q129 0 260 100l35 195q-111 33 -225 33q-90 0 -133 -70t-43 -176zM553 1569h276l97 -381h-176z" />
<glyph unicode="&#xe1;" d="M80 201q0 50 24 176q52 289 361 289q162 0 330 -54l24 136q4 28 4 40q0 55 -37.5 72t-126.5 17q-183 0 -340 -89l-51 205q193 113 477 113q195 0 281 -53.5t86 -178.5q0 -40 -10 -98l-96 -555q-2 -10 -2 -28q0 -50 47 -50q24 0 51 21l-15 -150q-63 -49 -163 -49 q-178 0 -187 174q-56 -80 -160 -128t-227 -48q-138 0 -204 63t-66 175zM369 252q0 -45 24 -63.5t82 -18.5q129 0 260 100l35 195q-111 33 -225 33q-90 0 -133 -70t-43 -176zM608 1188l228 381h280l-323 -381h-185z" />
<glyph unicode="&#xe2;" d="M80 201q0 50 24 176q52 289 361 289q162 0 330 -54l24 136q4 28 4 40q0 55 -37.5 72t-126.5 17q-183 0 -340 -89l-51 205q193 113 477 113q195 0 281 -53.5t86 -178.5q0 -40 -10 -98l-96 -555q-2 -10 -2 -28q0 -50 47 -50q24 0 51 21l-15 -150q-63 -49 -163 -49 q-178 0 -187 174q-56 -80 -160 -128t-227 -48q-138 0 -204 63t-66 175zM360 1186l359 360h225l230 -360h-216l-145 233l-229 -233h-224zM369 252q0 -45 24 -63.5t82 -18.5q129 0 260 100l35 195q-111 33 -225 33q-90 0 -133 -70t-43 -176z" />
<glyph unicode="&#xe3;" d="M80 201q0 50 24 176q52 289 361 289q162 0 330 -54l24 136q4 28 4 40q0 55 -37.5 72t-126.5 17q-183 0 -340 -89l-51 205q193 113 477 113q195 0 281 -53.5t86 -178.5q0 -40 -10 -98l-96 -555q-2 -10 -2 -28q0 -50 47 -50q24 0 51 21l-15 -150q-63 -49 -163 -49 q-178 0 -187 174q-56 -80 -160 -128t-227 -48q-138 0 -204 63t-66 175zM369 252q0 -45 24 -63.5t82 -18.5q129 0 260 100l35 195q-111 33 -225 33q-90 0 -133 -70t-43 -176zM401 1171l33 191q94 90 203 90q47 0 94 -16.5t79.5 -36.5t74 -36.5t78.5 -16.5q109 0 213 104 l-33 -190q-91 -91 -201 -91q-62 0 -121.5 27.5t-111 54.5t-93.5 27q-59 0 -109.5 -26t-105.5 -81z" />
<glyph unicode="&#xe4;" d="M80 201q0 50 24 176q52 289 361 289q162 0 330 -54l24 136q4 28 4 40q0 55 -37.5 72t-126.5 17q-183 0 -340 -89l-51 205q193 113 477 113q195 0 281 -53.5t86 -178.5q0 -40 -10 -98l-96 -555q-2 -10 -2 -28q0 -50 47 -50q24 0 51 21l-15 -150q-63 -49 -163 -49 q-178 0 -187 174q-56 -80 -160 -128t-227 -48q-138 0 -204 63t-66 175zM369 252q0 -45 24 -63.5t82 -18.5q129 0 260 100l35 195q-111 33 -225 33q-90 0 -133 -70t-43 -176zM385 1208l45 265h291l-45 -265h-291zM866 1208l45 265h291l-45 -265h-291z" />
<glyph unicode="&#xe5;" d="M80 201q0 50 24 176q52 289 361 289q162 0 330 -54l24 136q4 28 4 40q0 55 -37.5 72t-126.5 17q-183 0 -340 -89l-51 205q193 113 477 113q195 0 281 -53.5t86 -178.5q0 -40 -10 -98l-96 -555q-2 -10 -2 -28q0 -50 47 -50q24 0 51 21l-15 -150q-63 -49 -163 -49 q-178 0 -187 174q-56 -80 -160 -128t-227 -48q-138 0 -204 63t-66 175zM369 252q0 -45 24 -63.5t82 -18.5q129 0 260 100l35 195q-111 33 -225 33q-90 0 -133 -70t-43 -176zM563 1313q0 120 69 188t204 68q196 0 196 -164q0 -124 -61.5 -190t-208.5 -66q-199 0 -199 164z M688 1335q0 -82 92 -82q133 0 133 129q0 88 -94 88q-64 0 -97.5 -36t-33.5 -99z" />
<glyph unicode="&#xe6;" horiz-adv-x="1675" d="M80 201q0 50 24 176q52 289 361 289q155 0 330 -54l24 133q4 24 4 37q0 56 -39.5 75.5t-124.5 19.5q-178 0 -340 -89l-53 205q187 111 475 111q240 0 289 -121q109 121 326 121q213 0 300 -74.5t87 -232.5q0 -89 -21 -203l-24 -137h-649q-9 -70 -9 -82q0 -96 53 -140.5 t164 -44.5q198 0 302 119l73 -164q-134 -180 -450 -180q-296 0 -377 195q-90 -102 -213.5 -149.5t-243.5 -47.5q-137 0 -202.5 63t-65.5 175zM367 252q0 -47 24.5 -65.5t83.5 -18.5q70 0 139.5 31.5t120.5 79.5l33 184q-98 35 -225 35q-73 0 -111.5 -36t-50.5 -110 q-14 -77 -14 -100zM1081 641h385q15 96 15 133q0 70 -34.5 101.5t-123.5 31.5q-61 0 -104.5 -18.5t-70 -56.5t-41.5 -82t-26 -109z" />
<glyph unicode="&#xe7;" horiz-adv-x="980" d="M115 309q0 66 10 117l41 236q35 206 171 325t374 119q268 0 374 -135l-47 -273h-213l4 138q-42 55 -141 55q-98 0 -158.5 -64.5t-78.5 -171.5l-35 -198q-10 -58 -10 -92q0 -84 46 -121t148 -37q88 0 167.5 39.5t133.5 115.5l82 -167q-174 -232 -451 -232 q-210 0 -313.5 88.5t-103.5 257.5zM334 -416q74 56 135 140h-123l37 217h250l-37 -217q-26 -55 -77 -112.5t-113 -103.5z" />
<glyph unicode="&#xe8;" horiz-adv-x="1038" d="M119 330q0 56 12 121l29 159q45 257 174.5 376.5t384.5 119.5q213 0 300 -75.5t87 -233.5q0 -70 -21 -203l-24 -137h-649q-13 -67 -13 -109q0 -90 51 -124t171 -34q107 0 176.5 31t126.5 92l71 -168q-135 -182 -454 -182q-215 0 -318.5 97.5t-103.5 269.5zM444 641h387 q15 92 15 129q0 70 -35 103.5t-123 33.5q-62 0 -106.5 -21t-71 -61t-41 -82.5t-25.5 -101.5zM535 1569h276l96 -381h-176z" />
<glyph unicode="&#xe9;" horiz-adv-x="1038" d="M119 330q0 56 12 121l29 159q45 257 174.5 376.5t384.5 119.5q213 0 300 -75.5t87 -233.5q0 -70 -21 -203l-24 -137h-649q-13 -67 -13 -109q0 -90 51 -124t171 -34q107 0 176.5 31t126.5 92l71 -168q-135 -182 -454 -182q-215 0 -318.5 97.5t-103.5 269.5zM444 641h387 q15 92 15 129q0 70 -35 103.5t-123 33.5q-62 0 -106.5 -21t-71 -61t-41 -82.5t-25.5 -101.5zM569 1188l228 381h280l-323 -381h-185z" />
<glyph unicode="&#xea;" horiz-adv-x="1038" d="M119 330q0 56 12 121l29 159q45 257 174.5 376.5t384.5 119.5q213 0 300 -75.5t87 -233.5q0 -70 -21 -203l-24 -137h-649q-13 -67 -13 -109q0 -90 51 -124t171 -34q107 0 176.5 31t126.5 92l71 -168q-135 -182 -454 -182q-215 0 -318.5 97.5t-103.5 269.5zM322 1186 l358 360h225l230 -360h-215l-146 233l-229 -233h-223zM444 641h387q15 92 15 129q0 70 -35 103.5t-123 33.5q-62 0 -106.5 -21t-71 -61t-41 -82.5t-25.5 -101.5z" />
<glyph unicode="&#xeb;" horiz-adv-x="1038" d="M119 330q0 56 12 121l29 159q45 257 174.5 376.5t384.5 119.5q213 0 300 -75.5t87 -233.5q0 -70 -21 -203l-24 -137h-649q-13 -67 -13 -109q0 -90 51 -124t171 -34q107 0 176.5 31t126.5 92l71 -168q-135 -182 -454 -182q-215 0 -318.5 97.5t-103.5 269.5zM346 1208 l45 265h291l-45 -265h-291zM444 641h387q15 92 15 129q0 70 -35 103.5t-123 33.5q-62 0 -106.5 -21t-71 -61t-41 -82.5t-25.5 -101.5zM827 1208l45 265h291l-45 -265h-291z" />
<glyph unicode="&#xec;" horiz-adv-x="595" d="M47 0l33 186l110 27l115 651l-102 27l33 186h397l-152 -864l103 -27l-33 -186h-504zM293 1569h276l97 -381h-177z" />
<glyph unicode="&#xed;" horiz-adv-x="595" d="M47 0l33 186l110 27l115 651l-102 27l33 186h397l-152 -864l103 -27l-33 -186h-504zM348 1188l227 381h281l-324 -381h-184z" />
<glyph unicode="&#xee;" horiz-adv-x="741" d="M119 0l33 186l110 27l115 651l-103 27l33 186h398l-152 -864l102 -27l-32 -186h-504zM172 1186l358 360h226l229 -360h-215l-145 233l-230 -233h-223z" />
<glyph unicode="&#xef;" horiz-adv-x="733" d="M115 0l32 186l111 27l115 651l-103 27l33 186h397l-151 -864l102 -27l-33 -186h-503zM193 1208l45 265h290l-45 -265h-290zM674 1208l45 265h291l-45 -265h-291z" />
<glyph unicode="&#xf0;" horiz-adv-x="1089" d="M104 270q0 49 13 119l37 205q16 91 46.5 155t71 103.5t101.5 62t125.5 30t156.5 7.5q165 0 213 -71v45q0 124 -26 237l-262 -92l-37 162l245 86q-34 76 -79 133l211 72q59 -69 94 -125l205 71l34 -161l-161 -58q69 -175 69 -391q0 -135 -28 -305l-29 -166 q-39 -228 -174 -327t-393 -99q-221 0 -327 72.5t-106 234.5zM403 319q0 -76 39.5 -107.5t132.5 -31.5q101 0 162.5 51.5t77.5 139.5l39 211v22q0 154 -178 154q-204 0 -234 -176l-26 -152q-13 -70 -13 -111z" />
<glyph unicode="&#xf1;" horiz-adv-x="1298" d="M47 0l33 186l110 27l115 651l-102 27l33 186h372l-14 -121q104 81 200.5 115.5t233.5 34.5q268 0 268 -215q0 -22 -8 -80l-104 -598l102 -27l-33 -186h-497l32 186l105 27l94 537q4 28 4 38q0 49 -31.5 67.5t-93.5 18.5q-172 0 -284 -92l-101 -569l97 -27l-33 -186h-498z M492 1171l32 191q94 90 203 90q47 0 94 -16.5t79.5 -36.5t74 -36.5t78.5 -16.5q109 0 213 104l-33 -190q-91 -91 -201 -91q-49 0 -97.5 17t-80.5 37.5t-72.5 37.5t-74.5 17q-59 0 -109.5 -26t-105.5 -81z" />
<glyph unicode="&#xf2;" horiz-adv-x="1075" d="M111 287q0 68 14 139l39 219q43 240 178.5 350.5t388.5 110.5q215 0 316.5 -78.5t101.5 -245.5q0 -64 -12 -137l-39 -219q-43 -242 -179 -352.5t-391 -110.5q-214 0 -315.5 78.5t-101.5 245.5zM399 319q0 -80 38 -106.5t132 -26.5q113 0 168.5 60t79.5 198l31 183 q16 99 14 125q0 78 -39 104.5t-133 26.5q-112 0 -168 -60.5t-78 -195.5l-30 -183q-15 -96 -15 -125zM532 1569h277l96 -381h-176z" />
<glyph unicode="&#xf3;" horiz-adv-x="1075" d="M111 287q0 68 14 139l39 219q43 240 178.5 350.5t388.5 110.5q215 0 316.5 -78.5t101.5 -245.5q0 -64 -12 -137l-39 -219q-43 -242 -179 -352.5t-391 -110.5q-214 0 -315.5 78.5t-101.5 245.5zM399 319q0 -80 38 -106.5t132 -26.5q113 0 168.5 60t79.5 198l31 183 q16 99 14 125q0 78 -39 104.5t-133 26.5q-112 0 -168 -60.5t-78 -195.5l-30 -183q-15 -96 -15 -125zM588 1188l227 381h281l-324 -381h-184z" />
<glyph unicode="&#xf4;" horiz-adv-x="1075" d="M111 287q0 68 14 139l39 219q43 240 178.5 350.5t388.5 110.5q215 0 316.5 -78.5t101.5 -245.5q0 -64 -12 -137l-39 -219q-43 -242 -179 -352.5t-391 -110.5q-214 0 -315.5 78.5t-101.5 245.5zM340 1186l358 360h226l229 -360h-215l-145 233l-230 -233h-223zM399 319 q0 -80 38 -106.5t132 -26.5q113 0 168.5 60t79.5 198l31 183q16 99 14 125q0 78 -39 104.5t-133 26.5q-112 0 -168 -60.5t-78 -195.5l-30 -183q-15 -96 -15 -125z" />
<glyph unicode="&#xf5;" horiz-adv-x="1075" d="M111 287q0 68 14 139l39 219q43 240 178.5 350.5t388.5 110.5q215 0 316.5 -78.5t101.5 -245.5q0 -64 -12 -137l-39 -219q-43 -242 -179 -352.5t-391 -110.5q-214 0 -315.5 78.5t-101.5 245.5zM379 1171l33 191q94 90 202 90q47 0 94 -16.5t79.5 -36.5t74 -36.5 t78.5 -16.5q109 0 213 104l-33 -190q-91 -91 -200 -91q-62 0 -121.5 27.5t-111 54.5t-93.5 27q-59 0 -109.5 -26t-105.5 -81zM399 319q0 -80 38 -106.5t132 -26.5q113 0 168.5 60t79.5 198l31 183q16 99 14 125q0 78 -39 104.5t-133 26.5q-112 0 -168 -60.5t-78 -195.5 l-30 -183q-15 -96 -15 -125z" />
<glyph unicode="&#xf6;" horiz-adv-x="1075" d="M111 287q0 68 14 139l39 219q43 240 178.5 350.5t388.5 110.5q215 0 316.5 -78.5t101.5 -245.5q0 -64 -12 -137l-39 -219q-43 -242 -179 -352.5t-391 -110.5q-214 0 -315.5 78.5t-101.5 245.5zM365 1208l45 265h290l-45 -265h-290zM399 319q0 -80 38 -106.5t132 -26.5 q113 0 168.5 60t79.5 198l31 183q16 99 14 125q0 78 -39 104.5t-133 26.5q-112 0 -168 -60.5t-78 -195.5l-30 -183q-15 -96 -15 -125zM846 1208l45 265h291l-45 -265h-291z" />
<glyph unicode="&#xf7;" horiz-adv-x="1245" d="M215 647l39 213h1038l-39 -213h-1038zM496 172l57 332h311l-57 -332h-311zM643 1004l57 331h312l-58 -331h-311z" />
<glyph unicode="&#xf8;" horiz-adv-x="1075" d="M20 -154l158 226q-67 76 -67 215q0 68 14 139l39 219q43 240 178.5 350.5t388.5 110.5q94 0 160 -14l98 139h248l-162 -230q74 -77 74 -221q0 -62 -12 -135l-39 -219q-43 -242 -179 -352.5t-391 -110.5q-89 0 -172 17l-92 -134h-244zM406 397l337 484q-16 2 -53 2 q-114 0 -169 -60t-77 -196zM504 188q18 -2 65 -2q113 0 168.5 60t79.5 198l41 248z" />
<glyph unicode="&#xf9;" horiz-adv-x="1185" d="M172 238q0 39 10 94l94 532l-83 27l32 186h475l-32 -186l-103 -27l-94 -528q-4 -16 -4 -45q0 -55 40.5 -74.5t139.5 -19.5q110 0 159 33.5t62 105.5l95 528l-95 27l33 186h436l-32 -186l-93 -27l-94 -532q-35 -195 -160 -282t-366 -87q-213 0 -316.5 65.5t-103.5 209.5z M588 1569h276l97 -381h-177z" />
<glyph unicode="&#xfa;" horiz-adv-x="1185" d="M172 238q0 39 10 94l94 532l-83 27l32 186h475l-32 -186l-103 -27l-94 -528q-4 -16 -4 -45q0 -55 40.5 -74.5t139.5 -19.5q110 0 159 33.5t62 105.5l95 528l-95 27l33 186h436l-32 -186l-93 -27l-94 -532q-35 -195 -160 -282t-366 -87q-213 0 -316.5 65.5t-103.5 209.5z M643 1188l227 381h281l-324 -381h-184z" />
<glyph unicode="&#xfb;" horiz-adv-x="1185" d="M172 238q0 39 10 94l94 532l-83 27l32 186h475l-32 -186l-103 -27l-94 -528q-4 -16 -4 -45q0 -55 40.5 -74.5t139.5 -19.5q110 0 159 33.5t62 105.5l95 528l-95 27l33 186h436l-32 -186l-93 -27l-94 -532q-35 -195 -160 -282t-366 -87q-213 0 -316.5 65.5t-103.5 209.5z M395 1186l359 360h225l229 -360h-215l-145 233l-230 -233h-223z" />
<glyph unicode="&#xfc;" horiz-adv-x="1185" d="M172 238q0 39 10 94l94 532l-83 27l32 186h475l-32 -186l-103 -27l-94 -528q-4 -16 -4 -45q0 -55 40.5 -74.5t139.5 -19.5q110 0 159 33.5t62 105.5l95 528l-95 27l33 186h436l-32 -186l-93 -27l-94 -532q-35 -195 -160 -282t-366 -87q-213 0 -316.5 65.5t-103.5 209.5z M420 1208l45 265h291l-45 -265h-291zM901 1208l45 265h291l-45 -265h-291z" />
<glyph unicode="&#xfd;" horiz-adv-x="1173" d="M-51 -387l108 209q57 -60 152 -60q68 0 114.5 38.5t92.5 117.5l22 39l-168 913l-86 19l33 188h473l-33 -188l-90 -19l86 -614l312 614l-78 19l33 188h409l-33 -188l-92 -19l-524 -956q-42 -77 -77 -131.5t-81 -109t-92.5 -88t-106.5 -54t-128 -20.5q-169 0 -246 102z M657 1188l228 381h280l-323 -381h-185z" />
<glyph unicode="&#xfe;" horiz-adv-x="1155" d="M-78 -467l33 186l111 27l266 1514l-103 26l33 187h397l-88 -500q166 133 385 133q141 0 207 -69t66 -214q0 -83 -17 -176l-36 -207q-46 -256 -149 -365.5t-306 -109.5q-204 0 -307 109l-58 -328l121 -27l-33 -186h-522zM446 262q36 -33 91.5 -52.5t113.5 -19.5 q105 0 159.5 63t76.5 185l35 193q12 73 12 119q0 73 -31 100t-102 27q-146 0 -264 -109z" />
<glyph unicode="&#xff;" horiz-adv-x="1173" d="M-51 -387l108 209q57 -60 152 -60q68 0 114.5 38.5t92.5 117.5l22 39l-168 913l-86 19l33 188h473l-33 -188l-90 -19l86 -614l312 614l-78 19l33 188h409l-33 -188l-92 -19l-524 -956q-42 -77 -77 -131.5t-81 -109t-92.5 -88t-106.5 -54t-128 -20.5q-169 0 -246 102z M440 1208l45 265h291l-45 -265h-291zM922 1208l45 265h290l-45 -265h-290z" />
<glyph unicode="&#x152;" horiz-adv-x="1812" d="M137 362q0 75 19 189l61 352q52 297 196 424t423 127h1153l-72 -403h-178l4 178h-387l-66 -371h318l47 113h149l-75 -432h-150l-6 112h-318l-73 -413h389l76 211h176l-78 -449h-1165q-231 0 -337 84.5t-106 277.5zM455 387q0 -97 40 -131.5t123 -34.5h250l179 1012h-250 q-106 0 -167.5 -71t-92.5 -249l-66 -372q-16 -98 -16 -154z" />
<glyph unicode="&#x153;" horiz-adv-x="1730" d="M109 289q0 66 14 137l39 219q41 237 176.5 348t386.5 111t330 -125q115 127 356 127q213 0 300 -75.5t87 -233.5q0 -76 -20 -203l-25 -137h-649q-6 -41 -6 -76q0 -191 215 -191q114 0 183.5 28.5t119.5 94.5l72 -168q-135 -182 -455 -182q-239 0 -320 137 q-120 -137 -385 -137q-216 0 -317.5 79t-101.5 247zM397 322q0 -80 39 -108t133 -28q112 0 168 60t80 198l31 181q12 73 12 123q0 80 -38 107.5t-132 27.5q-112 0 -168 -59.5t-80 -198.5l-30 -181q-15 -92 -15 -122zM1137 641h387q14 86 14 129q0 71 -35 104t-123 33 q-49 0 -88 -15t-64.5 -39t-44 -60.5t-28.5 -71.5t-18 -80z" />
<glyph unicode="&#x178;" horiz-adv-x="1230" d="M266 1268l33 186h502l-33 -186l-98 -27l125 -459l288 459l-77 27l32 186h406l-33 -186l-98 -27l-441 -682l-61 -346l115 -27l-33 -186h-555l33 186l123 27l61 346l-205 682zM508 1585l45 264h291l-45 -264h-291zM989 1585l45 264h291l-45 -264h-291z" />
<glyph unicode="&#x2c6;" horiz-adv-x="931" d="M268 1186l359 360h225l229 -360h-215l-145 233l-229 -233h-224z" />
<glyph unicode="&#x2dc;" horiz-adv-x="841" d="M262 1171l33 191q94 90 203 90q47 0 94 -16.5t79 -36.5t73.5 -36.5t78.5 -16.5q109 0 213 104l-32 -190q-91 -91 -201 -91q-62 0 -121.5 27.5t-111 54.5t-93.5 27q-59 0 -109.5 -26t-105.5 -81z" />
<glyph unicode="&#x2000;" horiz-adv-x="973" />
<glyph unicode="&#x2001;" horiz-adv-x="1946" />
<glyph unicode="&#x2002;" horiz-adv-x="973" />
<glyph unicode="&#x2003;" horiz-adv-x="1946" />
<glyph unicode="&#x2004;" horiz-adv-x="648" />
<glyph unicode="&#x2005;" horiz-adv-x="486" />
<glyph unicode="&#x2006;" horiz-adv-x="324" />
<glyph unicode="&#x2007;" horiz-adv-x="324" />
<glyph unicode="&#x2008;" horiz-adv-x="243" />
<glyph unicode="&#x2009;" horiz-adv-x="389" />
<glyph unicode="&#x200a;" horiz-adv-x="108" />
<glyph unicode="&#x2010;" horiz-adv-x="663" d="M158 559l39 229h544l-39 -229h-544z" />
<glyph unicode="&#x2011;" horiz-adv-x="663" d="M158 559l39 229h544l-39 -229h-544z" />
<glyph unicode="&#x2012;" horiz-adv-x="663" d="M158 559l39 229h544l-39 -229h-544z" />
<glyph unicode="&#x2013;" horiz-adv-x="1097" d="M158 559l39 229h981l-39 -229h-981z" />
<glyph unicode="&#x2014;" horiz-adv-x="1507" d="M158 559l39 229h1388l-39 -229h-1388z" />
<glyph unicode="&#x2018;" horiz-adv-x="438" d="M262 1126l62 347h311l-57 -332h-172q25 -91 110 -187l-108 -96q-54 56 -94 128t-52 140z" />
<glyph unicode="&#x2019;" horiz-adv-x="438" d="M260 954q124 104 176 187h-170l58 332h311l-62 -347q-38 -70 -102.5 -142t-138.5 -126z" />
<glyph unicode="&#x201a;" horiz-adv-x="438" d="M57 -186q124 100 179 186h-170l57 332h311l-61 -346q-38 -70 -103.5 -142t-138.5 -125z" />
<glyph unicode="&#x201c;" horiz-adv-x="876" d="M262 1126l62 347h311l-57 -332h-172q25 -91 110 -187l-108 -96q-54 56 -94 128t-52 140zM700 1126l62 347h311l-57 -332h-172q25 -91 110 -187l-108 -96q-54 56 -94 128t-52 140z" />
<glyph unicode="&#x201d;" horiz-adv-x="876" d="M260 954q124 104 176 187h-170l58 332h311l-62 -347q-38 -70 -102.5 -142t-138.5 -126zM698 954q124 104 176 187h-169l57 332h311l-61 -347q-38 -70 -103 -142t-139 -126z" />
<glyph unicode="&#x201e;" horiz-adv-x="876" d="M57 -186q124 100 179 186h-170l57 332h311l-61 -346q-38 -70 -103.5 -142t-138.5 -125zM496 -186q122 99 178 186h-170l57 332h311l-61 -346q-38 -70 -103.5 -142t-138.5 -125z" />
<glyph unicode="&#x2022;" horiz-adv-x="753" d="M186 698q0 157 102.5 261t276.5 104q131 0 200 -69t69 -185q0 -156 -102.5 -261.5t-276.5 -105.5q-129 0 -199 71t-70 185z" />
<glyph unicode="&#x2026;" horiz-adv-x="2170" d="M61 0l58 332h311l-57 -332h-312zM930 0l57 332h311l-57 -332h-311zM1798 0l57 332h312l-58 -332h-311z" />
<glyph unicode="&#x202f;" horiz-adv-x="389" />
<glyph unicode="&#x2039;" horiz-adv-x="464" d="M156 578l41 225l405 295l-39 -226l-260 -186l195 -186l-39 -217z" />
<glyph unicode="&#x203a;" horiz-adv-x="464" d="M102 283l39 223l258 188l-192 185l39 217l303 -295l-39 -226z" />
<glyph unicode="&#x205f;" horiz-adv-x="486" />
<glyph unicode="&#x20ac;" horiz-adv-x="1146" d="M109 477l57 156h115l30 176h-145l59 156h117q67 271 227 398.5t428 127.5q219 0 344 -80l-124 -205q-86 56 -261 56q-120 0 -190.5 -69.5t-106.5 -227.5h418l-94 -156h-354l-31 -176h283l-95 -156h-211q-6 -52 -6 -90q0 -113 47 -153.5t152 -40.5q182 0 293 57l78 -187 q-166 -100 -412 -100q-240 0 -357.5 101.5t-117.5 314.5q0 45 6 98h-149z" />
<glyph unicode="&#x2122;" horiz-adv-x="1851" d="M256 1112l61 342h672l-61 -342h-111l21 203h-115l-107 -600l68 -17l-20 -110h-330l20 110l72 17l106 600h-112l-55 -203h-109zM897 588l21 110l63 17l109 610l-60 18l21 111h360l25 -649l260 649h348l-21 -111l-65 -18l-109 -610l62 -17l-21 -110h-291l21 110l61 17 l105 594l-301 -721h-193l-45 721l-104 -594l57 -17l-20 -110h-283z" />
<glyph unicode="&#x25fc;" horiz-adv-x="1075" d="M0 0v1075h1075v-1075h-1075z" />
<glyph unicode="&#xfb01;" horiz-adv-x="1300" d="M51 0l33 186l113 27l118 672h-122l32 192h123l23 125q29 156 116 222.5t246 66.5t221 -45l-63 -180q-36 22 -105 22q-118 0 -135 -104l-18 -107h235l-32 -192h-236l-119 -672l123 -27l-33 -186h-520zM752 0l32 186l111 27l115 651l-103 27l33 186h397l-151 -864l102 -27 l-33 -186h-503zM1071 1208l45 265h291l-45 -265h-291z" />
<glyph unicode="&#xfb02;" horiz-adv-x="1331" d="M51 0l33 186l113 27l118 672h-122l32 192h123l23 125q29 156 116 222.5t246 66.5t221 -45l-63 -180q-36 22 -105 22q-118 0 -135 -104l-18 -107h235l-32 -192h-236l-119 -672l123 -27l-33 -186h-520zM782 0l33 186l111 27l184 1047l-102 26l32 187h398l-221 -1260 l102 -27l-33 -186h-504z" />
</font>
</defs>
</svg>
