<?xml version="1.0" standalone="no"?>
<!DOCTYPE svg PUBLIC "-//W3C//DTD SVG 1.1//EN" "http://www.w3.org/Graphics/SVG/1.1/DTD/svg11.dtd" >
<svg xmlns="http://www.w3.org/2000/svg">
<metadata></metadata>
<defs>
<font id="vectipedeblack" horiz-adv-x="669" >
<font-face units-per-em="2048" ascent="1556" descent="-492" />
<missing-glyph horiz-adv-x="573" />
<glyph unicode="&#x28;C&#x29;" horiz-adv-x="1302" d="M53 524v406q0 302 143.5 431.5t454.5 129.5t454.5 -129.5t143.5 -431.5v-406q0 -302 -143.5 -431.5t-454.5 -129.5t-454.5 129.5t-143.5 431.5zM229 524q0 -208 101 -297.5t321 -89.5t322 89.5t102 297.5v406q0 208 -102 296.5t-322 88.5t-321 -88.5t-101 -296.5v-406z M369 662v155q0 178 71.5 248t245.5 70q68 0 129 -18t96 -54v-158h-153l-10 62q-24 30 -76 30q-60 0 -83.5 -43t-23.5 -137v-155q0 -100 23.5 -141.5t83.5 -41.5q54 0 78 33l10 61h153v-153q-79 -76 -227 -76q-174 0 -245.5 69.5t-71.5 248.5z" />
<glyph unicode="&#x28;R&#x29;" horiz-adv-x="1302" d="M53 524v406q0 302 143.5 431.5t454.5 129.5t454.5 -129.5t143.5 -431.5v-406q0 -302 -143.5 -431.5t-454.5 -129.5t-454.5 129.5t-143.5 431.5zM229 524q0 -208 101 -297.5t321 -89.5t322 89.5t102 297.5v406q0 208 -102 296.5t-322 88.5t-321 -88.5t-101 -296.5v-406z M342 362v115l49 15v495l-49 14v115h381q195 0 195 -176v-37q0 -72 -20.5 -106.5t-61.5 -51.5q47 -16 72.5 -50t25.5 -111v-92l49 -15v-115h-139q-61 0 -81 21t-20 78v139q0 41 -13.5 60.5t-45.5 19.5h-106v-188l49 -15v-115h-285zM578 801h100q57 0 57 88q0 90 -57 90h-100 v-178z" />
<glyph horiz-adv-x="2048" />
<glyph horiz-adv-x="2048" />
<glyph unicode="&#xd;" horiz-adv-x="2048" />
<glyph horiz-adv-x="573" />
<glyph unicode=" "  horiz-adv-x="573" />
<glyph unicode="&#x09;" horiz-adv-x="573" />
<glyph unicode="&#xa0;" horiz-adv-x="573" />
<glyph unicode="!" horiz-adv-x="501" d="M53 1335q0 81 17 119h366q13 -54 13 -119q0 -216 -25 -416t-82 -485h-182q-57 285 -82 485t-25 416zM70 0v319h358v-319h-358z" />
<glyph unicode="&#x22;" horiz-adv-x="784" d="M53 907v547h266v-547h-266zM459 907v547h266v-547h-266z" />
<glyph unicode="#" horiz-adv-x="1167" d="M53 395l25 228h182l29 211h-176l26 227h180l58 393h221l-55 -393h164l51 393h229l-53 -393h180l-33 -227h-176l-28 -211h178l-25 -228h-184l-53 -395h-232l60 395h-164l-49 -395h-230l53 395h-178zM483 623h164l31 211h-162z" />
<glyph unicode="$" horiz-adv-x="1038" d="M53 905v96q0 250 326 293v160h274v-158q175 -14 277 -84v-278h-248l-23 133q-57 14 -129 14q-95 0 -134.5 -20t-39.5 -74q0 -47 29.5 -65t106.5 -31q177 -32 198 -37q159 -35 227 -96.5t68 -184.5v-112q0 -255 -332 -295v-166h-274v166q-192 22 -316 106v277h248l21 -109 q76 -37 155 -37q101 0 141 18.5t40 72.5q0 43 -15 64t-57 34q-33 10 -111.5 21t-103.5 16q-38 8 -61.5 13.5t-54.5 13.5t-49.5 14.5t-42 17t-37 21t-29 25t-24 31.5t-16.5 38t-11 46.5t-3 55.5z" />
<glyph unicode="%" horiz-adv-x="1441" d="M53 997v226q0 147 66 208.5t192 61.5t192 -61.5t66 -208.5v-226q0 -146 -66 -207t-192 -61t-192 61t-66 207zM197 -43l856 1542h192l-860 -1542h-188zM225 973q0 -101 86 -101t86 101v276q0 99 -86 99t-86 -99v-276zM872 229v226q0 147 66 208.5t192 61.5t192.5 -61.5 t66.5 -208.5v-226q0 -146 -66 -207t-193 -61q-126 0 -192 61t-66 207zM1044 205q0 -101 86 -101q87 0 87 101v276q0 99 -87 99q-86 0 -86 -99v-276z" />
<glyph unicode="&#x26;" horiz-adv-x="1351" d="M53 317v109q0 125 55.5 196t174.5 126q-68 74 -97.5 144t-29.5 157v106q0 178 100.5 257t329.5 79q227 0 320 -78t93 -258v-121q0 -117 -51.5 -196.5t-191.5 -149.5l182 -178q53 61 53 154v32h291v-43q0 -151 -22 -221.5t-95 -146.5l37 -35l96 -29v-221h-272l-82 82 q-67 -63 -164 -91t-284 -28q-223 0 -333 79.5t-110 274.5zM399 381q0 -74 37 -106.5t121 -32.5q47 0 81.5 16t76.5 53l-238 240q-49 -25 -63.5 -56.5t-14.5 -113.5zM483 1038q0 -47 20 -82t64 -79q81 36 110.5 73t29.5 84v96q0 53 -28.5 74t-80.5 21q-115 0 -115 -95v-92z " />
<glyph unicode="'" horiz-adv-x="372" d="M53 907v547h266v-547h-266z" />
<glyph unicode="(" horiz-adv-x="731" d="M143 659q0 258 89.5 496.5t271.5 439.5h252q-254 -461 -254 -940q0 -489 254 -968h-252q-177 203 -269 454t-92 518z" />
<glyph unicode=")" horiz-adv-x="731" d="M-25 -313q252 475 252 968q0 485 -252 940h252q182 -201 271.5 -439.5t89.5 -496.5q0 -267 -92 -518t-269 -454h-252z" />
<glyph unicode="*" horiz-adv-x="882" d="M53 1102l53 164l236 -74v274h193v-274l235 74l59 -164l-241 -76l157 -223l-145 -105l-162 213l-155 -213l-148 105l158 223z" />
<glyph unicode="+" horiz-adv-x="1251" d="M96 627v252h402v401h252v-401h403v-252h-403v-406h-252v406h-402z" />
<glyph unicode="," horiz-adv-x="473" d="M53 0v332h367v-348q-29 -73 -88.5 -148t-130.5 -129l-105 113q114 97 160 180h-203z" />
<glyph unicode="-" d="M57 539v270h555v-270h-555z" />
<glyph unicode="." horiz-adv-x="473" d="M53 0v332h367v-332h-367z" />
<glyph unicode="/" horiz-adv-x="677" d="M4 -219l377 1673h293l-383 -1673h-287z" />
<glyph unicode="0" horiz-adv-x="1148" d="M57 502v448q0 121 24 213.5t67.5 154t108.5 101t142.5 56t175.5 16.5q123 0 214.5 -27.5t161.5 -89t105.5 -167.5t35.5 -257v-448q0 -121 -24 -213.5t-67 -153.5t-108.5 -100t-142.5 -55.5t-175 -16.5q-123 0 -214.5 27t-161.5 88t-106 167.5t-36 256.5zM401 451 q0 -199 174 -199q173 0 173 199v553q0 196 -173 196q-174 0 -174 -196v-553z" />
<glyph unicode="1" horiz-adv-x="774" d="M4 1137q215 138 379 317h246v-1204l94 -29v-221h-543v221l115 29v760q-83 -61 -145 -92z" />
<glyph unicode="2" horiz-adv-x="1087" d="M53 1370q211 121 502 121q243 0 361 -114.5t118 -358.5q0 -132 -66.5 -252.5t-185.5 -227.5t-317 -239h350l29 139h203v-438h-990v315q68 41 117 72t121 81t123.5 92t108.5 97.5t92.5 106t59 109t23.5 114.5q0 95 -62 152t-165 57q-149 0 -317 -115z" />
<glyph unicode="3" horiz-adv-x="1032" d="M37 31l88 278q56 -24 136.5 -42.5t156.5 -18.5q109 0 175 46t66 148q0 83 -47.5 125.5t-128.5 42.5h-147v250h149q160 0 160 150q0 101 -64 147.5t-163 46.5q-76 0 -154.5 -24t-134.5 -62l-90 262q172 111 428 111q245 0 366 -105.5t121 -300.5q0 -109 -48 -199.5 t-134 -125.5q103 -38 157 -137t54 -224q0 -113 -38.5 -197.5t-110 -136t-167 -77t-216.5 -25.5q-237 0 -414 68z" />
<glyph unicode="4" horiz-adv-x="1144" d="M33 252v321q250 457 420 918l286 -113q-146 -434 -379 -860h334v467h312v-467h106v-266h-106v-252h-322v252h-651z" />
<glyph unicode="5" horiz-adv-x="1075" d="M45 68l94 264q156 -78 346 -78q113 0 174.5 55.5t61.5 169.5q0 213 -217 213q-67 0 -129.5 -27t-104.5 -77l-217 47l74 819h834v-430h-203l-29 139h-326l-22 -286q99 36 229 36q224 0 322 -114t98 -336q0 -262 -135.5 -381t-448.5 -119q-239 0 -401 105z" />
<glyph unicode="6" horiz-adv-x="1105" d="M41 608q0 132 27.5 254.5t84 230t137.5 190.5t194 137.5t247 70.5l82 -272q-81 -9 -159.5 -43.5t-137.5 -88.5q-63 -59 -95.5 -133t-51.5 -180q107 129 303 129q103 0 180.5 -33.5t124 -94t69.5 -139.5t23 -175q0 -242 -130 -370t-372 -128q-121 0 -212.5 30.5t-150.5 85 t-96 137t-52 177t-15 215.5zM367 494q0 -258 204 -258q179 0 179 227q0 101 -43.5 159t-133.5 58q-58 0 -111 -30t-91 -81q-4 -40 -4 -75z" />
<glyph unicode="7" horiz-adv-x="1042" d="M37 1016v438h977v-266q-404 -690 -492 -1225l-350 78q126 551 543 1114h-447l-28 -139h-203z" />
<glyph unicode="8" horiz-adv-x="1126" d="M33 391q0 270 272 357q-105 48 -163 135t-58 202q0 90 25.5 160t69 116t106.5 75.5t134 42t156 12.5q474 0 474 -404q0 -108 -51.5 -186.5t-151.5 -116.5q124 -57 186 -143t62 -225q0 -119 -39 -207.5t-111 -141.5t-165 -78.5t-208 -25.5t-210.5 25t-170 75.5t-116 134 t-41.5 193.5zM369 432q0 -89 50.5 -134.5t143.5 -45.5q189 0 189 190q0 81 -53.5 132t-139.5 75q-86 -10 -138 -69.5t-52 -147.5zM383 1030q0 -80 52.5 -131.5t135.5 -75.5q75 24 123.5 73.5t48.5 121.5q0 190 -178 190q-91 0 -136.5 -46t-45.5 -132z" />
<glyph unicode="9" horiz-adv-x="1105" d="M37 993q0 242 130 370t372 128q120 0 212.5 -36t151 -95.5t95.5 -145.5t52 -178t15 -200q0 -163 -44.5 -310t-128.5 -266.5t-217.5 -198.5t-299.5 -98l-82 273q177 20 297 131q63 59 95.5 133t51.5 180q-107 -129 -303 -129q-103 0 -180.5 33.5t-124 94t-69.5 139.5 t-23 175zM360 989q0 -98 43 -154.5t132 -56.5q57 0 109.5 29t90.5 78q4 46 4 73q0 252 -202 252q-93 0 -135 -60t-42 -161z" />
<glyph unicode=":" horiz-adv-x="524" d="M78 0v332h366v-332h-366zM78 743v328h366v-328h-366z" />
<glyph unicode=";" horiz-adv-x="528" d="M80 0v332h366v-348q-29 -73 -88.5 -148t-130.5 -129l-104 113q114 97 160 180h-203zM80 743v328h366v-328h-366z" />
<glyph unicode="&#x3c;" horiz-adv-x="1251" d="M96 627v252l1057 413v-278l-772 -262l772 -263v-278z" />
<glyph unicode="=" horiz-adv-x="1251" d="M96 408v251h1057v-251h-1057zM96 844v252h1057v-252h-1057z" />
<glyph unicode="&#x3e;" horiz-adv-x="1251" d="M96 211v278l772 263l-772 262v278l1057 -413v-252z" />
<glyph unicode="?" horiz-adv-x="950" d="M53 1083v273q126 135 400 135q216 0 330 -94.5t114 -274.5v-86q0 -116 -38 -180t-144 -117q-11 -5 -35.5 -16.5t-35 -17t-27.5 -18t-24.5 -24t-13.5 -30.5t-6 -43v-131h-307v176q0 41 5.5 73.5t20 57t26.5 40.5t38 31.5t40.5 23t49 22t48.5 20.5q60 28 77 59t17 109v27 q0 139 -144 139q-66 0 -122 -41l-21 -113h-248zM236 0v319h362v-319h-362z" />
<glyph unicode="@" horiz-adv-x="1189" d="M53 262v445q0 117 14 206.5t44.5 155t74 109t107.5 70t140 37.5t177 11q265 0 396 -106t131 -350v-723h-199l-6 67q-77 -92 -252 -92q-116 0 -167.5 67.5t-51.5 217.5v209q0 141 52.5 205.5t172.5 64.5q131 0 219 -35v27q0 132 -65.5 183.5t-229.5 51.5q-106 0 -165 -13 t-97.5 -55t-50.5 -109.5t-12 -188.5v-428q0 -75 12 -136.5t31 -104t48 -75t59 -51t67 -30t69 -15.5t68 -4q166 0 281 23l45 -193q-134 -47 -314 -47q-109 0 -195 16t-163.5 58t-128.5 109t-81 174t-30 249zM692 399q0 -55 18 -80.5t62 -25.5q82 0 133 45v305q-73 25 -117 25 q-54 0 -75 -24.5t-21 -90.5v-154z" />
<glyph unicode="A" horiz-adv-x="1323" d="M45 0v221l86 29l299 1204h490l274 -1204l84 -29v-221h-553v221l88 29l-39 188h-319l-43 -188l86 -29v-221h-453zM500 659h235l-110 519z" />
<glyph unicode="B" horiz-adv-x="1224" d="M53 0v221l94 29v954l-94 29v221h725q375 0 375 -340v-72q0 -96 -17 -156.5t-44.5 -89.5t-77.5 -55q40 -17 67 -36t52.5 -53.5t38 -91t12.5 -134.5v-104q0 -322 -420 -322h-711zM506 252h192q61 0 86 40t25 148q0 193 -111 193h-192v-381zM506 858h192q111 0 111 170 q0 174 -111 174h-192v-344z" />
<glyph unicode="C" horiz-adv-x="1144" d="M53 578v299q0 176 33 292.5t108.5 188.5t189 102.5t284.5 30.5q129 0 247 -34.5t185 -102.5v-305h-295l-21 118q-49 60 -145 60q-114 0 -159.5 -83.5t-45.5 -264.5v-304q0 -192 44 -270t161 -78q100 0 149 60l21 119h295v-295q-153 -148 -436 -148q-170 0 -284 30.5 t-189.5 103t-108.5 189t-33 292.5z" />
<glyph unicode="D" horiz-adv-x="1282" d="M53 0v221l94 29v954l-94 29v221h647q284 0 406.5 -126.5t122.5 -424.5v-352q0 -298 -122.5 -424.5t-406.5 -126.5h-647zM522 260h178q78 0 115 63t37 216v376q0 153 -37 216t-115 63h-178v-934z" />
<glyph unicode="E" horiz-adv-x="1175" d="M53 0v221l94 29v954l-94 29v221h1049v-403h-203l-29 139h-354v-313h301l27 94h168v-432h-168l-27 94h-301v-352h354l43 168h201v-449h-1061z" />
<glyph unicode="F" horiz-adv-x="1155" d="M53 0v221l94 29v954l-94 29v221h1061v-436h-203l-34 162h-355v-361h273l26 94h168v-438h-168l-26 94h-273v-319l105 -29v-221h-574z" />
<glyph unicode="G" horiz-adv-x="1193" d="M53 557v320q0 173 33.5 290t106.5 189t181 103.5t265 31.5q155 0 282.5 -34t194.5 -103v-305h-295l-20 118q-49 60 -156 60q-119 0 -167 -78.5t-48 -269.5v-322q0 -162 45.5 -237.5t147.5 -75.5q135 0 168 41v290l-134 29v209h488v-694q-48 -52 -189 -104t-329 -52 q-311 0 -442.5 139t-131.5 455z" />
<glyph unicode="H" horiz-adv-x="1372" d="M53 0v221l94 29v954l-94 29v221h545v-221l-84 -29v-338h344v338l-84 29v221h545v-221l-94 -29v-954l94 -29v-221h-545v221l84 29v356h-344v-356l84 -29v-221h-545z" />
<glyph unicode="I" d="M53 0v221l94 29v954l-94 29v221h563v-221l-94 -29v-954l94 -29v-221h-563z" />
<glyph unicode="J" horiz-adv-x="665" d="M-127 -311l23 211q51 -37 120 -37q37 0 64 14t41.5 34t23.5 50t11 55t2 56v1132l-105 29v221h559v-221l-84 -29v-1122q0 -248 -90.5 -376t-300.5 -128q-175 0 -264 111z" />
<glyph unicode="K" horiz-adv-x="1347" d="M53 0v221l94 29v954l-94 29v221h547v-221l-84 -29v-368l330 368l-80 29v221h487v-221l-125 -41l-278 -305l350 -637l100 -47v-203h-411l-373 758v-508l84 -29v-221h-547z" />
<glyph unicode="L" horiz-adv-x="1107" d="M53 0v221l94 29v954l-94 29v221h563v-221l-94 -29v-917h303l31 286h203v-573h-1006z" />
<glyph unicode="M" horiz-adv-x="1802" d="M53 0v221l94 29v954l-94 29v221h695l178 -1026l180 1026h643v-221l-94 -29v-954l94 -29v-221h-508v221l84 29v921l-242 -1171h-378l-238 1171v-921l84 -29v-221h-498z" />
<glyph unicode="N" horiz-adv-x="1386" d="M53 0v221l94 29v954l-94 29v221h522l373 -823v573l-84 29v221h471v-221l-90 -29v-1204h-317l-484 926v-676l105 -29v-221h-496z" />
<glyph unicode="O" horiz-adv-x="1257" d="M53 582v290q0 320 140.5 469.5t435.5 149.5t435 -149.5t140 -469.5v-290q0 -320 -140 -469.5t-435 -149.5t-435.5 149.5t-140.5 469.5zM430 582q0 -143 21 -219t62 -103t116 -27t116 27.5t61.5 103t20.5 218.5v290q0 140 -20.5 216t-61.5 104.5t-116 28.5t-116 -28.5 t-62 -104.5t-21 -216v-290z" />
<glyph unicode="P" horiz-adv-x="1193" d="M53 0v221l94 29v954l-94 29v221h688q224 0 320 -107.5t96 -353.5q0 -247 -95.5 -355t-320.5 -108h-223v-280l105 -29v-221h-570zM518 758h162q62 0 90.5 52t28.5 173q0 117 -28.5 167t-90.5 50h-162v-442z" />
<glyph unicode="Q" horiz-adv-x="1290" d="M53 596v299q0 306 147.5 451t444.5 145t444.5 -145t147.5 -451v-299q0 -411 -274 -539q12 -57 32.5 -99.5t43.5 -64t43.5 -31t39.5 -9.5q29 0 68 22v-182q-48 -66 -203 -66q-53 0 -98 15.5t-92 53.5t-87 115t-67 189q-295 0 -442.5 145.5t-147.5 450.5zM430 614 q0 -134 25 -210.5t70 -105t120 -28.5t120 28.5t70 105t25 210.5v273q0 195 -51 269.5t-164 74.5t-164 -74.5t-51 -269.5v-273z" />
<glyph unicode="R" horiz-adv-x="1333" d="M53 0v221l94 29v954l-94 29v221h731q375 0 375 -340v-72q0 -95 -21 -158t-53 -93t-84 -54q43 -15 72.5 -33.5t59.5 -52.5t45.5 -90.5t15.5 -134.5v-176l94 -29v-221h-268q-118 0 -156.5 39.5t-38.5 148.5v269q0 80 -26.5 118.5t-85.5 38.5h-207v-364l94 -29v-221h-547z M506 846h192q111 0 111 170q0 174 -111 174h-192v-344z" />
<glyph unicode="S" horiz-adv-x="1134" d="M45 975v102q0 102 26.5 176t86.5 128.5t162 82t247 27.5q314 0 459 -133v-309h-274l-21 170q-58 34 -164 34q-81 0 -123.5 -34t-42.5 -115q0 -56 15 -90.5t53 -50.5q24 -10 63 -20t88 -20t66 -14q42 -10 68 -16.5t64 -18.5t62 -22.5t54.5 -27.5t49.5 -35t39.5 -43.5 t31.5 -54.5t18.5 -66.5t7.5 -81.5v-131q0 -234 -133.5 -341.5t-410.5 -107.5q-302 0 -482 141v302h271l8 -115q71 -58 196 -58q105 0 153 44t48 133q0 97 -61 129q-26 14 -61.5 24t-86 19.5t-67.5 13.5q-158 38 -218 66q-143 64 -178 198q-14 52 -14 115z" />
<glyph unicode="T" horiz-adv-x="1210" d="M33 881v573h1145v-573h-203l-31 297h-151v-928l104 -29v-221h-584v221l105 29v928h-152l-30 -297h-203z" />
<glyph unicode="U" horiz-adv-x="1366" d="M45 1233v221h549v-221l-84 -29v-751q0 -110 44.5 -151.5t152.5 -41.5q107 0 152.5 41.5t45.5 151.5v751l-84 29v221h500v-221l-84 -29v-729q0 -101 -8.5 -172t-32 -131.5t-62.5 -97.5t-102 -63.5t-149 -37t-205 -10.5q-162 0 -265.5 25t-168 87t-90 157t-25.5 243v729z " />
<glyph unicode="V" horiz-adv-x="1320" d="M45 1233v221h571v-221l-84 -29l164 -815l189 815l-82 29v221h473v-221l-86 -29l-330 -1204h-426l-305 1204z" />
<glyph unicode="W" horiz-adv-x="1873" d="M45 1233v221h563v-221l-84 -29l82 -766l221 1016h310l211 -1016l90 766l-82 29v221h473v-221l-86 -29l-209 -1204h-414l-178 858l-192 -858h-400l-221 1204z" />
<glyph unicode="X" horiz-adv-x="1288" d="M45 0v221l100 29l326 463l-317 491l-101 29v221h568v-221l-72 -29l143 -239l152 239l-72 29v221h463v-221l-105 -29l-307 -436l336 -518l90 -29v-221h-557v221l72 29l-162 266l-170 -266l72 -29v-221h-459z" />
<glyph unicode="Y" horiz-adv-x="1249" d="M45 1233v221h533v-221l-74 -29l178 -399l176 399l-72 29v221h418v-221l-80 -29l-311 -663v-291l105 -29v-221h-584v221l104 29v291l-315 663z" />
<glyph unicode="Z" horiz-adv-x="1130" d="M41 0v340l600 844h-350l-39 -303h-209v573h1022v-260l-627 -920h404l41 299h207v-573h-1049z" />
<glyph unicode="[" horiz-adv-x="753" d="M186 -285v1860h539v-236h-229v-1390h229v-234h-539z" />
<glyph unicode="\" horiz-adv-x="677" d="M4 1454h291l379 -1673h-287z" />
<glyph unicode="]" horiz-adv-x="747" d="M29 -51h233v1390h-233v236h542v-1860h-542v234z" />
<glyph unicode="^" horiz-adv-x="743" d="M53 975l232 479h170l235 -479h-229l-88 235l-94 -235h-226z" />
<glyph unicode="_" horiz-adv-x="929" d="M0 -139h934v-174h-934v174z" />
<glyph unicode="`" horiz-adv-x="571" d="M53 1569h330l135 -381h-213z" />
<glyph unicode="a" horiz-adv-x="1120" d="M33 285v92q0 289 307 289q134 0 307 -39v114q0 31 -12.5 51t-35.5 29t-45.5 12t-53.5 3q-170 0 -307 -82l-105 239q173 113 465 113q233 0 327.5 -73.5t94.5 -256.5v-524q0 -76 57 -76q16 0 39 10l12 -174q-62 -49 -170 -49q-94 0 -149.5 39.5t-85.5 118.5 q-38 -73 -129 -115.5t-203 -42.5q-158 0 -235.5 87t-77.5 235zM367 315q0 -59 18.5 -83.5t67.5 -24.5q94 0 194 65v181q-104 16 -176 16q-57 0 -80.5 -29t-23.5 -92v-33z" />
<glyph unicode="b" horiz-adv-x="1153" d="M4 1251v222h438v-472q145 105 340 105q170 0 246 -109t76 -348v-209q0 -258 -81.5 -367.5t-279.5 -109.5q-219 0 -364 133l-66 -96h-215v1223zM442 281q93 -35 172 -35q84 0 117 48t33 161v186q0 108 -27.5 150.5t-93.5 44.5h-8q-94 0 -193 -70v-485z" />
<glyph unicode="c" horiz-adv-x="974" d="M45 426v236q0 207 114 325.5t355 118.5q269 0 401 -135v-273h-247l-21 113q-41 41 -115 41q-80 0 -115.5 -46.5t-35.5 -150.5v-182q0 -110 42 -166.5t144 -56.5q81 0 147.5 37t104.5 106l131 -198q-134 -232 -411 -232q-249 0 -371.5 119.5t-122.5 343.5z" />
<glyph unicode="d" horiz-adv-x="1185" d="M45 426v209q0 258 81.5 367.5t279.5 109.5q171 0 301 -84v195l-95 28v222h439v-1223l94 -29v-221h-412l-4 94q-91 -68 -176.5 -96.5t-185.5 -28.5q-170 0 -246 109t-76 348zM385 442q0 -108 27.5 -150t93.5 -44h8q95 0 193 69v486q-93 35 -172 35q-84 0 -117 -48 t-33 -161v-187z" />
<glyph unicode="e" horiz-adv-x="1040" d="M47 451v159q0 257 109.5 376.5t369.5 119.5q114 0 196 -21.5t134 -61t82 -105t41.5 -141.5t11.5 -183v-150h-614q3 -211 221 -211q185 0 264 111l119 -199q-106 -182 -430 -182q-253 0 -378.5 132.5t-125.5 355.5zM377 659h303q0 40 -2 66t-10.5 57t-24 48.5t-44 29.5 t-69.5 12t-70 -12t-45 -30t-24.5 -48t-11 -57t-2.5 -66z" />
<glyph unicode="f" horiz-adv-x="704" d="M33 852v225h108v121q0 157 79.5 225t242.5 68q165 0 237 -45l-36 -213q-38 20 -93 20q-92 0 -92 -77v-99h205v-225h-205v-602l115 -29v-221h-547v221l94 29v602h-108z" />
<glyph unicode="g" horiz-adv-x="1085" d="M45 508v129q0 96 10 167t34 130t64 95.5t100.5 56.5t143.5 20q231 0 363 -125l65 96h211v-1106q0 -246 -122.5 -354.5t-368.5 -108.5q-293 0 -436 136l92 225q133 -76 286 -76q66 0 107.5 13t64 42.5t30 68.5t7.5 101v138q-153 -113 -334 -113q-174 0 -245.5 117 t-71.5 348zM379 508q0 -102 24 -148t93 -47h8q97 0 192 70v424q-98 35 -172 35q-37 0 -63.5 -11t-42.5 -28t-24.5 -45.5t-11.5 -57t-3 -67.5v-125z" />
<glyph unicode="h" horiz-adv-x="1280" d="M41 0v221l94 29v973l-94 28v222h438v-451q141 84 352 84q158 0 236 -74.5t78 -226.5v-555l94 -29v-221h-522v221l84 29v481q0 100 -113 100q-128 0 -209 -53v-528l84 -29v-221h-522z" />
<glyph unicode="i" horiz-adv-x="614" d="M41 0v221l94 29v577l-94 29v221h438v-827l94 -29v-221h-532zM135 1208v265h344v-265h-344z" />
<glyph unicode="j" horiz-adv-x="518" d="M-156 -389l29 205q49 -35 104 -35q34 0 59 13t39 31.5t22 46.5t10 51t2 52v852l-95 29v221h439v-1102q0 -230 -82 -348.5t-267 -118.5q-177 0 -260 103zM109 1208v265h344v-265h-344z" />
<glyph unicode="k" horiz-adv-x="1181" d="M41 0v221l94 29v973l-94 28v222h438v-924l250 282l-86 25v221h449v-221l-105 -25l-194 -198l260 -381l96 -31v-221h-379l-291 483v-233l72 -29v-221h-510z" />
<glyph unicode="l" horiz-adv-x="614" d="M41 0v221l94 29v973l-94 28v222h438v-1223l94 -29v-221h-532z" />
<glyph unicode="m" horiz-adv-x="1900" d="M41 0v221l92 29v577l-92 29v221h401l4 -94q90 67 168 95t199 28q203 0 270 -133q99 74 178 103.5t201 29.5q154 0 229.5 -74.5t75.5 -226.5v-555l93 -29v-221h-510v221l82 29v483q0 101 -109 101q-125 0 -205 -54v-530l82 -29v-221h-500v221l82 29v483q0 101 -110 101 q-123 0 -203 -54v-530l82 -29v-221h-510z" />
<glyph unicode="n" horiz-adv-x="1280" d="M41 0v221l94 29v577l-94 29v221h412l4 -94q92 67 171 95t203 28q158 0 236 -74.5t78 -226.5v-555l94 -29v-221h-522v221l84 29v483q0 101 -113 101q-126 0 -209 -54v-530l84 -29v-221h-522z" />
<glyph unicode="o" horiz-adv-x="1079" d="M45 426v219q0 240 118 350.5t376 110.5q259 0 377 -110.5t118 -350.5v-219q0 -242 -118 -352.5t-377 -110.5q-258 0 -376 110.5t-118 352.5zM381 449q0 -135 31.5 -178.5t126.5 -43.5q96 0 127.5 43t31.5 179v174q0 133 -32 177t-127 44q-94 0 -126 -44t-32 -177v-174z " />
<glyph unicode="p" horiz-adv-x="1177" d="M33 -246l94 29v1044l-94 29v221h411l5 -94q90 68 175.5 95.5t186.5 27.5q170 0 246 -108.5t76 -346.5v-209q0 -258 -81.5 -367.5t-279.5 -109.5q-171 0 -301 84v-266l115 -29v-221h-553v221zM471 266q93 -35 172 -35q84 0 117 48t33 161v195q0 108 -27.5 150t-93.5 44h-8 q-95 0 -193 -69v-494z" />
<glyph unicode="q" horiz-adv-x="1099" d="M45 428v209q0 257 81 363t280 106q228 0 364 -125l66 96h215v-1294l94 -29v-221h-553v221l115 29v293q-156 -113 -340 -113q-169 0 -245.5 112.5t-76.5 352.5zM385 430q0 -108 27.5 -150t93.5 -44h8q95 0 193 69v492q-90 34 -172 34q-85 0 -117.5 -47.5t-32.5 -160.5 v-193z" />
<glyph unicode="r" horiz-adv-x="829" d="M41 0v221l94 29v577l-94 29v221h399l11 -100q119 129 311 129q43 0 63 -4l-43 -324q-44 8 -92 8q-118 0 -211 -61v-475l107 -29v-221h-545z" />
<glyph unicode="s" horiz-adv-x="1007" d="M43 709v96q0 301 465 301q285 0 412 -90v-279h-248l-23 125q-62 15 -129 15q-97 0 -135.5 -18t-38.5 -71q0 -46 28.5 -63.5t106.5 -30.5q181 -33 199 -37q159 -35 227 -96.5t68 -183.5v-113q0 -81 -33 -140t-96.5 -94t-148.5 -51t-197 -16q-277 0 -447 113v276h248 l21 -104q76 -37 155 -37q102 0 141 17.5t39 70.5q0 43 -14.5 63t-56.5 33q-33 10 -111.5 21t-103.5 16q-47 10 -75.5 16.5t-65 17t-57.5 21t-45.5 25.5t-37.5 33t-25 42t-17 54.5t-5 67.5z" />
<glyph unicode="t" horiz-adv-x="749" d="M31 852v225h116v238l334 59v-297h240v-225h-240v-475q0 -71 29 -108.5t102 -37.5q56 0 105 35l28 -200q-83 -103 -251 -103q-184 0 -265.5 108t-81.5 310v471h-116z" />
<glyph unicode="u" horiz-adv-x="1169" d="M33 856v221h502v-221l-84 -29v-489q0 -57 32.5 -78.5t124.5 -21.5t125 22.5t33 77.5v489l-84 29v221h455v-221l-76 -29v-495q0 -195 -111.5 -282t-357.5 -87q-248 0 -365.5 87.5t-117.5 281.5v495z" />
<glyph unicode="v" horiz-adv-x="1193" d="M33 856v221h510v-221l-70 -20l160 -562l178 562l-66 20v221h416v-221l-71 -20l-283 -836h-416l-287 836z" />
<glyph unicode="w" horiz-adv-x="1675" d="M33 854v223h489v-221l-67 -20l65 -557l201 798h326l180 -798l73 557l-67 20v221h409v-221l-71 -20l-146 -836h-426l-153 688l-170 -688h-424l-156 834z" />
<glyph unicode="x" horiz-adv-x="1185" d="M33 0v221l63 21l301 290l-286 304l-66 20v221h530v-221l-69 -20l127 -146l137 146l-59 20v221h426v-221l-70 -20l-279 -273l302 -321l63 -21v-221h-530v221l65 21l-139 161l-152 -161l56 -21v-221h-420z" />
<glyph unicode="y" horiz-adv-x="1183" d="M16 -387l86 248q62 -56 174 -56q109 0 158 146l-328 885l-75 20v221h501v-221l-69 -20l162 -531l176 531l-66 20v221h416v-221l-72 -20l-360 -947q-26 -67 -49.5 -116.5t-60.5 -102.5t-79 -86t-102 -54.5t-131 -21.5q-79 0 -153 27t-128 78z" />
<glyph unicode="z" horiz-adv-x="1060" d="M37 0v252l524 606h-246l-28 -153h-248v372h960v-192l-553 -652h289l41 191h248v-424h-987z" />
<glyph unicode="{" horiz-adv-x="786" d="M86 532v230q103 0 142.5 51t39.5 180q0 19 -5 115t-5 123q0 95 15 155.5t56 106t117 65t197 19.5h92v-219h-49q-73 0 -102 -18t-29 -70q0 -74 6 -204t6 -200q0 -86 -78.5 -146t-183.5 -73q103 -9 182.5 -72t79.5 -147q0 -72 -6 -202.5t-6 -200.5q0 -56 28.5 -74.5 t102.5 -18.5h49v-219h-92q-121 0 -197 19.5t-117 65t-56 106t-15 155.5q0 28 5 127t5 119q0 127 -39.5 177t-142.5 50z" />
<glyph unicode="|" horiz-adv-x="606" d="M166 -274v1888h274v-1888h-274z" />
<glyph unicode="}" horiz-adv-x="790" d="M49 -68h49q74 0 103.5 18.5t29.5 74.5q0 70 -6 200.5t-6 202.5q0 83 79 146.5t181 72.5q-105 13 -182.5 73t-77.5 146q0 70 6 200t6 204q0 52 -29.5 70t-103.5 18h-49v219h90q98 0 166.5 -13.5t112 -39t68 -69.5t33.5 -96t9 -128q0 -27 -6 -123t-6 -115q0 -128 40 -179.5 t144 -51.5v-230q-104 0 -144 -50t-40 -177q0 -20 6 -119t6 -127q0 -76 -9 -128t-33.5 -96t-68 -69.5t-112 -39t-166.5 -13.5h-90v219z" />
<glyph unicode="~" horiz-adv-x="1316" d="M96 453v270q119 147 295 147q73 0 151.5 -18.5t133.5 -40.5t118 -40.5t109 -18.5q98 0 174.5 38.5t141.5 127.5v-267q-70 -78 -149 -112.5t-185 -34.5q-60 0 -130 18.5t-123 41t-116.5 41t-112.5 18.5q-91 0 -163.5 -40.5t-143.5 -129.5z" />
<glyph unicode="&#xa1;" horiz-adv-x="501" d="M53 119q0 216 25 416t82 485h182q57 -285 82 -485t25 -416q0 -81 -17 -119h-366q-13 54 -13 119zM74 1135v319h358v-319h-358z" />
<glyph unicode="&#xa2;" horiz-adv-x="999" d="M53 618v236q0 180 86.5 294t268.5 142v164h274v-170q146 -25 242 -121v-272h-248l-21 113q-40 40 -114 40q-80 0 -116 -46t-36 -150v-182q0 -110 42 -167t144 -57q81 0 147.5 37.5t104.5 106.5l131 -199q-98 -170 -276 -215v-172h-274v166q-355 63 -355 452z" />
<glyph unicode="&#xa3;" horiz-adv-x="1087" d="M33 0v276q35 -6 86 -6q56 0 92 17.5t52 52t21 67.5t5 82q0 20 -4 56h-228v198h152q-4 7 -20.5 35.5t-22 39t-18.5 36t-18.5 42t-13 41.5t-10 49.5t-2.5 51.5v68q0 191 114 288t331 97q273 0 399 -135v-273h-248l-20 113q-56 41 -123 41q-71 0 -107 -35.5t-36 -124.5v-49 q0 -58 15 -113.5t30.5 -86t46.5 -85.5h442v-198h-364q8 -33 8 -78q0 -96 -39 -176q89 -47 248 -47q157 0 235 73v-278q-96 -76 -270 -76q-87 0 -173.5 27.5t-154.5 77.5q-54 -57 -111 -81t-137 -24q-94 0 -157 37z" />
<glyph unicode="&#xa4;" horiz-adv-x="1218" d="M53 373l150 137q-64 116 -64 240q0 123 64 239l-148 135l178 181l136 -148q113 66 241 66q126 0 242 -66l133 148l178 -181l-145 -133q67 -115 67 -241q0 -133 -67 -242l147 -135l-178 -183l-137 152q-111 -63 -240 -63q-126 0 -237 63l-140 -152zM299 750 q0 -130 91 -221t220 -91q132 0 223 90.5t91 221.5q0 132 -91 222.5t-223 90.5q-130 0 -220.5 -90.5t-90.5 -222.5z" />
<glyph unicode="&#xa5;" horiz-adv-x="1236" d="M39 1233v221h532v-221l-73 -29l178 -373l176 373l-72 29v221h418v-221l-80 -29l-258 -504h199v-198h-252v-152h252v-205h-252v-145h-375v145h-264v205h264v152h-264v198h209l-260 504z" />
<glyph unicode="&#xa6;" horiz-adv-x="876" d="M299 -274v815h274v-815h-274zM299 870v744h274v-744h-274z" />
<glyph unicode="&#xa7;" horiz-adv-x="1005" d="M53 490v16v88q0 149 66 229q-47 65 -47 174v113q0 199 113.5 290t349.5 91q254 0 409 -121v-256h-231l-6 98q-61 50 -168 50q-89 0 -129.5 -37.5t-40.5 -112.5q0 -84 53 -111q21 -12 52 -20.5t72.5 -16.5t57.5 -12q141 -34 194 -60q129 -61 150 -199q4 -29 4 -62v-88 q0 -152 -67 -230q51 -71 51 -174v-112q0 -199 -114.5 -290t-350.5 -91q-255 0 -410 121v256h232l6 -99q60 -49 168 -49q89 0 129.5 37.5t40.5 112.5q0 83 -53 110q-21 12 -52.5 20.5t-73 16.5t-57.5 12h-1h-1l-1 1h-1h-1h-1l-1 1h-1h-1h-1l-2 1q-141 34 -200 66 q-130 72 -136 237zM356 616q0 -94 58 -120q20 -8 53.5 -16t74.5 -16.5t56 -12.5l33 -9q18 27 18 78q0 96 -57 121q-20 8 -53.5 16t-74.5 16.5t-56 12.5l-33 6q-19 -28 -19 -76z" />
<glyph unicode="&#xa8;" horiz-adv-x="940" d="M53 1208v265h344v-265h-344zM543 1208v265h344v-265h-344z" />
<glyph unicode="&#xaa;" horiz-adv-x="739" d="M80 770v51q0 160 168 160q61 0 170 -23v64q0 22 -13.5 34t-29 14.5t-39.5 2.5q-97 0 -168 -45l-57 133q98 62 254 62q129 0 181 -41t52 -142v-286q0 -43 31 -43q10 0 22 6l6 -96q-36 -27 -94 -27q-93 0 -129 86q-22 -40 -71 -63t-111 -23q-87 0 -129.5 47.5t-42.5 128.5z M262 788q0 -33 11 -46t38 -13q49 0 107 35v100q-92 8 -96 8q-32 0 -46 -15.5t-14 -49.5v-19z" />
<glyph unicode="&#xab;" horiz-adv-x="933" d="M53 557v266l361 281v-258l-211 -156l211 -155v-259zM520 557v266l361 281v-258l-211 -156l211 -155v-259z" />
<glyph unicode="&#xac;" horiz-adv-x="1302" d="M53 760v317h1196v-1077h-317v760h-879z" />
<glyph unicode="&#xad;" d="M57 539v270h555v-270h-555z" />
<glyph unicode="&#xaf;" horiz-adv-x="825" d="M53 1182v229h719v-229h-719z" />
<glyph unicode="&#xb0;" horiz-adv-x="772" d="M53 1126q0 75 19 136.5t57.5 109.5t103.5 74.5t152 26.5q170 0 252 -95.5t82 -251.5q0 -155 -82.5 -251.5t-251.5 -96.5t-250.5 96t-81.5 252zM225 1128q0 -85 38.5 -138.5t121.5 -53.5t121.5 53.5t38.5 138.5t-39 139t-121 54t-121 -54t-39 -139z" />
<glyph unicode="&#xb1;" horiz-adv-x="1251" d="M96 121h1057v-252h-1057v252zM96 627v252h402v401h252v-401h403v-252h-403v-406h-252v406h-402z" />
<glyph unicode="&#xb2;" horiz-adv-x="604" d="M57 1432q105 61 250 61q122 0 181 -58t59 -180q0 -97 -68 -178t-217 -180h176l15 70h100v-219h-494v157q48 28 83.5 51.5t83.5 60.5t79 70t53.5 74t22.5 80q0 47 -31 76t-82 29q-73 0 -159 -58z" />
<glyph unicode="&#xb3;" horiz-adv-x="577" d="M49 762l43 139q73 -31 148 -31q120 0 120 99q0 41 -24 62.5t-64 21.5h-73v125h73q80 0 80 73q0 52 -31.5 75.5t-80.5 23.5q-82 0 -146 -43l-45 131q86 55 215 55q122 0 183 -53t61 -150q0 -54 -24.5 -100t-67.5 -64q52 -19 79 -68t27 -112q0 -111 -71 -164t-195 -53 q-120 0 -207 33z" />
<glyph unicode="&#xb4;" horiz-adv-x="571" d="M53 1188l137 381h328l-252 -381h-213z" />
<glyph unicode="&#xb5;" horiz-adv-x="1189" d="M29 -246l94 29v1044l-76 29v221h504v-221l-84 -29v-561q93 -35 172 -35q84 0 116.5 48t32.5 161v387l-83 29v221h454v-221l-76 -29v-385q0 -109 -7.5 -182t-27 -133t-55 -93.5t-90.5 -51t-135 -17.5q-171 0 -301 84v-266l115 -29v-221h-553v221z" />
<glyph unicode="&#xb6;" horiz-adv-x="1130" d="M23 1161q0 147 69 220t197 73h819v-215l-100 -29v-1550h-256v1550h-260v-1550h-261v1196q-103 16 -155.5 88t-52.5 217z" />
<glyph unicode="&#xb7;" horiz-adv-x="473" d="M53 549v332h367v-332h-367z" />
<glyph unicode="&#xb8;" horiz-adv-x="434" d="M70 -57h295v-234q-49 -110 -168 -201l-103 89q76 56 121 124h-145v222z" />
<glyph unicode="&#xb9;" horiz-adv-x="448" d="M33 1315q106 69 188 160h123v-603l47 -14v-110h-270v110l57 14v379q-55 -37 -74 -45z" />
<glyph unicode="&#xba;" horiz-adv-x="716" d="M86 848v121q0 132 65 193t207 61t207.5 -61t65.5 -193v-121q0 -132 -65.5 -193t-207.5 -61t-207 61t-65 193zM270 860q0 -74 17.5 -97.5t70.5 -23.5t70.5 23.5t17.5 97.5v96q0 73 -17.5 98t-70.5 25t-70.5 -25t-17.5 -98v-96z" />
<glyph unicode="&#xbb;" horiz-adv-x="933" d="M53 276v259l209 155l-209 156v258l361 -281v-266zM520 276v259l209 155l-209 156v258l361 -281v-266z" />
<glyph unicode="&#xbc;" horiz-adv-x="1312" d="M53 1315q109 71 189 160h123v-603l47 -14v-110h-271v110l58 14v379q-55 -37 -74 -45zM98 -43l856 1542h193l-860 -1542h-189zM721 104v162q123 223 209 459l143 -57q-75 -221 -188 -430h166v233h155v-233h54v-134h-54v-124h-159v124h-326z" />
<glyph unicode="&#xbd;" horiz-adv-x="1320" d="M53 1315q109 71 189 160h123v-603l47 -14v-110h-271v110l58 14v379q-55 -37 -74 -45zM98 -43l856 1542h193l-860 -1542h-189zM772 664q105 61 250 61q122 0 181 -58t59 -180q0 -97 -68 -178t-217 -180h176l14 70h101v-219h-494v157q48 28 83.5 51.5t83.5 60.5t79 70 t53.5 74t22.5 80q0 47 -31 76t-82 29q-74 0 -160 -58z" />
<glyph unicode="&#xbe;" horiz-adv-x="1282" d="M53 762l43 139q73 -31 148 -31q121 0 121 99q0 41 -24.5 62.5t-64.5 21.5h-73v125h73q80 0 80 73q0 52 -31.5 75.5t-80.5 23.5q-82 0 -146 -43l-45 131q86 55 215 55q122 0 183 -53t61 -150q0 -54 -24.5 -100t-67.5 -64q52 -19 79 -68t27 -112q0 -111 -71 -164t-195 -53 q-120 0 -207 33zM109 -43l856 1542h192l-860 -1542h-188zM690 104v162q123 223 209 459l143 -57q-75 -221 -188 -430h166v233h156v-233h53v-134h-53v-124h-160v124h-326z" />
<glyph unicode="&#xbf;" horiz-adv-x="950" d="M53 332v86q0 115 38.5 179.5t144.5 117.5q10 5 35 16.5t35 17t27.5 18t24.5 24t13 30.5t6 43v131h307v-176q0 -36 -5.5 -66t-13 -51.5t-23 -40t-27.5 -30t-35 -24.5t-37.5 -19.5t-42.5 -18t-43 -18.5q-60 -28 -77.5 -59t-17.5 -109v-27q0 -139 144 -139q67 0 123 41 l20 113h248v-273q-126 -135 -399 -135q-216 0 -330.5 94.5t-114.5 274.5zM352 1135v319h363v-319h-363z" />
<glyph unicode="&#xc0;" horiz-adv-x="1323" d="M45 0v221l86 29l299 1204h490l274 -1204l84 -29v-221h-553v221l88 29l-39 188h-319l-43 -188l86 -29v-221h-453zM367 1946h329l135 -381h-213zM500 659h235l-110 519z" />
<glyph unicode="&#xc1;" horiz-adv-x="1323" d="M45 0v221l86 29l299 1204h490l274 -1204l84 -29v-221h-553v221l88 29l-39 188h-319l-43 -188l86 -29v-221h-453zM489 1565l138 381h327l-252 -381h-213zM500 659h235l-110 519z" />
<glyph unicode="&#xc2;" horiz-adv-x="1323" d="M45 0v221l86 29l299 1204h490l274 -1204l84 -29v-221h-553v221l88 29l-39 188h-319l-43 -188l86 -29v-221h-453zM248 1563l280 360h267l280 -360h-258l-155 211l-156 -211h-258zM500 659h235l-110 519z" />
<glyph unicode="&#xc3;" horiz-adv-x="1323" d="M45 0v221l86 29l299 1204h490l274 -1204l84 -29v-221h-553v221l88 29l-39 188h-319l-43 -188l86 -29v-221h-453zM293 1528v217q82 94 190 94q76 0 176 -45q116 -53 172 -53q58 0 104.5 25t92.5 81v-217q-79 -94 -190 -94q-65 0 -179 43q-2 1 -19 9t-20.5 9.5t-18 8t-20 8 t-18 6t-19.5 6t-17.5 4t-19.5 3.5t-18 1q-60 0 -105.5 -25t-90.5 -81zM500 659h235l-110 519z" />
<glyph unicode="&#xc4;" horiz-adv-x="1323" d="M45 0v221l86 29l299 1204h490l274 -1204l84 -29v-221h-553v221l88 29l-39 188h-319l-43 -188l86 -29v-221h-453zM244 1585v264h344v-264h-344zM500 659h235l-110 519zM733 1585v264h344v-264h-344z" />
<glyph unicode="&#xc5;" horiz-adv-x="1323" d="M45 0v221l86 29l299 1204h490l274 -1204l84 -29v-221h-553v221l88 29l-39 188h-319l-43 -188l86 -29v-221h-453zM434 1735q0 103 58.5 157t175.5 54q121 0 176 -53.5t55 -157.5q0 -106 -54.5 -157.5t-176.5 -51.5q-234 0 -234 209zM500 659h235l-110 519zM571 1735 q0 -93 97 -93q102 0 102 93q0 100 -102 100q-97 0 -97 -100z" />
<glyph unicode="&#xc6;" horiz-adv-x="1843" d="M45 0v221l86 29l299 1204h1339v-403h-202l-29 139h-346v-313h293l26 94h168v-432h-168l-26 94h-293v-352h346l43 168h201v-449h-1053v221l94 29v188h-368l-43 -188l86 -29v-221h-453zM500 659h323v531h-190z" />
<glyph unicode="&#xc7;" horiz-adv-x="1144" d="M53 578v299q0 176 33 292.5t108.5 188.5t189 102.5t284.5 30.5q129 0 247 -34.5t185 -102.5v-305h-295l-21 118q-49 60 -145 60q-114 0 -159.5 -83.5t-45.5 -264.5v-304q0 -192 44 -270t161 -78q100 0 149 60l21 119h295v-295q-153 -148 -436 -148q-170 0 -284 30.5 t-189.5 103t-108.5 189t-33 292.5zM475 -57h295v-234q-49 -110 -168 -201l-102 89q76 56 121 124h-146v222z" />
<glyph unicode="&#xc8;" horiz-adv-x="1175" d="M53 0v221l94 29v954l-94 29v221h1049v-403h-203l-29 139h-354v-313h301l27 94h168v-432h-168l-27 94h-301v-352h354l43 168h201v-449h-1061zM293 1946h330l135 -381h-213z" />
<glyph unicode="&#xc9;" horiz-adv-x="1175" d="M53 0v221l94 29v954l-94 29v221h1049v-403h-203l-29 139h-354v-313h301l27 94h168v-432h-168l-27 94h-301v-352h354l43 168h201v-449h-1061zM436 1565l137 381h328l-252 -381h-213z" />
<glyph unicode="&#xca;" horiz-adv-x="1175" d="M53 0v221l94 29v954l-94 29v221h1049v-403h-203l-29 139h-354v-313h301l27 94h168v-432h-168l-27 94h-301v-352h354l43 168h201v-449h-1061zM174 1563l281 360h266l280 -360h-258l-155 211l-156 -211h-258z" />
<glyph unicode="&#xcb;" horiz-adv-x="1175" d="M53 0v221l94 29v954l-94 29v221h1049v-403h-203l-29 139h-354v-313h301l27 94h168v-432h-168l-27 94h-301v-352h354l43 168h201v-449h-1061zM190 1585v264h345v-264h-345zM680 1585v264h344v-264h-344z" />
<glyph unicode="&#xcc;" d="M41 1946h330l135 -381h-213zM53 0v221l94 29v954l-94 29v221h563v-221l-94 -29v-954l94 -29v-221h-563z" />
<glyph unicode="&#xcd;" d="M53 0v221l94 29v954l-94 29v221h563v-221l-94 -29v-954l94 -29v-221h-563zM164 1565l137 381h328l-252 -381h-213z" />
<glyph unicode="&#xce;" d="M-78 1563l281 360h266l281 -360h-258l-156 211l-156 -211h-258zM53 0v221l94 29v954l-94 29v221h563v-221l-94 -29v-954l94 -29v-221h-563z" />
<glyph unicode="&#xcf;" d="M-82 1585v264h344v-264h-344zM53 0v221l94 29v954l-94 29v221h563v-221l-94 -29v-954l94 -29v-221h-563zM408 1585v264h344v-264h-344z" />
<glyph unicode="&#xd0;" horiz-adv-x="1282" d="M53 0v221l94 29v383h-94v244h94v327l-94 29v221h647q284 0 406.5 -126.5t122.5 -424.5v-352q0 -298 -122.5 -424.5t-406.5 -126.5h-647zM522 260h178q78 0 115 63t37 216v376q0 153 -37 216t-115 63h-178v-317h180v-244h-180v-373z" />
<glyph unicode="&#xd1;" horiz-adv-x="1386" d="M53 0v221l94 29v954l-94 29v221h522l373 -823v573l-84 29v221h471v-221l-90 -29v-1204h-317l-484 926v-676l105 -29v-221h-496zM326 1528v217q82 94 190 94q76 0 176 -45q116 -53 172 -53q58 0 104.5 25t92.5 81v-217q-79 -94 -191 -94q-64 0 -178 43q-2 1 -19 9 t-20.5 9.5t-18 8t-20 8t-18 6t-19.5 6t-17.5 4t-19.5 3.5t-18 1q-60 0 -105.5 -25t-90.5 -81z" />
<glyph unicode="&#xd2;" horiz-adv-x="1257" d="M53 582v290q0 320 140.5 469.5t435.5 149.5t435 -149.5t140 -469.5v-290q0 -320 -140 -469.5t-435 -149.5t-435.5 149.5t-140.5 469.5zM334 1946h330l135 -381h-213zM430 582q0 -143 21 -219t62 -103t116 -27t116 27.5t61.5 103t20.5 218.5v290q0 140 -20.5 216 t-61.5 104.5t-116 28.5t-116 -28.5t-62 -104.5t-21 -216v-290z" />
<glyph unicode="&#xd3;" horiz-adv-x="1257" d="M53 582v290q0 320 140.5 469.5t435.5 149.5t435 -149.5t140 -469.5v-290q0 -320 -140 -469.5t-435 -149.5t-435.5 149.5t-140.5 469.5zM430 582q0 -143 21 -219t62 -103t116 -27t116 27.5t61.5 103t20.5 218.5v290q0 140 -20.5 216t-61.5 104.5t-116 28.5t-116 -28.5 t-62 -104.5t-21 -216v-290zM457 1565l137 381h328l-252 -381h-213z" />
<glyph unicode="&#xd4;" horiz-adv-x="1257" d="M53 582v290q0 320 140.5 469.5t435.5 149.5t435 -149.5t140 -469.5v-290q0 -320 -140 -469.5t-435 -149.5t-435.5 149.5t-140.5 469.5zM215 1563l281 360h266l280 -360h-258l-155 211l-156 -211h-258zM430 582q0 -143 21 -219t62 -103t116 -27t116 27.5t61.5 103 t20.5 218.5v290q0 140 -20.5 216t-61.5 104.5t-116 28.5t-116 -28.5t-62 -104.5t-21 -216v-290z" />
<glyph unicode="&#xd5;" horiz-adv-x="1257" d="M53 582v290q0 320 140.5 469.5t435.5 149.5t435 -149.5t140 -469.5v-290q0 -320 -140 -469.5t-435 -149.5t-435.5 149.5t-140.5 469.5zM260 1528v217q82 94 191 94q76 0 176 -45q116 -53 172 -53q58 0 104 25t92 81v-217q-79 -94 -190 -94q-64 0 -178 43q-2 1 -19 9 t-20.5 9.5t-18 8t-20 8t-18 6t-19.5 6t-17.5 4t-19.5 3.5t-18 1q-60 0 -106.5 -25t-90.5 -81zM430 582q0 -143 21 -219t62 -103t116 -27t116 27.5t61.5 103t20.5 218.5v290q0 140 -20.5 216t-61.5 104.5t-116 28.5t-116 -28.5t-62 -104.5t-21 -216v-290z" />
<glyph unicode="&#xd6;" horiz-adv-x="1257" d="M53 582v290q0 320 140.5 469.5t435.5 149.5t435 -149.5t140 -469.5v-290q0 -320 -140 -469.5t-435 -149.5t-435.5 149.5t-140.5 469.5zM211 1585v264h344v-264h-344zM430 582q0 -143 21 -219t62 -103t116 -27t116 27.5t61.5 103t20.5 218.5v290q0 140 -20.5 216 t-61.5 104.5t-116 28.5t-116 -28.5t-62 -104.5t-21 -216v-290zM700 1585v264h344v-264h-344z" />
<glyph unicode="&#xd7;" horiz-adv-x="1327" d="M199 467l282 285l-282 282l178 178l285 -282l284 284l178 -178l-284 -284l286 -287l-180 -178l-284 284l-285 -282z" />
<glyph unicode="&#xd8;" horiz-adv-x="1257" d="M53 -154l133 273q-133 151 -133 463v290q0 320 140.5 469.5t435.5 149.5q118 0 213 -25l69 142h293l-135 -275q135 -150 135 -461v-290q0 -320 -140 -469.5t-435 -149.5q-122 0 -217 27l-72 -144h-287zM430 573l303 625q-42 23 -104 23q-75 0 -116 -28.5t-62 -104.5 t-21 -216v-290v-9zM520 256q42 -23 109 -23q75 0 116 27.5t61.5 103t20.5 218.5v290v9z" />
<glyph unicode="&#xd9;" horiz-adv-x="1366" d="M45 1233v221h549v-221l-84 -29v-751q0 -110 44.5 -151.5t152.5 -41.5q107 0 152.5 41.5t45.5 151.5v751l-84 29v221h500v-221l-84 -29v-729q0 -101 -8.5 -172t-32 -131.5t-62.5 -97.5t-102 -63.5t-149 -37t-205 -10.5q-162 0 -265.5 25t-168 87t-90 157t-25.5 243v729z M389 1946h330l135 -381h-213z" />
<glyph unicode="&#xda;" horiz-adv-x="1366" d="M45 1233v221h549v-221l-84 -29v-751q0 -110 44.5 -151.5t152.5 -41.5q107 0 152.5 41.5t45.5 151.5v751l-84 29v221h500v-221l-84 -29v-729q0 -101 -8.5 -172t-32 -131.5t-62.5 -97.5t-102 -63.5t-149 -37t-205 -10.5q-162 0 -265.5 25t-168 87t-90 157t-25.5 243v729z M512 1565l137 381h328l-252 -381h-213z" />
<glyph unicode="&#xdb;" horiz-adv-x="1366" d="M45 1233v221h549v-221l-84 -29v-751q0 -110 44.5 -151.5t152.5 -41.5q107 0 152.5 41.5t45.5 151.5v751l-84 29v221h500v-221l-84 -29v-729q0 -101 -8.5 -172t-32 -131.5t-62.5 -97.5t-102 -63.5t-149 -37t-205 -10.5q-162 0 -265.5 25t-168 87t-90 157t-25.5 243v729z M268 1563l281 360h266l281 -360h-258l-156 211l-156 -211h-258z" />
<glyph unicode="&#xdc;" horiz-adv-x="1366" d="M45 1233v221h549v-221l-84 -29v-751q0 -110 44.5 -151.5t152.5 -41.5q107 0 152.5 41.5t45.5 151.5v751l-84 29v221h500v-221l-84 -29v-729q0 -101 -8.5 -172t-32 -131.5t-62.5 -97.5t-102 -63.5t-149 -37t-205 -10.5q-162 0 -265.5 25t-168 87t-90 157t-25.5 243v729z M266 1585v264h344v-264h-344zM756 1585v264h344v-264h-344z" />
<glyph unicode="&#xdd;" horiz-adv-x="1249" d="M45 1233v221h533v-221l-74 -29l178 -399l176 399l-72 29v221h418v-221l-80 -29l-311 -663v-291l105 -29v-221h-584v221l104 29v291l-315 663zM494 1565l137 381h327l-251 -381h-213z" />
<glyph unicode="&#xde;" horiz-adv-x="1193" d="M53 0v221l94 29v954l-94 29v221h549v-221l-84 -29v-59h223q224 0 320 -94.5t96 -323.5t-96 -324.5t-320 -95.5h-223v-57l84 -29v-221h-549zM518 535h162q64 0 91.5 41t27.5 151t-27.5 150.5t-91.5 40.5h-162v-383z" />
<glyph unicode="&#xdf;" horiz-adv-x="1429" d="M41 0v221l94 29v948q0 75 20 128.5t53.5 85.5t90 49.5t116 23.5t144.5 6q86 0 145.5 -6t116 -23.5t90.5 -49.5t54 -85.5t20 -128.5v-375q0 -22 8.5 -39t19.5 -28t36.5 -22.5t44.5 -18.5t59 -19q61 -19 99.5 -37t70.5 -51q61 -63 61 -211v-133q0 -301 -393 -301 q-234 0 -377 113v276h234l22 -108q76 -37 138 -37q50 0 70 27.5t20 80.5q0 27 -2 43.5t-11 37t-26 34.5q-17 13 -44.5 24.5t-82.5 30.5t-90 33q-46 18 -78.5 38.5t-62.5 53.5t-45 83t-15 116v367q0 43 -19.5 60t-62.5 17t-64.5 -17t-21.5 -60v-926l66 -29v-221h-498z" />
<glyph unicode="&#xe0;" horiz-adv-x="1120" d="M33 285v92q0 289 307 289q134 0 307 -39v114q0 31 -12.5 51t-35.5 29t-45.5 12t-53.5 3q-170 0 -307 -82l-105 239q173 113 465 113q233 0 327.5 -73.5t94.5 -256.5v-524q0 -76 57 -76q16 0 39 10l12 -174q-62 -49 -170 -49q-94 0 -149.5 39.5t-85.5 118.5 q-38 -73 -129 -115.5t-203 -42.5q-158 0 -235.5 87t-77.5 235zM266 1569h330l135 -381h-213zM367 315q0 -59 18.5 -83.5t67.5 -24.5q94 0 194 65v181q-104 16 -176 16q-57 0 -80.5 -29t-23.5 -92v-33z" />
<glyph unicode="&#xe1;" horiz-adv-x="1120" d="M33 285v92q0 289 307 289q134 0 307 -39v114q0 31 -12.5 51t-35.5 29t-45.5 12t-53.5 3q-170 0 -307 -82l-105 239q173 113 465 113q233 0 327.5 -73.5t94.5 -256.5v-524q0 -76 57 -76q16 0 39 10l12 -174q-62 -49 -170 -49q-94 0 -149.5 39.5t-85.5 118.5 q-38 -73 -129 -115.5t-203 -42.5q-158 0 -235.5 87t-77.5 235zM367 315q0 -59 18.5 -83.5t67.5 -24.5q94 0 194 65v181q-104 16 -176 16q-57 0 -80.5 -29t-23.5 -92v-33zM389 1188l137 381h328l-252 -381h-213z" />
<glyph unicode="&#xe2;" horiz-adv-x="1120" d="M33 285v92q0 289 307 289q134 0 307 -39v114q0 31 -12.5 51t-35.5 29t-45.5 12t-53.5 3q-170 0 -307 -82l-105 239q173 113 465 113q233 0 327.5 -73.5t94.5 -256.5v-524q0 -76 57 -76q16 0 39 10l12 -174q-62 -49 -170 -49q-94 0 -149.5 39.5t-85.5 118.5 q-38 -73 -129 -115.5t-203 -42.5q-158 0 -235.5 87t-77.5 235zM145 1186l281 360h266l281 -360h-258l-156 211l-156 -211h-258zM367 315q0 -59 18.5 -83.5t67.5 -24.5q94 0 194 65v181q-104 16 -176 16q-57 0 -80.5 -29t-23.5 -92v-33z" />
<glyph unicode="&#xe3;" horiz-adv-x="1120" d="M33 285v92q0 289 307 289q134 0 307 -39v114q0 31 -12.5 51t-35.5 29t-45.5 12t-53.5 3q-170 0 -307 -82l-105 239q173 113 465 113q233 0 327.5 -73.5t94.5 -256.5v-524q0 -76 57 -76q16 0 39 10l12 -174q-62 -49 -170 -49q-94 0 -149.5 39.5t-85.5 118.5 q-38 -73 -129 -115.5t-203 -42.5q-158 0 -235.5 87t-77.5 235zM193 1151v217q82 94 190 94q76 0 176 -45q116 -53 172 -53q58 0 104.5 25t92.5 81v-217q-79 -94 -191 -94q-64 0 -178 43q-2 1 -19 9t-20.5 9.5t-18 8t-20 8t-18 6t-19.5 6t-17.5 4t-19.5 3.5t-18 1 q-60 0 -105.5 -25t-90.5 -81zM367 315q0 -59 18.5 -83.5t67.5 -24.5q94 0 194 65v181q-104 16 -176 16q-57 0 -80.5 -29t-23.5 -92v-33z" />
<glyph unicode="&#xe4;" horiz-adv-x="1120" d="M33 285v92q0 289 307 289q134 0 307 -39v114q0 31 -12.5 51t-35.5 29t-45.5 12t-53.5 3q-170 0 -307 -82l-105 239q173 113 465 113q233 0 327.5 -73.5t94.5 -256.5v-524q0 -76 57 -76q16 0 39 10l12 -174q-62 -49 -170 -49q-94 0 -149.5 39.5t-85.5 118.5 q-38 -73 -129 -115.5t-203 -42.5q-158 0 -235.5 87t-77.5 235zM143 1208v265h344v-265h-344zM367 315q0 -59 18.5 -83.5t67.5 -24.5q94 0 194 65v181q-104 16 -176 16q-57 0 -80.5 -29t-23.5 -92v-33zM633 1208v265h344v-265h-344z" />
<glyph unicode="&#xe5;" horiz-adv-x="1120" d="M33 285v92q0 289 307 289q134 0 307 -39v114q0 31 -12.5 51t-35.5 29t-45.5 12t-53.5 3q-170 0 -307 -82l-105 239q173 113 465 113q233 0 327.5 -73.5t94.5 -256.5v-524q0 -76 57 -76q16 0 39 10l12 -174q-62 -49 -170 -49q-94 0 -149.5 39.5t-85.5 118.5 q-38 -73 -129 -115.5t-203 -42.5q-158 0 -235.5 87t-77.5 235zM328 1358q0 211 233 211q121 0 176.5 -53.5t55.5 -157.5q0 -106 -55 -157.5t-177 -51.5q-233 0 -233 209zM367 315q0 -59 18.5 -83.5t67.5 -24.5q94 0 194 65v181q-104 16 -176 16q-57 0 -80.5 -29t-23.5 -92 v-33zM465 1358q0 -92 96 -92q103 0 103 92q0 100 -103 100q-96 0 -96 -100z" />
<glyph unicode="&#xe6;" horiz-adv-x="1642" d="M33 285v92q0 289 307 289q134 0 307 -39v114q0 31 -12.5 51t-35.5 29t-45.5 12t-53.5 3q-170 0 -307 -82l-105 239q173 113 465 113q185 0 295 -84q114 84 280 84q114 0 196 -21.5t134 -61t82 -105t41.5 -141.5t11.5 -183v-150h-614q3 -211 221 -211q185 0 264 111 l119 -199q-106 -182 -430 -182q-280 0 -399 170q-152 -170 -408 -170q-158 0 -235.5 87t-77.5 235zM367 315q0 -59 18.5 -83.5t67.5 -24.5q94 0 194 65v181q-104 16 -176 16q-57 0 -80.5 -29t-23.5 -92v-33zM979 659h303q0 41 -2 66.5t-10 56.5t-23.5 48.5t-44 29.5 t-69.5 12t-70 -12t-45 -30t-25 -48t-11.5 -57t-2.5 -66z" />
<glyph unicode="&#xe7;" horiz-adv-x="974" d="M45 426v236q0 207 114 325.5t355 118.5q269 0 401 -135v-273h-247l-21 113q-41 41 -115 41q-80 0 -115.5 -46.5t-35.5 -150.5v-182q0 -110 42 -166.5t144 -56.5q81 0 147.5 37t104.5 106l131 -198q-134 -232 -411 -232q-249 0 -371.5 119.5t-122.5 343.5zM360 -57h295 v-234q-49 -110 -168 -201l-102 89q76 56 121 124h-146v222z" />
<glyph unicode="&#xe8;" horiz-adv-x="1040" d="M47 451v159q0 257 109.5 376.5t369.5 119.5q114 0 196 -21.5t134 -61t82 -105t41.5 -141.5t11.5 -183v-150h-614q3 -211 221 -211q185 0 264 111l119 -199q-106 -182 -430 -182q-253 0 -378.5 132.5t-125.5 355.5zM246 1569h329l136 -381h-213zM377 659h303q0 40 -2 66 t-10.5 57t-24 48.5t-44 29.5t-69.5 12t-70 -12t-45 -30t-24.5 -48t-11 -57t-2.5 -66z" />
<glyph unicode="&#xe9;" horiz-adv-x="1040" d="M47 451v159q0 257 109.5 376.5t369.5 119.5q114 0 196 -21.5t134 -61t82 -105t41.5 -141.5t11.5 -183v-150h-614q3 -211 221 -211q185 0 264 111l119 -199q-106 -182 -430 -182q-253 0 -378.5 132.5t-125.5 355.5zM348 1188l137 381h328l-252 -381h-213zM377 659h303 q0 40 -2 66t-10.5 57t-24 48.5t-44 29.5t-69.5 12t-70 -12t-45 -30t-24.5 -48t-11 -57t-2.5 -66z" />
<glyph unicode="&#xea;" horiz-adv-x="1040" d="M47 451v159q0 257 109.5 376.5t369.5 119.5q114 0 196 -21.5t134 -61t82 -105t41.5 -141.5t11.5 -183v-150h-614q3 -211 221 -211q185 0 264 111l119 -199q-106 -182 -430 -182q-253 0 -378.5 132.5t-125.5 355.5zM106 1186l281 360h266l281 -360h-258l-156 211 l-155 -211h-259zM377 659h303q0 40 -2 66t-10.5 57t-24 48.5t-44 29.5t-69.5 12t-70 -12t-45 -30t-24.5 -48t-11 -57t-2.5 -66z" />
<glyph unicode="&#xeb;" horiz-adv-x="1040" d="M47 451v159q0 257 109.5 376.5t369.5 119.5q114 0 196 -21.5t134 -61t82 -105t41.5 -141.5t11.5 -183v-150h-614q3 -211 221 -211q185 0 264 111l119 -199q-106 -182 -430 -182q-253 0 -378.5 132.5t-125.5 355.5zM102 1208v265h344v-265h-344zM377 659h303q0 40 -2 66 t-10.5 57t-24 48.5t-44 29.5t-69.5 12t-70 -12t-45 -30t-24.5 -48t-11 -57t-2.5 -66zM592 1208v265h344v-265h-344z" />
<glyph unicode="&#xec;" horiz-adv-x="614" d="M14 1569h330l135 -381h-213zM41 0v221l94 29v577l-94 29v221h438v-827l94 -29v-221h-532z" />
<glyph unicode="&#xed;" horiz-adv-x="614" d="M41 0v221l94 29v577l-94 29v221h438v-827l94 -29v-221h-532zM135 1188l137 381h328l-252 -381h-213z" />
<glyph unicode="&#xee;" horiz-adv-x="753" d="M-37 1186l281 360h266l281 -360h-259l-155 211l-156 -211h-258zM111 0v221l94 29v577l-94 29v221h438v-827l94 -29v-221h-532z" />
<glyph unicode="&#xef;" horiz-adv-x="798" d="M-16 1208v265h344v-265h-344zM133 0v221l94 29v577l-94 29v221h438v-827l95 -29v-221h-533zM473 1208v265h344v-265h-344z" />
<glyph unicode="&#xf0;" horiz-adv-x="1093" d="M45 389v205q0 91 20 155t54 103.5t91.5 62t121 30t153.5 7.5q133 0 183 -24q-19 111 -58 209l-223 -72l-72 186l205 66q-42 71 -96 125l231 82q78 -64 121 -121l203 63l63 -184l-147 -49q154 -277 154 -678v-166q0 -228 -119.5 -327t-380.5 -99t-382.5 99.5t-121.5 326.5 zM389 369q0 -148 160 -148q162 0 162 148v213q0 143 -162 143q-80 0 -120 -34t-40 -109v-213z" />
<glyph unicode="&#xf1;" horiz-adv-x="1280" d="M41 0v221l94 29v577l-94 29v221h412l4 -94q92 67 171 95t203 28q158 0 236 -74.5t78 -226.5v-555l94 -29v-221h-522v221l84 29v483q0 101 -113 101q-126 0 -209 -54v-530l84 -29v-221h-522zM272 1151v217q82 94 191 94q76 0 176 -45q116 -53 172 -53q58 0 104.5 25 t92.5 81v-217q-79 -94 -191 -94q-64 0 -178 43q-2 1 -19 9t-20.5 9.5t-18 8t-20 8t-18 6t-19.5 6t-17.5 4t-19.5 3.5t-18 1q-60 0 -106.5 -25t-90.5 -81z" />
<glyph unicode="&#xf2;" horiz-adv-x="1079" d="M45 426v219q0 240 118 350.5t376 110.5q259 0 377 -110.5t118 -350.5v-219q0 -242 -118 -352.5t-377 -110.5q-258 0 -376 110.5t-118 352.5zM246 1569h329l136 -381h-213zM381 449q0 -135 31.5 -178.5t126.5 -43.5q96 0 127.5 43t31.5 179v174q0 133 -32 177t-127 44 q-94 0 -126 -44t-32 -177v-174z" />
<glyph unicode="&#xf3;" horiz-adv-x="1079" d="M45 426v219q0 240 118 350.5t376 110.5q259 0 377 -110.5t118 -350.5v-219q0 -242 -118 -352.5t-377 -110.5q-258 0 -376 110.5t-118 352.5zM369 1188l137 381h328l-252 -381h-213zM381 449q0 -135 31.5 -178.5t126.5 -43.5q96 0 127.5 43t31.5 179v174q0 133 -32 177 t-127 44q-94 0 -126 -44t-32 -177v-174z" />
<glyph unicode="&#xf4;" horiz-adv-x="1079" d="M45 426v219q0 240 118 350.5t376 110.5q259 0 377 -110.5t118 -350.5v-219q0 -242 -118 -352.5t-377 -110.5q-258 0 -376 110.5t-118 352.5zM125 1186l281 360h266l280 -360h-258l-155 211l-156 -211h-258zM381 449q0 -135 31.5 -178.5t126.5 -43.5q96 0 127.5 43 t31.5 179v174q0 133 -32 177t-127 44q-94 0 -126 -44t-32 -177v-174z" />
<glyph unicode="&#xf5;" horiz-adv-x="1079" d="M45 426v219q0 240 118 350.5t376 110.5q259 0 377 -110.5t118 -350.5v-219q0 -242 -118 -352.5t-377 -110.5q-258 0 -376 110.5t-118 352.5zM172 1151v217q82 94 190 94q77 0 177 -45q116 -53 172 -53q58 0 104 25t92 81v-217q-79 -94 -190 -94q-64 0 -178 43q-2 1 -19 9 t-20.5 9.5t-18 8t-20 8t-18 6t-19.5 6t-17.5 4t-19.5 3.5t-18 1q-60 0 -106.5 -25t-90.5 -81zM381 449q0 -135 31.5 -178.5t126.5 -43.5q96 0 127.5 43t31.5 179v174q0 133 -32 177t-127 44q-94 0 -126 -44t-32 -177v-174z" />
<glyph unicode="&#xf6;" horiz-adv-x="1079" d="M45 426v219q0 240 118 350.5t376 110.5q259 0 377 -110.5t118 -350.5v-219q0 -242 -118 -352.5t-377 -110.5q-258 0 -376 110.5t-118 352.5zM123 1208v265h344v-265h-344zM381 449q0 -135 31.5 -178.5t126.5 -43.5q96 0 127.5 43t31.5 179v174q0 133 -32 177t-127 44 q-94 0 -126 -44t-32 -177v-174zM612 1208v265h344v-265h-344z" />
<glyph unicode="&#xf7;" horiz-adv-x="1251" d="M96 627v252h1057v-252h-1057zM442 152v331h367v-331h-367zM442 1022v332h367v-332h-367z" />
<glyph unicode="&#xf8;" horiz-adv-x="1079" d="M45 -154l115 230q-115 112 -115 350v219q0 240 118 350.5t376 110.5q80 0 135 -8l67 133h293l-119 -236q119 -110 119 -350v-219q0 -242 -118 -352.5t-377 -110.5q-72 0 -144 10l-63 -127h-287zM344 401l238 471q-14 2 -43 2q-116 0 -155.5 -48t-39.5 -195v-230zM489 199 q14 -2 50 -2q61 0 97 9.5t59.5 37t31.5 73t8 123.5v242z" />
<glyph unicode="&#xf9;" horiz-adv-x="1169" d="M33 856v221h502v-221l-84 -29v-489q0 -57 32.5 -78.5t124.5 -21.5t125 22.5t33 77.5v489l-84 29v221h455v-221l-76 -29v-495q0 -195 -111.5 -282t-357.5 -87q-248 0 -365.5 87.5t-117.5 281.5v495zM291 1569h330l135 -381h-213z" />
<glyph unicode="&#xfa;" horiz-adv-x="1169" d="M33 856v221h502v-221l-84 -29v-489q0 -57 32.5 -78.5t124.5 -21.5t125 22.5t33 77.5v489l-84 29v221h455v-221l-76 -29v-495q0 -195 -111.5 -282t-357.5 -87q-248 0 -365.5 87.5t-117.5 281.5v495zM414 1188l137 381h328l-252 -381h-213z" />
<glyph unicode="&#xfb;" horiz-adv-x="1169" d="M33 856v221h502v-221l-84 -29v-489q0 -57 32.5 -78.5t124.5 -21.5t125 22.5t33 77.5v489l-84 29v221h455v-221l-76 -29v-495q0 -195 -111.5 -282t-357.5 -87q-248 0 -365.5 87.5t-117.5 281.5v495zM170 1186l281 360h266l280 -360h-258l-155 211l-156 -211h-258z" />
<glyph unicode="&#xfc;" horiz-adv-x="1169" d="M33 856v221h502v-221l-84 -29v-489q0 -57 32.5 -78.5t124.5 -21.5t125 22.5t33 77.5v489l-84 29v221h455v-221l-76 -29v-495q0 -195 -111.5 -282t-357.5 -87q-248 0 -365.5 87.5t-117.5 281.5v495zM168 1208v265h344v-265h-344zM657 1208v265h344v-265h-344z" />
<glyph unicode="&#xfd;" horiz-adv-x="1183" d="M16 -387l86 248q62 -56 174 -56q109 0 158 146l-328 885l-75 20v221h501v-221l-69 -20l162 -531l176 531l-66 20v221h416v-221l-72 -20l-360 -947q-26 -67 -49.5 -116.5t-60.5 -102.5t-79 -86t-102 -54.5t-131 -21.5q-79 0 -153 27t-128 78zM457 1188l137 381h328 l-252 -381h-213z" />
<glyph unicode="&#xfe;" horiz-adv-x="1153" d="M4 -246l94 29v1440l-94 28v222h438v-472q145 105 340 105q170 0 246 -109t76 -348v-207q0 -258 -81.5 -367.5t-279.5 -109.5q-171 0 -301 84v-266l115 -29v-221h-553v221zM442 266q93 -35 172 -35q84 0 117 48t33 161v201q0 108 -28 151.5t-93 43.5q-98 0 -201 -70v-500z " />
<glyph unicode="&#xff;" horiz-adv-x="1183" d="M16 -387l86 248q62 -56 174 -56q109 0 158 146l-328 885l-75 20v221h501v-221l-69 -20l162 -531l176 531l-66 20v221h416v-221l-72 -20l-360 -947q-26 -67 -49.5 -116.5t-60.5 -102.5t-79 -86t-102 -54.5t-131 -21.5q-79 0 -153 27t-128 78zM215 1208v265h344v-265h-344z M705 1208v265h344v-265h-344z" />
<glyph unicode="&#x152;" horiz-adv-x="1816" d="M53 551v352q0 298 122.5 424.5t406.5 126.5h1161v-403h-203l-29 139h-333v-313h280l27 94h168v-432h-168l-27 94h-280v-352h333l43 168h201v-449h-1173q-284 0 -406.5 126.5t-122.5 424.5zM430 539q0 -153 37 -216t115 -63h227v934h-227q-78 0 -115 -63t-37 -216v-376z " />
<glyph unicode="&#x153;" horiz-adv-x="1699" d="M45 426v219q0 240 118 350.5t376 110.5q220 0 329 -86q103 86 318 86q114 0 196 -21.5t134 -61t82 -105t41.5 -141.5t11.5 -183v-150h-615q3 -211 221 -211q186 0 265 111l118 -199q-106 -182 -430 -182q-209 0 -325 98q-107 -98 -346 -98q-258 0 -376 110.5t-118 352.5z M381 449q0 -135 31.5 -178.5t126.5 -43.5q96 0 127.5 43t31.5 179v174q0 133 -32 177t-127 44q-94 0 -126 -44t-32 -177v-174zM1036 659h303q0 41 -2 66.5t-10 56.5t-23.5 48.5t-44 29.5t-69.5 12t-70 -12t-45 -30t-25 -48t-11.5 -57t-2.5 -66z" />
<glyph unicode="&#x178;" horiz-adv-x="1249" d="M45 1233v221h533v-221l-74 -29l178 -399l176 399l-72 29v221h418v-221l-80 -29l-311 -663v-291l105 -29v-221h-584v221l104 29v291l-315 663zM238 1585v264h344v-264h-344zM727 1585v264h344v-264h-344z" />
<glyph unicode="&#x2c6;" horiz-adv-x="933" d="M53 1186l281 360h266l281 -360h-258l-156 211l-156 -211h-258z" />
<glyph unicode="&#x2dc;" horiz-adv-x="841" d="M53 1151v217q82 94 191 94q76 0 176 -45q116 -53 172 -53q58 0 104 25t92 81v-217q-79 -94 -190 -94q-64 0 -178 43q-2 1 -19 9t-20.5 9.5t-18 8t-20 8t-18 6t-19.5 6t-17.5 4t-19.5 3.5t-18 1q-60 0 -106.5 -25t-90.5 -81z" />
<glyph unicode="&#x2000;" horiz-adv-x="973" />
<glyph unicode="&#x2001;" horiz-adv-x="1946" />
<glyph unicode="&#x2002;" horiz-adv-x="973" />
<glyph unicode="&#x2003;" horiz-adv-x="1946" />
<glyph unicode="&#x2004;" horiz-adv-x="648" />
<glyph unicode="&#x2005;" horiz-adv-x="486" />
<glyph unicode="&#x2006;" horiz-adv-x="324" />
<glyph unicode="&#x2007;" horiz-adv-x="324" />
<glyph unicode="&#x2008;" horiz-adv-x="243" />
<glyph unicode="&#x2009;" horiz-adv-x="389" />
<glyph unicode="&#x200a;" horiz-adv-x="108" />
<glyph unicode="&#x2010;" d="M57 539v270h555v-270h-555z" />
<glyph unicode="&#x2011;" d="M57 539v270h555v-270h-555z" />
<glyph unicode="&#x2012;" d="M57 539v270h555v-270h-555z" />
<glyph unicode="&#x2013;" horiz-adv-x="1110" d="M57 539v270h998v-270h-998z" />
<glyph unicode="&#x2014;" horiz-adv-x="1527" d="M57 539v270h1413v-270h-1413z" />
<glyph unicode="&#x2018;" horiz-adv-x="473" d="M53 1124v349h367v-332h-203q46 -83 160 -180l-105 -113q-71 55 -130.5 129t-88.5 147z" />
<glyph unicode="&#x2019;" horiz-adv-x="473" d="M53 1141v332h367v-349q-29 -73 -88.5 -147t-130.5 -129l-105 113q114 97 160 180h-203z" />
<glyph unicode="&#x201a;" horiz-adv-x="473" d="M53 0v332h367v-348q-29 -73 -88.5 -148t-130.5 -129l-105 113q114 97 160 180h-203z" />
<glyph unicode="&#x201c;" horiz-adv-x="946" d="M53 1124v349h367v-332h-203q46 -83 160 -180l-105 -113q-71 55 -130.5 129t-88.5 147zM526 1124v349h367v-332h-203q46 -83 160 -180l-105 -113q-71 55 -130.5 129t-88.5 147z" />
<glyph unicode="&#x201d;" horiz-adv-x="946" d="M53 1141v332h367v-349q-29 -73 -88.5 -147t-130.5 -129l-105 113q114 97 160 180h-203zM526 1141v332h367v-349q-29 -73 -88.5 -147t-130.5 -129l-105 113q114 97 160 180h-203z" />
<glyph unicode="&#x201e;" horiz-adv-x="946" d="M53 0v332h367v-348q-29 -73 -88.5 -148t-130.5 -129l-105 113q114 97 160 180h-203zM526 0v332h367v-348q-29 -73 -88.5 -148t-130.5 -129l-105 113q114 97 160 180h-203z" />
<glyph unicode="&#x2022;" horiz-adv-x="806" d="M53 752q0 153 92.5 247.5t257.5 94.5q167 0 259 -94t92 -248q0 -150 -92 -244t-259 -94q-164 0 -257 94.5t-93 243.5z" />
<glyph unicode="&#x2026;" horiz-adv-x="2365" d="M53 0v332h367v-332h-367zM999 0v332h367v-332h-367zM1946 0v332h366v-332h-366z" />
<glyph unicode="&#x202f;" horiz-adv-x="389" />
<glyph unicode="&#x2039;" horiz-adv-x="466" d="M53 557v266l361 281v-258l-211 -156l211 -155v-259z" />
<glyph unicode="&#x203a;" horiz-adv-x="466" d="M53 276v259l209 155l-209 156v258l361 -281v-266z" />
<glyph unicode="&#x205f;" horiz-adv-x="486" />
<glyph unicode="&#x20ac;" horiz-adv-x="1161" d="M23 473l36 182h113v133h-149l36 183h115q22 267 162.5 393.5t411.5 126.5q220 0 364 -78l-102 -242q-97 50 -262 50q-97 0 -142 -53t-55 -197h375l-78 -183h-299v-133h242l-78 -182h-160q10 -141 54 -190.5t141 -49.5q175 0 270 50l131 -222q-154 -98 -401 -98 q-269 0 -409.5 124t-162.5 386h-153z" />
<glyph unicode="&#x2122;" horiz-adv-x="1857" d="M55 1112v342h682v-342h-121l-18 178h-90v-553l61 -18v-131h-346v131l62 18v553h-90l-19 -178h-121zM791 588v131l55 18v568l-55 18v131h413l105 -612l108 612h383v-131l-55 -18v-568l55 -18v-131h-303v131l51 18v549l-145 -698h-225l-142 698v-549l49 -18v-131h-294z" />
<glyph unicode="&#x25fc;" horiz-adv-x="1075" d="M0 0v1075h1075v-1075h-1075z" />
<glyph unicode="&#xfb01;" horiz-adv-x="1318" d="M33 852v225h108v121q0 157 79.5 225t242.5 68q165 0 237 -45l-36 -213q-38 20 -93 20q-92 0 -92 -77v-99h205v-225h-205v-602l115 -29v-221h-547v221l94 29v602h-108zM745 0v221l95 29v577l-95 29v221h439v-827l94 -29v-221h-533zM840 1208v265h344v-265h-344z" />
<glyph unicode="&#xfb02;" horiz-adv-x="1349" d="M33 852v225h108v121q0 157 79.5 225t242.5 68q165 0 237 -45l-36 -213q-38 20 -93 20q-92 0 -92 -77v-99h205v-225h-205v-602l115 -29v-221h-547v221l94 29v602h-108zM776 0v221l94 29v973l-94 28v222h438v-1223l95 -29v-221h-533z" />
</font>
</defs>
</svg>
