<?xml version="1.0" standalone="no"?>
<!DOCTYPE svg PUBLIC "-//W3C//DTD SVG 1.1//EN" "http://www.w3.org/Graphics/SVG/1.1/DTD/svg11.dtd" >
<svg xmlns="http://www.w3.org/2000/svg">
<metadata></metadata>
<defs>
<font id="vectipedebook_italic" horiz-adv-x="1296" >
<font-face units-per-em="2048" ascent="1556" descent="-492" />
<missing-glyph horiz-adv-x="593" />
<glyph unicode="&#x28;C&#x29;" horiz-adv-x="1280" d="M145 346q0 74 19 178l72 406q53 302 212 431.5t453 129.5q248 0 368 -91t120 -296q0 -67 -17 -174l-72 -406q-54 -302 -214 -431.5t-455 -129.5q-248 0 -367 90t-119 293zM246 365q0 -172 97 -239t306 -67q240 0 375 113t178 352l72 406q14 80 14 153q0 172 -97.5 241 t-307.5 69q-241 0 -374 -110t-175 -353l-72 -406q-16 -98 -16 -159zM438 516q0 39 15 131l30 170q37 200 125.5 278.5t272.5 78.5q67 0 128 -25.5t93 -67.5l-31 -166h-90l14 125q-45 54 -135 54q-123 0 -181.5 -62t-86.5 -215l-31 -170q-12 -67 -12 -115q0 -86 42 -123.5 t140 -37.5q95 0 158 57l31 123h90l-27 -154q-120 -104 -258 -104q-152 0 -219.5 50t-67.5 173z" />
<glyph unicode="&#x28;R&#x29;" horiz-adv-x="1280" d="M145 346q0 74 19 178l72 406q53 302 212 431.5t453 129.5q248 0 368 -91t120 -296q0 -67 -17 -174l-72 -406q-54 -302 -214 -431.5t-455 -129.5q-248 0 -367 90t-119 293zM246 365q0 -172 97 -239t306 -67q240 0 375 113t178 352l72 406q14 80 14 153q0 172 -97.5 241 t-307.5 69q-241 0 -374 -110t-175 -353l-72 -406q-16 -98 -16 -159zM369 313l12 64l80 10l121 690l-76 10l12 64h395q177 0 177 -139q0 -23 -7 -58l-8 -41q-17 -82 -47 -122t-82 -54q42 -11 63 -33.5t21 -66.5q0 -23 -6 -53l-35 -197l76 -10l-12 -64h-123q-47 0 -47 52 q0 16 2 26l35 193q4 28 4 39q0 41 -23.5 59t-73.5 18h-206l-56 -313l76 -10l-12 -64h-260zM633 770h203q58 0 91.5 32t45.5 101l6 27q4 32 4 47q0 48 -25 72t-81 24h-191z" />
<glyph horiz-adv-x="2048" />
<glyph horiz-adv-x="2048" />
<glyph unicode="&#xd;" horiz-adv-x="2048" />
<glyph horiz-adv-x="593" />
<glyph unicode=" "  horiz-adv-x="593" />
<glyph unicode="&#x09;" horiz-adv-x="593" />
<glyph unicode="&#xa0;" horiz-adv-x="593" />
<glyph unicode="!" horiz-adv-x="364" d="M84 0l55 319h195l-55 -319h-195zM209 442q20 354 44 563.5t83 448.5h207q-34 -250 -84 -461t-148 -551h-102z" />
<glyph unicode="&#x22;" horiz-adv-x="620" d="M238 907l96 547h147l-96 -547h-147zM555 907l96 547h148l-97 -547h-147z" />
<glyph unicode="#" horiz-adv-x="1134" d="M141 446l35 125h215l113 312h-232l37 125h240l166 446h121l-164 -446h241l166 446h127l-166 -446h207l-41 -125h-211l-112 -312h231l-35 -125h-241l-162 -446h-127l162 446h-242l-162 -446h-125l162 446h-203zM514 571h242l112 312h-241z" />
<glyph unicode="$" horiz-adv-x="1028" d="M127 270l49 279h129l-16 -193q91 -65 248 -65q108 0 180.5 22.5t116 80t43.5 151.5q0 41 -20 60t-66 30q-60 14 -140 27t-134 20.5t-112.5 23t-93.5 35.5t-57.5 57.5t-22.5 90.5q0 22 17 119q47 265 411 290l29 156h148l-29 -156q218 -7 309 -86l-49 -278h-127l16 205 q-27 20 -69 30t-72.5 11.5t-87.5 1.5q-162 0 -245 -58t-83 -200q0 -53 38 -73t147 -34q228 -29 296 -47q130 -34 162 -109q13 -31 13 -71q0 -387 -449 -428l-26 -162h-148l27 162q-210 12 -332 108z" />
<glyph unicode="%" horiz-adv-x="1392" d="M184 -43l1151 1542h131l-1153 -1542h-129zM231 913q0 37 9 84l41 226q27 147 100 208.5t197 61.5q102 0 156 -43.5t54 -144.5q-6 -69 -8 -82l-41 -226q-25 -146 -100 -207t-197 -61q-104 0 -157.5 42t-53.5 142zM350 926q0 -59 27.5 -79t83.5 -20q59 0 102.5 38.5 t57.5 123.5l41 242q6 38 6 63q0 58 -27.5 78.5t-81.5 20.5q-63 0 -106 -40t-56 -122l-41 -242q-6 -37 -6 -63zM858 145q0 43 8 84l41 226q27 147 100 208.5t197 61.5q103 0 157 -43.5t54 -144.5q-6 -69 -8 -82l-41 -226q-25 -146 -100 -207t-197 -61q-104 0 -157.5 42 t-53.5 142zM977 158q0 -59 27.5 -79t82.5 -20q59 0 102.5 38.5t57.5 123.5l41 242q6 37 6 63q0 58 -27.5 78.5t-80.5 20.5q-63 0 -106 -40t-56 -122l-41 -242q-6 -37 -6 -63z" />
<glyph unicode="&#x26;" horiz-adv-x="1273" d="M102 215q0 41 9 90l18 105q22 121 88.5 193.5t206.5 129.5q-94 117 -94 246q0 43 8 84l18 106q29 167 133 244.5t297 77.5q162 0 235 -53t73 -168q0 -35 -11 -99l-20 -114q-10 -55 -24 -97t-38 -76.5t-50.5 -59.5t-69.5 -49.5t-87.5 -44t-111.5 -44.5l305 -371 q98 95 140 180t63 201h156q-30 -175 -91.5 -290.5t-169.5 -210.5l50 -60l125 -20l-19 -115h-221l-72 86q-97 -66 -205 -94.5t-270 -28.5q-87 0 -151.5 12t-115.5 40t-77.5 78t-26.5 122zM293 274q0 -48 17 -80.5t50 -49.5t73.5 -24t96.5 -7q185 0 322 90l-342 422 q-42 -17 -70 -31.5t-49.5 -34t-34 -36.5t-24 -48t-18 -59t-15.5 -78q-6 -38 -6 -64zM504 1001q0 -97 86 -204q157 57 202 83q71 42 97 115q10 27 16 62l19 102q6 38 6 66q0 69 -39 96t-123 27q-204 0 -240 -191l-18 -100q-6 -30 -6 -56z" />
<glyph unicode="'" horiz-adv-x="303" d="M238 907l96 547h147l-96 -547h-147z" />
<glyph unicode="(" horiz-adv-x="679" d="M256 455q0 639 569 1140h142q-269 -280 -397 -565t-128 -592q0 -193 48 -390.5t141 -360.5h-142q-115 152 -174 355.5t-59 412.5z" />
<glyph unicode=")" horiz-adv-x="679" d="M-61 -313q528 574 528 1181q0 188 -48.5 379t-144.5 348h142q119 -151 179 -346t60 -397q0 -313 -148 -612t-427 -553h-141z" />
<glyph unicode="*" horiz-adv-x="880" d="M244 1139l32 98l293 -100v329h109v-329l299 100l35 -96l-305 -94l194 -263l-84 -63l-190 264l-187 -264l-88 61l195 265z" />
<glyph unicode="+" horiz-adv-x="1234" d="M236 686l22 135h432l78 434h137l-78 -434h435l-23 -135h-434l-78 -436h-137l78 436h-432z" />
<glyph unicode="," horiz-adv-x="370" d="M49 -199q103 107 148 199h-109l57 332h199l-59 -340q-60 -136 -187 -250z" />
<glyph unicode="-" horiz-adv-x="653" d="M168 600l27 145h526l-27 -145h-526z" />
<glyph unicode="." horiz-adv-x="352" d="M78 0l57 332h197l-58 -332h-196z" />
<glyph unicode="/" horiz-adv-x="679" d="M-14 -219l770 1673h157l-774 -1673h-153z" />
<glyph unicode="0" horiz-adv-x="1134" d="M147 328q0 81 17 174l78 448q26 150 79.5 256.5t130.5 168t169 89t208 27.5q200 0 306 -86t106 -283q0 -71 -16 -172l-78 -448q-27 -151 -80 -257t-130.5 -167t-169 -88t-208.5 -27q-200 0 -306 85t-106 280zM330 348q0 -132 64 -181.5t194 -49.5q143 0 242.5 91.5 t134.5 291.5l77 448q15 88 15 152q0 136 -63 185.5t-193 49.5q-153 0 -247.5 -90t-129.5 -297l-78 -446q-16 -94 -16 -154z" />
<glyph unicode="1" horiz-adv-x="651" d="M123 0l18 115l152 20l188 1071q-84 -69 -176 -127l-57 121q187 121 325 254h132l-234 -1319l129 -20l-18 -115h-459z" />
<glyph unicode="2" horiz-adv-x="1075" d="M76 0l28 172q104 63 164 100.5t169 111.5t176.5 128.5t152.5 134.5t133.5 149.5t82.5 153.5t34 164q0 219 -275 219q-200 0 -401 -119l-29 156q225 121 500 121q387 0 387 -322q0 -89 -25 -175t-64.5 -158.5t-107 -149t-134.5 -137.5t-165 -133.5t-180.5 -127.5 t-199.5 -128h565l63 235h135l-69 -395h-940z" />
<glyph unicode="3" horiz-adv-x="1021" d="M59 31l72 147q141 -63 320 -63q115 0 206 39.5t147 124t56 202.5q0 199 -242 199h-159l24 135h162q143 0 225 85t82 233q0 111 -69.5 157.5t-208.5 46.5q-187 0 -352 -98l-23 141q184 111 426 111q202 0 301.5 -79.5t99.5 -225.5q0 -165 -86.5 -281t-228.5 -145 q106 -22 162.5 -95t56.5 -186q0 -46 -8 -90q-26 -145 -108.5 -242t-201.5 -140.5t-272 -43.5q-222 0 -381 68z" />
<glyph unicode="4" horiz-adv-x="1128" d="M96 266l31 168q206 241 385.5 518t300.5 525l154 -50q-109 -231 -296 -516t-364 -501h553l101 575h165l-100 -575h123l-27 -144h-123l-45 -266h-170l45 266h-733z" />
<glyph unicode="5" horiz-adv-x="1062" d="M74 68l73 141q63 -39 155 -64.5t181 -25.5q217 0 330 122.5t113 344.5q0 112 -58 159.5t-182 47.5q-101 0 -203.5 -46.5t-185.5 -138.5l-117 27l217 819h791l-72 -399h-129l19 243h-490l-143 -524q154 139 387 139q174 0 254 -77t80 -228q0 -46 -15 -145 q-45 -262 -195 -381t-448 -119q-106 0 -205 29.5t-157 75.5z" />
<glyph unicode="6" horiz-adv-x="1091" d="M141 371q0 157 36.5 310.5t108 291t171 247t234 181.5t286.5 90l16 -148q-124 -15 -231.5 -71.5t-186 -143.5t-134 -196t-85.5 -234q78 95 189.5 150t249.5 55q171 0 252 -85.5t81 -233.5q0 -58 -12 -123q-43 -242 -189 -370t-376 -128q-218 0 -314 105t-96 303zM313 379 q0 -134 60.5 -202t206.5 -68q171 0 273.5 129.5t102.5 330.5q0 105 -55.5 158t-175.5 53q-112 0 -213.5 -54t-177.5 -148q-21 -129 -21 -199z" />
<glyph unicode="7" horiz-adv-x="1019" d="M236 1047l71 407h928l-25 -141q-232 -294 -449 -661t-331 -677l-188 33q129 321 340.5 665.5t445.5 620.5h-594l-63 -247h-135z" />
<glyph unicode="8" horiz-adv-x="1103" d="M109 293q0 371 415 455q-123 28 -182 101.5t-59 174.5q0 146 72 253.5t192 160.5t272 53q391 0 391 -297q0 -72 -18.5 -137.5t-58 -125.5t-110.5 -103.5t-167 -61.5q137 -37 204.5 -104.5t67.5 -182.5q0 -156 -77.5 -274.5t-209 -180t-294.5 -61.5q-199 0 -318.5 82.5 t-119.5 247.5zM293 332q0 -215 278 -215q76 0 142.5 21.5t119.5 63.5t84 112t31 159q0 98 -68 149t-210 72q-184 -19 -280.5 -113t-96.5 -249zM436 1012q0 -90 63 -150t193 -74q99 11 171 48.5t108.5 90.5t52.5 106.5t16 111.5q0 108 -64 151t-188 43q-146 0 -249 -89 t-103 -238z" />
<glyph unicode="9" horiz-adv-x="1091" d="M217 870q0 123 39 234.5t110.5 198t182.5 137.5t246 51q217 0 312 -111.5t95 -312.5q0 -193 -58.5 -380t-163 -340.5t-264 -257.5t-347.5 -126l-17 146q246 34 409.5 209.5t229.5 437.5q-176 -205 -442 -205q-171 0 -251.5 85.5t-80.5 233.5zM391 887q0 -105 56 -159 t176 -54q111 0 212.5 54t174.5 146l6 39q16 98 16 166q0 132 -62 196t-204 64q-169 0 -272 -125t-103 -327z" />
<glyph unicode=":" horiz-adv-x="411" d="M106 0l58 332h196l-57 -332h-197zM238 743l57 328h197l-58 -328h-196z" />
<glyph unicode=";" horiz-adv-x="417" d="M72 -199q101 105 147 199h-108l57 332h199l-60 -340q-61 -138 -186 -250zM242 743l57 328h199l-58 -328h-198z" />
<glyph unicode="&#x3c;" horiz-adv-x="1234" d="M233 684l25 135l1083 455l-26 -156l-916 -370l785 -373l-27 -148z" />
<glyph unicode="=" horiz-adv-x="1234" d="M197 473l24 137h1004l-25 -137h-1003zM272 897l23 135h1003l-22 -135h-1004z" />
<glyph unicode="&#x3e;" horiz-adv-x="1234" d="M154 227l26 156l916 373l-785 370l27 148l924 -455l-25 -135z" />
<glyph unicode="?" horiz-adv-x="944" d="M262 1083l47 273q144 135 404 135q178 0 271 -72.5t93 -210.5q0 -24 -8 -86l-14 -86q-18 -110 -74 -174.5t-166 -109.5q-118 -47 -158.5 -81.5t-52.5 -103.5l-18 -108h-164l22 131q17 101 69 150.5t204 111.5q86 34 122.5 74t53.5 127l10 57q6 38 6 70q0 92 -57 133 t-168 41q-144 0 -246 -82l-49 -189h-127zM326 0l55 319h194l-55 -319h-194z" />
<glyph unicode="@" horiz-adv-x="1171" d="M98 70q0 78 19 192l78 443q31 176 80.5 291t128.5 181.5t178.5 92.5t244.5 26q217 0 325 -77t108 -252q0 -53 -13 -129l-127 -721h-98l10 143q-125 -168 -313 -168q-112 0 -159.5 40.5t-47.5 131.5q0 48 12 113l37 207q17 99 48 156t90.5 86.5t156.5 29.5q169 0 250 -113 l16 99q11 68 11 102q0 128 -79 182t-247 54q-118 0 -196 -21t-136 -76t-93 -143.5t-60 -228.5l-78 -435q-17 -93 -17 -174q0 -69 13 -122.5t39 -88.5t57.5 -58.5t75.5 -35.5t85.5 -17t94.5 -5q162 0 268 32l2 -110q-139 -41 -284 -41q-111 0 -194 19.5t-149.5 65t-101.5 128 t-35 201.5zM643 307q0 -59 31 -81.5t110 -22.5q143 0 252 159l49 279q-60 111 -196 111q-101 0 -146 -43.5t-61 -141.5l-31 -178q-8 -44 -8 -82z" />
<glyph unicode="A" d="M37 0l18 115l129 20l592 1319h273l108 -1319l121 -20l-18 -115h-465l18 115l137 20l-28 363h-424l-160 -363l121 -20l-19 -115h-403zM553 618h360l-53 687z" />
<glyph unicode="B" horiz-adv-x="1204" d="M72 0l18 115l137 20l209 1184l-129 20l21 115h688q305 0 305 -244q0 -33 -23 -168q-25 -143 -87.5 -211t-166.5 -90q87 -16 135 -67t48 -152q0 -50 -27 -200q-58 -322 -452 -322h-676zM424 135h313q124 0 189 55t84 168q22 126 22 166q0 85 -43 121.5t-139 36.5h-330z M543 805h329q96 0 160 65t86 185q15 88 15 116q0 79 -42.5 112.5t-138.5 33.5h-319z" />
<glyph unicode="C" horiz-adv-x="1134" d="M150 352q0 91 22 226l53 299q31 176 83 292.5t136.5 188.5t198 102.5t275.5 30.5q123 0 228.5 -34.5t156.5 -102.5l-54 -305h-139l20 206q-33 48 -101.5 70.5t-149.5 22.5q-204 0 -306.5 -110.5t-146.5 -360.5l-53 -302q-23 -135 -23 -208q0 -145 70.5 -204t236.5 -59 q184 0 291 99l51 203h140l-52 -295q-169 -148 -440 -148q-263 0 -380 88t-117 301z" />
<glyph unicode="D" horiz-adv-x="1259" d="M72 0l18 115l137 20l209 1184l-129 20l21 115h614q221 0 322.5 -83t101.5 -271q0 -74 -20 -197l-62 -352q-52 -298 -190.5 -424.5t-407.5 -126.5h-614zM424 139h285q156 0 246.5 99t127.5 307l66 364q14 80 18 172q0 129 -59 180.5t-190 51.5h-285z" />
<glyph unicode="E" horiz-adv-x="1159" d="M72 0l18 115l137 20l209 1184l-129 20l21 115h995l-72 -403h-127l17 260h-512l-86 -490h413l56 150h110l-75 -432h-113v151h-414l-96 -540h518l88 299h127l-78 -449h-1007z" />
<glyph unicode="F" horiz-adv-x="1140" d="M72 0l18 115l137 20l209 1184l-129 20l21 115h1007l-78 -436h-127l19 289h-518l-96 -543h421l54 149h110l-78 -438h-108v154h-422l-88 -494l156 -20l-19 -115h-489z" />
<glyph unicode="G" horiz-adv-x="1183" d="M147 348q0 92 21 209l57 320q31 173 83 290t134.5 189t190.5 103.5t258 31.5q146 0 260.5 -34t167.5 -103l-53 -305h-140l21 206q-34 48 -110 70.5t-169 22.5q-192 0 -295.5 -111.5t-148.5 -359.5l-57 -320q-19 -114 -19 -186q0 -137 66 -197.5t219 -60.5q117 0 202 28 t121 64l80 450l-272 21l18 108h463l-117 -665q-56 -52 -199 -104t-321 -52q-242 0 -351.5 92t-109.5 293z" />
<glyph unicode="H" horiz-adv-x="1345" d="M72 0l18 115l137 20l209 1184l-129 20l21 115h454l-20 -115l-133 -20l-90 -512h551l90 512l-125 20l20 115h455l-21 -115l-137 -20l-209 -1184l129 -20l-18 -115h-455l19 115l133 20l94 531h-551l-94 -531l125 -20l-19 -115h-454z" />
<glyph unicode="I" horiz-adv-x="606" d="M72 0l18 115l137 20l209 1184l-129 20l21 115h463l-21 -115l-137 -20l-209 -1184l129 -20l-18 -115h-463z" />
<glyph unicode="J" horiz-adv-x="686" d="M-182 -311l35 133q62 -84 165 -84q68 0 119.5 26t84.5 75t53.5 105.5t33.5 131.5l219 1243l-145 18l20 117h467l-20 -117l-127 -18l-217 -1237q-43 -248 -152.5 -376t-308.5 -128q-163 0 -227 111z" />
<glyph unicode="K" d="M72 0l20 117l135 18l209 1184l-129 18l21 117h454l-20 -117l-131 -18l-90 -508l589 508l-108 18l20 117h426l-20 -117l-152 -24l-569 -486l410 -692l137 -29l-19 -106h-282l-441 764l-110 -629l125 -18l-21 -117h-454z" />
<glyph unicode="L" horiz-adv-x="1093" d="M72 0l20 121l135 14l209 1184l-129 18l21 117h473l-21 -117l-147 -18l-205 -1165h465l98 419h135l-100 -573h-954z" />
<glyph unicode="M" horiz-adv-x="1755" d="M72 0l20 117l135 18l209 1184l-129 18l21 117h463l143 -1229l598 1229h407l-20 -117l-137 -18l-209 -1184l131 -18l-21 -117h-426l21 117l131 18l205 1163l-641 -1298h-207l-174 1296l-205 -1161l125 -18l-20 -117h-420z" />
<glyph unicode="N" horiz-adv-x="1347" d="M72 0l20 117l135 18l209 1184l-129 18l21 117h362l379 -1122l174 987l-125 18l21 117h407l-20 -117l-131 -18l-232 -1319h-162l-440 1167l-182 -1032l141 -18l-20 -117h-428z" />
<glyph unicode="O" horiz-adv-x="1236" d="M154 379q0 94 20 203l51 290q57 320 215.5 469.5t440.5 149.5q232 0 344 -102t112 -318q0 -88 -18 -199l-51 -290q-57 -319 -217.5 -469t-440.5 -150q-232 0 -344 101t-112 315zM350 377q0 -151 69 -209.5t218 -58.5q180 0 285 113.5t147 359.5l51 290q21 133 21 197 q0 153 -69.5 215t-217.5 62q-181 0 -284 -114t-146 -360l-51 -290q-23 -135 -23 -205z" />
<glyph unicode="P" horiz-adv-x="1175" d="M72 0l20 117l135 18l209 1184l-129 18l21 117h653q173 0 251.5 -69.5t78.5 -223.5q0 -61 -17 -168q-43 -247 -153 -355t-324 -108h-323l-70 -395l147 -18l-20 -117h-479zM516 653h293q124 0 193.5 83.5t99.5 250.5q16 94 16 152q0 100 -45 139t-147 39h-293z" />
<glyph unicode="Q" horiz-adv-x="1253" d="M158 403q0 84 18 195l49 285q53 312 218 460t446 148q234 0 349.5 -102t115.5 -316q0 -79 -19 -190l-49 -285q-83 -484 -444 -573q-2 -14 -2 -43q0 -113 48 -169.5t109 -56.5q63 0 119 56l-18 -107q-52 -72 -166 -72q-265 0 -270 361q-258 0 -381 95t-123 314zM356 412 q0 -153 71 -214t222 -61q360 0 441 471l47 271q20 123 20 192q0 154 -72 216.5t-221 62.5q-360 0 -440 -471l-47 -271q-21 -120 -21 -185v-11z" />
<glyph unicode="R" horiz-adv-x="1302" d="M72 0l20 117l135 18l209 1184l-129 18l21 117h690q157 0 230 -61.5t73 -180.5q0 -40 -10 -98l-13 -72q-26 -149 -89.5 -219t-164.5 -86q87 -13 127.5 -56.5t40.5 -143.5q0 -64 -14 -144l-45 -258l127 -18l-20 -117h-216q-92 0 -92 88q0 9 4 37l62 342q8 62 8 78 q0 72 -38.5 98.5t-127.5 26.5h-342l-94 -535l131 -18l-20 -117h-463zM541 797h336q195 0 235 235l6 35q10 62 10 96q0 79 -42 113.5t-138 34.5h-317z" />
<glyph unicode="S" horiz-adv-x="1128" d="M96 106l51 300h144l-21 -207q95 -90 281 -90q172 0 265 69t120 207q12 68 12 104q0 20 -5 37t-16.5 30t-22.5 23.5t-33 19t-37 14.5t-44 12t-46 9.5t-51 9.5t-50 9q-85 16 -129.5 26t-105.5 32.5t-90 51t-51.5 76.5t-22.5 113q0 51 16 140q40 212 180 305.5t387 93.5 q296 0 412 -135l-53 -307h-148l25 237q-78 76 -258 76q-168 0 -267.5 -89t-99.5 -274q0 -48 19.5 -74t60.5 -42q63 -26 231 -57t246 -62q78 -32 112 -81.5t34 -129.5q0 -43 -19 -154q-41 -235 -191.5 -335.5t-402.5 -100.5q-279 0 -432 143z" />
<glyph unicode="T" horiz-adv-x="1189" d="M205 881l102 573h1088l-103 -573h-133l53 430h-290l-207 -1176l147 -18l-20 -117h-496l21 117l151 18l207 1176h-289l-100 -430h-131z" />
<glyph unicode="U" horiz-adv-x="1398" d="M238 295q0 90 20 199l145 825l-112 18l20 117h447l-21 -117l-133 -18l-149 -846q-15 -83 -15 -141q0 -124 66.5 -167.5t222.5 -43.5q100 0 169.5 21t115.5 66.5t72.5 108.5t43.5 156l150 846l-123 18l21 117h421l-20 -117l-123 -18l-145 -825q-18 -101 -39 -173.5 t-54 -135t-77.5 -102t-109 -68t-149 -40.5t-196.5 -12q-244 0 -346 76.5t-102 255.5z" />
<glyph unicode="V" horiz-adv-x="1243" d="M272 1337l21 117h463l-21 -117l-135 -18l68 -1116l477 1116l-117 18l21 117h413l-20 -117l-129 -18l-586 -1319h-229l-107 1319z" />
<glyph unicode="W" horiz-adv-x="1775" d="M276 1337l21 117h465l-21 -117l-135 -18l-35 -1090l510 1225h172l56 -1225l358 1090l-117 18l21 117h420l-21 -117l-129 -18l-461 -1319h-231l-57 1145l-471 -1145h-224v1319z" />
<glyph unicode="X" horiz-adv-x="1247" d="M55 0l21 117l133 18l448 588l-233 596l-127 18l20 117h461l-20 -117l-123 -18l164 -457l327 457l-114 18l20 117h410l-21 -117l-137 -18l-432 -567l244 -617l123 -18l-21 -117h-455l21 117l119 18l-168 483l-350 -483l116 -18l-20 -117h-406z" />
<glyph unicode="Y" horiz-adv-x="1193" d="M272 1337l21 117h442l-20 -117l-129 -18l162 -580l372 580l-112 18l20 117h385l-20 -117l-125 -18l-471 -723l-82 -461l147 -18l-20 -117h-496l21 117l151 18l82 461l-213 723z" />
<glyph unicode="Z" horiz-adv-x="1130" d="M68 0l30 182l942 1127h-573l-109 -428h-135l103 573h970l-24 -139l-967 -1168h621l106 426h133l-100 -573h-997z" />
<glyph unicode="[" horiz-adv-x="712" d="M154 -285l327 1860h461l-22 -129h-297l-283 -1604h297l-23 -127h-460z" />
<glyph unicode="\" horiz-adv-x="679" d="M279 1454h157l182 -1673h-155z" />
<glyph unicode="]" horiz-adv-x="704" d="M-2 -285l20 127h297l283 1604h-297l23 129h462l-327 -1860h-461z" />
<glyph unicode="^" horiz-adv-x="729" d="M254 1036l319 418h95l172 -418h-133l-105 285l-209 -285h-139z" />
<glyph unicode="_" horiz-adv-x="911" d="M-29 -268l19 96h876l-18 -96h-877z" />
<glyph unicode="`" horiz-adv-x="536" d="M348 1569h174l152 -381h-115z" />
<glyph unicode="a" horiz-adv-x="1114" d="M94 176q0 67 25 201q27 146 115 217.5t249 71.5q226 0 394 -80l30 172q6 35 6 61q0 81 -52.5 111.5t-172.5 30.5q-212 0 -375 -101l-32 133q184 113 460 113q184 0 268.5 -55t84.5 -179q0 -32 -11 -96l-108 -618q-2 -10 -2 -27q0 -51 53 -51q43 0 74 39l-10 -99 q-43 -53 -132 -53q-149 0 -149 135q0 36 8 72q-65 -94 -180 -152.5t-264 -58.5q-143 0 -211 58.5t-68 154.5zM272 203q0 -109 179 -109q211 0 370 174l37 219q-132 70 -330 70q-109 0 -163 -48.5t-72 -146.5q-21 -107 -21 -159z" />
<glyph unicode="b" horiz-adv-x="1157" d="M135 0l236 1337l-131 19l20 117h315l-98 -558q84 95 198.5 143t242.5 48q156 0 228.5 -72.5t72.5 -222.5q0 -62 -17 -166l-37 -209q-45 -253 -154 -363t-327 -110q-121 0 -223 47t-152 137l-63 -147h-111zM362 258q34 -67 114 -105t171 -38q152 0 231.5 82t108.5 247 l29 166q16 98 16 156q0 109 -50 152t-161 43q-108 0 -205.5 -48.5t-162.5 -140.5z" />
<glyph unicode="c" horiz-adv-x="995" d="M127 309q0 66 10 117l41 236q35 205 171.5 324.5t367.5 119.5q264 0 368 -135l-47 -273h-141l18 189q-65 82 -215 82q-142 0 -231 -86.5t-113 -225.5l-41 -231q-10 -58 -10 -94q0 -114 68 -164.5t207 -50.5q101 0 192 46.5t158 139.5l51 -108q-83 -115 -198.5 -173.5 t-245.5 -58.5q-204 0 -307 89t-103 257z" />
<glyph unicode="d" horiz-adv-x="1204" d="M121 262q0 66 16 164l37 209q43 252 153 362.5t328 110.5q112 0 207.5 -39.5t138.5 -120.5l70 389l-131 19l21 117h315l-236 -1338l131 -18l-20 -117h-297l23 166q-185 -199 -453 -199q-157 0 -230 72.5t-73 222.5zM309 311q0 -107 49 -151.5t160 -44.5q109 0 208 48.5 t163 139.5l90 514q-34 67 -115 105.5t-172 38.5q-152 0 -231 -83.5t-107 -246.5l-28 -166q-17 -100 -17 -154z" />
<glyph unicode="e" horiz-adv-x="1032" d="M133 328q0 58 12 123l29 159q45 257 171 376.5t372 119.5q204 0 288.5 -74.5t84.5 -232.5q0 -91 -21 -205l-20 -107h-723l-7 -36q-10 -62 -10 -101q0 -241 279 -241q116 0 193 34.5t153 112.5l45 -111q-135 -182 -442 -182q-205 0 -304.5 97.5t-99.5 267.5zM348 604h557 q19 111 19 178q0 102 -51 149.5t-177 47.5q-68 0 -121.5 -18t-90.5 -49t-64 -79.5t-43.5 -102.5t-28.5 -126z" />
<glyph unicode="f" horiz-adv-x="702" d="M61 0l21 117l135 18l145 819h-151l20 123h152l25 135q27 150 110 214.5t230 64.5q146 0 206 -43l-41 -117q-48 31 -133 31q-166 0 -194 -162l-23 -123h295l-20 -123h-295l-146 -819l152 -18l-21 -117h-467z" />
<glyph unicode="g" horiz-adv-x="1087" d="M68 -356l71 125q107 -107 316 -107q166 0 255 82.5t119 251.5l39 219q-79 -96 -190.5 -143t-237.5 -47q-165 0 -238 70.5t-73 217.5q0 77 18 172l27 150q44 248 149.5 356.5t329.5 108.5q127 0 228 -43t143 -131l63 151h113l-194 -1106q-43 -246 -179 -354.5t-370 -108.5 q-279 0 -389 136zM311 362q0 -102 49 -149t162 -47q110 0 208.5 48t162.5 140l82 465q-31 65 -114 104.5t-173 39.5q-157 0 -232.5 -82.5t-105.5 -247.5l-26 -148q-13 -76 -13 -123z" />
<glyph unicode="h" horiz-adv-x="1335" d="M59 0l21 117l135 18l213 1202l-131 19l20 117h316l-96 -547q191 180 493 180q270 0 270 -209q0 -35 -6 -76l-120 -686l131 -18l-21 -117h-448l20 117l135 18l115 649q4 18 4 52q0 70 -43.5 96t-134.5 26q-261 0 -420 -172l-115 -651l131 -18l-20 -117h-449z" />
<glyph unicode="i" horiz-adv-x="561" d="M59 0l21 117l135 18l143 807l-131 19l21 116h315l-166 -942l131 -18l-20 -117h-449zM403 1208l46 265h182l-45 -265h-183z" />
<glyph unicode="j" horiz-adv-x="473" d="M-240 -395l39 116q42 -63 138 -63q192 0 243 289l176 995l-141 19l21 116h325l-199 -1130q-38 -215 -131 -327t-256 -112q-156 0 -215 97zM401 1208l45 265h183l-45 -265h-183z" />
<glyph unicode="k" horiz-adv-x="1136" d="M59 0l21 117l135 18l213 1202l-131 19l20 117h316l-162 -922l465 393l-117 17l21 116h405l-20 -116l-138 -17l-425 -360l331 -449l140 -18l-21 -117h-278l-369 512l-68 -377l109 -18l-21 -117h-426z" />
<glyph unicode="l" horiz-adv-x="561" d="M59 0l21 117l135 18l213 1202l-131 19l20 117h316l-236 -1338l131 -18l-20 -117h-449z" />
<glyph unicode="m" horiz-adv-x="1972" d="M59 0l21 117l133 18l143 807l-129 19l21 116h289l-21 -172q102 108 213 154.5t256 46.5q240 0 240 -193q107 104 216 148.5t249 44.5q249 0 249 -205q0 -22 -8 -80l-121 -686l132 -18l-21 -117h-438l20 117l129 18l115 649q6 30 6 56q0 67 -39.5 92.5t-120.5 25.5 q-110 0 -200.5 -35.5t-169.5 -121.5l-117 -666l125 -14l-21 -121h-432l21 117l129 18l114 649q5 25 5 56q0 67 -39.5 92.5t-120.5 25.5q-233 0 -381 -172l-115 -651l131 -18l-20 -117h-443z" />
<glyph unicode="n" horiz-adv-x="1335" d="M59 0l21 117l135 18l143 807l-131 19l21 116h293l-21 -172q110 108 231 154.5t279 46.5q270 0 270 -209q0 -35 -6 -76l-120 -686l131 -18l-21 -117h-448l20 117l135 18l115 649q6 30 6 54q0 69 -44 94.5t-136 25.5q-261 0 -420 -172l-115 -651l131 -18l-20 -117h-449z " />
<glyph unicode="o" horiz-adv-x="1064" d="M123 283q0 69 14 143l39 219q43 240 174.5 350.5t376.5 110.5q206 0 303.5 -78t97.5 -242q0 -52 -14 -141l-39 -219q-43 -242 -174 -352.5t-377 -110.5q-206 0 -303.5 77.5t-97.5 242.5zM303 305q0 -111 57.5 -156t188.5 -45q156 0 237.5 79t112.5 253l35 197 q14 93 14 135q0 111 -58 154t-188 43q-157 0 -238 -78.5t-112 -253.5l-35 -197q-14 -89 -14 -131z" />
<glyph unicode="p" horiz-adv-x="1200" d="M-33 -467l21 117l135 18l225 1274l-131 19l21 116h292l-18 -170q185 199 453 199q156 0 228.5 -72t72.5 -221q0 -62 -17 -166l-37 -209q-45 -253 -153 -363t-326 -110q-112 0 -209.5 39.5t-138.5 118.5l-80 -455l150 -18l-21 -117h-467zM408 252q34 -68 114.5 -107 t171.5 -39q152 0 230.5 82.5t107.5 247.5l33 187q14 74 14 137q0 106 -50 151t-161 45q-109 0 -206.5 -47.5t-161.5 -138.5z" />
<glyph unicode="q" horiz-adv-x="1112" d="M123 260q0 68 16 166l37 209q43 252 152.5 361.5t328.5 109.5q122 0 223.5 -45.5t151.5 -134.5l64 151h112l-247 -1409l129 -18l-21 -117h-469l21 117l157 18l86 488q-85 -95 -199 -144t-241 -49q-156 0 -228.5 73t-72.5 224zM309 307q0 -107 50 -152.5t161 -45.5 q109 0 207 48.5t162 139.5l92 516q-34 68 -114.5 106.5t-172.5 38.5q-154 0 -231.5 -81.5t-106.5 -247.5l-30 -170q-17 -100 -17 -152z" />
<glyph unicode="r" horiz-adv-x="856" d="M59 0l21 117l135 18l143 807l-131 19l21 116h289l-19 -174q182 203 459 203q45 0 63 -6l-53 -172q-33 8 -78 8q-233 0 -401 -176l-111 -625l142 -18l-21 -117h-459z" />
<glyph unicode="s" horiz-adv-x="1005" d="M86 74l49 278h148l-21 -190q95 -66 234 -66q163 0 251.5 54.5t88.5 183.5q0 43 -19 65.5t-65 36.5q-45 13 -179 31q-83 11 -133.5 20t-102.5 26.5t-79.5 40.5t-45 60t-17.5 88q0 110 37.5 189.5t107.5 125.5t159.5 67.5t202.5 21.5q278 0 373 -90l-49 -279h-139l18 199 q-37 26 -87 35.5t-132 9.5q-72 0 -127.5 -11t-102 -37t-71.5 -74.5t-25 -117.5q0 -70 62.5 -94t239.5 -46q36 -5 55 -7q161 -22 228 -69.5t67 -143.5q0 -418 -529 -418q-254 0 -397 111z" />
<glyph unicode="t" horiz-adv-x="718" d="M201 223q0 50 14 139l104 592h-114l20 123h115l43 238l180 31l-47 -269h350l-20 -123h-350l-105 -594q-12 -68 -12 -112q0 -80 38.5 -111t127.5 -31q93 0 164 68l-2 -113q-92 -98 -248 -98q-135 0 -196.5 66t-61.5 194z" />
<glyph unicode="u" horiz-adv-x="1220" d="M205 236q0 38 10 96l109 610l-111 19l20 116h422l-20 -116l-129 -19l-109 -608q-6 -38 -6 -68q0 -87 59.5 -121t192.5 -34q148 0 223.5 55.5t96.5 167.5l108 608l-127 19l21 116h399l-21 -116l-114 -19l-109 -610q-35 -195 -157 -282t-355 -87q-204 0 -303.5 65 t-99.5 208z" />
<glyph unicode="v" horiz-adv-x="1159" d="M199 961l20 116h432l-20 -116l-125 -15l110 -801l408 801l-113 15l21 116h385l-21 -116l-118 -15l-486 -946h-225l-154 946z" />
<glyph unicode="w" horiz-adv-x="1622" d="M201 958l20 119h422l-20 -116l-117 -15v-796l424 927h180l90 -927l285 796l-111 15l21 116h383l-21 -116l-121 -15l-348 -946h-229l-88 872l-400 -872h-227l-31 944z" />
<glyph unicode="x" horiz-adv-x="1150" d="M43 0l20 117l115 14l387 410l-231 405l-111 15l21 116h442l-20 -116l-125 -15l159 -319l281 319l-113 15l21 116h391l-20 -116l-119 -15l-367 -391l244 -424l110 -14l-20 -117h-442l20 117l123 14l-172 336l-297 -336l111 -14l-21 -117h-387z" />
<glyph unicode="y" horiz-adv-x="1153" d="M-45 -393l68 133q30 -35 66 -51.5t99 -16.5q68 0 118 41.5t120 163.5l53 92l-166 977l-116 15l20 116h428l-20 -116l-125 -15l114 -784l402 784l-111 15l21 116h385l-21 -116l-121 -15l-526 -987q-53 -98 -91 -161t-83.5 -122t-88.5 -91t-96 -51t-116 -19 q-73 0 -131 24.5t-82 67.5z" />
<glyph unicode="z" horiz-adv-x="1054" d="M63 0l23 137l811 819h-516l-64 -251h-129l66 372h901l-18 -104l-834 -846h553l78 297h131l-74 -424h-928z" />
<glyph unicode="{" horiz-adv-x="735" d="M207 584l22 125q95 0 141 49.5t68 173.5q6 37 17.5 154.5t17.5 154.5q17 93 39 150t66.5 102.5t116.5 64.5t182 19h65l-20 -121h-66q-109 0 -152 -42.5t-63 -151.5q-11 -65 -32 -211t-27 -183q-17 -91 -81 -150.5t-147 -70.5q69 -9 111.5 -56.5t42.5 -119.5q0 -13 -4 -45 q-9 -45 -34.5 -163t-40.5 -200.5t-15 -123.5q0 -61 33.5 -84t121.5 -23h66l-21 -119h-65q-168 0 -233.5 47t-65.5 152q0 46 14 135q9 52 46.5 211t37.5 203q0 68 -33 95.5t-108 27.5z" />
<glyph unicode="|" horiz-adv-x="516" d="M135 -274l332 1888h147l-331 -1888h-148z" />
<glyph unicode="}" horiz-adv-x="737" d="M16 -287l21 119h65q109 0 152 43.5t63 155.5q10 56 30 197t30 198q17 90 80 150t147 71q-70 9 -111.5 56t-41.5 120q0 13 4 45q10 55 34 167t40 196t16 123q0 60 -34 81t-122 21h-65l20 121h66q168 0 233.5 -48t65.5 -153q0 -39 -15 -135q-6 -35 -35.5 -152.5 t-35.5 -156.5q-11 -68 -11 -94q0 -70 33.5 -99.5t108.5 -29.5l-23 -125q-99 0 -142 -42.5t-67 -176.5q-7 -42 -18.5 -158.5t-18.5 -159.5q-17 -93 -39 -150t-66 -101.5t-116 -63.5t-182 -19h-66z" />
<glyph unicode="~" horiz-adv-x="1298" d="M207 526l26 156q141 137 299 137q67 0 135 -20.5t115 -45t105.5 -45t107.5 -20.5q92 0 172.5 36t161.5 120l-26 -152q-79 -75 -157.5 -107t-178.5 -32q-57 0 -119 21t-106.5 45.5t-104.5 45.5t-115 21q-87 0 -162 -39.5t-153 -120.5z" />
<glyph unicode="&#xa1;" horiz-adv-x="364" d="M78 0q34 251 84 463.5t147 548.5h103q-20 -354 -44 -563.5t-83 -448.5h-207zM287 1135l55 319h195l-56 -319h-194z" />
<glyph unicode="&#xa2;" horiz-adv-x="991" d="M168 496q0 58 12 125l41 235q33 196 144.5 305t322.5 135l29 158h147l-28 -162q181 -17 266 -127l-49 -272h-140l21 188q-68 82 -203 82q-141 0 -224 -83.5t-108 -223.5l-41 -235q-10 -58 -10 -95q0 -109 63.5 -162t196.5 -53q205 0 338 187l53 -109q-146 -201 -362 -223 l-29 -166h-147l26 162q-160 15 -239.5 100t-79.5 234z" />
<glyph unicode="&#xa3;" horiz-adv-x="1075" d="M37 6l26 154q37 -33 107 -33q72 0 127.5 31.5t86 82.5t45.5 107t15 113q0 55 -18 129h-242l21 108h186q-40 87 -61 155t-21 142q0 236 132 366t370 130q259 0 354 -135l-47 -273h-135l18 189q-67 82 -210 82q-164 0 -240 -82.5t-76 -261.5q0 -53 14 -112.5t27 -96 t41 -103.5h496l-21 -108h-444q18 -74 18 -127q0 -140 -80 -262q41 -42 117 -65t145 -23q168 0 269 151l-29 -168q-52 -67 -126 -100t-157 -33q-78 0 -165 32t-140 85q-108 -117 -262 -117q-98 0 -141 43z" />
<glyph unicode="&#xa4;" horiz-adv-x="1110" d="M131 348l164 133q-45 74 -45 178q0 182 133 328l-113 133l113 97l106 -138q130 86 271 86q139 0 237 -88l156 140l80 -97l-162 -133q49 -87 49 -184q0 -174 -137 -322l115 -133l-113 -98l-111 141q-127 -84 -266 -84q-140 0 -237 84l-160 -141zM373 680q0 -108 72.5 -179 t185.5 -71q139 0 251.5 106.5t112.5 249.5q0 110 -72.5 183t-185.5 73q-142 0 -253 -108.5t-111 -253.5z" />
<glyph unicode="&#xa5;" horiz-adv-x="1214" d="M217 225l21 113h327l41 237h-327l20 111h295l-186 633l-115 18l20 117h443l-21 -117l-125 -18l154 -567l360 567l-116 18l20 117h385l-20 -117l-125 -18l-414 -633h289l-21 -111h-319l-41 -237h319l-20 -113h-320l-39 -225h-196l39 225h-328z" />
<glyph unicode="&#xa6;" horiz-adv-x="786" d="M268 -274l144 815h147l-143 -815h-148zM469 870l131 744h148l-132 -744h-147z" />
<glyph unicode="&#xa7;" horiz-adv-x="1017" d="M76 -223l49 278h129l-18 -196q68 -47 229 -47q74 0 128 9t100.5 32.5t70.5 69.5t24 114q0 20 -4 35.5t-15.5 28.5t-22 22t-33.5 17.5t-39 13.5t-49.5 11.5t-55 10t-65 10.5t-70.5 11q-155 25 -224 75t-69 146q0 27 29 192q18 104 79.5 171.5t164.5 111.5 q-78 26 -116 70.5t-38 123.5q0 94 27.5 166t72.5 116.5t112 72.5t138 38.5t158 10.5q278 0 373 -90l-49 -279h-129l18 197q-68 47 -229 47q-73 0 -127.5 -9.5t-101 -33t-71 -69.5t-24.5 -113q0 -20 4 -36.5t15 -29t22 -22t33 -17.5t39.5 -13.5t49.5 -11t55 -9.5t65 -10 t71 -11q154 -27 224.5 -78t70.5 -143q0 -34 -30 -193q-18 -105 -79.5 -172.5t-164.5 -111.5q77 -26 115 -71t38 -124q0 -94 -27 -165.5t-72 -115.5t-111.5 -71.5t-137 -38t-157.5 -10.5q-280 0 -375 90zM317 469q0 -23 7.5 -41.5t18 -31.5t34 -24t43.5 -18t59.5 -14 t69 -11.5t84.5 -11.5q206 45 246 261q20 111 20 141q0 38 -22 64t-63.5 39t-81 19.5t-93.5 11.5q-8 0 -12 0.5t-10 1t-11 1.5q-52 -12 -93 -29.5t-78 -46.5t-61.5 -74.5t-35.5 -105.5q-21 -124 -21 -131z" />
<glyph unicode="&#xa8;" horiz-adv-x="790" d="M285 1208l45 265h182l-45 -265h-182zM750 1208l45 265h182l-45 -265h-182z" />
<glyph unicode="&#xaa;" horiz-adv-x="737" d="M217 725q0 29 4 45l8 51q24 160 201 160q102 0 199 -37l14 84q2 10 2 27q0 36 -25 49.5t-81 13.5q-112 0 -195 -49l-25 92q108 62 259 62q105 0 151.5 -29.5t46.5 -97.5q0 -26 -6 -56l-57 -321q0 -2 -1 -6t-1 -6q0 -31 30 -31q20 0 33 16l-8 -69q-27 -27 -80 -27 q-90 0 -90 82q0 14 2 22q-33 -47 -94 -76.5t-135 -29.5q-152 0 -152 131zM346 745q0 -32 18 -45.5t60 -13.5q96 0 172 76l20 115q-67 26 -153 26q-50 0 -76.5 -21t-32.5 -71l-4 -31q-4 -28 -4 -35z" />
<glyph unicode="&#xab;" horiz-adv-x="921" d="M168 618l25 142l399 323l-27 -149l-303 -248l215 -250l-24 -139zM629 618l24 142l400 323l-27 -149l-303 -248l215 -250l-25 -139z" />
<glyph unicode="&#xac;" horiz-adv-x="1277" d="M231 907l29 170h1135l-189 -1077h-168l160 907h-967z" />
<glyph unicode="&#xad;" horiz-adv-x="653" d="M168 600l27 145h526l-27 -145h-526z" />
<glyph unicode="&#xaf;" horiz-adv-x="825" d="M289 1233l20 125h682l-20 -125h-682z" />
<glyph unicode="&#xb0;" horiz-adv-x="776" d="M262 1051q0 66 13.5 126.5t43.5 115t74 94t109 63t145 23.5q134 0 199 -74t65 -197q0 -66 -14 -127t-44.5 -115.5t-75 -94.5t-109.5 -63.5t-144 -23.5q-134 0 -198 74.5t-64 198.5zM381 1071q0 -81 40 -130.5t124 -49.5q63 0 112 25t77.5 67.5t42.5 92.5t14 106 q0 81 -40 130.5t-124 49.5q-63 0 -112 -25t-77.5 -67.5t-42.5 -92.5t-14 -106z" />
<glyph unicode="&#xb1;" horiz-adv-x="1234" d="M121 31l22 135h1004l-23 -135h-1003zM236 686l22 135h432l78 434h137l-78 -434h435l-23 -135h-434l-78 -436h-137l78 436h-432z" />
<glyph unicode="&#xb2;" horiz-adv-x="600" d="M197 748l18 108q61 36 92 55.5t92 60t96 72.5t74 74t57.5 85.5t18.5 86.5q0 101 -123 101q-92 0 -190 -60l-17 101q111 61 252 61q199 0 199 -166q0 -71 -29 -135.5t-88.5 -124t-126 -108t-164.5 -109.5h244l29 102h78l-35 -204h-477z" />
<glyph unicode="&#xb3;" horiz-adv-x="573" d="M188 762l45 96q74 -31 156 -31q80 0 132 39.5t52 122.5q0 86 -108 86h-78l14 86h80q61 0 98 35t37 104q0 93 -127 93q-90 0 -167 -47l-15 92q96 55 217 55q205 0 205 -156q0 -76 -40.5 -134t-106.5 -77q98 -24 98 -135q0 -131 -83.5 -196.5t-215.5 -65.5q-115 0 -193 33z " />
<glyph unicode="&#xb4;" horiz-adv-x="536" d="M281 1188l278 381h182l-340 -381h-120z" />
<glyph unicode="&#xb5;" horiz-adv-x="1265" d="M-39 -467l21 117l135 18l225 1274l-113 19l21 116h424l-21 -116l-129 -19l-123 -690q34 -68 114.5 -107t172.5 -39q154 0 230 78t108 252l90 506l-125 19l21 116h399l-20 -116l-117 -19l-90 -504q-23 -132 -54 -216.5t-84 -144t-130.5 -85t-192.5 -25.5 q-112 0 -206.5 38.5t-137.5 117.5l-80 -455l150 -18l-21 -117h-467z" />
<glyph unicode="&#xb6;" horiz-adv-x="1050" d="M238 1096q0 93 32.5 172.5t103 132.5t165.5 53h727l-21 -115l-94 -14l-293 -1665h-137l293 1661h-314l-292 -1661h-140l213 1214h-45q-99 0 -148.5 61t-49.5 161z" />
<glyph unicode="&#xb7;" horiz-adv-x="352" d="M170 532l57 332h197l-57 -332h-197z" />
<glyph unicode="&#xb8;" horiz-adv-x="360" d="M12 -442q80 76 121 170h-78l37 206h162l-33 -184q-22 -119 -160 -242z" />
<glyph unicode="&#xb9;" horiz-adv-x="407" d="M231 748l13 73l71 13l84 481q-60 -45 -86 -58l-37 78q103 62 181 140h86l-113 -641l57 -13l-12 -73h-244z" />
<glyph unicode="&#xba;" horiz-adv-x="710" d="M231 774q5 55 9 74l22 121q25 133 97.5 193.5t211.5 60.5q115 0 169.5 -43.5t54.5 -135.5q0 -28 -7 -75l-22 -121q-23 -132 -96 -193t-209 -61q-118 0 -174 43.5t-56 136.5zM362 784q0 -53 26 -71.5t89 -18.5q74 0 111.5 38t52.5 124l18 105q9 65 9 71q0 52 -27 71 t-88 19q-74 0 -111.5 -37.5t-52.5 -123.5l-18 -105q-2 -10 -9 -72z" />
<glyph unicode="&#xbb;" horiz-adv-x="921" d="M111 297l24 147l303 250l-215 248l27 141l285 -323l-25 -142zM571 297l25 147l303 250l-215 248l27 141l284 -323l-24 -142z" />
<glyph unicode="&#xbc;" horiz-adv-x="1261" d="M86 -43l1151 1542h131l-1153 -1542h-129zM254 748l12 73l72 13l84 481q-60 -45 -86 -58l-37 78q101 61 180 140h86l-112 -641l57 -13l-12 -73h-244zM692 109l19 110q197 240 325 500l99 -35q-52 -111 -138 -243t-170 -240h238l47 270h109l-47 -270h57l-17 -92h-57 l-22 -129h-111l23 129h-355z" />
<glyph unicode="&#xbd;" horiz-adv-x="1271" d="M66 -43l1151 1542h131l-1153 -1542h-129zM254 748l12 73l72 13l84 481q-60 -45 -86 -58l-37 78q101 61 180 140h86l-112 -641l57 -13l-12 -73h-244zM725 -20l18 108q42 25 60 36t61.5 38t66 43.5t60.5 45t59.5 50t48.5 51t41 55t24 56t10 59.5q0 101 -123 101 q-93 0 -191 -60l-16 101q111 61 252 61q198 0 198 -166q0 -72 -29 -136t-88 -123.5t-125.5 -108.5t-164.5 -109h243l29 102h78l-35 -204h-477z" />
<glyph unicode="&#xbe;" horiz-adv-x="1271" d="M96 -43l1151 1542h131l-1153 -1542h-129zM199 762l45 96q74 -31 155 -31q80 0 132.5 39.5t52.5 122.5q0 86 -109 86h-78l15 86h80q61 0 98 35t37 104q0 93 -127 93q-91 0 -168 -47l-15 92q96 55 218 55q204 0 204 -156q0 -76 -40.5 -134t-106.5 -77q98 -24 98 -135 q0 -131 -83.5 -196.5t-215.5 -65.5q-114 0 -192 33zM702 109l19 110q199 244 326 500l98 -35q-53 -111 -138 -243.5t-169 -239.5h237l47 270h109l-47 -270h57l-16 -92h-58l-22 -129h-111l23 129h-355z" />
<glyph unicode="&#xbf;" horiz-adv-x="944" d="M123 246q0 24 8 86l14 86q18 110 74 174.5t166 109.5q118 47 158.5 81.5t52.5 103.5l18 108h164l-22 -131q-17 -101 -69 -150.5t-204 -111.5q-86 -34 -122.5 -74t-53.5 -127l-10 -57q-6 -38 -6 -70q0 -92 57 -133t168 -41q144 0 246 82l49 189h127l-47 -273 q-144 -135 -404 -135q-178 0 -271 72.5t-93 210.5zM625 1135l55 319h194l-55 -319h-194z" />
<glyph unicode="&#xc0;" d="M37 0l18 115l129 20l592 1319h273l108 -1319l121 -20l-18 -115h-465l18 115l137 20l-28 363h-424l-160 -363l121 -20l-19 -115h-403zM553 618h360l-53 687zM731 1946h174l152 -381h-115z" />
<glyph unicode="&#xc1;" d="M37 0l18 115l129 20l592 1319h273l108 -1319l121 -20l-18 -115h-465l18 115l137 20l-28 363h-424l-160 -363l121 -20l-19 -115h-403zM553 618h360l-53 687zM786 1565l279 381h182l-340 -381h-121z" />
<glyph unicode="&#xc2;" d="M37 0l18 115l129 20l592 1319h273l108 -1319l121 -20l-18 -115h-465l18 115l137 20l-28 363h-424l-160 -363l121 -20l-19 -115h-403zM528 1563l387 360h142l258 -360h-139l-203 276l-297 -276h-148zM553 618h360l-53 687z" />
<glyph unicode="&#xc3;" d="M37 0l18 115l129 20l592 1319h273l108 -1319l121 -20l-18 -115h-465l18 115l137 20l-28 363h-424l-160 -363l121 -20l-19 -115h-403zM553 618h360l-53 687zM575 1583l23 127q84 88 195 88q56 0 110 -25t105.5 -50t99.5 -25q103 0 205 102l-23 -127q-84 -88 -194 -88 q-46 0 -92 16t-77 34.5t-71 34.5t-76 16q-110 0 -205 -103z" />
<glyph unicode="&#xc4;" d="M37 0l18 115l129 20l592 1319h273l108 -1319l121 -20l-18 -115h-465l18 115l137 20l-28 363h-424l-160 -363l121 -20l-19 -115h-403zM553 618h360l-53 687zM602 1585l45 264h182l-45 -264h-182zM1067 1585l45 264h182l-45 -264h-182z" />
<glyph unicode="&#xc5;" d="M37 0l18 115l129 20l592 1319h273l108 -1319l121 -20l-18 -115h-465l18 115l137 20l-28 363h-424l-160 -363l121 -20l-19 -115h-403zM553 618h360l-53 687zM729 1679q0 125 71 196t195 71q189 0 189 -152q0 -118 -70 -193t-194 -75q-191 0 -191 153zM819 1700 q0 -96 115 -96q73 0 117.5 46.5t44.5 123.5q0 96 -115 96q-73 0 -117.5 -44.5t-44.5 -125.5z" />
<glyph unicode="&#xc6;" horiz-adv-x="1818" d="M37 0l20 117l127 18l572 1319h1226l-71 -403h-131l18 260h-498l-86 -490h406l47 150h113l-76 -432h-111v151h-401l-96 -540h503l89 299h129l-78 -449h-996l21 117l135 18l64 363h-420l-156 -363l127 -18l-20 -117h-457zM596 618h389l121 693h-213z" />
<glyph unicode="&#xc7;" horiz-adv-x="1134" d="M150 352q0 91 22 226l53 299q31 176 83 292.5t136.5 188.5t198 102.5t275.5 30.5q123 0 228.5 -34.5t156.5 -102.5l-54 -305h-139l20 206q-33 48 -101.5 70.5t-149.5 22.5q-204 0 -306.5 -110.5t-146.5 -360.5l-53 -302q-23 -135 -23 -208q0 -145 70.5 -204t236.5 -59 q184 0 291 99l51 203h140l-52 -295q-169 -148 -440 -148q-263 0 -380 88t-117 301zM440 -442q80 76 121 170h-78l37 206h162l-33 -184q-22 -119 -160 -242z" />
<glyph unicode="&#xc8;" horiz-adv-x="1159" d="M72 0l18 115l137 20l209 1184l-129 20l21 115h995l-72 -403h-127l17 260h-512l-86 -490h413l56 150h110l-75 -432h-113v151h-414l-96 -540h518l88 299h127l-78 -449h-1007zM684 1946h174l152 -381h-115z" />
<glyph unicode="&#xc9;" horiz-adv-x="1159" d="M72 0l18 115l137 20l209 1184l-129 20l21 115h995l-72 -403h-127l17 260h-512l-86 -490h413l56 150h110l-75 -432h-113v151h-414l-96 -540h518l88 299h127l-78 -449h-1007zM739 1565l279 381h182l-340 -381h-121z" />
<glyph unicode="&#xca;" horiz-adv-x="1159" d="M72 0l18 115l137 20l209 1184l-129 20l21 115h995l-72 -403h-127l17 260h-512l-86 -490h413l56 150h110l-75 -432h-113v151h-414l-96 -540h518l88 299h127l-78 -449h-1007zM461 1563l387 360h141l258 -360h-139l-203 276l-297 -276h-147z" />
<glyph unicode="&#xcb;" horiz-adv-x="1159" d="M72 0l18 115l137 20l209 1184l-129 20l21 115h995l-72 -403h-127l17 260h-512l-86 -490h413l56 150h110l-75 -432h-113v151h-414l-96 -540h518l88 299h127l-78 -449h-1007zM535 1585l45 264h182l-45 -264h-182zM999 1585l45 264h183l-45 -264h-183z" />
<glyph unicode="&#xcc;" horiz-adv-x="606" d="M72 0l18 115l137 20l209 1184l-129 20l21 115h463l-21 -115l-137 -20l-209 -1184l129 -20l-18 -115h-463zM387 1946h174l152 -381h-115z" />
<glyph unicode="&#xcd;" horiz-adv-x="606" d="M72 0l18 115l137 20l209 1184l-129 20l21 115h463l-21 -115l-137 -20l-209 -1184l129 -20l-18 -115h-463zM442 1565l279 381h182l-340 -381h-121z" />
<glyph unicode="&#xce;" horiz-adv-x="606" d="M72 0l18 115l137 20l209 1184l-129 20l21 115h463l-21 -115l-137 -20l-209 -1184l129 -20l-18 -115h-463zM186 1563l387 360h142l258 -360h-139l-203 276l-297 -276h-148z" />
<glyph unicode="&#xcf;" horiz-adv-x="606" d="M72 0l18 115l137 20l209 1184l-129 20l21 115h463l-21 -115l-137 -20l-209 -1184l129 -20l-18 -115h-463zM260 1585l45 264h182l-45 -264h-182zM725 1585l45 264h182l-45 -264h-182z" />
<glyph unicode="&#xd0;" horiz-adv-x="1259" d="M72 0l18 115l137 20l99 555h-133l22 131h133l88 498l-129 20l21 115h614q221 0 322.5 -83t101.5 -271q0 -74 -20 -197l-62 -352q-52 -298 -190.5 -424.5t-407.5 -126.5h-614zM424 139h285q304 0 374 406l58 325q22 129 22 207q0 133 -58 184.5t-187 51.5h-285l-88 -492 h289l-23 -131h-289z" />
<glyph unicode="&#xd1;" horiz-adv-x="1347" d="M72 0l20 117l135 18l209 1184l-129 18l21 117h362l379 -1122l174 987l-125 18l21 117h407l-20 -117l-131 -18l-232 -1319h-162l-440 1167l-182 -1032l141 -18l-20 -117h-428zM600 1583l23 127q84 88 194 88q45 0 89 -15.5t75 -34.5t72 -34.5t80 -15.5q102 0 204 102 l-22 -127q-84 -88 -195 -88q-58 0 -114 25.5t-106 50.5t-95 25q-110 0 -205 -103z" />
<glyph unicode="&#xd2;" horiz-adv-x="1236" d="M154 379q0 94 20 203l51 290q57 320 215.5 469.5t440.5 149.5q232 0 344 -102t112 -318q0 -88 -18 -199l-51 -290q-57 -319 -217.5 -469t-440.5 -150q-232 0 -344 101t-112 315zM350 377q0 -151 69 -209.5t218 -58.5q180 0 285 113.5t147 359.5l51 290q21 133 21 197 q0 153 -69.5 215t-217.5 62q-181 0 -284 -114t-146 -360l-51 -290q-23 -135 -23 -205zM702 1946h175l151 -381h-115z" />
<glyph unicode="&#xd3;" horiz-adv-x="1236" d="M154 379q0 94 20 203l51 290q57 320 215.5 469.5t440.5 149.5q232 0 344 -102t112 -318q0 -88 -18 -199l-51 -290q-57 -319 -217.5 -469t-440.5 -150q-232 0 -344 101t-112 315zM350 377q0 -151 69 -209.5t218 -58.5q180 0 285 113.5t147 359.5l51 290q21 133 21 197 q0 153 -69.5 215t-217.5 62q-181 0 -284 -114t-146 -360l-51 -290q-23 -135 -23 -205zM758 1565l278 381h183l-340 -381h-121z" />
<glyph unicode="&#xd4;" horiz-adv-x="1236" d="M154 379q0 94 20 203l51 290q57 320 215.5 469.5t440.5 149.5q232 0 344 -102t112 -318q0 -88 -18 -199l-51 -290q-57 -319 -217.5 -469t-440.5 -150q-232 0 -344 101t-112 315zM350 377q0 -151 69 -209.5t218 -58.5q180 0 285 113.5t147 359.5l51 290q21 133 21 197 q0 153 -69.5 215t-217.5 62q-181 0 -284 -114t-146 -360l-51 -290q-23 -135 -23 -205zM500 1563l387 360h141l258 -360h-139l-203 276l-297 -276h-147z" />
<glyph unicode="&#xd5;" horiz-adv-x="1236" d="M154 379q0 94 20 203l51 290q57 320 215.5 469.5t440.5 149.5q232 0 344 -102t112 -318q0 -88 -18 -199l-51 -290q-57 -319 -217.5 -469t-440.5 -150q-232 0 -344 101t-112 315zM350 377q0 -151 69 -209.5t218 -58.5q180 0 285 113.5t147 359.5l51 290q21 133 21 197 q0 153 -69.5 215t-217.5 62q-181 0 -284 -114t-146 -360l-51 -290q-23 -135 -23 -205zM545 1583l22 127q84 88 195 88q56 0 110 -25t105.5 -50t99.5 -25q103 0 205 102l-22 -127q-84 -88 -195 -88q-58 0 -114 25.5t-106 50.5t-95 25q-110 0 -205 -103z" />
<glyph unicode="&#xd6;" horiz-adv-x="1236" d="M154 379q0 94 20 203l51 290q57 320 215.5 469.5t440.5 149.5q232 0 344 -102t112 -318q0 -88 -18 -199l-51 -290q-57 -319 -217.5 -469t-440.5 -150q-232 0 -344 101t-112 315zM350 377q0 -151 69 -209.5t218 -58.5q180 0 285 113.5t147 359.5l51 290q21 133 21 197 q0 153 -69.5 215t-217.5 62q-181 0 -284 -114t-146 -360l-51 -290q-23 -135 -23 -205zM573 1585l45 264h183l-45 -264h-183zM1038 1585l45 264h183l-45 -264h-183z" />
<glyph unicode="&#xd7;" horiz-adv-x="1273" d="M307 444l361 310l-250 305l112 96l254 -305l359 305l80 -96l-361 -305l254 -310l-115 -96l-251 307l-365 -307z" />
<glyph unicode="&#xd8;" horiz-adv-x="1236" d="M43 -154l184 260q-73 101 -73 271q0 96 20 205l51 290q57 320 215.5 469.5t440.5 149.5q178 0 282 -59l125 176h160l-186 -260q75 -103 75 -281q0 -87 -18 -195l-51 -290q-57 -319 -217.5 -469t-440.5 -150q-175 0 -286 60l-125 -177h-156zM350 373q0 -45 6 -82l707 999 q-67 56 -209 56q-181 0 -284 -114t-146 -360l-51 -290q-23 -135 -23 -209zM422 164q66 -55 215 -55q180 0 285 113.5t147 359.5l51 290q19 120 19 193q0 53 -9 96z" />
<glyph unicode="&#xd9;" horiz-adv-x="1398" d="M238 295q0 90 20 199l145 825l-112 18l20 117h447l-21 -117l-133 -18l-149 -846q-15 -83 -15 -141q0 -124 66.5 -167.5t222.5 -43.5q100 0 169.5 21t115.5 66.5t72.5 108.5t43.5 156l150 846l-123 18l21 117h421l-20 -117l-123 -18l-145 -825q-18 -101 -39 -173.5 t-54 -135t-77.5 -102t-109 -68t-149 -40.5t-196.5 -12q-244 0 -346 76.5t-102 255.5zM782 1946h174l152 -381h-115z" />
<glyph unicode="&#xda;" horiz-adv-x="1398" d="M238 295q0 90 20 199l145 825l-112 18l20 117h447l-21 -117l-133 -18l-149 -846q-15 -83 -15 -141q0 -124 66.5 -167.5t222.5 -43.5q100 0 169.5 21t115.5 66.5t72.5 108.5t43.5 156l150 846l-123 18l21 117h421l-20 -117l-123 -18l-145 -825q-18 -101 -39 -173.5 t-54 -135t-77.5 -102t-109 -68t-149 -40.5t-196.5 -12q-244 0 -346 76.5t-102 255.5zM838 1565l278 381h182l-340 -381h-120z" />
<glyph unicode="&#xdb;" horiz-adv-x="1398" d="M238 295q0 90 20 199l145 825l-112 18l20 117h447l-21 -117l-133 -18l-149 -846q-15 -83 -15 -141q0 -124 66.5 -167.5t222.5 -43.5q100 0 169.5 21t115.5 66.5t72.5 108.5t43.5 156l150 846l-123 18l21 117h421l-20 -117l-123 -18l-145 -825q-18 -101 -39 -173.5 t-54 -135t-77.5 -102t-109 -68t-149 -40.5t-196.5 -12q-244 0 -346 76.5t-102 255.5zM580 1563l387 360h141l258 -360h-139l-203 276l-297 -276h-147z" />
<glyph unicode="&#xdc;" horiz-adv-x="1398" d="M238 295q0 90 20 199l145 825l-112 18l20 117h447l-21 -117l-133 -18l-149 -846q-15 -83 -15 -141q0 -124 66.5 -167.5t222.5 -43.5q100 0 169.5 21t115.5 66.5t72.5 108.5t43.5 156l150 846l-123 18l21 117h421l-20 -117l-123 -18l-145 -825q-18 -101 -39 -173.5 t-54 -135t-77.5 -102t-109 -68t-149 -40.5t-196.5 -12q-244 0 -346 76.5t-102 255.5zM653 1585l45 264h183l-45 -264h-183zM1118 1585l45 264h183l-46 -264h-182z" />
<glyph unicode="&#xdd;" horiz-adv-x="1193" d="M272 1337l21 117h442l-20 -117l-129 -18l162 -580l372 580l-112 18l20 117h385l-20 -117l-125 -18l-471 -723l-82 -461l147 -18l-20 -117h-496l21 117l151 18l82 461l-213 723zM756 1565l278 381h183l-340 -381h-121z" />
<glyph unicode="&#xde;" horiz-adv-x="1175" d="M72 0l18 115l137 20l209 1184l-129 20l21 115h467l-21 -115l-143 -20l-27 -154h326q175 0 254.5 -66t79.5 -216q0 -58 -17 -158q-41 -238 -150 -339t-323 -101h-325l-27 -150l135 -20l-18 -115h-467zM471 408h295q125 0 194 78t97 239q14 77 14 141q0 100 -45.5 138 t-148.5 38h-295z" />
<glyph unicode="&#xdf;" horiz-adv-x="1429" d="M45 0l21 117l135 18l188 1063q13 76 39.5 129t60.5 85t86.5 49.5t106.5 23.5t131 6q67 0 114 -4.5t91 -17t70 -35t41.5 -59.5t15.5 -89q0 -44 -8 -88l-56 -307q-4 -24 -4 -33q0 -62 41.5 -98t124.5 -66q52 -20 84.5 -37t61 -42.5t41 -60.5t12.5 -83q0 -43 -8 -84 l-23 -123q-56 -301 -426 -301q-222 0 -338 113l45 256h142l-17 -178q76 -60 201 -60q97 0 162 48t82 147l10 49q10 58 10 82q0 29 -10 48t-35 46q-15 16 -49 33.5t-70.5 32.5t-77.5 38t-73 49.5t-53 68.5t-21 93q0 26 6 56l55 313q7 44 7 64q0 61 -37.5 80.5t-132.5 19.5 q-101 0 -153.5 -34t-70.5 -132l-186 -1061l117 -18l-21 -117h-432z" />
<glyph unicode="&#xe0;" horiz-adv-x="1114" d="M94 176q0 67 25 201q27 146 115 217.5t249 71.5q226 0 394 -80l30 172q6 35 6 61q0 81 -52.5 111.5t-172.5 30.5q-212 0 -375 -101l-32 133q184 113 460 113q184 0 268.5 -55t84.5 -179q0 -32 -11 -96l-108 -618q-2 -10 -2 -27q0 -51 53 -51q43 0 74 39l-10 -99 q-43 -53 -132 -53q-149 0 -149 135q0 36 8 72q-65 -94 -180 -152.5t-264 -58.5q-143 0 -211 58.5t-68 154.5zM272 203q0 -109 179 -109q211 0 370 174l37 219q-132 70 -330 70q-109 0 -163 -48.5t-72 -146.5q-21 -107 -21 -159zM575 1569h175l151 -381h-115z" />
<glyph unicode="&#xe1;" horiz-adv-x="1114" d="M94 176q0 67 25 201q27 146 115 217.5t249 71.5q226 0 394 -80l30 172q6 35 6 61q0 81 -52.5 111.5t-172.5 30.5q-212 0 -375 -101l-32 133q184 113 460 113q184 0 268.5 -55t84.5 -179q0 -32 -11 -96l-108 -618q-2 -10 -2 -27q0 -51 53 -51q43 0 74 39l-10 -99 q-43 -53 -132 -53q-149 0 -149 135q0 36 8 72q-65 -94 -180 -152.5t-264 -58.5q-143 0 -211 58.5t-68 154.5zM272 203q0 -109 179 -109q211 0 370 174l37 219q-132 70 -330 70q-109 0 -163 -48.5t-72 -146.5q-21 -107 -21 -159zM631 1188l278 381h183l-340 -381h-121z" />
<glyph unicode="&#xe2;" horiz-adv-x="1114" d="M94 176q0 67 25 201q27 146 115 217.5t249 71.5q226 0 394 -80l30 172q6 35 6 61q0 81 -52.5 111.5t-172.5 30.5q-212 0 -375 -101l-32 133q184 113 460 113q184 0 268.5 -55t84.5 -179q0 -32 -11 -96l-108 -618q-2 -10 -2 -27q0 -51 53 -51q43 0 74 39l-10 -99 q-43 -53 -132 -53q-149 0 -149 135q0 36 8 72q-65 -94 -180 -152.5t-264 -58.5q-143 0 -211 58.5t-68 154.5zM272 203q0 -109 179 -109q211 0 370 174l37 219q-132 70 -330 70q-109 0 -163 -48.5t-72 -146.5q-21 -107 -21 -159zM373 1186l387 360h141l258 -360h-139 l-203 276l-297 -276h-147z" />
<glyph unicode="&#xe3;" horiz-adv-x="1114" d="M94 176q0 67 25 201q27 146 115 217.5t249 71.5q226 0 394 -80l30 172q6 35 6 61q0 81 -52.5 111.5t-172.5 30.5q-212 0 -375 -101l-32 133q184 113 460 113q184 0 268.5 -55t84.5 -179q0 -32 -11 -96l-108 -618q-2 -10 -2 -27q0 -51 53 -51q43 0 74 39l-10 -99 q-43 -53 -132 -53q-149 0 -149 135q0 36 8 72q-65 -94 -180 -152.5t-264 -58.5q-143 0 -211 58.5t-68 154.5zM272 203q0 -109 179 -109q211 0 370 174l37 219q-132 70 -330 70q-109 0 -163 -48.5t-72 -146.5q-21 -107 -21 -159zM418 1206l22 127q84 88 195 88q56 0 110 -25 t105.5 -50t99.5 -25q103 0 205 102l-22 -127q-84 -88 -195 -88q-46 0 -91.5 16t-76.5 34.5t-71 34.5t-76 16q-110 0 -205 -103z" />
<glyph unicode="&#xe4;" horiz-adv-x="1114" d="M94 176q0 67 25 201q27 146 115 217.5t249 71.5q226 0 394 -80l30 172q6 35 6 61q0 81 -52.5 111.5t-172.5 30.5q-212 0 -375 -101l-32 133q184 113 460 113q184 0 268.5 -55t84.5 -179q0 -32 -11 -96l-108 -618q-2 -10 -2 -27q0 -51 53 -51q43 0 74 39l-10 -99 q-43 -53 -132 -53q-149 0 -149 135q0 36 8 72q-65 -94 -180 -152.5t-264 -58.5q-143 0 -211 58.5t-68 154.5zM272 203q0 -109 179 -109q211 0 370 174l37 219q-132 70 -330 70q-109 0 -163 -48.5t-72 -146.5q-21 -107 -21 -159zM446 1208l46 265h182l-45 -265h-183z M911 1208l45 265h183l-45 -265h-183z" />
<glyph unicode="&#xe5;" horiz-adv-x="1114" d="M94 176q0 67 25 201q27 146 115 217.5t249 71.5q226 0 394 -80l30 172q6 35 6 61q0 81 -52.5 111.5t-172.5 30.5q-212 0 -375 -101l-32 133q184 113 460 113q184 0 268.5 -55t84.5 -179q0 -32 -11 -96l-108 -618q-2 -10 -2 -27q0 -51 53 -51q43 0 74 39l-10 -99 q-43 -53 -132 -53q-149 0 -149 135q0 36 8 72q-65 -94 -180 -152.5t-264 -58.5q-143 0 -211 58.5t-68 154.5zM272 203q0 -109 179 -109q211 0 370 174l37 219q-132 70 -330 70q-109 0 -163 -48.5t-72 -146.5q-21 -107 -21 -159zM567 1303q0 125 71.5 195.5t195.5 70.5 q188 0 188 -152q0 -118 -70 -193t-194 -75q-191 0 -191 154zM657 1323q0 -96 115 -96q73 0 117.5 46.5t44.5 123.5q0 96 -115 96q-73 0 -117.5 -44.5t-44.5 -125.5z" />
<glyph unicode="&#xe6;" horiz-adv-x="1738" d="M94 201q0 43 8 84l17 92q27 146 115 217.5t249 71.5q222 0 394 -80l30 172q4 20 4 55q0 83 -54 115.5t-169 32.5q-215 0 -375 -99l-32 131q181 111 450 111q164 0 236.5 -42.5t72.5 -156.5q95 199 387 199q203 0 287 -73.5t84 -229.5q0 -88 -22 -207l-21 -107h-721 q-12 -67 -12 -127q0 -125 64 -188t208 -63q227 0 336 135l56 -99q-131 -180 -431 -180q-172 0 -264 64t-121 188q-75 -123 -215.5 -188.5t-281.5 -65.5q-279 0 -279 238zM272 225q0 -71 41.5 -101t137.5 -30q117 0 219.5 58t154.5 143l33 192q-132 70 -330 70 q-197 0 -235 -195l-12 -63q-3 -15 -9 -74zM1057 604h555l8 55q2 15 6.5 44t6.5 48.5t1 36.5q0 100 -53.5 145.5t-177.5 45.5q-146 0 -229.5 -84t-106.5 -227z" />
<glyph unicode="&#xe7;" horiz-adv-x="995" d="M127 309q0 66 10 117l41 236q35 205 171.5 324.5t367.5 119.5q264 0 368 -135l-47 -273h-141l18 189q-65 82 -215 82q-142 0 -231 -86.5t-113 -225.5l-41 -231q-10 -58 -10 -94q0 -114 68 -164.5t207 -50.5q101 0 192 46.5t158 139.5l51 -108q-83 -115 -198.5 -173.5 t-245.5 -58.5q-204 0 -307 89t-103 257zM350 -442q80 76 121 170h-78l37 206h162l-33 -184q-22 -119 -160 -242z" />
<glyph unicode="&#xe8;" horiz-adv-x="1032" d="M133 328q0 58 12 123l29 159q45 257 171 376.5t372 119.5q204 0 288.5 -74.5t84.5 -232.5q0 -91 -21 -205l-20 -107h-723l-7 -36q-10 -62 -10 -101q0 -241 279 -241q116 0 193 34.5t153 112.5l45 -111q-135 -182 -442 -182q-205 0 -304.5 97.5t-99.5 267.5zM348 604h557 q19 111 19 178q0 102 -51 149.5t-177 47.5q-68 0 -121.5 -18t-90.5 -49t-64 -79.5t-43.5 -102.5t-28.5 -126zM535 1569h174l151 -381h-115z" />
<glyph unicode="&#xe9;" horiz-adv-x="1032" d="M133 328q0 58 12 123l29 159q45 257 171 376.5t372 119.5q204 0 288.5 -74.5t84.5 -232.5q0 -91 -21 -205l-20 -107h-723l-7 -36q-10 -62 -10 -101q0 -241 279 -241q116 0 193 34.5t153 112.5l45 -111q-135 -182 -442 -182q-205 0 -304.5 97.5t-99.5 267.5zM348 604h557 q19 111 19 178q0 102 -51 149.5t-177 47.5q-68 0 -121.5 -18t-90.5 -49t-64 -79.5t-43.5 -102.5t-28.5 -126zM590 1188l278 381h183l-340 -381h-121z" />
<glyph unicode="&#xea;" horiz-adv-x="1032" d="M133 328q0 58 12 123l29 159q45 257 171 376.5t372 119.5q204 0 288.5 -74.5t84.5 -232.5q0 -91 -21 -205l-20 -107h-723l-7 -36q-10 -62 -10 -101q0 -241 279 -241q116 0 193 34.5t153 112.5l45 -111q-135 -182 -442 -182q-205 0 -304.5 97.5t-99.5 267.5zM332 1186 l387 360h141l258 -360h-139l-203 276l-297 -276h-147zM348 604h557q19 111 19 178q0 102 -51 149.5t-177 47.5q-68 0 -121.5 -18t-90.5 -49t-64 -79.5t-43.5 -102.5t-28.5 -126z" />
<glyph unicode="&#xeb;" horiz-adv-x="1032" d="M133 328q0 58 12 123l29 159q45 257 171 376.5t372 119.5q204 0 288.5 -74.5t84.5 -232.5q0 -91 -21 -205l-20 -107h-723l-7 -36q-10 -62 -10 -101q0 -241 279 -241q116 0 193 34.5t153 112.5l45 -111q-135 -182 -442 -182q-205 0 -304.5 97.5t-99.5 267.5zM348 604h557 q19 111 19 178q0 102 -51 149.5t-177 47.5q-68 0 -121.5 -18t-90.5 -49t-64 -79.5t-43.5 -102.5t-28.5 -126zM406 1208l45 265h182l-45 -265h-182zM870 1208l45 265h183l-45 -265h-183z" />
<glyph unicode="&#xec;" horiz-adv-x="561" d="M59 0l21 117l135 18l143 807l-131 19l21 116h315l-166 -942l131 -18l-20 -117h-449zM299 1569h174l152 -381h-115z" />
<glyph unicode="&#xed;" horiz-adv-x="561" d="M59 0l21 117l135 18l143 807l-131 19l21 116h315l-166 -942l131 -18l-20 -117h-449zM354 1188l279 381h182l-340 -381h-121z" />
<glyph unicode="&#xee;" horiz-adv-x="718" d="M135 0l21 117l135 18l143 807l-131 19l21 116h315l-166 -942l131 -18l-20 -117h-449zM172 1186l387 360h141l258 -360h-139l-203 276l-297 -276h-147z" />
<glyph unicode="&#xef;" horiz-adv-x="591" d="M72 0l20 117l135 18l144 807l-131 19l20 116h315l-165 -942l131 -18l-21 -117h-448zM182 1208l45 265h183l-45 -265h-183zM647 1208l45 265h182l-45 -265h-182z" />
<glyph unicode="&#xf0;" horiz-adv-x="1079" d="M119 268q0 53 12 121l37 205q16 91 46 155t70 103.5t100.5 62t125 30t156.5 7.5q228 0 286 -164q4 70 4 103q0 179 -47 334l-315 -135l-31 108l305 131q-38 87 -92 150l135 45q57 -67 99 -133l190 82l31 -109l-168 -74q78 -186 78 -426q0 -127 -29 -309l-29 -166 q-39 -228 -170.5 -327t-380.5 -99q-211 0 -312 72t-101 233zM305 299q0 -108 59.5 -152.5t192.5 -44.5q149 0 235.5 72.5t110.5 204.5l37 207q-8 122 -67.5 181.5t-194.5 59.5q-146 0 -226.5 -55.5t-103.5 -183.5l-31 -174q-12 -64 -12 -115z" />
<glyph unicode="&#xf1;" horiz-adv-x="1335" d="M59 0l21 117l135 18l143 807l-131 19l21 116h293l-21 -172q110 108 231 154.5t279 46.5q270 0 270 -209q0 -35 -6 -76l-120 -686l131 -18l-21 -117h-448l20 117l135 18l115 649q6 30 6 54q0 69 -44 94.5t-136 25.5q-261 0 -420 -172l-115 -651l131 -18l-20 -117h-449z M528 1206l23 127q84 88 194 88q45 0 89 -15.5t75 -34.5t72 -34.5t80 -15.5q103 0 205 102l-23 -127q-84 -88 -194 -88q-46 0 -92 16t-77 34.5t-71 34.5t-76 16q-110 0 -205 -103z" />
<glyph unicode="&#xf2;" horiz-adv-x="1064" d="M123 283q0 69 14 143l39 219q43 240 174.5 350.5t376.5 110.5q206 0 303.5 -78t97.5 -242q0 -52 -14 -141l-39 -219q-43 -242 -174 -352.5t-377 -110.5q-206 0 -303.5 77.5t-97.5 242.5zM303 305q0 -111 57.5 -156t188.5 -45q156 0 237.5 79t112.5 253l35 197 q14 93 14 135q0 111 -58 154t-188 43q-157 0 -238 -78.5t-112 -253.5l-35 -197q-14 -89 -14 -131zM551 1569h174l152 -381h-115z" />
<glyph unicode="&#xf3;" horiz-adv-x="1064" d="M123 283q0 69 14 143l39 219q43 240 174.5 350.5t376.5 110.5q206 0 303.5 -78t97.5 -242q0 -52 -14 -141l-39 -219q-43 -242 -174 -352.5t-377 -110.5q-206 0 -303.5 77.5t-97.5 242.5zM303 305q0 -111 57.5 -156t188.5 -45q156 0 237.5 79t112.5 253l35 197 q14 93 14 135q0 111 -58 154t-188 43q-157 0 -238 -78.5t-112 -253.5l-35 -197q-14 -89 -14 -131zM606 1188l279 381h182l-340 -381h-121z" />
<glyph unicode="&#xf4;" horiz-adv-x="1064" d="M123 283q0 69 14 143l39 219q43 240 174.5 350.5t376.5 110.5q206 0 303.5 -78t97.5 -242q0 -52 -14 -141l-39 -219q-43 -242 -174 -352.5t-377 -110.5q-206 0 -303.5 77.5t-97.5 242.5zM303 305q0 -111 57.5 -156t188.5 -45q156 0 237.5 79t112.5 253l35 197 q14 93 14 135q0 111 -58 154t-188 43q-157 0 -238 -78.5t-112 -253.5l-35 -197q-14 -89 -14 -131zM348 1186l387 360h142l258 -360h-140l-202 276l-297 -276h-148z" />
<glyph unicode="&#xf5;" horiz-adv-x="1064" d="M123 283q0 69 14 143l39 219q43 240 174.5 350.5t376.5 110.5q206 0 303.5 -78t97.5 -242q0 -52 -14 -141l-39 -219q-43 -242 -174 -352.5t-377 -110.5q-206 0 -303.5 77.5t-97.5 242.5zM303 305q0 -111 57.5 -156t188.5 -45q156 0 237.5 79t112.5 253l35 197 q14 93 14 135q0 111 -58 154t-188 43q-157 0 -238 -78.5t-112 -253.5l-35 -197q-14 -89 -14 -131zM393 1206l23 127q84 88 194 88q44 0 88.5 -15.5t75.5 -34.5t72 -34.5t80 -15.5q102 0 204 102l-22 -127q-84 -88 -195 -88q-46 0 -91.5 16t-76.5 34.5t-71 34.5t-76 16 q-110 0 -205 -103z" />
<glyph unicode="&#xf6;" horiz-adv-x="1064" d="M123 283q0 69 14 143l39 219q43 240 174.5 350.5t376.5 110.5q206 0 303.5 -78t97.5 -242q0 -52 -14 -141l-39 -219q-43 -242 -174 -352.5t-377 -110.5q-206 0 -303.5 77.5t-97.5 242.5zM303 305q0 -111 57.5 -156t188.5 -45q156 0 237.5 79t112.5 253l35 197 q14 93 14 135q0 111 -58 154t-188 43q-157 0 -238 -78.5t-112 -253.5l-35 -197q-14 -89 -14 -131zM422 1208l45 265h182l-45 -265h-182zM887 1208l45 265h182l-45 -265h-182z" />
<glyph unicode="&#xf7;" horiz-adv-x="1234" d="M236 686l22 135h1004l-23 -135h-1003zM551 190l57 332h197l-57 -332h-197zM690 985l58 332h196l-57 -332h-197z" />
<glyph unicode="&#xf8;" horiz-adv-x="1064" d="M35 -154l160 217q-72 75 -72 220q0 69 14 143l39 219q43 240 174.5 350.5t376.5 110.5q126 0 217 -31l115 156h158l-164 -223q75 -78 75 -226q0 -51 -14 -137l-39 -219q-43 -242 -174 -352.5t-377 -110.5q-138 0 -223 33l-111 -150h-155zM303 303q0 -42 10 -80l535 721 q-59 21 -146 21q-157 0 -238 -78.5t-112 -253.5l-35 -197q-14 -71 -14 -133zM397 127q56 -23 152 -23q156 0 237.5 79t112.5 253l35 197q12 77 12 135q0 55 -10 84z" />
<glyph unicode="&#xf9;" horiz-adv-x="1220" d="M205 236q0 38 10 96l109 610l-111 19l20 116h422l-20 -116l-129 -19l-109 -608q-6 -38 -6 -68q0 -87 59.5 -121t192.5 -34q148 0 223.5 55.5t96.5 167.5l108 608l-127 19l21 116h399l-21 -116l-114 -19l-109 -610q-35 -195 -157 -282t-355 -87q-204 0 -303.5 65 t-99.5 208zM629 1569h174l151 -381h-114z" />
<glyph unicode="&#xfa;" horiz-adv-x="1220" d="M205 236q0 38 10 96l109 610l-111 19l20 116h422l-20 -116l-129 -19l-109 -608q-6 -38 -6 -68q0 -87 59.5 -121t192.5 -34q148 0 223.5 55.5t96.5 167.5l108 608l-127 19l21 116h399l-21 -116l-114 -19l-109 -610q-35 -195 -157 -282t-355 -87q-204 0 -303.5 65 t-99.5 208zM684 1188l279 381h182l-340 -381h-121z" />
<glyph unicode="&#xfb;" horiz-adv-x="1220" d="M205 236q0 38 10 96l109 610l-111 19l20 116h422l-20 -116l-129 -19l-109 -608q-6 -38 -6 -68q0 -87 59.5 -121t192.5 -34q148 0 223.5 55.5t96.5 167.5l108 608l-127 19l21 116h399l-21 -116l-114 -19l-109 -610q-35 -195 -157 -282t-355 -87q-204 0 -303.5 65 t-99.5 208zM426 1186l387 360h141l258 -360h-139l-203 276l-297 -276h-147z" />
<glyph unicode="&#xfc;" horiz-adv-x="1220" d="M205 236q0 38 10 96l109 610l-111 19l20 116h422l-20 -116l-129 -19l-109 -608q-6 -38 -6 -68q0 -87 59.5 -121t192.5 -34q148 0 223.5 55.5t96.5 167.5l108 608l-127 19l21 116h399l-21 -116l-114 -19l-109 -610q-35 -195 -157 -282t-355 -87q-204 0 -303.5 65 t-99.5 208zM500 1208l45 265h182l-45 -265h-182zM965 1208l45 265h182l-45 -265h-182z" />
<glyph unicode="&#xfd;" horiz-adv-x="1153" d="M-45 -393l68 133q30 -35 66 -51.5t99 -16.5q68 0 118 41.5t120 163.5l53 92l-166 977l-116 15l20 116h428l-20 -116l-125 -15l114 -784l402 784l-111 15l21 116h385l-21 -116l-121 -15l-526 -987q-53 -98 -91 -161t-83.5 -122t-88.5 -91t-96 -51t-116 -19 q-73 0 -131 24.5t-82 67.5zM670 1188l278 381h182l-339 -381h-121z" />
<glyph unicode="&#xfe;" horiz-adv-x="1157" d="M-80 -467l21 115l135 20l295 1669l-131 21l20 115h315l-98 -558q84 95 198.5 143t242.5 48q156 0 228.5 -72.5t72.5 -222.5q0 -62 -17 -166l-37 -207q-45 -254 -152.5 -363.5t-326.5 -109.5q-112 0 -209.5 39.5t-138.5 118.5l-80 -455l150 -20l-21 -115h-467zM360 252 q34 -68 114.5 -107t172.5 -39q152 0 230.5 83t107.5 247l31 172q16 98 16 158q0 109 -50 152t-161 43q-110 0 -206.5 -48.5t-161.5 -140.5z" />
<glyph unicode="&#xff;" horiz-adv-x="1153" d="M-45 -393l68 133q30 -35 66 -51.5t99 -16.5q68 0 118 41.5t120 163.5l53 92l-166 977l-116 15l20 116h428l-20 -116l-125 -15l114 -784l402 784l-111 15l21 116h385l-21 -116l-121 -15l-526 -987q-53 -98 -91 -161t-83.5 -122t-88.5 -91t-96 -51t-116 -19 q-73 0 -131 24.5t-82 67.5zM485 1208l45 265h183l-45 -265h-183zM950 1208l45 265h183l-45 -265h-183z" />
<glyph unicode="&#x152;" horiz-adv-x="1806" d="M150 356q0 84 18 195l61 352q52 297 191.5 424t408.5 127h1141l-72 -403h-129l19 260h-492l-86 -490h394l53 150h112l-75 -432h-113v151h-393l-96 -540h497l86 299h129l-78 -449h-1153q-222 0 -322.5 83t-100.5 273zM348 383q0 -135 61.5 -189.5t186.5 -54.5h299 l209 1174h-299q-159 0 -248 -95t-127 -309l-65 -364q-17 -89 -17 -162z" />
<glyph unicode="&#x153;" horiz-adv-x="1792" d="M123 283q0 69 14 143l39 219q42 234 169.5 345.5t361.5 111.5q160 0 250 -50.5t116 -154.5q58 106 155.5 157.5t248.5 51.5q206 0 290 -74.5t84 -232.5q0 -86 -22 -205l-21 -107h-721q-12 -67 -12 -125q0 -126 65 -189.5t208 -63.5q71 0 114.5 4.5t88 19t78 44.5t65.5 79 l45 -111q-132 -182 -441 -182q-290 0 -344 219q-58 -113 -163 -166t-267 -53q-206 0 -303.5 77.5t-97.5 242.5zM303 299q0 -112 57.5 -153.5t188.5 -41.5q156 0 237.5 79.5t112.5 252.5l35 197q12 73 12 129q0 111 -57 157t-187 46q-155 0 -237.5 -81t-112.5 -251l-35 -197 q-14 -74 -14 -137zM1110 604h555l8 55q14 109 13 127q0 99 -53 146t-177 47q-146 0 -229.5 -84t-106.5 -227z" />
<glyph unicode="&#x178;" horiz-adv-x="1193" d="M272 1337l21 117h442l-20 -117l-129 -18l162 -580l372 580l-112 18l20 117h385l-20 -117l-125 -18l-471 -723l-82 -461l147 -18l-20 -117h-496l21 117l151 18l82 461l-213 723zM571 1585l45 264h183l-45 -264h-183zM1036 1585l45 264h183l-45 -264h-183z" />
<glyph unicode="&#x2c6;" horiz-adv-x="929" d="M281 1186l387 360h141l258 -360h-139l-203 276l-297 -276h-147z" />
<glyph unicode="&#x2dc;" horiz-adv-x="841" d="M283 1206l22 127q84 88 195 88q56 0 110 -25t105.5 -50t99.5 -25q103 0 205 102l-23 -127q-84 -88 -194 -88q-46 0 -92 16t-77 34.5t-71 34.5t-76 16q-109 0 -204 -103z" />
<glyph unicode="&#x2000;" horiz-adv-x="973" />
<glyph unicode="&#x2001;" horiz-adv-x="1946" />
<glyph unicode="&#x2002;" horiz-adv-x="973" />
<glyph unicode="&#x2003;" horiz-adv-x="1946" />
<glyph unicode="&#x2004;" horiz-adv-x="648" />
<glyph unicode="&#x2005;" horiz-adv-x="486" />
<glyph unicode="&#x2006;" horiz-adv-x="324" />
<glyph unicode="&#x2007;" horiz-adv-x="324" />
<glyph unicode="&#x2008;" horiz-adv-x="243" />
<glyph unicode="&#x2009;" horiz-adv-x="389" />
<glyph unicode="&#x200a;" horiz-adv-x="108" />
<glyph unicode="&#x2010;" horiz-adv-x="653" d="M168 600l27 145h526l-27 -145h-526z" />
<glyph unicode="&#x2011;" horiz-adv-x="653" d="M168 600l27 145h526l-27 -145h-526z" />
<glyph unicode="&#x2012;" horiz-adv-x="653" d="M168 600l27 145h526l-27 -145h-526z" />
<glyph unicode="&#x2013;" horiz-adv-x="1073" d="M168 600l27 145h948l-27 -145h-948z" />
<glyph unicode="&#x2014;" horiz-adv-x="1468" d="M168 600l27 145h1341l-27 -145h-1341z" />
<glyph unicode="&#x2018;" horiz-adv-x="370" d="M287 1130l59 343h199l-58 -332h-108q7 -87 76 -199l-72 -61q-87 115 -96 249z" />
<glyph unicode="&#x2019;" horiz-adv-x="370" d="M252 942q100 103 145 199h-108l57 332h199l-60 -343q-60 -136 -186 -249z" />
<glyph unicode="&#x201a;" horiz-adv-x="370" d="M49 -199q103 107 148 199h-109l57 332h199l-59 -340q-60 -136 -187 -250z" />
<glyph unicode="&#x201c;" horiz-adv-x="741" d="M287 1130l59 343h199l-58 -332h-108q7 -87 76 -199l-72 -61q-87 115 -96 249zM657 1130l60 343h198l-57 -332h-108q7 -89 75 -199l-71 -61q-88 116 -97 249z" />
<glyph unicode="&#x201d;" horiz-adv-x="741" d="M252 942q100 103 145 199h-108l57 332h199l-60 -343q-60 -136 -186 -249zM623 942q100 103 145 199h-109l58 332h198l-59 -343q-60 -136 -186 -249z" />
<glyph unicode="&#x201e;" horiz-adv-x="741" d="M49 -199q103 107 148 199h-109l57 332h199l-59 -340q-60 -136 -187 -250zM420 -199q101 105 147 199h-108l57 332h199l-60 -340q-61 -138 -186 -250z" />
<glyph unicode="&#x2022;" horiz-adv-x="647" d="M199 709q0 126 82.5 210.5t218.5 84.5q104 0 158.5 -55.5t54.5 -149.5q0 -126 -82 -211.5t-219 -85.5q-102 0 -157.5 57t-55.5 150z" />
<glyph unicode="&#x2026;" horiz-adv-x="1761" d="M78 0l57 332h197l-58 -332h-196zM782 0l58 332h196l-57 -332h-197zM1487 0l57 332h197l-58 -332h-196z" />
<glyph unicode="&#x202f;" horiz-adv-x="389" />
<glyph unicode="&#x2039;" horiz-adv-x="460" d="M168 618l25 142l399 323l-27 -149l-303 -248l215 -250l-24 -139z" />
<glyph unicode="&#x203a;" horiz-adv-x="460" d="M111 297l24 147l303 250l-215 248l27 141l285 -323l-25 -142z" />
<glyph unicode="&#x205f;" horiz-adv-x="486" />
<glyph unicode="&#x20ac;" horiz-adv-x="1118" d="M111 487l39 103h116l47 260h-137l37 102h119q66 277 222.5 408t418.5 131q211 0 330 -82l-78 -131q-98 68 -279 68q-167 0 -268.5 -96.5t-147.5 -297.5h508l-59 -102h-467l-47 -260h364l-61 -103h-317q-7 -68 -7 -106q0 -154 68 -213t217 -59q197 0 320 77l49 -120 q-161 -103 -396 -103q-230 0 -343 101t-113 313q0 51 6 110h-141z" />
<glyph unicode="&#x2122;" horiz-adv-x="1837" d="M268 1110l62 344h649l-61 -344h-87l31 252h-164l-123 -690l87 -13l-13 -71h-297l13 71l88 13l122 690h-161l-60 -252h-86zM903 588l12 71l80 13l123 696l-74 14l13 72h270l84 -727l350 727h256l-12 -72l-82 -14l-123 -696l76 -13l-12 -71h-265l13 71l80 13l120 680 l-370 -764h-127l-94 764l-121 -680l74 -13l-13 -71h-258z" />
<glyph unicode="&#x25fc;" horiz-adv-x="1075" d="M0 0v1075h1075v-1075h-1075z" />
<glyph unicode="&#xfb01;" horiz-adv-x="1263" d="M61 0l21 117l135 18l145 819h-151l20 123h152l25 135q27 150 110 214.5t230 64.5q146 0 206 -43l-41 -117q-48 31 -133 31q-166 0 -194 -162l-23 -123h295l-20 -123h-295l-146 -819l152 -18l-21 -117h-467zM762 0l20 117l136 18l143 807l-131 19l20 116h316l-166 -942 l131 -18l-21 -117h-448zM1106 1208l45 265h182l-45 -265h-182z" />
<glyph unicode="&#xfb02;" horiz-adv-x="1294" d="M61 0l21 117l135 18l145 819h-151l20 123h152l25 135q27 150 110 214.5t230 64.5q146 0 206 -43l-41 -117q-48 31 -133 31q-166 0 -194 -162l-23 -123h295l-20 -123h-295l-146 -819l152 -18l-21 -117h-467zM793 0l20 117l135 18l213 1202l-131 19l21 117h315l-236 -1338 l132 -18l-21 -117h-448z" />
</font>
</defs>
</svg>
